<?xml version="1.0" standalone="no"?>
<!DOCTYPE svg PUBLIC "-//W3C//DTD SVG 1.1//EN" "http://www.w3.org/Graphics/SVG/1.1/DTD/svg11.dtd">
<svg width="849.0" height="499.0" version="1.1" xmlns="http://www.w3.org/2000/svg">
<g id="frame_graph_1" class="visualization">
<rect x="0" y="0" width="849" height="499" stroke="none" fill="white"/>
<g id="frame_data_1" class="graph">
<rect x="8.49" y="4.99" width="832.02" height="489.02" stroke="none" fill="white"/>
<rect x="70.87" y="4.99" width="769.64" height="424.52" stroke="none" fill="#f0f0f0"/>
<g id="gridline_1030859" class="gridline-majorGridLines">
<line x1="70.87" y1="429.51" x2="840.51" y2="429.51" stroke="#aeaeae" fill="none" stroke-width="1.0"/>
<line x1="70.87" y1="314.28" x2="840.51" y2="314.28" stroke="#aeaeae" fill="none" stroke-width="1.0"/>
<line x1="70.87" y1="199.06" x2="840.51" y2="199.06" stroke="#aeaeae" fill="none" stroke-width="1.0"/>
<line x1="70.87" y1="83.83" x2="840.51" y2="83.83" stroke="#aeaeae" fill="none" stroke-width="1.0"/>
</g>
<g id="axis_axisx_1" class="axis-baseline">
<path d="M70.87 429.51 L840.51 429.51" stroke="black" fill="none"/>
<text x="391.69" y="482.97" fill="black" font-family="SansSerif" font-size="16" font-weight="bold">number of layers</text><text x="735.3" y="450.6" fill="black" font-family="SansSerif" font-size="16">21</text><text x="619.86" y="450.6" fill="black" font-family="SansSerif" font-size="16">18</text><text x="504.41" y="450.6" fill="black" font-family="SansSerif" font-size="16">15</text><text x="388.96" y="450.6" fill="black" font-family="SansSerif" font-size="16">12</text><text x="278.02" y="450.6" fill="black" font-family="SansSerif" font-size="16">9</text><text x="162.57" y="450.6" fill="black" font-family="SansSerif" font-size="16">6</text></g>
<g id="interval_1031196" class="interval-main">
<path d="M210.36 429.51 L210.36 233.38 L123.78 233.38 L123.78 429.51 L210.36 429.51 Z" stroke="none" fill="#5596e6"/>
<path d="M210.36 429.51 L210.36 233.38 L123.78 233.38 L123.78 429.51 L210.36 429.51 Z" stroke="black" fill="none" stroke-width="1.0"/>
<path d="M325.81 429.51 L325.81 186.11 L239.23 186.11 L239.23 429.51 L325.81 429.51 Z" stroke="none" fill="#5596e6"/>
<path d="M325.81 429.51 L325.81 186.11 L239.23 186.11 L239.23 429.51 L325.81 429.51 Z" stroke="black" fill="none" stroke-width="1.0"/>
<path d="M441.25 429.51 L441.25 185.78 L354.68 185.78 L354.68 429.51 L441.25 429.51 Z" stroke="none" fill="#5596e6"/>
<path d="M441.25 429.51 L441.25 185.78 L354.68 185.78 L354.68 429.51 L441.25 429.51 Z" stroke="black" fill="none" stroke-width="1.0"/>
<path d="M556.7 429.51 L556.7 150.18 L470.12 150.18 L470.12 429.51 L556.7 429.51 Z" stroke="none" fill="#5596e6"/>
<path d="M556.7 429.51 L556.7 150.18 L470.12 150.18 L470.12 429.51 L556.7 429.51 Z" stroke="black" fill="none" stroke-width="1.0"/>
<path d="M672.15 429.51 L672.15 118.11 L585.57 118.11 L585.57 429.51 L672.15 429.51 Z" stroke="none" fill="#5596e6"/>
<path d="M672.15 429.51 L672.15 118.11 L585.57 118.11 L585.57 429.51 L672.15 429.51 Z" stroke="black" fill="none" stroke-width="1.0"/>
<path d="M787.59 429.51 L787.59 100.12 L701.02 100.12 L701.02 429.51 L787.59 429.51 Z" stroke="none" fill="#5596e6"/>
<path d="M787.59 429.51 L787.59 100.12 L701.02 100.12 L701.02 429.51 L787.59 429.51 Z" stroke="black" fill="none" stroke-width="1.0"/>
</g>
<g id="element_point_1" class="point-main">
<ellipse cx="167.07" cy="233.38" rx="3.33" ry="3.33" stroke="none" fill="#1192e8"/>
<ellipse cx="167.07" cy="233.38" rx="3.33" ry="3.33" stroke="black" fill="none" stroke-width="1.0"/>
<ellipse cx="282.52" cy="186.11" rx="3.33" ry="3.33" stroke="none" fill="#1192e8"/>
<ellipse cx="282.52" cy="186.11" rx="3.33" ry="3.33" stroke="black" fill="none" stroke-width="1.0"/>
<ellipse cx="397.96" cy="185.78" rx="3.33" ry="3.33" stroke="none" fill="#1192e8"/>
<ellipse cx="397.96" cy="185.78" rx="3.33" ry="3.33" stroke="black" fill="none" stroke-width="1.0"/>
<ellipse cx="513.41" cy="150.18" rx="3.33" ry="3.33" stroke="none" fill="#1192e8"/>
<ellipse cx="513.41" cy="150.18" rx="3.33" ry="3.33" stroke="black" fill="none" stroke-width="1.0"/>
<ellipse cx="628.86" cy="118.11" rx="3.33" ry="3.33" stroke="none" fill="#1192e8"/>
<ellipse cx="628.86" cy="118.11" rx="3.33" ry="3.33" stroke="black" fill="none" stroke-width="1.0"/>
<ellipse cx="744.3" cy="100.12" rx="3.33" ry="3.33" stroke="none" fill="#1192e8"/>
<ellipse cx="744.3" cy="100.12" rx="3.33" ry="3.33" stroke="black" fill="none" stroke-width="1.0"/>
</g>
<g id="element_errorbar_1" class="interval-main">
<path d="M152.64 256.66 L181.5 256.66 M167.07 256.66 L167.07 210.1 M152.64 210.1 L181.5 210.1" stroke="none" fill="black"/>
<path d="M152.64 256.66 L181.5 256.66 M167.07 256.66 L167.07 210.1 M152.64 210.1 L181.5 210.1" stroke="black" fill="none" stroke-width="1.3333334"/>
<path d="M268.09 209.39 L296.95 209.39 M282.52 209.39 L282.52 162.83 M268.09 162.83 L296.95 162.83" stroke="none" fill="black"/>
<path d="M268.09 209.39 L296.95 209.39 M282.52 209.39 L282.52 162.83 M268.09 162.83 L296.95 162.83" stroke="black" fill="none" stroke-width="1.3333334"/>
<path d="M383.53 209.06 L412.39 209.06 M397.96 209.06 L397.96 162.5 M383.53 162.5 L412.39 162.5" stroke="none" fill="black"/>
<path d="M383.53 209.06 L412.39 209.06 M397.96 209.06 L397.96 162.5 M383.53 162.5 L412.39 162.5" stroke="black" fill="none" stroke-width="1.3333334"/>
<path d="M498.98 173.46 L527.84 173.46 M513.41 173.46 L513.41 126.9 M498.98 126.9 L527.84 126.9" stroke="none" fill="black"/>
<path d="M498.98 173.46 L527.84 173.46 M513.41 173.46 L513.41 126.9 M498.98 126.9 L527.84 126.9" stroke="black" fill="none" stroke-width="1.3333334"/>
<path d="M614.43 141.39 L643.29 141.39 M628.86 141.39 L628.86 94.83 M614.43 94.83 L643.29 94.83" stroke="none" fill="black"/>
<path d="M614.43 141.39 L643.29 141.39 M628.86 141.39 L628.86 94.83 M614.43 94.83 L643.29 94.83" stroke="black" fill="none" stroke-width="1.3333334"/>
<path d="M729.88 123.4 L758.73 123.4 M744.3 123.4 L744.3 76.84 M729.88 76.84 L758.73 76.84" stroke="none" fill="black"/>
<path d="M729.88 123.4 L758.73 123.4 M744.3 123.4 L744.3 76.84 M729.88 76.84 L758.73 76.84" stroke="black" fill="none" stroke-width="1.3333334"/>
</g>
<g id="guide_referenceLine_226" class="lineGuide-main">
<path d="M70.87 429.51 L840.51 429.51" stroke="black" fill="none" stroke-width="3.3333333"/>
</g>
<g id="guide_referenceLine_227" class="lineGuide-main">
<path d="M70.87 162.28 L840.51 162.28" stroke="black" fill="none" stroke-width="3.3333333"/>
</g>
<g id="axis_axisy_1" class="axis-minorTicks">
<line x1="70.87" y1="371.9" x2="65.59" y2="371.9" stroke="black" fill="none" stroke-width="1.0"/>
<line x1="70.87" y1="256.67" x2="65.59" y2="256.67" stroke="black" fill="none" stroke-width="1.0"/>
<line x1="70.87" y1="141.44" x2="65.59" y2="141.44" stroke="black" fill="none" stroke-width="1.0"/>
<line x1="70.87" y1="26.22" x2="65.59" y2="26.22" stroke="black" fill="none" stroke-width="1.0"/>
</g>
<g id="axis_axisy_1" class="axis-baseline">
<path d="M70.87 4.99 L70.87 429.51" stroke="black" title="60" fill="none"/>
<text x="-265.25" y="30.58" fill="black" font-family="SansSerif" font-size="16" font-weight="bold" transform="matrix(0 -1 1 0 0 0)">trial duration</text><text x="47.86" y="91.92" fill="black" font-family="SansSerif" font-size="16">60</text><text x="47.86" y="207.14" fill="black" font-family="SansSerif" font-size="16">40</text><text x="47.86" y="322.37" fill="black" font-family="SansSerif" font-size="16">20</text><text x="56.86" y="437.6" fill="black" font-family="SansSerif" font-size="16">0</text><rect x="70.87" y="4.99" width="769.64" height="424.52" stroke="black" fill="none" stroke-width="1.0"/>
<rect x="8.49" y="4.99" width="832.02" height="489.02" stroke="none" fill="none" stroke-width="1.0" stroke-opacity="0"/>
</g>
</g>
<rect x="0" y="0" width="849" height="499" stroke="none" fill="none" stroke-width="1.0" stroke-opacity="0"/>
</g>
</svg>
