<?xml version="1.0" encoding="utf-8" standalone="no"?>
<!DOCTYPE svg PUBLIC "-//W3C//DTD SVG 1.1//EN"
  "http://www.w3.org/Graphics/SVG/1.1/DTD/svg11.dtd">
<svg xmlns:xlink="http://www.w3.org/1999/xlink" width="1800pt" height="576pt" viewBox="0 0 1800 576" xmlns="http://www.w3.org/2000/svg" version="1.1">
 <metadata>
  <rdf:RDF xmlns:dc="http://purl.org/dc/elements/1.1/" xmlns:cc="http://creativecommons.org/ns#" xmlns:rdf="http://www.w3.org/1999/02/22-rdf-syntax-ns#">
   <cc:Work>
    <dc:type rdf:resource="http://purl.org/dc/dcmitype/StillImage"/>
    <dc:date>2022-01-21T00:27:46.755210</dc:date>
    <dc:format>image/svg+xml</dc:format>
    <dc:creator>
     <cc:Agent>
      <dc:title>Matplotlib v3.5.0, https://matplotlib.org/</dc:title>
     </cc:Agent>
    </dc:creator>
   </cc:Work>
  </rdf:RDF>
 </metadata>
 <defs>
  <style type="text/css">*{stroke-linejoin: round; stroke-linecap: butt}</style>
 </defs>
 <g id="figure_1">
  <g id="patch_1">
   <path d="M 0 576 
L 1800 576 
L 1800 0 
L 0 0 
L 0 576 
z
" style="fill: none"/>
  </g>
  <g id="axes_1">
   <g id="patch_2">
    <path d="M 225 504 
L 1620 504 
L 1620 69.12 
L 225 69.12 
z
" style="fill: #ffffff"/>
   </g>
   <g id="matplotlib.axis_1">
    <g id="xtick_1">
     <g id="line2d_1">
      <defs>
       <path id="m397c16b68b" d="M 0 0 
L 0 3.5 
" style="stroke: #000000; stroke-width: 0.8"/>
      </defs>
      <g>
       <use xlink:href="#m397c16b68b" x="288.409091" y="504" style="stroke: #000000; stroke-width: 0.8"/>
      </g>
     </g>
     <g id="text_1">
      <!-- 0 -->
      <g transform="translate(285.227841 518.598438)scale(0.1 -0.1)">
       <defs>
        <path id="DejaVuSans-30" d="M 2034 4250 
Q 1547 4250 1301 3770 
Q 1056 3291 1056 2328 
Q 1056 1369 1301 889 
Q 1547 409 2034 409 
Q 2525 409 2770 889 
Q 3016 1369 3016 2328 
Q 3016 3291 2770 3770 
Q 2525 4250 2034 4250 
z
M 2034 4750 
Q 2819 4750 3233 4129 
Q 3647 3509 3647 2328 
Q 3647 1150 3233 529 
Q 2819 -91 2034 -91 
Q 1250 -91 836 529 
Q 422 1150 422 2328 
Q 422 3509 836 4129 
Q 1250 4750 2034 4750 
z
" transform="scale(0.015625)"/>
       </defs>
       <use xlink:href="#DejaVuSans-30"/>
      </g>
     </g>
    </g>
    <g id="xtick_2">
     <g id="line2d_2">
      <g>
       <use xlink:href="#m397c16b68b" x="557.09168" y="504" style="stroke: #000000; stroke-width: 0.8"/>
      </g>
     </g>
     <g id="text_2">
      <!-- 100 -->
      <g transform="translate(547.54793 518.598438)scale(0.1 -0.1)">
       <defs>
        <path id="DejaVuSans-31" d="M 794 531 
L 1825 531 
L 1825 4091 
L 703 3866 
L 703 4441 
L 1819 4666 
L 2450 4666 
L 2450 531 
L 3481 531 
L 3481 0 
L 794 0 
L 794 531 
z
" transform="scale(0.015625)"/>
       </defs>
       <use xlink:href="#DejaVuSans-31"/>
       <use xlink:href="#DejaVuSans-30" x="63.623047"/>
       <use xlink:href="#DejaVuSans-30" x="127.246094"/>
      </g>
     </g>
    </g>
    <g id="xtick_3">
     <g id="line2d_3">
      <g>
       <use xlink:href="#m397c16b68b" x="825.774268" y="504" style="stroke: #000000; stroke-width: 0.8"/>
      </g>
     </g>
     <g id="text_3">
      <!-- 200 -->
      <g transform="translate(816.230518 518.598438)scale(0.1 -0.1)">
       <defs>
        <path id="DejaVuSans-32" d="M 1228 531 
L 3431 531 
L 3431 0 
L 469 0 
L 469 531 
Q 828 903 1448 1529 
Q 2069 2156 2228 2338 
Q 2531 2678 2651 2914 
Q 2772 3150 2772 3378 
Q 2772 3750 2511 3984 
Q 2250 4219 1831 4219 
Q 1534 4219 1204 4116 
Q 875 4013 500 3803 
L 500 4441 
Q 881 4594 1212 4672 
Q 1544 4750 1819 4750 
Q 2544 4750 2975 4387 
Q 3406 4025 3406 3419 
Q 3406 3131 3298 2873 
Q 3191 2616 2906 2266 
Q 2828 2175 2409 1742 
Q 1991 1309 1228 531 
z
" transform="scale(0.015625)"/>
       </defs>
       <use xlink:href="#DejaVuSans-32"/>
       <use xlink:href="#DejaVuSans-30" x="63.623047"/>
       <use xlink:href="#DejaVuSans-30" x="127.246094"/>
      </g>
     </g>
    </g>
    <g id="xtick_4">
     <g id="line2d_4">
      <g>
       <use xlink:href="#m397c16b68b" x="1094.456857" y="504" style="stroke: #000000; stroke-width: 0.8"/>
      </g>
     </g>
     <g id="text_4">
      <!-- 300 -->
      <g transform="translate(1084.913107 518.598438)scale(0.1 -0.1)">
       <defs>
        <path id="DejaVuSans-33" d="M 2597 2516 
Q 3050 2419 3304 2112 
Q 3559 1806 3559 1356 
Q 3559 666 3084 287 
Q 2609 -91 1734 -91 
Q 1441 -91 1130 -33 
Q 819 25 488 141 
L 488 750 
Q 750 597 1062 519 
Q 1375 441 1716 441 
Q 2309 441 2620 675 
Q 2931 909 2931 1356 
Q 2931 1769 2642 2001 
Q 2353 2234 1838 2234 
L 1294 2234 
L 1294 2753 
L 1863 2753 
Q 2328 2753 2575 2939 
Q 2822 3125 2822 3475 
Q 2822 3834 2567 4026 
Q 2313 4219 1838 4219 
Q 1578 4219 1281 4162 
Q 984 4106 628 3988 
L 628 4550 
Q 988 4650 1302 4700 
Q 1616 4750 1894 4750 
Q 2613 4750 3031 4423 
Q 3450 4097 3450 3541 
Q 3450 3153 3228 2886 
Q 3006 2619 2597 2516 
z
" transform="scale(0.015625)"/>
       </defs>
       <use xlink:href="#DejaVuSans-33"/>
       <use xlink:href="#DejaVuSans-30" x="63.623047"/>
       <use xlink:href="#DejaVuSans-30" x="127.246094"/>
      </g>
     </g>
    </g>
    <g id="xtick_5">
     <g id="line2d_5">
      <g>
       <use xlink:href="#m397c16b68b" x="1363.139445" y="504" style="stroke: #000000; stroke-width: 0.8"/>
      </g>
     </g>
     <g id="text_5">
      <!-- 400 -->
      <g transform="translate(1353.595695 518.598438)scale(0.1 -0.1)">
       <defs>
        <path id="DejaVuSans-34" d="M 2419 4116 
L 825 1625 
L 2419 1625 
L 2419 4116 
z
M 2253 4666 
L 3047 4666 
L 3047 1625 
L 3713 1625 
L 3713 1100 
L 3047 1100 
L 3047 0 
L 2419 0 
L 2419 1100 
L 313 1100 
L 313 1709 
L 2253 4666 
z
" transform="scale(0.015625)"/>
       </defs>
       <use xlink:href="#DejaVuSans-34"/>
       <use xlink:href="#DejaVuSans-30" x="63.623047"/>
       <use xlink:href="#DejaVuSans-30" x="127.246094"/>
      </g>
     </g>
    </g>
   </g>
   <g id="matplotlib.axis_2">
    <g id="ytick_1">
     <g id="line2d_6">
      <defs>
       <path id="m82801a2e15" d="M 0 0 
L -3.5 0 
" style="stroke: #000000; stroke-width: 0.8"/>
      </defs>
      <g>
       <use xlink:href="#m82801a2e15" x="225" y="484.232727" style="stroke: #000000; stroke-width: 0.8"/>
      </g>
     </g>
     <g id="text_6">
      <!-- −1.0 -->
      <g transform="translate(193.717187 488.031946)scale(0.1 -0.1)">
       <defs>
        <path id="DejaVuSans-2212" d="M 678 2272 
L 4684 2272 
L 4684 1741 
L 678 1741 
L 678 2272 
z
" transform="scale(0.015625)"/>
        <path id="DejaVuSans-2e" d="M 684 794 
L 1344 794 
L 1344 0 
L 684 0 
L 684 794 
z
" transform="scale(0.015625)"/>
       </defs>
       <use xlink:href="#DejaVuSans-2212"/>
       <use xlink:href="#DejaVuSans-31" x="83.789062"/>
       <use xlink:href="#DejaVuSans-2e" x="147.412109"/>
       <use xlink:href="#DejaVuSans-30" x="179.199219"/>
      </g>
     </g>
    </g>
    <g id="ytick_2">
     <g id="line2d_7">
      <g>
       <use xlink:href="#m82801a2e15" x="225" y="405.163636" style="stroke: #000000; stroke-width: 0.8"/>
      </g>
     </g>
     <g id="text_7">
      <!-- −0.8 -->
      <g transform="translate(193.717187 408.962855)scale(0.1 -0.1)">
       <defs>
        <path id="DejaVuSans-38" d="M 2034 2216 
Q 1584 2216 1326 1975 
Q 1069 1734 1069 1313 
Q 1069 891 1326 650 
Q 1584 409 2034 409 
Q 2484 409 2743 651 
Q 3003 894 3003 1313 
Q 3003 1734 2745 1975 
Q 2488 2216 2034 2216 
z
M 1403 2484 
Q 997 2584 770 2862 
Q 544 3141 544 3541 
Q 544 4100 942 4425 
Q 1341 4750 2034 4750 
Q 2731 4750 3128 4425 
Q 3525 4100 3525 3541 
Q 3525 3141 3298 2862 
Q 3072 2584 2669 2484 
Q 3125 2378 3379 2068 
Q 3634 1759 3634 1313 
Q 3634 634 3220 271 
Q 2806 -91 2034 -91 
Q 1263 -91 848 271 
Q 434 634 434 1313 
Q 434 1759 690 2068 
Q 947 2378 1403 2484 
z
M 1172 3481 
Q 1172 3119 1398 2916 
Q 1625 2713 2034 2713 
Q 2441 2713 2670 2916 
Q 2900 3119 2900 3481 
Q 2900 3844 2670 4047 
Q 2441 4250 2034 4250 
Q 1625 4250 1398 4047 
Q 1172 3844 1172 3481 
z
" transform="scale(0.015625)"/>
       </defs>
       <use xlink:href="#DejaVuSans-2212"/>
       <use xlink:href="#DejaVuSans-30" x="83.789062"/>
       <use xlink:href="#DejaVuSans-2e" x="147.412109"/>
       <use xlink:href="#DejaVuSans-38" x="179.199219"/>
      </g>
     </g>
    </g>
    <g id="ytick_3">
     <g id="line2d_8">
      <g>
       <use xlink:href="#m82801a2e15" x="225" y="326.094545" style="stroke: #000000; stroke-width: 0.8"/>
      </g>
     </g>
     <g id="text_8">
      <!-- −0.6 -->
      <g transform="translate(193.717187 329.893764)scale(0.1 -0.1)">
       <defs>
        <path id="DejaVuSans-36" d="M 2113 2584 
Q 1688 2584 1439 2293 
Q 1191 2003 1191 1497 
Q 1191 994 1439 701 
Q 1688 409 2113 409 
Q 2538 409 2786 701 
Q 3034 994 3034 1497 
Q 3034 2003 2786 2293 
Q 2538 2584 2113 2584 
z
M 3366 4563 
L 3366 3988 
Q 3128 4100 2886 4159 
Q 2644 4219 2406 4219 
Q 1781 4219 1451 3797 
Q 1122 3375 1075 2522 
Q 1259 2794 1537 2939 
Q 1816 3084 2150 3084 
Q 2853 3084 3261 2657 
Q 3669 2231 3669 1497 
Q 3669 778 3244 343 
Q 2819 -91 2113 -91 
Q 1303 -91 875 529 
Q 447 1150 447 2328 
Q 447 3434 972 4092 
Q 1497 4750 2381 4750 
Q 2619 4750 2861 4703 
Q 3103 4656 3366 4563 
z
" transform="scale(0.015625)"/>
       </defs>
       <use xlink:href="#DejaVuSans-2212"/>
       <use xlink:href="#DejaVuSans-30" x="83.789062"/>
       <use xlink:href="#DejaVuSans-2e" x="147.412109"/>
       <use xlink:href="#DejaVuSans-36" x="179.199219"/>
      </g>
     </g>
    </g>
    <g id="ytick_4">
     <g id="line2d_9">
      <g>
       <use xlink:href="#m82801a2e15" x="225" y="247.025455" style="stroke: #000000; stroke-width: 0.8"/>
      </g>
     </g>
     <g id="text_9">
      <!-- −0.4 -->
      <g transform="translate(193.717187 250.824673)scale(0.1 -0.1)">
       <use xlink:href="#DejaVuSans-2212"/>
       <use xlink:href="#DejaVuSans-30" x="83.789062"/>
       <use xlink:href="#DejaVuSans-2e" x="147.412109"/>
       <use xlink:href="#DejaVuSans-34" x="179.199219"/>
      </g>
     </g>
    </g>
    <g id="ytick_5">
     <g id="line2d_10">
      <g>
       <use xlink:href="#m82801a2e15" x="225" y="167.956364" style="stroke: #000000; stroke-width: 0.8"/>
      </g>
     </g>
     <g id="text_10">
      <!-- −0.2 -->
      <g transform="translate(193.717187 171.755582)scale(0.1 -0.1)">
       <use xlink:href="#DejaVuSans-2212"/>
       <use xlink:href="#DejaVuSans-30" x="83.789062"/>
       <use xlink:href="#DejaVuSans-2e" x="147.412109"/>
       <use xlink:href="#DejaVuSans-32" x="179.199219"/>
      </g>
     </g>
    </g>
    <g id="ytick_6">
     <g id="line2d_11">
      <g>
       <use xlink:href="#m82801a2e15" x="225" y="88.887273" style="stroke: #000000; stroke-width: 0.8"/>
      </g>
     </g>
     <g id="text_11">
      <!-- 0.0 -->
      <g transform="translate(202.096875 92.686491)scale(0.1 -0.1)">
       <use xlink:href="#DejaVuSans-30"/>
       <use xlink:href="#DejaVuSans-2e" x="63.623047"/>
       <use xlink:href="#DejaVuSans-30" x="95.410156"/>
      </g>
     </g>
    </g>
   </g>
   <g id="line2d_12">
    <path d="M 291.095917 179.400534 
L 293.782743 88.887273 
L 360.95339 88.887273 
L 363.640216 121.659294 
L 369.013867 171.59767 
L 371.700693 193.445715 
L 374.387519 213.733189 
L 377.074345 230.899472 
L 379.761171 246.505237 
L 382.447997 257.429257 
L 385.134823 257.429257 
L 387.821649 268.353274 
L 390.508475 287.080156 
L 393.1953 304.246491 
L 403.942604 341.700237 
L 406.62943 349.503108 
L 409.316256 349.503108 
L 412.003082 357.305962 
L 414.689908 376.032898 
L 417.376733 379.154057 
L 420.063559 379.154057 
L 422.750385 383.835762 
L 428.124037 383.835762 
L 430.810863 380.714604 
L 433.497689 372.91175 
L 436.184515 369.790576 
L 444.244992 365.108878 
L 446.931818 361.987722 
L 449.618644 360.427122 
L 452.30547 357.305962 
L 454.992296 351.063695 
L 457.679122 349.503108 
L 463.052773 343.26084 
L 465.739599 341.700237 
L 468.426425 338.57908 
L 471.113251 338.57908 
L 473.800077 333.897372 
L 476.486903 332.336813 
L 479.173729 332.336813 
L 481.860555 329.215663 
L 484.547381 329.215663 
L 487.234206 326.094506 
L 489.921032 324.533907 
L 492.607858 324.533907 
L 497.98151 321.412746 
L 500.668336 318.291652 
L 503.355162 316.731042 
L 506.041988 313.60991 
L 511.415639 310.488758 
L 514.102465 310.488758 
L 516.789291 308.928211 
L 519.476117 308.928211 
L 522.162943 307.367647 
L 524.849769 304.246491 
L 530.223421 301.125336 
L 532.910247 301.125336 
L 535.597072 298.004183 
L 538.283898 296.443636 
L 540.970724 293.322463 
L 543.65755 293.322463 
L 546.344376 291.761876 
L 549.031202 291.761876 
L 551.718028 288.640715 
L 557.09168 285.519595 
L 559.778505 285.519595 
L 562.465331 280.837839 
L 565.152157 280.837839 
L 567.838983 279.277285 
L 570.525809 279.277285 
L 573.212635 277.716684 
L 578.586287 277.716684 
L 581.273112 276.156129 
L 583.959938 276.156129 
L 586.646764 273.034986 
L 589.33359 273.034986 
L 592.020416 271.474432 
M 597.394068 266.792675 
L 600.080894 266.792675 
L 608.141371 262.110967 
L 613.515023 262.110967 
L 616.201849 258.989811 
L 618.888675 257.429257 
L 621.575501 257.429257 
L 626.949153 254.308101 
L 629.635978 251.186946 
L 632.322804 249.626393 
M 640.383282 290.201316 
L 643.070108 276.156129 
L 645.756934 255.86866 
L 648.44376 221.536054 
L 651.130586 124.780449 
L 653.817411 88.887273 
L 688.746148 88.887273 
L 691.432974 90.447798 
L 694.1198 107.614122 
L 696.806626 120.098741 
L 699.493451 131.022756 
L 702.180277 140.386175 
L 704.867103 140.386175 
L 707.553929 151.310189 
L 710.240755 168.476514 
L 712.927581 176.279379 
L 715.614407 195.006269 
L 718.301233 195.006269 
L 723.674884 210.612034 
L 726.36171 224.657204 
L 729.048536 224.657204 
L 731.735362 229.338918 
L 734.422188 246.505237 
L 737.109014 254.308101 
L 739.79584 258.989811 
L 742.482666 265.232121 
L 745.169492 269.913831 
L 747.856317 276.156129 
L 750.543143 287.080156 
L 753.229969 287.080156 
L 755.916795 291.761876 
L 758.603621 301.125336 
L 761.290447 301.125336 
L 763.977273 302.68589 
L 766.664099 299.564731 
L 772.03775 299.564731 
L 774.724576 296.443636 
L 777.411402 296.443636 
L 780.098228 294.883026 
L 782.785054 294.883026 
L 785.47188 291.761876 
L 788.158706 287.080156 
L 790.845532 287.080156 
L 796.219183 280.837839 
L 801.592835 271.474432 
L 804.279661 268.353274 
L 806.966487 266.792675 
L 815.026965 257.429257 
L 817.71379 255.86866 
L 820.400616 252.7475 
L 823.087442 248.065791 
L 828.461094 244.944633 
L 831.14792 240.262926 
L 833.834746 237.141779 
L 839.208398 234.020627 
L 841.895223 229.338918 
L 844.582049 229.338918 
L 847.268875 226.217763 
L 849.955701 219.975452 
L 855.329353 213.733189 
L 858.016179 207.490879 
L 860.703005 204.369723 
L 863.389831 204.369723 
L 868.763482 198.127429 
L 871.450308 196.56687 
L 882.197612 196.56687 
L 884.884438 198.127429 
L 890.258089 198.127429 
L 892.944915 199.688026 
L 898.318567 199.688026 
L 901.005393 201.24858 
L 906.379045 201.24858 
M 911.752696 201.24858 
L 914.439522 202.809169 
L 919.813174 202.809169 
L 922.5 204.369723 
L 930.560478 204.369723 
L 935.934129 207.490879 
L 938.620955 205.930283 
L 941.307781 207.490879 
L 981.610169 207.490879 
L 984.296995 205.930283 
L 986.983821 207.490879 
L 1003.104777 207.490879 
L 1005.791602 209.051432 
L 1016.538906 209.051432 
M 1024.599384 307.367647 
L 1027.28621 238.702372 
L 1029.973035 190.32456 
L 1032.659861 88.887273 
L 1081.022727 88.887273 
L 1083.709553 90.447798 
L 1086.396379 135.704466 
L 1091.770031 173.158223 
L 1094.456857 190.32456 
L 1097.143683 190.32456 
L 1099.830508 212.17259 
L 1102.517334 223.096608 
L 1105.20416 227.778317 
L 1107.890986 234.020627 
L 1110.577812 238.702372 
L 1113.264638 238.702372 
L 1115.951464 244.944633 
L 1118.63829 255.86866 
L 1121.325116 262.110967 
L 1124.011941 274.595542 
L 1126.698767 280.837839 
L 1129.385593 280.837839 
L 1132.072419 287.080156 
L 1134.759245 294.883026 
L 1140.132897 301.125336 
L 1150.8802 301.125336 
L 1153.567026 299.564731 
L 1156.253852 301.125336 
L 1164.31433 296.443636 
L 1167.001156 296.443636 
L 1169.687982 285.519595 
L 1172.374807 282.398436 
L 1175.061633 282.398436 
L 1177.748459 276.156129 
L 1180.435285 271.474432 
L 1183.122111 271.474432 
L 1185.808937 268.353274 
L 1188.495763 263.671514 
L 1191.182589 262.110967 
L 1193.869414 262.110967 
L 1196.55624 260.550412 
L 1199.243066 257.429257 
L 1201.929892 255.86866 
L 1204.616718 255.86866 
L 1207.303544 254.308101 
M 1212.677196 252.7475 
L 1215.364022 252.7475 
L 1215.364022 252.7475 
" clip-path="url(#pe45c19e505)" style="fill: none; stroke: #1f77b4; stroke-width: 1.5; stroke-linecap: square"/>
   </g>
   <g id="line2d_13">
    <defs>
     <path id="m78666bbf2c" d="M 0 3 
C 0.795609 3 1.55874 2.683901 2.12132 2.12132 
C 2.683901 1.55874 3 0.795609 3 0 
C 3 -0.795609 2.683901 -1.55874 2.12132 -2.12132 
C 1.55874 -2.683901 0.795609 -3 0 -3 
C -0.795609 -3 -1.55874 -2.683901 -2.12132 -2.12132 
C -2.683901 -1.55874 -3 -0.795609 -3 0 
C -3 0.795609 -2.683901 1.55874 -2.12132 2.12132 
C -1.55874 2.683901 -0.795609 3 0 3 
z
" style="stroke: #ff7f0e"/>
    </defs>
    <g clip-path="url(#pe45c19e505)">
     <use xlink:href="#m78666bbf2c" x="326.024653" y="88.887273" style="fill: #ff7f0e; stroke: #ff7f0e"/>
     <use xlink:href="#m78666bbf2c" x="669.938367" y="88.887273" style="fill: #ff7f0e; stroke: #ff7f0e"/>
     <use xlink:href="#m78666bbf2c" x="1056.841294" y="88.887273" style="fill: #ff7f0e; stroke: #ff7f0e"/>
     <use xlink:href="#m78666bbf2c" x="425.437211" y="383.835762" style="fill: #ff7f0e; stroke: #ff7f0e"/>
     <use xlink:href="#m78666bbf2c" x="763.977273" y="302.68589" style="fill: #ff7f0e; stroke: #ff7f0e"/>
     <use xlink:href="#m78666bbf2c" x="1145.506549" y="301.125336" style="fill: #ff7f0e; stroke: #ff7f0e"/>
     <use xlink:href="#m78666bbf2c" x="1156.253852" y="301.125336" style="fill: #ff7f0e; stroke: #ff7f0e"/>
    </g>
   </g>
   <g id="line2d_14">
    <path d="M 291.095917 205.930283 
L 296.469569 155.991945 
L 299.156394 129.462156 
L 301.84322 129.462156 
L 304.530046 104.492969 
L 307.216872 88.887273 
L 366.327042 88.887273 
L 369.013867 104.492969 
L 371.700693 137.26502 
L 374.387519 151.310189 
L 377.074345 151.310189 
L 379.761171 162.234209 
L 382.447997 171.59767 
L 385.134823 184.082243 
L 395.882126 202.809169 
L 403.942604 212.17259 
L 406.62943 216.854297 
L 412.003082 223.096608 
L 414.689908 230.899472 
L 417.376733 230.899472 
L 420.063559 235.581232 
L 422.750385 241.82348 
L 428.124037 248.065791 
L 430.810863 248.065791 
L 433.497689 251.186946 
L 438.871341 251.186946 
L 441.558166 252.7475 
L 444.244992 252.7475 
L 446.931818 251.186946 
L 452.30547 251.186946 
L 454.992296 252.7475 
L 457.679122 251.186946 
L 465.739599 251.186946 
L 468.426425 252.7475 
L 473.800077 252.7475 
M 479.173729 252.7475 
L 500.668336 252.7475 
L 503.355162 254.308101 
L 532.910247 254.308101 
L 535.597072 255.86866 
L 538.283898 254.308101 
L 546.344376 254.308101 
L 549.031202 255.86866 
L 554.404854 255.86866 
M 562.465331 312.049345 
L 565.152157 304.246491 
L 567.838983 293.322463 
L 570.525809 293.322463 
L 573.212635 279.277285 
L 575.899461 238.702372 
L 578.586287 212.17259 
L 581.273112 182.521689 
L 583.959938 148.18904 
L 586.646764 88.887273 
L 613.515023 88.887273 
L 616.201849 90.447798 
L 618.888675 109.174723 
L 621.575501 145.067885 
L 624.262327 145.067885 
L 626.949153 163.794805 
L 629.635978 191.885161 
L 632.322804 191.885161 
L 635.00963 218.414897 
L 637.696456 226.217763 
L 640.383282 232.460074 
L 643.070108 240.262926 
L 645.756934 255.86866 
L 651.130586 271.474432 
L 653.817411 285.519595 
L 656.504237 291.761876 
L 659.191063 296.443636 
L 664.564715 308.928211 
L 667.251541 308.928211 
L 669.938367 310.488758 
L 672.625193 313.60991 
L 675.312018 315.170478 
L 677.998844 315.170478 
L 680.68567 316.731042 
L 683.372496 319.852199 
L 686.059322 319.852199 
L 688.746148 318.291652 
L 694.1198 318.291652 
L 696.806626 316.731042 
L 699.493451 310.488758 
L 702.180277 302.68589 
L 704.867103 291.761876 
L 707.553929 276.156129 
L 710.240755 276.156129 
L 712.927581 269.913831 
L 715.614407 269.913831 
L 718.301233 263.671514 
L 723.674884 257.429257 
L 726.36171 252.7475 
L 729.048536 249.626393 
L 731.735362 249.626393 
L 734.422188 248.065791 
L 737.109014 243.384086 
L 742.482666 240.262926 
L 745.169492 237.141779 
L 747.856317 237.141779 
L 750.543143 235.581232 
L 753.229969 235.581232 
L 755.916795 229.338918 
L 758.603621 229.338918 
L 761.290447 226.217763 
L 763.977273 226.217763 
L 766.664099 224.657204 
L 780.098228 224.657204 
L 782.785054 226.217763 
L 788.158706 226.217763 
L 793.532357 229.338918 
L 798.906009 229.338918 
L 801.592835 227.778317 
L 815.026965 227.778317 
M 820.400616 227.778317 
L 823.087442 227.778317 
L 825.774268 229.338918 
L 831.14792 229.338918 
L 833.834746 227.778317 
L 841.895223 227.778317 
L 844.582049 229.338918 
L 849.955701 229.338918 
L 852.642527 230.899472 
L 855.329353 229.338918 
L 858.016179 230.899472 
L 876.82396 230.899472 
L 879.510786 232.460074 
L 882.197612 230.899472 
L 884.884438 230.899472 
L 887.571263 232.460074 
L 898.318567 232.460074 
L 901.005393 230.899472 
L 906.379045 230.899472 
L 909.065871 232.460074 
L 911.752696 230.899472 
L 922.5 230.899472 
M 930.560478 243.384086 
L 933.247304 243.384086 
L 935.934129 258.989811 
L 938.620955 285.519595 
L 941.307781 291.761876 
L 943.994607 288.640715 
L 946.681433 288.640715 
L 949.368259 282.398436 
L 952.055085 260.550412 
L 954.741911 248.065791 
L 962.802388 201.24858 
L 965.489214 159.113054 
L 968.17604 135.704466 
L 970.862866 90.447798 
L 973.549692 90.447798 
L 976.236518 88.887273 
L 1059.52812 88.887273 
L 1062.214946 102.932415 
L 1064.901772 102.932415 
L 1067.588598 113.856434 
L 1070.275424 126.341 
L 1072.96225 137.26502 
L 1075.649076 149.749638 
L 1078.335901 171.59767 
L 1081.022727 180.961088 
L 1083.709553 191.885161 
L 1086.396379 201.24858 
L 1089.083205 209.051432 
L 1091.770031 209.051432 
L 1094.456857 215.293743 
L 1097.143683 227.778317 
L 1107.890986 234.020627 
L 1110.577812 234.020627 
L 1113.264638 237.141779 
L 1115.951464 248.065791 
L 1118.63829 251.186946 
L 1121.325116 255.86866 
L 1126.698767 262.110967 
L 1129.385593 262.110967 
L 1132.072419 266.792675 
L 1134.759245 266.792675 
L 1137.446071 265.232121 
L 1148.193374 265.232121 
L 1150.8802 262.110967 
L 1153.567026 262.110967 
L 1158.940678 258.989811 
L 1175.061633 258.989811 
L 1177.748459 255.86866 
L 1180.435285 254.308101 
L 1185.808937 254.308101 
L 1188.495763 251.186946 
L 1193.869414 251.186946 
L 1196.55624 246.505237 
L 1199.243066 244.944633 
L 1201.929892 241.82348 
L 1204.616718 240.262926 
L 1207.303544 240.262926 
L 1209.99037 237.141779 
L 1215.364022 237.141779 
L 1220.737673 230.899472 
L 1223.424499 229.338918 
L 1231.484977 229.338918 
L 1234.171803 230.899472 
L 1236.858629 230.899472 
L 1239.545455 232.460074 
L 1242.23228 230.899472 
L 1244.919106 232.460074 
L 1269.100539 232.460074 
M 1274.474191 232.460074 
L 1293.281972 232.460074 
L 1295.968798 234.020627 
L 1309.402928 234.020627 
L 1312.089753 232.460074 
L 1336.271186 232.460074 
L 1338.958012 234.020627 
L 1341.644838 232.460074 
L 1344.331664 234.020627 
L 1347.01849 232.460074 
L 1349.705316 232.460074 
L 1352.392142 234.020627 
L 1355.078968 232.460074 
L 1360.452619 232.460074 
L 1363.139445 234.020627 
L 1373.886749 234.020627 
L 1376.573575 235.581232 
L 1379.260401 235.581232 
L 1381.947227 234.020627 
L 1384.634052 234.020627 
L 1384.634052 234.020627 
" clip-path="url(#pe45c19e505)" style="fill: none; stroke: #2ca02c; stroke-width: 1.5; stroke-linecap: square"/>
   </g>
   <g id="line2d_15">
    <defs>
     <path id="mec4fd51731" d="M 0 3 
C 0.795609 3 1.55874 2.683901 2.12132 2.12132 
C 2.683901 1.55874 3 0.795609 3 0 
C 3 -0.795609 2.683901 -1.55874 2.12132 -2.12132 
C 1.55874 -2.683901 0.795609 -3 0 -3 
C -0.795609 -3 -1.55874 -2.683901 -2.12132 -2.12132 
C -2.683901 -1.55874 -3 -0.795609 -3 0 
C -3 0.795609 -2.683901 1.55874 -2.12132 2.12132 
C -1.55874 2.683901 -0.795609 3 0 3 
z
" style="stroke: #d62728"/>
    </defs>
    <g clip-path="url(#pe45c19e505)">
     <use xlink:href="#mec4fd51731" x="336.771957" y="88.887273" style="fill: #d62728; stroke: #d62728"/>
     <use xlink:href="#mec4fd51731" x="600.080894" y="88.887273" style="fill: #d62728; stroke: #d62728"/>
     <use xlink:href="#mec4fd51731" x="1016.538906" y="88.887273" style="fill: #d62728; stroke: #d62728"/>
     <use xlink:href="#mec4fd51731" x="683.372496" y="319.852199" style="fill: #d62728; stroke: #d62728"/>
     <use xlink:href="#mec4fd51731" x="941.307781" y="291.761876" style="fill: #d62728; stroke: #d62728"/>
     <use xlink:href="#mec4fd51731" x="1132.072419" y="266.792675" style="fill: #d62728; stroke: #d62728"/>
    </g>
   </g>
   <g id="line2d_16">
    <path d="M 291.095917 226.217763 
L 293.782743 240.262926 
L 296.469569 240.262926 
L 299.156394 248.065791 
L 301.84322 257.429257 
L 304.530046 263.671514 
L 307.216872 277.716684 
L 309.903698 282.398436 
L 312.590524 288.640715 
L 315.27735 293.322463 
L 317.964176 304.246491 
L 320.651002 304.246491 
L 326.024653 313.60991 
L 328.711479 316.731042 
L 331.398305 321.412746 
L 334.085131 327.655053 
L 336.771957 330.776226 
L 339.458783 330.776226 
L 342.145609 333.897372 
L 344.832435 343.26084 
L 350.206086 349.503108 
L 355.579738 352.624257 
L 358.266564 352.624257 
L 360.95339 351.063695 
L 366.327042 344.821388 
L 369.013867 338.57908 
L 371.700693 330.776226 
L 374.387519 313.60991 
L 377.074345 304.246491 
L 379.761171 280.837839 
L 385.134823 258.989811 
L 387.821649 237.141779 
L 393.1953 218.414897 
L 395.882126 207.490879 
L 398.568952 198.127429 
L 401.255778 190.32456 
L 403.942604 174.718827 
L 406.62943 166.91596 
L 412.003082 154.431345 
L 414.689908 154.431345 
L 417.376733 148.18904 
L 420.063559 138.825622 
L 422.750385 134.143865 
L 425.437211 134.143865 
L 428.124037 123.219847 
L 430.810863 123.219847 
L 433.497689 120.098741 
L 436.184515 113.856434 
L 444.244992 118.538142 
L 446.931818 123.219847 
L 449.618644 123.219847 
L 454.992296 126.341 
L 457.679122 129.462156 
L 460.365948 134.143865 
L 463.052773 141.946777 
L 465.739599 143.507331 
L 468.426425 143.507331 
L 471.113251 146.628486 
L 473.800077 152.870791 
L 476.486903 160.673656 
L 479.173729 163.794805 
L 481.860555 165.355359 
L 484.547381 170.037067 
L 487.234206 171.59767 
L 489.921032 174.718827 
L 492.607858 174.718827 
L 495.294684 177.83998 
L 497.98151 179.400534 
L 503.355162 185.642839 
L 511.415639 185.642839 
L 514.102465 184.082243 
L 516.789291 184.082243 
L 519.476117 182.521689 
L 522.162943 179.400534 
L 524.849769 174.718827 
L 527.536595 174.718827 
L 530.223421 168.476514 
L 532.910247 154.431345 
L 538.283898 157.5525 
L 540.970724 160.673656 
L 543.65755 160.673656 
L 549.031202 166.91596 
L 551.718028 166.91596 
L 554.404854 168.476514 
L 557.09168 166.91596 
L 565.152157 166.91596 
L 567.838983 168.476514 
L 570.525809 166.91596 
L 573.212635 168.476514 
L 575.899461 168.476514 
L 581.273112 171.59767 
L 583.959938 171.59767 
L 586.646764 174.718827 
L 589.33359 182.521689 
L 592.020416 188.764006 
L 597.394068 198.127429 
L 600.080894 201.24858 
L 602.76772 205.930283 
L 608.141371 209.051432 
L 610.828197 209.051432 
L 613.515023 210.612034 
L 618.888675 210.612034 
L 621.575501 209.051432 
L 624.262327 210.612034 
L 643.070108 210.612034 
L 645.756934 209.051432 
L 648.44376 210.612034 
L 651.130586 209.051432 
L 653.817411 209.051432 
L 656.504237 210.612034 
L 659.191063 209.051432 
L 677.998844 209.051432 
M 683.372496 209.051432 
L 691.432974 209.051432 
L 694.1198 207.490879 
L 696.806626 207.490879 
L 699.493451 209.051432 
L 761.290447 209.051432 
L 763.977273 207.490879 
L 774.724576 207.490879 
L 777.411402 209.051432 
L 782.785054 209.051432 
L 785.47188 207.490879 
L 788.158706 209.051432 
L 790.845532 207.490879 
L 793.532357 207.490879 
M 801.592835 184.082243 
L 804.279661 188.764006 
L 806.966487 209.051432 
L 809.653313 221.536054 
L 812.340139 249.626393 
L 815.026965 265.232121 
L 817.71379 265.232121 
L 820.400616 276.156129 
L 823.087442 279.277285 
L 825.774268 274.595542 
L 828.461094 243.384086 
L 831.14792 215.293743 
L 833.834746 184.082243 
L 836.521572 151.310189 
L 839.208398 123.219847 
L 841.895223 101.371814 
L 844.582049 101.371814 
L 847.268875 88.887273 
L 852.642527 88.887273 
L 855.329353 98.25066 
L 858.016179 98.25066 
L 860.703005 107.614122 
L 863.389831 115.416987 
L 866.076656 120.098741 
L 868.763482 118.538142 
L 871.450308 115.416987 
L 874.137134 113.856434 
L 879.510786 113.856434 
L 882.197612 118.538142 
L 884.884438 135.704466 
L 887.571263 149.749638 
L 890.258089 165.355359 
L 892.944915 179.400534 
L 895.631741 195.006269 
L 898.318567 205.930283 
L 901.005393 215.293743 
L 903.692219 237.141779 
L 906.379045 248.065791 
L 909.065871 257.429257 
L 911.752696 263.671514 
L 914.439522 266.792675 
L 919.813174 269.913831 
L 922.5 273.034986 
L 925.186826 274.595542 
L 927.873652 274.595542 
L 930.560478 276.156129 
L 933.247304 279.277285 
L 935.934129 280.837839 
L 946.681433 280.837839 
L 949.368259 282.398436 
L 952.055085 280.837839 
L 954.741911 282.398436 
L 960.115562 282.398436 
L 962.802388 290.201316 
L 965.489214 296.443636 
L 968.17604 296.443636 
L 970.862866 307.367647 
L 973.549692 313.60991 
L 976.236518 324.533907 
L 978.923344 327.655053 
L 989.670647 327.655053 
L 992.357473 329.215663 
L 995.044299 327.655053 
L 997.731125 324.533907 
L 1000.417951 316.731042 
L 1003.104777 312.049345 
L 1005.791602 312.049345 
L 1011.165254 302.68589 
L 1013.85208 291.761876 
L 1016.538906 285.519595 
L 1019.225732 280.837839 
L 1021.912558 273.034986 
L 1024.599384 273.034986 
L 1027.28621 269.913831 
L 1029.973035 265.232121 
L 1032.659861 265.232121 
L 1038.033513 255.86866 
L 1040.720339 252.7475 
L 1043.407165 251.186946 
L 1046.093991 251.186946 
L 1051.467643 248.065791 
L 1054.154468 248.065791 
L 1056.841294 243.384086 
L 1059.52812 243.384086 
L 1062.214946 240.262926 
L 1064.901772 240.262926 
L 1067.588598 230.899472 
L 1070.275424 223.096608 
L 1072.96225 209.051432 
L 1075.649076 201.24858 
L 1078.335901 196.56687 
L 1083.709553 193.445715 
L 1086.396379 195.006269 
L 1089.083205 195.006269 
L 1091.770031 196.56687 
L 1094.456857 199.688026 
L 1102.517334 204.369723 
L 1110.577812 204.369723 
L 1113.264638 205.930283 
L 1115.951464 204.369723 
L 1118.63829 205.930283 
L 1126.698767 205.930283 
L 1129.385593 207.490879 
L 1134.759245 207.490879 
M 1140.132897 207.490879 
L 1145.506549 207.490879 
L 1148.193374 209.051432 
L 1156.253852 209.051432 
L 1158.940678 210.612034 
L 1164.31433 210.612034 
L 1167.001156 212.17259 
L 1177.748459 212.17259 
L 1180.435285 213.733189 
L 1183.122111 213.733189 
L 1185.808937 215.293743 
L 1188.495763 215.293743 
L 1191.182589 216.854297 
L 1196.55624 216.854297 
L 1199.243066 215.293743 
L 1201.929892 216.854297 
L 1204.616718 216.854297 
L 1207.303544 215.293743 
L 1209.99037 216.854297 
L 1234.171803 216.854297 
L 1236.858629 218.414897 
L 1247.605932 218.414897 
M 1255.66641 248.065791 
L 1258.353236 248.065791 
L 1261.040062 276.156129 
L 1263.726888 276.156129 
L 1266.413713 282.398436 
L 1269.100539 291.761876 
L 1271.787365 296.443636 
L 1274.474191 299.564731 
L 1277.161017 304.246491 
L 1279.847843 304.246491 
L 1282.534669 307.367647 
L 1285.221495 315.170478 
L 1287.90832 319.852199 
L 1290.595146 321.412746 
L 1293.281972 326.094506 
L 1295.968798 326.094506 
L 1298.655624 327.655053 
L 1304.029276 333.897372 
L 1317.463405 341.700237 
L 1320.150231 344.821388 
L 1322.837057 349.503108 
L 1328.210709 352.624257 
L 1330.897535 355.745415 
L 1333.584361 357.305962 
L 1336.271186 361.987722 
L 1347.01849 368.22999 
L 1349.705316 371.351142 
L 1352.392142 371.351142 
L 1357.765794 377.593452 
L 1365.826271 382.275151 
L 1371.199923 388.517458 
L 1373.886749 388.517458 
L 1376.573575 391.638603 
L 1379.260401 397.880914 
L 1381.947227 397.880914 
L 1384.634052 401.002072 
L 1390.007704 404.123166 
L 1392.69453 407.244379 
L 1395.381356 408.804926 
L 1398.068182 408.804926 
L 1400.755008 413.486647 
L 1403.441834 415.047233 
L 1408.815485 421.289501 
L 1411.502311 422.850109 
L 1414.189137 427.531808 
L 1419.562789 430.652981 
L 1422.249615 433.774075 
L 1424.936441 435.334683 
L 1427.623267 435.334683 
L 1430.310092 438.455835 
L 1432.996918 438.455835 
L 1438.37057 441.576994 
L 1441.057396 441.576994 
L 1443.744222 438.455835 
L 1446.431048 443.137595 
L 1451.8047 446.258703 
L 1454.491525 446.258703 
L 1457.178351 447.819257 
L 1459.865177 447.819257 
L 1462.552003 449.379863 
L 1467.925655 449.379863 
L 1478.672958 455.62217 
L 1484.04661 455.62217 
L 1486.733436 457.182717 
L 1492.107088 457.182717 
L 1497.48074 454.061568 
L 1500.167565 454.061568 
L 1502.854391 449.379863 
M 1508.228043 449.379863 
L 1510.914869 444.698142 
L 1513.601695 444.698142 
L 1518.975347 425.971221 
L 1527.035824 411.926042 
L 1529.72265 411.926042 
L 1529.72265 411.926042 
" clip-path="url(#pe45c19e505)" style="fill: none; stroke: #9467bd; stroke-width: 1.5; stroke-linecap: square"/>
   </g>
   <g id="line2d_17">
    <defs>
     <path id="mb6fd14618f" d="M 0 3 
C 0.795609 3 1.55874 2.683901 2.12132 2.12132 
C 2.683901 1.55874 3 0.795609 3 0 
C 3 -0.795609 2.683901 -1.55874 2.12132 -2.12132 
C 1.55874 -2.683901 0.795609 -3 0 -3 
C -0.795609 -3 -1.55874 -2.683901 -2.12132 -2.12132 
C -2.683901 -1.55874 -3 -0.795609 -3 0 
C -3 0.795609 -2.683901 1.55874 -2.12132 2.12132 
C -1.55874 2.683901 -0.795609 3 0 3 
z
" style="stroke: #8c564b"/>
    </defs>
    <g clip-path="url(#pe45c19e505)">
     <use xlink:href="#mb6fd14618f" x="436.184515" y="113.856434" style="fill: #8c564b; stroke: #8c564b"/>
     <use xlink:href="#mb6fd14618f" x="532.910247" y="154.431345" style="fill: #8c564b; stroke: #8c564b"/>
     <use xlink:href="#mb6fd14618f" x="849.955701" y="88.887273" style="fill: #8c564b; stroke: #8c564b"/>
     <use xlink:href="#mb6fd14618f" x="355.579738" y="352.624257" style="fill: #8c564b; stroke: #8c564b"/>
     <use xlink:href="#mb6fd14618f" x="506.041988" y="185.642839" style="fill: #8c564b; stroke: #8c564b"/>
     <use xlink:href="#mb6fd14618f" x="823.087442" y="279.277285" style="fill: #8c564b; stroke: #8c564b"/>
     <use xlink:href="#mb6fd14618f" x="992.357473" y="329.215663" style="fill: #8c564b; stroke: #8c564b"/>
    </g>
   </g>
   <g id="line2d_18">
    <path d="M 291.095917 165.355359 
L 293.782743 132.583311 
L 296.469569 88.887273 
L 420.063559 88.887273 
L 425.437211 101.371814 
L 428.124037 110.735277 
L 430.810863 110.735277 
L 433.497689 115.416987 
L 436.184515 116.977587 
L 441.558166 129.462156 
L 444.244992 132.583311 
L 446.931818 137.26502 
L 449.618644 140.386175 
L 452.30547 145.067885 
L 454.992296 145.067885 
L 457.679122 148.18904 
L 463.052773 157.5525 
L 465.739599 159.113054 
L 468.426425 163.794805 
L 471.113251 165.355359 
L 473.800077 165.355359 
L 476.486903 171.59767 
L 479.173729 171.59767 
L 481.860555 174.718827 
L 484.547381 176.279379 
L 487.234206 179.400534 
L 489.921032 184.082243 
L 492.607858 187.203401 
L 495.294684 195.006269 
L 497.98151 195.006269 
L 500.668336 196.56687 
L 503.355162 204.369723 
L 506.041988 210.612034 
L 508.728814 213.733189 
L 511.415639 213.733189 
L 514.102465 221.536054 
L 519.476117 221.536054 
L 522.162943 224.657204 
L 524.849769 232.460074 
L 530.223421 235.581232 
L 538.283898 235.581232 
L 540.970724 234.020627 
L 543.65755 235.581232 
L 546.344376 235.581232 
L 549.031202 234.020627 
L 567.838983 234.020627 
L 570.525809 235.581232 
M 575.899461 235.581232 
L 592.020416 235.581232 
L 594.707242 237.141779 
L 624.262327 237.141779 
L 626.949153 238.702372 
L 629.635978 237.141779 
L 635.00963 237.141779 
L 637.696456 238.702372 
L 651.130586 238.702372 
L 653.817411 240.262926 
L 656.504237 238.702372 
L 659.191063 240.262926 
L 677.998844 240.262926 
M 686.059322 205.930283 
L 688.746148 157.5525 
L 691.432974 102.932415 
L 694.1198 88.887273 
L 774.724576 88.887273 
L 777.411402 93.568952 
L 780.098228 104.492969 
L 782.785054 104.492969 
L 785.47188 112.295831 
L 788.158706 127.901603 
L 790.845532 132.583311 
L 793.532357 145.067885 
L 796.219183 149.749638 
L 798.906009 149.749638 
L 801.592835 154.431345 
L 804.279661 166.91596 
L 806.966487 170.037067 
L 809.653313 177.83998 
L 812.340139 182.521689 
L 815.026965 190.32456 
L 820.400616 190.32456 
L 823.087442 204.369723 
L 825.774268 207.490879 
L 828.461094 216.854297 
L 836.521572 230.899472 
L 841.895223 237.141779 
L 844.582049 241.82348 
L 847.268875 244.944633 
L 849.955701 249.626393 
L 852.642527 251.186946 
L 855.329353 251.186946 
L 858.016179 254.308101 
L 863.389831 257.429257 
L 871.450308 257.429257 
L 874.137134 255.86866 
L 879.510786 255.86866 
L 882.197612 257.429257 
L 884.884438 257.429257 
L 887.571263 255.86866 
L 901.005393 255.86866 
L 903.692219 257.429257 
L 911.752696 257.429257 
L 917.126348 254.308101 
L 919.813174 249.626393 
L 922.5 238.702372 
L 925.186826 224.657204 
L 927.873652 180.961088 
L 930.560478 180.961088 
L 933.247304 154.431345 
L 935.934129 88.887273 
L 984.296995 88.887273 
L 986.983821 90.447798 
L 989.670647 101.371814 
L 992.357473 109.174723 
L 995.044299 115.416987 
L 997.731125 123.219847 
L 1000.417951 134.143865 
L 1003.104777 143.507331 
L 1005.791602 146.628486 
L 1008.478428 154.431345 
L 1011.165254 154.431345 
L 1013.85208 157.5525 
L 1016.538906 157.5525 
L 1019.225732 159.113054 
L 1021.912558 165.355359 
L 1024.599384 166.91596 
L 1027.28621 170.037067 
L 1032.659861 173.158223 
L 1035.346687 176.279379 
L 1038.033513 176.279379 
L 1043.407165 182.521689 
L 1051.467643 187.203401 
L 1054.154468 190.32456 
L 1059.52812 190.32456 
L 1062.214946 193.445715 
L 1075.649076 201.24858 
L 1097.143683 201.24858 
L 1099.830508 202.809169 
L 1118.63829 202.809169 
M 1124.011941 204.369723 
L 1137.446071 204.369723 
L 1140.132897 205.930283 
L 1142.819723 204.369723 
L 1148.193374 204.369723 
L 1150.8802 205.930283 
L 1172.374807 205.930283 
L 1175.061633 207.490879 
L 1185.808937 207.490879 
L 1188.495763 209.051432 
L 1207.303544 209.051432 
L 1209.99037 210.612034 
L 1226.111325 210.612034 
M 1234.171803 234.020627 
L 1236.858629 191.885161 
L 1239.545455 141.946777 
L 1242.23228 88.887273 
L 1314.776579 88.887273 
L 1317.463405 92.008398 
L 1320.150231 96.690106 
L 1322.837057 102.932415 
L 1325.523883 107.614122 
L 1328.210709 110.735277 
L 1330.897535 121.659294 
L 1333.584361 127.901603 
L 1336.271186 140.386175 
L 1341.644838 149.749638 
L 1347.01849 155.991945 
L 1349.705316 168.476514 
L 1352.392142 168.476514 
L 1355.078968 174.718827 
L 1357.765794 179.400534 
L 1360.452619 179.400534 
L 1363.139445 184.082243 
L 1365.826271 195.006269 
L 1373.886749 204.369723 
L 1376.573575 209.051432 
L 1381.947227 215.293743 
L 1384.634052 216.854297 
L 1387.320878 224.657204 
L 1390.007704 230.899472 
L 1392.69453 230.899472 
L 1398.068182 237.141779 
L 1400.755008 237.141779 
L 1403.441834 240.262926 
L 1406.128659 238.702372 
L 1411.502311 238.702372 
L 1424.936441 230.899472 
L 1427.623267 230.899472 
L 1430.310092 232.460074 
L 1435.683744 232.460074 
L 1438.37057 230.899472 
L 1443.744222 230.899472 
M 1449.117874 230.899472 
L 1486.733436 230.899472 
L 1489.420262 232.460074 
L 1521.662173 232.460074 
L 1524.348998 234.020627 
L 1545.843606 234.020627 
L 1548.530431 235.581232 
L 1553.904083 235.581232 
L 1553.904083 235.581232 
" clip-path="url(#pe45c19e505)" style="fill: none; stroke: #e377c2; stroke-width: 1.5; stroke-linecap: square"/>
   </g>
   <g id="line2d_19">
    <defs>
     <path id="m8700248bf7" d="M 0 3 
C 0.795609 3 1.55874 2.683901 2.12132 2.12132 
C 2.683901 1.55874 3 0.795609 3 0 
C 3 -0.795609 2.683901 -1.55874 2.12132 -2.12132 
C 1.55874 -2.683901 0.795609 -3 0 -3 
C -0.795609 -3 -1.55874 -2.683901 -2.12132 -2.12132 
C -2.683901 -1.55874 -3 -0.795609 -3 0 
C -3 0.795609 -2.683901 1.55874 -2.12132 2.12132 
C -1.55874 2.683901 -0.795609 3 0 3 
z
" style="stroke: #7f7f7f"/>
    </defs>
    <g clip-path="url(#pe45c19e505)">
     <use xlink:href="#m8700248bf7" x="358.266564" y="88.887273" style="fill: #7f7f7f; stroke: #7f7f7f"/>
     <use xlink:href="#m8700248bf7" x="734.422188" y="88.887273" style="fill: #7f7f7f; stroke: #7f7f7f"/>
     <use xlink:href="#m8700248bf7" x="960.115562" y="88.887273" style="fill: #7f7f7f; stroke: #7f7f7f"/>
     <use xlink:href="#m8700248bf7" x="1277.161017" y="88.887273" style="fill: #7f7f7f; stroke: #7f7f7f"/>
     <use xlink:href="#m8700248bf7" x="866.076656" y="257.429257" style="fill: #7f7f7f; stroke: #7f7f7f"/>
     <use xlink:href="#m8700248bf7" x="882.197612" y="257.429257" style="fill: #7f7f7f; stroke: #7f7f7f"/>
     <use xlink:href="#m8700248bf7" x="906.379045" y="257.429257" style="fill: #7f7f7f; stroke: #7f7f7f"/>
    </g>
   </g>
   <g id="LineCollection_1">
    <path d="M 594.707242 484.232727 
L 594.707242 88.887273 
" clip-path="url(#pe45c19e505)" style="fill: none; stroke-dasharray: 5.55,2.4; stroke-dashoffset: 0; stroke: #1f77b4; stroke-width: 1.5"/>
    <path d="M 909.065871 484.232727 
L 909.065871 88.887273 
" clip-path="url(#pe45c19e505)" style="fill: none; stroke-dasharray: 5.55,2.4; stroke-dashoffset: 0; stroke: #1f77b4; stroke-width: 1.5"/>
    <path d="M 1209.99037 484.232727 
L 1209.99037 88.887273 
" clip-path="url(#pe45c19e505)" style="fill: none; stroke-dasharray: 5.55,2.4; stroke-dashoffset: 0; stroke: #1f77b4; stroke-width: 1.5"/>
    <path d="M 476.486903 484.232727 
L 476.486903 88.887273 
" clip-path="url(#pe45c19e505)" style="fill: none; stroke-dasharray: 5.55,2.4; stroke-dashoffset: 0; stroke: #1f77b4; stroke-width: 1.5"/>
    <path d="M 817.71379 484.232727 
L 817.71379 88.887273 
" clip-path="url(#pe45c19e505)" style="fill: none; stroke-dasharray: 5.55,2.4; stroke-dashoffset: 0; stroke: #1f77b4; stroke-width: 1.5"/>
    <path d="M 1271.787365 484.232727 
L 1271.787365 88.887273 
" clip-path="url(#pe45c19e505)" style="fill: none; stroke-dasharray: 5.55,2.4; stroke-dashoffset: 0; stroke: #1f77b4; stroke-width: 1.5"/>
    <path d="M 680.68567 484.232727 
L 680.68567 88.887273 
" clip-path="url(#pe45c19e505)" style="fill: none; stroke-dasharray: 5.55,2.4; stroke-dashoffset: 0; stroke: #1f77b4; stroke-width: 1.5"/>
    <path d="M 1137.446071 484.232727 
L 1137.446071 88.887273 
" clip-path="url(#pe45c19e505)" style="fill: none; stroke-dasharray: 5.55,2.4; stroke-dashoffset: 0; stroke: #1f77b4; stroke-width: 1.5"/>
    <path d="M 1505.541217 484.232727 
L 1505.541217 88.887273 
" clip-path="url(#pe45c19e505)" style="fill: none; stroke-dasharray: 5.55,2.4; stroke-dashoffset: 0; stroke: #1f77b4; stroke-width: 1.5"/>
    <path d="M 573.212635 484.232727 
L 573.212635 88.887273 
" clip-path="url(#pe45c19e505)" style="fill: none; stroke-dasharray: 5.55,2.4; stroke-dashoffset: 0; stroke: #1f77b4; stroke-width: 1.5"/>
    <path d="M 1121.325116 484.232727 
L 1121.325116 88.887273 
" clip-path="url(#pe45c19e505)" style="fill: none; stroke-dasharray: 5.55,2.4; stroke-dashoffset: 0; stroke: #1f77b4; stroke-width: 1.5"/>
    <path d="M 1446.431048 484.232727 
L 1446.431048 88.887273 
" clip-path="url(#pe45c19e505)" style="fill: none; stroke-dasharray: 5.55,2.4; stroke-dashoffset: 0; stroke: #1f77b4; stroke-width: 1.5"/>
   </g>
   <g id="line2d_20">
    <path d="M 288.409091 255.130036 
L 1556.590909 255.130036 
L 1556.590909 255.130036 
" clip-path="url(#pe45c19e505)" style="fill: none; stroke-dasharray: 1.5,2.475; stroke-dashoffset: 0; stroke: #bcbd22; stroke-width: 1.5"/>
   </g>
   <g id="line2d_21">
    <path d="M 288.409091 172.542371 
L 1556.590909 172.542371 
L 1556.590909 172.542371 
" clip-path="url(#pe45c19e505)" style="fill: none; stroke-dasharray: 1.5,2.475; stroke-dashoffset: 0; stroke: #17becf; stroke-width: 1.5"/>
   </g>
   <g id="patch_3">
    <path d="M 225 504 
L 225 69.12 
" style="fill: none; stroke: #000000; stroke-width: 0.8; stroke-linejoin: miter; stroke-linecap: square"/>
   </g>
   <g id="patch_4">
    <path d="M 1620 504 
L 1620 69.12 
" style="fill: none; stroke: #000000; stroke-width: 0.8; stroke-linejoin: miter; stroke-linecap: square"/>
   </g>
   <g id="patch_5">
    <path d="M 225 504 
L 1620 504 
" style="fill: none; stroke: #000000; stroke-width: 0.8; stroke-linejoin: miter; stroke-linecap: square"/>
   </g>
   <g id="patch_6">
    <path d="M 225 69.12 
L 1620 69.12 
" style="fill: none; stroke: #000000; stroke-width: 0.8; stroke-linejoin: miter; stroke-linecap: square"/>
   </g>
  </g>
 </g>
 <defs>
  <clipPath id="pe45c19e505">
   <rect x="225" y="69.12" width="1395" height="434.88"/>
  </clipPath>
 </defs>
</svg>
