<?xml version="1.0" encoding="utf-8" standalone="no"?>
<!DOCTYPE svg PUBLIC "-//W3C//DTD SVG 1.1//EN"
  "http://www.w3.org/Graphics/SVG/1.1/DTD/svg11.dtd">
<svg xmlns:xlink="http://www.w3.org/1999/xlink" width="864pt" height="576pt" viewBox="0 0 864 576" xmlns="http://www.w3.org/2000/svg" version="1.1">
 <metadata>
  <rdf:RDF xmlns:dc="http://purl.org/dc/elements/1.1/" xmlns:cc="http://creativecommons.org/ns#" xmlns:rdf="http://www.w3.org/1999/02/22-rdf-syntax-ns#">
   <cc:Work>
    <dc:type rdf:resource="http://purl.org/dc/dcmitype/StillImage"/>
    <dc:date>2022-01-20T11:42:21.335963</dc:date>
    <dc:format>image/svg+xml</dc:format>
    <dc:creator>
     <cc:Agent>
      <dc:title>Matplotlib v3.5.0, https://matplotlib.org/</dc:title>
     </cc:Agent>
    </dc:creator>
   </cc:Work>
  </rdf:RDF>
 </metadata>
 <defs>
  <style type="text/css">*{stroke-linejoin: round; stroke-linecap: butt}</style>
 </defs>
 <g id="figure_1">
  <g id="patch_1">
   <path d="M 0 576 
L 864 576 
L 864 0 
L 0 0 
L 0 576 
z
" style="fill: none"/>
  </g>
  <g id="axes_1">
   <g id="patch_2">
    <path d="M 108 504 
L 777.6 504 
L 777.6 69.12 
L 108 69.12 
z
" style="fill: #ffffff"/>
   </g>
   <g id="patch_3">
    <path d="M 163.8 442.591712 
L 163.8 442.591712 
L 163.8 442.591712 
L 163.8 442.591712 
z
" clip-path="url(#peaa6417665)" style="fill: #3274a1; stroke: #3f3f3f; stroke-width: 0.75; stroke-linejoin: miter"/>
   </g>
   <g id="PolyCollection_1">
    <defs>
     <path id="mf60f6880e4" d="M 163.8 -165.043649 
L 162.891066 -165.043649 
L 162.684501 -168.11709 
L 162.44594 -171.190531 
L 162.174285 -174.263972 
L 161.86938 -177.337413 
L 161.532198 -180.410853 
L 161.164991 -183.484294 
L 160.771386 -186.557735 
L 160.356413 -189.631176 
L 159.926449 -192.704617 
L 159.489064 -195.778058 
L 159.052778 -198.851498 
L 158.626723 -201.924939 
L 158.220221 -204.99838 
L 157.842316 -208.071821 
L 157.501264 -211.145262 
L 157.204031 -214.218703 
L 156.955833 -217.292144 
L 156.75974 -220.365584 
L 156.6164 -223.439025 
L 156.523883 -226.512466 
L 156.477677 -229.585907 
L 156.470838 -232.659348 
L 156.494286 -235.732789 
L 156.53723 -238.806229 
L 156.587694 -241.87967 
L 156.633107 -244.953111 
L 156.660912 -248.026552 
L 156.65916 -251.099993 
L 156.617043 -254.173434 
L 156.525324 -257.246875 
L 156.37665 -260.320315 
L 156.165715 -263.393756 
L 155.889285 -266.467197 
L 155.546074 -269.540638 
L 155.136491 -272.614079 
L 154.662299 -275.68752 
L 154.126186 -278.76096 
L 153.531323 -281.834401 
L 152.880916 -284.907842 
L 152.177804 -287.981283 
L 151.424135 -291.054724 
L 150.621137 -294.128165 
L 149.769014 -297.201606 
L 148.866971 -300.275046 
L 147.913359 -303.348487 
L 146.905942 -306.421928 
L 145.842261 -309.495369 
L 144.720059 -312.56881 
L 143.537746 -315.642251 
L 142.294861 -318.715691 
L 140.992495 -321.789132 
L 139.633642 -324.862573 
L 138.223447 -327.936014 
L 136.769334 -331.009455 
L 135.281007 -334.082896 
L 133.770311 -337.156337 
L 132.25099 -340.229777 
L 130.738346 -343.303218 
L 129.248832 -346.376659 
L 127.799628 -349.4501 
L 126.408222 -352.523541 
L 125.09203 -355.596982 
L 123.868092 -358.670423 
L 122.752838 -361.743863 
L 121.761938 -364.817304 
L 120.91022 -367.890745 
L 120.211629 -370.964186 
L 119.679198 -374.037627 
L 119.324993 -377.111068 
L 119.16 -380.184508 
L 119.193929 -383.257949 
L 119.434921 -386.33139 
L 119.889155 -389.404831 
L 120.560385 -392.478272 
L 121.449427 -395.551713 
L 122.553659 -398.625154 
L 123.866577 -401.698594 
L 125.377473 -404.772035 
L 127.071276 -407.845476 
L 128.928613 -410.918917 
L 130.926091 -413.992358 
L 133.036824 -417.065799 
L 135.231172 -420.139239 
L 137.477663 -423.21268 
L 139.744038 -426.286121 
L 141.998351 -429.359562 
L 144.210064 -432.433003 
L 146.351055 -435.506444 
L 148.396489 -438.579885 
L 150.32549 -441.653325 
L 152.121606 -444.726766 
L 153.773023 -447.800207 
L 155.272557 -450.873648 
L 156.617436 -453.947089 
L 157.808901 -457.02053 
L 158.851673 -460.09397 
L 159.753335 -463.167411 
L 160.52366 -466.240852 
L 161.173956 -469.314293 
L 163.8 -469.314293 
L 163.8 -469.314293 
L 163.8 -466.240852 
L 163.8 -463.167411 
L 163.8 -460.09397 
L 163.8 -457.02053 
L 163.8 -453.947089 
L 163.8 -450.873648 
L 163.8 -447.800207 
L 163.8 -444.726766 
L 163.8 -441.653325 
L 163.8 -438.579885 
L 163.8 -435.506444 
L 163.8 -432.433003 
L 163.8 -429.359562 
L 163.8 -426.286121 
L 163.8 -423.21268 
L 163.8 -420.139239 
L 163.8 -417.065799 
L 163.8 -413.992358 
L 163.8 -410.918917 
L 163.8 -407.845476 
L 163.8 -404.772035 
L 163.8 -401.698594 
L 163.8 -398.625154 
L 163.8 -395.551713 
L 163.8 -392.478272 
L 163.8 -389.404831 
L 163.8 -386.33139 
L 163.8 -383.257949 
L 163.8 -380.184508 
L 163.8 -377.111068 
L 163.8 -374.037627 
L 163.8 -370.964186 
L 163.8 -367.890745 
L 163.8 -364.817304 
L 163.8 -361.743863 
L 163.8 -358.670423 
L 163.8 -355.596982 
L 163.8 -352.523541 
L 163.8 -349.4501 
L 163.8 -346.376659 
L 163.8 -343.303218 
L 163.8 -340.229777 
L 163.8 -337.156337 
L 163.8 -334.082896 
L 163.8 -331.009455 
L 163.8 -327.936014 
L 163.8 -324.862573 
L 163.8 -321.789132 
L 163.8 -318.715691 
L 163.8 -315.642251 
L 163.8 -312.56881 
L 163.8 -309.495369 
L 163.8 -306.421928 
L 163.8 -303.348487 
L 163.8 -300.275046 
L 163.8 -297.201606 
L 163.8 -294.128165 
L 163.8 -291.054724 
L 163.8 -287.981283 
L 163.8 -284.907842 
L 163.8 -281.834401 
L 163.8 -278.76096 
L 163.8 -275.68752 
L 163.8 -272.614079 
L 163.8 -269.540638 
L 163.8 -266.467197 
L 163.8 -263.393756 
L 163.8 -260.320315 
L 163.8 -257.246875 
L 163.8 -254.173434 
L 163.8 -251.099993 
L 163.8 -248.026552 
L 163.8 -244.953111 
L 163.8 -241.87967 
L 163.8 -238.806229 
L 163.8 -235.732789 
L 163.8 -232.659348 
L 163.8 -229.585907 
L 163.8 -226.512466 
L 163.8 -223.439025 
L 163.8 -220.365584 
L 163.8 -217.292144 
L 163.8 -214.218703 
L 163.8 -211.145262 
L 163.8 -208.071821 
L 163.8 -204.99838 
L 163.8 -201.924939 
L 163.8 -198.851498 
L 163.8 -195.778058 
L 163.8 -192.704617 
L 163.8 -189.631176 
L 163.8 -186.557735 
L 163.8 -183.484294 
L 163.8 -180.410853 
L 163.8 -177.337413 
L 163.8 -174.263972 
L 163.8 -171.190531 
L 163.8 -168.11709 
L 163.8 -165.043649 
z
" style="stroke: #3f3f3f; stroke-width: 1.5"/>
    </defs>
    <g clip-path="url(#peaa6417665)">
     <use xlink:href="#mf60f6880e4" x="0" y="576" style="fill: #3274a1; stroke: #3f3f3f; stroke-width: 1.5"/>
    </g>
   </g>
   <g id="patch_4">
    <path d="M 163.8 442.591712 
L 163.8 442.591712 
L 163.8 442.591712 
L 163.8 442.591712 
z
" clip-path="url(#peaa6417665)" style="fill: #e1812c; stroke: #3f3f3f; stroke-width: 0.75; stroke-linejoin: miter"/>
   </g>
   <g id="PolyCollection_2">
    <defs>
     <path id="mdb1c030533" d="M 166.426044 -109.565707 
L 163.8 -109.565707 
L 163.8 -112.639148 
L 163.8 -115.712589 
L 163.8 -118.78603 
L 163.8 -121.85947 
L 163.8 -124.932911 
L 163.8 -128.006352 
L 163.8 -131.079793 
L 163.8 -134.153234 
L 163.8 -137.226675 
L 163.8 -140.300115 
L 163.8 -143.373556 
L 163.8 -146.446997 
L 163.8 -149.520438 
L 163.8 -152.593879 
L 163.8 -155.66732 
L 163.8 -158.740761 
L 163.8 -161.814201 
L 163.8 -164.887642 
L 163.8 -167.961083 
L 163.8 -171.034524 
L 163.8 -174.107965 
L 163.8 -177.181406 
L 163.8 -180.254846 
L 163.8 -183.328287 
L 163.8 -186.401728 
L 163.8 -189.475169 
L 163.8 -192.54861 
L 163.8 -195.622051 
L 163.8 -198.695492 
L 163.8 -201.768932 
L 163.8 -204.842373 
L 163.8 -207.915814 
L 163.8 -210.989255 
L 163.8 -214.062696 
L 163.8 -217.136137 
L 163.8 -220.209577 
L 163.8 -223.283018 
L 163.8 -226.356459 
L 163.8 -229.4299 
L 163.8 -232.503341 
L 163.8 -235.576782 
L 163.8 -238.650223 
L 163.8 -241.723663 
L 163.8 -244.797104 
L 163.8 -247.870545 
L 163.8 -250.943986 
L 163.8 -254.017427 
L 163.8 -257.090868 
L 163.8 -260.164309 
L 163.8 -263.237749 
L 163.8 -266.31119 
L 163.8 -269.384631 
L 163.8 -272.458072 
L 163.8 -275.531513 
L 163.8 -278.604954 
L 163.8 -281.678394 
L 163.8 -284.751835 
L 163.8 -287.825276 
L 163.8 -290.898717 
L 163.8 -293.972158 
L 163.8 -297.045599 
L 163.8 -300.11904 
L 163.8 -303.19248 
L 163.8 -306.265921 
L 163.8 -309.339362 
L 163.8 -312.412803 
L 163.8 -315.486244 
L 163.8 -318.559685 
L 163.8 -321.633125 
L 163.8 -324.706566 
L 163.8 -327.780007 
L 163.8 -330.853448 
L 163.8 -333.926889 
L 163.8 -337.00033 
L 163.8 -340.073771 
L 163.8 -343.147211 
L 163.8 -346.220652 
L 163.8 -349.294093 
L 163.8 -352.367534 
L 163.8 -355.440975 
L 163.8 -358.514416 
L 163.8 -361.587856 
L 163.8 -364.661297 
L 163.8 -367.734738 
L 163.8 -370.808179 
L 163.8 -373.88162 
L 163.8 -376.955061 
L 163.8 -380.028502 
L 163.8 -383.101942 
L 163.8 -386.175383 
L 163.8 -389.248824 
L 163.8 -392.322265 
L 163.8 -395.395706 
L 163.8 -398.469147 
L 163.8 -401.542587 
L 163.8 -404.616028 
L 163.8 -407.689469 
L 163.8 -410.76291 
L 163.8 -413.836351 
L 164.708934 -413.836351 
L 164.708934 -413.836351 
L 164.915499 -410.76291 
L 165.15406 -407.689469 
L 165.425715 -404.616028 
L 165.73062 -401.542587 
L 166.067802 -398.469147 
L 166.435009 -395.395706 
L 166.828614 -392.322265 
L 167.243587 -389.248824 
L 167.673551 -386.175383 
L 168.110936 -383.101942 
L 168.547222 -380.028502 
L 168.973277 -376.955061 
L 169.379779 -373.88162 
L 169.757684 -370.808179 
L 170.098736 -367.734738 
L 170.395969 -364.661297 
L 170.644167 -361.587856 
L 170.84026 -358.514416 
L 170.9836 -355.440975 
L 171.076117 -352.367534 
L 171.122323 -349.294093 
L 171.129162 -346.220652 
L 171.105714 -343.147211 
L 171.06277 -340.073771 
L 171.012306 -337.00033 
L 170.966893 -333.926889 
L 170.939088 -330.853448 
L 170.94084 -327.780007 
L 170.982957 -324.706566 
L 171.074676 -321.633125 
L 171.22335 -318.559685 
L 171.434285 -315.486244 
L 171.710715 -312.412803 
L 172.053926 -309.339362 
L 172.463509 -306.265921 
L 172.937701 -303.19248 
L 173.473814 -300.11904 
L 174.068677 -297.045599 
L 174.719084 -293.972158 
L 175.422196 -290.898717 
L 176.175865 -287.825276 
L 176.978863 -284.751835 
L 177.830986 -281.678394 
L 178.733029 -278.604954 
L 179.686641 -275.531513 
L 180.694058 -272.458072 
L 181.757739 -269.384631 
L 182.879941 -266.31119 
L 184.062254 -263.237749 
L 185.305139 -260.164309 
L 186.607505 -257.090868 
L 187.966358 -254.017427 
L 189.376553 -250.943986 
L 190.830666 -247.870545 
L 192.318993 -244.797104 
L 193.829689 -241.723663 
L 195.34901 -238.650223 
L 196.861654 -235.576782 
L 198.351168 -232.503341 
L 199.800372 -229.4299 
L 201.191778 -226.356459 
L 202.50797 -223.283018 
L 203.731908 -220.209577 
L 204.847162 -217.136137 
L 205.838062 -214.062696 
L 206.68978 -210.989255 
L 207.388371 -207.915814 
L 207.920802 -204.842373 
L 208.275007 -201.768932 
L 208.44 -198.695492 
L 208.406071 -195.622051 
L 208.165079 -192.54861 
L 207.710845 -189.475169 
L 207.039615 -186.401728 
L 206.150573 -183.328287 
L 205.046341 -180.254846 
L 203.733423 -177.181406 
L 202.222527 -174.107965 
L 200.528724 -171.034524 
L 198.671387 -167.961083 
L 196.673909 -164.887642 
L 194.563176 -161.814201 
L 192.368828 -158.740761 
L 190.122337 -155.66732 
L 187.855962 -152.593879 
L 185.601649 -149.520438 
L 183.389936 -146.446997 
L 181.248945 -143.373556 
L 179.203511 -140.300115 
L 177.27451 -137.226675 
L 175.478394 -134.153234 
L 173.826977 -131.079793 
L 172.327443 -128.006352 
L 170.982564 -124.932911 
L 169.791099 -121.85947 
L 168.748327 -118.78603 
L 167.846665 -115.712589 
L 167.07634 -112.639148 
L 166.426044 -109.565707 
z
" style="stroke: #3f3f3f; stroke-width: 1.5"/>
    </defs>
    <g clip-path="url(#peaa6417665)">
     <use xlink:href="#mdb1c030533" x="0" y="576" style="fill: #e1812c; stroke: #3f3f3f; stroke-width: 1.5"/>
    </g>
   </g>
   <g id="PolyCollection_3">
    <defs>
     <path id="m2f050f29a3" d="M 275.4 -188.853671 
L 274.783292 -188.853671 
L 274.62678 -191.866389 
L 274.441102 -194.879107 
L 274.223699 -197.891825 
L 273.972505 -200.904542 
L 273.686121 -203.91726 
L 273.363987 -206.929978 
L 273.006532 -209.942696 
L 272.615281 -212.955413 
L 272.192909 -215.968131 
L 271.743232 -218.980849 
L 271.271119 -221.993567 
L 270.782333 -225.006284 
L 270.283297 -228.019002 
L 269.7808 -231.03172 
L 269.281658 -234.044438 
L 268.792359 -237.057155 
L 268.318717 -240.069873 
L 267.865563 -243.082591 
L 267.436503 -246.095308 
L 267.033757 -249.108026 
L 266.658103 -252.120744 
L 266.30893 -255.133462 
L 265.984379 -258.146179 
L 265.681575 -261.158897 
L 265.396909 -264.171615 
L 265.126339 -267.184333 
L 264.865691 -270.19705 
L 264.610894 -273.209768 
L 264.35816 -276.222486 
L 264.104051 -279.235204 
L 263.845462 -282.247921 
L 263.57949 -285.260639 
L 263.303242 -288.273357 
L 263.013575 -291.286074 
L 262.706835 -294.298792 
L 262.378611 -297.31151 
L 262.023552 -300.324228 
L 261.635278 -303.336945 
L 261.206399 -306.349663 
L 260.728666 -309.362381 
L 260.19324 -312.375099 
L 259.591064 -315.387816 
L 258.913325 -318.400534 
L 258.151958 -321.413252 
L 257.300162 -324.42597 
L 256.352892 -327.438687 
L 255.307291 -330.451405 
L 254.163035 -333.464123 
L 252.922576 -336.476841 
L 251.591271 -339.489558 
L 250.177396 -342.502276 
L 248.692063 -345.514994 
L 247.149034 -348.527711 
L 245.564479 -351.540429 
L 243.95666 -354.553147 
L 242.345596 -357.565865 
L 240.752695 -360.578582 
L 239.200377 -363.5913 
L 237.71169 -366.604018 
L 236.309933 -369.616736 
L 235.018266 -372.629453 
L 233.859322 -375.642171 
L 232.854811 -378.654889 
L 232.025115 -381.667607 
L 231.388871 -384.680324 
L 230.962544 -387.693042 
L 230.76 -390.70576 
L 230.792078 -393.718477 
L 231.066186 -396.731195 
L 231.585929 -399.743913 
L 232.350797 -402.756631 
L 233.355927 -405.769348 
L 234.591978 -408.782066 
L 236.045125 -411.794784 
L 237.697204 -414.807502 
L 239.526011 -417.820219 
L 241.50577 -420.832937 
L 243.607751 -423.845655 
L 245.801031 -426.858373 
L 248.053362 -429.87109 
L 250.332118 -432.883808 
L 252.605255 -435.896526 
L 254.842264 -438.909244 
L 257.015039 -441.921961 
L 259.098631 -444.934679 
L 261.071848 -447.947397 
L 262.917671 -450.960114 
L 264.623469 -453.972832 
L 266.181028 -456.98555 
L 267.586379 -459.998268 
L 268.839482 -463.010985 
L 269.943766 -466.023703 
L 270.905583 -469.036421 
L 271.733609 -472.049139 
L 272.43823 -475.061856 
L 273.030939 -478.074574 
L 273.523793 -481.087292 
L 273.928926 -484.10001 
L 274.258151 -487.112727 
L 275.4 -487.112727 
L 275.4 -487.112727 
L 275.4 -484.10001 
L 275.4 -481.087292 
L 275.4 -478.074574 
L 275.4 -475.061856 
L 275.4 -472.049139 
L 275.4 -469.036421 
L 275.4 -466.023703 
L 275.4 -463.010985 
L 275.4 -459.998268 
L 275.4 -456.98555 
L 275.4 -453.972832 
L 275.4 -450.960114 
L 275.4 -447.947397 
L 275.4 -444.934679 
L 275.4 -441.921961 
L 275.4 -438.909244 
L 275.4 -435.896526 
L 275.4 -432.883808 
L 275.4 -429.87109 
L 275.4 -426.858373 
L 275.4 -423.845655 
L 275.4 -420.832937 
L 275.4 -417.820219 
L 275.4 -414.807502 
L 275.4 -411.794784 
L 275.4 -408.782066 
L 275.4 -405.769348 
L 275.4 -402.756631 
L 275.4 -399.743913 
L 275.4 -396.731195 
L 275.4 -393.718477 
L 275.4 -390.70576 
L 275.4 -387.693042 
L 275.4 -384.680324 
L 275.4 -381.667607 
L 275.4 -378.654889 
L 275.4 -375.642171 
L 275.4 -372.629453 
L 275.4 -369.616736 
L 275.4 -366.604018 
L 275.4 -363.5913 
L 275.4 -360.578582 
L 275.4 -357.565865 
L 275.4 -354.553147 
L 275.4 -351.540429 
L 275.4 -348.527711 
L 275.4 -345.514994 
L 275.4 -342.502276 
L 275.4 -339.489558 
L 275.4 -336.476841 
L 275.4 -333.464123 
L 275.4 -330.451405 
L 275.4 -327.438687 
L 275.4 -324.42597 
L 275.4 -321.413252 
L 275.4 -318.400534 
L 275.4 -315.387816 
L 275.4 -312.375099 
L 275.4 -309.362381 
L 275.4 -306.349663 
L 275.4 -303.336945 
L 275.4 -300.324228 
L 275.4 -297.31151 
L 275.4 -294.298792 
L 275.4 -291.286074 
L 275.4 -288.273357 
L 275.4 -285.260639 
L 275.4 -282.247921 
L 275.4 -279.235204 
L 275.4 -276.222486 
L 275.4 -273.209768 
L 275.4 -270.19705 
L 275.4 -267.184333 
L 275.4 -264.171615 
L 275.4 -261.158897 
L 275.4 -258.146179 
L 275.4 -255.133462 
L 275.4 -252.120744 
L 275.4 -249.108026 
L 275.4 -246.095308 
L 275.4 -243.082591 
L 275.4 -240.069873 
L 275.4 -237.057155 
L 275.4 -234.044438 
L 275.4 -231.03172 
L 275.4 -228.019002 
L 275.4 -225.006284 
L 275.4 -221.993567 
L 275.4 -218.980849 
L 275.4 -215.968131 
L 275.4 -212.955413 
L 275.4 -209.942696 
L 275.4 -206.929978 
L 275.4 -203.91726 
L 275.4 -200.904542 
L 275.4 -197.891825 
L 275.4 -194.879107 
L 275.4 -191.866389 
L 275.4 -188.853671 
z
" style="stroke: #3f3f3f; stroke-width: 1.5"/>
    </defs>
    <g clip-path="url(#peaa6417665)">
     <use xlink:href="#m2f050f29a3" x="0" y="576" style="fill: #3274a1; stroke: #3f3f3f; stroke-width: 1.5"/>
    </g>
   </g>
   <g id="PolyCollection_4">
    <defs>
     <path id="m5f43a42584" d="M 276.541849 -91.767273 
L 275.4 -91.767273 
L 275.4 -94.77999 
L 275.4 -97.792708 
L 275.4 -100.805426 
L 275.4 -103.818144 
L 275.4 -106.830861 
L 275.4 -109.843579 
L 275.4 -112.856297 
L 275.4 -115.869015 
L 275.4 -118.881732 
L 275.4 -121.89445 
L 275.4 -124.907168 
L 275.4 -127.919886 
L 275.4 -130.932603 
L 275.4 -133.945321 
L 275.4 -136.958039 
L 275.4 -139.970756 
L 275.4 -142.983474 
L 275.4 -145.996192 
L 275.4 -149.00891 
L 275.4 -152.021627 
L 275.4 -155.034345 
L 275.4 -158.047063 
L 275.4 -161.059781 
L 275.4 -164.072498 
L 275.4 -167.085216 
L 275.4 -170.097934 
L 275.4 -173.110652 
L 275.4 -176.123369 
L 275.4 -179.136087 
L 275.4 -182.148805 
L 275.4 -185.161523 
L 275.4 -188.17424 
L 275.4 -191.186958 
L 275.4 -194.199676 
L 275.4 -197.212393 
L 275.4 -200.225111 
L 275.4 -203.237829 
L 275.4 -206.250547 
L 275.4 -209.263264 
L 275.4 -212.275982 
L 275.4 -215.2887 
L 275.4 -218.301418 
L 275.4 -221.314135 
L 275.4 -224.326853 
L 275.4 -227.339571 
L 275.4 -230.352289 
L 275.4 -233.365006 
L 275.4 -236.377724 
L 275.4 -239.390442 
L 275.4 -242.403159 
L 275.4 -245.415877 
L 275.4 -248.428595 
L 275.4 -251.441313 
L 275.4 -254.45403 
L 275.4 -257.466748 
L 275.4 -260.479466 
L 275.4 -263.492184 
L 275.4 -266.504901 
L 275.4 -269.517619 
L 275.4 -272.530337 
L 275.4 -275.543055 
L 275.4 -278.555772 
L 275.4 -281.56849 
L 275.4 -284.581208 
L 275.4 -287.593926 
L 275.4 -290.606643 
L 275.4 -293.619361 
L 275.4 -296.632079 
L 275.4 -299.644796 
L 275.4 -302.657514 
L 275.4 -305.670232 
L 275.4 -308.68295 
L 275.4 -311.695667 
L 275.4 -314.708385 
L 275.4 -317.721103 
L 275.4 -320.733821 
L 275.4 -323.746538 
L 275.4 -326.759256 
L 275.4 -329.771974 
L 275.4 -332.784692 
L 275.4 -335.797409 
L 275.4 -338.810127 
L 275.4 -341.822845 
L 275.4 -344.835562 
L 275.4 -347.84828 
L 275.4 -350.860998 
L 275.4 -353.873716 
L 275.4 -356.886433 
L 275.4 -359.899151 
L 275.4 -362.911869 
L 275.4 -365.924587 
L 275.4 -368.937304 
L 275.4 -371.950022 
L 275.4 -374.96274 
L 275.4 -377.975458 
L 275.4 -380.988175 
L 275.4 -384.000893 
L 275.4 -387.013611 
L 275.4 -390.026329 
L 276.016708 -390.026329 
L 276.016708 -390.026329 
L 276.17322 -387.013611 
L 276.358898 -384.000893 
L 276.576301 -380.988175 
L 276.827495 -377.975458 
L 277.113879 -374.96274 
L 277.436013 -371.950022 
L 277.793468 -368.937304 
L 278.184719 -365.924587 
L 278.607091 -362.911869 
L 279.056768 -359.899151 
L 279.528881 -356.886433 
L 280.017667 -353.873716 
L 280.516703 -350.860998 
L 281.0192 -347.84828 
L 281.518342 -344.835562 
L 282.007641 -341.822845 
L 282.481283 -338.810127 
L 282.934437 -335.797409 
L 283.363497 -332.784692 
L 283.766243 -329.771974 
L 284.141897 -326.759256 
L 284.49107 -323.746538 
L 284.815621 -320.733821 
L 285.118425 -317.721103 
L 285.403091 -314.708385 
L 285.673661 -311.695667 
L 285.934309 -308.68295 
L 286.189106 -305.670232 
L 286.44184 -302.657514 
L 286.695949 -299.644796 
L 286.954538 -296.632079 
L 287.22051 -293.619361 
L 287.496758 -290.606643 
L 287.786425 -287.593926 
L 288.093165 -284.581208 
L 288.421389 -281.56849 
L 288.776448 -278.555772 
L 289.164722 -275.543055 
L 289.593601 -272.530337 
L 290.071334 -269.517619 
L 290.60676 -266.504901 
L 291.208936 -263.492184 
L 291.886675 -260.479466 
L 292.648042 -257.466748 
L 293.499838 -254.45403 
L 294.447108 -251.441313 
L 295.492709 -248.428595 
L 296.636965 -245.415877 
L 297.877424 -242.403159 
L 299.208729 -239.390442 
L 300.622604 -236.377724 
L 302.107937 -233.365006 
L 303.650966 -230.352289 
L 305.235521 -227.339571 
L 306.84334 -224.326853 
L 308.454404 -221.314135 
L 310.047305 -218.301418 
L 311.599623 -215.2887 
L 313.08831 -212.275982 
L 314.490067 -209.263264 
L 315.781734 -206.250547 
L 316.940678 -203.237829 
L 317.945189 -200.225111 
L 318.774885 -197.212393 
L 319.411129 -194.199676 
L 319.837456 -191.186958 
L 320.04 -188.17424 
L 320.007922 -185.161523 
L 319.733814 -182.148805 
L 319.214071 -179.136087 
L 318.449203 -176.123369 
L 317.444073 -173.110652 
L 316.208022 -170.097934 
L 314.754875 -167.085216 
L 313.102796 -164.072498 
L 311.273989 -161.059781 
L 309.29423 -158.047063 
L 307.192249 -155.034345 
L 304.998969 -152.021627 
L 302.746638 -149.00891 
L 300.467882 -145.996192 
L 298.194745 -142.983474 
L 295.957736 -139.970756 
L 293.784961 -136.958039 
L 291.701369 -133.945321 
L 289.728152 -130.932603 
L 287.882329 -127.919886 
L 286.176531 -124.907168 
L 284.618972 -121.89445 
L 283.213621 -118.881732 
L 281.960518 -115.869015 
L 280.856234 -112.856297 
L 279.894417 -109.843579 
L 279.066391 -106.830861 
L 278.36177 -103.818144 
L 277.769061 -100.805426 
L 277.276207 -97.792708 
L 276.871074 -94.77999 
L 276.541849 -91.767273 
z
" style="stroke: #3f3f3f; stroke-width: 1.5"/>
    </defs>
    <g clip-path="url(#peaa6417665)">
     <use xlink:href="#m5f43a42584" x="0" y="576" style="fill: #e1812c; stroke: #3f3f3f; stroke-width: 1.5"/>
    </g>
   </g>
   <g id="PolyCollection_5">
    <defs>
     <path id="mcfc2fe92e1" d="M 387 -141.272952 
L 386.558421 -141.272952 
L 386.453396 -144.616465 
L 386.331078 -147.959978 
L 386.190615 -151.303492 
L 386.031584 -154.647005 
L 385.854074 -157.990518 
L 385.658742 -161.334031 
L 385.446826 -164.677545 
L 385.220127 -168.021058 
L 384.980924 -171.364571 
L 384.731851 -174.708084 
L 384.475717 -178.051598 
L 384.215285 -181.395111 
L 383.953025 -184.738624 
L 383.690859 -188.082137 
L 383.429922 -191.42565 
L 383.17036 -194.769164 
L 382.911197 -198.112677 
L 382.650285 -201.45619 
L 382.384358 -204.799703 
L 382.109192 -208.143217 
L 381.819877 -211.48673 
L 381.511178 -214.830243 
L 381.177978 -218.173756 
L 380.815745 -221.51727 
L 380.421022 -224.860783 
L 379.991858 -228.204296 
L 379.52817 -231.547809 
L 379.031984 -234.891322 
L 378.507519 -238.234836 
L 377.961121 -241.578349 
L 377.401002 -244.921862 
L 376.836822 -248.265375 
L 376.279132 -251.608889 
L 375.738685 -254.952402 
L 375.225702 -258.295915 
L 374.749103 -261.639428 
L 374.315788 -264.982942 
L 373.930004 -268.326455 
L 373.592857 -271.669968 
L 373.302003 -275.013481 
L 373.051547 -278.356994 
L 372.832163 -281.700508 
L 372.631436 -285.044021 
L 372.434394 -288.387534 
L 372.224209 -291.731047 
L 371.983006 -295.074561 
L 371.692735 -298.418074 
L 371.336043 -301.761587 
L 370.897077 -305.1051 
L 370.362187 -308.448614 
L 369.720465 -311.792127 
L 368.964117 -315.13564 
L 368.08865 -318.479153 
L 367.092883 -321.822666 
L 365.978829 -325.16618 
L 364.751463 -328.509693 
L 363.418452 -331.853206 
L 361.989877 -335.196719 
L 360.478008 -338.540233 
L 358.897157 -341.883746 
L 357.263628 -345.227259 
L 355.595762 -348.570772 
L 353.914053 -351.914286 
L 352.241285 -355.257799 
L 350.602644 -358.601312 
L 349.025724 -361.944825 
L 347.54038 -365.288338 
L 346.178352 -368.631852 
L 344.972634 -371.975365 
L 343.956586 -375.318878 
L 343.162778 -378.662391 
L 342.621642 -382.005905 
L 342.36 -385.349418 
L 342.399561 -388.692931 
L 342.755518 -392.036444 
L 343.435347 -395.379958 
L 344.437932 -398.723471 
L 345.753094 -402.066984 
L 347.361593 -405.410497 
L 349.235618 -408.75401 
L 351.339758 -412.097524 
L 353.63239 -415.441037 
L 356.067389 -418.78455 
L 358.596071 -422.128063 
L 361.1692 -425.471577 
L 363.738967 -428.81509 
L 366.260784 -432.158603 
L 368.694815 -435.502116 
L 371.00715 -438.84563 
L 373.170586 -442.189143 
L 375.164998 -445.532656 
L 376.97732 -448.876169 
L 378.601185 -452.219682 
L 380.036276 -455.563196 
L 381.287479 -458.906709 
L 382.363901 -462.250222 
L 383.277847 -465.593735 
L 384.043812 -468.937249 
L 384.677542 -472.280762 
L 387 -472.280762 
L 387 -472.280762 
L 387 -468.937249 
L 387 -465.593735 
L 387 -462.250222 
L 387 -458.906709 
L 387 -455.563196 
L 387 -452.219682 
L 387 -448.876169 
L 387 -445.532656 
L 387 -442.189143 
L 387 -438.84563 
L 387 -435.502116 
L 387 -432.158603 
L 387 -428.81509 
L 387 -425.471577 
L 387 -422.128063 
L 387 -418.78455 
L 387 -415.441037 
L 387 -412.097524 
L 387 -408.75401 
L 387 -405.410497 
L 387 -402.066984 
L 387 -398.723471 
L 387 -395.379958 
L 387 -392.036444 
L 387 -388.692931 
L 387 -385.349418 
L 387 -382.005905 
L 387 -378.662391 
L 387 -375.318878 
L 387 -371.975365 
L 387 -368.631852 
L 387 -365.288338 
L 387 -361.944825 
L 387 -358.601312 
L 387 -355.257799 
L 387 -351.914286 
L 387 -348.570772 
L 387 -345.227259 
L 387 -341.883746 
L 387 -338.540233 
L 387 -335.196719 
L 387 -331.853206 
L 387 -328.509693 
L 387 -325.16618 
L 387 -321.822666 
L 387 -318.479153 
L 387 -315.13564 
L 387 -311.792127 
L 387 -308.448614 
L 387 -305.1051 
L 387 -301.761587 
L 387 -298.418074 
L 387 -295.074561 
L 387 -291.731047 
L 387 -288.387534 
L 387 -285.044021 
L 387 -281.700508 
L 387 -278.356994 
L 387 -275.013481 
L 387 -271.669968 
L 387 -268.326455 
L 387 -264.982942 
L 387 -261.639428 
L 387 -258.295915 
L 387 -254.952402 
L 387 -251.608889 
L 387 -248.265375 
L 387 -244.921862 
L 387 -241.578349 
L 387 -238.234836 
L 387 -234.891322 
L 387 -231.547809 
L 387 -228.204296 
L 387 -224.860783 
L 387 -221.51727 
L 387 -218.173756 
L 387 -214.830243 
L 387 -211.48673 
L 387 -208.143217 
L 387 -204.799703 
L 387 -201.45619 
L 387 -198.112677 
L 387 -194.769164 
L 387 -191.42565 
L 387 -188.082137 
L 387 -184.738624 
L 387 -181.395111 
L 387 -178.051598 
L 387 -174.708084 
L 387 -171.364571 
L 387 -168.021058 
L 387 -164.677545 
L 387 -161.334031 
L 387 -157.990518 
L 387 -154.647005 
L 387 -151.303492 
L 387 -147.959978 
L 387 -144.616465 
L 387 -141.272952 
z
" style="stroke: #3f3f3f; stroke-width: 1.5"/>
    </defs>
    <g clip-path="url(#peaa6417665)">
     <use xlink:href="#mcfc2fe92e1" x="0" y="576" style="fill: #3274a1; stroke: #3f3f3f; stroke-width: 1.5"/>
    </g>
   </g>
   <g id="PolyCollection_6">
    <defs>
     <path id="m9d1b0bd70c" d="M 389.322458 -106.599238 
L 387 -106.599238 
L 387 -109.942751 
L 387 -113.286265 
L 387 -116.629778 
L 387 -119.973291 
L 387 -123.316804 
L 387 -126.660318 
L 387 -130.003831 
L 387 -133.347344 
L 387 -136.690857 
L 387 -140.03437 
L 387 -143.377884 
L 387 -146.721397 
L 387 -150.06491 
L 387 -153.408423 
L 387 -156.751937 
L 387 -160.09545 
L 387 -163.438963 
L 387 -166.782476 
L 387 -170.12599 
L 387 -173.469503 
L 387 -176.813016 
L 387 -180.156529 
L 387 -183.500042 
L 387 -186.843556 
L 387 -190.187069 
L 387 -193.530582 
L 387 -196.874095 
L 387 -200.217609 
L 387 -203.561122 
L 387 -206.904635 
L 387 -210.248148 
L 387 -213.591662 
L 387 -216.935175 
L 387 -220.278688 
L 387 -223.622201 
L 387 -226.965714 
L 387 -230.309228 
L 387 -233.652741 
L 387 -236.996254 
L 387 -240.339767 
L 387 -243.683281 
L 387 -247.026794 
L 387 -250.370307 
L 387 -253.71382 
L 387 -257.057334 
L 387 -260.400847 
L 387 -263.74436 
L 387 -267.087873 
L 387 -270.431386 
L 387 -273.7749 
L 387 -277.118413 
L 387 -280.461926 
L 387 -283.805439 
L 387 -287.148953 
L 387 -290.492466 
L 387 -293.835979 
L 387 -297.179492 
L 387 -300.523006 
L 387 -303.866519 
L 387 -307.210032 
L 387 -310.553545 
L 387 -313.897058 
L 387 -317.240572 
L 387 -320.584085 
L 387 -323.927598 
L 387 -327.271111 
L 387 -330.614625 
L 387 -333.958138 
L 387 -337.301651 
L 387 -340.645164 
L 387 -343.988678 
L 387 -347.332191 
L 387 -350.675704 
L 387 -354.019217 
L 387 -357.36273 
L 387 -360.706244 
L 387 -364.049757 
L 387 -367.39327 
L 387 -370.736783 
L 387 -374.080297 
L 387 -377.42381 
L 387 -380.767323 
L 387 -384.110836 
L 387 -387.45435 
L 387 -390.797863 
L 387 -394.141376 
L 387 -397.484889 
L 387 -400.828402 
L 387 -404.171916 
L 387 -407.515429 
L 387 -410.858942 
L 387 -414.202455 
L 387 -417.545969 
L 387 -420.889482 
L 387 -424.232995 
L 387 -427.576508 
L 387 -430.920022 
L 387 -434.263535 
L 387 -437.607048 
L 387.441579 -437.607048 
L 387.441579 -437.607048 
L 387.546604 -434.263535 
L 387.668922 -430.920022 
L 387.809385 -427.576508 
L 387.968416 -424.232995 
L 388.145926 -420.889482 
L 388.341258 -417.545969 
L 388.553174 -414.202455 
L 388.779873 -410.858942 
L 389.019076 -407.515429 
L 389.268149 -404.171916 
L 389.524283 -400.828402 
L 389.784715 -397.484889 
L 390.046975 -394.141376 
L 390.309141 -390.797863 
L 390.570078 -387.45435 
L 390.82964 -384.110836 
L 391.088803 -380.767323 
L 391.349715 -377.42381 
L 391.615642 -374.080297 
L 391.890808 -370.736783 
L 392.180123 -367.39327 
L 392.488822 -364.049757 
L 392.822022 -360.706244 
L 393.184255 -357.36273 
L 393.578978 -354.019217 
L 394.008142 -350.675704 
L 394.47183 -347.332191 
L 394.968016 -343.988678 
L 395.492481 -340.645164 
L 396.038879 -337.301651 
L 396.598998 -333.958138 
L 397.163178 -330.614625 
L 397.720868 -327.271111 
L 398.261315 -323.927598 
L 398.774298 -320.584085 
L 399.250897 -317.240572 
L 399.684212 -313.897058 
L 400.069996 -310.553545 
L 400.407143 -307.210032 
L 400.697997 -303.866519 
L 400.948453 -300.523006 
L 401.167837 -297.179492 
L 401.368564 -293.835979 
L 401.565606 -290.492466 
L 401.775791 -287.148953 
L 402.016994 -283.805439 
L 402.307265 -280.461926 
L 402.663957 -277.118413 
L 403.102923 -273.7749 
L 403.637813 -270.431386 
L 404.279535 -267.087873 
L 405.035883 -263.74436 
L 405.91135 -260.400847 
L 406.907117 -257.057334 
L 408.021171 -253.71382 
L 409.248537 -250.370307 
L 410.581548 -247.026794 
L 412.010123 -243.683281 
L 413.521992 -240.339767 
L 415.102843 -236.996254 
L 416.736372 -233.652741 
L 418.404238 -230.309228 
L 420.085947 -226.965714 
L 421.758715 -223.622201 
L 423.397356 -220.278688 
L 424.974276 -216.935175 
L 426.45962 -213.591662 
L 427.821648 -210.248148 
L 429.027366 -206.904635 
L 430.043414 -203.561122 
L 430.837222 -200.217609 
L 431.378358 -196.874095 
L 431.64 -193.530582 
L 431.600439 -190.187069 
L 431.244482 -186.843556 
L 430.564653 -183.500042 
L 429.562068 -180.156529 
L 428.246906 -176.813016 
L 426.638407 -173.469503 
L 424.764382 -170.12599 
L 422.660242 -166.782476 
L 420.36761 -163.438963 
L 417.932611 -160.09545 
L 415.403929 -156.751937 
L 412.8308 -153.408423 
L 410.261033 -150.06491 
L 407.739216 -146.721397 
L 405.305185 -143.377884 
L 402.99285 -140.03437 
L 400.829414 -136.690857 
L 398.835002 -133.347344 
L 397.02268 -130.003831 
L 395.398815 -126.660318 
L 393.963724 -123.316804 
L 392.712521 -119.973291 
L 391.636099 -116.629778 
L 390.722153 -113.286265 
L 389.956188 -109.942751 
L 389.322458 -106.599238 
z
" style="stroke: #3f3f3f; stroke-width: 1.5"/>
    </defs>
    <g clip-path="url(#peaa6417665)">
     <use xlink:href="#m9d1b0bd70c" x="0" y="576" style="fill: #e1812c; stroke: #3f3f3f; stroke-width: 1.5"/>
    </g>
   </g>
   <g id="PolyCollection_7">
    <defs>
     <path id="m3a72d4126e" d="M 498.6 -186.462052 
L 497.868292 -186.462052 
L 497.684322 -189.242894 
L 497.467168 -192.023735 
L 497.21444 -194.804577 
L 496.924498 -197.585419 
L 496.596675 -200.36626 
L 496.231482 -203.147102 
L 495.830771 -205.927944 
L 495.397844 -208.708785 
L 494.937474 -211.489627 
L 494.455842 -214.270469 
L 493.960367 -217.05131 
L 493.459436 -219.832152 
L 492.962045 -222.612994 
L 492.47736 -225.393835 
L 492.014233 -228.174677 
L 491.580703 -230.955518 
L 491.18352 -233.73636 
L 490.827727 -236.517202 
L 490.51633 -239.298043 
L 490.250098 -242.078885 
L 490.027488 -244.859727 
L 489.844717 -247.640568 
L 489.695961 -250.42141 
L 489.573674 -253.202252 
L 489.468979 -255.983093 
L 489.372123 -258.763935 
L 489.272923 -261.544777 
L 489.161206 -264.325618 
L 489.027171 -267.10646 
L 488.861689 -269.887302 
L 488.656494 -272.668143 
L 488.404286 -275.448985 
L 488.09874 -278.229827 
L 487.734448 -281.010668 
L 487.306798 -283.79151 
L 486.811832 -286.572352 
L 486.246105 -289.353193 
L 485.606558 -292.134035 
L 484.890431 -294.914876 
L 484.095241 -297.695718 
L 483.218806 -300.47656 
L 482.259352 -303.257401 
L 481.215669 -306.038243 
L 480.087326 -308.819085 
L 478.87493 -311.599926 
L 477.580406 -314.380768 
L 476.207285 -317.16161 
L 474.760983 -319.942451 
L 473.249048 -322.723293 
L 471.681343 -325.504135 
L 470.070172 -328.284976 
L 468.430303 -331.065818 
L 466.778894 -333.84666 
L 465.135312 -336.627501 
L 463.520826 -339.408343 
L 461.9582 -342.189185 
L 460.471178 -344.970026 
L 459.083882 -347.750868 
L 457.820151 -350.53171 
L 456.702848 -353.312551 
L 455.753155 -356.093393 
L 454.989907 -358.874235 
L 454.428988 -361.655076 
L 454.082824 -364.435918 
L 453.96 -367.216759 
L 454.065022 -369.997601 
L 454.398226 -372.778443 
L 454.955856 -375.559284 
L 455.730271 -378.340126 
L 456.710298 -381.120968 
L 457.881672 -383.901809 
L 459.227558 -386.682651 
L 460.729099 -389.463493 
L 462.36597 -392.244334 
L 464.116909 -395.025176 
L 465.960192 -397.806018 
L 467.874045 -400.586859 
L 469.836991 -403.367701 
L 471.828125 -406.148543 
L 473.827341 -408.929384 
L 475.815505 -411.710226 
L 477.774617 -414.491068 
L 479.687952 -417.271909 
L 481.540206 -420.052751 
L 483.317641 -422.833593 
L 485.008239 -425.614434 
L 486.601847 -428.395276 
L 488.090316 -431.176117 
L 489.467592 -433.956959 
L 490.729786 -436.737801 
L 491.875166 -439.518642 
L 492.904102 -442.299484 
L 493.818933 -445.080326 
L 494.623774 -447.861167 
L 495.324273 -450.642009 
L 495.927316 -453.422851 
L 496.440718 -456.203692 
L 496.872902 -458.984534 
L 497.232584 -461.765376 
L 498.6 -461.765376 
L 498.6 -461.765376 
L 498.6 -458.984534 
L 498.6 -456.203692 
L 498.6 -453.422851 
L 498.6 -450.642009 
L 498.6 -447.861167 
L 498.6 -445.080326 
L 498.6 -442.299484 
L 498.6 -439.518642 
L 498.6 -436.737801 
L 498.6 -433.956959 
L 498.6 -431.176117 
L 498.6 -428.395276 
L 498.6 -425.614434 
L 498.6 -422.833593 
L 498.6 -420.052751 
L 498.6 -417.271909 
L 498.6 -414.491068 
L 498.6 -411.710226 
L 498.6 -408.929384 
L 498.6 -406.148543 
L 498.6 -403.367701 
L 498.6 -400.586859 
L 498.6 -397.806018 
L 498.6 -395.025176 
L 498.6 -392.244334 
L 498.6 -389.463493 
L 498.6 -386.682651 
L 498.6 -383.901809 
L 498.6 -381.120968 
L 498.6 -378.340126 
L 498.6 -375.559284 
L 498.6 -372.778443 
L 498.6 -369.997601 
L 498.6 -367.216759 
L 498.6 -364.435918 
L 498.6 -361.655076 
L 498.6 -358.874235 
L 498.6 -356.093393 
L 498.6 -353.312551 
L 498.6 -350.53171 
L 498.6 -347.750868 
L 498.6 -344.970026 
L 498.6 -342.189185 
L 498.6 -339.408343 
L 498.6 -336.627501 
L 498.6 -333.84666 
L 498.6 -331.065818 
L 498.6 -328.284976 
L 498.6 -325.504135 
L 498.6 -322.723293 
L 498.6 -319.942451 
L 498.6 -317.16161 
L 498.6 -314.380768 
L 498.6 -311.599926 
L 498.6 -308.819085 
L 498.6 -306.038243 
L 498.6 -303.257401 
L 498.6 -300.47656 
L 498.6 -297.695718 
L 498.6 -294.914876 
L 498.6 -292.134035 
L 498.6 -289.353193 
L 498.6 -286.572352 
L 498.6 -283.79151 
L 498.6 -281.010668 
L 498.6 -278.229827 
L 498.6 -275.448985 
L 498.6 -272.668143 
L 498.6 -269.887302 
L 498.6 -267.10646 
L 498.6 -264.325618 
L 498.6 -261.544777 
L 498.6 -258.763935 
L 498.6 -255.983093 
L 498.6 -253.202252 
L 498.6 -250.42141 
L 498.6 -247.640568 
L 498.6 -244.859727 
L 498.6 -242.078885 
L 498.6 -239.298043 
L 498.6 -236.517202 
L 498.6 -233.73636 
L 498.6 -230.955518 
L 498.6 -228.174677 
L 498.6 -225.393835 
L 498.6 -222.612994 
L 498.6 -219.832152 
L 498.6 -217.05131 
L 498.6 -214.270469 
L 498.6 -211.489627 
L 498.6 -208.708785 
L 498.6 -205.927944 
L 498.6 -203.147102 
L 498.6 -200.36626 
L 498.6 -197.585419 
L 498.6 -194.804577 
L 498.6 -192.023735 
L 498.6 -189.242894 
L 498.6 -186.462052 
z
" style="stroke: #3f3f3f; stroke-width: 1.5"/>
    </defs>
    <g clip-path="url(#peaa6417665)">
     <use xlink:href="#m3a72d4126e" x="0" y="576" style="fill: #3274a1; stroke: #3f3f3f; stroke-width: 1.5"/>
    </g>
   </g>
   <g id="PolyCollection_8">
    <defs>
     <path id="m0a99025d59" d="M 499.967416 -117.114624 
L 498.6 -117.114624 
L 498.6 -119.895466 
L 498.6 -122.676308 
L 498.6 -125.457149 
L 498.6 -128.237991 
L 498.6 -131.018833 
L 498.6 -133.799674 
L 498.6 -136.580516 
L 498.6 -139.361358 
L 498.6 -142.142199 
L 498.6 -144.923041 
L 498.6 -147.703883 
L 498.6 -150.484724 
L 498.6 -153.265566 
L 498.6 -156.046407 
L 498.6 -158.827249 
L 498.6 -161.608091 
L 498.6 -164.388932 
L 498.6 -167.169774 
L 498.6 -169.950616 
L 498.6 -172.731457 
L 498.6 -175.512299 
L 498.6 -178.293141 
L 498.6 -181.073982 
L 498.6 -183.854824 
L 498.6 -186.635666 
L 498.6 -189.416507 
L 498.6 -192.197349 
L 498.6 -194.978191 
L 498.6 -197.759032 
L 498.6 -200.539874 
L 498.6 -203.320716 
L 498.6 -206.101557 
L 498.6 -208.882399 
L 498.6 -211.663241 
L 498.6 -214.444082 
L 498.6 -217.224924 
L 498.6 -220.005765 
L 498.6 -222.786607 
L 498.6 -225.567449 
L 498.6 -228.34829 
L 498.6 -231.129132 
L 498.6 -233.909974 
L 498.6 -236.690815 
L 498.6 -239.471657 
L 498.6 -242.252499 
L 498.6 -245.03334 
L 498.6 -247.814182 
L 498.6 -250.595024 
L 498.6 -253.375865 
L 498.6 -256.156707 
L 498.6 -258.937549 
L 498.6 -261.71839 
L 498.6 -264.499232 
L 498.6 -267.280074 
L 498.6 -270.060915 
L 498.6 -272.841757 
L 498.6 -275.622599 
L 498.6 -278.40344 
L 498.6 -281.184282 
L 498.6 -283.965124 
L 498.6 -286.745965 
L 498.6 -289.526807 
L 498.6 -292.307648 
L 498.6 -295.08849 
L 498.6 -297.869332 
L 498.6 -300.650173 
L 498.6 -303.431015 
L 498.6 -306.211857 
L 498.6 -308.992698 
L 498.6 -311.77354 
L 498.6 -314.554382 
L 498.6 -317.335223 
L 498.6 -320.116065 
L 498.6 -322.896907 
L 498.6 -325.677748 
L 498.6 -328.45859 
L 498.6 -331.239432 
L 498.6 -334.020273 
L 498.6 -336.801115 
L 498.6 -339.581957 
L 498.6 -342.362798 
L 498.6 -345.14364 
L 498.6 -347.924482 
L 498.6 -350.705323 
L 498.6 -353.486165 
L 498.6 -356.267006 
L 498.6 -359.047848 
L 498.6 -361.82869 
L 498.6 -364.609531 
L 498.6 -367.390373 
L 498.6 -370.171215 
L 498.6 -372.952056 
L 498.6 -375.732898 
L 498.6 -378.51374 
L 498.6 -381.294581 
L 498.6 -384.075423 
L 498.6 -386.856265 
L 498.6 -389.637106 
L 498.6 -392.417948 
L 499.331708 -392.417948 
L 499.331708 -392.417948 
L 499.515678 -389.637106 
L 499.732832 -386.856265 
L 499.98556 -384.075423 
L 500.275502 -381.294581 
L 500.603325 -378.51374 
L 500.968518 -375.732898 
L 501.369229 -372.952056 
L 501.802156 -370.171215 
L 502.262526 -367.390373 
L 502.744158 -364.609531 
L 503.239633 -361.82869 
L 503.740564 -359.047848 
L 504.237955 -356.267006 
L 504.72264 -353.486165 
L 505.185767 -350.705323 
L 505.619297 -347.924482 
L 506.01648 -345.14364 
L 506.372273 -342.362798 
L 506.68367 -339.581957 
L 506.949902 -336.801115 
L 507.172512 -334.020273 
L 507.355283 -331.239432 
L 507.504039 -328.45859 
L 507.626326 -325.677748 
L 507.731021 -322.896907 
L 507.827877 -320.116065 
L 507.927077 -317.335223 
L 508.038794 -314.554382 
L 508.172829 -311.77354 
L 508.338311 -308.992698 
L 508.543506 -306.211857 
L 508.795714 -303.431015 
L 509.10126 -300.650173 
L 509.465552 -297.869332 
L 509.893202 -295.08849 
L 510.388168 -292.307648 
L 510.953895 -289.526807 
L 511.593442 -286.745965 
L 512.309569 -283.965124 
L 513.104759 -281.184282 
L 513.981194 -278.40344 
L 514.940648 -275.622599 
L 515.984331 -272.841757 
L 517.112674 -270.060915 
L 518.32507 -267.280074 
L 519.619594 -264.499232 
L 520.992715 -261.71839 
L 522.439017 -258.937549 
L 523.950952 -256.156707 
L 525.518657 -253.375865 
L 527.129828 -250.595024 
L 528.769697 -247.814182 
L 530.421106 -245.03334 
L 532.064688 -242.252499 
L 533.679174 -239.471657 
L 535.2418 -236.690815 
L 536.728822 -233.909974 
L 538.116118 -231.129132 
L 539.379849 -228.34829 
L 540.497152 -225.567449 
L 541.446845 -222.786607 
L 542.210093 -220.005765 
L 542.771012 -217.224924 
L 543.117176 -214.444082 
L 543.24 -211.663241 
L 543.134978 -208.882399 
L 542.801774 -206.101557 
L 542.244144 -203.320716 
L 541.469729 -200.539874 
L 540.489702 -197.759032 
L 539.318328 -194.978191 
L 537.972442 -192.197349 
L 536.470901 -189.416507 
L 534.83403 -186.635666 
L 533.083091 -183.854824 
L 531.239808 -181.073982 
L 529.325955 -178.293141 
L 527.363009 -175.512299 
L 525.371875 -172.731457 
L 523.372659 -169.950616 
L 521.384495 -167.169774 
L 519.425383 -164.388932 
L 517.512048 -161.608091 
L 515.659794 -158.827249 
L 513.882359 -156.046407 
L 512.191761 -153.265566 
L 510.598153 -150.484724 
L 509.109684 -147.703883 
L 507.732408 -144.923041 
L 506.470214 -142.142199 
L 505.324834 -139.361358 
L 504.295898 -136.580516 
L 503.381067 -133.799674 
L 502.576226 -131.018833 
L 501.875727 -128.237991 
L 501.272684 -125.457149 
L 500.759282 -122.676308 
L 500.327098 -119.895466 
L 499.967416 -117.114624 
z
" style="stroke: #3f3f3f; stroke-width: 1.5"/>
    </defs>
    <g clip-path="url(#peaa6417665)">
     <use xlink:href="#m0a99025d59" x="0" y="576" style="fill: #e1812c; stroke: #3f3f3f; stroke-width: 1.5"/>
    </g>
   </g>
   <g id="PolyCollection_9">
    <defs>
     <path id="m2b30b39845" d="M 610.2 -163.019214 
L 609.698332 -163.019214 
L 609.569577 -166.133553 
L 609.417956 -169.247892 
L 609.242223 -172.36223 
L 609.041779 -175.476569 
L 608.816799 -178.590907 
L 608.568334 -181.705246 
L 608.298339 -184.819584 
L 608.00965 -187.933923 
L 607.705877 -191.048261 
L 607.391214 -194.1626 
L 607.07019 -197.276938 
L 606.747357 -200.391277 
L 606.426948 -203.505615 
L 606.112538 -206.619954 
L 605.806731 -209.734292 
L 605.510913 -212.848631 
L 605.225091 -215.962969 
L 604.947834 -219.077308 
L 604.676331 -222.191646 
L 604.406544 -225.305985 
L 604.133453 -228.420323 
L 603.851354 -231.534662 
L 603.554182 -234.649 
L 603.235825 -237.763339 
L 602.890398 -240.877677 
L 602.512458 -243.992016 
L 602.097147 -247.106354 
L 601.640271 -250.220693 
L 601.138323 -253.335031 
L 600.588476 -256.44937 
L 599.988567 -259.563709 
L 599.337093 -262.678047 
L 598.633244 -265.792386 
L 597.876966 -268.906724 
L 597.069045 -272.021063 
L 596.211211 -275.135401 
L 595.306209 -278.24974 
L 594.357817 -281.364078 
L 593.370784 -284.478417 
L 592.35066 -287.592755 
L 591.303506 -290.707094 
L 590.235515 -293.821432 
L 589.152553 -296.935771 
L 588.059676 -300.050109 
L 586.960683 -303.164448 
L 585.857765 -306.278786 
L 584.751312 -309.393125 
L 583.639921 -312.507463 
L 582.520643 -315.621802 
L 581.389459 -318.73614 
L 580.241982 -321.850479 
L 579.074315 -324.964817 
L 577.884016 -328.079156 
L 576.671071 -331.193494 
L 575.438793 -334.307833 
L 574.194541 -337.422171 
L 572.950201 -340.53651 
L 571.722337 -343.650848 
L 570.532 -346.765187 
L 569.404155 -349.879526 
L 568.36678 -352.993864 
L 567.449652 -356.108203 
L 566.682928 -359.222541 
L 566.095595 -362.33688 
L 565.713919 -365.451218 
L 565.56 -368.565557 
L 565.650544 -371.679895 
L 565.995941 -374.794234 
L 566.599715 -377.908572 
L 567.458376 -381.022911 
L 568.561672 -384.137249 
L 569.893193 -387.251588 
L 571.431277 -390.365926 
L 573.150107 -393.480265 
L 575.020919 -396.594603 
L 577.01321 -399.708942 
L 579.095882 -402.82328 
L 581.238226 -405.937619 
L 583.410742 -409.051957 
L 585.585752 -412.166296 
L 587.737836 -415.280634 
L 589.844101 -418.394973 
L 591.884328 -421.509311 
L 593.841037 -424.62365 
L 595.699497 -427.737988 
L 597.447704 -430.852327 
L 599.076358 -433.966665 
L 600.57882 -437.081004 
L 601.951054 -440.195343 
L 603.191544 -443.309681 
L 604.301165 -446.42402 
L 605.28301 -449.538358 
L 606.142159 -452.652697 
L 606.885386 -455.767035 
L 607.520839 -458.881374 
L 608.057673 -461.995712 
L 608.505685 -465.110051 
L 608.874951 -468.224389 
L 609.175493 -471.338728 
L 610.2 -471.338728 
L 610.2 -471.338728 
L 610.2 -468.224389 
L 610.2 -465.110051 
L 610.2 -461.995712 
L 610.2 -458.881374 
L 610.2 -455.767035 
L 610.2 -452.652697 
L 610.2 -449.538358 
L 610.2 -446.42402 
L 610.2 -443.309681 
L 610.2 -440.195343 
L 610.2 -437.081004 
L 610.2 -433.966665 
L 610.2 -430.852327 
L 610.2 -427.737988 
L 610.2 -424.62365 
L 610.2 -421.509311 
L 610.2 -418.394973 
L 610.2 -415.280634 
L 610.2 -412.166296 
L 610.2 -409.051957 
L 610.2 -405.937619 
L 610.2 -402.82328 
L 610.2 -399.708942 
L 610.2 -396.594603 
L 610.2 -393.480265 
L 610.2 -390.365926 
L 610.2 -387.251588 
L 610.2 -384.137249 
L 610.2 -381.022911 
L 610.2 -377.908572 
L 610.2 -374.794234 
L 610.2 -371.679895 
L 610.2 -368.565557 
L 610.2 -365.451218 
L 610.2 -362.33688 
L 610.2 -359.222541 
L 610.2 -356.108203 
L 610.2 -352.993864 
L 610.2 -349.879526 
L 610.2 -346.765187 
L 610.2 -343.650848 
L 610.2 -340.53651 
L 610.2 -337.422171 
L 610.2 -334.307833 
L 610.2 -331.193494 
L 610.2 -328.079156 
L 610.2 -324.964817 
L 610.2 -321.850479 
L 610.2 -318.73614 
L 610.2 -315.621802 
L 610.2 -312.507463 
L 610.2 -309.393125 
L 610.2 -306.278786 
L 610.2 -303.164448 
L 610.2 -300.050109 
L 610.2 -296.935771 
L 610.2 -293.821432 
L 610.2 -290.707094 
L 610.2 -287.592755 
L 610.2 -284.478417 
L 610.2 -281.364078 
L 610.2 -278.24974 
L 610.2 -275.135401 
L 610.2 -272.021063 
L 610.2 -268.906724 
L 610.2 -265.792386 
L 610.2 -262.678047 
L 610.2 -259.563709 
L 610.2 -256.44937 
L 610.2 -253.335031 
L 610.2 -250.220693 
L 610.2 -247.106354 
L 610.2 -243.992016 
L 610.2 -240.877677 
L 610.2 -237.763339 
L 610.2 -234.649 
L 610.2 -231.534662 
L 610.2 -228.420323 
L 610.2 -225.305985 
L 610.2 -222.191646 
L 610.2 -219.077308 
L 610.2 -215.962969 
L 610.2 -212.848631 
L 610.2 -209.734292 
L 610.2 -206.619954 
L 610.2 -203.505615 
L 610.2 -200.391277 
L 610.2 -197.276938 
L 610.2 -194.1626 
L 610.2 -191.048261 
L 610.2 -187.933923 
L 610.2 -184.819584 
L 610.2 -181.705246 
L 610.2 -178.590907 
L 610.2 -175.476569 
L 610.2 -172.36223 
L 610.2 -169.247892 
L 610.2 -166.133553 
L 610.2 -163.019214 
z
" style="stroke: #3f3f3f; stroke-width: 1.5"/>
    </defs>
    <g clip-path="url(#peaa6417665)">
     <use xlink:href="#m2b30b39845" x="0" y="576" style="fill: #3274a1; stroke: #3f3f3f; stroke-width: 1.5"/>
    </g>
   </g>
   <g id="PolyCollection_10">
    <defs>
     <path id="m091d436983" d="M 611.224507 -107.541272 
L 610.2 -107.541272 
L 610.2 -110.655611 
L 610.2 -113.769949 
L 610.2 -116.884288 
L 610.2 -119.998626 
L 610.2 -123.112965 
L 610.2 -126.227303 
L 610.2 -129.341642 
L 610.2 -132.45598 
L 610.2 -135.570319 
L 610.2 -138.684657 
L 610.2 -141.798996 
L 610.2 -144.913335 
L 610.2 -148.027673 
L 610.2 -151.142012 
L 610.2 -154.25635 
L 610.2 -157.370689 
L 610.2 -160.485027 
L 610.2 -163.599366 
L 610.2 -166.713704 
L 610.2 -169.828043 
L 610.2 -172.942381 
L 610.2 -176.05672 
L 610.2 -179.171058 
L 610.2 -182.285397 
L 610.2 -185.399735 
L 610.2 -188.514074 
L 610.2 -191.628412 
L 610.2 -194.742751 
L 610.2 -197.857089 
L 610.2 -200.971428 
L 610.2 -204.085766 
L 610.2 -207.200105 
L 610.2 -210.314443 
L 610.2 -213.428782 
L 610.2 -216.54312 
L 610.2 -219.657459 
L 610.2 -222.771797 
L 610.2 -225.886136 
L 610.2 -229.000474 
L 610.2 -232.114813 
L 610.2 -235.229152 
L 610.2 -238.34349 
L 610.2 -241.457829 
L 610.2 -244.572167 
L 610.2 -247.686506 
L 610.2 -250.800844 
L 610.2 -253.915183 
L 610.2 -257.029521 
L 610.2 -260.14386 
L 610.2 -263.258198 
L 610.2 -266.372537 
L 610.2 -269.486875 
L 610.2 -272.601214 
L 610.2 -275.715552 
L 610.2 -278.829891 
L 610.2 -281.944229 
L 610.2 -285.058568 
L 610.2 -288.172906 
L 610.2 -291.287245 
L 610.2 -294.401583 
L 610.2 -297.515922 
L 610.2 -300.63026 
L 610.2 -303.744599 
L 610.2 -306.858937 
L 610.2 -309.973276 
L 610.2 -313.087614 
L 610.2 -316.201953 
L 610.2 -319.316291 
L 610.2 -322.43063 
L 610.2 -325.544969 
L 610.2 -328.659307 
L 610.2 -331.773646 
L 610.2 -334.887984 
L 610.2 -338.002323 
L 610.2 -341.116661 
L 610.2 -344.231 
L 610.2 -347.345338 
L 610.2 -350.459677 
L 610.2 -353.574015 
L 610.2 -356.688354 
L 610.2 -359.802692 
L 610.2 -362.917031 
L 610.2 -366.031369 
L 610.2 -369.145708 
L 610.2 -372.260046 
L 610.2 -375.374385 
L 610.2 -378.488723 
L 610.2 -381.603062 
L 610.2 -384.7174 
L 610.2 -387.831739 
L 610.2 -390.946077 
L 610.2 -394.060416 
L 610.2 -397.174754 
L 610.2 -400.289093 
L 610.2 -403.403431 
L 610.2 -406.51777 
L 610.2 -409.632108 
L 610.2 -412.746447 
L 610.2 -415.860786 
L 610.701668 -415.860786 
L 610.701668 -415.860786 
L 610.830423 -412.746447 
L 610.982044 -409.632108 
L 611.157777 -406.51777 
L 611.358221 -403.403431 
L 611.583201 -400.289093 
L 611.831666 -397.174754 
L 612.101661 -394.060416 
L 612.39035 -390.946077 
L 612.694123 -387.831739 
L 613.008786 -384.7174 
L 613.32981 -381.603062 
L 613.652643 -378.488723 
L 613.973052 -375.374385 
L 614.287462 -372.260046 
L 614.593269 -369.145708 
L 614.889087 -366.031369 
L 615.174909 -362.917031 
L 615.452166 -359.802692 
L 615.723669 -356.688354 
L 615.993456 -353.574015 
L 616.266547 -350.459677 
L 616.548646 -347.345338 
L 616.845818 -344.231 
L 617.164175 -341.116661 
L 617.509602 -338.002323 
L 617.887542 -334.887984 
L 618.302853 -331.773646 
L 618.759729 -328.659307 
L 619.261677 -325.544969 
L 619.811524 -322.43063 
L 620.411433 -319.316291 
L 621.062907 -316.201953 
L 621.766756 -313.087614 
L 622.523034 -309.973276 
L 623.330955 -306.858937 
L 624.188789 -303.744599 
L 625.093791 -300.63026 
L 626.042183 -297.515922 
L 627.029216 -294.401583 
L 628.04934 -291.287245 
L 629.096494 -288.172906 
L 630.164485 -285.058568 
L 631.247447 -281.944229 
L 632.340324 -278.829891 
L 633.439317 -275.715552 
L 634.542235 -272.601214 
L 635.648688 -269.486875 
L 636.760079 -266.372537 
L 637.879357 -263.258198 
L 639.010541 -260.14386 
L 640.158018 -257.029521 
L 641.325685 -253.915183 
L 642.515984 -250.800844 
L 643.728929 -247.686506 
L 644.961207 -244.572167 
L 646.205459 -241.457829 
L 647.449799 -238.34349 
L 648.677663 -235.229152 
L 649.868 -232.114813 
L 650.995845 -229.000474 
L 652.03322 -225.886136 
L 652.950348 -222.771797 
L 653.717072 -219.657459 
L 654.304405 -216.54312 
L 654.686081 -213.428782 
L 654.84 -210.314443 
L 654.749456 -207.200105 
L 654.404059 -204.085766 
L 653.800285 -200.971428 
L 652.941624 -197.857089 
L 651.838328 -194.742751 
L 650.506807 -191.628412 
L 648.968723 -188.514074 
L 647.249893 -185.399735 
L 645.379081 -182.285397 
L 643.38679 -179.171058 
L 641.304118 -176.05672 
L 639.161774 -172.942381 
L 636.989258 -169.828043 
L 634.814248 -166.713704 
L 632.662164 -163.599366 
L 630.555899 -160.485027 
L 628.515672 -157.370689 
L 626.558963 -154.25635 
L 624.700503 -151.142012 
L 622.952296 -148.027673 
L 621.323642 -144.913335 
L 619.82118 -141.798996 
L 618.448946 -138.684657 
L 617.208456 -135.570319 
L 616.098835 -132.45598 
L 615.11699 -129.341642 
L 614.257841 -126.227303 
L 613.514614 -123.112965 
L 612.879161 -119.998626 
L 612.342327 -116.884288 
L 611.894315 -113.769949 
L 611.525049 -110.655611 
L 611.224507 -107.541272 
z
" style="stroke: #3f3f3f; stroke-width: 1.5"/>
    </defs>
    <g clip-path="url(#peaa6417665)">
     <use xlink:href="#m091d436983" x="0" y="576" style="fill: #e1812c; stroke: #3f3f3f; stroke-width: 1.5"/>
    </g>
   </g>
   <g id="PolyCollection_11">
    <defs>
     <path id="mb50e430255" d="M 721.8 -184.86134 
L 721.044181 -184.86134 
L 720.845677 -187.674519 
L 720.60698 -190.487698 
L 720.323239 -193.300878 
L 719.989827 -196.114057 
L 719.602565 -198.927236 
L 719.157969 -201.740415 
L 718.653504 -204.553595 
L 718.087841 -207.366774 
L 717.461095 -210.179953 
L 716.775031 -212.993133 
L 716.033226 -215.806312 
L 715.241159 -218.619491 
L 714.406236 -221.43267 
L 713.537718 -224.24585 
L 712.646566 -227.059029 
L 711.745184 -229.872208 
L 710.847074 -232.685387 
L 709.966404 -235.498567 
L 709.117508 -238.311746 
L 708.314325 -241.124925 
L 707.569806 -243.938105 
L 706.895309 -246.751284 
L 706.3 -249.564463 
L 705.790304 -252.377642 
L 705.369418 -255.190822 
L 705.036923 -258.004001 
L 704.788517 -260.81718 
L 704.615898 -263.630359 
L 704.506816 -266.443539 
L 704.445306 -269.256718 
L 704.41211 -272.069897 
L 704.385293 -274.883077 
L 704.341019 -277.696256 
L 704.254492 -280.509435 
L 704.100998 -283.322614 
L 703.857013 -286.135794 
L 703.501318 -288.948973 
L 703.016059 -291.762152 
L 702.387687 -294.575331 
L 701.607718 -297.388511 
L 700.673257 -300.20169 
L 699.587262 -303.014869 
L 698.358504 -305.828049 
L 697.001243 -308.641228 
L 695.534628 -311.454407 
L 693.981859 -314.267586 
L 692.369184 -317.080766 
L 690.724775 -319.893945 
L 689.077578 -322.707124 
L 687.456212 -325.520303 
L 685.887966 -328.333483 
L 684.397976 -331.146662 
L 683.008605 -333.959841 
L 681.739046 -336.773021 
L 680.605163 -339.5862 
L 679.619524 -342.399379 
L 678.791619 -345.212558 
L 678.128195 -348.025738 
L 677.633675 -350.838917 
L 677.310592 -353.652096 
L 677.16 -356.465275 
L 677.181823 -359.278455 
L 677.375113 -362.091634 
L 677.738197 -364.904813 
L 678.268723 -367.717993 
L 678.9636 -370.531172 
L 679.818865 -373.344351 
L 680.829491 -376.15753 
L 681.989169 -378.97071 
L 683.290102 -381.783889 
L 684.722826 -384.597068 
L 686.276092 -387.410247 
L 687.936828 -390.223427 
L 689.690186 -393.036606 
L 691.519698 -395.849785 
L 693.407507 -398.662965 
L 695.334705 -401.476144 
L 697.281728 -404.289323 
L 699.228813 -407.102502 
L 701.156475 -409.915682 
L 703.046001 -412.728861 
L 704.879915 -415.54204 
L 706.642402 -418.35522 
L 708.319668 -421.168399 
L 709.900223 -423.981578 
L 711.375066 -426.794757 
L 712.737774 -429.607937 
L 713.984504 -432.421116 
L 715.113886 -435.234295 
L 716.126851 -438.047474 
L 717.026384 -440.860654 
L 717.817228 -443.673833 
L 718.50556 -446.487012 
L 719.098646 -449.300192 
L 719.604506 -452.113371 
L 720.031592 -454.92655 
L 720.388493 -457.739729 
L 720.683688 -460.552909 
L 720.925331 -463.366088 
L 721.8 -463.366088 
L 721.8 -463.366088 
L 721.8 -460.552909 
L 721.8 -457.739729 
L 721.8 -454.92655 
L 721.8 -452.113371 
L 721.8 -449.300192 
L 721.8 -446.487012 
L 721.8 -443.673833 
L 721.8 -440.860654 
L 721.8 -438.047474 
L 721.8 -435.234295 
L 721.8 -432.421116 
L 721.8 -429.607937 
L 721.8 -426.794757 
L 721.8 -423.981578 
L 721.8 -421.168399 
L 721.8 -418.35522 
L 721.8 -415.54204 
L 721.8 -412.728861 
L 721.8 -409.915682 
L 721.8 -407.102502 
L 721.8 -404.289323 
L 721.8 -401.476144 
L 721.8 -398.662965 
L 721.8 -395.849785 
L 721.8 -393.036606 
L 721.8 -390.223427 
L 721.8 -387.410247 
L 721.8 -384.597068 
L 721.8 -381.783889 
L 721.8 -378.97071 
L 721.8 -376.15753 
L 721.8 -373.344351 
L 721.8 -370.531172 
L 721.8 -367.717993 
L 721.8 -364.904813 
L 721.8 -362.091634 
L 721.8 -359.278455 
L 721.8 -356.465275 
L 721.8 -353.652096 
L 721.8 -350.838917 
L 721.8 -348.025738 
L 721.8 -345.212558 
L 721.8 -342.399379 
L 721.8 -339.5862 
L 721.8 -336.773021 
L 721.8 -333.959841 
L 721.8 -331.146662 
L 721.8 -328.333483 
L 721.8 -325.520303 
L 721.8 -322.707124 
L 721.8 -319.893945 
L 721.8 -317.080766 
L 721.8 -314.267586 
L 721.8 -311.454407 
L 721.8 -308.641228 
L 721.8 -305.828049 
L 721.8 -303.014869 
L 721.8 -300.20169 
L 721.8 -297.388511 
L 721.8 -294.575331 
L 721.8 -291.762152 
L 721.8 -288.948973 
L 721.8 -286.135794 
L 721.8 -283.322614 
L 721.8 -280.509435 
L 721.8 -277.696256 
L 721.8 -274.883077 
L 721.8 -272.069897 
L 721.8 -269.256718 
L 721.8 -266.443539 
L 721.8 -263.630359 
L 721.8 -260.81718 
L 721.8 -258.004001 
L 721.8 -255.190822 
L 721.8 -252.377642 
L 721.8 -249.564463 
L 721.8 -246.751284 
L 721.8 -243.938105 
L 721.8 -241.124925 
L 721.8 -238.311746 
L 721.8 -235.498567 
L 721.8 -232.685387 
L 721.8 -229.872208 
L 721.8 -227.059029 
L 721.8 -224.24585 
L 721.8 -221.43267 
L 721.8 -218.619491 
L 721.8 -215.806312 
L 721.8 -212.993133 
L 721.8 -210.179953 
L 721.8 -207.366774 
L 721.8 -204.553595 
L 721.8 -201.740415 
L 721.8 -198.927236 
L 721.8 -196.114057 
L 721.8 -193.300878 
L 721.8 -190.487698 
L 721.8 -187.674519 
L 721.8 -184.86134 
z
" style="stroke: #3f3f3f; stroke-width: 1.5"/>
    </defs>
    <g clip-path="url(#peaa6417665)">
     <use xlink:href="#mb50e430255" x="0" y="576" style="fill: #3274a1; stroke: #3f3f3f; stroke-width: 1.5"/>
    </g>
   </g>
   <g id="PolyCollection_12">
    <defs>
     <path id="m94492054db" d="M 722.674669 -115.513912 
L 721.8 -115.513912 
L 721.8 -118.327091 
L 721.8 -121.140271 
L 721.8 -123.95345 
L 721.8 -126.766629 
L 721.8 -129.579808 
L 721.8 -132.392988 
L 721.8 -135.206167 
L 721.8 -138.019346 
L 721.8 -140.832526 
L 721.8 -143.645705 
L 721.8 -146.458884 
L 721.8 -149.272063 
L 721.8 -152.085243 
L 721.8 -154.898422 
L 721.8 -157.711601 
L 721.8 -160.52478 
L 721.8 -163.33796 
L 721.8 -166.151139 
L 721.8 -168.964318 
L 721.8 -171.777498 
L 721.8 -174.590677 
L 721.8 -177.403856 
L 721.8 -180.217035 
L 721.8 -183.030215 
L 721.8 -185.843394 
L 721.8 -188.656573 
L 721.8 -191.469753 
L 721.8 -194.282932 
L 721.8 -197.096111 
L 721.8 -199.90929 
L 721.8 -202.72247 
L 721.8 -205.535649 
L 721.8 -208.348828 
L 721.8 -211.162007 
L 721.8 -213.975187 
L 721.8 -216.788366 
L 721.8 -219.601545 
L 721.8 -222.414725 
L 721.8 -225.227904 
L 721.8 -228.041083 
L 721.8 -230.854262 
L 721.8 -233.667442 
L 721.8 -236.480621 
L 721.8 -239.2938 
L 721.8 -242.106979 
L 721.8 -244.920159 
L 721.8 -247.733338 
L 721.8 -250.546517 
L 721.8 -253.359697 
L 721.8 -256.172876 
L 721.8 -258.986055 
L 721.8 -261.799234 
L 721.8 -264.612414 
L 721.8 -267.425593 
L 721.8 -270.238772 
L 721.8 -273.051951 
L 721.8 -275.865131 
L 721.8 -278.67831 
L 721.8 -281.491489 
L 721.8 -284.304669 
L 721.8 -287.117848 
L 721.8 -289.931027 
L 721.8 -292.744206 
L 721.8 -295.557386 
L 721.8 -298.370565 
L 721.8 -301.183744 
L 721.8 -303.996923 
L 721.8 -306.810103 
L 721.8 -309.623282 
L 721.8 -312.436461 
L 721.8 -315.249641 
L 721.8 -318.06282 
L 721.8 -320.875999 
L 721.8 -323.689178 
L 721.8 -326.502358 
L 721.8 -329.315537 
L 721.8 -332.128716 
L 721.8 -334.941895 
L 721.8 -337.755075 
L 721.8 -340.568254 
L 721.8 -343.381433 
L 721.8 -346.194613 
L 721.8 -349.007792 
L 721.8 -351.820971 
L 721.8 -354.63415 
L 721.8 -357.44733 
L 721.8 -360.260509 
L 721.8 -363.073688 
L 721.8 -365.886867 
L 721.8 -368.700047 
L 721.8 -371.513226 
L 721.8 -374.326405 
L 721.8 -377.139585 
L 721.8 -379.952764 
L 721.8 -382.765943 
L 721.8 -385.579122 
L 721.8 -388.392302 
L 721.8 -391.205481 
L 721.8 -394.01866 
L 722.555819 -394.01866 
L 722.555819 -394.01866 
L 722.754323 -391.205481 
L 722.99302 -388.392302 
L 723.276761 -385.579122 
L 723.610173 -382.765943 
L 723.997435 -379.952764 
L 724.442031 -377.139585 
L 724.946496 -374.326405 
L 725.512159 -371.513226 
L 726.138905 -368.700047 
L 726.824969 -365.886867 
L 727.566774 -363.073688 
L 728.358841 -360.260509 
L 729.193764 -357.44733 
L 730.062282 -354.63415 
L 730.953434 -351.820971 
L 731.854816 -349.007792 
L 732.752926 -346.194613 
L 733.633596 -343.381433 
L 734.482492 -340.568254 
L 735.285675 -337.755075 
L 736.030194 -334.941895 
L 736.704691 -332.128716 
L 737.3 -329.315537 
L 737.809696 -326.502358 
L 738.230582 -323.689178 
L 738.563077 -320.875999 
L 738.811483 -318.06282 
L 738.984102 -315.249641 
L 739.093184 -312.436461 
L 739.154694 -309.623282 
L 739.18789 -306.810103 
L 739.214707 -303.996923 
L 739.258981 -301.183744 
L 739.345508 -298.370565 
L 739.499002 -295.557386 
L 739.742987 -292.744206 
L 740.098682 -289.931027 
L 740.583941 -287.117848 
L 741.212313 -284.304669 
L 741.992282 -281.491489 
L 742.926743 -278.67831 
L 744.012738 -275.865131 
L 745.241496 -273.051951 
L 746.598757 -270.238772 
L 748.065372 -267.425593 
L 749.618141 -264.612414 
L 751.230816 -261.799234 
L 752.875225 -258.986055 
L 754.522422 -256.172876 
L 756.143788 -253.359697 
L 757.712034 -250.546517 
L 759.202024 -247.733338 
L 760.591395 -244.920159 
L 761.860954 -242.106979 
L 762.994837 -239.2938 
L 763.980476 -236.480621 
L 764.808381 -233.667442 
L 765.471805 -230.854262 
L 765.966325 -228.041083 
L 766.289408 -225.227904 
L 766.44 -222.414725 
L 766.418177 -219.601545 
L 766.224887 -216.788366 
L 765.861803 -213.975187 
L 765.331277 -211.162007 
L 764.6364 -208.348828 
L 763.781135 -205.535649 
L 762.770509 -202.72247 
L 761.610831 -199.90929 
L 760.309898 -197.096111 
L 758.877174 -194.282932 
L 757.323908 -191.469753 
L 755.663172 -188.656573 
L 753.909814 -185.843394 
L 752.080302 -183.030215 
L 750.192493 -180.217035 
L 748.265295 -177.403856 
L 746.318272 -174.590677 
L 744.371187 -171.777498 
L 742.443525 -168.964318 
L 740.553999 -166.151139 
L 738.720085 -163.33796 
L 736.957598 -160.52478 
L 735.280332 -157.711601 
L 733.699777 -154.898422 
L 732.224934 -152.085243 
L 730.862226 -149.272063 
L 729.615496 -146.458884 
L 728.486114 -143.645705 
L 727.473149 -140.832526 
L 726.573616 -138.019346 
L 725.782772 -135.206167 
L 725.09444 -132.392988 
L 724.501354 -129.579808 
L 723.995494 -126.766629 
L 723.568408 -123.95345 
L 723.211507 -121.140271 
L 722.916312 -118.327091 
L 722.674669 -115.513912 
z
" style="stroke: #3f3f3f; stroke-width: 1.5"/>
    </defs>
    <g clip-path="url(#peaa6417665)">
     <use xlink:href="#m94492054db" x="0" y="576" style="fill: #e1812c; stroke: #3f3f3f; stroke-width: 1.5"/>
    </g>
   </g>
   <g id="matplotlib.axis_1">
    <g id="xtick_1">
     <g id="line2d_1">
      <defs>
       <path id="m1c9b90dc5e" d="M 0 0 
L 0 3.5 
" style="stroke: #000000; stroke-width: 0.8"/>
      </defs>
      <g>
       <use xlink:href="#m1c9b90dc5e" x="163.8" y="504" style="stroke: #000000; stroke-width: 0.8"/>
      </g>
     </g>
     <g id="text_1">
      <!-- 6 -->
      <g transform="translate(160.61875 518.598438)scale(0.1 -0.1)">
       <defs>
        <path id="DejaVuSans-36" d="M 2113 2584 
Q 1688 2584 1439 2293 
Q 1191 2003 1191 1497 
Q 1191 994 1439 701 
Q 1688 409 2113 409 
Q 2538 409 2786 701 
Q 3034 994 3034 1497 
Q 3034 2003 2786 2293 
Q 2538 2584 2113 2584 
z
M 3366 4563 
L 3366 3988 
Q 3128 4100 2886 4159 
Q 2644 4219 2406 4219 
Q 1781 4219 1451 3797 
Q 1122 3375 1075 2522 
Q 1259 2794 1537 2939 
Q 1816 3084 2150 3084 
Q 2853 3084 3261 2657 
Q 3669 2231 3669 1497 
Q 3669 778 3244 343 
Q 2819 -91 2113 -91 
Q 1303 -91 875 529 
Q 447 1150 447 2328 
Q 447 3434 972 4092 
Q 1497 4750 2381 4750 
Q 2619 4750 2861 4703 
Q 3103 4656 3366 4563 
z
" transform="scale(0.015625)"/>
       </defs>
       <use xlink:href="#DejaVuSans-36"/>
      </g>
     </g>
    </g>
    <g id="xtick_2">
     <g id="line2d_2">
      <g>
       <use xlink:href="#m1c9b90dc5e" x="275.4" y="504" style="stroke: #000000; stroke-width: 0.8"/>
      </g>
     </g>
     <g id="text_2">
      <!-- 9 -->
      <g transform="translate(272.21875 518.598438)scale(0.1 -0.1)">
       <defs>
        <path id="DejaVuSans-39" d="M 703 97 
L 703 672 
Q 941 559 1184 500 
Q 1428 441 1663 441 
Q 2288 441 2617 861 
Q 2947 1281 2994 2138 
Q 2813 1869 2534 1725 
Q 2256 1581 1919 1581 
Q 1219 1581 811 2004 
Q 403 2428 403 3163 
Q 403 3881 828 4315 
Q 1253 4750 1959 4750 
Q 2769 4750 3195 4129 
Q 3622 3509 3622 2328 
Q 3622 1225 3098 567 
Q 2575 -91 1691 -91 
Q 1453 -91 1209 -44 
Q 966 3 703 97 
z
M 1959 2075 
Q 2384 2075 2632 2365 
Q 2881 2656 2881 3163 
Q 2881 3666 2632 3958 
Q 2384 4250 1959 4250 
Q 1534 4250 1286 3958 
Q 1038 3666 1038 3163 
Q 1038 2656 1286 2365 
Q 1534 2075 1959 2075 
z
" transform="scale(0.015625)"/>
       </defs>
       <use xlink:href="#DejaVuSans-39"/>
      </g>
     </g>
    </g>
    <g id="xtick_3">
     <g id="line2d_3">
      <g>
       <use xlink:href="#m1c9b90dc5e" x="387" y="504" style="stroke: #000000; stroke-width: 0.8"/>
      </g>
     </g>
     <g id="text_3">
      <!-- 12 -->
      <g transform="translate(380.6375 518.598438)scale(0.1 -0.1)">
       <defs>
        <path id="DejaVuSans-31" d="M 794 531 
L 1825 531 
L 1825 4091 
L 703 3866 
L 703 4441 
L 1819 4666 
L 2450 4666 
L 2450 531 
L 3481 531 
L 3481 0 
L 794 0 
L 794 531 
z
" transform="scale(0.015625)"/>
        <path id="DejaVuSans-32" d="M 1228 531 
L 3431 531 
L 3431 0 
L 469 0 
L 469 531 
Q 828 903 1448 1529 
Q 2069 2156 2228 2338 
Q 2531 2678 2651 2914 
Q 2772 3150 2772 3378 
Q 2772 3750 2511 3984 
Q 2250 4219 1831 4219 
Q 1534 4219 1204 4116 
Q 875 4013 500 3803 
L 500 4441 
Q 881 4594 1212 4672 
Q 1544 4750 1819 4750 
Q 2544 4750 2975 4387 
Q 3406 4025 3406 3419 
Q 3406 3131 3298 2873 
Q 3191 2616 2906 2266 
Q 2828 2175 2409 1742 
Q 1991 1309 1228 531 
z
" transform="scale(0.015625)"/>
       </defs>
       <use xlink:href="#DejaVuSans-31"/>
       <use xlink:href="#DejaVuSans-32" x="63.623047"/>
      </g>
     </g>
    </g>
    <g id="xtick_4">
     <g id="line2d_4">
      <g>
       <use xlink:href="#m1c9b90dc5e" x="498.6" y="504" style="stroke: #000000; stroke-width: 0.8"/>
      </g>
     </g>
     <g id="text_4">
      <!-- 15 -->
      <g transform="translate(492.2375 518.598438)scale(0.1 -0.1)">
       <defs>
        <path id="DejaVuSans-35" d="M 691 4666 
L 3169 4666 
L 3169 4134 
L 1269 4134 
L 1269 2991 
Q 1406 3038 1543 3061 
Q 1681 3084 1819 3084 
Q 2600 3084 3056 2656 
Q 3513 2228 3513 1497 
Q 3513 744 3044 326 
Q 2575 -91 1722 -91 
Q 1428 -91 1123 -41 
Q 819 9 494 109 
L 494 744 
Q 775 591 1075 516 
Q 1375 441 1709 441 
Q 2250 441 2565 725 
Q 2881 1009 2881 1497 
Q 2881 1984 2565 2268 
Q 2250 2553 1709 2553 
Q 1456 2553 1204 2497 
Q 953 2441 691 2322 
L 691 4666 
z
" transform="scale(0.015625)"/>
       </defs>
       <use xlink:href="#DejaVuSans-31"/>
       <use xlink:href="#DejaVuSans-35" x="63.623047"/>
      </g>
     </g>
    </g>
    <g id="xtick_5">
     <g id="line2d_5">
      <g>
       <use xlink:href="#m1c9b90dc5e" x="610.2" y="504" style="stroke: #000000; stroke-width: 0.8"/>
      </g>
     </g>
     <g id="text_5">
      <!-- 18 -->
      <g transform="translate(603.8375 518.598438)scale(0.1 -0.1)">
       <defs>
        <path id="DejaVuSans-38" d="M 2034 2216 
Q 1584 2216 1326 1975 
Q 1069 1734 1069 1313 
Q 1069 891 1326 650 
Q 1584 409 2034 409 
Q 2484 409 2743 651 
Q 3003 894 3003 1313 
Q 3003 1734 2745 1975 
Q 2488 2216 2034 2216 
z
M 1403 2484 
Q 997 2584 770 2862 
Q 544 3141 544 3541 
Q 544 4100 942 4425 
Q 1341 4750 2034 4750 
Q 2731 4750 3128 4425 
Q 3525 4100 3525 3541 
Q 3525 3141 3298 2862 
Q 3072 2584 2669 2484 
Q 3125 2378 3379 2068 
Q 3634 1759 3634 1313 
Q 3634 634 3220 271 
Q 2806 -91 2034 -91 
Q 1263 -91 848 271 
Q 434 634 434 1313 
Q 434 1759 690 2068 
Q 947 2378 1403 2484 
z
M 1172 3481 
Q 1172 3119 1398 2916 
Q 1625 2713 2034 2713 
Q 2441 2713 2670 2916 
Q 2900 3119 2900 3481 
Q 2900 3844 2670 4047 
Q 2441 4250 2034 4250 
Q 1625 4250 1398 4047 
Q 1172 3844 1172 3481 
z
" transform="scale(0.015625)"/>
       </defs>
       <use xlink:href="#DejaVuSans-31"/>
       <use xlink:href="#DejaVuSans-38" x="63.623047"/>
      </g>
     </g>
    </g>
    <g id="xtick_6">
     <g id="line2d_6">
      <g>
       <use xlink:href="#m1c9b90dc5e" x="721.8" y="504" style="stroke: #000000; stroke-width: 0.8"/>
      </g>
     </g>
     <g id="text_6">
      <!-- 21 -->
      <g transform="translate(715.4375 518.598438)scale(0.1 -0.1)">
       <use xlink:href="#DejaVuSans-32"/>
       <use xlink:href="#DejaVuSans-31" x="63.623047"/>
      </g>
     </g>
    </g>
    <g id="text_7">
     <!-- NumLayers -->
     <g transform="translate(414.474219 532.276562)scale(0.1 -0.1)">
      <defs>
       <path id="DejaVuSans-4e" d="M 628 4666 
L 1478 4666 
L 3547 763 
L 3547 4666 
L 4159 4666 
L 4159 0 
L 3309 0 
L 1241 3903 
L 1241 0 
L 628 0 
L 628 4666 
z
" transform="scale(0.015625)"/>
       <path id="DejaVuSans-75" d="M 544 1381 
L 544 3500 
L 1119 3500 
L 1119 1403 
Q 1119 906 1312 657 
Q 1506 409 1894 409 
Q 2359 409 2629 706 
Q 2900 1003 2900 1516 
L 2900 3500 
L 3475 3500 
L 3475 0 
L 2900 0 
L 2900 538 
Q 2691 219 2414 64 
Q 2138 -91 1772 -91 
Q 1169 -91 856 284 
Q 544 659 544 1381 
z
M 1991 3584 
L 1991 3584 
z
" transform="scale(0.015625)"/>
       <path id="DejaVuSans-6d" d="M 3328 2828 
Q 3544 3216 3844 3400 
Q 4144 3584 4550 3584 
Q 5097 3584 5394 3201 
Q 5691 2819 5691 2113 
L 5691 0 
L 5113 0 
L 5113 2094 
Q 5113 2597 4934 2840 
Q 4756 3084 4391 3084 
Q 3944 3084 3684 2787 
Q 3425 2491 3425 1978 
L 3425 0 
L 2847 0 
L 2847 2094 
Q 2847 2600 2669 2842 
Q 2491 3084 2119 3084 
Q 1678 3084 1418 2786 
Q 1159 2488 1159 1978 
L 1159 0 
L 581 0 
L 581 3500 
L 1159 3500 
L 1159 2956 
Q 1356 3278 1631 3431 
Q 1906 3584 2284 3584 
Q 2666 3584 2933 3390 
Q 3200 3197 3328 2828 
z
" transform="scale(0.015625)"/>
       <path id="DejaVuSans-4c" d="M 628 4666 
L 1259 4666 
L 1259 531 
L 3531 531 
L 3531 0 
L 628 0 
L 628 4666 
z
" transform="scale(0.015625)"/>
       <path id="DejaVuSans-61" d="M 2194 1759 
Q 1497 1759 1228 1600 
Q 959 1441 959 1056 
Q 959 750 1161 570 
Q 1363 391 1709 391 
Q 2188 391 2477 730 
Q 2766 1069 2766 1631 
L 2766 1759 
L 2194 1759 
z
M 3341 1997 
L 3341 0 
L 2766 0 
L 2766 531 
Q 2569 213 2275 61 
Q 1981 -91 1556 -91 
Q 1019 -91 701 211 
Q 384 513 384 1019 
Q 384 1609 779 1909 
Q 1175 2209 1959 2209 
L 2766 2209 
L 2766 2266 
Q 2766 2663 2505 2880 
Q 2244 3097 1772 3097 
Q 1472 3097 1187 3025 
Q 903 2953 641 2809 
L 641 3341 
Q 956 3463 1253 3523 
Q 1550 3584 1831 3584 
Q 2591 3584 2966 3190 
Q 3341 2797 3341 1997 
z
" transform="scale(0.015625)"/>
       <path id="DejaVuSans-79" d="M 2059 -325 
Q 1816 -950 1584 -1140 
Q 1353 -1331 966 -1331 
L 506 -1331 
L 506 -850 
L 844 -850 
Q 1081 -850 1212 -737 
Q 1344 -625 1503 -206 
L 1606 56 
L 191 3500 
L 800 3500 
L 1894 763 
L 2988 3500 
L 3597 3500 
L 2059 -325 
z
" transform="scale(0.015625)"/>
       <path id="DejaVuSans-65" d="M 3597 1894 
L 3597 1613 
L 953 1613 
Q 991 1019 1311 708 
Q 1631 397 2203 397 
Q 2534 397 2845 478 
Q 3156 559 3463 722 
L 3463 178 
Q 3153 47 2828 -22 
Q 2503 -91 2169 -91 
Q 1331 -91 842 396 
Q 353 884 353 1716 
Q 353 2575 817 3079 
Q 1281 3584 2069 3584 
Q 2775 3584 3186 3129 
Q 3597 2675 3597 1894 
z
M 3022 2063 
Q 3016 2534 2758 2815 
Q 2500 3097 2075 3097 
Q 1594 3097 1305 2825 
Q 1016 2553 972 2059 
L 3022 2063 
z
" transform="scale(0.015625)"/>
       <path id="DejaVuSans-72" d="M 2631 2963 
Q 2534 3019 2420 3045 
Q 2306 3072 2169 3072 
Q 1681 3072 1420 2755 
Q 1159 2438 1159 1844 
L 1159 0 
L 581 0 
L 581 3500 
L 1159 3500 
L 1159 2956 
Q 1341 3275 1631 3429 
Q 1922 3584 2338 3584 
Q 2397 3584 2469 3576 
Q 2541 3569 2628 3553 
L 2631 2963 
z
" transform="scale(0.015625)"/>
       <path id="DejaVuSans-73" d="M 2834 3397 
L 2834 2853 
Q 2591 2978 2328 3040 
Q 2066 3103 1784 3103 
Q 1356 3103 1142 2972 
Q 928 2841 928 2578 
Q 928 2378 1081 2264 
Q 1234 2150 1697 2047 
L 1894 2003 
Q 2506 1872 2764 1633 
Q 3022 1394 3022 966 
Q 3022 478 2636 193 
Q 2250 -91 1575 -91 
Q 1294 -91 989 -36 
Q 684 19 347 128 
L 347 722 
Q 666 556 975 473 
Q 1284 391 1588 391 
Q 1994 391 2212 530 
Q 2431 669 2431 922 
Q 2431 1156 2273 1281 
Q 2116 1406 1581 1522 
L 1381 1569 
Q 847 1681 609 1914 
Q 372 2147 372 2553 
Q 372 3047 722 3315 
Q 1072 3584 1716 3584 
Q 2034 3584 2315 3537 
Q 2597 3491 2834 3397 
z
" transform="scale(0.015625)"/>
      </defs>
      <use xlink:href="#DejaVuSans-4e"/>
      <use xlink:href="#DejaVuSans-75" x="74.804688"/>
      <use xlink:href="#DejaVuSans-6d" x="138.183594"/>
      <use xlink:href="#DejaVuSans-4c" x="235.595703"/>
      <use xlink:href="#DejaVuSans-61" x="291.308594"/>
      <use xlink:href="#DejaVuSans-79" x="352.587891"/>
      <use xlink:href="#DejaVuSans-65" x="411.767578"/>
      <use xlink:href="#DejaVuSans-72" x="473.291016"/>
      <use xlink:href="#DejaVuSans-73" x="514.404297"/>
     </g>
    </g>
   </g>
   <g id="matplotlib.axis_2">
    <g id="ytick_1">
     <g id="line2d_7">
      <defs>
       <path id="m092c6a0398" d="M 0 0 
L -3.5 0 
" style="stroke: #000000; stroke-width: 0.8"/>
      </defs>
      <g>
       <use xlink:href="#m092c6a0398" x="108" y="442.591712" style="stroke: #000000; stroke-width: 0.8"/>
      </g>
     </g>
     <g id="text_8">
      <!-- 0 -->
      <g transform="translate(94.6375 446.390931)scale(0.1 -0.1)">
       <defs>
        <path id="DejaVuSans-30" d="M 2034 4250 
Q 1547 4250 1301 3770 
Q 1056 3291 1056 2328 
Q 1056 1369 1301 889 
Q 1547 409 2034 409 
Q 2525 409 2770 889 
Q 3016 1369 3016 2328 
Q 3016 3291 2770 3770 
Q 2525 4250 2034 4250 
z
M 2034 4750 
Q 2819 4750 3233 4129 
Q 3647 3509 3647 2328 
Q 3647 1150 3233 529 
Q 2819 -91 2034 -91 
Q 1250 -91 836 529 
Q 422 1150 422 2328 
Q 422 3509 836 4129 
Q 1250 4750 2034 4750 
z
" transform="scale(0.015625)"/>
       </defs>
       <use xlink:href="#DejaVuSans-30"/>
      </g>
     </g>
    </g>
    <g id="ytick_2">
     <g id="line2d_8">
      <g>
       <use xlink:href="#m092c6a0398" x="108" y="373.244285" style="stroke: #000000; stroke-width: 0.8"/>
      </g>
     </g>
     <g id="text_9">
      <!-- 10 -->
      <g transform="translate(88.275 377.043503)scale(0.1 -0.1)">
       <use xlink:href="#DejaVuSans-31"/>
       <use xlink:href="#DejaVuSans-30" x="63.623047"/>
      </g>
     </g>
    </g>
    <g id="ytick_3">
     <g id="line2d_9">
      <g>
       <use xlink:href="#m092c6a0398" x="108" y="303.896857" style="stroke: #000000; stroke-width: 0.8"/>
      </g>
     </g>
     <g id="text_10">
      <!-- 20 -->
      <g transform="translate(88.275 307.696076)scale(0.1 -0.1)">
       <use xlink:href="#DejaVuSans-32"/>
       <use xlink:href="#DejaVuSans-30" x="63.623047"/>
      </g>
     </g>
    </g>
    <g id="ytick_4">
     <g id="line2d_10">
      <g>
       <use xlink:href="#m092c6a0398" x="108" y="234.549429" style="stroke: #000000; stroke-width: 0.8"/>
      </g>
     </g>
     <g id="text_11">
      <!-- 30 -->
      <g transform="translate(88.275 238.348648)scale(0.1 -0.1)">
       <defs>
        <path id="DejaVuSans-33" d="M 2597 2516 
Q 3050 2419 3304 2112 
Q 3559 1806 3559 1356 
Q 3559 666 3084 287 
Q 2609 -91 1734 -91 
Q 1441 -91 1130 -33 
Q 819 25 488 141 
L 488 750 
Q 750 597 1062 519 
Q 1375 441 1716 441 
Q 2309 441 2620 675 
Q 2931 909 2931 1356 
Q 2931 1769 2642 2001 
Q 2353 2234 1838 2234 
L 1294 2234 
L 1294 2753 
L 1863 2753 
Q 2328 2753 2575 2939 
Q 2822 3125 2822 3475 
Q 2822 3834 2567 4026 
Q 2313 4219 1838 4219 
Q 1578 4219 1281 4162 
Q 984 4106 628 3988 
L 628 4550 
Q 988 4650 1302 4700 
Q 1616 4750 1894 4750 
Q 2613 4750 3031 4423 
Q 3450 4097 3450 3541 
Q 3450 3153 3228 2886 
Q 3006 2619 2597 2516 
z
" transform="scale(0.015625)"/>
       </defs>
       <use xlink:href="#DejaVuSans-33"/>
       <use xlink:href="#DejaVuSans-30" x="63.623047"/>
      </g>
     </g>
    </g>
    <g id="ytick_5">
     <g id="line2d_11">
      <g>
       <use xlink:href="#m092c6a0398" x="108" y="165.202002" style="stroke: #000000; stroke-width: 0.8"/>
      </g>
     </g>
     <g id="text_12">
      <!-- 40 -->
      <g transform="translate(88.275 169.00122)scale(0.1 -0.1)">
       <defs>
        <path id="DejaVuSans-34" d="M 2419 4116 
L 825 1625 
L 2419 1625 
L 2419 4116 
z
M 2253 4666 
L 3047 4666 
L 3047 1625 
L 3713 1625 
L 3713 1100 
L 3047 1100 
L 3047 0 
L 2419 0 
L 2419 1100 
L 313 1100 
L 313 1709 
L 2253 4666 
z
" transform="scale(0.015625)"/>
       </defs>
       <use xlink:href="#DejaVuSans-34"/>
       <use xlink:href="#DejaVuSans-30" x="63.623047"/>
      </g>
     </g>
    </g>
    <g id="ytick_6">
     <g id="line2d_12">
      <g>
       <use xlink:href="#m092c6a0398" x="108" y="95.854574" style="stroke: #000000; stroke-width: 0.8"/>
      </g>
     </g>
     <g id="text_13">
      <!-- 50 -->
      <g transform="translate(88.275 99.653793)scale(0.1 -0.1)">
       <use xlink:href="#DejaVuSans-35"/>
       <use xlink:href="#DejaVuSans-30" x="63.623047"/>
      </g>
     </g>
    </g>
    <g id="text_14">
     <!-- Count -->
     <g transform="translate(82.195312 301.408437)rotate(-90)scale(0.1 -0.1)">
      <defs>
       <path id="DejaVuSans-43" d="M 4122 4306 
L 4122 3641 
Q 3803 3938 3442 4084 
Q 3081 4231 2675 4231 
Q 1875 4231 1450 3742 
Q 1025 3253 1025 2328 
Q 1025 1406 1450 917 
Q 1875 428 2675 428 
Q 3081 428 3442 575 
Q 3803 722 4122 1019 
L 4122 359 
Q 3791 134 3420 21 
Q 3050 -91 2638 -91 
Q 1578 -91 968 557 
Q 359 1206 359 2328 
Q 359 3453 968 4101 
Q 1578 4750 2638 4750 
Q 3056 4750 3426 4639 
Q 3797 4528 4122 4306 
z
" transform="scale(0.015625)"/>
       <path id="DejaVuSans-6f" d="M 1959 3097 
Q 1497 3097 1228 2736 
Q 959 2375 959 1747 
Q 959 1119 1226 758 
Q 1494 397 1959 397 
Q 2419 397 2687 759 
Q 2956 1122 2956 1747 
Q 2956 2369 2687 2733 
Q 2419 3097 1959 3097 
z
M 1959 3584 
Q 2709 3584 3137 3096 
Q 3566 2609 3566 1747 
Q 3566 888 3137 398 
Q 2709 -91 1959 -91 
Q 1206 -91 779 398 
Q 353 888 353 1747 
Q 353 2609 779 3096 
Q 1206 3584 1959 3584 
z
" transform="scale(0.015625)"/>
       <path id="DejaVuSans-6e" d="M 3513 2113 
L 3513 0 
L 2938 0 
L 2938 2094 
Q 2938 2591 2744 2837 
Q 2550 3084 2163 3084 
Q 1697 3084 1428 2787 
Q 1159 2491 1159 1978 
L 1159 0 
L 581 0 
L 581 3500 
L 1159 3500 
L 1159 2956 
Q 1366 3272 1645 3428 
Q 1925 3584 2291 3584 
Q 2894 3584 3203 3211 
Q 3513 2838 3513 2113 
z
" transform="scale(0.015625)"/>
       <path id="DejaVuSans-74" d="M 1172 4494 
L 1172 3500 
L 2356 3500 
L 2356 3053 
L 1172 3053 
L 1172 1153 
Q 1172 725 1289 603 
Q 1406 481 1766 481 
L 2356 481 
L 2356 0 
L 1766 0 
Q 1100 0 847 248 
Q 594 497 594 1153 
L 594 3053 
L 172 3053 
L 172 3500 
L 594 3500 
L 594 4494 
L 1172 4494 
z
" transform="scale(0.015625)"/>
      </defs>
      <use xlink:href="#DejaVuSans-43"/>
      <use xlink:href="#DejaVuSans-6f" x="69.824219"/>
      <use xlink:href="#DejaVuSans-75" x="131.005859"/>
      <use xlink:href="#DejaVuSans-6e" x="194.384766"/>
      <use xlink:href="#DejaVuSans-74" x="257.763672"/>
     </g>
    </g>
   </g>
   <g id="line2d_13">
    <path d="M 134.070608 238.016801 
L 163.8 238.016801 
" clip-path="url(#peaa6417665)" style="fill: none; stroke-dasharray: 3.375,3.375; stroke-dashoffset: 0; stroke: #3f3f3f; stroke-width: 1.5"/>
   </g>
   <g id="line2d_14">
    <path d="M 121.339118 206.810458 
L 163.8 206.810458 
" clip-path="url(#peaa6417665)" style="fill: none; stroke-dasharray: 6.75,6.75; stroke-dashoffset: 0; stroke: #3f3f3f; stroke-width: 1.5"/>
   </g>
   <g id="line2d_15">
    <path d="M 121.872933 179.071487 
L 163.8 179.071487 
" clip-path="url(#peaa6417665)" style="fill: none; stroke-dasharray: 3.375,3.375; stroke-dashoffset: 0; stroke: #3f3f3f; stroke-width: 1.5"/>
   </g>
   <g id="line2d_16">
    <path d="M 163.8 394.048513 
L 205.727067 394.048513 
" clip-path="url(#peaa6417665)" style="fill: none; stroke-dasharray: 3.375,3.375; stroke-dashoffset: 0; stroke: #3f3f3f; stroke-width: 1.5"/>
   </g>
   <g id="line2d_17">
    <path d="M 163.8 366.309542 
L 206.260882 366.309542 
" clip-path="url(#peaa6417665)" style="fill: none; stroke-dasharray: 6.75,6.75; stroke-dashoffset: 0; stroke: #3f3f3f; stroke-width: 1.5"/>
   </g>
   <g id="line2d_18">
    <path d="M 163.8 335.103199 
L 193.529392 335.103199 
" clip-path="url(#peaa6417665)" style="fill: none; stroke-dasharray: 3.375,3.375; stroke-dashoffset: 0; stroke: #3f3f3f; stroke-width: 1.5"/>
   </g>
   <g id="line2d_19">
    <path d="M 247.431544 227.614686 
L 275.4 227.614686 
" clip-path="url(#peaa6417665)" style="fill: none; stroke-dasharray: 3.375,3.375; stroke-dashoffset: 0; stroke: #3f3f3f; stroke-width: 1.5"/>
   </g>
   <g id="line2d_20">
    <path d="M 232.458864 192.940973 
L 275.4 192.940973 
" clip-path="url(#peaa6417665)" style="fill: none; stroke-dasharray: 6.75,6.75; stroke-dashoffset: 0; stroke: #3f3f3f; stroke-width: 1.5"/>
   </g>
   <g id="line2d_21">
    <path d="M 235.000058 168.669373 
L 275.4 168.669373 
" clip-path="url(#peaa6417665)" style="fill: none; stroke-dasharray: 3.375,3.375; stroke-dashoffset: 0; stroke: #3f3f3f; stroke-width: 1.5"/>
   </g>
   <g id="line2d_22">
    <path d="M 275.4 404.450627 
L 315.799942 404.450627 
" clip-path="url(#peaa6417665)" style="fill: none; stroke-dasharray: 3.375,3.375; stroke-dashoffset: 0; stroke: #3f3f3f; stroke-width: 1.5"/>
   </g>
   <g id="line2d_23">
    <path d="M 275.4 380.179027 
L 318.341136 380.179027 
" clip-path="url(#peaa6417665)" style="fill: none; stroke-dasharray: 6.75,6.75; stroke-dashoffset: 0; stroke: #3f3f3f; stroke-width: 1.5"/>
   </g>
   <g id="line2d_24">
    <path d="M 275.4 345.505314 
L 303.368456 345.505314 
" clip-path="url(#peaa6417665)" style="fill: none; stroke-dasharray: 3.375,3.375; stroke-dashoffset: 0; stroke: #3f3f3f; stroke-width: 1.5"/>
   </g>
   <g id="line2d_25">
    <path d="M 362.239978 241.484172 
L 387 241.484172 
" clip-path="url(#peaa6417665)" style="fill: none; stroke-dasharray: 3.375,3.375; stroke-dashoffset: 0; stroke: #3f3f3f; stroke-width: 1.5"/>
   </g>
   <g id="line2d_26">
    <path d="M 346.586568 206.810458 
L 387 206.810458 
" clip-path="url(#peaa6417665)" style="fill: none; stroke-dasharray: 6.75,6.75; stroke-dashoffset: 0; stroke: #3f3f3f; stroke-width: 1.5"/>
   </g>
   <g id="line2d_27">
    <path d="M 343.870994 179.071487 
L 387 179.071487 
" clip-path="url(#peaa6417665)" style="fill: none; stroke-dasharray: 3.375,3.375; stroke-dashoffset: 0; stroke: #3f3f3f; stroke-width: 1.5"/>
   </g>
   <g id="line2d_28">
    <path d="M 387 394.048513 
L 430.129006 394.048513 
" clip-path="url(#peaa6417665)" style="fill: none; stroke-dasharray: 3.375,3.375; stroke-dashoffset: 0; stroke: #3f3f3f; stroke-width: 1.5"/>
   </g>
   <g id="line2d_29">
    <path d="M 387 366.309542 
L 427.413432 366.309542 
" clip-path="url(#peaa6417665)" style="fill: none; stroke-dasharray: 6.75,6.75; stroke-dashoffset: 0; stroke: #3f3f3f; stroke-width: 1.5"/>
   </g>
   <g id="line2d_30">
    <path d="M 387 331.635828 
L 411.760022 331.635828 
" clip-path="url(#peaa6417665)" style="fill: none; stroke-dasharray: 3.375,3.375; stroke-dashoffset: 0; stroke: #3f3f3f; stroke-width: 1.5"/>
   </g>
   <g id="line2d_31">
    <path d="M 468.732 244.951543 
L 498.6 244.951543 
" clip-path="url(#peaa6417665)" style="fill: none; stroke-dasharray: 3.375,3.375; stroke-dashoffset: 0; stroke: #3f3f3f; stroke-width: 1.5"/>
   </g>
   <g id="line2d_32">
    <path d="M 454.870698 213.745201 
L 498.6 213.745201 
" clip-path="url(#peaa6417665)" style="fill: none; stroke-dasharray: 6.75,6.75; stroke-dashoffset: 0; stroke: #3f3f3f; stroke-width: 1.5"/>
   </g>
   <g id="line2d_33">
    <path d="M 458.288856 192.940973 
L 498.6 192.940973 
" clip-path="url(#peaa6417665)" style="fill: none; stroke-dasharray: 3.375,3.375; stroke-dashoffset: 0; stroke: #3f3f3f; stroke-width: 1.5"/>
   </g>
   <g id="line2d_34">
    <path d="M 498.6 380.179027 
L 538.911144 380.179027 
" clip-path="url(#peaa6417665)" style="fill: none; stroke-dasharray: 3.375,3.375; stroke-dashoffset: 0; stroke: #3f3f3f; stroke-width: 1.5"/>
   </g>
   <g id="line2d_35">
    <path d="M 498.6 359.374799 
L 542.329302 359.374799 
" clip-path="url(#peaa6417665)" style="fill: none; stroke-dasharray: 6.75,6.75; stroke-dashoffset: 0; stroke: #3f3f3f; stroke-width: 1.5"/>
   </g>
   <g id="line2d_36">
    <path d="M 498.6 328.168457 
L 528.468 328.168457 
" clip-path="url(#peaa6417665)" style="fill: none; stroke-dasharray: 3.375,3.375; stroke-dashoffset: 0; stroke: #3f3f3f; stroke-width: 1.5"/>
   </g>
   <g id="line2d_37">
    <path d="M 583.905522 262.2884 
L 610.2 262.2884 
" clip-path="url(#peaa6417665)" style="fill: none; stroke-dasharray: 3.375,3.375; stroke-dashoffset: 0; stroke: #3f3f3f; stroke-width: 1.5"/>
   </g>
   <g id="line2d_38">
    <path d="M 566.536639 213.745201 
L 610.2 213.745201 
" clip-path="url(#peaa6417665)" style="fill: none; stroke-dasharray: 6.75,6.75; stroke-dashoffset: 0; stroke: #3f3f3f; stroke-width: 1.5"/>
   </g>
   <g id="line2d_39">
    <path d="M 567.885792 196.408344 
L 610.2 196.408344 
" clip-path="url(#peaa6417665)" style="fill: none; stroke-dasharray: 3.375,3.375; stroke-dashoffset: 0; stroke: #3f3f3f; stroke-width: 1.5"/>
   </g>
   <g id="line2d_40">
    <path d="M 610.2 376.711656 
L 652.514208 376.711656 
" clip-path="url(#peaa6417665)" style="fill: none; stroke-dasharray: 3.375,3.375; stroke-dashoffset: 0; stroke: #3f3f3f; stroke-width: 1.5"/>
   </g>
   <g id="line2d_41">
    <path d="M 610.2 359.374799 
L 653.863361 359.374799 
" clip-path="url(#peaa6417665)" style="fill: none; stroke-dasharray: 6.75,6.75; stroke-dashoffset: 0; stroke: #3f3f3f; stroke-width: 1.5"/>
   </g>
   <g id="line2d_42">
    <path d="M 610.2 310.8316 
L 636.494478 310.8316 
" clip-path="url(#peaa6417665)" style="fill: none; stroke-dasharray: 3.375,3.375; stroke-dashoffset: 0; stroke: #3f3f3f; stroke-width: 1.5"/>
   </g>
   <g id="line2d_43">
    <path d="M 691.035527 255.353658 
L 721.8 255.353658 
" clip-path="url(#peaa6417665)" style="fill: none; stroke-dasharray: 3.375,3.375; stroke-dashoffset: 0; stroke: #3f3f3f; stroke-width: 1.5"/>
   </g>
   <g id="line2d_44">
    <path d="M 680.041329 234.549429 
L 721.8 234.549429 
" clip-path="url(#peaa6417665)" style="fill: none; stroke-dasharray: 6.75,6.75; stroke-dashoffset: 0; stroke: #3f3f3f; stroke-width: 1.5"/>
   </g>
   <g id="line2d_45">
    <path d="M 680.238677 203.343087 
L 721.8 203.343087 
" clip-path="url(#peaa6417665)" style="fill: none; stroke-dasharray: 3.375,3.375; stroke-dashoffset: 0; stroke: #3f3f3f; stroke-width: 1.5"/>
   </g>
   <g id="line2d_46">
    <path d="M 721.8 369.776913 
L 763.361323 369.776913 
" clip-path="url(#peaa6417665)" style="fill: none; stroke-dasharray: 3.375,3.375; stroke-dashoffset: 0; stroke: #3f3f3f; stroke-width: 1.5"/>
   </g>
   <g id="line2d_47">
    <path d="M 721.8 338.570571 
L 763.558671 338.570571 
" clip-path="url(#peaa6417665)" style="fill: none; stroke-dasharray: 6.75,6.75; stroke-dashoffset: 0; stroke: #3f3f3f; stroke-width: 1.5"/>
   </g>
   <g id="line2d_48">
    <path d="M 721.8 317.766342 
L 752.564473 317.766342 
" clip-path="url(#peaa6417665)" style="fill: none; stroke-dasharray: 3.375,3.375; stroke-dashoffset: 0; stroke: #3f3f3f; stroke-width: 1.5"/>
   </g>
   <g id="patch_5">
    <path d="M 108 504 
L 108 69.12 
" style="fill: none; stroke: #000000; stroke-width: 0.8; stroke-linejoin: miter; stroke-linecap: square"/>
   </g>
   <g id="patch_6">
    <path d="M 777.6 504 
L 777.6 69.12 
" style="fill: none; stroke: #000000; stroke-width: 0.8; stroke-linejoin: miter; stroke-linecap: square"/>
   </g>
   <g id="patch_7">
    <path d="M 108 504 
L 777.6 504 
" style="fill: none; stroke: #000000; stroke-width: 0.8; stroke-linejoin: miter; stroke-linecap: square"/>
   </g>
   <g id="patch_8">
    <path d="M 108 69.12 
L 777.6 69.12 
" style="fill: none; stroke: #000000; stroke-width: 0.8; stroke-linejoin: miter; stroke-linecap: square"/>
   </g>
   <g id="legend_1">
    <g id="patch_9">
     <path d="M 638.1375 121.710625 
L 770.6 121.710625 
Q 772.6 121.710625 772.6 119.710625 
L 772.6 76.12 
Q 772.6 74.12 770.6 74.12 
L 638.1375 74.12 
Q 636.1375 74.12 636.1375 76.12 
L 636.1375 119.710625 
Q 636.1375 121.710625 638.1375 121.710625 
z
" style="fill: #ffffff; opacity: 0.8; stroke: #cccccc; stroke-linejoin: miter"/>
    </g>
    <g id="text_15">
     <!-- Result -->
     <g transform="translate(688.920313 85.718437)scale(0.1 -0.1)">
      <defs>
       <path id="DejaVuSans-52" d="M 2841 2188 
Q 3044 2119 3236 1894 
Q 3428 1669 3622 1275 
L 4263 0 
L 3584 0 
L 2988 1197 
Q 2756 1666 2539 1819 
Q 2322 1972 1947 1972 
L 1259 1972 
L 1259 0 
L 628 0 
L 628 4666 
L 2053 4666 
Q 2853 4666 3247 4331 
Q 3641 3997 3641 3322 
Q 3641 2881 3436 2590 
Q 3231 2300 2841 2188 
z
M 1259 4147 
L 1259 2491 
L 2053 2491 
Q 2509 2491 2742 2702 
Q 2975 2913 2975 3322 
Q 2975 3731 2742 3939 
Q 2509 4147 2053 4147 
L 1259 4147 
z
" transform="scale(0.015625)"/>
       <path id="DejaVuSans-6c" d="M 603 4863 
L 1178 4863 
L 1178 0 
L 603 0 
L 603 4863 
z
" transform="scale(0.015625)"/>
      </defs>
      <use xlink:href="#DejaVuSans-52"/>
      <use xlink:href="#DejaVuSans-65" x="64.982422"/>
      <use xlink:href="#DejaVuSans-73" x="126.505859"/>
      <use xlink:href="#DejaVuSans-75" x="178.605469"/>
      <use xlink:href="#DejaVuSans-6c" x="241.984375"/>
      <use xlink:href="#DejaVuSans-74" x="269.767578"/>
     </g>
    </g>
    <g id="patch_10">
     <path d="M 640.1375 100.396563 
L 660.1375 100.396563 
L 660.1375 93.396563 
L 640.1375 93.396563 
z
" style="fill: #3274a1; stroke: #3f3f3f; stroke-width: 0.75; stroke-linejoin: miter"/>
    </g>
    <g id="text_16">
     <!-- Completed_Abs -->
     <g transform="translate(668.1375 100.396563)scale(0.1 -0.1)">
      <defs>
       <path id="DejaVuSans-70" d="M 1159 525 
L 1159 -1331 
L 581 -1331 
L 581 3500 
L 1159 3500 
L 1159 2969 
Q 1341 3281 1617 3432 
Q 1894 3584 2278 3584 
Q 2916 3584 3314 3078 
Q 3713 2572 3713 1747 
Q 3713 922 3314 415 
Q 2916 -91 2278 -91 
Q 1894 -91 1617 61 
Q 1341 213 1159 525 
z
M 3116 1747 
Q 3116 2381 2855 2742 
Q 2594 3103 2138 3103 
Q 1681 3103 1420 2742 
Q 1159 2381 1159 1747 
Q 1159 1113 1420 752 
Q 1681 391 2138 391 
Q 2594 391 2855 752 
Q 3116 1113 3116 1747 
z
" transform="scale(0.015625)"/>
       <path id="DejaVuSans-64" d="M 2906 2969 
L 2906 4863 
L 3481 4863 
L 3481 0 
L 2906 0 
L 2906 525 
Q 2725 213 2448 61 
Q 2172 -91 1784 -91 
Q 1150 -91 751 415 
Q 353 922 353 1747 
Q 353 2572 751 3078 
Q 1150 3584 1784 3584 
Q 2172 3584 2448 3432 
Q 2725 3281 2906 2969 
z
M 947 1747 
Q 947 1113 1208 752 
Q 1469 391 1925 391 
Q 2381 391 2643 752 
Q 2906 1113 2906 1747 
Q 2906 2381 2643 2742 
Q 2381 3103 1925 3103 
Q 1469 3103 1208 2742 
Q 947 2381 947 1747 
z
" transform="scale(0.015625)"/>
       <path id="DejaVuSans-5f" d="M 3263 -1063 
L 3263 -1509 
L -63 -1509 
L -63 -1063 
L 3263 -1063 
z
" transform="scale(0.015625)"/>
       <path id="DejaVuSans-41" d="M 2188 4044 
L 1331 1722 
L 3047 1722 
L 2188 4044 
z
M 1831 4666 
L 2547 4666 
L 4325 0 
L 3669 0 
L 3244 1197 
L 1141 1197 
L 716 0 
L 50 0 
L 1831 4666 
z
" transform="scale(0.015625)"/>
       <path id="DejaVuSans-62" d="M 3116 1747 
Q 3116 2381 2855 2742 
Q 2594 3103 2138 3103 
Q 1681 3103 1420 2742 
Q 1159 2381 1159 1747 
Q 1159 1113 1420 752 
Q 1681 391 2138 391 
Q 2594 391 2855 752 
Q 3116 1113 3116 1747 
z
M 1159 2969 
Q 1341 3281 1617 3432 
Q 1894 3584 2278 3584 
Q 2916 3584 3314 3078 
Q 3713 2572 3713 1747 
Q 3713 922 3314 415 
Q 2916 -91 2278 -91 
Q 1894 -91 1617 61 
Q 1341 213 1159 525 
L 1159 0 
L 581 0 
L 581 4863 
L 1159 4863 
L 1159 2969 
z
" transform="scale(0.015625)"/>
      </defs>
      <use xlink:href="#DejaVuSans-43"/>
      <use xlink:href="#DejaVuSans-6f" x="69.824219"/>
      <use xlink:href="#DejaVuSans-6d" x="131.005859"/>
      <use xlink:href="#DejaVuSans-70" x="228.417969"/>
      <use xlink:href="#DejaVuSans-6c" x="291.894531"/>
      <use xlink:href="#DejaVuSans-65" x="319.677734"/>
      <use xlink:href="#DejaVuSans-74" x="381.201172"/>
      <use xlink:href="#DejaVuSans-65" x="420.410156"/>
      <use xlink:href="#DejaVuSans-64" x="481.933594"/>
      <use xlink:href="#DejaVuSans-5f" x="545.410156"/>
      <use xlink:href="#DejaVuSans-41" x="595.410156"/>
      <use xlink:href="#DejaVuSans-62" x="663.818359"/>
      <use xlink:href="#DejaVuSans-73" x="727.294922"/>
     </g>
    </g>
    <g id="patch_11">
     <path d="M 640.1375 115.352813 
L 660.1375 115.352813 
L 660.1375 108.352813 
L 640.1375 108.352813 
z
" style="fill: #e1812c; stroke: #3f3f3f; stroke-width: 0.75; stroke-linejoin: miter"/>
    </g>
    <g id="text_17">
     <!-- Not_Completed_Abs -->
     <g transform="translate(668.1375 115.352813)scale(0.1 -0.1)">
      <use xlink:href="#DejaVuSans-4e"/>
      <use xlink:href="#DejaVuSans-6f" x="74.804688"/>
      <use xlink:href="#DejaVuSans-74" x="135.986328"/>
      <use xlink:href="#DejaVuSans-5f" x="175.195312"/>
      <use xlink:href="#DejaVuSans-43" x="225.195312"/>
      <use xlink:href="#DejaVuSans-6f" x="295.019531"/>
      <use xlink:href="#DejaVuSans-6d" x="356.201172"/>
      <use xlink:href="#DejaVuSans-70" x="453.613281"/>
      <use xlink:href="#DejaVuSans-6c" x="517.089844"/>
      <use xlink:href="#DejaVuSans-65" x="544.873047"/>
      <use xlink:href="#DejaVuSans-74" x="606.396484"/>
      <use xlink:href="#DejaVuSans-65" x="645.605469"/>
      <use xlink:href="#DejaVuSans-64" x="707.128906"/>
      <use xlink:href="#DejaVuSans-5f" x="770.605469"/>
      <use xlink:href="#DejaVuSans-41" x="820.605469"/>
      <use xlink:href="#DejaVuSans-62" x="889.013672"/>
      <use xlink:href="#DejaVuSans-73" x="952.490234"/>
     </g>
    </g>
   </g>
  </g>
 </g>
 <defs>
  <clipPath id="peaa6417665">
   <rect x="108" y="69.12" width="669.6" height="434.88"/>
  </clipPath>
 </defs>
</svg>
