<?xml version="1.0" encoding="utf-8" standalone="no"?>
<!DOCTYPE svg PUBLIC "-//W3C//DTD SVG 1.1//EN"
  "http://www.w3.org/Graphics/SVG/1.1/DTD/svg11.dtd">
<svg xmlns:xlink="http://www.w3.org/1999/xlink" width="864pt" height="576pt" viewBox="0 0 864 576" xmlns="http://www.w3.org/2000/svg" version="1.1">
 <metadata>
  <rdf:RDF xmlns:dc="http://purl.org/dc/elements/1.1/" xmlns:cc="http://creativecommons.org/ns#" xmlns:rdf="http://www.w3.org/1999/02/22-rdf-syntax-ns#">
   <cc:Work>
    <dc:type rdf:resource="http://purl.org/dc/dcmitype/StillImage"/>
    <dc:date>2022-01-20T11:42:21.675054</dc:date>
    <dc:format>image/svg+xml</dc:format>
    <dc:creator>
     <cc:Agent>
      <dc:title>Matplotlib v3.5.0, https://matplotlib.org/</dc:title>
     </cc:Agent>
    </dc:creator>
   </cc:Work>
  </rdf:RDF>
 </metadata>
 <defs>
  <style type="text/css">*{stroke-linejoin: round; stroke-linecap: butt}</style>
 </defs>
 <g id="figure_1">
  <g id="patch_1">
   <path d="M 0 576 
L 864 576 
L 864 0 
L 0 0 
L 0 576 
z
" style="fill: none"/>
  </g>
  <g id="axes_1">
   <g id="patch_2">
    <path d="M 108 504 
L 777.6 504 
L 777.6 69.12 
L 108 69.12 
z
" style="fill: #ffffff"/>
   </g>
   <g id="patch_3">
    <path d="M 163.8 437.046405 
L 163.8 437.046405 
L 163.8 437.046405 
L 163.8 437.046405 
z
" clip-path="url(#pb847434b49)" style="fill: #3274a1; stroke: #3f3f3f; stroke-width: 0.75; stroke-linejoin: miter"/>
   </g>
   <g id="PolyCollection_1">
    <defs>
     <path id="m16c6956208" d="M 163.8 -126.59423 
L 158.154144 -126.59423 
L 156.602449 -127.366197 
L 154.765024 -128.138164 
L 152.632164 -128.910131 
L 150.206686 -129.682097 
L 147.506534 -130.454064 
L 144.566686 -131.226031 
L 141.439988 -131.997998 
L 138.196659 -132.769965 
L 134.922273 -133.541931 
L 131.714201 -134.313898 
L 128.676652 -135.085865 
L 125.914648 -135.857832 
L 123.527409 -136.629798 
L 121.601745 -137.401765 
L 120.206092 -138.173732 
L 119.385774 -138.945699 
L 119.16 -139.717666 
L 119.520873 -140.489632 
L 120.434507 -141.261599 
L 121.844096 -142.033566 
L 123.674596 -142.805533 
L 125.838488 -143.577499 
L 128.242048 -144.349466 
L 130.791513 -145.121433 
L 133.39861 -145.8934 
L 135.985033 -146.665367 
L 138.485631 -147.437333 
L 140.850187 -148.2093 
L 143.043881 -148.981267 
L 145.046601 -149.753234 
L 146.851358 -150.525201 
L 148.462097 -151.297167 
L 149.891182 -152.069134 
L 151.156815 -152.841101 
L 152.280575 -153.613068 
L 153.285229 -154.385034 
L 154.192915 -155.157001 
L 155.023734 -155.928968 
L 155.794765 -156.700935 
L 156.519498 -157.472902 
L 157.207636 -158.244868 
L 157.86523 -159.016835 
L 158.495067 -159.788802 
L 159.097263 -160.560769 
L 159.669958 -161.332735 
L 160.210068 -162.104702 
L 160.714 -162.876669 
L 161.17829 -163.648636 
L 161.600106 -164.420603 
L 161.9776 -165.192569 
L 162.310104 -165.964536 
L 162.598164 -166.736503 
L 162.84345 -167.50847 
L 163.048569 -168.280437 
L 163.216811 -169.052403 
L 163.351867 -169.82437 
L 163.457549 -170.596337 
L 163.537536 -171.368304 
L 163.595159 -172.14027 
L 163.633242 -172.912237 
L 163.653998 -173.684204 
L 163.658975 -174.456171 
L 163.649064 -175.228138 
L 163.62455 -176.000104 
L 163.58521 -176.772071 
L 163.530452 -177.544038 
L 163.459489 -178.316005 
L 163.37154 -179.087971 
L 163.266052 -179.859938 
L 163.142924 -180.631905 
L 163.002723 -181.403872 
L 162.846869 -182.175839 
L 162.67777 -182.947805 
L 162.498887 -183.719772 
L 162.314708 -184.491739 
L 162.130635 -185.263706 
L 161.952758 -186.035672 
L 161.787555 -186.807639 
L 161.641513 -187.579606 
L 161.520713 -188.351573 
L 161.430416 -189.12354 
L 161.374685 -189.895506 
L 161.356078 -190.667473 
L 161.37546 -191.43944 
L 161.431932 -192.211407 
L 161.522901 -192.983374 
L 161.644279 -193.75534 
L 161.790788 -194.527307 
L 161.956335 -195.299274 
L 162.134437 -196.071241 
L 162.318633 -196.843207 
L 162.502858 -197.615174 
L 162.681761 -198.387141 
L 162.850915 -199.159108 
L 163.006954 -199.931075 
L 163.1476 -200.703041 
L 163.271612 -201.475008 
L 163.378678 -202.246975 
L 163.469251 -203.018942 
L 163.8 -203.018942 
L 163.8 -203.018942 
L 163.8 -202.246975 
L 163.8 -201.475008 
L 163.8 -200.703041 
L 163.8 -199.931075 
L 163.8 -199.159108 
L 163.8 -198.387141 
L 163.8 -197.615174 
L 163.8 -196.843207 
L 163.8 -196.071241 
L 163.8 -195.299274 
L 163.8 -194.527307 
L 163.8 -193.75534 
L 163.8 -192.983374 
L 163.8 -192.211407 
L 163.8 -191.43944 
L 163.8 -190.667473 
L 163.8 -189.895506 
L 163.8 -189.12354 
L 163.8 -188.351573 
L 163.8 -187.579606 
L 163.8 -186.807639 
L 163.8 -186.035672 
L 163.8 -185.263706 
L 163.8 -184.491739 
L 163.8 -183.719772 
L 163.8 -182.947805 
L 163.8 -182.175839 
L 163.8 -181.403872 
L 163.8 -180.631905 
L 163.8 -179.859938 
L 163.8 -179.087971 
L 163.8 -178.316005 
L 163.8 -177.544038 
L 163.8 -176.772071 
L 163.8 -176.000104 
L 163.8 -175.228138 
L 163.8 -174.456171 
L 163.8 -173.684204 
L 163.8 -172.912237 
L 163.8 -172.14027 
L 163.8 -171.368304 
L 163.8 -170.596337 
L 163.8 -169.82437 
L 163.8 -169.052403 
L 163.8 -168.280437 
L 163.8 -167.50847 
L 163.8 -166.736503 
L 163.8 -165.964536 
L 163.8 -165.192569 
L 163.8 -164.420603 
L 163.8 -163.648636 
L 163.8 -162.876669 
L 163.8 -162.104702 
L 163.8 -161.332735 
L 163.8 -160.560769 
L 163.8 -159.788802 
L 163.8 -159.016835 
L 163.8 -158.244868 
L 163.8 -157.472902 
L 163.8 -156.700935 
L 163.8 -155.928968 
L 163.8 -155.157001 
L 163.8 -154.385034 
L 163.8 -153.613068 
L 163.8 -152.841101 
L 163.8 -152.069134 
L 163.8 -151.297167 
L 163.8 -150.525201 
L 163.8 -149.753234 
L 163.8 -148.981267 
L 163.8 -148.2093 
L 163.8 -147.437333 
L 163.8 -146.665367 
L 163.8 -145.8934 
L 163.8 -145.121433 
L 163.8 -144.349466 
L 163.8 -143.577499 
L 163.8 -142.805533 
L 163.8 -142.033566 
L 163.8 -141.261599 
L 163.8 -140.489632 
L 163.8 -139.717666 
L 163.8 -138.945699 
L 163.8 -138.173732 
L 163.8 -137.401765 
L 163.8 -136.629798 
L 163.8 -135.857832 
L 163.8 -135.085865 
L 163.8 -134.313898 
L 163.8 -133.541931 
L 163.8 -132.769965 
L 163.8 -131.997998 
L 163.8 -131.226031 
L 163.8 -130.454064 
L 163.8 -129.682097 
L 163.8 -128.910131 
L 163.8 -128.138164 
L 163.8 -127.366197 
L 163.8 -126.59423 
z
" style="stroke: #3f3f3f; stroke-width: 1.5"/>
    </defs>
    <g clip-path="url(#pb847434b49)">
     <use xlink:href="#m16c6956208" x="0" y="576" style="fill: #3274a1; stroke: #3f3f3f; stroke-width: 1.5"/>
    </g>
   </g>
   <g id="patch_4">
    <path d="M 163.8 437.046405 
L 163.8 437.046405 
L 163.8 437.046405 
L 163.8 437.046405 
z
" clip-path="url(#pb847434b49)" style="fill: #e1812c; stroke: #3f3f3f; stroke-width: 0.75; stroke-linejoin: miter"/>
   </g>
   <g id="PolyCollection_2">
    <defs>
     <path id="m04c811d7f6" d="M 164.153754 -115.457024 
L 163.8 -115.457024 
L 163.8 -119.152445 
L 163.8 -122.847866 
L 163.8 -126.543287 
L 163.8 -130.238708 
L 163.8 -133.93413 
L 163.8 -137.629551 
L 163.8 -141.324972 
L 163.8 -145.020393 
L 163.8 -148.715815 
L 163.8 -152.411236 
L 163.8 -156.106657 
L 163.8 -159.802078 
L 163.8 -163.4975 
L 163.8 -167.192921 
L 163.8 -170.888342 
L 163.8 -174.583763 
L 163.8 -178.279185 
L 163.8 -181.974606 
L 163.8 -185.670027 
L 163.8 -189.365448 
L 163.8 -193.060869 
L 163.8 -196.756291 
L 163.8 -200.451712 
L 163.8 -204.147133 
L 163.8 -207.842554 
L 163.8 -211.537976 
L 163.8 -215.233397 
L 163.8 -218.928818 
L 163.8 -222.624239 
L 163.8 -226.319661 
L 163.8 -230.015082 
L 163.8 -233.710503 
L 163.8 -237.405924 
L 163.8 -241.101345 
L 163.8 -244.796767 
L 163.8 -248.492188 
L 163.8 -252.187609 
L 163.8 -255.88303 
L 163.8 -259.578452 
L 163.8 -263.273873 
L 163.8 -266.969294 
L 163.8 -270.664715 
L 163.8 -274.360137 
L 163.8 -278.055558 
L 163.8 -281.750979 
L 163.8 -285.4464 
L 163.8 -289.141822 
L 163.8 -292.837243 
L 163.8 -296.532664 
L 163.8 -300.228085 
L 163.8 -303.923506 
L 163.8 -307.618928 
L 163.8 -311.314349 
L 163.8 -315.00977 
L 163.8 -318.705191 
L 163.8 -322.400613 
L 163.8 -326.096034 
L 163.8 -329.791455 
L 163.8 -333.486876 
L 163.8 -337.182298 
L 163.8 -340.877719 
L 163.8 -344.57314 
L 163.8 -348.268561 
L 163.8 -351.963983 
L 163.8 -355.659404 
L 163.8 -359.354825 
L 163.8 -363.050246 
L 163.8 -366.745667 
L 163.8 -370.441089 
L 163.8 -374.13651 
L 163.8 -377.831931 
L 163.8 -381.527352 
L 163.8 -385.222774 
L 163.8 -388.918195 
L 163.8 -392.613616 
L 163.8 -396.309037 
L 163.8 -400.004459 
L 163.8 -403.69988 
L 163.8 -407.395301 
L 163.8 -411.090722 
L 163.8 -414.786144 
L 163.8 -418.481565 
L 163.8 -422.176986 
L 163.8 -425.872407 
L 163.8 -429.567828 
L 163.8 -433.26325 
L 163.8 -436.958671 
L 163.8 -440.654092 
L 163.8 -444.349513 
L 163.8 -448.044935 
L 163.8 -451.740356 
L 163.8 -455.435777 
L 163.8 -459.131198 
L 163.8 -462.82662 
L 163.8 -466.522041 
L 163.8 -470.217462 
L 163.8 -473.912883 
L 163.8 -477.608304 
L 163.8 -481.303726 
L 163.862223 -481.303726 
L 163.862223 -481.303726 
L 163.877408 -477.608304 
L 163.895165 -473.912883 
L 163.915628 -470.217462 
L 163.938863 -466.522041 
L 163.964857 -462.82662 
L 163.993502 -459.131198 
L 164.024593 -455.435777 
L 164.057829 -451.740356 
L 164.092816 -448.044935 
L 164.129086 -444.349513 
L 164.166116 -440.654092 
L 164.203358 -436.958671 
L 164.240269 -433.26325 
L 164.276349 -429.567828 
L 164.311171 -425.872407 
L 164.344416 -422.176986 
L 164.375893 -418.481565 
L 164.40556 -414.786144 
L 164.433529 -411.090722 
L 164.460062 -407.395301 
L 164.485563 -403.69988 
L 164.510552 -400.004459 
L 164.535639 -396.309037 
L 164.561494 -392.613616 
L 164.588812 -388.918195 
L 164.618275 -385.222774 
L 164.650529 -381.527352 
L 164.68615 -377.831931 
L 164.725622 -374.13651 
L 164.769319 -370.441089 
L 164.817494 -366.745667 
L 164.870271 -363.050246 
L 164.927639 -359.354825 
L 164.989461 -355.659404 
L 165.055484 -351.963983 
L 165.125353 -348.268561 
L 165.19864 -344.57314 
L 165.274874 -340.877719 
L 165.353583 -337.182298 
L 165.434344 -333.486876 
L 165.516826 -329.791455 
L 165.600846 -326.096034 
L 165.686412 -322.400613 
L 165.773762 -318.705191 
L 165.863383 -315.00977 
L 165.956018 -311.314349 
L 166.052646 -307.618928 
L 166.154437 -303.923506 
L 166.262688 -300.228085 
L 166.378734 -296.532664 
L 166.503848 -292.837243 
L 166.639124 -289.141822 
L 166.785372 -285.4464 
L 166.943015 -281.750979 
L 167.112004 -278.055558 
L 167.291769 -274.360137 
L 167.48119 -270.664715 
L 167.678611 -266.969294 
L 167.881884 -263.273873 
L 168.088441 -259.578452 
L 168.295393 -255.88303 
L 168.49963 -252.187609 
L 168.69794 -248.492188 
L 168.8871 -244.796767 
L 169.063969 -241.101345 
L 169.225549 -237.405924 
L 169.369029 -233.710503 
L 169.491802 -230.015082 
L 169.591478 -226.319661 
L 169.665876 -222.624239 
L 169.71303 -218.928818 
L 169.731198 -215.233397 
L 169.718888 -211.537976 
L 169.674908 -207.842554 
L 169.598432 -204.147133 
L 169.489083 -200.451712 
L 169.347021 -196.756291 
L 169.173028 -193.060869 
L 168.968579 -189.365448 
L 168.735879 -185.670027 
L 168.477866 -181.974606 
L 168.198175 -178.279185 
L 167.901044 -174.583763 
L 167.591192 -170.888342 
L 167.273647 -167.192921 
L 166.953565 -163.4975 
L 166.636026 -159.802078 
L 166.325837 -156.106657 
L 166.027362 -152.411236 
L 165.744367 -148.715815 
L 165.479914 -145.020393 
L 165.236298 -141.324972 
L 165.015024 -137.629551 
L 164.81683 -133.93413 
L 164.641746 -130.238708 
L 164.489182 -126.543287 
L 164.358039 -122.847866 
L 164.24682 -119.152445 
L 164.153754 -115.457024 
z
" style="stroke: #3f3f3f; stroke-width: 1.5"/>
    </defs>
    <g clip-path="url(#pb847434b49)">
     <use xlink:href="#m04c811d7f6" x="0" y="576" style="fill: #e1812c; stroke: #3f3f3f; stroke-width: 1.5"/>
    </g>
   </g>
   <g id="PolyCollection_3">
    <defs>
     <path id="m46612b0514" d="M 275.4 -125.806234 
L 269.643131 -125.806234 
L 268.311453 -126.507073 
L 266.769671 -127.207912 
L 265.010324 -127.908751 
L 263.032343 -128.609589 
L 260.84237 -129.310428 
L 258.455844 -130.011267 
L 255.897753 -130.712106 
L 253.202928 -131.412945 
L 250.415792 -132.113783 
L 247.589501 -132.814622 
L 244.784456 -133.515461 
L 242.06623 -134.2163 
L 239.502981 -134.917139 
L 237.162495 -135.617977 
L 235.109039 -136.318816 
L 233.400217 -137.019655 
L 232.084073 -137.720494 
L 231.196619 -138.421332 
L 230.76 -139.122171 
L 230.781412 -139.82301 
L 231.252864 -140.523849 
L 232.151787 -141.224688 
L 233.442439 -141.925526 
L 235.077988 -142.626365 
L 237.003109 -143.327204 
L 239.156891 -144.028043 
L 241.47585 -144.728881 
L 243.896846 -145.42972 
L 246.359709 -146.130559 
L 248.809452 -146.831398 
L 251.197958 -147.532237 
L 253.485101 -148.233075 
L 255.639304 -148.933914 
L 257.63758 -149.634753 
L 259.465114 -150.335592 
L 261.114513 -151.036431 
L 262.5848 -151.737269 
L 263.880273 -152.438108 
L 265.009325 -153.138947 
L 265.983295 -153.839786 
L 266.815426 -154.540624 
L 267.519954 -155.241463 
L 268.111367 -155.942302 
L 268.60382 -156.643141 
L 269.01072 -157.34398 
L 269.344451 -158.044818 
L 269.616212 -158.745657 
L 269.83596 -159.446496 
L 270.012419 -160.147335 
L 270.153138 -160.848173 
L 270.26458 -161.549012 
L 270.352227 -162.249851 
L 270.420693 -162.95069 
L 270.473827 -163.651529 
L 270.514824 -164.352367 
L 270.546318 -165.053206 
L 270.570471 -165.754045 
L 270.589056 -166.454884 
L 270.603535 -167.155723 
L 270.615126 -167.856561 
L 270.624868 -168.5574 
L 270.633675 -169.258239 
L 270.642395 -169.959078 
L 270.651843 -170.659916 
L 270.662847 -171.360755 
L 270.676271 -172.061594 
L 270.693043 -172.762433 
L 270.714165 -173.463272 
L 270.740724 -174.16411 
L 270.773886 -174.864949 
L 270.814891 -175.565788 
L 270.865025 -176.266627 
L 270.925592 -176.967465 
L 270.997864 -177.668304 
L 271.08303 -178.369143 
L 271.182126 -179.069982 
L 271.295964 -179.770821 
L 271.425059 -180.471659 
L 271.569559 -181.172498 
L 271.729189 -181.873337 
L 271.90321 -182.574176 
L 272.090399 -183.275015 
L 272.289064 -183.975853 
L 272.497076 -184.676692 
L 272.711942 -185.377531 
L 272.930892 -186.07837 
L 273.150989 -186.779208 
L 273.369253 -187.480047 
L 273.58278 -188.180886 
L 273.788865 -188.881725 
L 273.9851 -189.582564 
L 274.169461 -190.283402 
L 274.340363 -190.984241 
L 274.496692 -191.68508 
L 274.637806 -192.385919 
L 274.763519 -193.086758 
L 274.87405 -193.787596 
L 274.969973 -194.488435 
L 275.052145 -195.189274 
L 275.4 -195.189274 
L 275.4 -195.189274 
L 275.4 -194.488435 
L 275.4 -193.787596 
L 275.4 -193.086758 
L 275.4 -192.385919 
L 275.4 -191.68508 
L 275.4 -190.984241 
L 275.4 -190.283402 
L 275.4 -189.582564 
L 275.4 -188.881725 
L 275.4 -188.180886 
L 275.4 -187.480047 
L 275.4 -186.779208 
L 275.4 -186.07837 
L 275.4 -185.377531 
L 275.4 -184.676692 
L 275.4 -183.975853 
L 275.4 -183.275015 
L 275.4 -182.574176 
L 275.4 -181.873337 
L 275.4 -181.172498 
L 275.4 -180.471659 
L 275.4 -179.770821 
L 275.4 -179.069982 
L 275.4 -178.369143 
L 275.4 -177.668304 
L 275.4 -176.967465 
L 275.4 -176.266627 
L 275.4 -175.565788 
L 275.4 -174.864949 
L 275.4 -174.16411 
L 275.4 -173.463272 
L 275.4 -172.762433 
L 275.4 -172.061594 
L 275.4 -171.360755 
L 275.4 -170.659916 
L 275.4 -169.959078 
L 275.4 -169.258239 
L 275.4 -168.5574 
L 275.4 -167.856561 
L 275.4 -167.155723 
L 275.4 -166.454884 
L 275.4 -165.754045 
L 275.4 -165.053206 
L 275.4 -164.352367 
L 275.4 -163.651529 
L 275.4 -162.95069 
L 275.4 -162.249851 
L 275.4 -161.549012 
L 275.4 -160.848173 
L 275.4 -160.147335 
L 275.4 -159.446496 
L 275.4 -158.745657 
L 275.4 -158.044818 
L 275.4 -157.34398 
L 275.4 -156.643141 
L 275.4 -155.942302 
L 275.4 -155.241463 
L 275.4 -154.540624 
L 275.4 -153.839786 
L 275.4 -153.138947 
L 275.4 -152.438108 
L 275.4 -151.737269 
L 275.4 -151.036431 
L 275.4 -150.335592 
L 275.4 -149.634753 
L 275.4 -148.933914 
L 275.4 -148.233075 
L 275.4 -147.532237 
L 275.4 -146.831398 
L 275.4 -146.130559 
L 275.4 -145.42972 
L 275.4 -144.728881 
L 275.4 -144.028043 
L 275.4 -143.327204 
L 275.4 -142.626365 
L 275.4 -141.925526 
L 275.4 -141.224688 
L 275.4 -140.523849 
L 275.4 -139.82301 
L 275.4 -139.122171 
L 275.4 -138.421332 
L 275.4 -137.720494 
L 275.4 -137.019655 
L 275.4 -136.318816 
L 275.4 -135.617977 
L 275.4 -134.917139 
L 275.4 -134.2163 
L 275.4 -133.515461 
L 275.4 -132.814622 
L 275.4 -132.113783 
L 275.4 -131.412945 
L 275.4 -130.712106 
L 275.4 -130.011267 
L 275.4 -129.310428 
L 275.4 -128.609589 
L 275.4 -127.908751 
L 275.4 -127.207912 
L 275.4 -126.507073 
L 275.4 -125.806234 
z
" style="stroke: #3f3f3f; stroke-width: 1.5"/>
    </defs>
    <g clip-path="url(#pb847434b49)">
     <use xlink:href="#m46612b0514" x="0" y="576" style="fill: #3274a1; stroke: #3f3f3f; stroke-width: 1.5"/>
    </g>
   </g>
   <g id="PolyCollection_4">
    <defs>
     <path id="m553238603f" d="M 275.573137 -91.949527 
L 275.4 -91.949527 
L 275.4 -95.423471 
L 275.4 -98.897414 
L 275.4 -102.371357 
L 275.4 -105.8453 
L 275.4 -109.319244 
L 275.4 -112.793187 
L 275.4 -116.26713 
L 275.4 -119.741073 
L 275.4 -123.215017 
L 275.4 -126.68896 
L 275.4 -130.162903 
L 275.4 -133.636847 
L 275.4 -137.11079 
L 275.4 -140.584733 
L 275.4 -144.058676 
L 275.4 -147.53262 
L 275.4 -151.006563 
L 275.4 -154.480506 
L 275.4 -157.95445 
L 275.4 -161.428393 
L 275.4 -164.902336 
L 275.4 -168.376279 
L 275.4 -171.850223 
L 275.4 -175.324166 
L 275.4 -178.798109 
L 275.4 -182.272052 
L 275.4 -185.745996 
L 275.4 -189.219939 
L 275.4 -192.693882 
L 275.4 -196.167826 
L 275.4 -199.641769 
L 275.4 -203.115712 
L 275.4 -206.589655 
L 275.4 -210.063599 
L 275.4 -213.537542 
L 275.4 -217.011485 
L 275.4 -220.485429 
L 275.4 -223.959372 
L 275.4 -227.433315 
L 275.4 -230.907258 
L 275.4 -234.381202 
L 275.4 -237.855145 
L 275.4 -241.329088 
L 275.4 -244.803031 
L 275.4 -248.276975 
L 275.4 -251.750918 
L 275.4 -255.224861 
L 275.4 -258.698805 
L 275.4 -262.172748 
L 275.4 -265.646691 
L 275.4 -269.120634 
L 275.4 -272.594578 
L 275.4 -276.068521 
L 275.4 -279.542464 
L 275.4 -283.016408 
L 275.4 -286.490351 
L 275.4 -289.964294 
L 275.4 -293.438237 
L 275.4 -296.912181 
L 275.4 -300.386124 
L 275.4 -303.860067 
L 275.4 -307.33401 
L 275.4 -310.807954 
L 275.4 -314.281897 
L 275.4 -317.75584 
L 275.4 -321.229784 
L 275.4 -324.703727 
L 275.4 -328.17767 
L 275.4 -331.651613 
L 275.4 -335.125557 
L 275.4 -338.5995 
L 275.4 -342.073443 
L 275.4 -345.547386 
L 275.4 -349.02133 
L 275.4 -352.495273 
L 275.4 -355.969216 
L 275.4 -359.44316 
L 275.4 -362.917103 
L 275.4 -366.391046 
L 275.4 -369.864989 
L 275.4 -373.338933 
L 275.4 -376.812876 
L 275.4 -380.286819 
L 275.4 -383.760763 
L 275.4 -387.234706 
L 275.4 -390.708649 
L 275.4 -394.182592 
L 275.4 -397.656536 
L 275.4 -401.130479 
L 275.4 -404.604422 
L 275.4 -408.078365 
L 275.4 -411.552309 
L 275.4 -415.026252 
L 275.4 -418.500195 
L 275.4 -421.974139 
L 275.4 -425.448082 
L 275.4 -428.922025 
L 275.4 -432.395968 
L 275.4 -435.869912 
L 275.481086 -435.869912 
L 275.481086 -435.869912 
L 275.501613 -432.395968 
L 275.526035 -428.922025 
L 275.554751 -425.448082 
L 275.588118 -421.974139 
L 275.626438 -418.500195 
L 275.669936 -415.026252 
L 275.718743 -411.552309 
L 275.77288 -408.078365 
L 275.832247 -404.604422 
L 275.896617 -401.130479 
L 275.965633 -397.656536 
L 276.038814 -394.182592 
L 276.115566 -390.708649 
L 276.195196 -387.234706 
L 276.276935 -383.760763 
L 276.35996 -380.286819 
L 276.443422 -376.812876 
L 276.526473 -373.338933 
L 276.608292 -369.864989 
L 276.688105 -366.391046 
L 276.765213 -362.917103 
L 276.839 -359.44316 
L 276.90895 -355.969216 
L 276.974656 -352.495273 
L 277.035819 -349.02133 
L 277.092255 -345.547386 
L 277.143897 -342.073443 
L 277.190791 -338.5995 
L 277.233104 -335.125557 
L 277.271127 -331.651613 
L 277.305286 -328.17767 
L 277.33615 -324.703727 
L 277.36445 -321.229784 
L 277.39109 -317.75584 
L 277.417162 -314.281897 
L 277.443954 -310.807954 
L 277.472953 -307.33401 
L 277.50583 -303.860067 
L 277.544421 -300.386124 
L 277.590686 -296.912181 
L 277.646649 -293.438237 
L 277.714331 -289.964294 
L 277.795662 -286.490351 
L 277.892381 -283.016408 
L 278.005942 -279.542464 
L 278.137414 -276.068521 
L 278.287392 -272.594578 
L 278.455923 -269.120634 
L 278.642463 -265.646691 
L 278.845846 -262.172748 
L 279.0643 -258.698805 
L 279.295484 -255.224861 
L 279.536551 -251.750918 
L 279.784247 -248.276975 
L 280.035014 -244.803031 
L 280.285111 -241.329088 
L 280.530731 -237.855145 
L 280.768112 -234.381202 
L 280.993632 -230.907258 
L 281.203882 -227.433315 
L 281.395715 -223.959372 
L 281.566276 -220.485429 
L 281.713007 -217.011485 
L 281.833637 -213.537542 
L 281.926171 -210.063599 
L 281.988869 -206.589655 
L 282.020244 -203.115712 
L 282.019065 -199.641769 
L 281.984383 -196.167826 
L 281.915576 -192.693882 
L 281.812405 -189.219939 
L 281.675087 -185.745996 
L 281.50436 -182.272052 
L 281.301553 -178.798109 
L 281.068624 -175.324166 
L 280.808185 -171.850223 
L 280.523485 -168.376279 
L 280.218356 -164.902336 
L 279.897125 -161.428393 
L 279.564494 -157.95445 
L 279.225386 -154.480506 
L 278.884782 -151.006563 
L 278.547546 -147.53262 
L 278.21826 -144.058676 
L 277.901072 -140.584733 
L 277.599575 -137.11079 
L 277.316711 -133.636847 
L 277.05472 -130.162903 
L 276.815118 -126.68896 
L 276.598719 -123.215017 
L 276.405679 -119.741073 
L 276.235573 -116.26713 
L 276.087483 -112.793187 
L 275.960099 -109.319244 
L 275.851823 -105.8453 
L 275.760871 -102.371357 
L 275.685361 -98.897414 
L 275.623399 -95.423471 
L 275.573137 -91.949527 
z
" style="stroke: #3f3f3f; stroke-width: 1.5"/>
    </defs>
    <g clip-path="url(#pb847434b49)">
     <use xlink:href="#m553238603f" x="0" y="576" style="fill: #e1812c; stroke: #3f3f3f; stroke-width: 1.5"/>
    </g>
   </g>
   <g id="PolyCollection_5">
    <defs>
     <path id="m0397d0a258" d="M 387 -124.954768 
L 381.296365 -124.954768 
L 379.86325 -125.759855 
L 378.186424 -126.564942 
L 376.257279 -127.370029 
L 374.076034 -128.175117 
L 371.653582 -128.980204 
L 369.012949 -129.785291 
L 366.190162 -130.590378 
L 363.234357 -131.395466 
L 360.206972 -132.200553 
L 357.179984 -133.00564 
L 354.233184 -133.810727 
L 351.45062 -134.615814 
L 348.916404 -135.420902 
L 346.710176 -136.225989 
L 344.902557 -137.031076 
L 343.550981 -137.836163 
L 342.69623 -138.641251 
L 342.36 -139.446338 
L 342.543693 -140.251425 
L 343.228549 -141.056512 
L 344.377097 -141.8616 
L 345.935792 -142.666687 
L 347.838584 -143.471774 
L 350.011123 -144.276861 
L 352.375226 -145.081949 
L 354.853256 -145.887036 
L 357.372091 -146.692123 
L 359.866406 -147.49721 
L 362.281108 -148.302298 
L 364.572816 -149.107385 
L 366.7104 -149.912472 
L 368.674651 -150.717559 
L 370.457223 -151.522647 
L 372.059031 -152.327734 
L 373.488306 -153.132821 
L 374.758497 -153.937908 
L 375.886201 -154.742995 
L 376.889283 -155.548083 
L 377.785279 -156.35317 
L 378.590164 -157.158257 
L 379.317519 -157.963344 
L 379.978085 -158.768432 
L 380.579676 -159.573519 
L 381.127401 -160.378606 
L 381.624109 -161.183693 
L 382.070992 -161.988781 
L 382.468263 -162.793868 
L 382.815826 -163.598955 
L 383.113882 -164.404042 
L 383.363422 -165.20913 
L 383.566558 -166.014217 
L 383.726688 -166.819304 
L 383.848487 -167.624391 
L 383.937736 -168.429479 
L 384.001027 -169.234566 
L 384.045361 -170.039653 
L 384.077708 -170.84474 
L 384.104548 -171.649828 
L 384.131455 -172.454915 
L 384.162757 -173.260002 
L 384.201295 -174.065089 
L 384.248315 -174.870176 
L 384.303487 -175.675264 
L 384.365056 -176.480351 
L 384.430107 -177.285438 
L 384.494924 -178.090525 
L 384.555402 -178.895613 
L 384.607485 -179.7007 
L 384.647593 -180.505787 
L 384.672995 -181.310874 
L 384.682107 -182.115962 
L 384.674683 -182.921049 
L 384.651893 -183.726136 
L 384.616277 -184.531223 
L 384.571586 -185.336311 
L 384.522522 -186.141398 
L 384.474399 -186.946485 
L 384.432764 -187.751572 
L 384.402995 -188.55666 
L 384.38992 -189.361747 
L 384.39749 -190.166834 
L 384.428522 -190.971921 
L 384.484531 -191.777009 
L 384.565668 -192.582096 
L 384.670762 -193.387183 
L 384.797446 -194.19227 
L 384.942365 -194.997357 
L 385.101439 -195.802445 
L 385.270154 -196.607532 
L 385.443851 -197.412619 
L 385.618011 -198.217706 
L 385.788481 -199.022794 
L 385.951668 -199.827881 
L 386.104659 -200.632968 
L 386.245285 -201.438055 
L 386.37213 -202.243143 
L 386.484487 -203.04823 
L 386.58228 -203.853317 
L 386.665958 -204.658404 
L 387 -204.658404 
L 387 -204.658404 
L 387 -203.853317 
L 387 -203.04823 
L 387 -202.243143 
L 387 -201.438055 
L 387 -200.632968 
L 387 -199.827881 
L 387 -199.022794 
L 387 -198.217706 
L 387 -197.412619 
L 387 -196.607532 
L 387 -195.802445 
L 387 -194.997357 
L 387 -194.19227 
L 387 -193.387183 
L 387 -192.582096 
L 387 -191.777009 
L 387 -190.971921 
L 387 -190.166834 
L 387 -189.361747 
L 387 -188.55666 
L 387 -187.751572 
L 387 -186.946485 
L 387 -186.141398 
L 387 -185.336311 
L 387 -184.531223 
L 387 -183.726136 
L 387 -182.921049 
L 387 -182.115962 
L 387 -181.310874 
L 387 -180.505787 
L 387 -179.7007 
L 387 -178.895613 
L 387 -178.090525 
L 387 -177.285438 
L 387 -176.480351 
L 387 -175.675264 
L 387 -174.870176 
L 387 -174.065089 
L 387 -173.260002 
L 387 -172.454915 
L 387 -171.649828 
L 387 -170.84474 
L 387 -170.039653 
L 387 -169.234566 
L 387 -168.429479 
L 387 -167.624391 
L 387 -166.819304 
L 387 -166.014217 
L 387 -165.20913 
L 387 -164.404042 
L 387 -163.598955 
L 387 -162.793868 
L 387 -161.988781 
L 387 -161.183693 
L 387 -160.378606 
L 387 -159.573519 
L 387 -158.768432 
L 387 -157.963344 
L 387 -157.158257 
L 387 -156.35317 
L 387 -155.548083 
L 387 -154.742995 
L 387 -153.937908 
L 387 -153.132821 
L 387 -152.327734 
L 387 -151.522647 
L 387 -150.717559 
L 387 -149.912472 
L 387 -149.107385 
L 387 -148.302298 
L 387 -147.49721 
L 387 -146.692123 
L 387 -145.887036 
L 387 -145.081949 
L 387 -144.276861 
L 387 -143.471774 
L 387 -142.666687 
L 387 -141.8616 
L 387 -141.056512 
L 387 -140.251425 
L 387 -139.446338 
L 387 -138.641251 
L 387 -137.836163 
L 387 -137.031076 
L 387 -136.225989 
L 387 -135.420902 
L 387 -134.615814 
L 387 -133.810727 
L 387 -133.00564 
L 387 -132.200553 
L 387 -131.395466 
L 387 -130.590378 
L 387 -129.785291 
L 387 -128.980204 
L 387 -128.175117 
L 387 -127.370029 
L 387 -126.564942 
L 387 -125.759855 
L 387 -124.954768 
z
" style="stroke: #3f3f3f; stroke-width: 1.5"/>
    </defs>
    <g clip-path="url(#pb847434b49)">
     <use xlink:href="#m0397d0a258" x="0" y="576" style="fill: #3274a1; stroke: #3f3f3f; stroke-width: 1.5"/>
    </g>
   </g>
   <g id="PolyCollection_6">
    <defs>
     <path id="m49c9a39acb" d="M 387.142131 -94.702461 
L 387 -94.702461 
L 387 -98.381931 
L 387 -102.061401 
L 387 -105.74087 
L 387 -109.42034 
L 387 -113.09981 
L 387 -116.77928 
L 387 -120.45875 
L 387 -124.138219 
L 387 -127.817689 
L 387 -131.497159 
L 387 -135.176629 
L 387 -138.856098 
L 387 -142.535568 
L 387 -146.215038 
L 387 -149.894508 
L 387 -153.573978 
L 387 -157.253447 
L 387 -160.932917 
L 387 -164.612387 
L 387 -168.291857 
L 387 -171.971326 
L 387 -175.650796 
L 387 -179.330266 
L 387 -183.009736 
L 387 -186.689206 
L 387 -190.368675 
L 387 -194.048145 
L 387 -197.727615 
L 387 -201.407085 
L 387 -205.086554 
L 387 -208.766024 
L 387 -212.445494 
L 387 -216.124964 
L 387 -219.804434 
L 387 -223.483903 
L 387 -227.163373 
L 387 -230.842843 
L 387 -234.522313 
L 387 -238.201782 
L 387 -241.881252 
L 387 -245.560722 
L 387 -249.240192 
L 387 -252.919662 
L 387 -256.599131 
L 387 -260.278601 
L 387 -263.958071 
L 387 -267.637541 
L 387 -271.31701 
L 387 -274.99648 
L 387 -278.67595 
L 387 -282.35542 
L 387 -286.03489 
L 387 -289.714359 
L 387 -293.393829 
L 387 -297.073299 
L 387 -300.752769 
L 387 -304.432239 
L 387 -308.111708 
L 387 -311.791178 
L 387 -315.470648 
L 387 -319.150118 
L 387 -322.829587 
L 387 -326.509057 
L 387 -330.188527 
L 387 -333.867997 
L 387 -337.547467 
L 387 -341.226936 
L 387 -344.906406 
L 387 -348.585876 
L 387 -352.265346 
L 387 -355.944815 
L 387 -359.624285 
L 387 -363.303755 
L 387 -366.983225 
L 387 -370.662695 
L 387 -374.342164 
L 387 -378.021634 
L 387 -381.701104 
L 387 -385.380574 
L 387 -389.060043 
L 387 -392.739513 
L 387 -396.418983 
L 387 -400.098453 
L 387 -403.777923 
L 387 -407.457392 
L 387 -411.136862 
L 387 -414.816332 
L 387 -418.495802 
L 387 -422.175271 
L 387 -425.854741 
L 387 -429.534211 
L 387 -433.213681 
L 387 -436.893151 
L 387 -440.57262 
L 387 -444.25209 
L 387 -447.93156 
L 387 -451.61103 
L 387 -455.290499 
L 387 -458.969969 
L 387.096884 -458.969969 
L 387.096884 -458.969969 
L 387.121547 -455.290499 
L 387.151035 -451.61103 
L 387.185907 -447.93156 
L 387.226695 -444.25209 
L 387.273882 -440.57262 
L 387.327874 -436.893151 
L 387.388976 -433.213681 
L 387.457365 -429.534211 
L 387.533065 -425.854741 
L 387.615927 -422.175271 
L 387.70561 -418.495802 
L 387.801569 -414.816332 
L 387.903051 -411.136862 
L 388.009097 -407.457392 
L 388.118548 -403.777923 
L 388.230065 -400.098453 
L 388.34215 -396.418983 
L 388.45318 -392.739513 
L 388.561443 -389.060043 
L 388.665182 -385.380574 
L 388.762645 -381.701104 
L 388.852139 -378.021634 
L 388.932087 -374.342164 
L 389.001087 -370.662695 
L 389.057974 -366.983225 
L 389.101875 -363.303755 
L 389.132271 -359.624285 
L 389.149045 -355.944815 
L 389.152521 -352.265346 
L 389.143499 -348.585876 
L 389.12327 -344.906406 
L 389.093613 -341.226936 
L 389.056781 -337.547467 
L 389.015456 -333.867997 
L 388.972694 -330.188527 
L 388.931842 -326.509057 
L 388.896445 -322.829587 
L 388.870133 -319.150118 
L 388.856496 -315.470648 
L 388.858966 -311.791178 
L 388.880684 -308.111708 
L 388.924387 -304.432239 
L 388.992297 -300.752769 
L 389.086038 -297.073299 
L 389.206564 -293.393829 
L 389.354123 -289.714359 
L 389.52824 -286.03489 
L 389.727726 -282.35542 
L 389.950719 -278.67595 
L 390.194739 -274.99648 
L 390.456767 -271.31701 
L 390.733325 -267.637541 
L 391.020577 -263.958071 
L 391.314422 -260.278601 
L 391.610577 -256.599131 
L 391.904668 -252.919662 
L 392.192296 -249.240192 
L 392.469099 -245.560722 
L 392.730804 -241.881252 
L 392.973269 -238.201782 
L 393.192528 -234.522313 
L 393.384829 -230.842843 
L 393.546682 -227.163373 
L 393.674916 -223.483903 
L 393.76674 -219.804434 
L 393.81982 -216.124964 
L 393.832358 -212.445494 
L 393.803174 -208.766024 
L 393.731784 -205.086554 
L 393.618465 -201.407085 
L 393.464304 -197.727615 
L 393.271216 -194.048145 
L 393.041931 -190.368675 
L 392.779948 -186.689206 
L 392.489457 -183.009736 
L 392.175214 -179.330266 
L 391.842405 -175.650796 
L 391.496482 -171.971326 
L 391.142981 -168.291857 
L 390.787354 -164.612387 
L 390.434793 -160.932917 
L 390.090087 -157.253447 
L 389.757489 -153.573978 
L 389.440627 -149.894508 
L 389.142439 -146.215038 
L 388.865146 -142.535568 
L 388.610256 -138.856098 
L 388.378595 -135.176629 
L 388.170366 -131.497159 
L 387.985225 -127.817689 
L 387.82236 -124.138219 
L 387.680593 -120.45875 
L 387.558466 -116.77928 
L 387.454333 -113.09981 
L 387.366442 -109.42034 
L 387.293002 -105.74087 
L 387.232248 -102.061401 
L 387.182487 -98.381931 
L 387.142131 -94.702461 
z
" style="stroke: #3f3f3f; stroke-width: 1.5"/>
    </defs>
    <g clip-path="url(#pb847434b49)">
     <use xlink:href="#m49c9a39acb" x="0" y="576" style="fill: #e1812c; stroke: #3f3f3f; stroke-width: 1.5"/>
    </g>
   </g>
   <g id="PolyCollection_7">
    <defs>
     <path id="m0f048af9b9" d="M 498.6 -126.757938 
L 493.887952 -126.757938 
L 492.889589 -127.352503 
L 491.743264 -127.947068 
L 490.44212 -128.541634 
L 488.982397 -129.136199 
L 487.364079 -129.730764 
L 485.591462 -130.32533 
L 483.673585 -130.919895 
L 481.624491 -131.51446 
L 479.463267 -132.109026 
L 477.213842 -132.703591 
L 474.904532 -133.298156 
L 472.56732 -133.892722 
L 470.23692 -134.487287 
L 467.949631 -135.081853 
L 465.742073 -135.676418 
L 463.649848 -136.270983 
L 461.706227 -136.865549 
L 459.940921 -137.460114 
L 458.379031 -138.054679 
L 457.040234 -138.649245 
L 455.938245 -139.24381 
L 455.080598 -139.838375 
L 454.468721 -140.432941 
L 454.098322 -141.027506 
L 453.96 -141.622071 
L 454.040066 -142.216637 
L 454.321473 -142.811202 
L 454.784796 -143.405767 
L 455.409198 -144.000333 
L 456.173315 -144.594898 
L 457.056006 -145.189463 
L 458.036959 -145.784029 
L 459.097126 -146.378594 
L 460.218991 -146.973159 
L 461.3867 -147.567725 
L 462.586071 -148.16229 
L 463.804518 -148.756855 
L 465.030931 -149.351421 
L 466.255525 -149.945986 
L 467.469702 -150.540551 
L 468.665923 -151.135117 
L 469.837613 -151.729682 
L 470.97909 -152.324247 
L 472.085512 -152.918813 
L 473.152849 -153.513378 
L 474.17785 -154.107944 
L 475.158009 -154.702509 
L 476.091525 -155.297074 
L 476.97725 -155.89164 
L 477.814624 -156.486205 
L 478.603604 -157.08077 
L 479.344589 -157.675336 
L 480.038349 -158.269901 
L 480.685961 -158.864466 
L 481.288757 -159.459032 
L 481.848283 -160.053597 
L 482.366276 -160.648162 
L 482.844651 -161.242728 
L 483.285502 -161.837293 
L 483.691108 -162.431858 
L 484.063949 -163.026424 
L 484.406716 -163.620989 
L 484.722335 -164.215554 
L 485.013975 -164.81012 
L 485.285063 -165.404685 
L 485.539282 -165.99925 
L 485.78057 -166.593816 
L 486.0131 -167.188381 
L 486.241242 -167.782946 
L 486.469512 -168.377512 
L 486.702491 -168.972077 
L 486.944728 -169.566642 
L 487.200616 -170.161208 
L 487.474249 -170.755773 
L 487.769272 -171.350338 
L 488.088717 -171.944904 
L 488.434851 -172.539469 
L 488.809045 -173.134034 
L 489.211664 -173.7286 
L 489.641999 -174.323165 
L 490.098252 -174.917731 
L 490.577568 -175.512296 
L 491.07612 -176.106861 
L 491.589247 -176.701427 
L 492.111638 -177.295992 
L 492.637539 -177.890557 
L 493.16099 -178.485123 
L 493.676059 -179.079688 
L 494.177077 -179.674253 
L 494.658837 -180.268819 
L 495.116776 -180.863384 
L 495.547101 -181.457949 
L 495.94688 -182.052515 
L 496.314079 -182.64708 
L 496.64756 -183.241645 
L 496.947032 -183.836211 
L 497.212974 -184.430776 
L 497.446533 -185.025341 
L 497.649401 -185.619907 
L 498.6 -185.619907 
L 498.6 -185.619907 
L 498.6 -185.025341 
L 498.6 -184.430776 
L 498.6 -183.836211 
L 498.6 -183.241645 
L 498.6 -182.64708 
L 498.6 -182.052515 
L 498.6 -181.457949 
L 498.6 -180.863384 
L 498.6 -180.268819 
L 498.6 -179.674253 
L 498.6 -179.079688 
L 498.6 -178.485123 
L 498.6 -177.890557 
L 498.6 -177.295992 
L 498.6 -176.701427 
L 498.6 -176.106861 
L 498.6 -175.512296 
L 498.6 -174.917731 
L 498.6 -174.323165 
L 498.6 -173.7286 
L 498.6 -173.134034 
L 498.6 -172.539469 
L 498.6 -171.944904 
L 498.6 -171.350338 
L 498.6 -170.755773 
L 498.6 -170.161208 
L 498.6 -169.566642 
L 498.6 -168.972077 
L 498.6 -168.377512 
L 498.6 -167.782946 
L 498.6 -167.188381 
L 498.6 -166.593816 
L 498.6 -165.99925 
L 498.6 -165.404685 
L 498.6 -164.81012 
L 498.6 -164.215554 
L 498.6 -163.620989 
L 498.6 -163.026424 
L 498.6 -162.431858 
L 498.6 -161.837293 
L 498.6 -161.242728 
L 498.6 -160.648162 
L 498.6 -160.053597 
L 498.6 -159.459032 
L 498.6 -158.864466 
L 498.6 -158.269901 
L 498.6 -157.675336 
L 498.6 -157.08077 
L 498.6 -156.486205 
L 498.6 -155.89164 
L 498.6 -155.297074 
L 498.6 -154.702509 
L 498.6 -154.107944 
L 498.6 -153.513378 
L 498.6 -152.918813 
L 498.6 -152.324247 
L 498.6 -151.729682 
L 498.6 -151.135117 
L 498.6 -150.540551 
L 498.6 -149.945986 
L 498.6 -149.351421 
L 498.6 -148.756855 
L 498.6 -148.16229 
L 498.6 -147.567725 
L 498.6 -146.973159 
L 498.6 -146.378594 
L 498.6 -145.784029 
L 498.6 -145.189463 
L 498.6 -144.594898 
L 498.6 -144.000333 
L 498.6 -143.405767 
L 498.6 -142.811202 
L 498.6 -142.216637 
L 498.6 -141.622071 
L 498.6 -141.027506 
L 498.6 -140.432941 
L 498.6 -139.838375 
L 498.6 -139.24381 
L 498.6 -138.649245 
L 498.6 -138.054679 
L 498.6 -137.460114 
L 498.6 -136.865549 
L 498.6 -136.270983 
L 498.6 -135.676418 
L 498.6 -135.081853 
L 498.6 -134.487287 
L 498.6 -133.892722 
L 498.6 -133.298156 
L 498.6 -132.703591 
L 498.6 -132.109026 
L 498.6 -131.51446 
L 498.6 -130.919895 
L 498.6 -130.32533 
L 498.6 -129.730764 
L 498.6 -129.136199 
L 498.6 -128.541634 
L 498.6 -127.947068 
L 498.6 -127.352503 
L 498.6 -126.757938 
z
" style="stroke: #3f3f3f; stroke-width: 1.5"/>
    </defs>
    <g clip-path="url(#pb847434b49)">
     <use xlink:href="#m0f048af9b9" x="0" y="576" style="fill: #3274a1; stroke: #3f3f3f; stroke-width: 1.5"/>
    </g>
   </g>
   <g id="PolyCollection_8">
    <defs>
     <path id="m694c9750ab" d="M 498.756291 -102.774409 
L 498.6 -102.774409 
L 498.6 -106.377856 
L 498.6 -109.981303 
L 498.6 -113.58475 
L 498.6 -117.188198 
L 498.6 -120.791645 
L 498.6 -124.395092 
L 498.6 -127.998539 
L 498.6 -131.601987 
L 498.6 -135.205434 
L 498.6 -138.808881 
L 498.6 -142.412328 
L 498.6 -146.015776 
L 498.6 -149.619223 
L 498.6 -153.22267 
L 498.6 -156.826117 
L 498.6 -160.429565 
L 498.6 -164.033012 
L 498.6 -167.636459 
L 498.6 -171.239906 
L 498.6 -174.843354 
L 498.6 -178.446801 
L 498.6 -182.050248 
L 498.6 -185.653695 
L 498.6 -189.257142 
L 498.6 -192.86059 
L 498.6 -196.464037 
L 498.6 -200.067484 
L 498.6 -203.670931 
L 498.6 -207.274379 
L 498.6 -210.877826 
L 498.6 -214.481273 
L 498.6 -218.08472 
L 498.6 -221.688168 
L 498.6 -225.291615 
L 498.6 -228.895062 
L 498.6 -232.498509 
L 498.6 -236.101957 
L 498.6 -239.705404 
L 498.6 -243.308851 
L 498.6 -246.912298 
L 498.6 -250.515746 
L 498.6 -254.119193 
L 498.6 -257.72264 
L 498.6 -261.326087 
L 498.6 -264.929534 
L 498.6 -268.532982 
L 498.6 -272.136429 
L 498.6 -275.739876 
L 498.6 -279.343323 
L 498.6 -282.946771 
L 498.6 -286.550218 
L 498.6 -290.153665 
L 498.6 -293.757112 
L 498.6 -297.36056 
L 498.6 -300.964007 
L 498.6 -304.567454 
L 498.6 -308.170901 
L 498.6 -311.774349 
L 498.6 -315.377796 
L 498.6 -318.981243 
L 498.6 -322.58469 
L 498.6 -326.188138 
L 498.6 -329.791585 
L 498.6 -333.395032 
L 498.6 -336.998479 
L 498.6 -340.601926 
L 498.6 -344.205374 
L 498.6 -347.808821 
L 498.6 -351.412268 
L 498.6 -355.015715 
L 498.6 -358.619163 
L 498.6 -362.22261 
L 498.6 -365.826057 
L 498.6 -369.429504 
L 498.6 -373.032952 
L 498.6 -376.636399 
L 498.6 -380.239846 
L 498.6 -383.843293 
L 498.6 -387.446741 
L 498.6 -391.050188 
L 498.6 -394.653635 
L 498.6 -398.257082 
L 498.6 -401.86053 
L 498.6 -405.463977 
L 498.6 -409.067424 
L 498.6 -412.670871 
L 498.6 -416.274319 
L 498.6 -419.877766 
L 498.6 -423.481213 
L 498.6 -427.08466 
L 498.6 -430.688107 
L 498.6 -434.291555 
L 498.6 -437.895002 
L 498.6 -441.498449 
L 498.6 -445.101896 
L 498.6 -448.705344 
L 498.6 -452.308791 
L 498.6 -455.912238 
L 498.6 -459.515685 
L 498.697091 -459.515685 
L 498.697091 -459.515685 
L 498.722687 -455.912238 
L 498.753132 -452.308791 
L 498.78882 -448.705344 
L 498.830054 -445.101896 
L 498.877013 -441.498449 
L 498.92973 -437.895002 
L 498.988079 -434.291555 
L 499.051765 -430.688107 
L 499.120329 -427.08466 
L 499.193162 -423.481213 
L 499.269531 -419.877766 
L 499.348617 -416.274319 
L 499.429549 -412.670871 
L 499.511456 -409.067424 
L 499.593503 -405.463977 
L 499.674929 -401.86053 
L 499.755076 -398.257082 
L 499.833397 -394.653635 
L 499.909468 -391.050188 
L 499.982966 -387.446741 
L 500.053657 -383.843293 
L 500.121359 -380.239846 
L 500.185919 -376.636399 
L 500.247187 -373.032952 
L 500.304991 -369.429504 
L 500.359142 -365.826057 
L 500.409447 -362.22261 
L 500.455737 -358.619163 
L 500.497929 -355.015715 
L 500.53609 -351.412268 
L 500.570526 -347.808821 
L 500.601863 -344.205374 
L 500.631141 -340.601926 
L 500.659884 -336.998479 
L 500.690155 -333.395032 
L 500.724577 -329.791585 
L 500.766316 -326.188138 
L 500.819023 -322.58469 
L 500.886729 -318.981243 
L 500.973693 -315.377796 
L 501.084212 -311.774349 
L 501.222399 -308.170901 
L 501.391945 -304.567454 
L 501.595869 -300.964007 
L 501.836279 -297.36056 
L 502.114165 -293.757112 
L 502.429222 -290.153665 
L 502.779732 -286.550218 
L 503.162505 -282.946771 
L 503.572891 -279.343323 
L 504.004859 -275.739876 
L 504.45115 -272.136429 
L 504.90349 -268.532982 
L 505.352861 -264.929534 
L 505.789815 -261.326087 
L 506.204816 -257.72264 
L 506.588591 -254.119193 
L 506.932488 -250.515746 
L 507.228795 -246.912298 
L 507.471027 -243.308851 
L 507.654162 -239.705404 
L 507.774793 -236.101957 
L 507.831217 -232.498509 
L 507.823434 -228.895062 
L 507.753063 -225.291615 
L 507.623187 -221.688168 
L 507.438137 -218.08472 
L 507.203229 -214.481273 
L 506.924471 -210.877826 
L 506.608275 -207.274379 
L 506.261177 -203.670931 
L 505.889594 -200.067484 
L 505.49963 -196.464037 
L 505.096929 -192.86059 
L 504.6866 -189.257142 
L 504.273177 -185.653695 
L 503.860638 -182.050248 
L 503.452453 -178.446801 
L 503.051645 -174.843354 
L 502.660867 -171.239906 
L 502.282468 -167.636459 
L 501.918543 -164.033012 
L 501.570967 -160.429565 
L 501.241405 -156.826117 
L 500.931303 -153.22267 
L 500.641866 -149.619223 
L 500.374027 -146.015776 
L 500.128415 -142.412328 
L 499.905328 -138.808881 
L 499.70472 -135.205434 
L 499.526196 -131.601987 
L 499.369034 -127.998539 
L 499.232211 -124.395092 
L 499.114449 -120.791645 
L 499.014272 -117.188198 
L 498.930064 -113.58475 
L 498.860133 -109.981303 
L 498.802767 -106.377856 
L 498.756291 -102.774409 
z
" style="stroke: #3f3f3f; stroke-width: 1.5"/>
    </defs>
    <g clip-path="url(#pb847434b49)">
     <use xlink:href="#m694c9750ab" x="0" y="576" style="fill: #e1812c; stroke: #3f3f3f; stroke-width: 1.5"/>
    </g>
   </g>
   <g id="PolyCollection_9">
    <defs>
     <path id="me3e28551f2" d="M 610.2 -121.551644 
L 605.680719 -121.551644 
L 604.571182 -122.512528 
L 603.27049 -123.473413 
L 601.767603 -124.434297 
L 600.056423 -125.395181 
L 598.137034 -126.356066 
L 596.016797 -127.31695 
L 593.711178 -128.277834 
L 591.244223 -129.238719 
L 588.64859 -130.199603 
L 585.965073 -131.160487 
L 583.241606 -132.121372 
L 580.53176 -133.082256 
L 577.892798 -134.04314 
L 575.383392 -135.004025 
L 573.061142 -135.964909 
L 570.980062 -136.925793 
L 569.188187 -137.886678 
L 567.725486 -138.847562 
L 566.622197 -139.808446 
L 565.897702 -140.76933 
L 565.56 -141.730215 
L 565.605776 -142.691099 
L 566.021055 -143.651983 
L 566.782344 -144.612868 
L 567.858167 -145.573752 
L 569.210864 -146.534636 
L 570.798519 -147.495521 
L 572.576902 -148.456405 
L 574.501298 -149.417289 
L 576.528144 -150.378174 
L 578.616402 -151.339058 
L 580.728643 -152.299942 
L 582.831817 -153.260827 
L 584.897718 -154.221711 
L 586.903172 -155.182595 
L 588.829988 -156.14348 
L 590.664702 -157.104364 
L 592.398165 -158.065248 
L 594.025026 -159.026133 
L 595.543142 -159.987017 
L 596.952956 -160.947901 
L 598.256883 -161.908785 
L 599.45872 -162.86967 
L 600.563119 -163.830554 
L 601.575118 -164.791438 
L 602.499766 -165.752323 
L 603.341825 -166.713207 
L 604.10557 -167.674091 
L 604.794666 -168.634976 
L 605.412134 -169.59586 
L 605.960372 -170.556744 
L 606.441246 -171.517629 
L 606.856214 -172.478513 
L 607.206486 -173.439397 
L 607.493195 -174.400282 
L 607.717575 -175.361166 
L 607.881132 -176.32205 
L 607.985799 -177.282935 
L 608.034062 -178.243819 
L 608.029067 -179.204703 
L 607.974681 -180.165588 
L 607.875521 -181.126472 
L 607.736949 -182.087356 
L 607.565017 -183.04824 
L 607.366386 -184.009125 
L 607.148207 -184.970009 
L 606.917971 -185.930893 
L 606.683339 -186.891778 
L 606.451954 -187.852662 
L 606.231247 -188.813546 
L 606.028241 -189.774431 
L 605.849363 -190.735315 
L 605.700272 -191.696199 
L 605.58571 -192.657084 
L 605.50938 -193.617968 
L 605.473856 -194.578852 
L 605.48053 -195.539737 
L 605.529594 -196.500621 
L 605.620066 -197.461505 
L 605.749846 -198.42239 
L 605.915821 -199.383274 
L 606.113987 -200.344158 
L 606.339615 -201.305043 
L 606.587435 -202.265927 
L 606.851832 -203.226811 
L 607.127053 -204.187695 
L 607.407415 -205.14858 
L 607.687493 -206.109464 
L 607.962294 -207.070348 
L 608.227402 -208.031233 
L 608.479085 -208.992117 
L 608.714364 -209.953001 
L 608.931049 -210.913886 
L 609.127724 -211.87477 
L 609.303707 -212.835654 
L 609.458983 -213.796539 
L 609.594103 -214.757423 
L 609.710086 -215.718307 
L 609.8083 -216.679192 
L 610.2 -216.679192 
L 610.2 -216.679192 
L 610.2 -215.718307 
L 610.2 -214.757423 
L 610.2 -213.796539 
L 610.2 -212.835654 
L 610.2 -211.87477 
L 610.2 -210.913886 
L 610.2 -209.953001 
L 610.2 -208.992117 
L 610.2 -208.031233 
L 610.2 -207.070348 
L 610.2 -206.109464 
L 610.2 -205.14858 
L 610.2 -204.187695 
L 610.2 -203.226811 
L 610.2 -202.265927 
L 610.2 -201.305043 
L 610.2 -200.344158 
L 610.2 -199.383274 
L 610.2 -198.42239 
L 610.2 -197.461505 
L 610.2 -196.500621 
L 610.2 -195.539737 
L 610.2 -194.578852 
L 610.2 -193.617968 
L 610.2 -192.657084 
L 610.2 -191.696199 
L 610.2 -190.735315 
L 610.2 -189.774431 
L 610.2 -188.813546 
L 610.2 -187.852662 
L 610.2 -186.891778 
L 610.2 -185.930893 
L 610.2 -184.970009 
L 610.2 -184.009125 
L 610.2 -183.04824 
L 610.2 -182.087356 
L 610.2 -181.126472 
L 610.2 -180.165588 
L 610.2 -179.204703 
L 610.2 -178.243819 
L 610.2 -177.282935 
L 610.2 -176.32205 
L 610.2 -175.361166 
L 610.2 -174.400282 
L 610.2 -173.439397 
L 610.2 -172.478513 
L 610.2 -171.517629 
L 610.2 -170.556744 
L 610.2 -169.59586 
L 610.2 -168.634976 
L 610.2 -167.674091 
L 610.2 -166.713207 
L 610.2 -165.752323 
L 610.2 -164.791438 
L 610.2 -163.830554 
L 610.2 -162.86967 
L 610.2 -161.908785 
L 610.2 -160.947901 
L 610.2 -159.987017 
L 610.2 -159.026133 
L 610.2 -158.065248 
L 610.2 -157.104364 
L 610.2 -156.14348 
L 610.2 -155.182595 
L 610.2 -154.221711 
L 610.2 -153.260827 
L 610.2 -152.299942 
L 610.2 -151.339058 
L 610.2 -150.378174 
L 610.2 -149.417289 
L 610.2 -148.456405 
L 610.2 -147.495521 
L 610.2 -146.534636 
L 610.2 -145.573752 
L 610.2 -144.612868 
L 610.2 -143.651983 
L 610.2 -142.691099 
L 610.2 -141.730215 
L 610.2 -140.76933 
L 610.2 -139.808446 
L 610.2 -138.847562 
L 610.2 -137.886678 
L 610.2 -136.925793 
L 610.2 -135.964909 
L 610.2 -135.004025 
L 610.2 -134.04314 
L 610.2 -133.082256 
L 610.2 -132.121372 
L 610.2 -131.160487 
L 610.2 -130.199603 
L 610.2 -129.238719 
L 610.2 -128.277834 
L 610.2 -127.31695 
L 610.2 -126.356066 
L 610.2 -125.395181 
L 610.2 -124.434297 
L 610.2 -123.473413 
L 610.2 -122.512528 
L 610.2 -121.551644 
z
" style="stroke: #3f3f3f; stroke-width: 1.5"/>
    </defs>
    <g clip-path="url(#pb847434b49)">
     <use xlink:href="#me3e28551f2" x="0" y="576" style="fill: #3274a1; stroke: #3f3f3f; stroke-width: 1.5"/>
    </g>
   </g>
   <g id="PolyCollection_10">
    <defs>
     <path id="md928a24ccc" d="M 610.363426 -101.030358 
L 610.2 -101.030358 
L 610.2 -104.93018 
L 610.2 -108.830002 
L 610.2 -112.729824 
L 610.2 -116.629646 
L 610.2 -120.529468 
L 610.2 -124.42929 
L 610.2 -128.329112 
L 610.2 -132.228933 
L 610.2 -136.128755 
L 610.2 -140.028577 
L 610.2 -143.928399 
L 610.2 -147.828221 
L 610.2 -151.728043 
L 610.2 -155.627865 
L 610.2 -159.527687 
L 610.2 -163.427509 
L 610.2 -167.327331 
L 610.2 -171.227153 
L 610.2 -175.126974 
L 610.2 -179.026796 
L 610.2 -182.926618 
L 610.2 -186.82644 
L 610.2 -190.726262 
L 610.2 -194.626084 
L 610.2 -198.525906 
L 610.2 -202.425728 
L 610.2 -206.32555 
L 610.2 -210.225372 
L 610.2 -214.125194 
L 610.2 -218.025015 
L 610.2 -221.924837 
L 610.2 -225.824659 
L 610.2 -229.724481 
L 610.2 -233.624303 
L 610.2 -237.524125 
L 610.2 -241.423947 
L 610.2 -245.323769 
L 610.2 -249.223591 
L 610.2 -253.123413 
L 610.2 -257.023235 
L 610.2 -260.923056 
L 610.2 -264.822878 
L 610.2 -268.7227 
L 610.2 -272.622522 
L 610.2 -276.522344 
L 610.2 -280.422166 
L 610.2 -284.321988 
L 610.2 -288.22181 
L 610.2 -292.121632 
L 610.2 -296.021454 
L 610.2 -299.921276 
L 610.2 -303.821098 
L 610.2 -307.720919 
L 610.2 -311.620741 
L 610.2 -315.520563 
L 610.2 -319.420385 
L 610.2 -323.320207 
L 610.2 -327.220029 
L 610.2 -331.119851 
L 610.2 -335.019673 
L 610.2 -338.919495 
L 610.2 -342.819317 
L 610.2 -346.719139 
L 610.2 -350.61896 
L 610.2 -354.518782 
L 610.2 -358.418604 
L 610.2 -362.318426 
L 610.2 -366.218248 
L 610.2 -370.11807 
L 610.2 -374.017892 
L 610.2 -377.917714 
L 610.2 -381.817536 
L 610.2 -385.717358 
L 610.2 -389.61718 
L 610.2 -393.517001 
L 610.2 -397.416823 
L 610.2 -401.316645 
L 610.2 -405.216467 
L 610.2 -409.116289 
L 610.2 -413.016111 
L 610.2 -416.915933 
L 610.2 -420.815755 
L 610.2 -424.715577 
L 610.2 -428.615399 
L 610.2 -432.515221 
L 610.2 -436.415042 
L 610.2 -440.314864 
L 610.2 -444.214686 
L 610.2 -448.114508 
L 610.2 -452.01433 
L 610.2 -455.914152 
L 610.2 -459.813974 
L 610.2 -463.713796 
L 610.2 -467.613618 
L 610.2 -471.51344 
L 610.2 -475.413262 
L 610.2 -479.313083 
L 610.2 -483.212905 
L 610.2 -487.112727 
L 610.298566 -487.112727 
L 610.298566 -487.112727 
L 610.324948 -483.212905 
L 610.356043 -479.313083 
L 610.391988 -475.413262 
L 610.432716 -471.51344 
L 610.477913 -467.613618 
L 610.526987 -463.713796 
L 610.579058 -459.813974 
L 610.632969 -455.914152 
L 610.687316 -452.01433 
L 610.740517 -448.114508 
L 610.790895 -444.214686 
L 610.836792 -440.314864 
L 610.876688 -436.415042 
L 610.90933 -432.515221 
L 610.933858 -428.615399 
L 610.949911 -424.715577 
L 610.957711 -420.815755 
L 610.958107 -416.915933 
L 610.95259 -413.016111 
L 610.94326 -409.116289 
L 610.932758 -405.216467 
L 610.924164 -401.316645 
L 610.920862 -397.416823 
L 610.92639 -393.517001 
L 610.944276 -389.61718 
L 610.977868 -385.717358 
L 611.030175 -381.817536 
L 611.103708 -377.917714 
L 611.20035 -374.017892 
L 611.321237 -370.11807 
L 611.466679 -366.218248 
L 611.636102 -362.318426 
L 611.828039 -358.418604 
L 612.040159 -354.518782 
L 612.269348 -350.61896 
L 612.511838 -346.719139 
L 612.763391 -342.819317 
L 613.019519 -338.919495 
L 613.275757 -335.019673 
L 613.527942 -331.119851 
L 613.772505 -327.220029 
L 614.006746 -323.320207 
L 614.229056 -319.420385 
L 614.439076 -315.520563 
L 614.637767 -311.620741 
L 614.827372 -307.720919 
L 615.011261 -303.821098 
L 615.193674 -299.921276 
L 615.379361 -296.021454 
L 615.573156 -292.121632 
L 615.779506 -288.22181 
L 616.002015 -284.321988 
L 616.243019 -280.422166 
L 616.503253 -276.522344 
L 616.781629 -272.622522 
L 617.075153 -268.7227 
L 617.378996 -264.822878 
L 617.686698 -260.923056 
L 617.990507 -257.023235 
L 618.281815 -253.123413 
L 618.551641 -249.223591 
L 618.791146 -245.323769 
L 618.992117 -241.423947 
L 619.147384 -237.524125 
L 619.251159 -233.624303 
L 619.299256 -229.724481 
L 619.289205 -225.824659 
L 619.22025 -221.924837 
L 619.093256 -218.025015 
L 618.910535 -214.125194 
L 618.675634 -210.225372 
L 618.393082 -206.32555 
L 618.068147 -202.425728 
L 617.706607 -198.525906 
L 617.314543 -194.626084 
L 616.898167 -190.726262 
L 616.463692 -186.82644 
L 616.017219 -182.926618 
L 615.564655 -179.026796 
L 615.111642 -175.126974 
L 614.663497 -171.227153 
L 614.22515 -167.327331 
L 613.801083 -163.427509 
L 613.395277 -159.527687 
L 613.011146 -155.627865 
L 612.651494 -151.728043 
L 612.318472 -147.828221 
L 612.013559 -143.928399 
L 611.73756 -140.028577 
L 611.490628 -136.128755 
L 611.272308 -132.228933 
L 611.081599 -128.329112 
L 610.917044 -124.42929 
L 610.776814 -120.529468 
L 610.658818 -116.629646 
L 610.560796 -112.729824 
L 610.480418 -108.830002 
L 610.415371 -104.93018 
L 610.363426 -101.030358 
z
" style="stroke: #3f3f3f; stroke-width: 1.5"/>
    </defs>
    <g clip-path="url(#pb847434b49)">
     <use xlink:href="#md928a24ccc" x="0" y="576" style="fill: #e1812c; stroke: #3f3f3f; stroke-width: 1.5"/>
    </g>
   </g>
   <g id="PolyCollection_11">
    <defs>
     <path id="m89fcf40f0c" d="M 721.8 -119.403155 
L 717.246569 -119.403155 
L 716.11522 -120.49449 
L 714.787118 -121.585825 
L 713.251085 -122.67716 
L 711.501278 -123.768496 
L 709.538523 -124.859831 
L 707.371476 -125.951166 
L 705.017482 -127.042501 
L 702.503035 -128.133837 
L 699.863711 -129.225172 
L 697.143549 -130.316507 
L 694.393814 -131.407842 
L 691.671201 -132.499178 
L 689.035541 -133.590513 
L 686.547133 -134.681848 
L 684.263892 -135.773183 
L 682.238486 -136.864519 
L 680.515677 -137.955854 
L 679.130076 -139.047189 
L 678.104457 -140.138524 
L 677.448785 -141.22986 
L 677.16 -142.321195 
L 677.22259 -143.41253 
L 677.609883 -144.503866 
L 678.285951 -145.595201 
L 679.207982 -146.686536 
L 680.328924 -147.777871 
L 681.600214 -148.869207 
L 682.9744 -149.960542 
L 684.407474 -151.051877 
L 685.860788 -152.143212 
L 687.302446 -153.234548 
L 688.708117 -154.325883 
L 690.061255 -155.417218 
L 691.352769 -156.508553 
L 692.580216 -157.599889 
L 693.746604 -158.691224 
L 694.858958 -159.782559 
L 695.926758 -160.873894 
L 696.960408 -161.96523 
L 697.969843 -163.056565 
L 698.963394 -164.1479 
L 699.946978 -165.239235 
L 700.923661 -166.330571 
L 701.893593 -167.421906 
L 702.854298 -168.513241 
L 703.801233 -169.604576 
L 704.728557 -170.695912 
L 705.629981 -171.787247 
L 706.499612 -172.878582 
L 707.33269 -173.969917 
L 708.126126 -175.061253 
L 708.87881 -176.152588 
L 709.591647 -177.243923 
L 710.267341 -178.335258 
L 710.909965 -179.426594 
L 711.524379 -180.517929 
L 712.115565 -181.609264 
L 712.687972 -182.700599 
L 713.24494 -183.791935 
L 713.788266 -184.88327 
L 714.317961 -185.974605 
L 714.832211 -187.06594 
L 715.327548 -188.157276 
L 715.799198 -189.248611 
L 716.241572 -190.339946 
L 716.648843 -191.431281 
L 717.015549 -192.522617 
L 717.337167 -193.613952 
L 717.610603 -194.705287 
L 717.834568 -195.796623 
L 718.00979 -196.887958 
L 718.139079 -197.979293 
L 718.227213 -199.070628 
L 718.280691 -200.161964 
L 718.307353 -201.253299 
L 718.315916 -202.344634 
L 718.315454 -203.435969 
L 718.314873 -204.527305 
L 718.32241 -205.61864 
L 718.345192 -206.709975 
L 718.388893 -207.80131 
L 718.457498 -208.892646 
L 718.553186 -209.983981 
L 718.676337 -211.075316 
L 718.825655 -212.166651 
L 718.998384 -213.257987 
L 719.190599 -214.349322 
L 719.397544 -215.440657 
L 719.613986 -216.531992 
L 719.834566 -217.623328 
L 720.054115 -218.714663 
L 720.267915 -219.805998 
L 720.471906 -220.897333 
L 720.662819 -221.988669 
L 720.838236 -223.080004 
L 720.9966 -224.171339 
L 721.137157 -225.262674 
L 721.259871 -226.35401 
L 721.365303 -227.445345 
L 721.8 -227.445345 
L 721.8 -227.445345 
L 721.8 -226.35401 
L 721.8 -225.262674 
L 721.8 -224.171339 
L 721.8 -223.080004 
L 721.8 -221.988669 
L 721.8 -220.897333 
L 721.8 -219.805998 
L 721.8 -218.714663 
L 721.8 -217.623328 
L 721.8 -216.531992 
L 721.8 -215.440657 
L 721.8 -214.349322 
L 721.8 -213.257987 
L 721.8 -212.166651 
L 721.8 -211.075316 
L 721.8 -209.983981 
L 721.8 -208.892646 
L 721.8 -207.80131 
L 721.8 -206.709975 
L 721.8 -205.61864 
L 721.8 -204.527305 
L 721.8 -203.435969 
L 721.8 -202.344634 
L 721.8 -201.253299 
L 721.8 -200.161964 
L 721.8 -199.070628 
L 721.8 -197.979293 
L 721.8 -196.887958 
L 721.8 -195.796623 
L 721.8 -194.705287 
L 721.8 -193.613952 
L 721.8 -192.522617 
L 721.8 -191.431281 
L 721.8 -190.339946 
L 721.8 -189.248611 
L 721.8 -188.157276 
L 721.8 -187.06594 
L 721.8 -185.974605 
L 721.8 -184.88327 
L 721.8 -183.791935 
L 721.8 -182.700599 
L 721.8 -181.609264 
L 721.8 -180.517929 
L 721.8 -179.426594 
L 721.8 -178.335258 
L 721.8 -177.243923 
L 721.8 -176.152588 
L 721.8 -175.061253 
L 721.8 -173.969917 
L 721.8 -172.878582 
L 721.8 -171.787247 
L 721.8 -170.695912 
L 721.8 -169.604576 
L 721.8 -168.513241 
L 721.8 -167.421906 
L 721.8 -166.330571 
L 721.8 -165.239235 
L 721.8 -164.1479 
L 721.8 -163.056565 
L 721.8 -161.96523 
L 721.8 -160.873894 
L 721.8 -159.782559 
L 721.8 -158.691224 
L 721.8 -157.599889 
L 721.8 -156.508553 
L 721.8 -155.417218 
L 721.8 -154.325883 
L 721.8 -153.234548 
L 721.8 -152.143212 
L 721.8 -151.051877 
L 721.8 -149.960542 
L 721.8 -148.869207 
L 721.8 -147.777871 
L 721.8 -146.686536 
L 721.8 -145.595201 
L 721.8 -144.503866 
L 721.8 -143.41253 
L 721.8 -142.321195 
L 721.8 -141.22986 
L 721.8 -140.138524 
L 721.8 -139.047189 
L 721.8 -137.955854 
L 721.8 -136.864519 
L 721.8 -135.773183 
L 721.8 -134.681848 
L 721.8 -133.590513 
L 721.8 -132.499178 
L 721.8 -131.407842 
L 721.8 -130.316507 
L 721.8 -129.225172 
L 721.8 -128.133837 
L 721.8 -127.042501 
L 721.8 -125.951166 
L 721.8 -124.859831 
L 721.8 -123.768496 
L 721.8 -122.67716 
L 721.8 -121.585825 
L 721.8 -120.49449 
L 721.8 -119.403155 
z
" style="stroke: #3f3f3f; stroke-width: 1.5"/>
    </defs>
    <g clip-path="url(#pb847434b49)">
     <use xlink:href="#m89fcf40f0c" x="0" y="576" style="fill: #3274a1; stroke: #3f3f3f; stroke-width: 1.5"/>
    </g>
   </g>
   <g id="PolyCollection_12">
    <defs>
     <path id="m9b3a66772b" d="M 721.940907 -91.767273 
L 721.8 -91.767273 
L 721.8 -95.506039 
L 721.8 -99.244806 
L 721.8 -102.983572 
L 721.8 -106.722339 
L 721.8 -110.461105 
L 721.8 -114.199872 
L 721.8 -117.938638 
L 721.8 -121.677405 
L 721.8 -125.416171 
L 721.8 -129.154938 
L 721.8 -132.893704 
L 721.8 -136.632471 
L 721.8 -140.371237 
L 721.8 -144.110004 
L 721.8 -147.84877 
L 721.8 -151.587537 
L 721.8 -155.326303 
L 721.8 -159.06507 
L 721.8 -162.803836 
L 721.8 -166.542603 
L 721.8 -170.28137 
L 721.8 -174.020136 
L 721.8 -177.758903 
L 721.8 -181.497669 
L 721.8 -185.236436 
L 721.8 -188.975202 
L 721.8 -192.713969 
L 721.8 -196.452735 
L 721.8 -200.191502 
L 721.8 -203.930268 
L 721.8 -207.669035 
L 721.8 -211.407801 
L 721.8 -215.146568 
L 721.8 -218.885334 
L 721.8 -222.624101 
L 721.8 -226.362867 
L 721.8 -230.101634 
L 721.8 -233.8404 
L 721.8 -237.579167 
L 721.8 -241.317933 
L 721.8 -245.0567 
L 721.8 -248.795466 
L 721.8 -252.534233 
L 721.8 -256.272999 
L 721.8 -260.011766 
L 721.8 -263.750532 
L 721.8 -267.489299 
L 721.8 -271.228065 
L 721.8 -274.966832 
L 721.8 -278.705598 
L 721.8 -282.444365 
L 721.8 -286.183131 
L 721.8 -289.921898 
L 721.8 -293.660664 
L 721.8 -297.399431 
L 721.8 -301.138198 
L 721.8 -304.876964 
L 721.8 -308.615731 
L 721.8 -312.354497 
L 721.8 -316.093264 
L 721.8 -319.83203 
L 721.8 -323.570797 
L 721.8 -327.309563 
L 721.8 -331.04833 
L 721.8 -334.787096 
L 721.8 -338.525863 
L 721.8 -342.264629 
L 721.8 -346.003396 
L 721.8 -349.742162 
L 721.8 -353.480929 
L 721.8 -357.219695 
L 721.8 -360.958462 
L 721.8 -364.697228 
L 721.8 -368.435995 
L 721.8 -372.174761 
L 721.8 -375.913528 
L 721.8 -379.652294 
L 721.8 -383.391061 
L 721.8 -387.129827 
L 721.8 -390.868594 
L 721.8 -394.60736 
L 721.8 -398.346127 
L 721.8 -402.084893 
L 721.8 -405.82366 
L 721.8 -409.562426 
L 721.8 -413.301193 
L 721.8 -417.039959 
L 721.8 -420.778726 
L 721.8 -424.517492 
L 721.8 -428.256259 
L 721.8 -431.995025 
L 721.8 -435.733792 
L 721.8 -439.472559 
L 721.8 -443.211325 
L 721.8 -446.950092 
L 721.8 -450.688858 
L 721.8 -454.427625 
L 721.8 -458.166391 
L 721.8 -461.905158 
L 721.943175 -461.905158 
L 721.943175 -461.905158 
L 721.981528 -458.166391 
L 722.027475 -454.427625 
L 722.081801 -450.688858 
L 722.145218 -446.950092 
L 722.218334 -443.211325 
L 722.301628 -439.472559 
L 722.395436 -435.733792 
L 722.499941 -431.995025 
L 722.615178 -428.256259 
L 722.741043 -424.517492 
L 722.877308 -420.778726 
L 723.023639 -417.039959 
L 723.179611 -413.301193 
L 723.344706 -409.562426 
L 723.51831 -405.82366 
L 723.699678 -402.084893 
L 723.887897 -398.346127 
L 724.081825 -394.60736 
L 724.280029 -390.868594 
L 724.480725 -387.129827 
L 724.681737 -383.391061 
L 724.880483 -379.652294 
L 725.07401 -375.913528 
L 725.259082 -372.174761 
L 725.43232 -368.435995 
L 725.590409 -364.697228 
L 725.730349 -360.958462 
L 725.849735 -357.219695 
L 725.947051 -353.480929 
L 726.021945 -349.742162 
L 726.075449 -346.003396 
L 726.110132 -342.264629 
L 726.130146 -338.525863 
L 726.141158 -334.787096 
L 726.150159 -331.04833 
L 726.165158 -327.309563 
L 726.194774 -323.570797 
L 726.247761 -319.83203 
L 726.332498 -316.093264 
L 726.456477 -312.354497 
L 726.625849 -308.615731 
L 726.845045 -304.876964 
L 727.116512 -301.138198 
L 727.440581 -297.399431 
L 727.815465 -293.660664 
L 728.237384 -289.921898 
L 728.700796 -286.183131 
L 729.198694 -282.444365 
L 729.722947 -278.705598 
L 730.264629 -274.966832 
L 730.814327 -271.228065 
L 731.362386 -267.489299 
L 731.899084 -263.750532 
L 732.414745 -260.011766 
L 732.899808 -256.272999 
L 733.344857 -252.534233 
L 733.740669 -248.795466 
L 734.078293 -245.0567 
L 734.349188 -241.317933 
L 734.545444 -237.579167 
L 734.66007 -233.8404 
L 734.687348 -230.101634 
L 734.623217 -226.362867 
L 734.465648 -222.624101 
L 734.21496 -218.885334 
L 733.874042 -215.146568 
L 733.448431 -211.407801 
L 732.946222 -207.669035 
L 732.377819 -203.930268 
L 731.755508 -200.191502 
L 731.092911 -196.452735 
L 730.404342 -192.713969 
L 729.704127 -188.975202 
L 729.005942 -185.236436 
L 728.322227 -181.497669 
L 727.663705 -177.758903 
L 727.039056 -174.020136 
L 726.454747 -170.28137 
L 725.915017 -166.542603 
L 725.422014 -162.803836 
L 724.976037 -159.06507 
L 724.575862 -155.326303 
L 724.219111 -151.587537 
L 723.902622 -147.84877 
L 723.622798 -144.110004 
L 723.375905 -140.371237 
L 723.158303 -136.632471 
L 722.966615 -132.893704 
L 722.797817 -129.154938 
L 722.649283 -125.416171 
L 722.518771 -121.677405 
L 722.404385 -117.938638 
L 722.304516 -114.199872 
L 722.217773 -110.461105 
L 722.142926 -106.722339 
L 722.078849 -102.983572 
L 722.024488 -99.244806 
L 721.978832 -95.506039 
L 721.940907 -91.767273 
z
" style="stroke: #3f3f3f; stroke-width: 1.5"/>
    </defs>
    <g clip-path="url(#pb847434b49)">
     <use xlink:href="#m9b3a66772b" x="0" y="576" style="fill: #e1812c; stroke: #3f3f3f; stroke-width: 1.5"/>
    </g>
   </g>
   <g id="matplotlib.axis_1">
    <g id="xtick_1">
     <g id="line2d_1">
      <defs>
       <path id="ma8efdb06c9" d="M 0 0 
L 0 3.5 
" style="stroke: #000000; stroke-width: 0.8"/>
      </defs>
      <g>
       <use xlink:href="#ma8efdb06c9" x="163.8" y="504" style="stroke: #000000; stroke-width: 0.8"/>
      </g>
     </g>
     <g id="text_1">
      <!-- 6 -->
      <g transform="translate(160.61875 518.598438)scale(0.1 -0.1)">
       <defs>
        <path id="DejaVuSans-36" d="M 2113 2584 
Q 1688 2584 1439 2293 
Q 1191 2003 1191 1497 
Q 1191 994 1439 701 
Q 1688 409 2113 409 
Q 2538 409 2786 701 
Q 3034 994 3034 1497 
Q 3034 2003 2786 2293 
Q 2538 2584 2113 2584 
z
M 3366 4563 
L 3366 3988 
Q 3128 4100 2886 4159 
Q 2644 4219 2406 4219 
Q 1781 4219 1451 3797 
Q 1122 3375 1075 2522 
Q 1259 2794 1537 2939 
Q 1816 3084 2150 3084 
Q 2853 3084 3261 2657 
Q 3669 2231 3669 1497 
Q 3669 778 3244 343 
Q 2819 -91 2113 -91 
Q 1303 -91 875 529 
Q 447 1150 447 2328 
Q 447 3434 972 4092 
Q 1497 4750 2381 4750 
Q 2619 4750 2861 4703 
Q 3103 4656 3366 4563 
z
" transform="scale(0.015625)"/>
       </defs>
       <use xlink:href="#DejaVuSans-36"/>
      </g>
     </g>
    </g>
    <g id="xtick_2">
     <g id="line2d_2">
      <g>
       <use xlink:href="#ma8efdb06c9" x="275.4" y="504" style="stroke: #000000; stroke-width: 0.8"/>
      </g>
     </g>
     <g id="text_2">
      <!-- 9 -->
      <g transform="translate(272.21875 518.598438)scale(0.1 -0.1)">
       <defs>
        <path id="DejaVuSans-39" d="M 703 97 
L 703 672 
Q 941 559 1184 500 
Q 1428 441 1663 441 
Q 2288 441 2617 861 
Q 2947 1281 2994 2138 
Q 2813 1869 2534 1725 
Q 2256 1581 1919 1581 
Q 1219 1581 811 2004 
Q 403 2428 403 3163 
Q 403 3881 828 4315 
Q 1253 4750 1959 4750 
Q 2769 4750 3195 4129 
Q 3622 3509 3622 2328 
Q 3622 1225 3098 567 
Q 2575 -91 1691 -91 
Q 1453 -91 1209 -44 
Q 966 3 703 97 
z
M 1959 2075 
Q 2384 2075 2632 2365 
Q 2881 2656 2881 3163 
Q 2881 3666 2632 3958 
Q 2384 4250 1959 4250 
Q 1534 4250 1286 3958 
Q 1038 3666 1038 3163 
Q 1038 2656 1286 2365 
Q 1534 2075 1959 2075 
z
" transform="scale(0.015625)"/>
       </defs>
       <use xlink:href="#DejaVuSans-39"/>
      </g>
     </g>
    </g>
    <g id="xtick_3">
     <g id="line2d_3">
      <g>
       <use xlink:href="#ma8efdb06c9" x="387" y="504" style="stroke: #000000; stroke-width: 0.8"/>
      </g>
     </g>
     <g id="text_3">
      <!-- 12 -->
      <g transform="translate(380.6375 518.598438)scale(0.1 -0.1)">
       <defs>
        <path id="DejaVuSans-31" d="M 794 531 
L 1825 531 
L 1825 4091 
L 703 3866 
L 703 4441 
L 1819 4666 
L 2450 4666 
L 2450 531 
L 3481 531 
L 3481 0 
L 794 0 
L 794 531 
z
" transform="scale(0.015625)"/>
        <path id="DejaVuSans-32" d="M 1228 531 
L 3431 531 
L 3431 0 
L 469 0 
L 469 531 
Q 828 903 1448 1529 
Q 2069 2156 2228 2338 
Q 2531 2678 2651 2914 
Q 2772 3150 2772 3378 
Q 2772 3750 2511 3984 
Q 2250 4219 1831 4219 
Q 1534 4219 1204 4116 
Q 875 4013 500 3803 
L 500 4441 
Q 881 4594 1212 4672 
Q 1544 4750 1819 4750 
Q 2544 4750 2975 4387 
Q 3406 4025 3406 3419 
Q 3406 3131 3298 2873 
Q 3191 2616 2906 2266 
Q 2828 2175 2409 1742 
Q 1991 1309 1228 531 
z
" transform="scale(0.015625)"/>
       </defs>
       <use xlink:href="#DejaVuSans-31"/>
       <use xlink:href="#DejaVuSans-32" x="63.623047"/>
      </g>
     </g>
    </g>
    <g id="xtick_4">
     <g id="line2d_4">
      <g>
       <use xlink:href="#ma8efdb06c9" x="498.6" y="504" style="stroke: #000000; stroke-width: 0.8"/>
      </g>
     </g>
     <g id="text_4">
      <!-- 15 -->
      <g transform="translate(492.2375 518.598438)scale(0.1 -0.1)">
       <defs>
        <path id="DejaVuSans-35" d="M 691 4666 
L 3169 4666 
L 3169 4134 
L 1269 4134 
L 1269 2991 
Q 1406 3038 1543 3061 
Q 1681 3084 1819 3084 
Q 2600 3084 3056 2656 
Q 3513 2228 3513 1497 
Q 3513 744 3044 326 
Q 2575 -91 1722 -91 
Q 1428 -91 1123 -41 
Q 819 9 494 109 
L 494 744 
Q 775 591 1075 516 
Q 1375 441 1709 441 
Q 2250 441 2565 725 
Q 2881 1009 2881 1497 
Q 2881 1984 2565 2268 
Q 2250 2553 1709 2553 
Q 1456 2553 1204 2497 
Q 953 2441 691 2322 
L 691 4666 
z
" transform="scale(0.015625)"/>
       </defs>
       <use xlink:href="#DejaVuSans-31"/>
       <use xlink:href="#DejaVuSans-35" x="63.623047"/>
      </g>
     </g>
    </g>
    <g id="xtick_5">
     <g id="line2d_5">
      <g>
       <use xlink:href="#ma8efdb06c9" x="610.2" y="504" style="stroke: #000000; stroke-width: 0.8"/>
      </g>
     </g>
     <g id="text_5">
      <!-- 18 -->
      <g transform="translate(603.8375 518.598438)scale(0.1 -0.1)">
       <defs>
        <path id="DejaVuSans-38" d="M 2034 2216 
Q 1584 2216 1326 1975 
Q 1069 1734 1069 1313 
Q 1069 891 1326 650 
Q 1584 409 2034 409 
Q 2484 409 2743 651 
Q 3003 894 3003 1313 
Q 3003 1734 2745 1975 
Q 2488 2216 2034 2216 
z
M 1403 2484 
Q 997 2584 770 2862 
Q 544 3141 544 3541 
Q 544 4100 942 4425 
Q 1341 4750 2034 4750 
Q 2731 4750 3128 4425 
Q 3525 4100 3525 3541 
Q 3525 3141 3298 2862 
Q 3072 2584 2669 2484 
Q 3125 2378 3379 2068 
Q 3634 1759 3634 1313 
Q 3634 634 3220 271 
Q 2806 -91 2034 -91 
Q 1263 -91 848 271 
Q 434 634 434 1313 
Q 434 1759 690 2068 
Q 947 2378 1403 2484 
z
M 1172 3481 
Q 1172 3119 1398 2916 
Q 1625 2713 2034 2713 
Q 2441 2713 2670 2916 
Q 2900 3119 2900 3481 
Q 2900 3844 2670 4047 
Q 2441 4250 2034 4250 
Q 1625 4250 1398 4047 
Q 1172 3844 1172 3481 
z
" transform="scale(0.015625)"/>
       </defs>
       <use xlink:href="#DejaVuSans-31"/>
       <use xlink:href="#DejaVuSans-38" x="63.623047"/>
      </g>
     </g>
    </g>
    <g id="xtick_6">
     <g id="line2d_6">
      <g>
       <use xlink:href="#ma8efdb06c9" x="721.8" y="504" style="stroke: #000000; stroke-width: 0.8"/>
      </g>
     </g>
     <g id="text_6">
      <!-- 21 -->
      <g transform="translate(715.4375 518.598438)scale(0.1 -0.1)">
       <use xlink:href="#DejaVuSans-32"/>
       <use xlink:href="#DejaVuSans-31" x="63.623047"/>
      </g>
     </g>
    </g>
    <g id="text_7">
     <!-- NumLayers -->
     <g transform="translate(414.474219 532.276562)scale(0.1 -0.1)">
      <defs>
       <path id="DejaVuSans-4e" d="M 628 4666 
L 1478 4666 
L 3547 763 
L 3547 4666 
L 4159 4666 
L 4159 0 
L 3309 0 
L 1241 3903 
L 1241 0 
L 628 0 
L 628 4666 
z
" transform="scale(0.015625)"/>
       <path id="DejaVuSans-75" d="M 544 1381 
L 544 3500 
L 1119 3500 
L 1119 1403 
Q 1119 906 1312 657 
Q 1506 409 1894 409 
Q 2359 409 2629 706 
Q 2900 1003 2900 1516 
L 2900 3500 
L 3475 3500 
L 3475 0 
L 2900 0 
L 2900 538 
Q 2691 219 2414 64 
Q 2138 -91 1772 -91 
Q 1169 -91 856 284 
Q 544 659 544 1381 
z
M 1991 3584 
L 1991 3584 
z
" transform="scale(0.015625)"/>
       <path id="DejaVuSans-6d" d="M 3328 2828 
Q 3544 3216 3844 3400 
Q 4144 3584 4550 3584 
Q 5097 3584 5394 3201 
Q 5691 2819 5691 2113 
L 5691 0 
L 5113 0 
L 5113 2094 
Q 5113 2597 4934 2840 
Q 4756 3084 4391 3084 
Q 3944 3084 3684 2787 
Q 3425 2491 3425 1978 
L 3425 0 
L 2847 0 
L 2847 2094 
Q 2847 2600 2669 2842 
Q 2491 3084 2119 3084 
Q 1678 3084 1418 2786 
Q 1159 2488 1159 1978 
L 1159 0 
L 581 0 
L 581 3500 
L 1159 3500 
L 1159 2956 
Q 1356 3278 1631 3431 
Q 1906 3584 2284 3584 
Q 2666 3584 2933 3390 
Q 3200 3197 3328 2828 
z
" transform="scale(0.015625)"/>
       <path id="DejaVuSans-4c" d="M 628 4666 
L 1259 4666 
L 1259 531 
L 3531 531 
L 3531 0 
L 628 0 
L 628 4666 
z
" transform="scale(0.015625)"/>
       <path id="DejaVuSans-61" d="M 2194 1759 
Q 1497 1759 1228 1600 
Q 959 1441 959 1056 
Q 959 750 1161 570 
Q 1363 391 1709 391 
Q 2188 391 2477 730 
Q 2766 1069 2766 1631 
L 2766 1759 
L 2194 1759 
z
M 3341 1997 
L 3341 0 
L 2766 0 
L 2766 531 
Q 2569 213 2275 61 
Q 1981 -91 1556 -91 
Q 1019 -91 701 211 
Q 384 513 384 1019 
Q 384 1609 779 1909 
Q 1175 2209 1959 2209 
L 2766 2209 
L 2766 2266 
Q 2766 2663 2505 2880 
Q 2244 3097 1772 3097 
Q 1472 3097 1187 3025 
Q 903 2953 641 2809 
L 641 3341 
Q 956 3463 1253 3523 
Q 1550 3584 1831 3584 
Q 2591 3584 2966 3190 
Q 3341 2797 3341 1997 
z
" transform="scale(0.015625)"/>
       <path id="DejaVuSans-79" d="M 2059 -325 
Q 1816 -950 1584 -1140 
Q 1353 -1331 966 -1331 
L 506 -1331 
L 506 -850 
L 844 -850 
Q 1081 -850 1212 -737 
Q 1344 -625 1503 -206 
L 1606 56 
L 191 3500 
L 800 3500 
L 1894 763 
L 2988 3500 
L 3597 3500 
L 2059 -325 
z
" transform="scale(0.015625)"/>
       <path id="DejaVuSans-65" d="M 3597 1894 
L 3597 1613 
L 953 1613 
Q 991 1019 1311 708 
Q 1631 397 2203 397 
Q 2534 397 2845 478 
Q 3156 559 3463 722 
L 3463 178 
Q 3153 47 2828 -22 
Q 2503 -91 2169 -91 
Q 1331 -91 842 396 
Q 353 884 353 1716 
Q 353 2575 817 3079 
Q 1281 3584 2069 3584 
Q 2775 3584 3186 3129 
Q 3597 2675 3597 1894 
z
M 3022 2063 
Q 3016 2534 2758 2815 
Q 2500 3097 2075 3097 
Q 1594 3097 1305 2825 
Q 1016 2553 972 2059 
L 3022 2063 
z
" transform="scale(0.015625)"/>
       <path id="DejaVuSans-72" d="M 2631 2963 
Q 2534 3019 2420 3045 
Q 2306 3072 2169 3072 
Q 1681 3072 1420 2755 
Q 1159 2438 1159 1844 
L 1159 0 
L 581 0 
L 581 3500 
L 1159 3500 
L 1159 2956 
Q 1341 3275 1631 3429 
Q 1922 3584 2338 3584 
Q 2397 3584 2469 3576 
Q 2541 3569 2628 3553 
L 2631 2963 
z
" transform="scale(0.015625)"/>
       <path id="DejaVuSans-73" d="M 2834 3397 
L 2834 2853 
Q 2591 2978 2328 3040 
Q 2066 3103 1784 3103 
Q 1356 3103 1142 2972 
Q 928 2841 928 2578 
Q 928 2378 1081 2264 
Q 1234 2150 1697 2047 
L 1894 2003 
Q 2506 1872 2764 1633 
Q 3022 1394 3022 966 
Q 3022 478 2636 193 
Q 2250 -91 1575 -91 
Q 1294 -91 989 -36 
Q 684 19 347 128 
L 347 722 
Q 666 556 975 473 
Q 1284 391 1588 391 
Q 1994 391 2212 530 
Q 2431 669 2431 922 
Q 2431 1156 2273 1281 
Q 2116 1406 1581 1522 
L 1381 1569 
Q 847 1681 609 1914 
Q 372 2147 372 2553 
Q 372 3047 722 3315 
Q 1072 3584 1716 3584 
Q 2034 3584 2315 3537 
Q 2597 3491 2834 3397 
z
" transform="scale(0.015625)"/>
      </defs>
      <use xlink:href="#DejaVuSans-4e"/>
      <use xlink:href="#DejaVuSans-75" x="74.804688"/>
      <use xlink:href="#DejaVuSans-6d" x="138.183594"/>
      <use xlink:href="#DejaVuSans-4c" x="235.595703"/>
      <use xlink:href="#DejaVuSans-61" x="291.308594"/>
      <use xlink:href="#DejaVuSans-79" x="352.587891"/>
      <use xlink:href="#DejaVuSans-65" x="411.767578"/>
      <use xlink:href="#DejaVuSans-72" x="473.291016"/>
      <use xlink:href="#DejaVuSans-73" x="514.404297"/>
     </g>
    </g>
   </g>
   <g id="matplotlib.axis_2">
    <g id="ytick_1">
     <g id="line2d_7">
      <defs>
       <path id="mfd08bfd8dc" d="M 0 0 
L -3.5 0 
" style="stroke: #000000; stroke-width: 0.8"/>
      </defs>
      <g>
       <use xlink:href="#mfd08bfd8dc" x="108" y="437.046405" style="stroke: #000000; stroke-width: 0.8"/>
      </g>
     </g>
     <g id="text_8">
      <!-- 0 -->
      <g transform="translate(94.6375 440.845624)scale(0.1 -0.1)">
       <defs>
        <path id="DejaVuSans-30" d="M 2034 4250 
Q 1547 4250 1301 3770 
Q 1056 3291 1056 2328 
Q 1056 1369 1301 889 
Q 1547 409 2034 409 
Q 2525 409 2770 889 
Q 3016 1369 3016 2328 
Q 3016 3291 2770 3770 
Q 2525 4250 2034 4250 
z
M 2034 4750 
Q 2819 4750 3233 4129 
Q 3647 3509 3647 2328 
Q 3647 1150 3233 529 
Q 2819 -91 2034 -91 
Q 1250 -91 836 529 
Q 422 1150 422 2328 
Q 422 3509 836 4129 
Q 1250 4750 2034 4750 
z
" transform="scale(0.015625)"/>
       </defs>
       <use xlink:href="#DejaVuSans-30"/>
      </g>
     </g>
    </g>
    <g id="ytick_2">
     <g id="line2d_8">
      <g>
       <use xlink:href="#mfd08bfd8dc" x="108" y="350.869768" style="stroke: #000000; stroke-width: 0.8"/>
      </g>
     </g>
     <g id="text_9">
      <!-- 10 -->
      <g transform="translate(88.275 354.668986)scale(0.1 -0.1)">
       <use xlink:href="#DejaVuSans-31"/>
       <use xlink:href="#DejaVuSans-30" x="63.623047"/>
      </g>
     </g>
    </g>
    <g id="ytick_3">
     <g id="line2d_9">
      <g>
       <use xlink:href="#mfd08bfd8dc" x="108" y="264.69313" style="stroke: #000000; stroke-width: 0.8"/>
      </g>
     </g>
     <g id="text_10">
      <!-- 20 -->
      <g transform="translate(88.275 268.492348)scale(0.1 -0.1)">
       <use xlink:href="#DejaVuSans-32"/>
       <use xlink:href="#DejaVuSans-30" x="63.623047"/>
      </g>
     </g>
    </g>
    <g id="ytick_4">
     <g id="line2d_10">
      <g>
       <use xlink:href="#mfd08bfd8dc" x="108" y="178.516492" style="stroke: #000000; stroke-width: 0.8"/>
      </g>
     </g>
     <g id="text_11">
      <!-- 30 -->
      <g transform="translate(88.275 182.315711)scale(0.1 -0.1)">
       <defs>
        <path id="DejaVuSans-33" d="M 2597 2516 
Q 3050 2419 3304 2112 
Q 3559 1806 3559 1356 
Q 3559 666 3084 287 
Q 2609 -91 1734 -91 
Q 1441 -91 1130 -33 
Q 819 25 488 141 
L 488 750 
Q 750 597 1062 519 
Q 1375 441 1716 441 
Q 2309 441 2620 675 
Q 2931 909 2931 1356 
Q 2931 1769 2642 2001 
Q 2353 2234 1838 2234 
L 1294 2234 
L 1294 2753 
L 1863 2753 
Q 2328 2753 2575 2939 
Q 2822 3125 2822 3475 
Q 2822 3834 2567 4026 
Q 2313 4219 1838 4219 
Q 1578 4219 1281 4162 
Q 984 4106 628 3988 
L 628 4550 
Q 988 4650 1302 4700 
Q 1616 4750 1894 4750 
Q 2613 4750 3031 4423 
Q 3450 4097 3450 3541 
Q 3450 3153 3228 2886 
Q 3006 2619 2597 2516 
z
" transform="scale(0.015625)"/>
       </defs>
       <use xlink:href="#DejaVuSans-33"/>
       <use xlink:href="#DejaVuSans-30" x="63.623047"/>
      </g>
     </g>
    </g>
    <g id="ytick_5">
     <g id="line2d_11">
      <g>
       <use xlink:href="#mfd08bfd8dc" x="108" y="92.339854" style="stroke: #000000; stroke-width: 0.8"/>
      </g>
     </g>
     <g id="text_12">
      <!-- 40 -->
      <g transform="translate(88.275 96.139073)scale(0.1 -0.1)">
       <defs>
        <path id="DejaVuSans-34" d="M 2419 4116 
L 825 1625 
L 2419 1625 
L 2419 4116 
z
M 2253 4666 
L 3047 4666 
L 3047 1625 
L 3713 1625 
L 3713 1100 
L 3047 1100 
L 3047 0 
L 2419 0 
L 2419 1100 
L 313 1100 
L 313 1709 
L 2253 4666 
z
" transform="scale(0.015625)"/>
       </defs>
       <use xlink:href="#DejaVuSans-34"/>
       <use xlink:href="#DejaVuSans-30" x="63.623047"/>
      </g>
     </g>
    </g>
    <g id="text_13">
     <!-- Count -->
     <g transform="translate(82.195312 301.408437)rotate(-90)scale(0.1 -0.1)">
      <defs>
       <path id="DejaVuSans-43" d="M 4122 4306 
L 4122 3641 
Q 3803 3938 3442 4084 
Q 3081 4231 2675 4231 
Q 1875 4231 1450 3742 
Q 1025 3253 1025 2328 
Q 1025 1406 1450 917 
Q 1875 428 2675 428 
Q 3081 428 3442 575 
Q 3803 722 4122 1019 
L 4122 359 
Q 3791 134 3420 21 
Q 3050 -91 2638 -91 
Q 1578 -91 968 557 
Q 359 1206 359 2328 
Q 359 3453 968 4101 
Q 1578 4750 2638 4750 
Q 3056 4750 3426 4639 
Q 3797 4528 4122 4306 
z
" transform="scale(0.015625)"/>
       <path id="DejaVuSans-6f" d="M 1959 3097 
Q 1497 3097 1228 2736 
Q 959 2375 959 1747 
Q 959 1119 1226 758 
Q 1494 397 1959 397 
Q 2419 397 2687 759 
Q 2956 1122 2956 1747 
Q 2956 2369 2687 2733 
Q 2419 3097 1959 3097 
z
M 1959 3584 
Q 2709 3584 3137 3096 
Q 3566 2609 3566 1747 
Q 3566 888 3137 398 
Q 2709 -91 1959 -91 
Q 1206 -91 779 398 
Q 353 888 353 1747 
Q 353 2609 779 3096 
Q 1206 3584 1959 3584 
z
" transform="scale(0.015625)"/>
       <path id="DejaVuSans-6e" d="M 3513 2113 
L 3513 0 
L 2938 0 
L 2938 2094 
Q 2938 2591 2744 2837 
Q 2550 3084 2163 3084 
Q 1697 3084 1428 2787 
Q 1159 2491 1159 1978 
L 1159 0 
L 581 0 
L 581 3500 
L 1159 3500 
L 1159 2956 
Q 1366 3272 1645 3428 
Q 1925 3584 2291 3584 
Q 2894 3584 3203 3211 
Q 3513 2838 3513 2113 
z
" transform="scale(0.015625)"/>
       <path id="DejaVuSans-74" d="M 1172 4494 
L 1172 3500 
L 2356 3500 
L 2356 3053 
L 1172 3053 
L 1172 1153 
Q 1172 725 1289 603 
Q 1406 481 1766 481 
L 2356 481 
L 2356 0 
L 1766 0 
Q 1100 0 847 248 
Q 594 497 594 1153 
L 594 3053 
L 172 3053 
L 172 3500 
L 594 3500 
L 594 4494 
L 1172 4494 
z
" transform="scale(0.015625)"/>
      </defs>
      <use xlink:href="#DejaVuSans-43"/>
      <use xlink:href="#DejaVuSans-6f" x="69.824219"/>
      <use xlink:href="#DejaVuSans-75" x="131.005859"/>
      <use xlink:href="#DejaVuSans-6e" x="194.384766"/>
      <use xlink:href="#DejaVuSans-74" x="257.763672"/>
     </g>
    </g>
   </g>
   <g id="line2d_12">
    <path d="M 119.829916 437.046405 
L 163.8 437.046405 
" clip-path="url(#pb847434b49)" style="fill: none; stroke-dasharray: 3.375,3.375; stroke-dashoffset: 0; stroke: #3f3f3f; stroke-width: 1.5"/>
   </g>
   <g id="line2d_13">
    <path d="M 119.829916 437.046405 
L 163.8 437.046405 
" clip-path="url(#pb847434b49)" style="fill: none; stroke-dasharray: 6.75,6.75; stroke-dashoffset: 0; stroke: #3f3f3f; stroke-width: 1.5"/>
   </g>
   <g id="line2d_14">
    <path d="M 126.218103 432.737573 
L 163.8 432.737573 
" clip-path="url(#pb847434b49)" style="fill: none; stroke-dasharray: 3.375,3.375; stroke-dashoffset: 0; stroke: #3f3f3f; stroke-width: 1.5"/>
   </g>
   <g id="line2d_15">
    <path d="M 163.8 376.722759 
L 169.432192 376.722759 
" clip-path="url(#pb847434b49)" style="fill: none; stroke-dasharray: 3.375,3.375; stroke-dashoffset: 0; stroke: #3f3f3f; stroke-width: 1.5"/>
   </g>
   <g id="line2d_16">
    <path d="M 163.8 342.252104 
L 169.313339 342.252104 
" clip-path="url(#pb847434b49)" style="fill: none; stroke-dasharray: 6.75,6.75; stroke-dashoffset: 0; stroke: #3f3f3f; stroke-width: 1.5"/>
   </g>
   <g id="line2d_17">
    <path d="M 163.8 307.781449 
L 167.639825 307.781449 
" clip-path="url(#pb847434b49)" style="fill: none; stroke-dasharray: 3.375,3.375; stroke-dashoffset: 0; stroke: #3f3f3f; stroke-width: 1.5"/>
   </g>
   <g id="line2d_18">
    <path d="M 231.2064 437.046405 
L 275.4 437.046405 
" clip-path="url(#pb847434b49)" style="fill: none; stroke-dasharray: 3.375,3.375; stroke-dashoffset: 0; stroke: #3f3f3f; stroke-width: 1.5"/>
   </g>
   <g id="line2d_19">
    <path d="M 231.2064 437.046405 
L 275.4 437.046405 
" clip-path="url(#pb847434b49)" style="fill: none; stroke-dasharray: 6.75,6.75; stroke-dashoffset: 0; stroke: #3f3f3f; stroke-width: 1.5"/>
   </g>
   <g id="line2d_20">
    <path d="M 237.387078 432.737573 
L 275.4 432.737573 
" clip-path="url(#pb847434b49)" style="fill: none; stroke-dasharray: 3.375,3.375; stroke-dashoffset: 0; stroke: #3f3f3f; stroke-width: 1.5"/>
   </g>
   <g id="line2d_21">
    <path d="M 275.4 393.958086 
L 281.443317 393.958086 
" clip-path="url(#pb847434b49)" style="fill: none; stroke-dasharray: 3.375,3.375; stroke-dashoffset: 0; stroke: #3f3f3f; stroke-width: 1.5"/>
   </g>
   <g id="line2d_22">
    <path d="M 275.4 359.487431 
L 281.649877 359.487431 
" clip-path="url(#pb847434b49)" style="fill: none; stroke-dasharray: 6.75,6.75; stroke-dashoffset: 0; stroke: #3f3f3f; stroke-width: 1.5"/>
   </g>
   <g id="line2d_23">
    <path d="M 275.4 325.016776 
L 279.495185 325.016776 
" clip-path="url(#pb847434b49)" style="fill: none; stroke-dasharray: 3.375,3.375; stroke-dashoffset: 0; stroke: #3f3f3f; stroke-width: 1.5"/>
   </g>
   <g id="line2d_24">
    <path d="M 343.139268 437.046405 
L 387 437.046405 
" clip-path="url(#pb847434b49)" style="fill: none; stroke-dasharray: 3.375,3.375; stroke-dashoffset: 0; stroke: #3f3f3f; stroke-width: 1.5"/>
   </g>
   <g id="line2d_25">
    <path d="M 343.139268 437.046405 
L 387 437.046405 
" clip-path="url(#pb847434b49)" style="fill: none; stroke-dasharray: 6.75,6.75; stroke-dashoffset: 0; stroke: #3f3f3f; stroke-width: 1.5"/>
   </g>
   <g id="line2d_26">
    <path d="M 348.230199 432.737573 
L 387 432.737573 
" clip-path="url(#pb847434b49)" style="fill: none; stroke-dasharray: 3.375,3.375; stroke-dashoffset: 0; stroke: #3f3f3f; stroke-width: 1.5"/>
   </g>
   <g id="line2d_27">
    <path d="M 387 376.722759 
L 393.399661 376.722759 
" clip-path="url(#pb847434b49)" style="fill: none; stroke-dasharray: 3.375,3.375; stroke-dashoffset: 0; stroke: #3f3f3f; stroke-width: 1.5"/>
   </g>
   <g id="line2d_28">
    <path d="M 387 342.252104 
L 393.130603 342.252104 
" clip-path="url(#pb847434b49)" style="fill: none; stroke-dasharray: 6.75,6.75; stroke-dashoffset: 0; stroke: #3f3f3f; stroke-width: 1.5"/>
   </g>
   <g id="line2d_29">
    <path d="M 387 316.399112 
L 391.271277 316.399112 
" clip-path="url(#pb847434b49)" style="fill: none; stroke-dasharray: 3.375,3.375; stroke-dashoffset: 0; stroke: #3f3f3f; stroke-width: 1.5"/>
   </g>
   <g id="line2d_30">
    <path d="M 456.364863 437.046405 
L 498.6 437.046405 
" clip-path="url(#pb847434b49)" style="fill: none; stroke-dasharray: 3.375,3.375; stroke-dashoffset: 0; stroke: #3f3f3f; stroke-width: 1.5"/>
   </g>
   <g id="line2d_31">
    <path d="M 461.758833 428.428742 
L 498.6 428.428742 
" clip-path="url(#pb847434b49)" style="fill: none; stroke-dasharray: 6.75,6.75; stroke-dashoffset: 0; stroke: #3f3f3f; stroke-width: 1.5"/>
   </g>
   <g id="line2d_32">
    <path d="M 477.193477 419.811078 
L 498.6 419.811078 
" clip-path="url(#pb847434b49)" style="fill: none; stroke-dasharray: 3.375,3.375; stroke-dashoffset: 0; stroke: #3f3f3f; stroke-width: 1.5"/>
   </g>
   <g id="line2d_33">
    <path d="M 498.6 359.487431 
L 507.349756 359.487431 
" clip-path="url(#pb847434b49)" style="fill: none; stroke-dasharray: 3.375,3.375; stroke-dashoffset: 0; stroke: #3f3f3f; stroke-width: 1.5"/>
   </g>
   <g id="line2d_34">
    <path d="M 498.6 342.252104 
L 507.738905 342.252104 
" clip-path="url(#pb847434b49)" style="fill: none; stroke-dasharray: 6.75,6.75; stroke-dashoffset: 0; stroke: #3f3f3f; stroke-width: 1.5"/>
   </g>
   <g id="line2d_35">
    <path d="M 498.6 316.399112 
L 505.717917 316.399112 
" clip-path="url(#pb847434b49)" style="fill: none; stroke-dasharray: 3.375,3.375; stroke-dashoffset: 0; stroke: #3f3f3f; stroke-width: 1.5"/>
   </g>
   <g id="line2d_36">
    <path d="M 568.150231 437.046405 
L 610.2 437.046405 
" clip-path="url(#pb847434b49)" style="fill: none; stroke-dasharray: 3.375,3.375; stroke-dashoffset: 0; stroke: #3f3f3f; stroke-width: 1.5"/>
   </g>
   <g id="line2d_37">
    <path d="M 568.150231 437.046405 
L 610.2 437.046405 
" clip-path="url(#pb847434b49)" style="fill: none; stroke-dasharray: 6.75,6.75; stroke-dashoffset: 0; stroke: #3f3f3f; stroke-width: 1.5"/>
   </g>
   <g id="line2d_38">
    <path d="M 571.192533 428.428742 
L 610.2 428.428742 
" clip-path="url(#pb847434b49)" style="fill: none; stroke-dasharray: 3.375,3.375; stroke-dashoffset: 0; stroke: #3f3f3f; stroke-width: 1.5"/>
   </g>
   <g id="line2d_39">
    <path d="M 610.2 363.796263 
L 618.82343 363.796263 
" clip-path="url(#pb847434b49)" style="fill: none; stroke-dasharray: 3.375,3.375; stroke-dashoffset: 0; stroke: #3f3f3f; stroke-width: 1.5"/>
   </g>
   <g id="line2d_40">
    <path d="M 610.2 342.252104 
L 619.160647 342.252104 
" clip-path="url(#pb847434b49)" style="fill: none; stroke-dasharray: 6.75,6.75; stroke-dashoffset: 0; stroke: #3f3f3f; stroke-width: 1.5"/>
   </g>
   <g id="line2d_41">
    <path d="M 610.2 286.237289 
L 615.723711 286.237289 
" clip-path="url(#pb847434b49)" style="fill: none; stroke-dasharray: 3.375,3.375; stroke-dashoffset: 0; stroke: #3f3f3f; stroke-width: 1.5"/>
   </g>
   <g id="line2d_42">
    <path d="M 679.556775 437.046405 
L 721.8 437.046405 
" clip-path="url(#pb847434b49)" style="fill: none; stroke-dasharray: 3.375,3.375; stroke-dashoffset: 0; stroke: #3f3f3f; stroke-width: 1.5"/>
   </g>
   <g id="line2d_43">
    <path d="M 680.743634 428.428742 
L 721.8 428.428742 
" clip-path="url(#pb847434b49)" style="fill: none; stroke-dasharray: 6.75,6.75; stroke-dashoffset: 0; stroke: #3f3f3f; stroke-width: 1.5"/>
   </g>
   <g id="line2d_44">
    <path d="M 700.165508 411.193414 
L 721.8 411.193414 
" clip-path="url(#pb847434b49)" style="fill: none; stroke-dasharray: 3.375,3.375; stroke-dashoffset: 0; stroke: #3f3f3f; stroke-width: 1.5"/>
   </g>
   <g id="line2d_45">
    <path d="M 721.8 359.487431 
L 733.753302 359.487431 
" clip-path="url(#pb847434b49)" style="fill: none; stroke-dasharray: 3.375,3.375; stroke-dashoffset: 0; stroke: #3f3f3f; stroke-width: 1.5"/>
   </g>
   <g id="line2d_46">
    <path d="M 721.8 333.63444 
L 734.223696 333.63444 
" clip-path="url(#pb847434b49)" style="fill: none; stroke-dasharray: 6.75,6.75; stroke-dashoffset: 0; stroke: #3f3f3f; stroke-width: 1.5"/>
   </g>
   <g id="line2d_47">
    <path d="M 721.8 303.472617 
L 730.724184 303.472617 
" clip-path="url(#pb847434b49)" style="fill: none; stroke-dasharray: 3.375,3.375; stroke-dashoffset: 0; stroke: #3f3f3f; stroke-width: 1.5"/>
   </g>
   <g id="patch_5">
    <path d="M 108 504 
L 108 69.12 
" style="fill: none; stroke: #000000; stroke-width: 0.8; stroke-linejoin: miter; stroke-linecap: square"/>
   </g>
   <g id="patch_6">
    <path d="M 777.6 504 
L 777.6 69.12 
" style="fill: none; stroke: #000000; stroke-width: 0.8; stroke-linejoin: miter; stroke-linecap: square"/>
   </g>
   <g id="patch_7">
    <path d="M 108 504 
L 777.6 504 
" style="fill: none; stroke: #000000; stroke-width: 0.8; stroke-linejoin: miter; stroke-linecap: square"/>
   </g>
   <g id="patch_8">
    <path d="M 108 69.12 
L 777.6 69.12 
" style="fill: none; stroke: #000000; stroke-width: 0.8; stroke-linejoin: miter; stroke-linecap: square"/>
   </g>
   <g id="legend_1">
    <g id="patch_9">
     <path d="M 659.298437 121.710625 
L 770.6 121.710625 
Q 772.6 121.710625 772.6 119.710625 
L 772.6 76.12 
Q 772.6 74.12 770.6 74.12 
L 659.298437 74.12 
Q 657.298437 74.12 657.298437 76.12 
L 657.298437 119.710625 
Q 657.298437 121.710625 659.298437 121.710625 
z
" style="fill: #ffffff; opacity: 0.8; stroke: #cccccc; stroke-linejoin: miter"/>
    </g>
    <g id="text_14">
     <!-- Result -->
     <g transform="translate(699.500781 85.718437)scale(0.1 -0.1)">
      <defs>
       <path id="DejaVuSans-52" d="M 2841 2188 
Q 3044 2119 3236 1894 
Q 3428 1669 3622 1275 
L 4263 0 
L 3584 0 
L 2988 1197 
Q 2756 1666 2539 1819 
Q 2322 1972 1947 1972 
L 1259 1972 
L 1259 0 
L 628 0 
L 628 4666 
L 2053 4666 
Q 2853 4666 3247 4331 
Q 3641 3997 3641 3322 
Q 3641 2881 3436 2590 
Q 3231 2300 2841 2188 
z
M 1259 4147 
L 1259 2491 
L 2053 2491 
Q 2509 2491 2742 2702 
Q 2975 2913 2975 3322 
Q 2975 3731 2742 3939 
Q 2509 4147 2053 4147 
L 1259 4147 
z
" transform="scale(0.015625)"/>
       <path id="DejaVuSans-6c" d="M 603 4863 
L 1178 4863 
L 1178 0 
L 603 0 
L 603 4863 
z
" transform="scale(0.015625)"/>
      </defs>
      <use xlink:href="#DejaVuSans-52"/>
      <use xlink:href="#DejaVuSans-65" x="64.982422"/>
      <use xlink:href="#DejaVuSans-73" x="126.505859"/>
      <use xlink:href="#DejaVuSans-75" x="178.605469"/>
      <use xlink:href="#DejaVuSans-6c" x="241.984375"/>
      <use xlink:href="#DejaVuSans-74" x="269.767578"/>
     </g>
    </g>
    <g id="patch_10">
     <path d="M 661.298437 100.396563 
L 681.298437 100.396563 
L 681.298437 93.396563 
L 661.298437 93.396563 
z
" style="fill: #3274a1; stroke: #3f3f3f; stroke-width: 0.75; stroke-linejoin: miter"/>
    </g>
    <g id="text_15">
     <!-- Failed_Abs -->
     <g transform="translate(689.298437 100.396563)scale(0.1 -0.1)">
      <defs>
       <path id="DejaVuSans-46" d="M 628 4666 
L 3309 4666 
L 3309 4134 
L 1259 4134 
L 1259 2759 
L 3109 2759 
L 3109 2228 
L 1259 2228 
L 1259 0 
L 628 0 
L 628 4666 
z
" transform="scale(0.015625)"/>
       <path id="DejaVuSans-69" d="M 603 3500 
L 1178 3500 
L 1178 0 
L 603 0 
L 603 3500 
z
M 603 4863 
L 1178 4863 
L 1178 4134 
L 603 4134 
L 603 4863 
z
" transform="scale(0.015625)"/>
       <path id="DejaVuSans-64" d="M 2906 2969 
L 2906 4863 
L 3481 4863 
L 3481 0 
L 2906 0 
L 2906 525 
Q 2725 213 2448 61 
Q 2172 -91 1784 -91 
Q 1150 -91 751 415 
Q 353 922 353 1747 
Q 353 2572 751 3078 
Q 1150 3584 1784 3584 
Q 2172 3584 2448 3432 
Q 2725 3281 2906 2969 
z
M 947 1747 
Q 947 1113 1208 752 
Q 1469 391 1925 391 
Q 2381 391 2643 752 
Q 2906 1113 2906 1747 
Q 2906 2381 2643 2742 
Q 2381 3103 1925 3103 
Q 1469 3103 1208 2742 
Q 947 2381 947 1747 
z
" transform="scale(0.015625)"/>
       <path id="DejaVuSans-5f" d="M 3263 -1063 
L 3263 -1509 
L -63 -1509 
L -63 -1063 
L 3263 -1063 
z
" transform="scale(0.015625)"/>
       <path id="DejaVuSans-41" d="M 2188 4044 
L 1331 1722 
L 3047 1722 
L 2188 4044 
z
M 1831 4666 
L 2547 4666 
L 4325 0 
L 3669 0 
L 3244 1197 
L 1141 1197 
L 716 0 
L 50 0 
L 1831 4666 
z
" transform="scale(0.015625)"/>
       <path id="DejaVuSans-62" d="M 3116 1747 
Q 3116 2381 2855 2742 
Q 2594 3103 2138 3103 
Q 1681 3103 1420 2742 
Q 1159 2381 1159 1747 
Q 1159 1113 1420 752 
Q 1681 391 2138 391 
Q 2594 391 2855 752 
Q 3116 1113 3116 1747 
z
M 1159 2969 
Q 1341 3281 1617 3432 
Q 1894 3584 2278 3584 
Q 2916 3584 3314 3078 
Q 3713 2572 3713 1747 
Q 3713 922 3314 415 
Q 2916 -91 2278 -91 
Q 1894 -91 1617 61 
Q 1341 213 1159 525 
L 1159 0 
L 581 0 
L 581 4863 
L 1159 4863 
L 1159 2969 
z
" transform="scale(0.015625)"/>
      </defs>
      <use xlink:href="#DejaVuSans-46"/>
      <use xlink:href="#DejaVuSans-61" x="48.394531"/>
      <use xlink:href="#DejaVuSans-69" x="109.673828"/>
      <use xlink:href="#DejaVuSans-6c" x="137.457031"/>
      <use xlink:href="#DejaVuSans-65" x="165.240234"/>
      <use xlink:href="#DejaVuSans-64" x="226.763672"/>
      <use xlink:href="#DejaVuSans-5f" x="290.240234"/>
      <use xlink:href="#DejaVuSans-41" x="340.240234"/>
      <use xlink:href="#DejaVuSans-62" x="408.648438"/>
      <use xlink:href="#DejaVuSans-73" x="472.125"/>
     </g>
    </g>
    <g id="patch_11">
     <path d="M 661.298437 115.352813 
L 681.298437 115.352813 
L 681.298437 108.352813 
L 661.298437 108.352813 
z
" style="fill: #e1812c; stroke: #3f3f3f; stroke-width: 0.75; stroke-linejoin: miter"/>
    </g>
    <g id="text_16">
     <!-- Terminated_Abs -->
     <g transform="translate(689.298437 115.352813)scale(0.1 -0.1)">
      <defs>
       <path id="DejaVuSans-54" d="M -19 4666 
L 3928 4666 
L 3928 4134 
L 2272 4134 
L 2272 0 
L 1638 0 
L 1638 4134 
L -19 4134 
L -19 4666 
z
" transform="scale(0.015625)"/>
      </defs>
      <use xlink:href="#DejaVuSans-54"/>
      <use xlink:href="#DejaVuSans-65" x="44.083984"/>
      <use xlink:href="#DejaVuSans-72" x="105.607422"/>
      <use xlink:href="#DejaVuSans-6d" x="144.970703"/>
      <use xlink:href="#DejaVuSans-69" x="242.382812"/>
      <use xlink:href="#DejaVuSans-6e" x="270.166016"/>
      <use xlink:href="#DejaVuSans-61" x="333.544922"/>
      <use xlink:href="#DejaVuSans-74" x="394.824219"/>
      <use xlink:href="#DejaVuSans-65" x="434.033203"/>
      <use xlink:href="#DejaVuSans-64" x="495.556641"/>
      <use xlink:href="#DejaVuSans-5f" x="559.033203"/>
      <use xlink:href="#DejaVuSans-41" x="609.033203"/>
      <use xlink:href="#DejaVuSans-62" x="677.441406"/>
      <use xlink:href="#DejaVuSans-73" x="740.917969"/>
     </g>
    </g>
   </g>
  </g>
 </g>
 <defs>
  <clipPath id="pb847434b49">
   <rect x="108" y="69.12" width="669.6" height="434.88"/>
  </clipPath>
 </defs>
</svg>
