<?xml version="1.0" encoding="utf-8" standalone="no"?>
<!DOCTYPE svg PUBLIC "-//W3C//DTD SVG 1.1//EN"
  "http://www.w3.org/Graphics/SVG/1.1/DTD/svg11.dtd">
<svg xmlns:xlink="http://www.w3.org/1999/xlink" width="864pt" height="576pt" viewBox="0 0 864 576" xmlns="http://www.w3.org/2000/svg" version="1.1">
 <metadata>
  <rdf:RDF xmlns:dc="http://purl.org/dc/elements/1.1/" xmlns:cc="http://creativecommons.org/ns#" xmlns:rdf="http://www.w3.org/1999/02/22-rdf-syntax-ns#">
   <cc:Work>
    <dc:type rdf:resource="http://purl.org/dc/dcmitype/StillImage"/>
    <dc:date>2025-05-30T10:45:16.659377</dc:date>
    <dc:format>image/svg+xml</dc:format>
    <dc:creator>
     <cc:Agent>
      <dc:title>Matplotlib v3.8.0, https://matplotlib.org/</dc:title>
     </cc:Agent>
    </dc:creator>
   </cc:Work>
  </rdf:RDF>
 </metadata>
 <defs>
  <style type="text/css">*{stroke-linejoin: round; stroke-linecap: butt}</style>
 </defs>
 <g id="figure_1">
  <g id="patch_1">
   <path d="M 0 576 
L 864 576 
L 864 0 
L 0 0 
z
" style="fill: #ffffff"/>
  </g>
  <g id="axes_1">
   <g id="patch_2">
    <path d="M 108 512.64 
L 777.6 512.64 
L 777.6 69.12 
L 108 69.12 
z
" style="fill: #ffffff"/>
   </g>
   <g id="patch_3">
    <path d="M 163.8 444.356201 
L 163.8 444.356201 
L 163.8 444.356201 
L 163.8 444.356201 
z
" clip-path="url(#p5bae828666)" style="fill: #3274a1; stroke: #3f3f3f; stroke-width: 0.75; stroke-linejoin: miter"/>
   </g>
   <g id="PolyCollection_1">
    <defs>
     <path id="m07fe702a51" d="M 163.8 -119.038884 
L 158.154144 -119.038884 
L 156.602449 -119.826188 
L 154.765024 -120.613492 
L 152.632164 -121.400795 
L 150.206686 -122.188099 
L 147.506534 -122.975403 
L 144.566686 -123.762707 
L 141.439988 -124.550011 
L 138.196659 -125.337315 
L 134.922273 -126.124619 
L 131.714201 -126.911923 
L 128.676652 -127.699226 
L 125.914648 -128.48653 
L 123.527409 -129.273834 
L 121.601745 -130.061138 
L 120.206092 -130.848442 
L 119.385774 -131.635746 
L 119.16 -132.42305 
L 119.520873 -133.210354 
L 120.434507 -133.997657 
L 121.844096 -134.784961 
L 123.674596 -135.572265 
L 125.838488 -136.359569 
L 128.242048 -137.146873 
L 130.791513 -137.934177 
L 133.39861 -138.721481 
L 135.985033 -139.508784 
L 138.485631 -140.296088 
L 140.850187 -141.083392 
L 143.043881 -141.870696 
L 145.046601 -142.658 
L 146.851358 -143.445304 
L 148.462097 -144.232608 
L 149.891182 -145.019912 
L 151.156815 -145.807215 
L 152.280575 -146.594519 
L 153.285229 -147.381823 
L 154.192915 -148.169127 
L 155.023734 -148.956431 
L 155.794765 -149.743735 
L 156.519498 -150.531039 
L 157.207636 -151.318343 
L 157.86523 -152.105646 
L 158.495067 -152.89295 
L 159.097263 -153.680254 
L 159.669958 -154.467558 
L 160.210068 -155.254862 
L 160.714 -156.042166 
L 161.17829 -156.82947 
L 161.600106 -157.616774 
L 161.9776 -158.404077 
L 162.310104 -159.191381 
L 162.598164 -159.978685 
L 162.84345 -160.765989 
L 163.048569 -161.553293 
L 163.216811 -162.340597 
L 163.351867 -163.127901 
L 163.457549 -163.915204 
L 163.537536 -164.702508 
L 163.595159 -165.489812 
L 163.633242 -166.277116 
L 163.653998 -167.06442 
L 163.658975 -167.851724 
L 163.649064 -168.639028 
L 163.62455 -169.426332 
L 163.58521 -170.213635 
L 163.530452 -171.000939 
L 163.459489 -171.788243 
L 163.37154 -172.575547 
L 163.266052 -173.362851 
L 163.142924 -174.150155 
L 163.002723 -174.937459 
L 162.846869 -175.724763 
L 162.67777 -176.512066 
L 162.498887 -177.29937 
L 162.314708 -178.086674 
L 162.130635 -178.873978 
L 161.952758 -179.661282 
L 161.787555 -180.448586 
L 161.641513 -181.23589 
L 161.520713 -182.023193 
L 161.430416 -182.810497 
L 161.374685 -183.597801 
L 161.356078 -184.385105 
L 161.37546 -185.172409 
L 161.431932 -185.959713 
L 161.522901 -186.747017 
L 161.644279 -187.534321 
L 161.790788 -188.321624 
L 161.956335 -189.108928 
L 162.134437 -189.896232 
L 162.318633 -190.683536 
L 162.502858 -191.47084 
L 162.681761 -192.258144 
L 162.850915 -193.045448 
L 163.006954 -193.832752 
L 163.1476 -194.620055 
L 163.271612 -195.407359 
L 163.378678 -196.194663 
L 163.469251 -196.981967 
L 163.8 -196.981967 
L 163.8 -196.981967 
L 163.8 -196.194663 
L 163.8 -195.407359 
L 163.8 -194.620055 
L 163.8 -193.832752 
L 163.8 -193.045448 
L 163.8 -192.258144 
L 163.8 -191.47084 
L 163.8 -190.683536 
L 163.8 -189.896232 
L 163.8 -189.108928 
L 163.8 -188.321624 
L 163.8 -187.534321 
L 163.8 -186.747017 
L 163.8 -185.959713 
L 163.8 -185.172409 
L 163.8 -184.385105 
L 163.8 -183.597801 
L 163.8 -182.810497 
L 163.8 -182.023193 
L 163.8 -181.23589 
L 163.8 -180.448586 
L 163.8 -179.661282 
L 163.8 -178.873978 
L 163.8 -178.086674 
L 163.8 -177.29937 
L 163.8 -176.512066 
L 163.8 -175.724763 
L 163.8 -174.937459 
L 163.8 -174.150155 
L 163.8 -173.362851 
L 163.8 -172.575547 
L 163.8 -171.788243 
L 163.8 -171.000939 
L 163.8 -170.213635 
L 163.8 -169.426332 
L 163.8 -168.639028 
L 163.8 -167.851724 
L 163.8 -167.06442 
L 163.8 -166.277116 
L 163.8 -165.489812 
L 163.8 -164.702508 
L 163.8 -163.915204 
L 163.8 -163.127901 
L 163.8 -162.340597 
L 163.8 -161.553293 
L 163.8 -160.765989 
L 163.8 -159.978685 
L 163.8 -159.191381 
L 163.8 -158.404077 
L 163.8 -157.616774 
L 163.8 -156.82947 
L 163.8 -156.042166 
L 163.8 -155.254862 
L 163.8 -154.467558 
L 163.8 -153.680254 
L 163.8 -152.89295 
L 163.8 -152.105646 
L 163.8 -151.318343 
L 163.8 -150.531039 
L 163.8 -149.743735 
L 163.8 -148.956431 
L 163.8 -148.169127 
L 163.8 -147.381823 
L 163.8 -146.594519 
L 163.8 -145.807215 
L 163.8 -145.019912 
L 163.8 -144.232608 
L 163.8 -143.445304 
L 163.8 -142.658 
L 163.8 -141.870696 
L 163.8 -141.083392 
L 163.8 -140.296088 
L 163.8 -139.508784 
L 163.8 -138.721481 
L 163.8 -137.934177 
L 163.8 -137.146873 
L 163.8 -136.359569 
L 163.8 -135.572265 
L 163.8 -134.784961 
L 163.8 -133.997657 
L 163.8 -133.210354 
L 163.8 -132.42305 
L 163.8 -131.635746 
L 163.8 -130.848442 
L 163.8 -130.061138 
L 163.8 -129.273834 
L 163.8 -128.48653 
L 163.8 -127.699226 
L 163.8 -126.911923 
L 163.8 -126.124619 
L 163.8 -125.337315 
L 163.8 -124.550011 
L 163.8 -123.762707 
L 163.8 -122.975403 
L 163.8 -122.188099 
L 163.8 -121.400795 
L 163.8 -120.613492 
L 163.8 -119.826188 
L 163.8 -119.038884 
z
" style="stroke: #3f3f3f; stroke-width: 1.5"/>
    </defs>
    <g clip-path="url(#p5bae828666)">
     <use xlink:href="#m07fe702a51" x="0" y="576" style="fill: #3274a1; stroke: #3f3f3f; stroke-width: 1.5"/>
    </g>
   </g>
   <g id="patch_4">
    <path d="M 163.8 444.356201 
L 163.8 444.356201 
L 163.8 444.356201 
L 163.8 444.356201 
z
" clip-path="url(#p5bae828666)" style="fill: #e1812c; stroke: #3f3f3f; stroke-width: 0.75; stroke-linejoin: miter"/>
   </g>
   <g id="PolyCollection_2">
    <defs>
     <path id="mcdbe814d8b" d="M 164.153754 -107.680408 
L 163.8 -107.680408 
L 163.8 -111.449248 
L 163.8 -115.218088 
L 163.8 -118.986929 
L 163.8 -122.755769 
L 163.8 -126.524609 
L 163.8 -130.293449 
L 163.8 -134.062289 
L 163.8 -137.83113 
L 163.8 -141.59997 
L 163.8 -145.36881 
L 163.8 -149.13765 
L 163.8 -152.90649 
L 163.8 -156.675331 
L 163.8 -160.444171 
L 163.8 -164.213011 
L 163.8 -167.981851 
L 163.8 -171.750691 
L 163.8 -175.519532 
L 163.8 -179.288372 
L 163.8 -183.057212 
L 163.8 -186.826052 
L 163.8 -190.594892 
L 163.8 -194.363733 
L 163.8 -198.132573 
L 163.8 -201.901413 
L 163.8 -205.670253 
L 163.8 -209.439093 
L 163.8 -213.207934 
L 163.8 -216.976774 
L 163.8 -220.745614 
L 163.8 -224.514454 
L 163.8 -228.283294 
L 163.8 -232.052135 
L 163.8 -235.820975 
L 163.8 -239.589815 
L 163.8 -243.358655 
L 163.8 -247.127495 
L 163.8 -250.896336 
L 163.8 -254.665176 
L 163.8 -258.434016 
L 163.8 -262.202856 
L 163.8 -265.971696 
L 163.8 -269.740537 
L 163.8 -273.509377 
L 163.8 -277.278217 
L 163.8 -281.047057 
L 163.8 -284.815897 
L 163.8 -288.584738 
L 163.8 -292.353578 
L 163.8 -296.122418 
L 163.8 -299.891258 
L 163.8 -303.660098 
L 163.8 -307.428939 
L 163.8 -311.197779 
L 163.8 -314.966619 
L 163.8 -318.735459 
L 163.8 -322.504299 
L 163.8 -326.27314 
L 163.8 -330.04198 
L 163.8 -333.81082 
L 163.8 -337.57966 
L 163.8 -341.3485 
L 163.8 -345.117341 
L 163.8 -348.886181 
L 163.8 -352.655021 
L 163.8 -356.423861 
L 163.8 -360.192701 
L 163.8 -363.961542 
L 163.8 -367.730382 
L 163.8 -371.499222 
L 163.8 -375.268062 
L 163.8 -379.036902 
L 163.8 -382.805743 
L 163.8 -386.574583 
L 163.8 -390.343423 
L 163.8 -394.112263 
L 163.8 -397.881103 
L 163.8 -401.649944 
L 163.8 -405.418784 
L 163.8 -409.187624 
L 163.8 -412.956464 
L 163.8 -416.725304 
L 163.8 -420.494145 
L 163.8 -424.262985 
L 163.8 -428.031825 
L 163.8 -431.800665 
L 163.8 -435.569505 
L 163.8 -439.338346 
L 163.8 -443.107186 
L 163.8 -446.876026 
L 163.8 -450.644866 
L 163.8 -454.413706 
L 163.8 -458.182547 
L 163.8 -461.951387 
L 163.8 -465.720227 
L 163.8 -469.489067 
L 163.8 -473.257907 
L 163.8 -477.026748 
L 163.8 -480.795588 
L 163.862223 -480.795588 
L 163.862223 -480.795588 
L 163.877408 -477.026748 
L 163.895165 -473.257907 
L 163.915628 -469.489067 
L 163.938863 -465.720227 
L 163.964857 -461.951387 
L 163.993502 -458.182547 
L 164.024593 -454.413706 
L 164.057829 -450.644866 
L 164.092816 -446.876026 
L 164.129086 -443.107186 
L 164.166116 -439.338346 
L 164.203358 -435.569505 
L 164.240269 -431.800665 
L 164.276349 -428.031825 
L 164.311171 -424.262985 
L 164.344416 -420.494145 
L 164.375893 -416.725304 
L 164.40556 -412.956464 
L 164.433529 -409.187624 
L 164.460062 -405.418784 
L 164.485563 -401.649944 
L 164.510552 -397.881103 
L 164.535639 -394.112263 
L 164.561494 -390.343423 
L 164.588812 -386.574583 
L 164.618275 -382.805743 
L 164.650529 -379.036902 
L 164.68615 -375.268062 
L 164.725622 -371.499222 
L 164.769319 -367.730382 
L 164.817494 -363.961542 
L 164.870271 -360.192701 
L 164.927639 -356.423861 
L 164.989461 -352.655021 
L 165.055484 -348.886181 
L 165.125353 -345.117341 
L 165.19864 -341.3485 
L 165.274874 -337.57966 
L 165.353583 -333.81082 
L 165.434344 -330.04198 
L 165.516826 -326.27314 
L 165.600846 -322.504299 
L 165.686412 -318.735459 
L 165.773762 -314.966619 
L 165.863383 -311.197779 
L 165.956018 -307.428939 
L 166.052646 -303.660098 
L 166.154437 -299.891258 
L 166.262688 -296.122418 
L 166.378734 -292.353578 
L 166.503848 -288.584738 
L 166.639124 -284.815897 
L 166.785372 -281.047057 
L 166.943015 -277.278217 
L 167.112004 -273.509377 
L 167.291769 -269.740537 
L 167.48119 -265.971696 
L 167.678611 -262.202856 
L 167.881884 -258.434016 
L 168.088441 -254.665176 
L 168.295393 -250.896336 
L 168.49963 -247.127495 
L 168.69794 -243.358655 
L 168.8871 -239.589815 
L 169.063969 -235.820975 
L 169.225549 -232.052135 
L 169.369029 -228.283294 
L 169.491802 -224.514454 
L 169.591478 -220.745614 
L 169.665876 -216.976774 
L 169.71303 -213.207934 
L 169.731198 -209.439093 
L 169.718888 -205.670253 
L 169.674908 -201.901413 
L 169.598432 -198.132573 
L 169.489083 -194.363733 
L 169.347021 -190.594892 
L 169.173028 -186.826052 
L 168.968579 -183.057212 
L 168.735879 -179.288372 
L 168.477866 -175.519532 
L 168.198175 -171.750691 
L 167.901044 -167.981851 
L 167.591192 -164.213011 
L 167.273647 -160.444171 
L 166.953565 -156.675331 
L 166.636026 -152.90649 
L 166.325837 -149.13765 
L 166.027362 -145.36881 
L 165.744367 -141.59997 
L 165.479914 -137.83113 
L 165.236298 -134.062289 
L 165.015024 -130.293449 
L 164.81683 -126.524609 
L 164.641746 -122.755769 
L 164.489182 -118.986929 
L 164.358039 -115.218088 
L 164.24682 -111.449248 
L 164.153754 -107.680408 
z
" style="stroke: #3f3f3f; stroke-width: 1.5"/>
    </defs>
    <g clip-path="url(#p5bae828666)">
     <use xlink:href="#mcdbe814d8b" x="0" y="576" style="fill: #e1812c; stroke: #3f3f3f; stroke-width: 1.5"/>
    </g>
   </g>
   <g id="PolyCollection_3">
    <defs>
     <path id="m6dd4f24420" d="M 275.4 -118.235232 
L 269.643131 -118.235232 
L 268.311453 -118.949995 
L 266.769671 -119.664758 
L 265.010324 -120.379521 
L 263.032343 -121.094283 
L 260.84237 -121.809046 
L 258.455844 -122.523809 
L 255.897753 -123.238571 
L 253.202928 -123.953334 
L 250.415792 -124.668097 
L 247.589501 -125.38286 
L 244.784456 -126.097622 
L 242.06623 -126.812385 
L 239.502981 -127.527148 
L 237.162495 -128.241911 
L 235.109039 -128.956673 
L 233.400217 -129.671436 
L 232.084073 -130.386199 
L 231.196619 -131.100962 
L 230.76 -131.815724 
L 230.781412 -132.530487 
L 231.252864 -133.24525 
L 232.151787 -133.960012 
L 233.442439 -134.674775 
L 235.077988 -135.389538 
L 237.003109 -136.104301 
L 239.156891 -136.819063 
L 241.47585 -137.533826 
L 243.896846 -138.248589 
L 246.359709 -138.963352 
L 248.809452 -139.678114 
L 251.197958 -140.392877 
L 253.485101 -141.10764 
L 255.639304 -141.822403 
L 257.63758 -142.537165 
L 259.465114 -143.251928 
L 261.114513 -143.966691 
L 262.5848 -144.681453 
L 263.880273 -145.396216 
L 265.009325 -146.110979 
L 265.983295 -146.825742 
L 266.815426 -147.540504 
L 267.519954 -148.255267 
L 268.111367 -148.97003 
L 268.60382 -149.684793 
L 269.01072 -150.399555 
L 269.344451 -151.114318 
L 269.616212 -151.829081 
L 269.83596 -152.543844 
L 270.012419 -153.258606 
L 270.153138 -153.973369 
L 270.26458 -154.688132 
L 270.352227 -155.402894 
L 270.420693 -156.117657 
L 270.473827 -156.83242 
L 270.514824 -157.547183 
L 270.546318 -158.261945 
L 270.570471 -158.976708 
L 270.589056 -159.691471 
L 270.603535 -160.406234 
L 270.615126 -161.120996 
L 270.624868 -161.835759 
L 270.633675 -162.550522 
L 270.642395 -163.265285 
L 270.651843 -163.980047 
L 270.662847 -164.69481 
L 270.676271 -165.409573 
L 270.693043 -166.124335 
L 270.714165 -166.839098 
L 270.740724 -167.553861 
L 270.773886 -168.268624 
L 270.814891 -168.983386 
L 270.865025 -169.698149 
L 270.925592 -170.412912 
L 270.997864 -171.127675 
L 271.08303 -171.842437 
L 271.182126 -172.5572 
L 271.295964 -173.271963 
L 271.425059 -173.986725 
L 271.569559 -174.701488 
L 271.729189 -175.416251 
L 271.90321 -176.131014 
L 272.090399 -176.845776 
L 272.289064 -177.560539 
L 272.497076 -178.275302 
L 272.711942 -178.990065 
L 272.930892 -179.704827 
L 273.150989 -180.41959 
L 273.369253 -181.134353 
L 273.58278 -181.849116 
L 273.788865 -182.563878 
L 273.9851 -183.278641 
L 274.169461 -183.993404 
L 274.340363 -184.708166 
L 274.496692 -185.422929 
L 274.637806 -186.137692 
L 274.763519 -186.852455 
L 274.87405 -187.567217 
L 274.969973 -188.28198 
L 275.052145 -188.996743 
L 275.4 -188.996743 
L 275.4 -188.996743 
L 275.4 -188.28198 
L 275.4 -187.567217 
L 275.4 -186.852455 
L 275.4 -186.137692 
L 275.4 -185.422929 
L 275.4 -184.708166 
L 275.4 -183.993404 
L 275.4 -183.278641 
L 275.4 -182.563878 
L 275.4 -181.849116 
L 275.4 -181.134353 
L 275.4 -180.41959 
L 275.4 -179.704827 
L 275.4 -178.990065 
L 275.4 -178.275302 
L 275.4 -177.560539 
L 275.4 -176.845776 
L 275.4 -176.131014 
L 275.4 -175.416251 
L 275.4 -174.701488 
L 275.4 -173.986725 
L 275.4 -173.271963 
L 275.4 -172.5572 
L 275.4 -171.842437 
L 275.4 -171.127675 
L 275.4 -170.412912 
L 275.4 -169.698149 
L 275.4 -168.983386 
L 275.4 -168.268624 
L 275.4 -167.553861 
L 275.4 -166.839098 
L 275.4 -166.124335 
L 275.4 -165.409573 
L 275.4 -164.69481 
L 275.4 -163.980047 
L 275.4 -163.265285 
L 275.4 -162.550522 
L 275.4 -161.835759 
L 275.4 -161.120996 
L 275.4 -160.406234 
L 275.4 -159.691471 
L 275.4 -158.976708 
L 275.4 -158.261945 
L 275.4 -157.547183 
L 275.4 -156.83242 
L 275.4 -156.117657 
L 275.4 -155.402894 
L 275.4 -154.688132 
L 275.4 -153.973369 
L 275.4 -153.258606 
L 275.4 -152.543844 
L 275.4 -151.829081 
L 275.4 -151.114318 
L 275.4 -150.399555 
L 275.4 -149.684793 
L 275.4 -148.97003 
L 275.4 -148.255267 
L 275.4 -147.540504 
L 275.4 -146.825742 
L 275.4 -146.110979 
L 275.4 -145.396216 
L 275.4 -144.681453 
L 275.4 -143.966691 
L 275.4 -143.251928 
L 275.4 -142.537165 
L 275.4 -141.822403 
L 275.4 -141.10764 
L 275.4 -140.392877 
L 275.4 -139.678114 
L 275.4 -138.963352 
L 275.4 -138.248589 
L 275.4 -137.533826 
L 275.4 -136.819063 
L 275.4 -136.104301 
L 275.4 -135.389538 
L 275.4 -134.674775 
L 275.4 -133.960012 
L 275.4 -133.24525 
L 275.4 -132.530487 
L 275.4 -131.815724 
L 275.4 -131.100962 
L 275.4 -130.386199 
L 275.4 -129.671436 
L 275.4 -128.956673 
L 275.4 -128.241911 
L 275.4 -127.527148 
L 275.4 -126.812385 
L 275.4 -126.097622 
L 275.4 -125.38286 
L 275.4 -124.668097 
L 275.4 -123.953334 
L 275.4 -123.238571 
L 275.4 -122.523809 
L 275.4 -121.809046 
L 275.4 -121.094283 
L 275.4 -120.379521 
L 275.4 -119.664758 
L 275.4 -118.949995 
L 275.4 -118.235232 
z
" style="stroke: #3f3f3f; stroke-width: 1.5"/>
    </defs>
    <g clip-path="url(#p5bae828666)">
     <use xlink:href="#m6dd4f24420" x="0" y="576" style="fill: #3274a1; stroke: #3f3f3f; stroke-width: 1.5"/>
    </g>
   </g>
   <g id="PolyCollection_4">
    <defs>
     <path id="m125945d74e" d="M 275.573137 -83.705876 
L 275.4 -83.705876 
L 275.4 -87.248838 
L 275.4 -90.7918 
L 275.4 -94.334762 
L 275.4 -97.877724 
L 275.4 -101.420686 
L 275.4 -104.963648 
L 275.4 -108.50661 
L 275.4 -112.049572 
L 275.4 -115.592534 
L 275.4 -119.135496 
L 275.4 -122.678458 
L 275.4 -126.22142 
L 275.4 -129.764382 
L 275.4 -133.307344 
L 275.4 -136.850306 
L 275.4 -140.393268 
L 275.4 -143.93623 
L 275.4 -147.479192 
L 275.4 -151.022154 
L 275.4 -154.565116 
L 275.4 -158.108078 
L 275.4 -161.65104 
L 275.4 -165.194002 
L 275.4 -168.736964 
L 275.4 -172.279926 
L 275.4 -175.822888 
L 275.4 -179.36585 
L 275.4 -182.908812 
L 275.4 -186.451774 
L 275.4 -189.994736 
L 275.4 -193.537698 
L 275.4 -197.08066 
L 275.4 -200.623622 
L 275.4 -204.166584 
L 275.4 -207.709546 
L 275.4 -211.252508 
L 275.4 -214.79547 
L 275.4 -218.338432 
L 275.4 -221.881394 
L 275.4 -225.424356 
L 275.4 -228.967318 
L 275.4 -232.51028 
L 275.4 -236.053242 
L 275.4 -239.596204 
L 275.4 -243.139166 
L 275.4 -246.682128 
L 275.4 -250.22509 
L 275.4 -253.768052 
L 275.4 -257.311014 
L 275.4 -260.853976 
L 275.4 -264.396938 
L 275.4 -267.9399 
L 275.4 -271.482862 
L 275.4 -275.025824 
L 275.4 -278.568786 
L 275.4 -282.111748 
L 275.4 -285.654711 
L 275.4 -289.197673 
L 275.4 -292.740635 
L 275.4 -296.283597 
L 275.4 -299.826559 
L 275.4 -303.369521 
L 275.4 -306.912483 
L 275.4 -310.455445 
L 275.4 -313.998407 
L 275.4 -317.541369 
L 275.4 -321.084331 
L 275.4 -324.627293 
L 275.4 -328.170255 
L 275.4 -331.713217 
L 275.4 -335.256179 
L 275.4 -338.799141 
L 275.4 -342.342103 
L 275.4 -345.885065 
L 275.4 -349.428027 
L 275.4 -352.970989 
L 275.4 -356.513951 
L 275.4 -360.056913 
L 275.4 -363.599875 
L 275.4 -367.142837 
L 275.4 -370.685799 
L 275.4 -374.228761 
L 275.4 -377.771723 
L 275.4 -381.314685 
L 275.4 -384.857647 
L 275.4 -388.400609 
L 275.4 -391.943571 
L 275.4 -395.486533 
L 275.4 -399.029495 
L 275.4 -402.572457 
L 275.4 -406.115419 
L 275.4 -409.658381 
L 275.4 -413.201343 
L 275.4 -416.744305 
L 275.4 -420.287267 
L 275.4 -423.830229 
L 275.4 -427.373191 
L 275.4 -430.916153 
L 275.4 -434.459115 
L 275.481086 -434.459115 
L 275.481086 -434.459115 
L 275.501613 -430.916153 
L 275.526035 -427.373191 
L 275.554751 -423.830229 
L 275.588118 -420.287267 
L 275.626438 -416.744305 
L 275.669936 -413.201343 
L 275.718743 -409.658381 
L 275.77288 -406.115419 
L 275.832247 -402.572457 
L 275.896617 -399.029495 
L 275.965633 -395.486533 
L 276.038814 -391.943571 
L 276.115566 -388.400609 
L 276.195196 -384.857647 
L 276.276935 -381.314685 
L 276.35996 -377.771723 
L 276.443422 -374.228761 
L 276.526473 -370.685799 
L 276.608292 -367.142837 
L 276.688105 -363.599875 
L 276.765213 -360.056913 
L 276.839 -356.513951 
L 276.90895 -352.970989 
L 276.974656 -349.428027 
L 277.035819 -345.885065 
L 277.092255 -342.342103 
L 277.143897 -338.799141 
L 277.190791 -335.256179 
L 277.233104 -331.713217 
L 277.271127 -328.170255 
L 277.305286 -324.627293 
L 277.33615 -321.084331 
L 277.36445 -317.541369 
L 277.39109 -313.998407 
L 277.417162 -310.455445 
L 277.443954 -306.912483 
L 277.472953 -303.369521 
L 277.50583 -299.826559 
L 277.544421 -296.283597 
L 277.590686 -292.740635 
L 277.646649 -289.197673 
L 277.714331 -285.654711 
L 277.795662 -282.111748 
L 277.892381 -278.568786 
L 278.005942 -275.025824 
L 278.137414 -271.482862 
L 278.287392 -267.9399 
L 278.455923 -264.396938 
L 278.642463 -260.853976 
L 278.845846 -257.311014 
L 279.0643 -253.768052 
L 279.295484 -250.22509 
L 279.536551 -246.682128 
L 279.784247 -243.139166 
L 280.035014 -239.596204 
L 280.285111 -236.053242 
L 280.530731 -232.51028 
L 280.768112 -228.967318 
L 280.993632 -225.424356 
L 281.203882 -221.881394 
L 281.395715 -218.338432 
L 281.566276 -214.79547 
L 281.713007 -211.252508 
L 281.833637 -207.709546 
L 281.926171 -204.166584 
L 281.988869 -200.623622 
L 282.020244 -197.08066 
L 282.019065 -193.537698 
L 281.984383 -189.994736 
L 281.915576 -186.451774 
L 281.812405 -182.908812 
L 281.675087 -179.36585 
L 281.50436 -175.822888 
L 281.301553 -172.279926 
L 281.068624 -168.736964 
L 280.808185 -165.194002 
L 280.523485 -161.65104 
L 280.218356 -158.108078 
L 279.897125 -154.565116 
L 279.564494 -151.022154 
L 279.225386 -147.479192 
L 278.884782 -143.93623 
L 278.547546 -140.393268 
L 278.21826 -136.850306 
L 277.901072 -133.307344 
L 277.599575 -129.764382 
L 277.316711 -126.22142 
L 277.05472 -122.678458 
L 276.815118 -119.135496 
L 276.598719 -115.592534 
L 276.405679 -112.049572 
L 276.235573 -108.50661 
L 276.087483 -104.963648 
L 275.960099 -101.420686 
L 275.851823 -97.877724 
L 275.760871 -94.334762 
L 275.685361 -90.7918 
L 275.623399 -87.248838 
L 275.573137 -83.705876 
z
" style="stroke: #3f3f3f; stroke-width: 1.5"/>
    </defs>
    <g clip-path="url(#p5bae828666)">
     <use xlink:href="#m125945d74e" x="0" y="576" style="fill: #e1812c; stroke: #3f3f3f; stroke-width: 1.5"/>
    </g>
   </g>
   <g id="PolyCollection_5">
    <defs>
     <path id="m6dd9da7fe8" d="M 387 -117.366849 
L 381.296365 -117.366849 
L 379.86325 -118.187931 
L 378.186424 -119.009014 
L 376.257279 -119.830096 
L 374.076034 -120.651178 
L 371.653582 -121.472261 
L 369.012949 -122.293343 
L 366.190162 -123.114426 
L 363.234357 -123.935508 
L 360.206972 -124.75659 
L 357.179984 -125.577673 
L 354.233184 -126.398755 
L 351.45062 -127.219837 
L 348.916404 -128.04092 
L 346.710176 -128.862002 
L 344.902557 -129.683084 
L 343.550981 -130.504167 
L 342.69623 -131.325249 
L 342.36 -132.146331 
L 342.543693 -132.967414 
L 343.228549 -133.788496 
L 344.377097 -134.609578 
L 345.935792 -135.430661 
L 347.838584 -136.251743 
L 350.011123 -137.072826 
L 352.375226 -137.893908 
L 354.853256 -138.71499 
L 357.372091 -139.536073 
L 359.866406 -140.357155 
L 362.281108 -141.178237 
L 364.572816 -141.99932 
L 366.7104 -142.820402 
L 368.674651 -143.641484 
L 370.457223 -144.462567 
L 372.059031 -145.283649 
L 373.488306 -146.104731 
L 374.758497 -146.925814 
L 375.886201 -147.746896 
L 376.889283 -148.567978 
L 377.785279 -149.389061 
L 378.590164 -150.210143 
L 379.317519 -151.031225 
L 379.978085 -151.852308 
L 380.579676 -152.67339 
L 381.127401 -153.494473 
L 381.624109 -154.315555 
L 382.070992 -155.136637 
L 382.468263 -155.95772 
L 382.815826 -156.778802 
L 383.113882 -157.599884 
L 383.363422 -158.420967 
L 383.566558 -159.242049 
L 383.726688 -160.063131 
L 383.848487 -160.884214 
L 383.937736 -161.705296 
L 384.001027 -162.526378 
L 384.045361 -163.347461 
L 384.077708 -164.168543 
L 384.104548 -164.989625 
L 384.131455 -165.810708 
L 384.162757 -166.63179 
L 384.201295 -167.452872 
L 384.248315 -168.273955 
L 384.303487 -169.095037 
L 384.365056 -169.91612 
L 384.430107 -170.737202 
L 384.494924 -171.558284 
L 384.555402 -172.379367 
L 384.607485 -173.200449 
L 384.647593 -174.021531 
L 384.672995 -174.842614 
L 384.682107 -175.663696 
L 384.674683 -176.484778 
L 384.651893 -177.305861 
L 384.616277 -178.126943 
L 384.571586 -178.948025 
L 384.522522 -179.769108 
L 384.474399 -180.59019 
L 384.432764 -181.411272 
L 384.402995 -182.232355 
L 384.38992 -183.053437 
L 384.39749 -183.874519 
L 384.428522 -184.695602 
L 384.484531 -185.516684 
L 384.565668 -186.337767 
L 384.670762 -187.158849 
L 384.797446 -187.979931 
L 384.942365 -188.801014 
L 385.101439 -189.622096 
L 385.270154 -190.443178 
L 385.443851 -191.264261 
L 385.618011 -192.085343 
L 385.788481 -192.906425 
L 385.951668 -193.727508 
L 386.104659 -194.54859 
L 386.245285 -195.369672 
L 386.37213 -196.190755 
L 386.484487 -197.011837 
L 386.58228 -197.832919 
L 386.665958 -198.654002 
L 387 -198.654002 
L 387 -198.654002 
L 387 -197.832919 
L 387 -197.011837 
L 387 -196.190755 
L 387 -195.369672 
L 387 -194.54859 
L 387 -193.727508 
L 387 -192.906425 
L 387 -192.085343 
L 387 -191.264261 
L 387 -190.443178 
L 387 -189.622096 
L 387 -188.801014 
L 387 -187.979931 
L 387 -187.158849 
L 387 -186.337767 
L 387 -185.516684 
L 387 -184.695602 
L 387 -183.874519 
L 387 -183.053437 
L 387 -182.232355 
L 387 -181.411272 
L 387 -180.59019 
L 387 -179.769108 
L 387 -178.948025 
L 387 -178.126943 
L 387 -177.305861 
L 387 -176.484778 
L 387 -175.663696 
L 387 -174.842614 
L 387 -174.021531 
L 387 -173.200449 
L 387 -172.379367 
L 387 -171.558284 
L 387 -170.737202 
L 387 -169.91612 
L 387 -169.095037 
L 387 -168.273955 
L 387 -167.452872 
L 387 -166.63179 
L 387 -165.810708 
L 387 -164.989625 
L 387 -164.168543 
L 387 -163.347461 
L 387 -162.526378 
L 387 -161.705296 
L 387 -160.884214 
L 387 -160.063131 
L 387 -159.242049 
L 387 -158.420967 
L 387 -157.599884 
L 387 -156.778802 
L 387 -155.95772 
L 387 -155.136637 
L 387 -154.315555 
L 387 -153.494473 
L 387 -152.67339 
L 387 -151.852308 
L 387 -151.031225 
L 387 -150.210143 
L 387 -149.389061 
L 387 -148.567978 
L 387 -147.746896 
L 387 -146.925814 
L 387 -146.104731 
L 387 -145.283649 
L 387 -144.462567 
L 387 -143.641484 
L 387 -142.820402 
L 387 -141.99932 
L 387 -141.178237 
L 387 -140.357155 
L 387 -139.536073 
L 387 -138.71499 
L 387 -137.893908 
L 387 -137.072826 
L 387 -136.251743 
L 387 -135.430661 
L 387 -134.609578 
L 387 -133.788496 
L 387 -132.967414 
L 387 -132.146331 
L 387 -131.325249 
L 387 -130.504167 
L 387 -129.683084 
L 387 -128.862002 
L 387 -128.04092 
L 387 -127.219837 
L 387 -126.398755 
L 387 -125.577673 
L 387 -124.75659 
L 387 -123.935508 
L 387 -123.114426 
L 387 -122.293343 
L 387 -121.472261 
L 387 -120.651178 
L 387 -119.830096 
L 387 -119.009014 
L 387 -118.187931 
L 387 -117.366849 
z
" style="stroke: #3f3f3f; stroke-width: 1.5"/>
    </defs>
    <g clip-path="url(#p5bae828666)">
     <use xlink:href="#m6dd9da7fe8" x="0" y="576" style="fill: #3274a1; stroke: #3f3f3f; stroke-width: 1.5"/>
    </g>
   </g>
   <g id="PolyCollection_6">
    <defs>
     <path id="m22a2430e97" d="M 387.142131 -86.513503 
L 387 -86.513503 
L 387 -90.266075 
L 387 -94.018647 
L 387 -97.771219 
L 387 -101.523791 
L 387 -105.276362 
L 387 -109.028934 
L 387 -112.781506 
L 387 -116.534078 
L 387 -120.28665 
L 387 -124.039222 
L 387 -127.791793 
L 387 -131.544365 
L 387 -135.296937 
L 387 -139.049509 
L 387 -142.802081 
L 387 -146.554653 
L 387 -150.307224 
L 387 -154.059796 
L 387 -157.812368 
L 387 -161.56494 
L 387 -165.317512 
L 387 -169.070084 
L 387 -172.822655 
L 387 -176.575227 
L 387 -180.327799 
L 387 -184.080371 
L 387 -187.832943 
L 387 -191.585515 
L 387 -195.338086 
L 387 -199.090658 
L 387 -202.84323 
L 387 -206.595802 
L 387 -210.348374 
L 387 -214.100946 
L 387 -217.853517 
L 387 -221.606089 
L 387 -225.358661 
L 387 -229.111233 
L 387 -232.863805 
L 387 -236.616376 
L 387 -240.368948 
L 387 -244.12152 
L 387 -247.874092 
L 387 -251.626664 
L 387 -255.379236 
L 387 -259.131807 
L 387 -262.884379 
L 387 -266.636951 
L 387 -270.389523 
L 387 -274.142095 
L 387 -277.894667 
L 387 -281.647238 
L 387 -285.39981 
L 387 -289.152382 
L 387 -292.904954 
L 387 -296.657526 
L 387 -300.410098 
L 387 -304.162669 
L 387 -307.915241 
L 387 -311.667813 
L 387 -315.420385 
L 387 -319.172957 
L 387 -322.925529 
L 387 -326.6781 
L 387 -330.430672 
L 387 -334.183244 
L 387 -337.935816 
L 387 -341.688388 
L 387 -345.440959 
L 387 -349.193531 
L 387 -352.946103 
L 387 -356.698675 
L 387 -360.451247 
L 387 -364.203819 
L 387 -367.95639 
L 387 -371.708962 
L 387 -375.461534 
L 387 -379.214106 
L 387 -382.966678 
L 387 -386.71925 
L 387 -390.471821 
L 387 -394.224393 
L 387 -397.976965 
L 387 -401.729537 
L 387 -405.482109 
L 387 -409.234681 
L 387 -412.987252 
L 387 -416.739824 
L 387 -420.492396 
L 387 -424.244968 
L 387 -427.99754 
L 387 -431.750112 
L 387 -435.502683 
L 387 -439.255255 
L 387 -443.007827 
L 387 -446.760399 
L 387 -450.512971 
L 387 -454.265543 
L 387 -458.018114 
L 387.096884 -458.018114 
L 387.096884 -458.018114 
L 387.121547 -454.265543 
L 387.151035 -450.512971 
L 387.185907 -446.760399 
L 387.226695 -443.007827 
L 387.273882 -439.255255 
L 387.327874 -435.502683 
L 387.388976 -431.750112 
L 387.457365 -427.99754 
L 387.533065 -424.244968 
L 387.615927 -420.492396 
L 387.70561 -416.739824 
L 387.801569 -412.987252 
L 387.903051 -409.234681 
L 388.009097 -405.482109 
L 388.118548 -401.729537 
L 388.230065 -397.976965 
L 388.34215 -394.224393 
L 388.45318 -390.471821 
L 388.561443 -386.71925 
L 388.665182 -382.966678 
L 388.762645 -379.214106 
L 388.852139 -375.461534 
L 388.932087 -371.708962 
L 389.001087 -367.95639 
L 389.057974 -364.203819 
L 389.101875 -360.451247 
L 389.132271 -356.698675 
L 389.149045 -352.946103 
L 389.152521 -349.193531 
L 389.143499 -345.440959 
L 389.12327 -341.688388 
L 389.093613 -337.935816 
L 389.056781 -334.183244 
L 389.015456 -330.430672 
L 388.972694 -326.6781 
L 388.931842 -322.925529 
L 388.896445 -319.172957 
L 388.870133 -315.420385 
L 388.856496 -311.667813 
L 388.858966 -307.915241 
L 388.880684 -304.162669 
L 388.924387 -300.410098 
L 388.992297 -296.657526 
L 389.086038 -292.904954 
L 389.206564 -289.152382 
L 389.354123 -285.39981 
L 389.52824 -281.647238 
L 389.727726 -277.894667 
L 389.950719 -274.142095 
L 390.194739 -270.389523 
L 390.456767 -266.636951 
L 390.733325 -262.884379 
L 391.020577 -259.131807 
L 391.314422 -255.379236 
L 391.610577 -251.626664 
L 391.904668 -247.874092 
L 392.192296 -244.12152 
L 392.469099 -240.368948 
L 392.730804 -236.616376 
L 392.973269 -232.863805 
L 393.192528 -229.111233 
L 393.384829 -225.358661 
L 393.546682 -221.606089 
L 393.674916 -217.853517 
L 393.76674 -214.100946 
L 393.81982 -210.348374 
L 393.832358 -206.595802 
L 393.803174 -202.84323 
L 393.731784 -199.090658 
L 393.618465 -195.338086 
L 393.464304 -191.585515 
L 393.271216 -187.832943 
L 393.041931 -184.080371 
L 392.779948 -180.327799 
L 392.489457 -176.575227 
L 392.175214 -172.822655 
L 391.842405 -169.070084 
L 391.496482 -165.317512 
L 391.142981 -161.56494 
L 390.787354 -157.812368 
L 390.434793 -154.059796 
L 390.090087 -150.307224 
L 389.757489 -146.554653 
L 389.440627 -142.802081 
L 389.142439 -139.049509 
L 388.865146 -135.296937 
L 388.610256 -131.544365 
L 388.378595 -127.791793 
L 388.170366 -124.039222 
L 387.985225 -120.28665 
L 387.82236 -116.534078 
L 387.680593 -112.781506 
L 387.558466 -109.028934 
L 387.454333 -105.276362 
L 387.366442 -101.523791 
L 387.293002 -97.771219 
L 387.232248 -94.018647 
L 387.182487 -90.266075 
L 387.142131 -86.513503 
z
" style="stroke: #3f3f3f; stroke-width: 1.5"/>
    </defs>
    <g clip-path="url(#p5bae828666)">
     <use xlink:href="#m22a2430e97" x="0" y="576" style="fill: #e1812c; stroke: #3f3f3f; stroke-width: 1.5"/>
    </g>
   </g>
   <g id="PolyCollection_7">
    <defs>
     <path id="m09942d4ab7" d="M 498.6 -119.205844 
L 493.887952 -119.205844 
L 492.889589 -119.812222 
L 491.743264 -120.4186 
L 490.44212 -121.024977 
L 488.982397 -121.631355 
L 487.364079 -122.237733 
L 485.591462 -122.844111 
L 483.673585 -123.450489 
L 481.624491 -124.056867 
L 479.463267 -124.663245 
L 477.213842 -125.269623 
L 474.904532 -125.876001 
L 472.56732 -126.482379 
L 470.23692 -127.088756 
L 467.949631 -127.695134 
L 465.742073 -128.301512 
L 463.649848 -128.90789 
L 461.706227 -129.514268 
L 459.940921 -130.120646 
L 458.379031 -130.727024 
L 457.040234 -131.333402 
L 455.938245 -131.93978 
L 455.080598 -132.546158 
L 454.468721 -133.152535 
L 454.098322 -133.758913 
L 453.96 -134.365291 
L 454.040066 -134.971669 
L 454.321473 -135.578047 
L 454.784796 -136.184425 
L 455.409198 -136.790803 
L 456.173315 -137.397181 
L 457.056006 -138.003559 
L 458.036959 -138.609937 
L 459.097126 -139.216314 
L 460.218991 -139.822692 
L 461.3867 -140.42907 
L 462.586071 -141.035448 
L 463.804518 -141.641826 
L 465.030931 -142.248204 
L 466.255525 -142.854582 
L 467.469702 -143.46096 
L 468.665923 -144.067338 
L 469.837613 -144.673716 
L 470.97909 -145.280093 
L 472.085512 -145.886471 
L 473.152849 -146.492849 
L 474.17785 -147.099227 
L 475.158009 -147.705605 
L 476.091525 -148.311983 
L 476.97725 -148.918361 
L 477.814624 -149.524739 
L 478.603604 -150.131117 
L 479.344589 -150.737495 
L 480.038349 -151.343872 
L 480.685961 -151.95025 
L 481.288757 -152.556628 
L 481.848283 -153.163006 
L 482.366276 -153.769384 
L 482.844651 -154.375762 
L 483.285502 -154.98214 
L 483.691108 -155.588518 
L 484.063949 -156.194896 
L 484.406716 -156.801274 
L 484.722335 -157.407651 
L 485.013975 -158.014029 
L 485.285063 -158.620407 
L 485.539282 -159.226785 
L 485.78057 -159.833163 
L 486.0131 -160.439541 
L 486.241242 -161.045919 
L 486.469512 -161.652297 
L 486.702491 -162.258675 
L 486.944728 -162.865053 
L 487.200616 -163.47143 
L 487.474249 -164.077808 
L 487.769272 -164.684186 
L 488.088717 -165.290564 
L 488.434851 -165.896942 
L 488.809045 -166.50332 
L 489.211664 -167.109698 
L 489.641999 -167.716076 
L 490.098252 -168.322454 
L 490.577568 -168.928832 
L 491.07612 -169.535209 
L 491.589247 -170.141587 
L 492.111638 -170.747965 
L 492.637539 -171.354343 
L 493.16099 -171.960721 
L 493.676059 -172.567099 
L 494.177077 -173.173477 
L 494.658837 -173.779855 
L 495.116776 -174.386233 
L 495.547101 -174.992611 
L 495.94688 -175.598988 
L 496.314079 -176.205366 
L 496.64756 -176.811744 
L 496.947032 -177.418122 
L 497.212974 -178.0245 
L 497.446533 -178.630878 
L 497.649401 -179.237256 
L 498.6 -179.237256 
L 498.6 -179.237256 
L 498.6 -178.630878 
L 498.6 -178.0245 
L 498.6 -177.418122 
L 498.6 -176.811744 
L 498.6 -176.205366 
L 498.6 -175.598988 
L 498.6 -174.992611 
L 498.6 -174.386233 
L 498.6 -173.779855 
L 498.6 -173.173477 
L 498.6 -172.567099 
L 498.6 -171.960721 
L 498.6 -171.354343 
L 498.6 -170.747965 
L 498.6 -170.141587 
L 498.6 -169.535209 
L 498.6 -168.928832 
L 498.6 -168.322454 
L 498.6 -167.716076 
L 498.6 -167.109698 
L 498.6 -166.50332 
L 498.6 -165.896942 
L 498.6 -165.290564 
L 498.6 -164.684186 
L 498.6 -164.077808 
L 498.6 -163.47143 
L 498.6 -162.865053 
L 498.6 -162.258675 
L 498.6 -161.652297 
L 498.6 -161.045919 
L 498.6 -160.439541 
L 498.6 -159.833163 
L 498.6 -159.226785 
L 498.6 -158.620407 
L 498.6 -158.014029 
L 498.6 -157.407651 
L 498.6 -156.801274 
L 498.6 -156.194896 
L 498.6 -155.588518 
L 498.6 -154.98214 
L 498.6 -154.375762 
L 498.6 -153.769384 
L 498.6 -153.163006 
L 498.6 -152.556628 
L 498.6 -151.95025 
L 498.6 -151.343872 
L 498.6 -150.737495 
L 498.6 -150.131117 
L 498.6 -149.524739 
L 498.6 -148.918361 
L 498.6 -148.311983 
L 498.6 -147.705605 
L 498.6 -147.099227 
L 498.6 -146.492849 
L 498.6 -145.886471 
L 498.6 -145.280093 
L 498.6 -144.673716 
L 498.6 -144.067338 
L 498.6 -143.46096 
L 498.6 -142.854582 
L 498.6 -142.248204 
L 498.6 -141.641826 
L 498.6 -141.035448 
L 498.6 -140.42907 
L 498.6 -139.822692 
L 498.6 -139.216314 
L 498.6 -138.609937 
L 498.6 -138.003559 
L 498.6 -137.397181 
L 498.6 -136.790803 
L 498.6 -136.184425 
L 498.6 -135.578047 
L 498.6 -134.971669 
L 498.6 -134.365291 
L 498.6 -133.758913 
L 498.6 -133.152535 
L 498.6 -132.546158 
L 498.6 -131.93978 
L 498.6 -131.333402 
L 498.6 -130.727024 
L 498.6 -130.120646 
L 498.6 -129.514268 
L 498.6 -128.90789 
L 498.6 -128.301512 
L 498.6 -127.695134 
L 498.6 -127.088756 
L 498.6 -126.482379 
L 498.6 -125.876001 
L 498.6 -125.269623 
L 498.6 -124.663245 
L 498.6 -124.056867 
L 498.6 -123.450489 
L 498.6 -122.844111 
L 498.6 -122.237733 
L 498.6 -121.631355 
L 498.6 -121.024977 
L 498.6 -120.4186 
L 498.6 -119.812222 
L 498.6 -119.205844 
z
" style="stroke: #3f3f3f; stroke-width: 1.5"/>
    </defs>
    <g clip-path="url(#p5bae828666)">
     <use xlink:href="#m09942d4ab7" x="0" y="576" style="fill: #3274a1; stroke: #3f3f3f; stroke-width: 1.5"/>
    </g>
   </g>
   <g id="PolyCollection_8">
    <defs>
     <path id="m40fc3f428d" d="M 498.756291 -94.745821 
L 498.6 -94.745821 
L 498.6 -98.42086 
L 498.6 -102.095899 
L 498.6 -105.770938 
L 498.6 -109.445976 
L 498.6 -113.121015 
L 498.6 -116.796054 
L 498.6 -120.471093 
L 498.6 -124.146132 
L 498.6 -127.821171 
L 498.6 -131.49621 
L 498.6 -135.171249 
L 498.6 -138.846288 
L 498.6 -142.521327 
L 498.6 -146.196366 
L 498.6 -149.871404 
L 498.6 -153.546443 
L 498.6 -157.221482 
L 498.6 -160.896521 
L 498.6 -164.57156 
L 498.6 -168.246599 
L 498.6 -171.921638 
L 498.6 -175.596677 
L 498.6 -179.271716 
L 498.6 -182.946755 
L 498.6 -186.621793 
L 498.6 -190.296832 
L 498.6 -193.971871 
L 498.6 -197.64691 
L 498.6 -201.321949 
L 498.6 -204.996988 
L 498.6 -208.672027 
L 498.6 -212.347066 
L 498.6 -216.022105 
L 498.6 -219.697144 
L 498.6 -223.372183 
L 498.6 -227.047221 
L 498.6 -230.72226 
L 498.6 -234.397299 
L 498.6 -238.072338 
L 498.6 -241.747377 
L 498.6 -245.422416 
L 498.6 -249.097455 
L 498.6 -252.772494 
L 498.6 -256.447533 
L 498.6 -260.122572 
L 498.6 -263.79761 
L 498.6 -267.472649 
L 498.6 -271.147688 
L 498.6 -274.822727 
L 498.6 -278.497766 
L 498.6 -282.172805 
L 498.6 -285.847844 
L 498.6 -289.522883 
L 498.6 -293.197922 
L 498.6 -296.872961 
L 498.6 -300.548 
L 498.6 -304.223038 
L 498.6 -307.898077 
L 498.6 -311.573116 
L 498.6 -315.248155 
L 498.6 -318.923194 
L 498.6 -322.598233 
L 498.6 -326.273272 
L 498.6 -329.948311 
L 498.6 -333.62335 
L 498.6 -337.298389 
L 498.6 -340.973428 
L 498.6 -344.648466 
L 498.6 -348.323505 
L 498.6 -351.998544 
L 498.6 -355.673583 
L 498.6 -359.348622 
L 498.6 -363.023661 
L 498.6 -366.6987 
L 498.6 -370.373739 
L 498.6 -374.048778 
L 498.6 -377.723817 
L 498.6 -381.398855 
L 498.6 -385.073894 
L 498.6 -388.748933 
L 498.6 -392.423972 
L 498.6 -396.099011 
L 498.6 -399.77405 
L 498.6 -403.449089 
L 498.6 -407.124128 
L 498.6 -410.799167 
L 498.6 -414.474206 
L 498.6 -418.149245 
L 498.6 -421.824283 
L 498.6 -425.499322 
L 498.6 -429.174361 
L 498.6 -432.8494 
L 498.6 -436.524439 
L 498.6 -440.199478 
L 498.6 -443.874517 
L 498.6 -447.549556 
L 498.6 -451.224595 
L 498.6 -454.899634 
L 498.6 -458.574672 
L 498.697091 -458.574672 
L 498.697091 -458.574672 
L 498.722687 -454.899634 
L 498.753132 -451.224595 
L 498.78882 -447.549556 
L 498.830054 -443.874517 
L 498.877013 -440.199478 
L 498.92973 -436.524439 
L 498.988079 -432.8494 
L 499.051765 -429.174361 
L 499.120329 -425.499322 
L 499.193162 -421.824283 
L 499.269531 -418.149245 
L 499.348617 -414.474206 
L 499.429549 -410.799167 
L 499.511456 -407.124128 
L 499.593503 -403.449089 
L 499.674929 -399.77405 
L 499.755076 -396.099011 
L 499.833397 -392.423972 
L 499.909468 -388.748933 
L 499.982966 -385.073894 
L 500.053657 -381.398855 
L 500.121359 -377.723817 
L 500.185919 -374.048778 
L 500.247187 -370.373739 
L 500.304991 -366.6987 
L 500.359142 -363.023661 
L 500.409447 -359.348622 
L 500.455737 -355.673583 
L 500.497929 -351.998544 
L 500.53609 -348.323505 
L 500.570526 -344.648466 
L 500.601863 -340.973428 
L 500.631141 -337.298389 
L 500.659884 -333.62335 
L 500.690155 -329.948311 
L 500.724577 -326.273272 
L 500.766316 -322.598233 
L 500.819023 -318.923194 
L 500.886729 -315.248155 
L 500.973693 -311.573116 
L 501.084212 -307.898077 
L 501.222399 -304.223038 
L 501.391945 -300.548 
L 501.595869 -296.872961 
L 501.836279 -293.197922 
L 502.114165 -289.522883 
L 502.429222 -285.847844 
L 502.779732 -282.172805 
L 503.162505 -278.497766 
L 503.572891 -274.822727 
L 504.004859 -271.147688 
L 504.45115 -267.472649 
L 504.90349 -263.79761 
L 505.352861 -260.122572 
L 505.789815 -256.447533 
L 506.204816 -252.772494 
L 506.588591 -249.097455 
L 506.932488 -245.422416 
L 507.228795 -241.747377 
L 507.471027 -238.072338 
L 507.654162 -234.397299 
L 507.774793 -230.72226 
L 507.831217 -227.047221 
L 507.823434 -223.372183 
L 507.753063 -219.697144 
L 507.623187 -216.022105 
L 507.438137 -212.347066 
L 507.203229 -208.672027 
L 506.924471 -204.996988 
L 506.608275 -201.321949 
L 506.261177 -197.64691 
L 505.889594 -193.971871 
L 505.49963 -190.296832 
L 505.096929 -186.621793 
L 504.6866 -182.946755 
L 504.273177 -179.271716 
L 503.860638 -175.596677 
L 503.452453 -171.921638 
L 503.051645 -168.246599 
L 502.660867 -164.57156 
L 502.282468 -160.896521 
L 501.918543 -157.221482 
L 501.570967 -153.546443 
L 501.241405 -149.871404 
L 500.931303 -146.196366 
L 500.641866 -142.521327 
L 500.374027 -138.846288 
L 500.128415 -135.171249 
L 499.905328 -131.49621 
L 499.70472 -127.821171 
L 499.526196 -124.146132 
L 499.369034 -120.471093 
L 499.232211 -116.796054 
L 499.114449 -113.121015 
L 499.014272 -109.445976 
L 498.930064 -105.770938 
L 498.860133 -102.095899 
L 498.802767 -98.42086 
L 498.756291 -94.745821 
z
" style="stroke: #3f3f3f; stroke-width: 1.5"/>
    </defs>
    <g clip-path="url(#p5bae828666)">
     <use xlink:href="#m40fc3f428d" x="0" y="576" style="fill: #e1812c; stroke: #3f3f3f; stroke-width: 1.5"/>
    </g>
   </g>
   <g id="PolyCollection_9">
    <defs>
     <path id="ma472b7b64b" d="M 610.2 -113.896114 
L 605.680719 -113.896114 
L 604.571182 -114.876089 
L 603.27049 -115.856063 
L 601.767603 -116.836038 
L 600.056423 -117.816013 
L 598.137034 -118.795988 
L 596.016797 -119.775962 
L 593.711178 -120.755937 
L 591.244223 -121.735912 
L 588.64859 -122.715886 
L 585.965073 -123.695861 
L 583.241606 -124.675836 
L 580.53176 -125.655811 
L 577.892798 -126.635785 
L 575.383392 -127.61576 
L 573.061142 -128.595735 
L 570.980062 -129.57571 
L 569.188187 -130.555684 
L 567.725486 -131.535659 
L 566.622197 -132.515634 
L 565.897702 -133.495609 
L 565.56 -134.475583 
L 565.605776 -135.455558 
L 566.021055 -136.435533 
L 566.782344 -137.415508 
L 567.858167 -138.395482 
L 569.210864 -139.375457 
L 570.798519 -140.355432 
L 572.576902 -141.335406 
L 574.501298 -142.315381 
L 576.528144 -143.295356 
L 578.616402 -144.275331 
L 580.728643 -145.255305 
L 582.831817 -146.23528 
L 584.897718 -147.215255 
L 586.903172 -148.19523 
L 588.829988 -149.175204 
L 590.664702 -150.155179 
L 592.398165 -151.135154 
L 594.025026 -152.115129 
L 595.543142 -153.095103 
L 596.952956 -154.075078 
L 598.256883 -155.055053 
L 599.45872 -156.035027 
L 600.563119 -157.015002 
L 601.575118 -157.994977 
L 602.499766 -158.974952 
L 603.341825 -159.954926 
L 604.10557 -160.934901 
L 604.794666 -161.914876 
L 605.412134 -162.894851 
L 605.960372 -163.874825 
L 606.441246 -164.8548 
L 606.856214 -165.834775 
L 607.206486 -166.81475 
L 607.493195 -167.794724 
L 607.717575 -168.774699 
L 607.881132 -169.754674 
L 607.985799 -170.734649 
L 608.034062 -171.714623 
L 608.029067 -172.694598 
L 607.974681 -173.674573 
L 607.875521 -174.654547 
L 607.736949 -175.634522 
L 607.565017 -176.614497 
L 607.366386 -177.594472 
L 607.148207 -178.574446 
L 606.917971 -179.554421 
L 606.683339 -180.534396 
L 606.451954 -181.514371 
L 606.231247 -182.494345 
L 606.028241 -183.47432 
L 605.849363 -184.454295 
L 605.700272 -185.43427 
L 605.58571 -186.414244 
L 605.50938 -187.394219 
L 605.473856 -188.374194 
L 605.48053 -189.354168 
L 605.529594 -190.334143 
L 605.620066 -191.314118 
L 605.749846 -192.294093 
L 605.915821 -193.274067 
L 606.113987 -194.254042 
L 606.339615 -195.234017 
L 606.587435 -196.213992 
L 606.851832 -197.193966 
L 607.127053 -198.173941 
L 607.407415 -199.153916 
L 607.687493 -200.133891 
L 607.962294 -201.113865 
L 608.227402 -202.09384 
L 608.479085 -203.073815 
L 608.714364 -204.05379 
L 608.931049 -205.033764 
L 609.127724 -206.013739 
L 609.303707 -206.993714 
L 609.458983 -207.973688 
L 609.594103 -208.953663 
L 609.710086 -209.933638 
L 609.8083 -210.913613 
L 610.2 -210.913613 
L 610.2 -210.913613 
L 610.2 -209.933638 
L 610.2 -208.953663 
L 610.2 -207.973688 
L 610.2 -206.993714 
L 610.2 -206.013739 
L 610.2 -205.033764 
L 610.2 -204.05379 
L 610.2 -203.073815 
L 610.2 -202.09384 
L 610.2 -201.113865 
L 610.2 -200.133891 
L 610.2 -199.153916 
L 610.2 -198.173941 
L 610.2 -197.193966 
L 610.2 -196.213992 
L 610.2 -195.234017 
L 610.2 -194.254042 
L 610.2 -193.274067 
L 610.2 -192.294093 
L 610.2 -191.314118 
L 610.2 -190.334143 
L 610.2 -189.354168 
L 610.2 -188.374194 
L 610.2 -187.394219 
L 610.2 -186.414244 
L 610.2 -185.43427 
L 610.2 -184.454295 
L 610.2 -183.47432 
L 610.2 -182.494345 
L 610.2 -181.514371 
L 610.2 -180.534396 
L 610.2 -179.554421 
L 610.2 -178.574446 
L 610.2 -177.594472 
L 610.2 -176.614497 
L 610.2 -175.634522 
L 610.2 -174.654547 
L 610.2 -173.674573 
L 610.2 -172.694598 
L 610.2 -171.714623 
L 610.2 -170.734649 
L 610.2 -169.754674 
L 610.2 -168.774699 
L 610.2 -167.794724 
L 610.2 -166.81475 
L 610.2 -165.834775 
L 610.2 -164.8548 
L 610.2 -163.874825 
L 610.2 -162.894851 
L 610.2 -161.914876 
L 610.2 -160.934901 
L 610.2 -159.954926 
L 610.2 -158.974952 
L 610.2 -157.994977 
L 610.2 -157.015002 
L 610.2 -156.035027 
L 610.2 -155.055053 
L 610.2 -154.075078 
L 610.2 -153.095103 
L 610.2 -152.115129 
L 610.2 -151.135154 
L 610.2 -150.155179 
L 610.2 -149.175204 
L 610.2 -148.19523 
L 610.2 -147.215255 
L 610.2 -146.23528 
L 610.2 -145.255305 
L 610.2 -144.275331 
L 610.2 -143.295356 
L 610.2 -142.315381 
L 610.2 -141.335406 
L 610.2 -140.355432 
L 610.2 -139.375457 
L 610.2 -138.395482 
L 610.2 -137.415508 
L 610.2 -136.435533 
L 610.2 -135.455558 
L 610.2 -134.475583 
L 610.2 -133.495609 
L 610.2 -132.515634 
L 610.2 -131.535659 
L 610.2 -130.555684 
L 610.2 -129.57571 
L 610.2 -128.595735 
L 610.2 -127.61576 
L 610.2 -126.635785 
L 610.2 -125.655811 
L 610.2 -124.675836 
L 610.2 -123.695861 
L 610.2 -122.715886 
L 610.2 -121.735912 
L 610.2 -120.755937 
L 610.2 -119.775962 
L 610.2 -118.795988 
L 610.2 -117.816013 
L 610.2 -116.836038 
L 610.2 -115.856063 
L 610.2 -114.876089 
L 610.2 -113.896114 
z
" style="stroke: #3f3f3f; stroke-width: 1.5"/>
    </defs>
    <g clip-path="url(#p5bae828666)">
     <use xlink:href="#ma472b7b64b" x="0" y="576" style="fill: #3274a1; stroke: #3f3f3f; stroke-width: 1.5"/>
    </g>
   </g>
   <g id="PolyCollection_10">
    <defs>
     <path id="mebb7470e3d" d="M 610.363426 -92.96712 
L 610.2 -92.96712 
L 610.2 -96.944422 
L 610.2 -100.921724 
L 610.2 -104.899026 
L 610.2 -108.876328 
L 610.2 -112.853629 
L 610.2 -116.830931 
L 610.2 -120.808233 
L 610.2 -124.785535 
L 610.2 -128.762837 
L 610.2 -132.740138 
L 610.2 -136.71744 
L 610.2 -140.694742 
L 610.2 -144.672044 
L 610.2 -148.649346 
L 610.2 -152.626648 
L 610.2 -156.603949 
L 610.2 -160.581251 
L 610.2 -164.558553 
L 610.2 -168.535855 
L 610.2 -172.513157 
L 610.2 -176.490458 
L 610.2 -180.46776 
L 610.2 -184.445062 
L 610.2 -188.422364 
L 610.2 -192.399666 
L 610.2 -196.376967 
L 610.2 -200.354269 
L 610.2 -204.331571 
L 610.2 -208.308873 
L 610.2 -212.286175 
L 610.2 -216.263477 
L 610.2 -220.240778 
L 610.2 -224.21808 
L 610.2 -228.195382 
L 610.2 -232.172684 
L 610.2 -236.149986 
L 610.2 -240.127287 
L 610.2 -244.104589 
L 610.2 -248.081891 
L 610.2 -252.059193 
L 610.2 -256.036495 
L 610.2 -260.013797 
L 610.2 -263.991098 
L 610.2 -267.9684 
L 610.2 -271.945702 
L 610.2 -275.923004 
L 610.2 -279.900306 
L 610.2 -283.877607 
L 610.2 -287.854909 
L 610.2 -291.832211 
L 610.2 -295.809513 
L 610.2 -299.786815 
L 610.2 -303.764116 
L 610.2 -307.741418 
L 610.2 -311.71872 
L 610.2 -315.696022 
L 610.2 -319.673324 
L 610.2 -323.650626 
L 610.2 -327.627927 
L 610.2 -331.605229 
L 610.2 -335.582531 
L 610.2 -339.559833 
L 610.2 -343.537135 
L 610.2 -347.514436 
L 610.2 -351.491738 
L 610.2 -355.46904 
L 610.2 -359.446342 
L 610.2 -363.423644 
L 610.2 -367.400946 
L 610.2 -371.378247 
L 610.2 -375.355549 
L 610.2 -379.332851 
L 610.2 -383.310153 
L 610.2 -387.287455 
L 610.2 -391.264756 
L 610.2 -395.242058 
L 610.2 -399.21936 
L 610.2 -403.196662 
L 610.2 -407.173964 
L 610.2 -411.151266 
L 610.2 -415.128567 
L 610.2 -419.105869 
L 610.2 -423.083171 
L 610.2 -427.060473 
L 610.2 -431.037775 
L 610.2 -435.015076 
L 610.2 -438.992378 
L 610.2 -442.96968 
L 610.2 -446.946982 
L 610.2 -450.924284 
L 610.2 -454.901585 
L 610.2 -458.878887 
L 610.2 -462.856189 
L 610.2 -466.833491 
L 610.2 -470.810793 
L 610.2 -474.788095 
L 610.2 -478.765396 
L 610.2 -482.742698 
L 610.2 -486.72 
L 610.298566 -486.72 
L 610.298566 -486.72 
L 610.324948 -482.742698 
L 610.356043 -478.765396 
L 610.391988 -474.788095 
L 610.432716 -470.810793 
L 610.477913 -466.833491 
L 610.526987 -462.856189 
L 610.579058 -458.878887 
L 610.632969 -454.901585 
L 610.687316 -450.924284 
L 610.740517 -446.946982 
L 610.790895 -442.96968 
L 610.836792 -438.992378 
L 610.876688 -435.015076 
L 610.90933 -431.037775 
L 610.933858 -427.060473 
L 610.949911 -423.083171 
L 610.957711 -419.105869 
L 610.958107 -415.128567 
L 610.95259 -411.151266 
L 610.94326 -407.173964 
L 610.932758 -403.196662 
L 610.924164 -399.21936 
L 610.920862 -395.242058 
L 610.92639 -391.264756 
L 610.944276 -387.287455 
L 610.977868 -383.310153 
L 611.030175 -379.332851 
L 611.103708 -375.355549 
L 611.20035 -371.378247 
L 611.321237 -367.400946 
L 611.466679 -363.423644 
L 611.636102 -359.446342 
L 611.828039 -355.46904 
L 612.040159 -351.491738 
L 612.269348 -347.514436 
L 612.511838 -343.537135 
L 612.763391 -339.559833 
L 613.019519 -335.582531 
L 613.275757 -331.605229 
L 613.527942 -327.627927 
L 613.772505 -323.650626 
L 614.006746 -319.673324 
L 614.229056 -315.696022 
L 614.439076 -311.71872 
L 614.637767 -307.741418 
L 614.827372 -303.764116 
L 615.011261 -299.786815 
L 615.193674 -295.809513 
L 615.379361 -291.832211 
L 615.573156 -287.854909 
L 615.779506 -283.877607 
L 616.002015 -279.900306 
L 616.243019 -275.923004 
L 616.503253 -271.945702 
L 616.781629 -267.9684 
L 617.075153 -263.991098 
L 617.378996 -260.013797 
L 617.686698 -256.036495 
L 617.990507 -252.059193 
L 618.281815 -248.081891 
L 618.551641 -244.104589 
L 618.791146 -240.127287 
L 618.992117 -236.149986 
L 619.147384 -232.172684 
L 619.251159 -228.195382 
L 619.299256 -224.21808 
L 619.289205 -220.240778 
L 619.22025 -216.263477 
L 619.093256 -212.286175 
L 618.910535 -208.308873 
L 618.675634 -204.331571 
L 618.393082 -200.354269 
L 618.068147 -196.376967 
L 617.706607 -192.399666 
L 617.314543 -188.422364 
L 616.898167 -184.445062 
L 616.463692 -180.46776 
L 616.017219 -176.490458 
L 615.564655 -172.513157 
L 615.111642 -168.535855 
L 614.663497 -164.558553 
L 614.22515 -160.581251 
L 613.801083 -156.603949 
L 613.395277 -152.626648 
L 613.011146 -148.649346 
L 612.651494 -144.672044 
L 612.318472 -140.694742 
L 612.013559 -136.71744 
L 611.73756 -132.740138 
L 611.490628 -128.762837 
L 611.272308 -124.785535 
L 611.081599 -120.808233 
L 610.917044 -116.830931 
L 610.776814 -112.853629 
L 610.658818 -108.876328 
L 610.560796 -104.899026 
L 610.480418 -100.921724 
L 610.415371 -96.944422 
L 610.363426 -92.96712 
z
" style="stroke: #3f3f3f; stroke-width: 1.5"/>
    </defs>
    <g clip-path="url(#p5bae828666)">
     <use xlink:href="#mebb7470e3d" x="0" y="576" style="fill: #e1812c; stroke: #3f3f3f; stroke-width: 1.5"/>
    </g>
   </g>
   <g id="PolyCollection_11">
    <defs>
     <path id="m26a482bda2" d="M 721.8 -111.704939 
L 717.246569 -111.704939 
L 716.11522 -112.817957 
L 714.787118 -113.930974 
L 713.251085 -115.043991 
L 711.501278 -116.157009 
L 709.538523 -117.270026 
L 707.371476 -118.383044 
L 705.017482 -119.496061 
L 702.503035 -120.609078 
L 699.863711 -121.722096 
L 697.143549 -122.835113 
L 694.393814 -123.948131 
L 691.671201 -125.061148 
L 689.035541 -126.174166 
L 686.547133 -127.287183 
L 684.263892 -128.4002 
L 682.238486 -129.513218 
L 680.515677 -130.626235 
L 679.130076 -131.739253 
L 678.104457 -132.85227 
L 677.448785 -133.965287 
L 677.16 -135.078305 
L 677.22259 -136.191322 
L 677.609883 -137.30434 
L 678.285951 -138.417357 
L 679.207982 -139.530374 
L 680.328924 -140.643392 
L 681.600214 -141.756409 
L 682.9744 -142.869427 
L 684.407474 -143.982444 
L 685.860788 -145.095462 
L 687.302446 -146.208479 
L 688.708117 -147.321496 
L 690.061255 -148.434514 
L 691.352769 -149.547531 
L 692.580216 -150.660549 
L 693.746604 -151.773566 
L 694.858958 -152.886583 
L 695.926758 -153.999601 
L 696.960408 -155.112618 
L 697.969843 -156.225636 
L 698.963394 -157.338653 
L 699.946978 -158.45167 
L 700.923661 -159.564688 
L 701.893593 -160.677705 
L 702.854298 -161.790723 
L 703.801233 -162.90374 
L 704.728557 -164.016758 
L 705.629981 -165.129775 
L 706.499612 -166.242792 
L 707.33269 -167.35581 
L 708.126126 -168.468827 
L 708.87881 -169.581845 
L 709.591647 -170.694862 
L 710.267341 -171.807879 
L 710.909965 -172.920897 
L 711.524379 -174.033914 
L 712.115565 -175.146932 
L 712.687972 -176.259949 
L 713.24494 -177.372967 
L 713.788266 -178.485984 
L 714.317961 -179.599001 
L 714.832211 -180.712019 
L 715.327548 -181.825036 
L 715.799198 -182.938054 
L 716.241572 -184.051071 
L 716.648843 -185.164088 
L 717.015549 -186.277106 
L 717.337167 -187.390123 
L 717.610603 -188.503141 
L 717.834568 -189.616158 
L 718.00979 -190.729175 
L 718.139079 -191.842193 
L 718.227213 -192.95521 
L 718.280691 -194.068228 
L 718.307353 -195.181245 
L 718.315916 -196.294263 
L 718.315454 -197.40728 
L 718.314873 -198.520297 
L 718.32241 -199.633315 
L 718.345192 -200.746332 
L 718.388893 -201.85935 
L 718.457498 -202.972367 
L 718.553186 -204.085384 
L 718.676337 -205.198402 
L 718.825655 -206.311419 
L 718.998384 -207.424437 
L 719.190599 -208.537454 
L 719.397544 -209.650471 
L 719.613986 -210.763489 
L 719.834566 -211.876506 
L 720.054115 -212.989524 
L 720.267915 -214.102541 
L 720.471906 -215.215559 
L 720.662819 -216.328576 
L 720.838236 -217.441593 
L 720.9966 -218.554611 
L 721.137157 -219.667628 
L 721.259871 -220.780646 
L 721.365303 -221.893663 
L 721.8 -221.893663 
L 721.8 -221.893663 
L 721.8 -220.780646 
L 721.8 -219.667628 
L 721.8 -218.554611 
L 721.8 -217.441593 
L 721.8 -216.328576 
L 721.8 -215.215559 
L 721.8 -214.102541 
L 721.8 -212.989524 
L 721.8 -211.876506 
L 721.8 -210.763489 
L 721.8 -209.650471 
L 721.8 -208.537454 
L 721.8 -207.424437 
L 721.8 -206.311419 
L 721.8 -205.198402 
L 721.8 -204.085384 
L 721.8 -202.972367 
L 721.8 -201.85935 
L 721.8 -200.746332 
L 721.8 -199.633315 
L 721.8 -198.520297 
L 721.8 -197.40728 
L 721.8 -196.294263 
L 721.8 -195.181245 
L 721.8 -194.068228 
L 721.8 -192.95521 
L 721.8 -191.842193 
L 721.8 -190.729175 
L 721.8 -189.616158 
L 721.8 -188.503141 
L 721.8 -187.390123 
L 721.8 -186.277106 
L 721.8 -185.164088 
L 721.8 -184.051071 
L 721.8 -182.938054 
L 721.8 -181.825036 
L 721.8 -180.712019 
L 721.8 -179.599001 
L 721.8 -178.485984 
L 721.8 -177.372967 
L 721.8 -176.259949 
L 721.8 -175.146932 
L 721.8 -174.033914 
L 721.8 -172.920897 
L 721.8 -171.807879 
L 721.8 -170.694862 
L 721.8 -169.581845 
L 721.8 -168.468827 
L 721.8 -167.35581 
L 721.8 -166.242792 
L 721.8 -165.129775 
L 721.8 -164.016758 
L 721.8 -162.90374 
L 721.8 -161.790723 
L 721.8 -160.677705 
L 721.8 -159.564688 
L 721.8 -158.45167 
L 721.8 -157.338653 
L 721.8 -156.225636 
L 721.8 -155.112618 
L 721.8 -153.999601 
L 721.8 -152.886583 
L 721.8 -151.773566 
L 721.8 -150.660549 
L 721.8 -149.547531 
L 721.8 -148.434514 
L 721.8 -147.321496 
L 721.8 -146.208479 
L 721.8 -145.095462 
L 721.8 -143.982444 
L 721.8 -142.869427 
L 721.8 -141.756409 
L 721.8 -140.643392 
L 721.8 -139.530374 
L 721.8 -138.417357 
L 721.8 -137.30434 
L 721.8 -136.191322 
L 721.8 -135.078305 
L 721.8 -133.965287 
L 721.8 -132.85227 
L 721.8 -131.739253 
L 721.8 -130.626235 
L 721.8 -129.513218 
L 721.8 -128.4002 
L 721.8 -127.287183 
L 721.8 -126.174166 
L 721.8 -125.061148 
L 721.8 -123.948131 
L 721.8 -122.835113 
L 721.8 -121.722096 
L 721.8 -120.609078 
L 721.8 -119.496061 
L 721.8 -118.383044 
L 721.8 -117.270026 
L 721.8 -116.157009 
L 721.8 -115.043991 
L 721.8 -113.930974 
L 721.8 -112.817957 
L 721.8 -111.704939 
z
" style="stroke: #3f3f3f; stroke-width: 1.5"/>
    </defs>
    <g clip-path="url(#p5bae828666)">
     <use xlink:href="#m26a482bda2" x="0" y="576" style="fill: #3274a1; stroke: #3f3f3f; stroke-width: 1.5"/>
    </g>
   </g>
   <g id="PolyCollection_12">
    <defs>
     <path id="m661d1ee0e5" d="M 721.940907 -83.52 
L 721.8 -83.52 
L 721.8 -87.333047 
L 721.8 -91.146093 
L 721.8 -94.95914 
L 721.8 -98.772187 
L 721.8 -102.585233 
L 721.8 -106.39828 
L 721.8 -110.211327 
L 721.8 -114.024373 
L 721.8 -117.83742 
L 721.8 -121.650466 
L 721.8 -125.463513 
L 721.8 -129.27656 
L 721.8 -133.089606 
L 721.8 -136.902653 
L 721.8 -140.7157 
L 721.8 -144.528746 
L 721.8 -148.341793 
L 721.8 -152.15484 
L 721.8 -155.967886 
L 721.8 -159.780933 
L 721.8 -163.59398 
L 721.8 -167.407026 
L 721.8 -171.220073 
L 721.8 -175.033119 
L 721.8 -178.846166 
L 721.8 -182.659213 
L 721.8 -186.472259 
L 721.8 -190.285306 
L 721.8 -194.098353 
L 721.8 -197.911399 
L 721.8 -201.724446 
L 721.8 -205.537493 
L 721.8 -209.350539 
L 721.8 -213.163586 
L 721.8 -216.976633 
L 721.8 -220.789679 
L 721.8 -224.602726 
L 721.8 -228.415772 
L 721.8 -232.228819 
L 721.8 -236.041866 
L 721.8 -239.854912 
L 721.8 -243.667959 
L 721.8 -247.481006 
L 721.8 -251.294052 
L 721.8 -255.107099 
L 721.8 -258.920146 
L 721.8 -262.733192 
L 721.8 -266.546239 
L 721.8 -270.359286 
L 721.8 -274.172332 
L 721.8 -277.985379 
L 721.8 -281.798425 
L 721.8 -285.611472 
L 721.8 -289.424519 
L 721.8 -293.237565 
L 721.8 -297.050612 
L 721.8 -300.863659 
L 721.8 -304.676705 
L 721.8 -308.489752 
L 721.8 -312.302799 
L 721.8 -316.115845 
L 721.8 -319.928892 
L 721.8 -323.741939 
L 721.8 -327.554985 
L 721.8 -331.368032 
L 721.8 -335.181078 
L 721.8 -338.994125 
L 721.8 -342.807172 
L 721.8 -346.620218 
L 721.8 -350.433265 
L 721.8 -354.246312 
L 721.8 -358.059358 
L 721.8 -361.872405 
L 721.8 -365.685452 
L 721.8 -369.498498 
L 721.8 -373.311545 
L 721.8 -377.124592 
L 721.8 -380.937638 
L 721.8 -384.750685 
L 721.8 -388.563731 
L 721.8 -392.376778 
L 721.8 -396.189825 
L 721.8 -400.002871 
L 721.8 -403.815918 
L 721.8 -407.628965 
L 721.8 -411.442011 
L 721.8 -415.255058 
L 721.8 -419.068105 
L 721.8 -422.881151 
L 721.8 -426.694198 
L 721.8 -430.507245 
L 721.8 -434.320291 
L 721.8 -438.133338 
L 721.8 -441.946384 
L 721.8 -445.759431 
L 721.8 -449.572478 
L 721.8 -453.385524 
L 721.8 -457.198571 
L 721.8 -461.011618 
L 721.943175 -461.011618 
L 721.943175 -461.011618 
L 721.981528 -457.198571 
L 722.027475 -453.385524 
L 722.081801 -449.572478 
L 722.145218 -445.759431 
L 722.218334 -441.946384 
L 722.301628 -438.133338 
L 722.395436 -434.320291 
L 722.499941 -430.507245 
L 722.615178 -426.694198 
L 722.741043 -422.881151 
L 722.877308 -419.068105 
L 723.023639 -415.255058 
L 723.179611 -411.442011 
L 723.344706 -407.628965 
L 723.51831 -403.815918 
L 723.699678 -400.002871 
L 723.887897 -396.189825 
L 724.081825 -392.376778 
L 724.280029 -388.563731 
L 724.480725 -384.750685 
L 724.681737 -380.937638 
L 724.880483 -377.124592 
L 725.07401 -373.311545 
L 725.259082 -369.498498 
L 725.43232 -365.685452 
L 725.590409 -361.872405 
L 725.730349 -358.059358 
L 725.849735 -354.246312 
L 725.947051 -350.433265 
L 726.021945 -346.620218 
L 726.075449 -342.807172 
L 726.110132 -338.994125 
L 726.130146 -335.181078 
L 726.141158 -331.368032 
L 726.150159 -327.554985 
L 726.165158 -323.741939 
L 726.194774 -319.928892 
L 726.247761 -316.115845 
L 726.332498 -312.302799 
L 726.456477 -308.489752 
L 726.625849 -304.676705 
L 726.845045 -300.863659 
L 727.116512 -297.050612 
L 727.440581 -293.237565 
L 727.815465 -289.424519 
L 728.237384 -285.611472 
L 728.700796 -281.798425 
L 729.198694 -277.985379 
L 729.722947 -274.172332 
L 730.264629 -270.359286 
L 730.814327 -266.546239 
L 731.362386 -262.733192 
L 731.899084 -258.920146 
L 732.414745 -255.107099 
L 732.899808 -251.294052 
L 733.344857 -247.481006 
L 733.740669 -243.667959 
L 734.078293 -239.854912 
L 734.349188 -236.041866 
L 734.545444 -232.228819 
L 734.66007 -228.415772 
L 734.687348 -224.602726 
L 734.623217 -220.789679 
L 734.465648 -216.976633 
L 734.21496 -213.163586 
L 733.874042 -209.350539 
L 733.448431 -205.537493 
L 732.946222 -201.724446 
L 732.377819 -197.911399 
L 731.755508 -194.098353 
L 731.092911 -190.285306 
L 730.404342 -186.472259 
L 729.704127 -182.659213 
L 729.005942 -178.846166 
L 728.322227 -175.033119 
L 727.663705 -171.220073 
L 727.039056 -167.407026 
L 726.454747 -163.59398 
L 725.915017 -159.780933 
L 725.422014 -155.967886 
L 724.976037 -152.15484 
L 724.575862 -148.341793 
L 724.219111 -144.528746 
L 723.902622 -140.7157 
L 723.622798 -136.902653 
L 723.375905 -133.089606 
L 723.158303 -129.27656 
L 722.966615 -125.463513 
L 722.797817 -121.650466 
L 722.649283 -117.83742 
L 722.518771 -114.024373 
L 722.404385 -110.211327 
L 722.304516 -106.39828 
L 722.217773 -102.585233 
L 722.142926 -98.772187 
L 722.078849 -94.95914 
L 722.024488 -91.146093 
L 721.978832 -87.333047 
L 721.940907 -83.52 
z
" style="stroke: #3f3f3f; stroke-width: 1.5"/>
    </defs>
    <g clip-path="url(#p5bae828666)">
     <use xlink:href="#m661d1ee0e5" x="0" y="576" style="fill: #e1812c; stroke: #3f3f3f; stroke-width: 1.5"/>
    </g>
   </g>
   <g id="matplotlib.axis_1">
    <g id="xtick_1">
     <g id="line2d_1">
      <defs>
       <path id="mcb937f34b6" d="M 0 0 
L 0 3.5 
" style="stroke: #000000; stroke-width: 0.8"/>
      </defs>
      <g>
       <use xlink:href="#mcb937f34b6" x="163.8" y="512.64" style="stroke: #000000; stroke-width: 0.8"/>
      </g>
     </g>
     <g id="text_1">
      <!-- 6 -->
      <g transform="translate(160.61875 527.238438) scale(0.1 -0.1)">
       <defs>
        <path id="DejaVuSans-36" d="M 2113 2584 
Q 1688 2584 1439 2293 
Q 1191 2003 1191 1497 
Q 1191 994 1439 701 
Q 1688 409 2113 409 
Q 2538 409 2786 701 
Q 3034 994 3034 1497 
Q 3034 2003 2786 2293 
Q 2538 2584 2113 2584 
z
M 3366 4563 
L 3366 3988 
Q 3128 4100 2886 4159 
Q 2644 4219 2406 4219 
Q 1781 4219 1451 3797 
Q 1122 3375 1075 2522 
Q 1259 2794 1537 2939 
Q 1816 3084 2150 3084 
Q 2853 3084 3261 2657 
Q 3669 2231 3669 1497 
Q 3669 778 3244 343 
Q 2819 -91 2113 -91 
Q 1303 -91 875 529 
Q 447 1150 447 2328 
Q 447 3434 972 4092 
Q 1497 4750 2381 4750 
Q 2619 4750 2861 4703 
Q 3103 4656 3366 4563 
z
" transform="scale(0.015625)"/>
       </defs>
       <use xlink:href="#DejaVuSans-36"/>
      </g>
     </g>
    </g>
    <g id="xtick_2">
     <g id="line2d_2">
      <g>
       <use xlink:href="#mcb937f34b6" x="275.4" y="512.64" style="stroke: #000000; stroke-width: 0.8"/>
      </g>
     </g>
     <g id="text_2">
      <!-- 9 -->
      <g transform="translate(272.21875 527.238438) scale(0.1 -0.1)">
       <defs>
        <path id="DejaVuSans-39" d="M 703 97 
L 703 672 
Q 941 559 1184 500 
Q 1428 441 1663 441 
Q 2288 441 2617 861 
Q 2947 1281 2994 2138 
Q 2813 1869 2534 1725 
Q 2256 1581 1919 1581 
Q 1219 1581 811 2004 
Q 403 2428 403 3163 
Q 403 3881 828 4315 
Q 1253 4750 1959 4750 
Q 2769 4750 3195 4129 
Q 3622 3509 3622 2328 
Q 3622 1225 3098 567 
Q 2575 -91 1691 -91 
Q 1453 -91 1209 -44 
Q 966 3 703 97 
z
M 1959 2075 
Q 2384 2075 2632 2365 
Q 2881 2656 2881 3163 
Q 2881 3666 2632 3958 
Q 2384 4250 1959 4250 
Q 1534 4250 1286 3958 
Q 1038 3666 1038 3163 
Q 1038 2656 1286 2365 
Q 1534 2075 1959 2075 
z
" transform="scale(0.015625)"/>
       </defs>
       <use xlink:href="#DejaVuSans-39"/>
      </g>
     </g>
    </g>
    <g id="xtick_3">
     <g id="line2d_3">
      <g>
       <use xlink:href="#mcb937f34b6" x="387" y="512.64" style="stroke: #000000; stroke-width: 0.8"/>
      </g>
     </g>
     <g id="text_3">
      <!-- 12 -->
      <g transform="translate(380.6375 527.238438) scale(0.1 -0.1)">
       <defs>
        <path id="DejaVuSans-31" d="M 794 531 
L 1825 531 
L 1825 4091 
L 703 3866 
L 703 4441 
L 1819 4666 
L 2450 4666 
L 2450 531 
L 3481 531 
L 3481 0 
L 794 0 
L 794 531 
z
" transform="scale(0.015625)"/>
        <path id="DejaVuSans-32" d="M 1228 531 
L 3431 531 
L 3431 0 
L 469 0 
L 469 531 
Q 828 903 1448 1529 
Q 2069 2156 2228 2338 
Q 2531 2678 2651 2914 
Q 2772 3150 2772 3378 
Q 2772 3750 2511 3984 
Q 2250 4219 1831 4219 
Q 1534 4219 1204 4116 
Q 875 4013 500 3803 
L 500 4441 
Q 881 4594 1212 4672 
Q 1544 4750 1819 4750 
Q 2544 4750 2975 4387 
Q 3406 4025 3406 3419 
Q 3406 3131 3298 2873 
Q 3191 2616 2906 2266 
Q 2828 2175 2409 1742 
Q 1991 1309 1228 531 
z
" transform="scale(0.015625)"/>
       </defs>
       <use xlink:href="#DejaVuSans-31"/>
       <use xlink:href="#DejaVuSans-32" x="63.623047"/>
      </g>
     </g>
    </g>
    <g id="xtick_4">
     <g id="line2d_4">
      <g>
       <use xlink:href="#mcb937f34b6" x="498.6" y="512.64" style="stroke: #000000; stroke-width: 0.8"/>
      </g>
     </g>
     <g id="text_4">
      <!-- 15 -->
      <g transform="translate(492.2375 527.238438) scale(0.1 -0.1)">
       <defs>
        <path id="DejaVuSans-35" d="M 691 4666 
L 3169 4666 
L 3169 4134 
L 1269 4134 
L 1269 2991 
Q 1406 3038 1543 3061 
Q 1681 3084 1819 3084 
Q 2600 3084 3056 2656 
Q 3513 2228 3513 1497 
Q 3513 744 3044 326 
Q 2575 -91 1722 -91 
Q 1428 -91 1123 -41 
Q 819 9 494 109 
L 494 744 
Q 775 591 1075 516 
Q 1375 441 1709 441 
Q 2250 441 2565 725 
Q 2881 1009 2881 1497 
Q 2881 1984 2565 2268 
Q 2250 2553 1709 2553 
Q 1456 2553 1204 2497 
Q 953 2441 691 2322 
L 691 4666 
z
" transform="scale(0.015625)"/>
       </defs>
       <use xlink:href="#DejaVuSans-31"/>
       <use xlink:href="#DejaVuSans-35" x="63.623047"/>
      </g>
     </g>
    </g>
    <g id="xtick_5">
     <g id="line2d_5">
      <g>
       <use xlink:href="#mcb937f34b6" x="610.2" y="512.64" style="stroke: #000000; stroke-width: 0.8"/>
      </g>
     </g>
     <g id="text_5">
      <!-- 18 -->
      <g transform="translate(603.8375 527.238438) scale(0.1 -0.1)">
       <defs>
        <path id="DejaVuSans-38" d="M 2034 2216 
Q 1584 2216 1326 1975 
Q 1069 1734 1069 1313 
Q 1069 891 1326 650 
Q 1584 409 2034 409 
Q 2484 409 2743 651 
Q 3003 894 3003 1313 
Q 3003 1734 2745 1975 
Q 2488 2216 2034 2216 
z
M 1403 2484 
Q 997 2584 770 2862 
Q 544 3141 544 3541 
Q 544 4100 942 4425 
Q 1341 4750 2034 4750 
Q 2731 4750 3128 4425 
Q 3525 4100 3525 3541 
Q 3525 3141 3298 2862 
Q 3072 2584 2669 2484 
Q 3125 2378 3379 2068 
Q 3634 1759 3634 1313 
Q 3634 634 3220 271 
Q 2806 -91 2034 -91 
Q 1263 -91 848 271 
Q 434 634 434 1313 
Q 434 1759 690 2068 
Q 947 2378 1403 2484 
z
M 1172 3481 
Q 1172 3119 1398 2916 
Q 1625 2713 2034 2713 
Q 2441 2713 2670 2916 
Q 2900 3119 2900 3481 
Q 2900 3844 2670 4047 
Q 2441 4250 2034 4250 
Q 1625 4250 1398 4047 
Q 1172 3844 1172 3481 
z
" transform="scale(0.015625)"/>
       </defs>
       <use xlink:href="#DejaVuSans-31"/>
       <use xlink:href="#DejaVuSans-38" x="63.623047"/>
      </g>
     </g>
    </g>
    <g id="xtick_6">
     <g id="line2d_6">
      <g>
       <use xlink:href="#mcb937f34b6" x="721.8" y="512.64" style="stroke: #000000; stroke-width: 0.8"/>
      </g>
     </g>
     <g id="text_6">
      <!-- 21 -->
      <g transform="translate(715.4375 527.238438) scale(0.1 -0.1)">
       <use xlink:href="#DejaVuSans-32"/>
       <use xlink:href="#DejaVuSans-31" x="63.623047"/>
      </g>
     </g>
    </g>
    <g id="text_7">
     <!-- NumLayers -->
     <g transform="translate(414.474219 540.916563) scale(0.1 -0.1)">
      <defs>
       <path id="DejaVuSans-4e" d="M 628 4666 
L 1478 4666 
L 3547 763 
L 3547 4666 
L 4159 4666 
L 4159 0 
L 3309 0 
L 1241 3903 
L 1241 0 
L 628 0 
L 628 4666 
z
" transform="scale(0.015625)"/>
       <path id="DejaVuSans-75" d="M 544 1381 
L 544 3500 
L 1119 3500 
L 1119 1403 
Q 1119 906 1312 657 
Q 1506 409 1894 409 
Q 2359 409 2629 706 
Q 2900 1003 2900 1516 
L 2900 3500 
L 3475 3500 
L 3475 0 
L 2900 0 
L 2900 538 
Q 2691 219 2414 64 
Q 2138 -91 1772 -91 
Q 1169 -91 856 284 
Q 544 659 544 1381 
z
M 1991 3584 
L 1991 3584 
z
" transform="scale(0.015625)"/>
       <path id="DejaVuSans-6d" d="M 3328 2828 
Q 3544 3216 3844 3400 
Q 4144 3584 4550 3584 
Q 5097 3584 5394 3201 
Q 5691 2819 5691 2113 
L 5691 0 
L 5113 0 
L 5113 2094 
Q 5113 2597 4934 2840 
Q 4756 3084 4391 3084 
Q 3944 3084 3684 2787 
Q 3425 2491 3425 1978 
L 3425 0 
L 2847 0 
L 2847 2094 
Q 2847 2600 2669 2842 
Q 2491 3084 2119 3084 
Q 1678 3084 1418 2786 
Q 1159 2488 1159 1978 
L 1159 0 
L 581 0 
L 581 3500 
L 1159 3500 
L 1159 2956 
Q 1356 3278 1631 3431 
Q 1906 3584 2284 3584 
Q 2666 3584 2933 3390 
Q 3200 3197 3328 2828 
z
" transform="scale(0.015625)"/>
       <path id="DejaVuSans-4c" d="M 628 4666 
L 1259 4666 
L 1259 531 
L 3531 531 
L 3531 0 
L 628 0 
L 628 4666 
z
" transform="scale(0.015625)"/>
       <path id="DejaVuSans-61" d="M 2194 1759 
Q 1497 1759 1228 1600 
Q 959 1441 959 1056 
Q 959 750 1161 570 
Q 1363 391 1709 391 
Q 2188 391 2477 730 
Q 2766 1069 2766 1631 
L 2766 1759 
L 2194 1759 
z
M 3341 1997 
L 3341 0 
L 2766 0 
L 2766 531 
Q 2569 213 2275 61 
Q 1981 -91 1556 -91 
Q 1019 -91 701 211 
Q 384 513 384 1019 
Q 384 1609 779 1909 
Q 1175 2209 1959 2209 
L 2766 2209 
L 2766 2266 
Q 2766 2663 2505 2880 
Q 2244 3097 1772 3097 
Q 1472 3097 1187 3025 
Q 903 2953 641 2809 
L 641 3341 
Q 956 3463 1253 3523 
Q 1550 3584 1831 3584 
Q 2591 3584 2966 3190 
Q 3341 2797 3341 1997 
z
" transform="scale(0.015625)"/>
       <path id="DejaVuSans-79" d="M 2059 -325 
Q 1816 -950 1584 -1140 
Q 1353 -1331 966 -1331 
L 506 -1331 
L 506 -850 
L 844 -850 
Q 1081 -850 1212 -737 
Q 1344 -625 1503 -206 
L 1606 56 
L 191 3500 
L 800 3500 
L 1894 763 
L 2988 3500 
L 3597 3500 
L 2059 -325 
z
" transform="scale(0.015625)"/>
       <path id="DejaVuSans-65" d="M 3597 1894 
L 3597 1613 
L 953 1613 
Q 991 1019 1311 708 
Q 1631 397 2203 397 
Q 2534 397 2845 478 
Q 3156 559 3463 722 
L 3463 178 
Q 3153 47 2828 -22 
Q 2503 -91 2169 -91 
Q 1331 -91 842 396 
Q 353 884 353 1716 
Q 353 2575 817 3079 
Q 1281 3584 2069 3584 
Q 2775 3584 3186 3129 
Q 3597 2675 3597 1894 
z
M 3022 2063 
Q 3016 2534 2758 2815 
Q 2500 3097 2075 3097 
Q 1594 3097 1305 2825 
Q 1016 2553 972 2059 
L 3022 2063 
z
" transform="scale(0.015625)"/>
       <path id="DejaVuSans-72" d="M 2631 2963 
Q 2534 3019 2420 3045 
Q 2306 3072 2169 3072 
Q 1681 3072 1420 2755 
Q 1159 2438 1159 1844 
L 1159 0 
L 581 0 
L 581 3500 
L 1159 3500 
L 1159 2956 
Q 1341 3275 1631 3429 
Q 1922 3584 2338 3584 
Q 2397 3584 2469 3576 
Q 2541 3569 2628 3553 
L 2631 2963 
z
" transform="scale(0.015625)"/>
       <path id="DejaVuSans-73" d="M 2834 3397 
L 2834 2853 
Q 2591 2978 2328 3040 
Q 2066 3103 1784 3103 
Q 1356 3103 1142 2972 
Q 928 2841 928 2578 
Q 928 2378 1081 2264 
Q 1234 2150 1697 2047 
L 1894 2003 
Q 2506 1872 2764 1633 
Q 3022 1394 3022 966 
Q 3022 478 2636 193 
Q 2250 -91 1575 -91 
Q 1294 -91 989 -36 
Q 684 19 347 128 
L 347 722 
Q 666 556 975 473 
Q 1284 391 1588 391 
Q 1994 391 2212 530 
Q 2431 669 2431 922 
Q 2431 1156 2273 1281 
Q 2116 1406 1581 1522 
L 1381 1569 
Q 847 1681 609 1914 
Q 372 2147 372 2553 
Q 372 3047 722 3315 
Q 1072 3584 1716 3584 
Q 2034 3584 2315 3537 
Q 2597 3491 2834 3397 
z
" transform="scale(0.015625)"/>
      </defs>
      <use xlink:href="#DejaVuSans-4e"/>
      <use xlink:href="#DejaVuSans-75" x="74.804688"/>
      <use xlink:href="#DejaVuSans-6d" x="138.183594"/>
      <use xlink:href="#DejaVuSans-4c" x="235.595703"/>
      <use xlink:href="#DejaVuSans-61" x="291.308594"/>
      <use xlink:href="#DejaVuSans-79" x="352.587891"/>
      <use xlink:href="#DejaVuSans-65" x="411.767578"/>
      <use xlink:href="#DejaVuSans-72" x="473.291016"/>
      <use xlink:href="#DejaVuSans-73" x="514.404297"/>
     </g>
    </g>
   </g>
   <g id="matplotlib.axis_2">
    <g id="ytick_1">
     <g id="line2d_7">
      <defs>
       <path id="m1a63b48d97" d="M 0 0 
L -3.5 0 
" style="stroke: #000000; stroke-width: 0.8"/>
      </defs>
      <g>
       <use xlink:href="#m1a63b48d97" x="108" y="444.356201" style="stroke: #000000; stroke-width: 0.8"/>
      </g>
     </g>
     <g id="text_8">
      <!-- 0 -->
      <g transform="translate(94.6375 448.15542) scale(0.1 -0.1)">
       <defs>
        <path id="DejaVuSans-30" d="M 2034 4250 
Q 1547 4250 1301 3770 
Q 1056 3291 1056 2328 
Q 1056 1369 1301 889 
Q 1547 409 2034 409 
Q 2525 409 2770 889 
Q 3016 1369 3016 2328 
Q 3016 3291 2770 3770 
Q 2525 4250 2034 4250 
z
M 2034 4750 
Q 2819 4750 3233 4129 
Q 3647 3509 3647 2328 
Q 3647 1150 3233 529 
Q 2819 -91 2034 -91 
Q 1250 -91 836 529 
Q 422 1150 422 2328 
Q 422 3509 836 4129 
Q 1250 4750 2034 4750 
z
" transform="scale(0.015625)"/>
       </defs>
       <use xlink:href="#DejaVuSans-30"/>
      </g>
     </g>
    </g>
    <g id="ytick_2">
     <g id="line2d_8">
      <g>
       <use xlink:href="#m1a63b48d97" x="108" y="356.467445" style="stroke: #000000; stroke-width: 0.8"/>
      </g>
     </g>
     <g id="text_9">
      <!-- 10 -->
      <g transform="translate(88.275 360.266664) scale(0.1 -0.1)">
       <use xlink:href="#DejaVuSans-31"/>
       <use xlink:href="#DejaVuSans-30" x="63.623047"/>
      </g>
     </g>
    </g>
    <g id="ytick_3">
     <g id="line2d_9">
      <g>
       <use xlink:href="#m1a63b48d97" x="108" y="268.578689" style="stroke: #000000; stroke-width: 0.8"/>
      </g>
     </g>
     <g id="text_10">
      <!-- 20 -->
      <g transform="translate(88.275 272.377907) scale(0.1 -0.1)">
       <use xlink:href="#DejaVuSans-32"/>
       <use xlink:href="#DejaVuSans-30" x="63.623047"/>
      </g>
     </g>
    </g>
    <g id="ytick_4">
     <g id="line2d_10">
      <g>
       <use xlink:href="#m1a63b48d97" x="108" y="180.689932" style="stroke: #000000; stroke-width: 0.8"/>
      </g>
     </g>
     <g id="text_11">
      <!-- 30 -->
      <g transform="translate(88.275 184.489151) scale(0.1 -0.1)">
       <defs>
        <path id="DejaVuSans-33" d="M 2597 2516 
Q 3050 2419 3304 2112 
Q 3559 1806 3559 1356 
Q 3559 666 3084 287 
Q 2609 -91 1734 -91 
Q 1441 -91 1130 -33 
Q 819 25 488 141 
L 488 750 
Q 750 597 1062 519 
Q 1375 441 1716 441 
Q 2309 441 2620 675 
Q 2931 909 2931 1356 
Q 2931 1769 2642 2001 
Q 2353 2234 1838 2234 
L 1294 2234 
L 1294 2753 
L 1863 2753 
Q 2328 2753 2575 2939 
Q 2822 3125 2822 3475 
Q 2822 3834 2567 4026 
Q 2313 4219 1838 4219 
Q 1578 4219 1281 4162 
Q 984 4106 628 3988 
L 628 4550 
Q 988 4650 1302 4700 
Q 1616 4750 1894 4750 
Q 2613 4750 3031 4423 
Q 3450 4097 3450 3541 
Q 3450 3153 3228 2886 
Q 3006 2619 2597 2516 
z
" transform="scale(0.015625)"/>
       </defs>
       <use xlink:href="#DejaVuSans-33"/>
       <use xlink:href="#DejaVuSans-30" x="63.623047"/>
      </g>
     </g>
    </g>
    <g id="ytick_5">
     <g id="line2d_11">
      <g>
       <use xlink:href="#m1a63b48d97" x="108" y="92.801176" style="stroke: #000000; stroke-width: 0.8"/>
      </g>
     </g>
     <g id="text_12">
      <!-- 40 -->
      <g transform="translate(88.275 96.600394) scale(0.1 -0.1)">
       <defs>
        <path id="DejaVuSans-34" d="M 2419 4116 
L 825 1625 
L 2419 1625 
L 2419 4116 
z
M 2253 4666 
L 3047 4666 
L 3047 1625 
L 3713 1625 
L 3713 1100 
L 3047 1100 
L 3047 0 
L 2419 0 
L 2419 1100 
L 313 1100 
L 313 1709 
L 2253 4666 
z
" transform="scale(0.015625)"/>
       </defs>
       <use xlink:href="#DejaVuSans-34"/>
       <use xlink:href="#DejaVuSans-30" x="63.623047"/>
      </g>
     </g>
    </g>
    <g id="text_13">
     <!-- Count -->
     <g transform="translate(82.195312 305.728437) rotate(-90) scale(0.1 -0.1)">
      <defs>
       <path id="DejaVuSans-43" d="M 4122 4306 
L 4122 3641 
Q 3803 3938 3442 4084 
Q 3081 4231 2675 4231 
Q 1875 4231 1450 3742 
Q 1025 3253 1025 2328 
Q 1025 1406 1450 917 
Q 1875 428 2675 428 
Q 3081 428 3442 575 
Q 3803 722 4122 1019 
L 4122 359 
Q 3791 134 3420 21 
Q 3050 -91 2638 -91 
Q 1578 -91 968 557 
Q 359 1206 359 2328 
Q 359 3453 968 4101 
Q 1578 4750 2638 4750 
Q 3056 4750 3426 4639 
Q 3797 4528 4122 4306 
z
" transform="scale(0.015625)"/>
       <path id="DejaVuSans-6f" d="M 1959 3097 
Q 1497 3097 1228 2736 
Q 959 2375 959 1747 
Q 959 1119 1226 758 
Q 1494 397 1959 397 
Q 2419 397 2687 759 
Q 2956 1122 2956 1747 
Q 2956 2369 2687 2733 
Q 2419 3097 1959 3097 
z
M 1959 3584 
Q 2709 3584 3137 3096 
Q 3566 2609 3566 1747 
Q 3566 888 3137 398 
Q 2709 -91 1959 -91 
Q 1206 -91 779 398 
Q 353 888 353 1747 
Q 353 2609 779 3096 
Q 1206 3584 1959 3584 
z
" transform="scale(0.015625)"/>
       <path id="DejaVuSans-6e" d="M 3513 2113 
L 3513 0 
L 2938 0 
L 2938 2094 
Q 2938 2591 2744 2837 
Q 2550 3084 2163 3084 
Q 1697 3084 1428 2787 
Q 1159 2491 1159 1978 
L 1159 0 
L 581 0 
L 581 3500 
L 1159 3500 
L 1159 2956 
Q 1366 3272 1645 3428 
Q 1925 3584 2291 3584 
Q 2894 3584 3203 3211 
Q 3513 2838 3513 2113 
z
" transform="scale(0.015625)"/>
       <path id="DejaVuSans-74" d="M 1172 4494 
L 1172 3500 
L 2356 3500 
L 2356 3053 
L 1172 3053 
L 1172 1153 
Q 1172 725 1289 603 
Q 1406 481 1766 481 
L 2356 481 
L 2356 0 
L 1766 0 
Q 1100 0 847 248 
Q 594 497 594 1153 
L 594 3053 
L 172 3053 
L 172 3500 
L 594 3500 
L 594 4494 
L 1172 4494 
z
" transform="scale(0.015625)"/>
      </defs>
      <use xlink:href="#DejaVuSans-43"/>
      <use xlink:href="#DejaVuSans-6f" x="69.824219"/>
      <use xlink:href="#DejaVuSans-75" x="131.005859"/>
      <use xlink:href="#DejaVuSans-6e" x="194.384766"/>
      <use xlink:href="#DejaVuSans-74" x="257.763672"/>
     </g>
    </g>
   </g>
   <g id="line2d_12">
    <path d="M 119.829916 444.356201 
L 163.8 444.356201 
" clip-path="url(#p5bae828666)" style="fill: none; stroke-dasharray: 3.375,3.375; stroke-dashoffset: 0; stroke: #3f3f3f; stroke-width: 1.5"/>
   </g>
   <g id="line2d_13">
    <path d="M 119.829916 444.356201 
L 163.8 444.356201 
" clip-path="url(#p5bae828666)" style="fill: none; stroke-dasharray: 6.75,6.75; stroke-dashoffset: 0; stroke: #3f3f3f; stroke-width: 1.5"/>
   </g>
   <g id="line2d_14">
    <path d="M 126.218103 439.961764 
L 163.8 439.961764 
" clip-path="url(#p5bae828666)" style="fill: none; stroke-dasharray: 3.375,3.375; stroke-dashoffset: 0; stroke: #3f3f3f; stroke-width: 1.5"/>
   </g>
   <g id="line2d_15">
    <path d="M 163.8 382.834072 
L 169.432192 382.834072 
" clip-path="url(#p5bae828666)" style="fill: none; stroke-dasharray: 3.375,3.375; stroke-dashoffset: 0; stroke: #3f3f3f; stroke-width: 1.5"/>
   </g>
   <g id="line2d_16">
    <path d="M 163.8 347.678569 
L 169.313339 347.678569 
" clip-path="url(#p5bae828666)" style="fill: none; stroke-dasharray: 6.75,6.75; stroke-dashoffset: 0; stroke: #3f3f3f; stroke-width: 1.5"/>
   </g>
   <g id="line2d_17">
    <path d="M 163.8 312.523067 
L 167.639825 312.523067 
" clip-path="url(#p5bae828666)" style="fill: none; stroke-dasharray: 3.375,3.375; stroke-dashoffset: 0; stroke: #3f3f3f; stroke-width: 1.5"/>
   </g>
   <g id="line2d_18">
    <path d="M 231.2064 444.356201 
L 275.4 444.356201 
" clip-path="url(#p5bae828666)" style="fill: none; stroke-dasharray: 3.375,3.375; stroke-dashoffset: 0; stroke: #3f3f3f; stroke-width: 1.5"/>
   </g>
   <g id="line2d_19">
    <path d="M 231.2064 444.356201 
L 275.4 444.356201 
" clip-path="url(#p5bae828666)" style="fill: none; stroke-dasharray: 6.75,6.75; stroke-dashoffset: 0; stroke: #3f3f3f; stroke-width: 1.5"/>
   </g>
   <g id="line2d_20">
    <path d="M 237.387078 439.961764 
L 275.4 439.961764 
" clip-path="url(#p5bae828666)" style="fill: none; stroke-dasharray: 3.375,3.375; stroke-dashoffset: 0; stroke: #3f3f3f; stroke-width: 1.5"/>
   </g>
   <g id="line2d_21">
    <path d="M 275.4 400.411823 
L 281.443317 400.411823 
" clip-path="url(#p5bae828666)" style="fill: none; stroke-dasharray: 3.375,3.375; stroke-dashoffset: 0; stroke: #3f3f3f; stroke-width: 1.5"/>
   </g>
   <g id="line2d_22">
    <path d="M 275.4 365.256321 
L 281.649877 365.256321 
" clip-path="url(#p5bae828666)" style="fill: none; stroke-dasharray: 6.75,6.75; stroke-dashoffset: 0; stroke: #3f3f3f; stroke-width: 1.5"/>
   </g>
   <g id="line2d_23">
    <path d="M 275.4 330.100818 
L 279.495185 330.100818 
" clip-path="url(#p5bae828666)" style="fill: none; stroke-dasharray: 3.375,3.375; stroke-dashoffset: 0; stroke: #3f3f3f; stroke-width: 1.5"/>
   </g>
   <g id="line2d_24">
    <path d="M 343.139268 444.356201 
L 387 444.356201 
" clip-path="url(#p5bae828666)" style="fill: none; stroke-dasharray: 3.375,3.375; stroke-dashoffset: 0; stroke: #3f3f3f; stroke-width: 1.5"/>
   </g>
   <g id="line2d_25">
    <path d="M 343.139268 444.356201 
L 387 444.356201 
" clip-path="url(#p5bae828666)" style="fill: none; stroke-dasharray: 6.75,6.75; stroke-dashoffset: 0; stroke: #3f3f3f; stroke-width: 1.5"/>
   </g>
   <g id="line2d_26">
    <path d="M 348.230199 439.961764 
L 387 439.961764 
" clip-path="url(#p5bae828666)" style="fill: none; stroke-dasharray: 3.375,3.375; stroke-dashoffset: 0; stroke: #3f3f3f; stroke-width: 1.5"/>
   </g>
   <g id="line2d_27">
    <path d="M 387 382.834072 
L 393.399661 382.834072 
" clip-path="url(#p5bae828666)" style="fill: none; stroke-dasharray: 3.375,3.375; stroke-dashoffset: 0; stroke: #3f3f3f; stroke-width: 1.5"/>
   </g>
   <g id="line2d_28">
    <path d="M 387 347.678569 
L 393.130603 347.678569 
" clip-path="url(#p5bae828666)" style="fill: none; stroke-dasharray: 6.75,6.75; stroke-dashoffset: 0; stroke: #3f3f3f; stroke-width: 1.5"/>
   </g>
   <g id="line2d_29">
    <path d="M 387 321.311942 
L 391.271277 321.311942 
" clip-path="url(#p5bae828666)" style="fill: none; stroke-dasharray: 3.375,3.375; stroke-dashoffset: 0; stroke: #3f3f3f; stroke-width: 1.5"/>
   </g>
   <g id="line2d_30">
    <path d="M 456.364863 444.356201 
L 498.6 444.356201 
" clip-path="url(#p5bae828666)" style="fill: none; stroke-dasharray: 3.375,3.375; stroke-dashoffset: 0; stroke: #3f3f3f; stroke-width: 1.5"/>
   </g>
   <g id="line2d_31">
    <path d="M 461.758833 435.567326 
L 498.6 435.567326 
" clip-path="url(#p5bae828666)" style="fill: none; stroke-dasharray: 6.75,6.75; stroke-dashoffset: 0; stroke: #3f3f3f; stroke-width: 1.5"/>
   </g>
   <g id="line2d_32">
    <path d="M 478.022478 426.77845 
L 498.6 426.77845 
" clip-path="url(#p5bae828666)" style="fill: none; stroke-dasharray: 3.375,3.375; stroke-dashoffset: 0; stroke: #3f3f3f; stroke-width: 1.5"/>
   </g>
   <g id="line2d_33">
    <path d="M 498.6 365.256321 
L 507.349756 365.256321 
" clip-path="url(#p5bae828666)" style="fill: none; stroke-dasharray: 3.375,3.375; stroke-dashoffset: 0; stroke: #3f3f3f; stroke-width: 1.5"/>
   </g>
   <g id="line2d_34">
    <path d="M 498.6 347.678569 
L 507.738905 347.678569 
" clip-path="url(#p5bae828666)" style="fill: none; stroke-dasharray: 6.75,6.75; stroke-dashoffset: 0; stroke: #3f3f3f; stroke-width: 1.5"/>
   </g>
   <g id="line2d_35">
    <path d="M 498.6 321.311942 
L 505.717917 321.311942 
" clip-path="url(#p5bae828666)" style="fill: none; stroke-dasharray: 3.375,3.375; stroke-dashoffset: 0; stroke: #3f3f3f; stroke-width: 1.5"/>
   </g>
   <g id="line2d_36">
    <path d="M 568.150231 444.356201 
L 610.2 444.356201 
" clip-path="url(#p5bae828666)" style="fill: none; stroke-dasharray: 3.375,3.375; stroke-dashoffset: 0; stroke: #3f3f3f; stroke-width: 1.5"/>
   </g>
   <g id="line2d_37">
    <path d="M 568.150231 444.356201 
L 610.2 444.356201 
" clip-path="url(#p5bae828666)" style="fill: none; stroke-dasharray: 6.75,6.75; stroke-dashoffset: 0; stroke: #3f3f3f; stroke-width: 1.5"/>
   </g>
   <g id="line2d_38">
    <path d="M 571.192533 435.567326 
L 610.2 435.567326 
" clip-path="url(#p5bae828666)" style="fill: none; stroke-dasharray: 3.375,3.375; stroke-dashoffset: 0; stroke: #3f3f3f; stroke-width: 1.5"/>
   </g>
   <g id="line2d_39">
    <path d="M 610.2 369.650759 
L 618.82343 369.650759 
" clip-path="url(#p5bae828666)" style="fill: none; stroke-dasharray: 3.375,3.375; stroke-dashoffset: 0; stroke: #3f3f3f; stroke-width: 1.5"/>
   </g>
   <g id="line2d_40">
    <path d="M 610.2 347.678569 
L 619.160647 347.678569 
" clip-path="url(#p5bae828666)" style="fill: none; stroke-dasharray: 6.75,6.75; stroke-dashoffset: 0; stroke: #3f3f3f; stroke-width: 1.5"/>
   </g>
   <g id="line2d_41">
    <path d="M 610.2 290.550878 
L 615.723711 290.550878 
" clip-path="url(#p5bae828666)" style="fill: none; stroke-dasharray: 3.375,3.375; stroke-dashoffset: 0; stroke: #3f3f3f; stroke-width: 1.5"/>
   </g>
   <g id="line2d_42">
    <path d="M 679.556775 444.356201 
L 721.8 444.356201 
" clip-path="url(#p5bae828666)" style="fill: none; stroke-dasharray: 3.375,3.375; stroke-dashoffset: 0; stroke: #3f3f3f; stroke-width: 1.5"/>
   </g>
   <g id="line2d_43">
    <path d="M 680.743634 435.567326 
L 721.8 435.567326 
" clip-path="url(#p5bae828666)" style="fill: none; stroke-dasharray: 6.75,6.75; stroke-dashoffset: 0; stroke: #3f3f3f; stroke-width: 1.5"/>
   </g>
   <g id="line2d_44">
    <path d="M 700.165508 417.989575 
L 721.8 417.989575 
" clip-path="url(#p5bae828666)" style="fill: none; stroke-dasharray: 3.375,3.375; stroke-dashoffset: 0; stroke: #3f3f3f; stroke-width: 1.5"/>
   </g>
   <g id="line2d_45">
    <path d="M 721.8 365.256321 
L 733.753302 365.256321 
" clip-path="url(#p5bae828666)" style="fill: none; stroke-dasharray: 3.375,3.375; stroke-dashoffset: 0; stroke: #3f3f3f; stroke-width: 1.5"/>
   </g>
   <g id="line2d_46">
    <path d="M 721.8 338.889694 
L 734.223696 338.889694 
" clip-path="url(#p5bae828666)" style="fill: none; stroke-dasharray: 6.75,6.75; stroke-dashoffset: 0; stroke: #3f3f3f; stroke-width: 1.5"/>
   </g>
   <g id="line2d_47">
    <path d="M 721.8 308.128629 
L 730.724184 308.128629 
" clip-path="url(#p5bae828666)" style="fill: none; stroke-dasharray: 3.375,3.375; stroke-dashoffset: 0; stroke: #3f3f3f; stroke-width: 1.5"/>
   </g>
   <g id="patch_5">
    <path d="M 108 512.64 
L 108 69.12 
" style="fill: none; stroke: #000000; stroke-width: 0.8; stroke-linejoin: miter; stroke-linecap: square"/>
   </g>
   <g id="patch_6">
    <path d="M 777.6 512.64 
L 777.6 69.12 
" style="fill: none; stroke: #000000; stroke-width: 0.8; stroke-linejoin: miter; stroke-linecap: square"/>
   </g>
   <g id="patch_7">
    <path d="M 108 512.64 
L 777.6 512.64 
" style="fill: none; stroke: #000000; stroke-width: 0.8; stroke-linejoin: miter; stroke-linecap: square"/>
   </g>
   <g id="patch_8">
    <path d="M 108 69.12 
L 777.6 69.12 
" style="fill: none; stroke: #000000; stroke-width: 0.8; stroke-linejoin: miter; stroke-linecap: square"/>
   </g>
   <g id="legend_1">
    <g id="patch_9">
     <path d="M 659.298437 121.710625 
L 770.6 121.710625 
Q 772.6 121.710625 772.6 119.710625 
L 772.6 76.12 
Q 772.6 74.12 770.6 74.12 
L 659.298437 74.12 
Q 657.298437 74.12 657.298437 76.12 
L 657.298437 119.710625 
Q 657.298437 121.710625 659.298437 121.710625 
z
" style="fill: #ffffff; opacity: 0.8; stroke: #cccccc; stroke-linejoin: miter"/>
    </g>
    <g id="text_14">
     <!-- Result -->
     <g transform="translate(699.500781 85.718438) scale(0.1 -0.1)">
      <defs>
       <path id="DejaVuSans-52" d="M 2841 2188 
Q 3044 2119 3236 1894 
Q 3428 1669 3622 1275 
L 4263 0 
L 3584 0 
L 2988 1197 
Q 2756 1666 2539 1819 
Q 2322 1972 1947 1972 
L 1259 1972 
L 1259 0 
L 628 0 
L 628 4666 
L 2053 4666 
Q 2853 4666 3247 4331 
Q 3641 3997 3641 3322 
Q 3641 2881 3436 2590 
Q 3231 2300 2841 2188 
z
M 1259 4147 
L 1259 2491 
L 2053 2491 
Q 2509 2491 2742 2702 
Q 2975 2913 2975 3322 
Q 2975 3731 2742 3939 
Q 2509 4147 2053 4147 
L 1259 4147 
z
" transform="scale(0.015625)"/>
       <path id="DejaVuSans-6c" d="M 603 4863 
L 1178 4863 
L 1178 0 
L 603 0 
L 603 4863 
z
" transform="scale(0.015625)"/>
      </defs>
      <use xlink:href="#DejaVuSans-52"/>
      <use xlink:href="#DejaVuSans-65" x="64.982422"/>
      <use xlink:href="#DejaVuSans-73" x="126.505859"/>
      <use xlink:href="#DejaVuSans-75" x="178.605469"/>
      <use xlink:href="#DejaVuSans-6c" x="241.984375"/>
      <use xlink:href="#DejaVuSans-74" x="269.767578"/>
     </g>
    </g>
    <g id="patch_10">
     <path d="M 661.298437 100.396563 
L 681.298437 100.396563 
L 681.298437 93.396563 
L 661.298437 93.396563 
z
" style="fill: #3274a1; stroke: #3f3f3f; stroke-width: 0.75; stroke-linejoin: miter"/>
    </g>
    <g id="text_15">
     <!-- Failed_Abs -->
     <g transform="translate(689.298437 100.396563) scale(0.1 -0.1)">
      <defs>
       <path id="DejaVuSans-46" d="M 628 4666 
L 3309 4666 
L 3309 4134 
L 1259 4134 
L 1259 2759 
L 3109 2759 
L 3109 2228 
L 1259 2228 
L 1259 0 
L 628 0 
L 628 4666 
z
" transform="scale(0.015625)"/>
       <path id="DejaVuSans-69" d="M 603 3500 
L 1178 3500 
L 1178 0 
L 603 0 
L 603 3500 
z
M 603 4863 
L 1178 4863 
L 1178 4134 
L 603 4134 
L 603 4863 
z
" transform="scale(0.015625)"/>
       <path id="DejaVuSans-64" d="M 2906 2969 
L 2906 4863 
L 3481 4863 
L 3481 0 
L 2906 0 
L 2906 525 
Q 2725 213 2448 61 
Q 2172 -91 1784 -91 
Q 1150 -91 751 415 
Q 353 922 353 1747 
Q 353 2572 751 3078 
Q 1150 3584 1784 3584 
Q 2172 3584 2448 3432 
Q 2725 3281 2906 2969 
z
M 947 1747 
Q 947 1113 1208 752 
Q 1469 391 1925 391 
Q 2381 391 2643 752 
Q 2906 1113 2906 1747 
Q 2906 2381 2643 2742 
Q 2381 3103 1925 3103 
Q 1469 3103 1208 2742 
Q 947 2381 947 1747 
z
" transform="scale(0.015625)"/>
       <path id="DejaVuSans-5f" d="M 3263 -1063 
L 3263 -1509 
L -63 -1509 
L -63 -1063 
L 3263 -1063 
z
" transform="scale(0.015625)"/>
       <path id="DejaVuSans-41" d="M 2188 4044 
L 1331 1722 
L 3047 1722 
L 2188 4044 
z
M 1831 4666 
L 2547 4666 
L 4325 0 
L 3669 0 
L 3244 1197 
L 1141 1197 
L 716 0 
L 50 0 
L 1831 4666 
z
" transform="scale(0.015625)"/>
       <path id="DejaVuSans-62" d="M 3116 1747 
Q 3116 2381 2855 2742 
Q 2594 3103 2138 3103 
Q 1681 3103 1420 2742 
Q 1159 2381 1159 1747 
Q 1159 1113 1420 752 
Q 1681 391 2138 391 
Q 2594 391 2855 752 
Q 3116 1113 3116 1747 
z
M 1159 2969 
Q 1341 3281 1617 3432 
Q 1894 3584 2278 3584 
Q 2916 3584 3314 3078 
Q 3713 2572 3713 1747 
Q 3713 922 3314 415 
Q 2916 -91 2278 -91 
Q 1894 -91 1617 61 
Q 1341 213 1159 525 
L 1159 0 
L 581 0 
L 581 4863 
L 1159 4863 
L 1159 2969 
z
" transform="scale(0.015625)"/>
      </defs>
      <use xlink:href="#DejaVuSans-46"/>
      <use xlink:href="#DejaVuSans-61" x="48.394531"/>
      <use xlink:href="#DejaVuSans-69" x="109.673828"/>
      <use xlink:href="#DejaVuSans-6c" x="137.457031"/>
      <use xlink:href="#DejaVuSans-65" x="165.240234"/>
      <use xlink:href="#DejaVuSans-64" x="226.763672"/>
      <use xlink:href="#DejaVuSans-5f" x="290.240234"/>
      <use xlink:href="#DejaVuSans-41" x="340.240234"/>
      <use xlink:href="#DejaVuSans-62" x="408.648438"/>
      <use xlink:href="#DejaVuSans-73" x="472.125"/>
     </g>
    </g>
    <g id="patch_11">
     <path d="M 661.298437 115.352813 
L 681.298437 115.352813 
L 681.298437 108.352813 
L 661.298437 108.352813 
z
" style="fill: #e1812c; stroke: #3f3f3f; stroke-width: 0.75; stroke-linejoin: miter"/>
    </g>
    <g id="text_16">
     <!-- Terminated_Abs -->
     <g transform="translate(689.298437 115.352813) scale(0.1 -0.1)">
      <defs>
       <path id="DejaVuSans-54" d="M -19 4666 
L 3928 4666 
L 3928 4134 
L 2272 4134 
L 2272 0 
L 1638 0 
L 1638 4134 
L -19 4134 
L -19 4666 
z
" transform="scale(0.015625)"/>
      </defs>
      <use xlink:href="#DejaVuSans-54"/>
      <use xlink:href="#DejaVuSans-65" x="44.083984"/>
      <use xlink:href="#DejaVuSans-72" x="105.607422"/>
      <use xlink:href="#DejaVuSans-6d" x="144.970703"/>
      <use xlink:href="#DejaVuSans-69" x="242.382812"/>
      <use xlink:href="#DejaVuSans-6e" x="270.166016"/>
      <use xlink:href="#DejaVuSans-61" x="333.544922"/>
      <use xlink:href="#DejaVuSans-74" x="394.824219"/>
      <use xlink:href="#DejaVuSans-65" x="434.033203"/>
      <use xlink:href="#DejaVuSans-64" x="495.556641"/>
      <use xlink:href="#DejaVuSans-5f" x="559.033203"/>
      <use xlink:href="#DejaVuSans-41" x="609.033203"/>
      <use xlink:href="#DejaVuSans-62" x="677.441406"/>
      <use xlink:href="#DejaVuSans-73" x="740.917969"/>
     </g>
    </g>
   </g>
  </g>
 </g>
 <defs>
  <clipPath id="p5bae828666">
   <rect x="108" y="69.12" width="669.6" height="443.52"/>
  </clipPath>
 </defs>
</svg>
