<?xml version="1.0" encoding="utf-8" standalone="no"?>
<!DOCTYPE svg PUBLIC "-//W3C//DTD SVG 1.1//EN"
  "http://www.w3.org/Graphics/SVG/1.1/DTD/svg11.dtd">
<svg xmlns:xlink="http://www.w3.org/1999/xlink" width="864pt" height="576pt" viewBox="0 0 864 576" xmlns="http://www.w3.org/2000/svg" version="1.1">
 <metadata>
  <rdf:RDF xmlns:dc="http://purl.org/dc/elements/1.1/" xmlns:cc="http://creativecommons.org/ns#" xmlns:rdf="http://www.w3.org/1999/02/22-rdf-syntax-ns#">
   <cc:Work>
    <dc:type rdf:resource="http://purl.org/dc/dcmitype/StillImage"/>
    <dc:date>2025-07-26T18:00:09.774203</dc:date>
    <dc:format>image/svg+xml</dc:format>
    <dc:creator>
     <cc:Agent>
      <dc:title>Matplotlib v3.8.0, https://matplotlib.org/</dc:title>
     </cc:Agent>
    </dc:creator>
   </cc:Work>
  </rdf:RDF>
 </metadata>
 <defs>
  <style type="text/css">*{stroke-linejoin: round; stroke-linecap: butt}</style>
 </defs>
 <g id="figure_1">
  <g id="patch_1">
   <path d="M 0 576 
L 864 576 
L 864 0 
L 0 0 
z
" style="fill: #ffffff"/>
  </g>
  <g id="axes_1">
   <g id="patch_2">
    <path d="M 108 512.64 
L 777.6 512.64 
L 777.6 69.12 
L 108 69.12 
z
" style="fill: #ffffff"/>
   </g>
   <g id="patch_3">
    <path d="M 163.8 450.01168 
L 163.8 450.01168 
L 163.8 450.01168 
L 163.8 450.01168 
z
" clip-path="url(#pde489d1656)" style="fill: #3274a1; stroke: #3f3f3f; stroke-width: 0.75; stroke-linejoin: miter"/>
   </g>
   <g id="PolyCollection_1">
    <defs>
     <path id="ma5e82d4976" d="M 163.8 -158.252198 
L 162.891066 -158.252198 
L 162.684501 -161.386701 
L 162.44594 -164.521204 
L 162.174285 -167.655706 
L 161.86938 -170.790209 
L 161.532198 -173.924711 
L 161.164991 -177.059214 
L 160.771386 -180.193717 
L 160.356413 -183.328219 
L 159.926449 -186.462722 
L 159.489064 -189.597224 
L 159.052778 -192.731727 
L 158.626723 -195.866229 
L 158.220221 -199.000732 
L 157.842316 -202.135235 
L 157.501264 -205.269737 
L 157.204031 -208.40424 
L 156.955833 -211.538742 
L 156.75974 -214.673245 
L 156.6164 -217.807748 
L 156.523883 -220.94225 
L 156.477677 -224.076753 
L 156.470838 -227.211255 
L 156.494286 -230.345758 
L 156.53723 -233.480261 
L 156.587694 -236.614763 
L 156.633107 -239.749266 
L 156.660912 -242.883768 
L 156.65916 -246.018271 
L 156.617043 -249.152773 
L 156.525324 -252.287276 
L 156.37665 -255.421779 
L 156.165715 -258.556281 
L 155.889285 -261.690784 
L 155.546074 -264.825286 
L 155.136491 -267.959789 
L 154.662299 -271.094292 
L 154.126186 -274.228794 
L 153.531323 -277.363297 
L 152.880916 -280.497799 
L 152.177804 -283.632302 
L 151.424135 -286.766804 
L 150.621137 -289.901307 
L 149.769014 -293.03581 
L 148.866971 -296.170312 
L 147.913359 -299.304815 
L 146.905942 -302.439317 
L 145.842261 -305.57382 
L 144.720059 -308.708323 
L 143.537746 -311.842825 
L 142.294861 -314.977328 
L 140.992495 -318.11183 
L 139.633642 -321.246333 
L 138.223447 -324.380836 
L 136.769334 -327.515338 
L 135.281007 -330.649841 
L 133.770311 -333.784343 
L 132.25099 -336.918846 
L 130.738346 -340.053348 
L 129.248832 -343.187851 
L 127.799628 -346.322354 
L 126.408222 -349.456856 
L 125.09203 -352.591359 
L 123.868092 -355.725861 
L 122.752838 -358.860364 
L 121.761938 -361.994867 
L 120.91022 -365.129369 
L 120.211629 -368.263872 
L 119.679198 -371.398374 
L 119.324993 -374.532877 
L 119.16 -377.667379 
L 119.193929 -380.801882 
L 119.434921 -383.936385 
L 119.889155 -387.070887 
L 120.560385 -390.20539 
L 121.449427 -393.339892 
L 122.553659 -396.474395 
L 123.866577 -399.608898 
L 125.377473 -402.7434 
L 127.071276 -405.877903 
L 128.928613 -409.012405 
L 130.926091 -412.146908 
L 133.036824 -415.28141 
L 135.231172 -418.415913 
L 137.477663 -421.550416 
L 139.744038 -424.684918 
L 141.998351 -427.819421 
L 144.210064 -430.953923 
L 146.351055 -434.088426 
L 148.396489 -437.222929 
L 150.32549 -440.357431 
L 152.121606 -443.491934 
L 153.773023 -446.626436 
L 155.272557 -449.760939 
L 156.617436 -452.895442 
L 157.808901 -456.029944 
L 158.851673 -459.164447 
L 159.753335 -462.298949 
L 160.52366 -465.433452 
L 161.173956 -468.567954 
L 163.8 -468.567954 
L 163.8 -468.567954 
L 163.8 -465.433452 
L 163.8 -462.298949 
L 163.8 -459.164447 
L 163.8 -456.029944 
L 163.8 -452.895442 
L 163.8 -449.760939 
L 163.8 -446.626436 
L 163.8 -443.491934 
L 163.8 -440.357431 
L 163.8 -437.222929 
L 163.8 -434.088426 
L 163.8 -430.953923 
L 163.8 -427.819421 
L 163.8 -424.684918 
L 163.8 -421.550416 
L 163.8 -418.415913 
L 163.8 -415.28141 
L 163.8 -412.146908 
L 163.8 -409.012405 
L 163.8 -405.877903 
L 163.8 -402.7434 
L 163.8 -399.608898 
L 163.8 -396.474395 
L 163.8 -393.339892 
L 163.8 -390.20539 
L 163.8 -387.070887 
L 163.8 -383.936385 
L 163.8 -380.801882 
L 163.8 -377.667379 
L 163.8 -374.532877 
L 163.8 -371.398374 
L 163.8 -368.263872 
L 163.8 -365.129369 
L 163.8 -361.994867 
L 163.8 -358.860364 
L 163.8 -355.725861 
L 163.8 -352.591359 
L 163.8 -349.456856 
L 163.8 -346.322354 
L 163.8 -343.187851 
L 163.8 -340.053348 
L 163.8 -336.918846 
L 163.8 -333.784343 
L 163.8 -330.649841 
L 163.8 -327.515338 
L 163.8 -324.380836 
L 163.8 -321.246333 
L 163.8 -318.11183 
L 163.8 -314.977328 
L 163.8 -311.842825 
L 163.8 -308.708323 
L 163.8 -305.57382 
L 163.8 -302.439317 
L 163.8 -299.304815 
L 163.8 -296.170312 
L 163.8 -293.03581 
L 163.8 -289.901307 
L 163.8 -286.766804 
L 163.8 -283.632302 
L 163.8 -280.497799 
L 163.8 -277.363297 
L 163.8 -274.228794 
L 163.8 -271.094292 
L 163.8 -267.959789 
L 163.8 -264.825286 
L 163.8 -261.690784 
L 163.8 -258.556281 
L 163.8 -255.421779 
L 163.8 -252.287276 
L 163.8 -249.152773 
L 163.8 -246.018271 
L 163.8 -242.883768 
L 163.8 -239.749266 
L 163.8 -236.614763 
L 163.8 -233.480261 
L 163.8 -230.345758 
L 163.8 -227.211255 
L 163.8 -224.076753 
L 163.8 -220.94225 
L 163.8 -217.807748 
L 163.8 -214.673245 
L 163.8 -211.538742 
L 163.8 -208.40424 
L 163.8 -205.269737 
L 163.8 -202.135235 
L 163.8 -199.000732 
L 163.8 -195.866229 
L 163.8 -192.731727 
L 163.8 -189.597224 
L 163.8 -186.462722 
L 163.8 -183.328219 
L 163.8 -180.193717 
L 163.8 -177.059214 
L 163.8 -173.924711 
L 163.8 -170.790209 
L 163.8 -167.655706 
L 163.8 -164.521204 
L 163.8 -161.386701 
L 163.8 -158.252198 
z
" style="stroke: #3f3f3f; stroke-width: 1.5"/>
    </defs>
    <g clip-path="url(#pde489d1656)">
     <use xlink:href="#ma5e82d4976" x="0" y="576" style="fill: #3274a1; stroke: #3f3f3f; stroke-width: 1.5"/>
    </g>
   </g>
   <g id="patch_4">
    <path d="M 163.8 450.01168 
L 163.8 450.01168 
L 163.8 450.01168 
L 163.8 450.01168 
z
" clip-path="url(#pde489d1656)" style="fill: #e1812c; stroke: #3f3f3f; stroke-width: 0.75; stroke-linejoin: miter"/>
   </g>
   <g id="PolyCollection_2">
    <defs>
     <path id="mc7eef26563" d="M 166.426044 -101.672046 
L 163.8 -101.672046 
L 163.8 -104.806548 
L 163.8 -107.941051 
L 163.8 -111.075553 
L 163.8 -114.210056 
L 163.8 -117.344558 
L 163.8 -120.479061 
L 163.8 -123.613564 
L 163.8 -126.748066 
L 163.8 -129.882569 
L 163.8 -133.017071 
L 163.8 -136.151574 
L 163.8 -139.286077 
L 163.8 -142.420579 
L 163.8 -145.555082 
L 163.8 -148.689584 
L 163.8 -151.824087 
L 163.8 -154.95859 
L 163.8 -158.093092 
L 163.8 -161.227595 
L 163.8 -164.362097 
L 163.8 -167.4966 
L 163.8 -170.631102 
L 163.8 -173.765605 
L 163.8 -176.900108 
L 163.8 -180.03461 
L 163.8 -183.169113 
L 163.8 -186.303615 
L 163.8 -189.438118 
L 163.8 -192.572621 
L 163.8 -195.707123 
L 163.8 -198.841626 
L 163.8 -201.976128 
L 163.8 -205.110631 
L 163.8 -208.245133 
L 163.8 -211.379636 
L 163.8 -214.514139 
L 163.8 -217.648641 
L 163.8 -220.783144 
L 163.8 -223.917646 
L 163.8 -227.052149 
L 163.8 -230.186652 
L 163.8 -233.321154 
L 163.8 -236.455657 
L 163.8 -239.590159 
L 163.8 -242.724662 
L 163.8 -245.859164 
L 163.8 -248.993667 
L 163.8 -252.12817 
L 163.8 -255.262672 
L 163.8 -258.397175 
L 163.8 -261.531677 
L 163.8 -264.66618 
L 163.8 -267.800683 
L 163.8 -270.935185 
L 163.8 -274.069688 
L 163.8 -277.20419 
L 163.8 -280.338693 
L 163.8 -283.473196 
L 163.8 -286.607698 
L 163.8 -289.742201 
L 163.8 -292.876703 
L 163.8 -296.011206 
L 163.8 -299.145708 
L 163.8 -302.280211 
L 163.8 -305.414714 
L 163.8 -308.549216 
L 163.8 -311.683719 
L 163.8 -314.818221 
L 163.8 -317.952724 
L 163.8 -321.087227 
L 163.8 -324.221729 
L 163.8 -327.356232 
L 163.8 -330.490734 
L 163.8 -333.625237 
L 163.8 -336.759739 
L 163.8 -339.894242 
L 163.8 -343.028745 
L 163.8 -346.163247 
L 163.8 -349.29775 
L 163.8 -352.432252 
L 163.8 -355.566755 
L 163.8 -358.701258 
L 163.8 -361.83576 
L 163.8 -364.970263 
L 163.8 -368.104765 
L 163.8 -371.239268 
L 163.8 -374.373771 
L 163.8 -377.508273 
L 163.8 -380.642776 
L 163.8 -383.777278 
L 163.8 -386.911781 
L 163.8 -390.046283 
L 163.8 -393.180786 
L 163.8 -396.315289 
L 163.8 -399.449791 
L 163.8 -402.584294 
L 163.8 -405.718796 
L 163.8 -408.853299 
L 163.8 -411.987802 
L 164.708934 -411.987802 
L 164.708934 -411.987802 
L 164.915499 -408.853299 
L 165.15406 -405.718796 
L 165.425715 -402.584294 
L 165.73062 -399.449791 
L 166.067802 -396.315289 
L 166.435009 -393.180786 
L 166.828614 -390.046283 
L 167.243587 -386.911781 
L 167.673551 -383.777278 
L 168.110936 -380.642776 
L 168.547222 -377.508273 
L 168.973277 -374.373771 
L 169.379779 -371.239268 
L 169.757684 -368.104765 
L 170.098736 -364.970263 
L 170.395969 -361.83576 
L 170.644167 -358.701258 
L 170.84026 -355.566755 
L 170.9836 -352.432252 
L 171.076117 -349.29775 
L 171.122323 -346.163247 
L 171.129162 -343.028745 
L 171.105714 -339.894242 
L 171.06277 -336.759739 
L 171.012306 -333.625237 
L 170.966893 -330.490734 
L 170.939088 -327.356232 
L 170.94084 -324.221729 
L 170.982957 -321.087227 
L 171.074676 -317.952724 
L 171.22335 -314.818221 
L 171.434285 -311.683719 
L 171.710715 -308.549216 
L 172.053926 -305.414714 
L 172.463509 -302.280211 
L 172.937701 -299.145708 
L 173.473814 -296.011206 
L 174.068677 -292.876703 
L 174.719084 -289.742201 
L 175.422196 -286.607698 
L 176.175865 -283.473196 
L 176.978863 -280.338693 
L 177.830986 -277.20419 
L 178.733029 -274.069688 
L 179.686641 -270.935185 
L 180.694058 -267.800683 
L 181.757739 -264.66618 
L 182.879941 -261.531677 
L 184.062254 -258.397175 
L 185.305139 -255.262672 
L 186.607505 -252.12817 
L 187.966358 -248.993667 
L 189.376553 -245.859164 
L 190.830666 -242.724662 
L 192.318993 -239.590159 
L 193.829689 -236.455657 
L 195.34901 -233.321154 
L 196.861654 -230.186652 
L 198.351168 -227.052149 
L 199.800372 -223.917646 
L 201.191778 -220.783144 
L 202.50797 -217.648641 
L 203.731908 -214.514139 
L 204.847162 -211.379636 
L 205.838062 -208.245133 
L 206.68978 -205.110631 
L 207.388371 -201.976128 
L 207.920802 -198.841626 
L 208.275007 -195.707123 
L 208.44 -192.572621 
L 208.406071 -189.438118 
L 208.165079 -186.303615 
L 207.710845 -183.169113 
L 207.039615 -180.03461 
L 206.150573 -176.900108 
L 205.046341 -173.765605 
L 203.733423 -170.631102 
L 202.222527 -167.4966 
L 200.528724 -164.362097 
L 198.671387 -161.227595 
L 196.673909 -158.093092 
L 194.563176 -154.95859 
L 192.368828 -151.824087 
L 190.122337 -148.689584 
L 187.855962 -145.555082 
L 185.601649 -142.420579 
L 183.389936 -139.286077 
L 181.248945 -136.151574 
L 179.203511 -133.017071 
L 177.27451 -129.882569 
L 175.478394 -126.748066 
L 173.826977 -123.613564 
L 172.327443 -120.479061 
L 170.982564 -117.344558 
L 169.791099 -114.210056 
L 168.748327 -111.075553 
L 167.846665 -107.941051 
L 167.07634 -104.806548 
L 166.426044 -101.672046 
z
" style="stroke: #3f3f3f; stroke-width: 1.5"/>
    </defs>
    <g clip-path="url(#pde489d1656)">
     <use xlink:href="#mc7eef26563" x="0" y="576" style="fill: #e1812c; stroke: #3f3f3f; stroke-width: 1.5"/>
    </g>
   </g>
   <g id="PolyCollection_3">
    <defs>
     <path id="m6308c3ad4f" d="M 275.4 -182.535268 
L 274.783292 -182.535268 
L 274.62678 -185.607841 
L 274.441102 -188.680414 
L 274.223699 -191.752987 
L 273.972505 -194.82556 
L 273.686121 -197.898133 
L 273.363987 -200.970706 
L 273.006532 -204.043279 
L 272.615281 -207.115852 
L 272.192909 -210.188425 
L 271.743232 -213.260998 
L 271.271119 -216.333571 
L 270.782333 -219.406144 
L 270.283297 -222.478717 
L 269.7808 -225.55129 
L 269.281658 -228.623863 
L 268.792359 -231.696436 
L 268.318717 -234.76901 
L 267.865563 -237.841583 
L 267.436503 -240.914156 
L 267.033757 -243.986729 
L 266.658103 -247.059302 
L 266.30893 -250.131875 
L 265.984379 -253.204448 
L 265.681575 -256.277021 
L 265.396909 -259.349594 
L 265.126339 -262.422167 
L 264.865691 -265.49474 
L 264.610894 -268.567313 
L 264.35816 -271.639886 
L 264.104051 -274.712459 
L 263.845462 -277.785032 
L 263.57949 -280.857605 
L 263.303242 -283.930178 
L 263.013575 -287.002751 
L 262.706835 -290.075325 
L 262.378611 -293.147898 
L 262.023552 -296.220471 
L 261.635278 -299.293044 
L 261.206399 -302.365617 
L 260.728666 -305.43819 
L 260.19324 -308.510763 
L 259.591064 -311.583336 
L 258.913325 -314.655909 
L 258.151958 -317.728482 
L 257.300162 -320.801055 
L 256.352892 -323.873628 
L 255.307291 -326.946201 
L 254.163035 -330.018774 
L 252.922576 -333.091347 
L 251.591271 -336.16392 
L 250.177396 -339.236493 
L 248.692063 -342.309066 
L 247.149034 -345.381639 
L 245.564479 -348.454213 
L 243.95666 -351.526786 
L 242.345596 -354.599359 
L 240.752695 -357.671932 
L 239.200377 -360.744505 
L 237.71169 -363.817078 
L 236.309933 -366.889651 
L 235.018266 -369.962224 
L 233.859322 -373.034797 
L 232.854811 -376.10737 
L 232.025115 -379.179943 
L 231.388871 -382.252516 
L 230.962544 -385.325089 
L 230.76 -388.397662 
L 230.792078 -391.470235 
L 231.066186 -394.542808 
L 231.585929 -397.615381 
L 232.350797 -400.687954 
L 233.355927 -403.760528 
L 234.591978 -406.833101 
L 236.045125 -409.905674 
L 237.697204 -412.978247 
L 239.526011 -416.05082 
L 241.50577 -419.123393 
L 243.607751 -422.195966 
L 245.801031 -425.268539 
L 248.053362 -428.341112 
L 250.332118 -431.413685 
L 252.605255 -434.486258 
L 254.842264 -437.558831 
L 257.015039 -440.631404 
L 259.098631 -443.703977 
L 261.071848 -446.77655 
L 262.917671 -449.849123 
L 264.623469 -452.921696 
L 266.181028 -455.994269 
L 267.586379 -459.066843 
L 268.839482 -462.139416 
L 269.943766 -465.211989 
L 270.905583 -468.284562 
L 271.733609 -471.357135 
L 272.43823 -474.429708 
L 273.030939 -477.502281 
L 273.523793 -480.574854 
L 273.928926 -483.647427 
L 274.258151 -486.72 
L 275.4 -486.72 
L 275.4 -486.72 
L 275.4 -483.647427 
L 275.4 -480.574854 
L 275.4 -477.502281 
L 275.4 -474.429708 
L 275.4 -471.357135 
L 275.4 -468.284562 
L 275.4 -465.211989 
L 275.4 -462.139416 
L 275.4 -459.066843 
L 275.4 -455.994269 
L 275.4 -452.921696 
L 275.4 -449.849123 
L 275.4 -446.77655 
L 275.4 -443.703977 
L 275.4 -440.631404 
L 275.4 -437.558831 
L 275.4 -434.486258 
L 275.4 -431.413685 
L 275.4 -428.341112 
L 275.4 -425.268539 
L 275.4 -422.195966 
L 275.4 -419.123393 
L 275.4 -416.05082 
L 275.4 -412.978247 
L 275.4 -409.905674 
L 275.4 -406.833101 
L 275.4 -403.760528 
L 275.4 -400.687954 
L 275.4 -397.615381 
L 275.4 -394.542808 
L 275.4 -391.470235 
L 275.4 -388.397662 
L 275.4 -385.325089 
L 275.4 -382.252516 
L 275.4 -379.179943 
L 275.4 -376.10737 
L 275.4 -373.034797 
L 275.4 -369.962224 
L 275.4 -366.889651 
L 275.4 -363.817078 
L 275.4 -360.744505 
L 275.4 -357.671932 
L 275.4 -354.599359 
L 275.4 -351.526786 
L 275.4 -348.454213 
L 275.4 -345.381639 
L 275.4 -342.309066 
L 275.4 -339.236493 
L 275.4 -336.16392 
L 275.4 -333.091347 
L 275.4 -330.018774 
L 275.4 -326.946201 
L 275.4 -323.873628 
L 275.4 -320.801055 
L 275.4 -317.728482 
L 275.4 -314.655909 
L 275.4 -311.583336 
L 275.4 -308.510763 
L 275.4 -305.43819 
L 275.4 -302.365617 
L 275.4 -299.293044 
L 275.4 -296.220471 
L 275.4 -293.147898 
L 275.4 -290.075325 
L 275.4 -287.002751 
L 275.4 -283.930178 
L 275.4 -280.857605 
L 275.4 -277.785032 
L 275.4 -274.712459 
L 275.4 -271.639886 
L 275.4 -268.567313 
L 275.4 -265.49474 
L 275.4 -262.422167 
L 275.4 -259.349594 
L 275.4 -256.277021 
L 275.4 -253.204448 
L 275.4 -250.131875 
L 275.4 -247.059302 
L 275.4 -243.986729 
L 275.4 -240.914156 
L 275.4 -237.841583 
L 275.4 -234.76901 
L 275.4 -231.696436 
L 275.4 -228.623863 
L 275.4 -225.55129 
L 275.4 -222.478717 
L 275.4 -219.406144 
L 275.4 -216.333571 
L 275.4 -213.260998 
L 275.4 -210.188425 
L 275.4 -207.115852 
L 275.4 -204.043279 
L 275.4 -200.970706 
L 275.4 -197.898133 
L 275.4 -194.82556 
L 275.4 -191.752987 
L 275.4 -188.680414 
L 275.4 -185.607841 
L 275.4 -182.535268 
z
" style="stroke: #3f3f3f; stroke-width: 1.5"/>
    </defs>
    <g clip-path="url(#pde489d1656)">
     <use xlink:href="#m6308c3ad4f" x="0" y="576" style="fill: #3274a1; stroke: #3f3f3f; stroke-width: 1.5"/>
    </g>
   </g>
   <g id="PolyCollection_4">
    <defs>
     <path id="m8e4a837102" d="M 276.541849 -83.52 
L 275.4 -83.52 
L 275.4 -86.592573 
L 275.4 -89.665146 
L 275.4 -92.737719 
L 275.4 -95.810292 
L 275.4 -98.882865 
L 275.4 -101.955438 
L 275.4 -105.028011 
L 275.4 -108.100584 
L 275.4 -111.173157 
L 275.4 -114.245731 
L 275.4 -117.318304 
L 275.4 -120.390877 
L 275.4 -123.46345 
L 275.4 -126.536023 
L 275.4 -129.608596 
L 275.4 -132.681169 
L 275.4 -135.753742 
L 275.4 -138.826315 
L 275.4 -141.898888 
L 275.4 -144.971461 
L 275.4 -148.044034 
L 275.4 -151.116607 
L 275.4 -154.18918 
L 275.4 -157.261753 
L 275.4 -160.334326 
L 275.4 -163.406899 
L 275.4 -166.479472 
L 275.4 -169.552046 
L 275.4 -172.624619 
L 275.4 -175.697192 
L 275.4 -178.769765 
L 275.4 -181.842338 
L 275.4 -184.914911 
L 275.4 -187.987484 
L 275.4 -191.060057 
L 275.4 -194.13263 
L 275.4 -197.205203 
L 275.4 -200.277776 
L 275.4 -203.350349 
L 275.4 -206.422922 
L 275.4 -209.495495 
L 275.4 -212.568068 
L 275.4 -215.640641 
L 275.4 -218.713214 
L 275.4 -221.785787 
L 275.4 -224.858361 
L 275.4 -227.930934 
L 275.4 -231.003507 
L 275.4 -234.07608 
L 275.4 -237.148653 
L 275.4 -240.221226 
L 275.4 -243.293799 
L 275.4 -246.366372 
L 275.4 -249.438945 
L 275.4 -252.511518 
L 275.4 -255.584091 
L 275.4 -258.656664 
L 275.4 -261.729237 
L 275.4 -264.80181 
L 275.4 -267.874383 
L 275.4 -270.946956 
L 275.4 -274.019529 
L 275.4 -277.092102 
L 275.4 -280.164675 
L 275.4 -283.237249 
L 275.4 -286.309822 
L 275.4 -289.382395 
L 275.4 -292.454968 
L 275.4 -295.527541 
L 275.4 -298.600114 
L 275.4 -301.672687 
L 275.4 -304.74526 
L 275.4 -307.817833 
L 275.4 -310.890406 
L 275.4 -313.962979 
L 275.4 -317.035552 
L 275.4 -320.108125 
L 275.4 -323.180698 
L 275.4 -326.253271 
L 275.4 -329.325844 
L 275.4 -332.398417 
L 275.4 -335.47099 
L 275.4 -338.543564 
L 275.4 -341.616137 
L 275.4 -344.68871 
L 275.4 -347.761283 
L 275.4 -350.833856 
L 275.4 -353.906429 
L 275.4 -356.979002 
L 275.4 -360.051575 
L 275.4 -363.124148 
L 275.4 -366.196721 
L 275.4 -369.269294 
L 275.4 -372.341867 
L 275.4 -375.41444 
L 275.4 -378.487013 
L 275.4 -381.559586 
L 275.4 -384.632159 
L 275.4 -387.704732 
L 276.016708 -387.704732 
L 276.016708 -387.704732 
L 276.17322 -384.632159 
L 276.358898 -381.559586 
L 276.576301 -378.487013 
L 276.827495 -375.41444 
L 277.113879 -372.341867 
L 277.436013 -369.269294 
L 277.793468 -366.196721 
L 278.184719 -363.124148 
L 278.607091 -360.051575 
L 279.056768 -356.979002 
L 279.528881 -353.906429 
L 280.017667 -350.833856 
L 280.516703 -347.761283 
L 281.0192 -344.68871 
L 281.518342 -341.616137 
L 282.007641 -338.543564 
L 282.481283 -335.47099 
L 282.934437 -332.398417 
L 283.363497 -329.325844 
L 283.766243 -326.253271 
L 284.141897 -323.180698 
L 284.49107 -320.108125 
L 284.815621 -317.035552 
L 285.118425 -313.962979 
L 285.403091 -310.890406 
L 285.673661 -307.817833 
L 285.934309 -304.74526 
L 286.189106 -301.672687 
L 286.44184 -298.600114 
L 286.695949 -295.527541 
L 286.954538 -292.454968 
L 287.22051 -289.382395 
L 287.496758 -286.309822 
L 287.786425 -283.237249 
L 288.093165 -280.164675 
L 288.421389 -277.092102 
L 288.776448 -274.019529 
L 289.164722 -270.946956 
L 289.593601 -267.874383 
L 290.071334 -264.80181 
L 290.60676 -261.729237 
L 291.208936 -258.656664 
L 291.886675 -255.584091 
L 292.648042 -252.511518 
L 293.499838 -249.438945 
L 294.447108 -246.366372 
L 295.492709 -243.293799 
L 296.636965 -240.221226 
L 297.877424 -237.148653 
L 299.208729 -234.07608 
L 300.622604 -231.003507 
L 302.107937 -227.930934 
L 303.650966 -224.858361 
L 305.235521 -221.785787 
L 306.84334 -218.713214 
L 308.454404 -215.640641 
L 310.047305 -212.568068 
L 311.599623 -209.495495 
L 313.08831 -206.422922 
L 314.490067 -203.350349 
L 315.781734 -200.277776 
L 316.940678 -197.205203 
L 317.945189 -194.13263 
L 318.774885 -191.060057 
L 319.411129 -187.987484 
L 319.837456 -184.914911 
L 320.04 -181.842338 
L 320.007922 -178.769765 
L 319.733814 -175.697192 
L 319.214071 -172.624619 
L 318.449203 -169.552046 
L 317.444073 -166.479472 
L 316.208022 -163.406899 
L 314.754875 -160.334326 
L 313.102796 -157.261753 
L 311.273989 -154.18918 
L 309.29423 -151.116607 
L 307.192249 -148.044034 
L 304.998969 -144.971461 
L 302.746638 -141.898888 
L 300.467882 -138.826315 
L 298.194745 -135.753742 
L 295.957736 -132.681169 
L 293.784961 -129.608596 
L 291.701369 -126.536023 
L 289.728152 -123.46345 
L 287.882329 -120.390877 
L 286.176531 -117.318304 
L 284.618972 -114.245731 
L 283.213621 -111.173157 
L 281.960518 -108.100584 
L 280.856234 -105.028011 
L 279.894417 -101.955438 
L 279.066391 -98.882865 
L 278.36177 -95.810292 
L 277.769061 -92.737719 
L 277.276207 -89.665146 
L 276.871074 -86.592573 
L 276.541849 -83.52 
z
" style="stroke: #3f3f3f; stroke-width: 1.5"/>
    </defs>
    <g clip-path="url(#pde489d1656)">
     <use xlink:href="#m8e4a837102" x="0" y="576" style="fill: #e1812c; stroke: #3f3f3f; stroke-width: 1.5"/>
    </g>
   </g>
   <g id="PolyCollection_5">
    <defs>
     <path id="m10f0b12140" d="M 387 -134.009236 
L 386.558421 -134.009236 
L 386.453396 -137.419176 
L 386.331078 -140.829117 
L 386.190615 -144.239058 
L 386.031584 -147.648998 
L 385.854074 -151.058939 
L 385.658742 -154.46888 
L 385.446826 -157.87882 
L 385.220127 -161.288761 
L 384.980924 -164.698702 
L 384.731851 -168.108642 
L 384.475717 -171.518583 
L 384.215285 -174.928524 
L 383.953025 -178.338464 
L 383.690859 -181.748405 
L 383.429922 -185.158345 
L 383.17036 -188.568286 
L 382.911197 -191.978227 
L 382.650285 -195.388167 
L 382.384358 -198.798108 
L 382.109192 -202.208049 
L 381.819877 -205.617989 
L 381.511178 -209.02793 
L 381.177978 -212.437871 
L 380.815745 -215.847811 
L 380.421022 -219.257752 
L 379.991858 -222.667693 
L 379.52817 -226.077633 
L 379.031984 -229.487574 
L 378.507519 -232.897515 
L 377.961121 -236.307455 
L 377.401002 -239.717396 
L 376.836822 -243.127336 
L 376.279132 -246.537277 
L 375.738685 -249.947218 
L 375.225702 -253.357158 
L 374.749103 -256.767099 
L 374.315788 -260.17704 
L 373.930004 -263.58698 
L 373.592857 -266.996921 
L 373.302003 -270.406862 
L 373.051547 -273.816802 
L 372.832163 -277.226743 
L 372.631436 -280.636684 
L 372.434394 -284.046624 
L 372.224209 -287.456565 
L 371.983006 -290.866506 
L 371.692735 -294.276446 
L 371.336043 -297.686387 
L 370.897077 -301.096327 
L 370.362187 -304.506268 
L 369.720465 -307.916209 
L 368.964117 -311.326149 
L 368.08865 -314.73609 
L 367.092883 -318.146031 
L 365.978829 -321.555971 
L 364.751463 -324.965912 
L 363.418452 -328.375853 
L 361.989877 -331.785793 
L 360.478008 -335.195734 
L 358.897157 -338.605675 
L 357.263628 -342.015615 
L 355.595762 -345.425556 
L 353.914053 -348.835497 
L 352.241285 -352.245437 
L 350.602644 -355.655378 
L 349.025724 -359.065318 
L 347.54038 -362.475259 
L 346.178352 -365.8852 
L 344.972634 -369.29514 
L 343.956586 -372.705081 
L 343.162778 -376.115022 
L 342.621642 -379.524962 
L 342.36 -382.934903 
L 342.399561 -386.344844 
L 342.755518 -389.754784 
L 343.435347 -393.164725 
L 344.437932 -396.574666 
L 345.753094 -399.984606 
L 347.361593 -403.394547 
L 349.235618 -406.804487 
L 351.339758 -410.214428 
L 353.63239 -413.624369 
L 356.067389 -417.034309 
L 358.596071 -420.44425 
L 361.1692 -423.854191 
L 363.738967 -427.264131 
L 366.260784 -430.674072 
L 368.694815 -434.084013 
L 371.00715 -437.493953 
L 373.170586 -440.903894 
L 375.164998 -444.313835 
L 376.97732 -447.723775 
L 378.601185 -451.133716 
L 380.036276 -454.543657 
L 381.287479 -457.953597 
L 382.363901 -461.363538 
L 383.277847 -464.773478 
L 384.043812 -468.183419 
L 384.677542 -471.59336 
L 387 -471.59336 
L 387 -471.59336 
L 387 -468.183419 
L 387 -464.773478 
L 387 -461.363538 
L 387 -457.953597 
L 387 -454.543657 
L 387 -451.133716 
L 387 -447.723775 
L 387 -444.313835 
L 387 -440.903894 
L 387 -437.493953 
L 387 -434.084013 
L 387 -430.674072 
L 387 -427.264131 
L 387 -423.854191 
L 387 -420.44425 
L 387 -417.034309 
L 387 -413.624369 
L 387 -410.214428 
L 387 -406.804487 
L 387 -403.394547 
L 387 -399.984606 
L 387 -396.574666 
L 387 -393.164725 
L 387 -389.754784 
L 387 -386.344844 
L 387 -382.934903 
L 387 -379.524962 
L 387 -376.115022 
L 387 -372.705081 
L 387 -369.29514 
L 387 -365.8852 
L 387 -362.475259 
L 387 -359.065318 
L 387 -355.655378 
L 387 -352.245437 
L 387 -348.835497 
L 387 -345.425556 
L 387 -342.015615 
L 387 -338.605675 
L 387 -335.195734 
L 387 -331.785793 
L 387 -328.375853 
L 387 -324.965912 
L 387 -321.555971 
L 387 -318.146031 
L 387 -314.73609 
L 387 -311.326149 
L 387 -307.916209 
L 387 -304.506268 
L 387 -301.096327 
L 387 -297.686387 
L 387 -294.276446 
L 387 -290.866506 
L 387 -287.456565 
L 387 -284.046624 
L 387 -280.636684 
L 387 -277.226743 
L 387 -273.816802 
L 387 -270.406862 
L 387 -266.996921 
L 387 -263.58698 
L 387 -260.17704 
L 387 -256.767099 
L 387 -253.357158 
L 387 -249.947218 
L 387 -246.537277 
L 387 -243.127336 
L 387 -239.717396 
L 387 -236.307455 
L 387 -232.897515 
L 387 -229.487574 
L 387 -226.077633 
L 387 -222.667693 
L 387 -219.257752 
L 387 -215.847811 
L 387 -212.437871 
L 387 -209.02793 
L 387 -205.617989 
L 387 -202.208049 
L 387 -198.798108 
L 387 -195.388167 
L 387 -191.978227 
L 387 -188.568286 
L 387 -185.158345 
L 387 -181.748405 
L 387 -178.338464 
L 387 -174.928524 
L 387 -171.518583 
L 387 -168.108642 
L 387 -164.698702 
L 387 -161.288761 
L 387 -157.87882 
L 387 -154.46888 
L 387 -151.058939 
L 387 -147.648998 
L 387 -144.239058 
L 387 -140.829117 
L 387 -137.419176 
L 387 -134.009236 
z
" style="stroke: #3f3f3f; stroke-width: 1.5"/>
    </defs>
    <g clip-path="url(#pde489d1656)">
     <use xlink:href="#m10f0b12140" x="0" y="576" style="fill: #3274a1; stroke: #3f3f3f; stroke-width: 1.5"/>
    </g>
   </g>
   <g id="PolyCollection_6">
    <defs>
     <path id="m7ddb9b0ceb" d="M 389.322458 -98.64664 
L 387 -98.64664 
L 387 -102.056581 
L 387 -105.466522 
L 387 -108.876462 
L 387 -112.286403 
L 387 -115.696343 
L 387 -119.106284 
L 387 -122.516225 
L 387 -125.926165 
L 387 -129.336106 
L 387 -132.746047 
L 387 -136.155987 
L 387 -139.565928 
L 387 -142.975869 
L 387 -146.385809 
L 387 -149.79575 
L 387 -153.205691 
L 387 -156.615631 
L 387 -160.025572 
L 387 -163.435513 
L 387 -166.845453 
L 387 -170.255394 
L 387 -173.665334 
L 387 -177.075275 
L 387 -180.485216 
L 387 -183.895156 
L 387 -187.305097 
L 387 -190.715038 
L 387 -194.124978 
L 387 -197.534919 
L 387 -200.94486 
L 387 -204.3548 
L 387 -207.764741 
L 387 -211.174682 
L 387 -214.584622 
L 387 -217.994563 
L 387 -221.404503 
L 387 -224.814444 
L 387 -228.224385 
L 387 -231.634325 
L 387 -235.044266 
L 387 -238.454207 
L 387 -241.864147 
L 387 -245.274088 
L 387 -248.684029 
L 387 -252.093969 
L 387 -255.50391 
L 387 -258.913851 
L 387 -262.323791 
L 387 -265.733732 
L 387 -269.143673 
L 387 -272.553613 
L 387 -275.963554 
L 387 -279.373494 
L 387 -282.783435 
L 387 -286.193376 
L 387 -289.603316 
L 387 -293.013257 
L 387 -296.423198 
L 387 -299.833138 
L 387 -303.243079 
L 387 -306.65302 
L 387 -310.06296 
L 387 -313.472901 
L 387 -316.882842 
L 387 -320.292782 
L 387 -323.702723 
L 387 -327.112664 
L 387 -330.522604 
L 387 -333.932545 
L 387 -337.342485 
L 387 -340.752426 
L 387 -344.162367 
L 387 -347.572307 
L 387 -350.982248 
L 387 -354.392189 
L 387 -357.802129 
L 387 -361.21207 
L 387 -364.622011 
L 387 -368.031951 
L 387 -371.441892 
L 387 -374.851833 
L 387 -378.261773 
L 387 -381.671714 
L 387 -385.081655 
L 387 -388.491595 
L 387 -391.901536 
L 387 -395.311476 
L 387 -398.721417 
L 387 -402.131358 
L 387 -405.541298 
L 387 -408.951239 
L 387 -412.36118 
L 387 -415.77112 
L 387 -419.181061 
L 387 -422.591002 
L 387 -426.000942 
L 387 -429.410883 
L 387 -432.820824 
L 387 -436.230764 
L 387.441579 -436.230764 
L 387.441579 -436.230764 
L 387.546604 -432.820824 
L 387.668922 -429.410883 
L 387.809385 -426.000942 
L 387.968416 -422.591002 
L 388.145926 -419.181061 
L 388.341258 -415.77112 
L 388.553174 -412.36118 
L 388.779873 -408.951239 
L 389.019076 -405.541298 
L 389.268149 -402.131358 
L 389.524283 -398.721417 
L 389.784715 -395.311476 
L 390.046975 -391.901536 
L 390.309141 -388.491595 
L 390.570078 -385.081655 
L 390.82964 -381.671714 
L 391.088803 -378.261773 
L 391.349715 -374.851833 
L 391.615642 -371.441892 
L 391.890808 -368.031951 
L 392.180123 -364.622011 
L 392.488822 -361.21207 
L 392.822022 -357.802129 
L 393.184255 -354.392189 
L 393.578978 -350.982248 
L 394.008142 -347.572307 
L 394.47183 -344.162367 
L 394.968016 -340.752426 
L 395.492481 -337.342485 
L 396.038879 -333.932545 
L 396.598998 -330.522604 
L 397.163178 -327.112664 
L 397.720868 -323.702723 
L 398.261315 -320.292782 
L 398.774298 -316.882842 
L 399.250897 -313.472901 
L 399.684212 -310.06296 
L 400.069996 -306.65302 
L 400.407143 -303.243079 
L 400.697997 -299.833138 
L 400.948453 -296.423198 
L 401.167837 -293.013257 
L 401.368564 -289.603316 
L 401.565606 -286.193376 
L 401.775791 -282.783435 
L 402.016994 -279.373494 
L 402.307265 -275.963554 
L 402.663957 -272.553613 
L 403.102923 -269.143673 
L 403.637813 -265.733732 
L 404.279535 -262.323791 
L 405.035883 -258.913851 
L 405.91135 -255.50391 
L 406.907117 -252.093969 
L 408.021171 -248.684029 
L 409.248537 -245.274088 
L 410.581548 -241.864147 
L 412.010123 -238.454207 
L 413.521992 -235.044266 
L 415.102843 -231.634325 
L 416.736372 -228.224385 
L 418.404238 -224.814444 
L 420.085947 -221.404503 
L 421.758715 -217.994563 
L 423.397356 -214.584622 
L 424.974276 -211.174682 
L 426.45962 -207.764741 
L 427.821648 -204.3548 
L 429.027366 -200.94486 
L 430.043414 -197.534919 
L 430.837222 -194.124978 
L 431.378358 -190.715038 
L 431.64 -187.305097 
L 431.600439 -183.895156 
L 431.244482 -180.485216 
L 430.564653 -177.075275 
L 429.562068 -173.665334 
L 428.246906 -170.255394 
L 426.638407 -166.845453 
L 424.764382 -163.435513 
L 422.660242 -160.025572 
L 420.36761 -156.615631 
L 417.932611 -153.205691 
L 415.403929 -149.79575 
L 412.8308 -146.385809 
L 410.261033 -142.975869 
L 407.739216 -139.565928 
L 405.305185 -136.155987 
L 402.99285 -132.746047 
L 400.829414 -129.336106 
L 398.835002 -125.926165 
L 397.02268 -122.516225 
L 395.398815 -119.106284 
L 393.963724 -115.696343 
L 392.712521 -112.286403 
L 391.636099 -108.876462 
L 390.722153 -105.466522 
L 389.956188 -102.056581 
L 389.322458 -98.64664 
z
" style="stroke: #3f3f3f; stroke-width: 1.5"/>
    </defs>
    <g clip-path="url(#pde489d1656)">
     <use xlink:href="#m7ddb9b0ceb" x="0" y="576" style="fill: #e1812c; stroke: #3f3f3f; stroke-width: 1.5"/>
    </g>
   </g>
   <g id="PolyCollection_7">
    <defs>
     <path id="m16315fd0b5" d="M 498.6 -180.096133 
L 497.868292 -180.096133 
L 497.684322 -182.932223 
L 497.467168 -185.768313 
L 497.21444 -188.604403 
L 496.924498 -191.440493 
L 496.596675 -194.276583 
L 496.231482 -197.112674 
L 495.830771 -199.948764 
L 495.397844 -202.784854 
L 494.937474 -205.620944 
L 494.455842 -208.457034 
L 493.960367 -211.293124 
L 493.459436 -214.129214 
L 492.962045 -216.965305 
L 492.47736 -219.801395 
L 492.014233 -222.637485 
L 491.580703 -225.473575 
L 491.18352 -228.309665 
L 490.827727 -231.145755 
L 490.51633 -233.981846 
L 490.250098 -236.817936 
L 490.027488 -239.654026 
L 489.844717 -242.490116 
L 489.695961 -245.326206 
L 489.573674 -248.162296 
L 489.468979 -250.998387 
L 489.372123 -253.834477 
L 489.272923 -256.670567 
L 489.161206 -259.506657 
L 489.027171 -262.342747 
L 488.861689 -265.178837 
L 488.656494 -268.014928 
L 488.404286 -270.851018 
L 488.09874 -273.687108 
L 487.734448 -276.523198 
L 487.306798 -279.359288 
L 486.811832 -282.195378 
L 486.246105 -285.031469 
L 485.606558 -287.867559 
L 484.890431 -290.703649 
L 484.095241 -293.539739 
L 483.218806 -296.375829 
L 482.259352 -299.211919 
L 481.215669 -302.04801 
L 480.087326 -304.8841 
L 478.87493 -307.72019 
L 477.580406 -310.55628 
L 476.207285 -313.39237 
L 474.760983 -316.22846 
L 473.249048 -319.06455 
L 471.681343 -321.900641 
L 470.070172 -324.736731 
L 468.430303 -327.572821 
L 466.778894 -330.408911 
L 465.135312 -333.245001 
L 463.520826 -336.081091 
L 461.9582 -338.917182 
L 460.471178 -341.753272 
L 459.083882 -344.589362 
L 457.820151 -347.425452 
L 456.702848 -350.261542 
L 455.753155 -353.097632 
L 454.989907 -355.933723 
L 454.428988 -358.769813 
L 454.082824 -361.605903 
L 453.96 -364.441993 
L 454.065022 -367.278083 
L 454.398226 -370.114173 
L 454.955856 -372.950264 
L 455.730271 -375.786354 
L 456.710298 -378.622444 
L 457.881672 -381.458534 
L 459.227558 -384.294624 
L 460.729099 -387.130714 
L 462.36597 -389.966805 
L 464.116909 -392.802895 
L 465.960192 -395.638985 
L 467.874045 -398.475075 
L 469.836991 -401.311165 
L 471.828125 -404.147255 
L 473.827341 -406.983346 
L 475.815505 -409.819436 
L 477.774617 -412.655526 
L 479.687952 -415.491616 
L 481.540206 -418.327706 
L 483.317641 -421.163796 
L 485.008239 -423.999887 
L 486.601847 -426.835977 
L 488.090316 -429.672067 
L 489.467592 -432.508157 
L 490.729786 -435.344247 
L 491.875166 -438.180337 
L 492.904102 -441.016427 
L 493.818933 -443.852518 
L 494.623774 -446.688608 
L 495.324273 -449.524698 
L 495.927316 -452.360788 
L 496.440718 -455.196878 
L 496.872902 -458.032968 
L 497.232584 -460.869059 
L 498.6 -460.869059 
L 498.6 -460.869059 
L 498.6 -458.032968 
L 498.6 -455.196878 
L 498.6 -452.360788 
L 498.6 -449.524698 
L 498.6 -446.688608 
L 498.6 -443.852518 
L 498.6 -441.016427 
L 498.6 -438.180337 
L 498.6 -435.344247 
L 498.6 -432.508157 
L 498.6 -429.672067 
L 498.6 -426.835977 
L 498.6 -423.999887 
L 498.6 -421.163796 
L 498.6 -418.327706 
L 498.6 -415.491616 
L 498.6 -412.655526 
L 498.6 -409.819436 
L 498.6 -406.983346 
L 498.6 -404.147255 
L 498.6 -401.311165 
L 498.6 -398.475075 
L 498.6 -395.638985 
L 498.6 -392.802895 
L 498.6 -389.966805 
L 498.6 -387.130714 
L 498.6 -384.294624 
L 498.6 -381.458534 
L 498.6 -378.622444 
L 498.6 -375.786354 
L 498.6 -372.950264 
L 498.6 -370.114173 
L 498.6 -367.278083 
L 498.6 -364.441993 
L 498.6 -361.605903 
L 498.6 -358.769813 
L 498.6 -355.933723 
L 498.6 -353.097632 
L 498.6 -350.261542 
L 498.6 -347.425452 
L 498.6 -344.589362 
L 498.6 -341.753272 
L 498.6 -338.917182 
L 498.6 -336.081091 
L 498.6 -333.245001 
L 498.6 -330.408911 
L 498.6 -327.572821 
L 498.6 -324.736731 
L 498.6 -321.900641 
L 498.6 -319.06455 
L 498.6 -316.22846 
L 498.6 -313.39237 
L 498.6 -310.55628 
L 498.6 -307.72019 
L 498.6 -304.8841 
L 498.6 -302.04801 
L 498.6 -299.211919 
L 498.6 -296.375829 
L 498.6 -293.539739 
L 498.6 -290.703649 
L 498.6 -287.867559 
L 498.6 -285.031469 
L 498.6 -282.195378 
L 498.6 -279.359288 
L 498.6 -276.523198 
L 498.6 -273.687108 
L 498.6 -270.851018 
L 498.6 -268.014928 
L 498.6 -265.178837 
L 498.6 -262.342747 
L 498.6 -259.506657 
L 498.6 -256.670567 
L 498.6 -253.834477 
L 498.6 -250.998387 
L 498.6 -248.162296 
L 498.6 -245.326206 
L 498.6 -242.490116 
L 498.6 -239.654026 
L 498.6 -236.817936 
L 498.6 -233.981846 
L 498.6 -231.145755 
L 498.6 -228.309665 
L 498.6 -225.473575 
L 498.6 -222.637485 
L 498.6 -219.801395 
L 498.6 -216.965305 
L 498.6 -214.129214 
L 498.6 -211.293124 
L 498.6 -208.457034 
L 498.6 -205.620944 
L 498.6 -202.784854 
L 498.6 -199.948764 
L 498.6 -197.112674 
L 498.6 -194.276583 
L 498.6 -191.440493 
L 498.6 -188.604403 
L 498.6 -185.768313 
L 498.6 -182.932223 
L 498.6 -180.096133 
z
" style="stroke: #3f3f3f; stroke-width: 1.5"/>
    </defs>
    <g clip-path="url(#pde489d1656)">
     <use xlink:href="#m16315fd0b5" x="0" y="576" style="fill: #3274a1; stroke: #3f3f3f; stroke-width: 1.5"/>
    </g>
   </g>
   <g id="PolyCollection_8">
    <defs>
     <path id="m126aebc0b3" d="M 499.967416 -109.370941 
L 498.6 -109.370941 
L 498.6 -112.207032 
L 498.6 -115.043122 
L 498.6 -117.879212 
L 498.6 -120.715302 
L 498.6 -123.551392 
L 498.6 -126.387482 
L 498.6 -129.223573 
L 498.6 -132.059663 
L 498.6 -134.895753 
L 498.6 -137.731843 
L 498.6 -140.567933 
L 498.6 -143.404023 
L 498.6 -146.240113 
L 498.6 -149.076204 
L 498.6 -151.912294 
L 498.6 -154.748384 
L 498.6 -157.584474 
L 498.6 -160.420564 
L 498.6 -163.256654 
L 498.6 -166.092745 
L 498.6 -168.928835 
L 498.6 -171.764925 
L 498.6 -174.601015 
L 498.6 -177.437105 
L 498.6 -180.273195 
L 498.6 -183.109286 
L 498.6 -185.945376 
L 498.6 -188.781466 
L 498.6 -191.617556 
L 498.6 -194.453646 
L 498.6 -197.289736 
L 498.6 -200.125827 
L 498.6 -202.961917 
L 498.6 -205.798007 
L 498.6 -208.634097 
L 498.6 -211.470187 
L 498.6 -214.306277 
L 498.6 -217.142368 
L 498.6 -219.978458 
L 498.6 -222.814548 
L 498.6 -225.650638 
L 498.6 -228.486728 
L 498.6 -231.322818 
L 498.6 -234.158909 
L 498.6 -236.994999 
L 498.6 -239.831089 
L 498.6 -242.667179 
L 498.6 -245.503269 
L 498.6 -248.339359 
L 498.6 -251.17545 
L 498.6 -254.01154 
L 498.6 -256.84763 
L 498.6 -259.68372 
L 498.6 -262.51981 
L 498.6 -265.3559 
L 498.6 -268.19199 
L 498.6 -271.028081 
L 498.6 -273.864171 
L 498.6 -276.700261 
L 498.6 -279.536351 
L 498.6 -282.372441 
L 498.6 -285.208531 
L 498.6 -288.044622 
L 498.6 -290.880712 
L 498.6 -293.716802 
L 498.6 -296.552892 
L 498.6 -299.388982 
L 498.6 -302.225072 
L 498.6 -305.061163 
L 498.6 -307.897253 
L 498.6 -310.733343 
L 498.6 -313.569433 
L 498.6 -316.405523 
L 498.6 -319.241613 
L 498.6 -322.077704 
L 498.6 -324.913794 
L 498.6 -327.749884 
L 498.6 -330.585974 
L 498.6 -333.422064 
L 498.6 -336.258154 
L 498.6 -339.094245 
L 498.6 -341.930335 
L 498.6 -344.766425 
L 498.6 -347.602515 
L 498.6 -350.438605 
L 498.6 -353.274695 
L 498.6 -356.110786 
L 498.6 -358.946876 
L 498.6 -361.782966 
L 498.6 -364.619056 
L 498.6 -367.455146 
L 498.6 -370.291236 
L 498.6 -373.127326 
L 498.6 -375.963417 
L 498.6 -378.799507 
L 498.6 -381.635597 
L 498.6 -384.471687 
L 498.6 -387.307777 
L 498.6 -390.143867 
L 499.331708 -390.143867 
L 499.331708 -390.143867 
L 499.515678 -387.307777 
L 499.732832 -384.471687 
L 499.98556 -381.635597 
L 500.275502 -378.799507 
L 500.603325 -375.963417 
L 500.968518 -373.127326 
L 501.369229 -370.291236 
L 501.802156 -367.455146 
L 502.262526 -364.619056 
L 502.744158 -361.782966 
L 503.239633 -358.946876 
L 503.740564 -356.110786 
L 504.237955 -353.274695 
L 504.72264 -350.438605 
L 505.185767 -347.602515 
L 505.619297 -344.766425 
L 506.01648 -341.930335 
L 506.372273 -339.094245 
L 506.68367 -336.258154 
L 506.949902 -333.422064 
L 507.172512 -330.585974 
L 507.355283 -327.749884 
L 507.504039 -324.913794 
L 507.626326 -322.077704 
L 507.731021 -319.241613 
L 507.827877 -316.405523 
L 507.927077 -313.569433 
L 508.038794 -310.733343 
L 508.172829 -307.897253 
L 508.338311 -305.061163 
L 508.543506 -302.225072 
L 508.795714 -299.388982 
L 509.10126 -296.552892 
L 509.465552 -293.716802 
L 509.893202 -290.880712 
L 510.388168 -288.044622 
L 510.953895 -285.208531 
L 511.593442 -282.372441 
L 512.309569 -279.536351 
L 513.104759 -276.700261 
L 513.981194 -273.864171 
L 514.940648 -271.028081 
L 515.984331 -268.19199 
L 517.112674 -265.3559 
L 518.32507 -262.51981 
L 519.619594 -259.68372 
L 520.992715 -256.84763 
L 522.439017 -254.01154 
L 523.950952 -251.17545 
L 525.518657 -248.339359 
L 527.129828 -245.503269 
L 528.769697 -242.667179 
L 530.421106 -239.831089 
L 532.064688 -236.994999 
L 533.679174 -234.158909 
L 535.2418 -231.322818 
L 536.728822 -228.486728 
L 538.116118 -225.650638 
L 539.379849 -222.814548 
L 540.497152 -219.978458 
L 541.446845 -217.142368 
L 542.210093 -214.306277 
L 542.771012 -211.470187 
L 543.117176 -208.634097 
L 543.24 -205.798007 
L 543.134978 -202.961917 
L 542.801774 -200.125827 
L 542.244144 -197.289736 
L 541.469729 -194.453646 
L 540.489702 -191.617556 
L 539.318328 -188.781466 
L 537.972442 -185.945376 
L 536.470901 -183.109286 
L 534.83403 -180.273195 
L 533.083091 -177.437105 
L 531.239808 -174.601015 
L 529.325955 -171.764925 
L 527.363009 -168.928835 
L 525.371875 -166.092745 
L 523.372659 -163.256654 
L 521.384495 -160.420564 
L 519.425383 -157.584474 
L 517.512048 -154.748384 
L 515.659794 -151.912294 
L 513.882359 -149.076204 
L 512.191761 -146.240113 
L 510.598153 -143.404023 
L 509.109684 -140.567933 
L 507.732408 -137.731843 
L 506.470214 -134.895753 
L 505.324834 -132.059663 
L 504.295898 -129.223573 
L 503.381067 -126.387482 
L 502.576226 -123.551392 
L 501.875727 -120.715302 
L 501.272684 -117.879212 
L 500.759282 -115.043122 
L 500.327098 -112.207032 
L 499.967416 -109.370941 
z
" style="stroke: #3f3f3f; stroke-width: 1.5"/>
    </defs>
    <g clip-path="url(#pde489d1656)">
     <use xlink:href="#m126aebc0b3" x="0" y="576" style="fill: #e1812c; stroke: #3f3f3f; stroke-width: 1.5"/>
    </g>
   </g>
   <g id="PolyCollection_9">
    <defs>
     <path id="mb0f032978c" d="M 610.2 -156.187543 
L 609.698332 -156.187543 
L 609.569577 -159.363756 
L 609.417956 -162.539969 
L 609.242223 -165.716182 
L 609.041779 -168.892394 
L 608.816799 -172.068607 
L 608.568334 -175.24482 
L 608.298339 -178.421033 
L 608.00965 -181.597246 
L 607.705877 -184.773458 
L 607.391214 -187.949671 
L 607.07019 -191.125884 
L 606.747357 -194.302097 
L 606.426948 -197.47831 
L 606.112538 -200.654522 
L 605.806731 -203.830735 
L 605.510913 -207.006948 
L 605.225091 -210.183161 
L 604.947834 -213.359373 
L 604.676331 -216.535586 
L 604.406544 -219.711799 
L 604.133453 -222.888012 
L 603.851354 -226.064225 
L 603.554182 -229.240437 
L 603.235825 -232.41665 
L 602.890398 -235.592863 
L 602.512458 -238.769076 
L 602.097147 -241.945289 
L 601.640271 -245.121501 
L 601.138323 -248.297714 
L 600.588476 -251.473927 
L 599.988567 -254.65014 
L 599.337093 -257.826353 
L 598.633244 -261.002565 
L 597.876966 -264.178778 
L 597.069045 -267.354991 
L 596.211211 -270.531204 
L 595.306209 -273.707417 
L 594.357817 -276.883629 
L 593.370784 -280.059842 
L 592.35066 -283.236055 
L 591.303506 -286.412268 
L 590.235515 -289.588481 
L 589.152553 -292.764693 
L 588.059676 -295.940906 
L 586.960683 -299.117119 
L 585.857765 -302.293332 
L 584.751312 -305.469544 
L 583.639921 -308.645757 
L 582.520643 -311.82197 
L 581.389459 -314.998183 
L 580.241982 -318.174396 
L 579.074315 -321.350608 
L 577.884016 -324.526821 
L 576.671071 -327.703034 
L 575.438793 -330.879247 
L 574.194541 -334.05546 
L 572.950201 -337.231672 
L 571.722337 -340.407885 
L 570.532 -343.584098 
L 569.404155 -346.760311 
L 568.36678 -349.936524 
L 567.449652 -353.112736 
L 566.682928 -356.288949 
L 566.095595 -359.465162 
L 565.713919 -362.641375 
L 565.56 -365.817588 
L 565.650544 -368.9938 
L 565.995941 -372.170013 
L 566.599715 -375.346226 
L 567.458376 -378.522439 
L 568.561672 -381.698651 
L 569.893193 -384.874864 
L 571.431277 -388.051077 
L 573.150107 -391.22729 
L 575.020919 -394.403503 
L 577.01321 -397.579715 
L 579.095882 -400.755928 
L 581.238226 -403.932141 
L 583.410742 -407.108354 
L 585.585752 -410.284567 
L 587.737836 -413.460779 
L 589.844101 -416.636992 
L 591.884328 -419.813205 
L 593.841037 -422.989418 
L 595.699497 -426.165631 
L 597.447704 -429.341843 
L 599.076358 -432.518056 
L 600.57882 -435.694269 
L 601.951054 -438.870482 
L 603.191544 -442.046695 
L 604.301165 -445.222907 
L 605.28301 -448.39912 
L 606.142159 -451.575333 
L 606.885386 -454.751546 
L 607.520839 -457.927759 
L 608.057673 -461.103971 
L 608.505685 -464.280184 
L 608.874951 -467.456397 
L 609.175493 -470.63261 
L 610.2 -470.63261 
L 610.2 -470.63261 
L 610.2 -467.456397 
L 610.2 -464.280184 
L 610.2 -461.103971 
L 610.2 -457.927759 
L 610.2 -454.751546 
L 610.2 -451.575333 
L 610.2 -448.39912 
L 610.2 -445.222907 
L 610.2 -442.046695 
L 610.2 -438.870482 
L 610.2 -435.694269 
L 610.2 -432.518056 
L 610.2 -429.341843 
L 610.2 -426.165631 
L 610.2 -422.989418 
L 610.2 -419.813205 
L 610.2 -416.636992 
L 610.2 -413.460779 
L 610.2 -410.284567 
L 610.2 -407.108354 
L 610.2 -403.932141 
L 610.2 -400.755928 
L 610.2 -397.579715 
L 610.2 -394.403503 
L 610.2 -391.22729 
L 610.2 -388.051077 
L 610.2 -384.874864 
L 610.2 -381.698651 
L 610.2 -378.522439 
L 610.2 -375.346226 
L 610.2 -372.170013 
L 610.2 -368.9938 
L 610.2 -365.817588 
L 610.2 -362.641375 
L 610.2 -359.465162 
L 610.2 -356.288949 
L 610.2 -353.112736 
L 610.2 -349.936524 
L 610.2 -346.760311 
L 610.2 -343.584098 
L 610.2 -340.407885 
L 610.2 -337.231672 
L 610.2 -334.05546 
L 610.2 -330.879247 
L 610.2 -327.703034 
L 610.2 -324.526821 
L 610.2 -321.350608 
L 610.2 -318.174396 
L 610.2 -314.998183 
L 610.2 -311.82197 
L 610.2 -308.645757 
L 610.2 -305.469544 
L 610.2 -302.293332 
L 610.2 -299.117119 
L 610.2 -295.940906 
L 610.2 -292.764693 
L 610.2 -289.588481 
L 610.2 -286.412268 
L 610.2 -283.236055 
L 610.2 -280.059842 
L 610.2 -276.883629 
L 610.2 -273.707417 
L 610.2 -270.531204 
L 610.2 -267.354991 
L 610.2 -264.178778 
L 610.2 -261.002565 
L 610.2 -257.826353 
L 610.2 -254.65014 
L 610.2 -251.473927 
L 610.2 -248.297714 
L 610.2 -245.121501 
L 610.2 -241.945289 
L 610.2 -238.769076 
L 610.2 -235.592863 
L 610.2 -232.41665 
L 610.2 -229.240437 
L 610.2 -226.064225 
L 610.2 -222.888012 
L 610.2 -219.711799 
L 610.2 -216.535586 
L 610.2 -213.359373 
L 610.2 -210.183161 
L 610.2 -207.006948 
L 610.2 -203.830735 
L 610.2 -200.654522 
L 610.2 -197.47831 
L 610.2 -194.302097 
L 610.2 -191.125884 
L 610.2 -187.949671 
L 610.2 -184.773458 
L 610.2 -181.597246 
L 610.2 -178.421033 
L 610.2 -175.24482 
L 610.2 -172.068607 
L 610.2 -168.892394 
L 610.2 -165.716182 
L 610.2 -162.539969 
L 610.2 -159.363756 
L 610.2 -156.187543 
z
" style="stroke: #3f3f3f; stroke-width: 1.5"/>
    </defs>
    <g clip-path="url(#pde489d1656)">
     <use xlink:href="#mb0f032978c" x="0" y="576" style="fill: #3274a1; stroke: #3f3f3f; stroke-width: 1.5"/>
    </g>
   </g>
   <g id="PolyCollection_10">
    <defs>
     <path id="m16e0011cd1" d="M 611.224507 -99.60739 
L 610.2 -99.60739 
L 610.2 -102.783603 
L 610.2 -105.959816 
L 610.2 -109.136029 
L 610.2 -112.312241 
L 610.2 -115.488454 
L 610.2 -118.664667 
L 610.2 -121.84088 
L 610.2 -125.017093 
L 610.2 -128.193305 
L 610.2 -131.369518 
L 610.2 -134.545731 
L 610.2 -137.721944 
L 610.2 -140.898157 
L 610.2 -144.074369 
L 610.2 -147.250582 
L 610.2 -150.426795 
L 610.2 -153.603008 
L 610.2 -156.779221 
L 610.2 -159.955433 
L 610.2 -163.131646 
L 610.2 -166.307859 
L 610.2 -169.484072 
L 610.2 -172.660285 
L 610.2 -175.836497 
L 610.2 -179.01271 
L 610.2 -182.188923 
L 610.2 -185.365136 
L 610.2 -188.541349 
L 610.2 -191.717561 
L 610.2 -194.893774 
L 610.2 -198.069987 
L 610.2 -201.2462 
L 610.2 -204.422412 
L 610.2 -207.598625 
L 610.2 -210.774838 
L 610.2 -213.951051 
L 610.2 -217.127264 
L 610.2 -220.303476 
L 610.2 -223.479689 
L 610.2 -226.655902 
L 610.2 -229.832115 
L 610.2 -233.008328 
L 610.2 -236.18454 
L 610.2 -239.360753 
L 610.2 -242.536966 
L 610.2 -245.713179 
L 610.2 -248.889392 
L 610.2 -252.065604 
L 610.2 -255.241817 
L 610.2 -258.41803 
L 610.2 -261.594243 
L 610.2 -264.770456 
L 610.2 -267.946668 
L 610.2 -271.122881 
L 610.2 -274.299094 
L 610.2 -277.475307 
L 610.2 -280.651519 
L 610.2 -283.827732 
L 610.2 -287.003945 
L 610.2 -290.180158 
L 610.2 -293.356371 
L 610.2 -296.532583 
L 610.2 -299.708796 
L 610.2 -302.885009 
L 610.2 -306.061222 
L 610.2 -309.237435 
L 610.2 -312.413647 
L 610.2 -315.58986 
L 610.2 -318.766073 
L 610.2 -321.942286 
L 610.2 -325.118499 
L 610.2 -328.294711 
L 610.2 -331.470924 
L 610.2 -334.647137 
L 610.2 -337.82335 
L 610.2 -340.999563 
L 610.2 -344.175775 
L 610.2 -347.351988 
L 610.2 -350.528201 
L 610.2 -353.704414 
L 610.2 -356.880627 
L 610.2 -360.056839 
L 610.2 -363.233052 
L 610.2 -366.409265 
L 610.2 -369.585478 
L 610.2 -372.76169 
L 610.2 -375.937903 
L 610.2 -379.114116 
L 610.2 -382.290329 
L 610.2 -385.466542 
L 610.2 -388.642754 
L 610.2 -391.818967 
L 610.2 -394.99518 
L 610.2 -398.171393 
L 610.2 -401.347606 
L 610.2 -404.523818 
L 610.2 -407.700031 
L 610.2 -410.876244 
L 610.2 -414.052457 
L 610.701668 -414.052457 
L 610.701668 -414.052457 
L 610.830423 -410.876244 
L 610.982044 -407.700031 
L 611.157777 -404.523818 
L 611.358221 -401.347606 
L 611.583201 -398.171393 
L 611.831666 -394.99518 
L 612.101661 -391.818967 
L 612.39035 -388.642754 
L 612.694123 -385.466542 
L 613.008786 -382.290329 
L 613.32981 -379.114116 
L 613.652643 -375.937903 
L 613.973052 -372.76169 
L 614.287462 -369.585478 
L 614.593269 -366.409265 
L 614.889087 -363.233052 
L 615.174909 -360.056839 
L 615.452166 -356.880627 
L 615.723669 -353.704414 
L 615.993456 -350.528201 
L 616.266547 -347.351988 
L 616.548646 -344.175775 
L 616.845818 -340.999563 
L 617.164175 -337.82335 
L 617.509602 -334.647137 
L 617.887542 -331.470924 
L 618.302853 -328.294711 
L 618.759729 -325.118499 
L 619.261677 -321.942286 
L 619.811524 -318.766073 
L 620.411433 -315.58986 
L 621.062907 -312.413647 
L 621.766756 -309.237435 
L 622.523034 -306.061222 
L 623.330955 -302.885009 
L 624.188789 -299.708796 
L 625.093791 -296.532583 
L 626.042183 -293.356371 
L 627.029216 -290.180158 
L 628.04934 -287.003945 
L 629.096494 -283.827732 
L 630.164485 -280.651519 
L 631.247447 -277.475307 
L 632.340324 -274.299094 
L 633.439317 -271.122881 
L 634.542235 -267.946668 
L 635.648688 -264.770456 
L 636.760079 -261.594243 
L 637.879357 -258.41803 
L 639.010541 -255.241817 
L 640.158018 -252.065604 
L 641.325685 -248.889392 
L 642.515984 -245.713179 
L 643.728929 -242.536966 
L 644.961207 -239.360753 
L 646.205459 -236.18454 
L 647.449799 -233.008328 
L 648.677663 -229.832115 
L 649.868 -226.655902 
L 650.995845 -223.479689 
L 652.03322 -220.303476 
L 652.950348 -217.127264 
L 653.717072 -213.951051 
L 654.304405 -210.774838 
L 654.686081 -207.598625 
L 654.84 -204.422412 
L 654.749456 -201.2462 
L 654.404059 -198.069987 
L 653.800285 -194.893774 
L 652.941624 -191.717561 
L 651.838328 -188.541349 
L 650.506807 -185.365136 
L 648.968723 -182.188923 
L 647.249893 -179.01271 
L 645.379081 -175.836497 
L 643.38679 -172.660285 
L 641.304118 -169.484072 
L 639.161774 -166.307859 
L 636.989258 -163.131646 
L 634.814248 -159.955433 
L 632.662164 -156.779221 
L 630.555899 -153.603008 
L 628.515672 -150.426795 
L 626.558963 -147.250582 
L 624.700503 -144.074369 
L 622.952296 -140.898157 
L 621.323642 -137.721944 
L 619.82118 -134.545731 
L 618.448946 -131.369518 
L 617.208456 -128.193305 
L 616.098835 -125.017093 
L 615.11699 -121.84088 
L 614.257841 -118.664667 
L 613.514614 -115.488454 
L 612.879161 -112.312241 
L 612.342327 -109.136029 
L 611.894315 -105.959816 
L 611.525049 -102.783603 
L 611.224507 -99.60739 
z
" style="stroke: #3f3f3f; stroke-width: 1.5"/>
    </defs>
    <g clip-path="url(#pde489d1656)">
     <use xlink:href="#m16e0011cd1" x="0" y="576" style="fill: #e1812c; stroke: #3f3f3f; stroke-width: 1.5"/>
    </g>
   </g>
   <g id="PolyCollection_11">
    <defs>
     <path id="maf17195f40" d="M 721.8 -178.463618 
L 721.044181 -178.463618 
L 720.845677 -181.332688 
L 720.60698 -184.201759 
L 720.323239 -187.070829 
L 719.989827 -189.939899 
L 719.602565 -192.808969 
L 719.157969 -195.67804 
L 718.653504 -198.54711 
L 718.087841 -201.41618 
L 717.461095 -204.28525 
L 716.775031 -207.154321 
L 716.033226 -210.023391 
L 715.241159 -212.892461 
L 714.406236 -215.761531 
L 713.537718 -218.630602 
L 712.646566 -221.499672 
L 711.745184 -224.368742 
L 710.847074 -227.237812 
L 709.966404 -230.106883 
L 709.117508 -232.975953 
L 708.314325 -235.845023 
L 707.569806 -238.714093 
L 706.895309 -241.583164 
L 706.3 -244.452234 
L 705.790304 -247.321304 
L 705.369418 -250.190374 
L 705.036923 -253.059445 
L 704.788517 -255.928515 
L 704.615898 -258.797585 
L 704.506816 -261.666655 
L 704.445306 -264.535726 
L 704.41211 -267.404796 
L 704.385293 -270.273866 
L 704.341019 -273.142936 
L 704.254492 -276.012007 
L 704.100998 -278.881077 
L 703.857013 -281.750147 
L 703.501318 -284.619217 
L 703.016059 -287.488288 
L 702.387687 -290.357358 
L 701.607718 -293.226428 
L 700.673257 -296.095498 
L 699.587262 -298.964569 
L 698.358504 -301.833639 
L 697.001243 -304.702709 
L 695.534628 -307.571779 
L 693.981859 -310.44085 
L 692.369184 -313.30992 
L 690.724775 -316.17899 
L 689.077578 -319.04806 
L 687.456212 -321.917131 
L 685.887966 -324.786201 
L 684.397976 -327.655271 
L 683.008605 -330.524341 
L 681.739046 -333.393412 
L 680.605163 -336.262482 
L 679.619524 -339.131552 
L 678.791619 -342.000622 
L 678.128195 -344.869693 
L 677.633675 -347.738763 
L 677.310592 -350.607833 
L 677.16 -353.476903 
L 677.181823 -356.345974 
L 677.375113 -359.215044 
L 677.738197 -362.084114 
L 678.268723 -364.953184 
L 678.9636 -367.822255 
L 679.818865 -370.691325 
L 680.829491 -373.560395 
L 681.989169 -376.429465 
L 683.290102 -379.298536 
L 684.722826 -382.167606 
L 686.276092 -385.036676 
L 687.936828 -387.905747 
L 689.690186 -390.774817 
L 691.519698 -393.643887 
L 693.407507 -396.512957 
L 695.334705 -399.382028 
L 697.281728 -402.251098 
L 699.228813 -405.120168 
L 701.156475 -407.989238 
L 703.046001 -410.858309 
L 704.879915 -413.727379 
L 706.642402 -416.596449 
L 708.319668 -419.465519 
L 709.900223 -422.33459 
L 711.375066 -425.20366 
L 712.737774 -428.07273 
L 713.984504 -430.9418 
L 715.113886 -433.810871 
L 716.126851 -436.679941 
L 717.026384 -439.549011 
L 717.817228 -442.418081 
L 718.50556 -445.287152 
L 719.098646 -448.156222 
L 719.604506 -451.025292 
L 720.031592 -453.894362 
L 720.388493 -456.763433 
L 720.683688 -459.632503 
L 720.925331 -462.501573 
L 721.8 -462.501573 
L 721.8 -462.501573 
L 721.8 -459.632503 
L 721.8 -456.763433 
L 721.8 -453.894362 
L 721.8 -451.025292 
L 721.8 -448.156222 
L 721.8 -445.287152 
L 721.8 -442.418081 
L 721.8 -439.549011 
L 721.8 -436.679941 
L 721.8 -433.810871 
L 721.8 -430.9418 
L 721.8 -428.07273 
L 721.8 -425.20366 
L 721.8 -422.33459 
L 721.8 -419.465519 
L 721.8 -416.596449 
L 721.8 -413.727379 
L 721.8 -410.858309 
L 721.8 -407.989238 
L 721.8 -405.120168 
L 721.8 -402.251098 
L 721.8 -399.382028 
L 721.8 -396.512957 
L 721.8 -393.643887 
L 721.8 -390.774817 
L 721.8 -387.905747 
L 721.8 -385.036676 
L 721.8 -382.167606 
L 721.8 -379.298536 
L 721.8 -376.429465 
L 721.8 -373.560395 
L 721.8 -370.691325 
L 721.8 -367.822255 
L 721.8 -364.953184 
L 721.8 -362.084114 
L 721.8 -359.215044 
L 721.8 -356.345974 
L 721.8 -353.476903 
L 721.8 -350.607833 
L 721.8 -347.738763 
L 721.8 -344.869693 
L 721.8 -342.000622 
L 721.8 -339.131552 
L 721.8 -336.262482 
L 721.8 -333.393412 
L 721.8 -330.524341 
L 721.8 -327.655271 
L 721.8 -324.786201 
L 721.8 -321.917131 
L 721.8 -319.04806 
L 721.8 -316.17899 
L 721.8 -313.30992 
L 721.8 -310.44085 
L 721.8 -307.571779 
L 721.8 -304.702709 
L 721.8 -301.833639 
L 721.8 -298.964569 
L 721.8 -296.095498 
L 721.8 -293.226428 
L 721.8 -290.357358 
L 721.8 -287.488288 
L 721.8 -284.619217 
L 721.8 -281.750147 
L 721.8 -278.881077 
L 721.8 -276.012007 
L 721.8 -273.142936 
L 721.8 -270.273866 
L 721.8 -267.404796 
L 721.8 -264.535726 
L 721.8 -261.666655 
L 721.8 -258.797585 
L 721.8 -255.928515 
L 721.8 -253.059445 
L 721.8 -250.190374 
L 721.8 -247.321304 
L 721.8 -244.452234 
L 721.8 -241.583164 
L 721.8 -238.714093 
L 721.8 -235.845023 
L 721.8 -232.975953 
L 721.8 -230.106883 
L 721.8 -227.237812 
L 721.8 -224.368742 
L 721.8 -221.499672 
L 721.8 -218.630602 
L 721.8 -215.761531 
L 721.8 -212.892461 
L 721.8 -210.023391 
L 721.8 -207.154321 
L 721.8 -204.28525 
L 721.8 -201.41618 
L 721.8 -198.54711 
L 721.8 -195.67804 
L 721.8 -192.808969 
L 721.8 -189.939899 
L 721.8 -187.070829 
L 721.8 -184.201759 
L 721.8 -181.332688 
L 721.8 -178.463618 
z
" style="stroke: #3f3f3f; stroke-width: 1.5"/>
    </defs>
    <g clip-path="url(#pde489d1656)">
     <use xlink:href="#maf17195f40" x="0" y="576" style="fill: #3274a1; stroke: #3f3f3f; stroke-width: 1.5"/>
    </g>
   </g>
   <g id="PolyCollection_12">
    <defs>
     <path id="md642dbc9ae" d="M 722.674669 -107.738427 
L 721.8 -107.738427 
L 721.8 -110.607497 
L 721.8 -113.476567 
L 721.8 -116.345638 
L 721.8 -119.214708 
L 721.8 -122.083778 
L 721.8 -124.952848 
L 721.8 -127.821919 
L 721.8 -130.690989 
L 721.8 -133.560059 
L 721.8 -136.429129 
L 721.8 -139.2982 
L 721.8 -142.16727 
L 721.8 -145.03634 
L 721.8 -147.90541 
L 721.8 -150.774481 
L 721.8 -153.643551 
L 721.8 -156.512621 
L 721.8 -159.381691 
L 721.8 -162.250762 
L 721.8 -165.119832 
L 721.8 -167.988902 
L 721.8 -170.857972 
L 721.8 -173.727043 
L 721.8 -176.596113 
L 721.8 -179.465183 
L 721.8 -182.334253 
L 721.8 -185.203324 
L 721.8 -188.072394 
L 721.8 -190.941464 
L 721.8 -193.810535 
L 721.8 -196.679605 
L 721.8 -199.548675 
L 721.8 -202.417745 
L 721.8 -205.286816 
L 721.8 -208.155886 
L 721.8 -211.024956 
L 721.8 -213.894026 
L 721.8 -216.763097 
L 721.8 -219.632167 
L 721.8 -222.501237 
L 721.8 -225.370307 
L 721.8 -228.239378 
L 721.8 -231.108448 
L 721.8 -233.977518 
L 721.8 -236.846588 
L 721.8 -239.715659 
L 721.8 -242.584729 
L 721.8 -245.453799 
L 721.8 -248.322869 
L 721.8 -251.19194 
L 721.8 -254.06101 
L 721.8 -256.93008 
L 721.8 -259.79915 
L 721.8 -262.668221 
L 721.8 -265.537291 
L 721.8 -268.406361 
L 721.8 -271.275431 
L 721.8 -274.144502 
L 721.8 -277.013572 
L 721.8 -279.882642 
L 721.8 -282.751712 
L 721.8 -285.620783 
L 721.8 -288.489853 
L 721.8 -291.358923 
L 721.8 -294.227993 
L 721.8 -297.097064 
L 721.8 -299.966134 
L 721.8 -302.835204 
L 721.8 -305.704274 
L 721.8 -308.573345 
L 721.8 -311.442415 
L 721.8 -314.311485 
L 721.8 -317.180555 
L 721.8 -320.049626 
L 721.8 -322.918696 
L 721.8 -325.787766 
L 721.8 -328.656836 
L 721.8 -331.525907 
L 721.8 -334.394977 
L 721.8 -337.264047 
L 721.8 -340.133117 
L 721.8 -343.002188 
L 721.8 -345.871258 
L 721.8 -348.740328 
L 721.8 -351.609398 
L 721.8 -354.478469 
L 721.8 -357.347539 
L 721.8 -360.216609 
L 721.8 -363.085679 
L 721.8 -365.95475 
L 721.8 -368.82382 
L 721.8 -371.69289 
L 721.8 -374.56196 
L 721.8 -377.431031 
L 721.8 -380.300101 
L 721.8 -383.169171 
L 721.8 -386.038241 
L 721.8 -388.907312 
L 721.8 -391.776382 
L 722.555819 -391.776382 
L 722.555819 -391.776382 
L 722.754323 -388.907312 
L 722.99302 -386.038241 
L 723.276761 -383.169171 
L 723.610173 -380.300101 
L 723.997435 -377.431031 
L 724.442031 -374.56196 
L 724.946496 -371.69289 
L 725.512159 -368.82382 
L 726.138905 -365.95475 
L 726.824969 -363.085679 
L 727.566774 -360.216609 
L 728.358841 -357.347539 
L 729.193764 -354.478469 
L 730.062282 -351.609398 
L 730.953434 -348.740328 
L 731.854816 -345.871258 
L 732.752926 -343.002188 
L 733.633596 -340.133117 
L 734.482492 -337.264047 
L 735.285675 -334.394977 
L 736.030194 -331.525907 
L 736.704691 -328.656836 
L 737.3 -325.787766 
L 737.809696 -322.918696 
L 738.230582 -320.049626 
L 738.563077 -317.180555 
L 738.811483 -314.311485 
L 738.984102 -311.442415 
L 739.093184 -308.573345 
L 739.154694 -305.704274 
L 739.18789 -302.835204 
L 739.214707 -299.966134 
L 739.258981 -297.097064 
L 739.345508 -294.227993 
L 739.499002 -291.358923 
L 739.742987 -288.489853 
L 740.098682 -285.620783 
L 740.583941 -282.751712 
L 741.212313 -279.882642 
L 741.992282 -277.013572 
L 742.926743 -274.144502 
L 744.012738 -271.275431 
L 745.241496 -268.406361 
L 746.598757 -265.537291 
L 748.065372 -262.668221 
L 749.618141 -259.79915 
L 751.230816 -256.93008 
L 752.875225 -254.06101 
L 754.522422 -251.19194 
L 756.143788 -248.322869 
L 757.712034 -245.453799 
L 759.202024 -242.584729 
L 760.591395 -239.715659 
L 761.860954 -236.846588 
L 762.994837 -233.977518 
L 763.980476 -231.108448 
L 764.808381 -228.239378 
L 765.471805 -225.370307 
L 765.966325 -222.501237 
L 766.289408 -219.632167 
L 766.44 -216.763097 
L 766.418177 -213.894026 
L 766.224887 -211.024956 
L 765.861803 -208.155886 
L 765.331277 -205.286816 
L 764.6364 -202.417745 
L 763.781135 -199.548675 
L 762.770509 -196.679605 
L 761.610831 -193.810535 
L 760.309898 -190.941464 
L 758.877174 -188.072394 
L 757.323908 -185.203324 
L 755.663172 -182.334253 
L 753.909814 -179.465183 
L 752.080302 -176.596113 
L 750.192493 -173.727043 
L 748.265295 -170.857972 
L 746.318272 -167.988902 
L 744.371187 -165.119832 
L 742.443525 -162.250762 
L 740.553999 -159.381691 
L 738.720085 -156.512621 
L 736.957598 -153.643551 
L 735.280332 -150.774481 
L 733.699777 -147.90541 
L 732.224934 -145.03634 
L 730.862226 -142.16727 
L 729.615496 -139.2982 
L 728.486114 -136.429129 
L 727.473149 -133.560059 
L 726.573616 -130.690989 
L 725.782772 -127.821919 
L 725.09444 -124.952848 
L 724.501354 -122.083778 
L 723.995494 -119.214708 
L 723.568408 -116.345638 
L 723.211507 -113.476567 
L 722.916312 -110.607497 
L 722.674669 -107.738427 
z
" style="stroke: #3f3f3f; stroke-width: 1.5"/>
    </defs>
    <g clip-path="url(#pde489d1656)">
     <use xlink:href="#md642dbc9ae" x="0" y="576" style="fill: #e1812c; stroke: #3f3f3f; stroke-width: 1.5"/>
    </g>
   </g>
   <g id="matplotlib.axis_1">
    <g id="xtick_1">
     <g id="line2d_1">
      <defs>
       <path id="ma3ab80d8e8" d="M 0 0 
L 0 3.5 
" style="stroke: #000000; stroke-width: 0.8"/>
      </defs>
      <g>
       <use xlink:href="#ma3ab80d8e8" x="163.8" y="512.64" style="stroke: #000000; stroke-width: 0.8"/>
      </g>
     </g>
     <g id="text_1">
      <!-- 6 -->
      <g transform="translate(160.61875 527.238438) scale(0.1 -0.1)">
       <defs>
        <path id="DejaVuSans-36" d="M 2113 2584 
Q 1688 2584 1439 2293 
Q 1191 2003 1191 1497 
Q 1191 994 1439 701 
Q 1688 409 2113 409 
Q 2538 409 2786 701 
Q 3034 994 3034 1497 
Q 3034 2003 2786 2293 
Q 2538 2584 2113 2584 
z
M 3366 4563 
L 3366 3988 
Q 3128 4100 2886 4159 
Q 2644 4219 2406 4219 
Q 1781 4219 1451 3797 
Q 1122 3375 1075 2522 
Q 1259 2794 1537 2939 
Q 1816 3084 2150 3084 
Q 2853 3084 3261 2657 
Q 3669 2231 3669 1497 
Q 3669 778 3244 343 
Q 2819 -91 2113 -91 
Q 1303 -91 875 529 
Q 447 1150 447 2328 
Q 447 3434 972 4092 
Q 1497 4750 2381 4750 
Q 2619 4750 2861 4703 
Q 3103 4656 3366 4563 
z
" transform="scale(0.015625)"/>
       </defs>
       <use xlink:href="#DejaVuSans-36"/>
      </g>
     </g>
    </g>
    <g id="xtick_2">
     <g id="line2d_2">
      <g>
       <use xlink:href="#ma3ab80d8e8" x="275.4" y="512.64" style="stroke: #000000; stroke-width: 0.8"/>
      </g>
     </g>
     <g id="text_2">
      <!-- 9 -->
      <g transform="translate(272.21875 527.238438) scale(0.1 -0.1)">
       <defs>
        <path id="DejaVuSans-39" d="M 703 97 
L 703 672 
Q 941 559 1184 500 
Q 1428 441 1663 441 
Q 2288 441 2617 861 
Q 2947 1281 2994 2138 
Q 2813 1869 2534 1725 
Q 2256 1581 1919 1581 
Q 1219 1581 811 2004 
Q 403 2428 403 3163 
Q 403 3881 828 4315 
Q 1253 4750 1959 4750 
Q 2769 4750 3195 4129 
Q 3622 3509 3622 2328 
Q 3622 1225 3098 567 
Q 2575 -91 1691 -91 
Q 1453 -91 1209 -44 
Q 966 3 703 97 
z
M 1959 2075 
Q 2384 2075 2632 2365 
Q 2881 2656 2881 3163 
Q 2881 3666 2632 3958 
Q 2384 4250 1959 4250 
Q 1534 4250 1286 3958 
Q 1038 3666 1038 3163 
Q 1038 2656 1286 2365 
Q 1534 2075 1959 2075 
z
" transform="scale(0.015625)"/>
       </defs>
       <use xlink:href="#DejaVuSans-39"/>
      </g>
     </g>
    </g>
    <g id="xtick_3">
     <g id="line2d_3">
      <g>
       <use xlink:href="#ma3ab80d8e8" x="387" y="512.64" style="stroke: #000000; stroke-width: 0.8"/>
      </g>
     </g>
     <g id="text_3">
      <!-- 12 -->
      <g transform="translate(380.6375 527.238438) scale(0.1 -0.1)">
       <defs>
        <path id="DejaVuSans-31" d="M 794 531 
L 1825 531 
L 1825 4091 
L 703 3866 
L 703 4441 
L 1819 4666 
L 2450 4666 
L 2450 531 
L 3481 531 
L 3481 0 
L 794 0 
L 794 531 
z
" transform="scale(0.015625)"/>
        <path id="DejaVuSans-32" d="M 1228 531 
L 3431 531 
L 3431 0 
L 469 0 
L 469 531 
Q 828 903 1448 1529 
Q 2069 2156 2228 2338 
Q 2531 2678 2651 2914 
Q 2772 3150 2772 3378 
Q 2772 3750 2511 3984 
Q 2250 4219 1831 4219 
Q 1534 4219 1204 4116 
Q 875 4013 500 3803 
L 500 4441 
Q 881 4594 1212 4672 
Q 1544 4750 1819 4750 
Q 2544 4750 2975 4387 
Q 3406 4025 3406 3419 
Q 3406 3131 3298 2873 
Q 3191 2616 2906 2266 
Q 2828 2175 2409 1742 
Q 1991 1309 1228 531 
z
" transform="scale(0.015625)"/>
       </defs>
       <use xlink:href="#DejaVuSans-31"/>
       <use xlink:href="#DejaVuSans-32" x="63.623047"/>
      </g>
     </g>
    </g>
    <g id="xtick_4">
     <g id="line2d_4">
      <g>
       <use xlink:href="#ma3ab80d8e8" x="498.6" y="512.64" style="stroke: #000000; stroke-width: 0.8"/>
      </g>
     </g>
     <g id="text_4">
      <!-- 15 -->
      <g transform="translate(492.2375 527.238438) scale(0.1 -0.1)">
       <defs>
        <path id="DejaVuSans-35" d="M 691 4666 
L 3169 4666 
L 3169 4134 
L 1269 4134 
L 1269 2991 
Q 1406 3038 1543 3061 
Q 1681 3084 1819 3084 
Q 2600 3084 3056 2656 
Q 3513 2228 3513 1497 
Q 3513 744 3044 326 
Q 2575 -91 1722 -91 
Q 1428 -91 1123 -41 
Q 819 9 494 109 
L 494 744 
Q 775 591 1075 516 
Q 1375 441 1709 441 
Q 2250 441 2565 725 
Q 2881 1009 2881 1497 
Q 2881 1984 2565 2268 
Q 2250 2553 1709 2553 
Q 1456 2553 1204 2497 
Q 953 2441 691 2322 
L 691 4666 
z
" transform="scale(0.015625)"/>
       </defs>
       <use xlink:href="#DejaVuSans-31"/>
       <use xlink:href="#DejaVuSans-35" x="63.623047"/>
      </g>
     </g>
    </g>
    <g id="xtick_5">
     <g id="line2d_5">
      <g>
       <use xlink:href="#ma3ab80d8e8" x="610.2" y="512.64" style="stroke: #000000; stroke-width: 0.8"/>
      </g>
     </g>
     <g id="text_5">
      <!-- 18 -->
      <g transform="translate(603.8375 527.238438) scale(0.1 -0.1)">
       <defs>
        <path id="DejaVuSans-38" d="M 2034 2216 
Q 1584 2216 1326 1975 
Q 1069 1734 1069 1313 
Q 1069 891 1326 650 
Q 1584 409 2034 409 
Q 2484 409 2743 651 
Q 3003 894 3003 1313 
Q 3003 1734 2745 1975 
Q 2488 2216 2034 2216 
z
M 1403 2484 
Q 997 2584 770 2862 
Q 544 3141 544 3541 
Q 544 4100 942 4425 
Q 1341 4750 2034 4750 
Q 2731 4750 3128 4425 
Q 3525 4100 3525 3541 
Q 3525 3141 3298 2862 
Q 3072 2584 2669 2484 
Q 3125 2378 3379 2068 
Q 3634 1759 3634 1313 
Q 3634 634 3220 271 
Q 2806 -91 2034 -91 
Q 1263 -91 848 271 
Q 434 634 434 1313 
Q 434 1759 690 2068 
Q 947 2378 1403 2484 
z
M 1172 3481 
Q 1172 3119 1398 2916 
Q 1625 2713 2034 2713 
Q 2441 2713 2670 2916 
Q 2900 3119 2900 3481 
Q 2900 3844 2670 4047 
Q 2441 4250 2034 4250 
Q 1625 4250 1398 4047 
Q 1172 3844 1172 3481 
z
" transform="scale(0.015625)"/>
       </defs>
       <use xlink:href="#DejaVuSans-31"/>
       <use xlink:href="#DejaVuSans-38" x="63.623047"/>
      </g>
     </g>
    </g>
    <g id="xtick_6">
     <g id="line2d_6">
      <g>
       <use xlink:href="#ma3ab80d8e8" x="721.8" y="512.64" style="stroke: #000000; stroke-width: 0.8"/>
      </g>
     </g>
     <g id="text_6">
      <!-- 21 -->
      <g transform="translate(715.4375 527.238438) scale(0.1 -0.1)">
       <use xlink:href="#DejaVuSans-32"/>
       <use xlink:href="#DejaVuSans-31" x="63.623047"/>
      </g>
     </g>
    </g>
    <g id="text_7">
     <!-- NumLayers -->
     <g transform="translate(414.474219 540.916563) scale(0.1 -0.1)">
      <defs>
       <path id="DejaVuSans-4e" d="M 628 4666 
L 1478 4666 
L 3547 763 
L 3547 4666 
L 4159 4666 
L 4159 0 
L 3309 0 
L 1241 3903 
L 1241 0 
L 628 0 
L 628 4666 
z
" transform="scale(0.015625)"/>
       <path id="DejaVuSans-75" d="M 544 1381 
L 544 3500 
L 1119 3500 
L 1119 1403 
Q 1119 906 1312 657 
Q 1506 409 1894 409 
Q 2359 409 2629 706 
Q 2900 1003 2900 1516 
L 2900 3500 
L 3475 3500 
L 3475 0 
L 2900 0 
L 2900 538 
Q 2691 219 2414 64 
Q 2138 -91 1772 -91 
Q 1169 -91 856 284 
Q 544 659 544 1381 
z
M 1991 3584 
L 1991 3584 
z
" transform="scale(0.015625)"/>
       <path id="DejaVuSans-6d" d="M 3328 2828 
Q 3544 3216 3844 3400 
Q 4144 3584 4550 3584 
Q 5097 3584 5394 3201 
Q 5691 2819 5691 2113 
L 5691 0 
L 5113 0 
L 5113 2094 
Q 5113 2597 4934 2840 
Q 4756 3084 4391 3084 
Q 3944 3084 3684 2787 
Q 3425 2491 3425 1978 
L 3425 0 
L 2847 0 
L 2847 2094 
Q 2847 2600 2669 2842 
Q 2491 3084 2119 3084 
Q 1678 3084 1418 2786 
Q 1159 2488 1159 1978 
L 1159 0 
L 581 0 
L 581 3500 
L 1159 3500 
L 1159 2956 
Q 1356 3278 1631 3431 
Q 1906 3584 2284 3584 
Q 2666 3584 2933 3390 
Q 3200 3197 3328 2828 
z
" transform="scale(0.015625)"/>
       <path id="DejaVuSans-4c" d="M 628 4666 
L 1259 4666 
L 1259 531 
L 3531 531 
L 3531 0 
L 628 0 
L 628 4666 
z
" transform="scale(0.015625)"/>
       <path id="DejaVuSans-61" d="M 2194 1759 
Q 1497 1759 1228 1600 
Q 959 1441 959 1056 
Q 959 750 1161 570 
Q 1363 391 1709 391 
Q 2188 391 2477 730 
Q 2766 1069 2766 1631 
L 2766 1759 
L 2194 1759 
z
M 3341 1997 
L 3341 0 
L 2766 0 
L 2766 531 
Q 2569 213 2275 61 
Q 1981 -91 1556 -91 
Q 1019 -91 701 211 
Q 384 513 384 1019 
Q 384 1609 779 1909 
Q 1175 2209 1959 2209 
L 2766 2209 
L 2766 2266 
Q 2766 2663 2505 2880 
Q 2244 3097 1772 3097 
Q 1472 3097 1187 3025 
Q 903 2953 641 2809 
L 641 3341 
Q 956 3463 1253 3523 
Q 1550 3584 1831 3584 
Q 2591 3584 2966 3190 
Q 3341 2797 3341 1997 
z
" transform="scale(0.015625)"/>
       <path id="DejaVuSans-79" d="M 2059 -325 
Q 1816 -950 1584 -1140 
Q 1353 -1331 966 -1331 
L 506 -1331 
L 506 -850 
L 844 -850 
Q 1081 -850 1212 -737 
Q 1344 -625 1503 -206 
L 1606 56 
L 191 3500 
L 800 3500 
L 1894 763 
L 2988 3500 
L 3597 3500 
L 2059 -325 
z
" transform="scale(0.015625)"/>
       <path id="DejaVuSans-65" d="M 3597 1894 
L 3597 1613 
L 953 1613 
Q 991 1019 1311 708 
Q 1631 397 2203 397 
Q 2534 397 2845 478 
Q 3156 559 3463 722 
L 3463 178 
Q 3153 47 2828 -22 
Q 2503 -91 2169 -91 
Q 1331 -91 842 396 
Q 353 884 353 1716 
Q 353 2575 817 3079 
Q 1281 3584 2069 3584 
Q 2775 3584 3186 3129 
Q 3597 2675 3597 1894 
z
M 3022 2063 
Q 3016 2534 2758 2815 
Q 2500 3097 2075 3097 
Q 1594 3097 1305 2825 
Q 1016 2553 972 2059 
L 3022 2063 
z
" transform="scale(0.015625)"/>
       <path id="DejaVuSans-72" d="M 2631 2963 
Q 2534 3019 2420 3045 
Q 2306 3072 2169 3072 
Q 1681 3072 1420 2755 
Q 1159 2438 1159 1844 
L 1159 0 
L 581 0 
L 581 3500 
L 1159 3500 
L 1159 2956 
Q 1341 3275 1631 3429 
Q 1922 3584 2338 3584 
Q 2397 3584 2469 3576 
Q 2541 3569 2628 3553 
L 2631 2963 
z
" transform="scale(0.015625)"/>
       <path id="DejaVuSans-73" d="M 2834 3397 
L 2834 2853 
Q 2591 2978 2328 3040 
Q 2066 3103 1784 3103 
Q 1356 3103 1142 2972 
Q 928 2841 928 2578 
Q 928 2378 1081 2264 
Q 1234 2150 1697 2047 
L 1894 2003 
Q 2506 1872 2764 1633 
Q 3022 1394 3022 966 
Q 3022 478 2636 193 
Q 2250 -91 1575 -91 
Q 1294 -91 989 -36 
Q 684 19 347 128 
L 347 722 
Q 666 556 975 473 
Q 1284 391 1588 391 
Q 1994 391 2212 530 
Q 2431 669 2431 922 
Q 2431 1156 2273 1281 
Q 2116 1406 1581 1522 
L 1381 1569 
Q 847 1681 609 1914 
Q 372 2147 372 2553 
Q 372 3047 722 3315 
Q 1072 3584 1716 3584 
Q 2034 3584 2315 3537 
Q 2597 3491 2834 3397 
z
" transform="scale(0.015625)"/>
      </defs>
      <use xlink:href="#DejaVuSans-4e"/>
      <use xlink:href="#DejaVuSans-75" x="74.804688"/>
      <use xlink:href="#DejaVuSans-6d" x="138.183594"/>
      <use xlink:href="#DejaVuSans-4c" x="235.595703"/>
      <use xlink:href="#DejaVuSans-61" x="291.308594"/>
      <use xlink:href="#DejaVuSans-79" x="352.587891"/>
      <use xlink:href="#DejaVuSans-65" x="411.767578"/>
      <use xlink:href="#DejaVuSans-72" x="473.291016"/>
      <use xlink:href="#DejaVuSans-73" x="514.404297"/>
     </g>
    </g>
   </g>
   <g id="matplotlib.axis_2">
    <g id="ytick_1">
     <g id="line2d_7">
      <defs>
       <path id="mf03783dce0" d="M 0 0 
L -3.5 0 
" style="stroke: #000000; stroke-width: 0.8"/>
      </defs>
      <g>
       <use xlink:href="#mf03783dce0" x="108" y="450.01168" style="stroke: #000000; stroke-width: 0.8"/>
      </g>
     </g>
     <g id="text_8">
      <!-- 0 -->
      <g transform="translate(94.6375 453.810899) scale(0.1 -0.1)">
       <defs>
        <path id="DejaVuSans-30" d="M 2034 4250 
Q 1547 4250 1301 3770 
Q 1056 3291 1056 2328 
Q 1056 1369 1301 889 
Q 1547 409 2034 409 
Q 2525 409 2770 889 
Q 3016 1369 3016 2328 
Q 3016 3291 2770 3770 
Q 2525 4250 2034 4250 
z
M 2034 4750 
Q 2819 4750 3233 4129 
Q 3647 3509 3647 2328 
Q 3647 1150 3233 529 
Q 2819 -91 2034 -91 
Q 1250 -91 836 529 
Q 422 1150 422 2328 
Q 422 3509 836 4129 
Q 1250 4750 2034 4750 
z
" transform="scale(0.015625)"/>
       </defs>
       <use xlink:href="#DejaVuSans-30"/>
      </g>
     </g>
    </g>
    <g id="ytick_2">
     <g id="line2d_8">
      <g>
       <use xlink:href="#mf03783dce0" x="108" y="379.286489" style="stroke: #000000; stroke-width: 0.8"/>
      </g>
     </g>
     <g id="text_9">
      <!-- 10 -->
      <g transform="translate(88.275 383.085708) scale(0.1 -0.1)">
       <use xlink:href="#DejaVuSans-31"/>
       <use xlink:href="#DejaVuSans-30" x="63.623047"/>
      </g>
     </g>
    </g>
    <g id="ytick_3">
     <g id="line2d_9">
      <g>
       <use xlink:href="#mf03783dce0" x="108" y="308.561298" style="stroke: #000000; stroke-width: 0.8"/>
      </g>
     </g>
     <g id="text_10">
      <!-- 20 -->
      <g transform="translate(88.275 312.360517) scale(0.1 -0.1)">
       <use xlink:href="#DejaVuSans-32"/>
       <use xlink:href="#DejaVuSans-30" x="63.623047"/>
      </g>
     </g>
    </g>
    <g id="ytick_4">
     <g id="line2d_10">
      <g>
       <use xlink:href="#mf03783dce0" x="108" y="237.836107" style="stroke: #000000; stroke-width: 0.8"/>
      </g>
     </g>
     <g id="text_11">
      <!-- 30 -->
      <g transform="translate(88.275 241.635325) scale(0.1 -0.1)">
       <defs>
        <path id="DejaVuSans-33" d="M 2597 2516 
Q 3050 2419 3304 2112 
Q 3559 1806 3559 1356 
Q 3559 666 3084 287 
Q 2609 -91 1734 -91 
Q 1441 -91 1130 -33 
Q 819 25 488 141 
L 488 750 
Q 750 597 1062 519 
Q 1375 441 1716 441 
Q 2309 441 2620 675 
Q 2931 909 2931 1356 
Q 2931 1769 2642 2001 
Q 2353 2234 1838 2234 
L 1294 2234 
L 1294 2753 
L 1863 2753 
Q 2328 2753 2575 2939 
Q 2822 3125 2822 3475 
Q 2822 3834 2567 4026 
Q 2313 4219 1838 4219 
Q 1578 4219 1281 4162 
Q 984 4106 628 3988 
L 628 4550 
Q 988 4650 1302 4700 
Q 1616 4750 1894 4750 
Q 2613 4750 3031 4423 
Q 3450 4097 3450 3541 
Q 3450 3153 3228 2886 
Q 3006 2619 2597 2516 
z
" transform="scale(0.015625)"/>
       </defs>
       <use xlink:href="#DejaVuSans-33"/>
       <use xlink:href="#DejaVuSans-30" x="63.623047"/>
      </g>
     </g>
    </g>
    <g id="ytick_5">
     <g id="line2d_11">
      <g>
       <use xlink:href="#mf03783dce0" x="108" y="167.110915" style="stroke: #000000; stroke-width: 0.8"/>
      </g>
     </g>
     <g id="text_12">
      <!-- 40 -->
      <g transform="translate(88.275 170.910134) scale(0.1 -0.1)">
       <defs>
        <path id="DejaVuSans-34" d="M 2419 4116 
L 825 1625 
L 2419 1625 
L 2419 4116 
z
M 2253 4666 
L 3047 4666 
L 3047 1625 
L 3713 1625 
L 3713 1100 
L 3047 1100 
L 3047 0 
L 2419 0 
L 2419 1100 
L 313 1100 
L 313 1709 
L 2253 4666 
z
" transform="scale(0.015625)"/>
       </defs>
       <use xlink:href="#DejaVuSans-34"/>
       <use xlink:href="#DejaVuSans-30" x="63.623047"/>
      </g>
     </g>
    </g>
    <g id="ytick_6">
     <g id="line2d_12">
      <g>
       <use xlink:href="#mf03783dce0" x="108" y="96.385724" style="stroke: #000000; stroke-width: 0.8"/>
      </g>
     </g>
     <g id="text_13">
      <!-- 50 -->
      <g transform="translate(88.275 100.184943) scale(0.1 -0.1)">
       <use xlink:href="#DejaVuSans-35"/>
       <use xlink:href="#DejaVuSans-30" x="63.623047"/>
      </g>
     </g>
    </g>
    <g id="text_14">
     <!-- Count -->
     <g transform="translate(82.195312 305.728437) rotate(-90) scale(0.1 -0.1)">
      <defs>
       <path id="DejaVuSans-43" d="M 4122 4306 
L 4122 3641 
Q 3803 3938 3442 4084 
Q 3081 4231 2675 4231 
Q 1875 4231 1450 3742 
Q 1025 3253 1025 2328 
Q 1025 1406 1450 917 
Q 1875 428 2675 428 
Q 3081 428 3442 575 
Q 3803 722 4122 1019 
L 4122 359 
Q 3791 134 3420 21 
Q 3050 -91 2638 -91 
Q 1578 -91 968 557 
Q 359 1206 359 2328 
Q 359 3453 968 4101 
Q 1578 4750 2638 4750 
Q 3056 4750 3426 4639 
Q 3797 4528 4122 4306 
z
" transform="scale(0.015625)"/>
       <path id="DejaVuSans-6f" d="M 1959 3097 
Q 1497 3097 1228 2736 
Q 959 2375 959 1747 
Q 959 1119 1226 758 
Q 1494 397 1959 397 
Q 2419 397 2687 759 
Q 2956 1122 2956 1747 
Q 2956 2369 2687 2733 
Q 2419 3097 1959 3097 
z
M 1959 3584 
Q 2709 3584 3137 3096 
Q 3566 2609 3566 1747 
Q 3566 888 3137 398 
Q 2709 -91 1959 -91 
Q 1206 -91 779 398 
Q 353 888 353 1747 
Q 353 2609 779 3096 
Q 1206 3584 1959 3584 
z
" transform="scale(0.015625)"/>
       <path id="DejaVuSans-6e" d="M 3513 2113 
L 3513 0 
L 2938 0 
L 2938 2094 
Q 2938 2591 2744 2837 
Q 2550 3084 2163 3084 
Q 1697 3084 1428 2787 
Q 1159 2491 1159 1978 
L 1159 0 
L 581 0 
L 581 3500 
L 1159 3500 
L 1159 2956 
Q 1366 3272 1645 3428 
Q 1925 3584 2291 3584 
Q 2894 3584 3203 3211 
Q 3513 2838 3513 2113 
z
" transform="scale(0.015625)"/>
       <path id="DejaVuSans-74" d="M 1172 4494 
L 1172 3500 
L 2356 3500 
L 2356 3053 
L 1172 3053 
L 1172 1153 
Q 1172 725 1289 603 
Q 1406 481 1766 481 
L 2356 481 
L 2356 0 
L 1766 0 
Q 1100 0 847 248 
Q 594 497 594 1153 
L 594 3053 
L 172 3053 
L 172 3500 
L 594 3500 
L 594 4494 
L 1172 4494 
z
" transform="scale(0.015625)"/>
      </defs>
      <use xlink:href="#DejaVuSans-43"/>
      <use xlink:href="#DejaVuSans-6f" x="69.824219"/>
      <use xlink:href="#DejaVuSans-75" x="131.005859"/>
      <use xlink:href="#DejaVuSans-6e" x="194.384766"/>
      <use xlink:href="#DejaVuSans-74" x="257.763672"/>
     </g>
    </g>
   </g>
   <g id="line2d_13">
    <path d="M 134.070608 241.372366 
L 163.8 241.372366 
" clip-path="url(#pde489d1656)" style="fill: none; stroke-dasharray: 3.375,3.375; stroke-dashoffset: 0; stroke: #3f3f3f; stroke-width: 1.5"/>
   </g>
   <g id="line2d_14">
    <path d="M 121.339118 209.54603 
L 163.8 209.54603 
" clip-path="url(#pde489d1656)" style="fill: none; stroke-dasharray: 6.75,6.75; stroke-dashoffset: 0; stroke: #3f3f3f; stroke-width: 1.5"/>
   </g>
   <g id="line2d_15">
    <path d="M 121.872933 181.255954 
L 163.8 181.255954 
" clip-path="url(#pde489d1656)" style="fill: none; stroke-dasharray: 3.375,3.375; stroke-dashoffset: 0; stroke: #3f3f3f; stroke-width: 1.5"/>
   </g>
   <g id="line2d_16">
    <path d="M 163.8 400.504046 
L 205.727067 400.504046 
" clip-path="url(#pde489d1656)" style="fill: none; stroke-dasharray: 3.375,3.375; stroke-dashoffset: 0; stroke: #3f3f3f; stroke-width: 1.5"/>
   </g>
   <g id="line2d_17">
    <path d="M 163.8 372.21397 
L 206.260882 372.21397 
" clip-path="url(#pde489d1656)" style="fill: none; stroke-dasharray: 6.75,6.75; stroke-dashoffset: 0; stroke: #3f3f3f; stroke-width: 1.5"/>
   </g>
   <g id="line2d_18">
    <path d="M 163.8 340.387634 
L 193.529392 340.387634 
" clip-path="url(#pde489d1656)" style="fill: none; stroke-dasharray: 3.375,3.375; stroke-dashoffset: 0; stroke: #3f3f3f; stroke-width: 1.5"/>
   </g>
   <g id="line2d_19">
    <path d="M 247.431544 230.763588 
L 275.4 230.763588 
" clip-path="url(#pde489d1656)" style="fill: none; stroke-dasharray: 3.375,3.375; stroke-dashoffset: 0; stroke: #3f3f3f; stroke-width: 1.5"/>
   </g>
   <g id="line2d_20">
    <path d="M 232.458864 195.400992 
L 275.4 195.400992 
" clip-path="url(#pde489d1656)" style="fill: none; stroke-dasharray: 6.75,6.75; stroke-dashoffset: 0; stroke: #3f3f3f; stroke-width: 1.5"/>
   </g>
   <g id="line2d_21">
    <path d="M 235.000058 170.647175 
L 275.4 170.647175 
" clip-path="url(#pde489d1656)" style="fill: none; stroke-dasharray: 3.375,3.375; stroke-dashoffset: 0; stroke: #3f3f3f; stroke-width: 1.5"/>
   </g>
   <g id="line2d_22">
    <path d="M 275.4 411.112825 
L 315.799942 411.112825 
" clip-path="url(#pde489d1656)" style="fill: none; stroke-dasharray: 3.375,3.375; stroke-dashoffset: 0; stroke: #3f3f3f; stroke-width: 1.5"/>
   </g>
   <g id="line2d_23">
    <path d="M 275.4 386.359008 
L 318.341136 386.359008 
" clip-path="url(#pde489d1656)" style="fill: none; stroke-dasharray: 6.75,6.75; stroke-dashoffset: 0; stroke: #3f3f3f; stroke-width: 1.5"/>
   </g>
   <g id="line2d_24">
    <path d="M 275.4 350.996412 
L 303.368456 350.996412 
" clip-path="url(#pde489d1656)" style="fill: none; stroke-dasharray: 3.375,3.375; stroke-dashoffset: 0; stroke: #3f3f3f; stroke-width: 1.5"/>
   </g>
   <g id="line2d_25">
    <path d="M 362.239978 244.908626 
L 387 244.908626 
" clip-path="url(#pde489d1656)" style="fill: none; stroke-dasharray: 3.375,3.375; stroke-dashoffset: 0; stroke: #3f3f3f; stroke-width: 1.5"/>
   </g>
   <g id="line2d_26">
    <path d="M 346.586568 209.54603 
L 387 209.54603 
" clip-path="url(#pde489d1656)" style="fill: none; stroke-dasharray: 6.75,6.75; stroke-dashoffset: 0; stroke: #3f3f3f; stroke-width: 1.5"/>
   </g>
   <g id="line2d_27">
    <path d="M 343.870994 181.255954 
L 387 181.255954 
" clip-path="url(#pde489d1656)" style="fill: none; stroke-dasharray: 3.375,3.375; stroke-dashoffset: 0; stroke: #3f3f3f; stroke-width: 1.5"/>
   </g>
   <g id="line2d_28">
    <path d="M 387 400.504046 
L 430.129006 400.504046 
" clip-path="url(#pde489d1656)" style="fill: none; stroke-dasharray: 3.375,3.375; stroke-dashoffset: 0; stroke: #3f3f3f; stroke-width: 1.5"/>
   </g>
   <g id="line2d_29">
    <path d="M 387 372.21397 
L 427.413432 372.21397 
" clip-path="url(#pde489d1656)" style="fill: none; stroke-dasharray: 6.75,6.75; stroke-dashoffset: 0; stroke: #3f3f3f; stroke-width: 1.5"/>
   </g>
   <g id="line2d_30">
    <path d="M 387 336.851374 
L 411.760022 336.851374 
" clip-path="url(#pde489d1656)" style="fill: none; stroke-dasharray: 3.375,3.375; stroke-dashoffset: 0; stroke: #3f3f3f; stroke-width: 1.5"/>
   </g>
   <g id="line2d_31">
    <path d="M 468.732 248.444885 
L 498.6 248.444885 
" clip-path="url(#pde489d1656)" style="fill: none; stroke-dasharray: 3.375,3.375; stroke-dashoffset: 0; stroke: #3f3f3f; stroke-width: 1.5"/>
   </g>
   <g id="line2d_32">
    <path d="M 454.870698 216.618549 
L 498.6 216.618549 
" clip-path="url(#pde489d1656)" style="fill: none; stroke-dasharray: 6.75,6.75; stroke-dashoffset: 0; stroke: #3f3f3f; stroke-width: 1.5"/>
   </g>
   <g id="line2d_33">
    <path d="M 458.288856 195.400992 
L 498.6 195.400992 
" clip-path="url(#pde489d1656)" style="fill: none; stroke-dasharray: 3.375,3.375; stroke-dashoffset: 0; stroke: #3f3f3f; stroke-width: 1.5"/>
   </g>
   <g id="line2d_34">
    <path d="M 498.6 386.359008 
L 538.911144 386.359008 
" clip-path="url(#pde489d1656)" style="fill: none; stroke-dasharray: 3.375,3.375; stroke-dashoffset: 0; stroke: #3f3f3f; stroke-width: 1.5"/>
   </g>
   <g id="line2d_35">
    <path d="M 498.6 365.141451 
L 542.329302 365.141451 
" clip-path="url(#pde489d1656)" style="fill: none; stroke-dasharray: 6.75,6.75; stroke-dashoffset: 0; stroke: #3f3f3f; stroke-width: 1.5"/>
   </g>
   <g id="line2d_36">
    <path d="M 498.6 333.315115 
L 528.468 333.315115 
" clip-path="url(#pde489d1656)" style="fill: none; stroke-dasharray: 3.375,3.375; stroke-dashoffset: 0; stroke: #3f3f3f; stroke-width: 1.5"/>
   </g>
   <g id="line2d_37">
    <path d="M 583.905522 266.126183 
L 610.2 266.126183 
" clip-path="url(#pde489d1656)" style="fill: none; stroke-dasharray: 3.375,3.375; stroke-dashoffset: 0; stroke: #3f3f3f; stroke-width: 1.5"/>
   </g>
   <g id="line2d_38">
    <path d="M 566.536639 216.618549 
L 610.2 216.618549 
" clip-path="url(#pde489d1656)" style="fill: none; stroke-dasharray: 6.75,6.75; stroke-dashoffset: 0; stroke: #3f3f3f; stroke-width: 1.5"/>
   </g>
   <g id="line2d_39">
    <path d="M 567.885792 198.937252 
L 610.2 198.937252 
" clip-path="url(#pde489d1656)" style="fill: none; stroke-dasharray: 3.375,3.375; stroke-dashoffset: 0; stroke: #3f3f3f; stroke-width: 1.5"/>
   </g>
   <g id="line2d_40">
    <path d="M 610.2 382.822748 
L 652.514208 382.822748 
" clip-path="url(#pde489d1656)" style="fill: none; stroke-dasharray: 3.375,3.375; stroke-dashoffset: 0; stroke: #3f3f3f; stroke-width: 1.5"/>
   </g>
   <g id="line2d_41">
    <path d="M 610.2 365.141451 
L 653.863361 365.141451 
" clip-path="url(#pde489d1656)" style="fill: none; stroke-dasharray: 6.75,6.75; stroke-dashoffset: 0; stroke: #3f3f3f; stroke-width: 1.5"/>
   </g>
   <g id="line2d_42">
    <path d="M 610.2 315.633817 
L 636.494478 315.633817 
" clip-path="url(#pde489d1656)" style="fill: none; stroke-dasharray: 3.375,3.375; stroke-dashoffset: 0; stroke: #3f3f3f; stroke-width: 1.5"/>
   </g>
   <g id="line2d_43">
    <path d="M 691.035527 259.053664 
L 721.8 259.053664 
" clip-path="url(#pde489d1656)" style="fill: none; stroke-dasharray: 3.375,3.375; stroke-dashoffset: 0; stroke: #3f3f3f; stroke-width: 1.5"/>
   </g>
   <g id="line2d_44">
    <path d="M 680.041329 237.836107 
L 721.8 237.836107 
" clip-path="url(#pde489d1656)" style="fill: none; stroke-dasharray: 6.75,6.75; stroke-dashoffset: 0; stroke: #3f3f3f; stroke-width: 1.5"/>
   </g>
   <g id="line2d_45">
    <path d="M 680.238677 206.009771 
L 721.8 206.009771 
" clip-path="url(#pde489d1656)" style="fill: none; stroke-dasharray: 3.375,3.375; stroke-dashoffset: 0; stroke: #3f3f3f; stroke-width: 1.5"/>
   </g>
   <g id="line2d_46">
    <path d="M 721.8 375.750229 
L 763.361323 375.750229 
" clip-path="url(#pde489d1656)" style="fill: none; stroke-dasharray: 3.375,3.375; stroke-dashoffset: 0; stroke: #3f3f3f; stroke-width: 1.5"/>
   </g>
   <g id="line2d_47">
    <path d="M 721.8 343.923893 
L 763.558671 343.923893 
" clip-path="url(#pde489d1656)" style="fill: none; stroke-dasharray: 6.75,6.75; stroke-dashoffset: 0; stroke: #3f3f3f; stroke-width: 1.5"/>
   </g>
   <g id="line2d_48">
    <path d="M 721.8 322.706336 
L 752.564473 322.706336 
" clip-path="url(#pde489d1656)" style="fill: none; stroke-dasharray: 3.375,3.375; stroke-dashoffset: 0; stroke: #3f3f3f; stroke-width: 1.5"/>
   </g>
   <g id="patch_5">
    <path d="M 108 512.64 
L 108 69.12 
" style="fill: none; stroke: #000000; stroke-width: 0.8; stroke-linejoin: miter; stroke-linecap: square"/>
   </g>
   <g id="patch_6">
    <path d="M 777.6 512.64 
L 777.6 69.12 
" style="fill: none; stroke: #000000; stroke-width: 0.8; stroke-linejoin: miter; stroke-linecap: square"/>
   </g>
   <g id="patch_7">
    <path d="M 108 512.64 
L 777.6 512.64 
" style="fill: none; stroke: #000000; stroke-width: 0.8; stroke-linejoin: miter; stroke-linecap: square"/>
   </g>
   <g id="patch_8">
    <path d="M 108 69.12 
L 777.6 69.12 
" style="fill: none; stroke: #000000; stroke-width: 0.8; stroke-linejoin: miter; stroke-linecap: square"/>
   </g>
   <g id="legend_1">
    <g id="patch_9">
     <path d="M 638.1375 121.710625 
L 770.6 121.710625 
Q 772.6 121.710625 772.6 119.710625 
L 772.6 76.12 
Q 772.6 74.12 770.6 74.12 
L 638.1375 74.12 
Q 636.1375 74.12 636.1375 76.12 
L 636.1375 119.710625 
Q 636.1375 121.710625 638.1375 121.710625 
z
" style="fill: #ffffff; opacity: 0.8; stroke: #cccccc; stroke-linejoin: miter"/>
    </g>
    <g id="text_15">
     <!-- Result -->
     <g transform="translate(688.920313 85.718438) scale(0.1 -0.1)">
      <defs>
       <path id="DejaVuSans-52" d="M 2841 2188 
Q 3044 2119 3236 1894 
Q 3428 1669 3622 1275 
L 4263 0 
L 3584 0 
L 2988 1197 
Q 2756 1666 2539 1819 
Q 2322 1972 1947 1972 
L 1259 1972 
L 1259 0 
L 628 0 
L 628 4666 
L 2053 4666 
Q 2853 4666 3247 4331 
Q 3641 3997 3641 3322 
Q 3641 2881 3436 2590 
Q 3231 2300 2841 2188 
z
M 1259 4147 
L 1259 2491 
L 2053 2491 
Q 2509 2491 2742 2702 
Q 2975 2913 2975 3322 
Q 2975 3731 2742 3939 
Q 2509 4147 2053 4147 
L 1259 4147 
z
" transform="scale(0.015625)"/>
       <path id="DejaVuSans-6c" d="M 603 4863 
L 1178 4863 
L 1178 0 
L 603 0 
L 603 4863 
z
" transform="scale(0.015625)"/>
      </defs>
      <use xlink:href="#DejaVuSans-52"/>
      <use xlink:href="#DejaVuSans-65" x="64.982422"/>
      <use xlink:href="#DejaVuSans-73" x="126.505859"/>
      <use xlink:href="#DejaVuSans-75" x="178.605469"/>
      <use xlink:href="#DejaVuSans-6c" x="241.984375"/>
      <use xlink:href="#DejaVuSans-74" x="269.767578"/>
     </g>
    </g>
    <g id="patch_10">
     <path d="M 640.1375 100.396563 
L 660.1375 100.396563 
L 660.1375 93.396563 
L 640.1375 93.396563 
z
" style="fill: #3274a1; stroke: #3f3f3f; stroke-width: 0.75; stroke-linejoin: miter"/>
    </g>
    <g id="text_16">
     <!-- Completed_Abs -->
     <g transform="translate(668.1375 100.396563) scale(0.1 -0.1)">
      <defs>
       <path id="DejaVuSans-70" d="M 1159 525 
L 1159 -1331 
L 581 -1331 
L 581 3500 
L 1159 3500 
L 1159 2969 
Q 1341 3281 1617 3432 
Q 1894 3584 2278 3584 
Q 2916 3584 3314 3078 
Q 3713 2572 3713 1747 
Q 3713 922 3314 415 
Q 2916 -91 2278 -91 
Q 1894 -91 1617 61 
Q 1341 213 1159 525 
z
M 3116 1747 
Q 3116 2381 2855 2742 
Q 2594 3103 2138 3103 
Q 1681 3103 1420 2742 
Q 1159 2381 1159 1747 
Q 1159 1113 1420 752 
Q 1681 391 2138 391 
Q 2594 391 2855 752 
Q 3116 1113 3116 1747 
z
" transform="scale(0.015625)"/>
       <path id="DejaVuSans-64" d="M 2906 2969 
L 2906 4863 
L 3481 4863 
L 3481 0 
L 2906 0 
L 2906 525 
Q 2725 213 2448 61 
Q 2172 -91 1784 -91 
Q 1150 -91 751 415 
Q 353 922 353 1747 
Q 353 2572 751 3078 
Q 1150 3584 1784 3584 
Q 2172 3584 2448 3432 
Q 2725 3281 2906 2969 
z
M 947 1747 
Q 947 1113 1208 752 
Q 1469 391 1925 391 
Q 2381 391 2643 752 
Q 2906 1113 2906 1747 
Q 2906 2381 2643 2742 
Q 2381 3103 1925 3103 
Q 1469 3103 1208 2742 
Q 947 2381 947 1747 
z
" transform="scale(0.015625)"/>
       <path id="DejaVuSans-5f" d="M 3263 -1063 
L 3263 -1509 
L -63 -1509 
L -63 -1063 
L 3263 -1063 
z
" transform="scale(0.015625)"/>
       <path id="DejaVuSans-41" d="M 2188 4044 
L 1331 1722 
L 3047 1722 
L 2188 4044 
z
M 1831 4666 
L 2547 4666 
L 4325 0 
L 3669 0 
L 3244 1197 
L 1141 1197 
L 716 0 
L 50 0 
L 1831 4666 
z
" transform="scale(0.015625)"/>
       <path id="DejaVuSans-62" d="M 3116 1747 
Q 3116 2381 2855 2742 
Q 2594 3103 2138 3103 
Q 1681 3103 1420 2742 
Q 1159 2381 1159 1747 
Q 1159 1113 1420 752 
Q 1681 391 2138 391 
Q 2594 391 2855 752 
Q 3116 1113 3116 1747 
z
M 1159 2969 
Q 1341 3281 1617 3432 
Q 1894 3584 2278 3584 
Q 2916 3584 3314 3078 
Q 3713 2572 3713 1747 
Q 3713 922 3314 415 
Q 2916 -91 2278 -91 
Q 1894 -91 1617 61 
Q 1341 213 1159 525 
L 1159 0 
L 581 0 
L 581 4863 
L 1159 4863 
L 1159 2969 
z
" transform="scale(0.015625)"/>
      </defs>
      <use xlink:href="#DejaVuSans-43"/>
      <use xlink:href="#DejaVuSans-6f" x="69.824219"/>
      <use xlink:href="#DejaVuSans-6d" x="131.005859"/>
      <use xlink:href="#DejaVuSans-70" x="228.417969"/>
      <use xlink:href="#DejaVuSans-6c" x="291.894531"/>
      <use xlink:href="#DejaVuSans-65" x="319.677734"/>
      <use xlink:href="#DejaVuSans-74" x="381.201172"/>
      <use xlink:href="#DejaVuSans-65" x="420.410156"/>
      <use xlink:href="#DejaVuSans-64" x="481.933594"/>
      <use xlink:href="#DejaVuSans-5f" x="545.410156"/>
      <use xlink:href="#DejaVuSans-41" x="595.410156"/>
      <use xlink:href="#DejaVuSans-62" x="663.818359"/>
      <use xlink:href="#DejaVuSans-73" x="727.294922"/>
     </g>
    </g>
    <g id="patch_11">
     <path d="M 640.1375 115.352813 
L 660.1375 115.352813 
L 660.1375 108.352813 
L 640.1375 108.352813 
z
" style="fill: #e1812c; stroke: #3f3f3f; stroke-width: 0.75; stroke-linejoin: miter"/>
    </g>
    <g id="text_17">
     <!-- Not_Completed_Abs -->
     <g transform="translate(668.1375 115.352813) scale(0.1 -0.1)">
      <use xlink:href="#DejaVuSans-4e"/>
      <use xlink:href="#DejaVuSans-6f" x="74.804688"/>
      <use xlink:href="#DejaVuSans-74" x="135.986328"/>
      <use xlink:href="#DejaVuSans-5f" x="175.195312"/>
      <use xlink:href="#DejaVuSans-43" x="225.195312"/>
      <use xlink:href="#DejaVuSans-6f" x="295.019531"/>
      <use xlink:href="#DejaVuSans-6d" x="356.201172"/>
      <use xlink:href="#DejaVuSans-70" x="453.613281"/>
      <use xlink:href="#DejaVuSans-6c" x="517.089844"/>
      <use xlink:href="#DejaVuSans-65" x="544.873047"/>
      <use xlink:href="#DejaVuSans-74" x="606.396484"/>
      <use xlink:href="#DejaVuSans-65" x="645.605469"/>
      <use xlink:href="#DejaVuSans-64" x="707.128906"/>
      <use xlink:href="#DejaVuSans-5f" x="770.605469"/>
      <use xlink:href="#DejaVuSans-41" x="820.605469"/>
      <use xlink:href="#DejaVuSans-62" x="889.013672"/>
      <use xlink:href="#DejaVuSans-73" x="952.490234"/>
     </g>
    </g>
   </g>
  </g>
 </g>
 <defs>
  <clipPath id="pde489d1656">
   <rect x="108" y="69.12" width="669.6" height="443.52"/>
  </clipPath>
 </defs>
</svg>
