<?xml version="1.0" encoding="utf-8" standalone="no"?>
<!DOCTYPE svg PUBLIC "-//W3C//DTD SVG 1.1//EN"
  "http://www.w3.org/Graphics/SVG/1.1/DTD/svg11.dtd">
<svg xmlns:xlink="http://www.w3.org/1999/xlink" width="1440pt" height="720pt" viewBox="0 0 1440 720" xmlns="http://www.w3.org/2000/svg" version="1.1">
 <metadata>
  <rdf:RDF xmlns:dc="http://purl.org/dc/elements/1.1/" xmlns:cc="http://creativecommons.org/ns#" xmlns:rdf="http://www.w3.org/1999/02/22-rdf-syntax-ns#">
   <cc:Work>
    <dc:type rdf:resource="http://purl.org/dc/dcmitype/StillImage"/>
    <dc:date>2022-01-27T21:51:05.449295</dc:date>
    <dc:format>image/svg+xml</dc:format>
    <dc:creator>
     <cc:Agent>
      <dc:title>Matplotlib v3.5.0, https://matplotlib.org/</dc:title>
     </cc:Agent>
    </dc:creator>
   </cc:Work>
  </rdf:RDF>
 </metadata>
 <defs>
  <style type="text/css">*{stroke-linejoin: round; stroke-linecap: butt}</style>
 </defs>
 <g id="figure_1">
  <g id="patch_1">
   <path d="M 0 720 
L 1440 720 
L 1440 0 
L 0 0 
L 0 720 
z
" style="fill: none"/>
  </g>
  <g id="axes_1">
   <g id="patch_2">
    <path d="M 180 630 
L 1296 630 
L 1296 86.4 
L 180 86.4 
z
" style="fill: #ffffff"/>
   </g>
   <g id="PathCollection_1">
    <defs>
     <path id="m3af0afc55f" d="M 0 3 
C 0.795609 3 1.55874 2.683901 2.12132 2.12132 
C 2.683901 1.55874 3 0.795609 3 0 
C 3 -0.795609 2.683901 -1.55874 2.12132 -2.12132 
C 1.55874 -2.683901 0.795609 -3 0 -3 
C -0.795609 -3 -1.55874 -2.683901 -2.12132 -2.12132 
C -2.683901 -1.55874 -3 -0.795609 -3 0 
C -3 0.795609 -2.683901 1.55874 -2.12132 2.12132 
C -1.55874 2.683901 -0.795609 3 0 3 
z
" style="stroke: #1f77b4; stroke-opacity: 0.8"/>
    </defs>
    <g clip-path="url(#pd1cb2b2372)">
     <use xlink:href="#m3af0afc55f" x="230.727273" y="161.650413" style="fill: #1f77b4; fill-opacity: 0.8; stroke: #1f77b4; stroke-opacity: 0.8"/>
     <use xlink:href="#m3af0afc55f" x="249.86964" y="195.344628" style="fill: #1f77b4; fill-opacity: 0.8; stroke: #1f77b4; stroke-opacity: 0.8"/>
     <use xlink:href="#m3af0afc55f" x="269.012007" y="150.419008" style="fill: #1f77b4; fill-opacity: 0.8; stroke: #1f77b4; stroke-opacity: 0.8"/>
     <use xlink:href="#m3af0afc55f" x="288.154374" y="195.344628" style="fill: #1f77b4; fill-opacity: 0.8; stroke: #1f77b4; stroke-opacity: 0.8"/>
     <use xlink:href="#m3af0afc55f" x="307.296741" y="156.034711" style="fill: #1f77b4; fill-opacity: 0.8; stroke: #1f77b4; stroke-opacity: 0.8"/>
     <use xlink:href="#m3af0afc55f" x="326.439108" y="172.881818" style="fill: #1f77b4; fill-opacity: 0.8; stroke: #1f77b4; stroke-opacity: 0.8"/>
     <use xlink:href="#m3af0afc55f" x="345.581475" y="133.571901" style="fill: #1f77b4; fill-opacity: 0.8; stroke: #1f77b4; stroke-opacity: 0.8"/>
     <use xlink:href="#m3af0afc55f" x="364.723842" y="139.187603" style="fill: #1f77b4; fill-opacity: 0.8; stroke: #1f77b4; stroke-opacity: 0.8"/>
     <use xlink:href="#m3af0afc55f" x="383.866209" y="150.419008" style="fill: #1f77b4; fill-opacity: 0.8; stroke: #1f77b4; stroke-opacity: 0.8"/>
     <use xlink:href="#m3af0afc55f" x="403.008576" y="156.034711" style="fill: #1f77b4; fill-opacity: 0.8; stroke: #1f77b4; stroke-opacity: 0.8"/>
     <use xlink:href="#m3af0afc55f" x="422.150943" y="150.419008" style="fill: #1f77b4; fill-opacity: 0.8; stroke: #1f77b4; stroke-opacity: 0.8"/>
     <use xlink:href="#m3af0afc55f" x="441.29331" y="161.650413" style="fill: #1f77b4; fill-opacity: 0.8; stroke: #1f77b4; stroke-opacity: 0.8"/>
     <use xlink:href="#m3af0afc55f" x="460.435678" y="184.113223" style="fill: #1f77b4; fill-opacity: 0.8; stroke: #1f77b4; stroke-opacity: 0.8"/>
     <use xlink:href="#m3af0afc55f" x="479.578045" y="116.724793" style="fill: #1f77b4; fill-opacity: 0.8; stroke: #1f77b4; stroke-opacity: 0.8"/>
     <use xlink:href="#m3af0afc55f" x="498.720412" y="156.034711" style="fill: #1f77b4; fill-opacity: 0.8; stroke: #1f77b4; stroke-opacity: 0.8"/>
     <use xlink:href="#m3af0afc55f" x="517.862779" y="206.576033" style="fill: #1f77b4; fill-opacity: 0.8; stroke: #1f77b4; stroke-opacity: 0.8"/>
     <use xlink:href="#m3af0afc55f" x="537.005146" y="122.340496" style="fill: #1f77b4; fill-opacity: 0.8; stroke: #1f77b4; stroke-opacity: 0.8"/>
     <use xlink:href="#m3af0afc55f" x="556.147513" y="111.109091" style="fill: #1f77b4; fill-opacity: 0.8; stroke: #1f77b4; stroke-opacity: 0.8"/>
     <use xlink:href="#m3af0afc55f" x="575.28988" y="156.034711" style="fill: #1f77b4; fill-opacity: 0.8; stroke: #1f77b4; stroke-opacity: 0.8"/>
     <use xlink:href="#m3af0afc55f" x="594.432247" y="178.497521" style="fill: #1f77b4; fill-opacity: 0.8; stroke: #1f77b4; stroke-opacity: 0.8"/>
     <use xlink:href="#m3af0afc55f" x="613.574614" y="116.724793" style="fill: #1f77b4; fill-opacity: 0.8; stroke: #1f77b4; stroke-opacity: 0.8"/>
     <use xlink:href="#m3af0afc55f" x="632.716981" y="167.266116" style="fill: #1f77b4; fill-opacity: 0.8; stroke: #1f77b4; stroke-opacity: 0.8"/>
     <use xlink:href="#m3af0afc55f" x="651.859348" y="144.803306" style="fill: #1f77b4; fill-opacity: 0.8; stroke: #1f77b4; stroke-opacity: 0.8"/>
     <use xlink:href="#m3af0afc55f" x="671.001715" y="161.650413" style="fill: #1f77b4; fill-opacity: 0.8; stroke: #1f77b4; stroke-opacity: 0.8"/>
     <use xlink:href="#m3af0afc55f" x="690.144082" y="223.42314" style="fill: #1f77b4; fill-opacity: 0.8; stroke: #1f77b4; stroke-opacity: 0.8"/>
     <use xlink:href="#m3af0afc55f" x="709.286449" y="111.109091" style="fill: #1f77b4; fill-opacity: 0.8; stroke: #1f77b4; stroke-opacity: 0.8"/>
     <use xlink:href="#m3af0afc55f" x="728.428816" y="150.419008" style="fill: #1f77b4; fill-opacity: 0.8; stroke: #1f77b4; stroke-opacity: 0.8"/>
     <use xlink:href="#m3af0afc55f" x="747.571184" y="161.650413" style="fill: #1f77b4; fill-opacity: 0.8; stroke: #1f77b4; stroke-opacity: 0.8"/>
     <use xlink:href="#m3af0afc55f" x="766.713551" y="167.266116" style="fill: #1f77b4; fill-opacity: 0.8; stroke: #1f77b4; stroke-opacity: 0.8"/>
     <use xlink:href="#m3af0afc55f" x="785.855918" y="144.803306" style="fill: #1f77b4; fill-opacity: 0.8; stroke: #1f77b4; stroke-opacity: 0.8"/>
     <use xlink:href="#m3af0afc55f" x="804.998285" y="116.724793" style="fill: #1f77b4; fill-opacity: 0.8; stroke: #1f77b4; stroke-opacity: 0.8"/>
     <use xlink:href="#m3af0afc55f" x="824.140652" y="184.113223" style="fill: #1f77b4; fill-opacity: 0.8; stroke: #1f77b4; stroke-opacity: 0.8"/>
     <use xlink:href="#m3af0afc55f" x="843.283019" y="172.881818" style="fill: #1f77b4; fill-opacity: 0.8; stroke: #1f77b4; stroke-opacity: 0.8"/>
     <use xlink:href="#m3af0afc55f" x="862.425386" y="167.266116" style="fill: #1f77b4; fill-opacity: 0.8; stroke: #1f77b4; stroke-opacity: 0.8"/>
     <use xlink:href="#m3af0afc55f" x="881.567753" y="167.266116" style="fill: #1f77b4; fill-opacity: 0.8; stroke: #1f77b4; stroke-opacity: 0.8"/>
     <use xlink:href="#m3af0afc55f" x="900.71012" y="144.803306" style="fill: #1f77b4; fill-opacity: 0.8; stroke: #1f77b4; stroke-opacity: 0.8"/>
     <use xlink:href="#m3af0afc55f" x="919.852487" y="200.960331" style="fill: #1f77b4; fill-opacity: 0.8; stroke: #1f77b4; stroke-opacity: 0.8"/>
     <use xlink:href="#m3af0afc55f" x="938.994854" y="144.803306" style="fill: #1f77b4; fill-opacity: 0.8; stroke: #1f77b4; stroke-opacity: 0.8"/>
     <use xlink:href="#m3af0afc55f" x="958.137221" y="189.728926" style="fill: #1f77b4; fill-opacity: 0.8; stroke: #1f77b4; stroke-opacity: 0.8"/>
     <use xlink:href="#m3af0afc55f" x="977.279588" y="122.340496" style="fill: #1f77b4; fill-opacity: 0.8; stroke: #1f77b4; stroke-opacity: 0.8"/>
     <use xlink:href="#m3af0afc55f" x="996.421955" y="116.724793" style="fill: #1f77b4; fill-opacity: 0.8; stroke: #1f77b4; stroke-opacity: 0.8"/>
     <use xlink:href="#m3af0afc55f" x="1015.564322" y="116.724793" style="fill: #1f77b4; fill-opacity: 0.8; stroke: #1f77b4; stroke-opacity: 0.8"/>
     <use xlink:href="#m3af0afc55f" x="1034.70669" y="161.650413" style="fill: #1f77b4; fill-opacity: 0.8; stroke: #1f77b4; stroke-opacity: 0.8"/>
     <use xlink:href="#m3af0afc55f" x="1053.849057" y="139.187603" style="fill: #1f77b4; fill-opacity: 0.8; stroke: #1f77b4; stroke-opacity: 0.8"/>
     <use xlink:href="#m3af0afc55f" x="1072.991424" y="139.187603" style="fill: #1f77b4; fill-opacity: 0.8; stroke: #1f77b4; stroke-opacity: 0.8"/>
     <use xlink:href="#m3af0afc55f" x="1092.133791" y="122.340496" style="fill: #1f77b4; fill-opacity: 0.8; stroke: #1f77b4; stroke-opacity: 0.8"/>
     <use xlink:href="#m3af0afc55f" x="1111.276158" y="178.497521" style="fill: #1f77b4; fill-opacity: 0.8; stroke: #1f77b4; stroke-opacity: 0.8"/>
     <use xlink:href="#m3af0afc55f" x="1130.418525" y="156.034711" style="fill: #1f77b4; fill-opacity: 0.8; stroke: #1f77b4; stroke-opacity: 0.8"/>
     <use xlink:href="#m3af0afc55f" x="1149.560892" y="111.109091" style="fill: #1f77b4; fill-opacity: 0.8; stroke: #1f77b4; stroke-opacity: 0.8"/>
     <use xlink:href="#m3af0afc55f" x="1168.703259" y="122.340496" style="fill: #1f77b4; fill-opacity: 0.8; stroke: #1f77b4; stroke-opacity: 0.8"/>
     <use xlink:href="#m3af0afc55f" x="1187.845626" y="133.571901" style="fill: #1f77b4; fill-opacity: 0.8; stroke: #1f77b4; stroke-opacity: 0.8"/>
     <use xlink:href="#m3af0afc55f" x="1206.987993" y="150.419008" style="fill: #1f77b4; fill-opacity: 0.8; stroke: #1f77b4; stroke-opacity: 0.8"/>
     <use xlink:href="#m3af0afc55f" x="1226.13036" y="127.956198" style="fill: #1f77b4; fill-opacity: 0.8; stroke: #1f77b4; stroke-opacity: 0.8"/>
     <use xlink:href="#m3af0afc55f" x="1245.272727" y="172.881818" style="fill: #1f77b4; fill-opacity: 0.8; stroke: #1f77b4; stroke-opacity: 0.8"/>
    </g>
   </g>
   <g id="PolyCollection_1">
    <path d="M 230.727273 150.631751 
L 230.727273 176.174407 
L 240.975207 175.707175 
L 251.22314 175.348593 
L 261.471074 175.057508 
L 271.719008 174.780654 
L 281.966942 174.510664 
L 292.214876 174.215482 
L 302.46281 173.856474 
L 312.710744 173.519786 
L 322.958678 173.056408 
L 333.206612 172.740017 
L 343.454545 172.423625 
L 353.702479 172.045063 
L 363.950413 171.649401 
L 374.198347 171.193623 
L 384.446281 170.759548 
L 394.694215 170.360065 
L 404.942149 170.033852 
L 415.190083 169.706984 
L 425.438017 169.290431 
L 435.68595 168.980137 
L 445.933884 168.599116 
L 456.181818 168.214924 
L 466.429752 167.831473 
L 476.677686 167.523611 
L 486.92562 167.20035 
L 497.173554 166.876136 
L 507.421488 166.549546 
L 517.669421 166.265028 
L 527.917355 166.070551 
L 538.165289 165.736304 
L 548.413223 165.3673 
L 558.661157 164.999433 
L 568.909091 164.630333 
L 579.157025 164.334531 
L 589.404959 164.061156 
L 599.652893 163.78778 
L 609.900826 163.514405 
L 620.14876 163.241788 
L 630.396694 162.958892 
L 640.644628 162.700221 
L 650.892562 162.429454 
L 661.140496 162.161393 
L 671.38843 162.103173 
L 681.636364 161.920954 
L 691.884298 161.698166 
L 702.132231 161.434438 
L 712.380165 161.159513 
L 722.628099 160.857564 
L 732.876033 160.642575 
L 743.123967 160.581174 
L 753.371901 160.376932 
L 763.619835 160.157797 
L 773.867769 159.934883 
L 784.115702 159.714607 
L 794.363636 159.445316 
L 804.61157 159.267761 
L 814.859504 159.101001 
L 825.107438 158.874689 
L 835.355372 158.672085 
L 845.603306 158.515096 
L 855.85124 158.286403 
L 866.099174 158.153343 
L 876.347107 158.11901 
L 886.595041 157.778236 
L 896.842975 157.660133 
L 907.090909 157.595137 
L 917.338843 157.570171 
L 927.586777 157.351634 
L 937.834711 157.280092 
L 948.082645 157.216872 
L 958.330579 157.182424 
L 968.578512 157.119724 
L 978.826446 156.972112 
L 989.07438 156.909979 
L 999.322314 156.821331 
L 1009.570248 156.55524 
L 1019.818182 156.369401 
L 1030.066116 156.298308 
L 1040.31405 156.227503 
L 1050.561983 156.307638 
L 1060.809917 156.170008 
L 1071.057851 156.057057 
L 1081.305785 155.959354 
L 1091.553719 155.923031 
L 1101.801653 155.844104 
L 1112.049587 155.753975 
L 1122.297521 155.687733 
L 1132.545455 155.658641 
L 1142.793388 155.549325 
L 1153.041322 155.538994 
L 1163.289256 155.554763 
L 1173.53719 155.570148 
L 1183.785124 155.578635 
L 1194.033058 155.483702 
L 1204.280992 155.386844 
L 1214.528926 155.290763 
L 1224.77686 155.276076 
L 1235.024793 155.146533 
L 1245.272727 155.01574 
L 1245.272727 130.29063 
L 1245.272727 130.29063 
L 1235.024793 130.653056 
L 1224.77686 131.01632 
L 1214.528926 131.408392 
L 1204.280992 131.870937 
L 1194.033058 132.261626 
L 1183.785124 132.652529 
L 1173.53719 133.02571 
L 1163.289256 133.356661 
L 1153.041322 133.71047 
L 1142.793388 134.161965 
L 1132.545455 134.575024 
L 1122.297521 134.910307 
L 1112.049587 135.313304 
L 1101.801653 135.721581 
L 1091.553719 136.178392 
L 1081.305785 136.550188 
L 1071.057851 136.962043 
L 1060.809917 137.317782 
L 1050.561983 137.585584 
L 1040.31405 137.93952 
L 1030.066116 138.274621 
L 1019.818182 138.614922 
L 1009.570248 138.935702 
L 999.322314 139.338854 
L 989.07438 139.72693 
L 978.826446 140.141957 
L 968.578512 140.478983 
L 958.330579 140.748388 
L 948.082645 141.038926 
L 937.834711 141.383858 
L 927.586777 141.724553 
L 917.338843 142.053827 
L 907.090909 142.292719 
L 896.842975 142.556205 
L 886.595041 142.794736 
L 876.347107 143.061404 
L 866.099174 143.243676 
L 855.85124 143.470684 
L 845.603306 143.689062 
L 835.355372 144.011881 
L 825.107438 144.224925 
L 814.859504 144.408301 
L 804.61157 144.513198 
L 794.363636 144.682049 
L 784.115702 144.794538 
L 773.867769 145.047937 
L 763.619835 145.313909 
L 753.371901 145.531499 
L 743.123967 145.612177 
L 732.876033 145.697204 
L 722.628099 145.90222 
L 712.380165 146.110323 
L 702.132231 146.353384 
L 691.884298 146.611105 
L 681.636364 146.887957 
L 671.38843 147.119078 
L 661.140496 147.380072 
L 650.892562 147.564293 
L 640.644628 147.650274 
L 630.396694 147.760593 
L 620.14876 147.965263 
L 609.900826 148.175842 
L 599.652893 148.452579 
L 589.404959 148.541501 
L 579.157025 148.628249 
L 568.909091 148.717241 
L 558.661157 148.807248 
L 548.413223 148.955813 
L 538.165289 149.035795 
L 527.917355 149.152044 
L 517.669421 149.281779 
L 507.421488 149.412095 
L 497.173554 149.444466 
L 486.92562 149.512244 
L 476.677686 149.614606 
L 466.429752 149.642549 
L 456.181818 149.746746 
L 445.933884 150.022159 
L 435.68595 150.112724 
L 425.438017 150.19641 
L 415.190083 150.210385 
L 404.942149 150.224359 
L 394.694215 150.238333 
L 384.446281 150.300405 
L 374.198347 150.386903 
L 363.950413 150.475672 
L 353.702479 150.526226 
L 343.454545 150.573674 
L 333.206612 150.578538 
L 322.958678 150.583403 
L 312.710744 150.546621 
L 302.46281 150.515898 
L 292.214876 150.573838 
L 281.966942 150.554374 
L 271.719008 150.610876 
L 261.471074 150.614616 
L 251.22314 150.621564 
L 240.975207 150.656845 
L 230.727273 150.631751 
z
" clip-path="url(#pd1cb2b2372)" style="fill: #1f77b4; fill-opacity: 0.15"/>
   </g>
   <g id="PathCollection_2">
    <defs>
     <path id="mb9a4554b22" d="M 0 3 
C 0.795609 3 1.55874 2.683901 2.12132 2.12132 
C 2.683901 1.55874 3 0.795609 3 0 
C 3 -0.795609 2.683901 -1.55874 2.12132 -2.12132 
C 1.55874 -2.683901 0.795609 -3 0 -3 
C -0.795609 -3 -1.55874 -2.683901 -2.12132 -2.12132 
C -2.683901 -1.55874 -3 -0.795609 -3 0 
C -3 0.795609 -2.683901 1.55874 -2.12132 2.12132 
C -1.55874 2.683901 -0.795609 3 0 3 
z
" style="stroke: #ff7f0e; stroke-opacity: 0.8"/>
    </defs>
    <g clip-path="url(#pd1cb2b2372)">
     <use xlink:href="#mb9a4554b22" x="230.727273" y="571.596694" style="fill: #ff7f0e; fill-opacity: 0.8; stroke: #ff7f0e; stroke-opacity: 0.8"/>
     <use xlink:href="#mb9a4554b22" x="249.86964" y="594.059504" style="fill: #ff7f0e; fill-opacity: 0.8; stroke: #ff7f0e; stroke-opacity: 0.8"/>
     <use xlink:href="#mb9a4554b22" x="269.012007" y="577.212397" style="fill: #ff7f0e; fill-opacity: 0.8; stroke: #ff7f0e; stroke-opacity: 0.8"/>
     <use xlink:href="#mb9a4554b22" x="288.154374" y="577.212397" style="fill: #ff7f0e; fill-opacity: 0.8; stroke: #ff7f0e; stroke-opacity: 0.8"/>
     <use xlink:href="#mb9a4554b22" x="307.296741" y="582.828099" style="fill: #ff7f0e; fill-opacity: 0.8; stroke: #ff7f0e; stroke-opacity: 0.8"/>
     <use xlink:href="#mb9a4554b22" x="326.439108" y="594.059504" style="fill: #ff7f0e; fill-opacity: 0.8; stroke: #ff7f0e; stroke-opacity: 0.8"/>
     <use xlink:href="#mb9a4554b22" x="345.581475" y="582.828099" style="fill: #ff7f0e; fill-opacity: 0.8; stroke: #ff7f0e; stroke-opacity: 0.8"/>
     <use xlink:href="#mb9a4554b22" x="364.723842" y="594.059504" style="fill: #ff7f0e; fill-opacity: 0.8; stroke: #ff7f0e; stroke-opacity: 0.8"/>
     <use xlink:href="#mb9a4554b22" x="383.866209" y="571.596694" style="fill: #ff7f0e; fill-opacity: 0.8; stroke: #ff7f0e; stroke-opacity: 0.8"/>
     <use xlink:href="#mb9a4554b22" x="403.008576" y="582.828099" style="fill: #ff7f0e; fill-opacity: 0.8; stroke: #ff7f0e; stroke-opacity: 0.8"/>
     <use xlink:href="#mb9a4554b22" x="422.150943" y="599.675207" style="fill: #ff7f0e; fill-opacity: 0.8; stroke: #ff7f0e; stroke-opacity: 0.8"/>
     <use xlink:href="#mb9a4554b22" x="441.29331" y="599.675207" style="fill: #ff7f0e; fill-opacity: 0.8; stroke: #ff7f0e; stroke-opacity: 0.8"/>
     <use xlink:href="#mb9a4554b22" x="460.435678" y="594.059504" style="fill: #ff7f0e; fill-opacity: 0.8; stroke: #ff7f0e; stroke-opacity: 0.8"/>
     <use xlink:href="#mb9a4554b22" x="479.578045" y="582.828099" style="fill: #ff7f0e; fill-opacity: 0.8; stroke: #ff7f0e; stroke-opacity: 0.8"/>
     <use xlink:href="#mb9a4554b22" x="498.720412" y="599.675207" style="fill: #ff7f0e; fill-opacity: 0.8; stroke: #ff7f0e; stroke-opacity: 0.8"/>
     <use xlink:href="#mb9a4554b22" x="517.862779" y="594.059504" style="fill: #ff7f0e; fill-opacity: 0.8; stroke: #ff7f0e; stroke-opacity: 0.8"/>
     <use xlink:href="#mb9a4554b22" x="537.005146" y="594.059504" style="fill: #ff7f0e; fill-opacity: 0.8; stroke: #ff7f0e; stroke-opacity: 0.8"/>
     <use xlink:href="#mb9a4554b22" x="556.147513" y="571.596694" style="fill: #ff7f0e; fill-opacity: 0.8; stroke: #ff7f0e; stroke-opacity: 0.8"/>
     <use xlink:href="#mb9a4554b22" x="575.28988" y="594.059504" style="fill: #ff7f0e; fill-opacity: 0.8; stroke: #ff7f0e; stroke-opacity: 0.8"/>
     <use xlink:href="#mb9a4554b22" x="594.432247" y="588.443802" style="fill: #ff7f0e; fill-opacity: 0.8; stroke: #ff7f0e; stroke-opacity: 0.8"/>
     <use xlink:href="#mb9a4554b22" x="613.574614" y="599.675207" style="fill: #ff7f0e; fill-opacity: 0.8; stroke: #ff7f0e; stroke-opacity: 0.8"/>
     <use xlink:href="#mb9a4554b22" x="632.716981" y="582.828099" style="fill: #ff7f0e; fill-opacity: 0.8; stroke: #ff7f0e; stroke-opacity: 0.8"/>
     <use xlink:href="#mb9a4554b22" x="651.859348" y="605.290909" style="fill: #ff7f0e; fill-opacity: 0.8; stroke: #ff7f0e; stroke-opacity: 0.8"/>
     <use xlink:href="#mb9a4554b22" x="671.001715" y="599.675207" style="fill: #ff7f0e; fill-opacity: 0.8; stroke: #ff7f0e; stroke-opacity: 0.8"/>
     <use xlink:href="#mb9a4554b22" x="690.144082" y="582.828099" style="fill: #ff7f0e; fill-opacity: 0.8; stroke: #ff7f0e; stroke-opacity: 0.8"/>
     <use xlink:href="#mb9a4554b22" x="709.286449" y="594.059504" style="fill: #ff7f0e; fill-opacity: 0.8; stroke: #ff7f0e; stroke-opacity: 0.8"/>
     <use xlink:href="#mb9a4554b22" x="728.428816" y="582.828099" style="fill: #ff7f0e; fill-opacity: 0.8; stroke: #ff7f0e; stroke-opacity: 0.8"/>
     <use xlink:href="#mb9a4554b22" x="747.571184" y="599.675207" style="fill: #ff7f0e; fill-opacity: 0.8; stroke: #ff7f0e; stroke-opacity: 0.8"/>
     <use xlink:href="#mb9a4554b22" x="766.713551" y="594.059504" style="fill: #ff7f0e; fill-opacity: 0.8; stroke: #ff7f0e; stroke-opacity: 0.8"/>
     <use xlink:href="#mb9a4554b22" x="785.855918" y="605.290909" style="fill: #ff7f0e; fill-opacity: 0.8; stroke: #ff7f0e; stroke-opacity: 0.8"/>
     <use xlink:href="#mb9a4554b22" x="804.998285" y="599.675207" style="fill: #ff7f0e; fill-opacity: 0.8; stroke: #ff7f0e; stroke-opacity: 0.8"/>
     <use xlink:href="#mb9a4554b22" x="824.140652" y="605.290909" style="fill: #ff7f0e; fill-opacity: 0.8; stroke: #ff7f0e; stroke-opacity: 0.8"/>
     <use xlink:href="#mb9a4554b22" x="843.283019" y="594.059504" style="fill: #ff7f0e; fill-opacity: 0.8; stroke: #ff7f0e; stroke-opacity: 0.8"/>
     <use xlink:href="#mb9a4554b22" x="862.425386" y="599.675207" style="fill: #ff7f0e; fill-opacity: 0.8; stroke: #ff7f0e; stroke-opacity: 0.8"/>
     <use xlink:href="#mb9a4554b22" x="881.567753" y="605.290909" style="fill: #ff7f0e; fill-opacity: 0.8; stroke: #ff7f0e; stroke-opacity: 0.8"/>
     <use xlink:href="#mb9a4554b22" x="900.71012" y="605.290909" style="fill: #ff7f0e; fill-opacity: 0.8; stroke: #ff7f0e; stroke-opacity: 0.8"/>
     <use xlink:href="#mb9a4554b22" x="919.852487" y="599.675207" style="fill: #ff7f0e; fill-opacity: 0.8; stroke: #ff7f0e; stroke-opacity: 0.8"/>
     <use xlink:href="#mb9a4554b22" x="938.994854" y="588.443802" style="fill: #ff7f0e; fill-opacity: 0.8; stroke: #ff7f0e; stroke-opacity: 0.8"/>
     <use xlink:href="#mb9a4554b22" x="958.137221" y="588.443802" style="fill: #ff7f0e; fill-opacity: 0.8; stroke: #ff7f0e; stroke-opacity: 0.8"/>
     <use xlink:href="#mb9a4554b22" x="977.279588" y="577.212397" style="fill: #ff7f0e; fill-opacity: 0.8; stroke: #ff7f0e; stroke-opacity: 0.8"/>
     <use xlink:href="#mb9a4554b22" x="996.421955" y="594.059504" style="fill: #ff7f0e; fill-opacity: 0.8; stroke: #ff7f0e; stroke-opacity: 0.8"/>
     <use xlink:href="#mb9a4554b22" x="1015.564322" y="588.443802" style="fill: #ff7f0e; fill-opacity: 0.8; stroke: #ff7f0e; stroke-opacity: 0.8"/>
     <use xlink:href="#mb9a4554b22" x="1034.70669" y="588.443802" style="fill: #ff7f0e; fill-opacity: 0.8; stroke: #ff7f0e; stroke-opacity: 0.8"/>
     <use xlink:href="#mb9a4554b22" x="1053.849057" y="571.596694" style="fill: #ff7f0e; fill-opacity: 0.8; stroke: #ff7f0e; stroke-opacity: 0.8"/>
     <use xlink:href="#mb9a4554b22" x="1072.991424" y="594.059504" style="fill: #ff7f0e; fill-opacity: 0.8; stroke: #ff7f0e; stroke-opacity: 0.8"/>
     <use xlink:href="#mb9a4554b22" x="1092.133791" y="599.675207" style="fill: #ff7f0e; fill-opacity: 0.8; stroke: #ff7f0e; stroke-opacity: 0.8"/>
     <use xlink:href="#mb9a4554b22" x="1111.276158" y="599.675207" style="fill: #ff7f0e; fill-opacity: 0.8; stroke: #ff7f0e; stroke-opacity: 0.8"/>
     <use xlink:href="#mb9a4554b22" x="1130.418525" y="599.675207" style="fill: #ff7f0e; fill-opacity: 0.8; stroke: #ff7f0e; stroke-opacity: 0.8"/>
     <use xlink:href="#mb9a4554b22" x="1149.560892" y="594.059504" style="fill: #ff7f0e; fill-opacity: 0.8; stroke: #ff7f0e; stroke-opacity: 0.8"/>
     <use xlink:href="#mb9a4554b22" x="1168.703259" y="594.059504" style="fill: #ff7f0e; fill-opacity: 0.8; stroke: #ff7f0e; stroke-opacity: 0.8"/>
     <use xlink:href="#mb9a4554b22" x="1187.845626" y="599.675207" style="fill: #ff7f0e; fill-opacity: 0.8; stroke: #ff7f0e; stroke-opacity: 0.8"/>
     <use xlink:href="#mb9a4554b22" x="1206.987993" y="588.443802" style="fill: #ff7f0e; fill-opacity: 0.8; stroke: #ff7f0e; stroke-opacity: 0.8"/>
     <use xlink:href="#mb9a4554b22" x="1226.13036" y="577.212397" style="fill: #ff7f0e; fill-opacity: 0.8; stroke: #ff7f0e; stroke-opacity: 0.8"/>
     <use xlink:href="#mb9a4554b22" x="1245.272727" y="582.828099" style="fill: #ff7f0e; fill-opacity: 0.8; stroke: #ff7f0e; stroke-opacity: 0.8"/>
    </g>
   </g>
   <g id="PolyCollection_2">
    <path d="M 230.727273 583.152615 
L 230.727273 593.174071 
L 240.975207 593.153374 
L 251.22314 593.132678 
L 261.471074 593.118024 
L 271.719008 593.091284 
L 281.966942 593.070588 
L 292.214876 593.037837 
L 302.46281 593.014484 
L 312.710744 592.979287 
L 322.958678 592.972509 
L 333.206612 592.946081 
L 343.454545 592.919652 
L 353.702479 592.893224 
L 363.950413 592.899064 
L 374.198347 592.886279 
L 384.446281 592.902553 
L 394.694215 592.946025 
L 404.942149 592.941832 
L 415.190083 592.951794 
L 425.438017 592.936041 
L 435.68595 592.953441 
L 445.933884 592.990164 
L 456.181818 592.997987 
L 466.429752 593.04192 
L 476.677686 593.059084 
L 486.92562 593.043837 
L 497.173554 593.085728 
L 507.421488 593.095254 
L 517.669421 593.129635 
L 527.917355 593.145527 
L 538.165289 593.18567 
L 548.413223 593.231261 
L 558.661157 593.243554 
L 568.909091 593.225562 
L 579.157025 593.206872 
L 589.404959 593.190056 
L 599.652893 593.177009 
L 609.900826 593.19978 
L 620.14876 593.221623 
L 630.396694 593.264728 
L 640.644628 593.353928 
L 650.892562 593.42406 
L 661.140496 593.442573 
L 671.38843 593.471944 
L 681.636364 593.485821 
L 691.884298 593.549747 
L 702.132231 593.581816 
L 712.380165 593.666718 
L 722.628099 593.791854 
L 732.876033 593.846384 
L 743.123967 593.87338 
L 753.371901 593.986779 
L 763.619835 594.052832 
L 773.867769 594.17287 
L 784.115702 594.238803 
L 794.363636 594.318969 
L 804.61157 594.410983 
L 814.859504 594.52492 
L 825.107438 594.654047 
L 835.355372 594.783381 
L 845.603306 594.872442 
L 855.85124 594.960842 
L 866.099174 595.049869 
L 876.347107 595.149379 
L 886.595041 595.253757 
L 896.842975 595.358015 
L 907.090909 595.503104 
L 917.338843 595.620699 
L 927.586777 595.712906 
L 937.834711 595.818424 
L 948.082645 595.958018 
L 958.330579 596.091175 
L 968.578512 596.2042 
L 978.826446 596.288143 
L 989.07438 596.405685 
L 999.322314 596.523137 
L 1009.570248 596.673065 
L 1019.818182 596.806605 
L 1030.066116 596.917266 
L 1040.31405 597.067675 
L 1050.561983 597.225265 
L 1060.809917 597.381951 
L 1071.057851 597.533082 
L 1081.305785 597.67039 
L 1091.553719 597.804816 
L 1101.801653 597.939787 
L 1112.049587 598.074599 
L 1122.297521 598.191457 
L 1132.545455 598.297387 
L 1142.793388 598.420129 
L 1153.041322 598.544901 
L 1163.289256 598.681671 
L 1173.53719 598.838023 
L 1183.785124 598.994374 
L 1194.033058 599.150656 
L 1204.280992 599.29033 
L 1214.528926 599.443977 
L 1224.77686 599.608682 
L 1235.024793 599.765679 
L 1245.272727 599.920789 
L 1245.272727 589.365459 
L 1245.272727 589.365459 
L 1235.024793 589.369803 
L 1224.77686 589.374399 
L 1214.528926 589.400116 
L 1204.280992 589.389062 
L 1194.033058 589.40105 
L 1183.785124 589.431353 
L 1173.53719 589.461655 
L 1163.289256 589.491958 
L 1153.041322 589.503121 
L 1142.793388 589.484162 
L 1132.545455 589.465771 
L 1122.297521 589.520259 
L 1112.049587 589.637482 
L 1101.801653 589.637036 
L 1091.553719 589.623709 
L 1081.305785 589.610382 
L 1071.057851 589.605913 
L 1060.809917 589.615999 
L 1050.561983 589.583468 
L 1040.31405 589.575724 
L 1030.066116 589.539291 
L 1019.818182 589.523923 
L 1009.570248 589.498382 
L 999.322314 589.513272 
L 989.07438 589.48283 
L 978.826446 589.4684 
L 968.578512 589.452974 
L 958.330579 589.438276 
L 948.082645 589.452967 
L 937.834711 589.483022 
L 927.586777 589.513389 
L 917.338843 589.515614 
L 907.090909 589.497655 
L 896.842975 589.443711 
L 886.595041 589.397115 
L 876.347107 589.381619 
L 866.099174 589.375265 
L 855.85124 589.335692 
L 845.603306 589.278831 
L 835.355372 589.186474 
L 825.107438 589.124637 
L 814.859504 589.073574 
L 804.61157 589.02251 
L 794.363636 588.971759 
L 784.115702 588.920383 
L 773.867769 588.869319 
L 763.619835 588.818389 
L 753.371901 588.767056 
L 743.123967 588.722752 
L 732.876033 588.68228 
L 722.628099 588.637344 
L 712.380165 588.592408 
L 702.132231 588.510819 
L 691.884298 588.459682 
L 681.636364 588.408462 
L 671.38843 588.35681 
L 661.140496 588.291316 
L 650.892562 588.217836 
L 640.644628 588.110704 
L 630.396694 587.996922 
L 620.14876 587.896075 
L 609.900826 587.781922 
L 599.652893 587.686948 
L 589.404959 587.590974 
L 579.157025 587.480123 
L 568.909091 587.376772 
L 558.661157 587.272655 
L 548.413223 587.158105 
L 538.165289 586.999308 
L 527.917355 586.916884 
L 517.669421 586.793992 
L 507.421488 586.669224 
L 497.173554 586.605945 
L 486.92562 586.515603 
L 476.677686 586.42827 
L 466.429752 586.330445 
L 456.181818 586.20571 
L 445.933884 586.076856 
L 435.68595 585.95351 
L 425.438017 585.805428 
L 415.190083 585.634036 
L 404.942149 585.511349 
L 394.694215 585.375267 
L 384.446281 585.215792 
L 374.198347 585.055876 
L 363.950413 584.914999 
L 353.702479 584.750027 
L 343.454545 584.629386 
L 333.206612 584.473808 
L 322.958678 584.366615 
L 312.710744 584.270494 
L 302.46281 584.134275 
L 292.214876 584.008472 
L 281.966942 583.868935 
L 271.719008 583.719524 
L 261.471074 583.573844 
L 251.22314 583.433434 
L 240.975207 583.293025 
L 230.727273 583.152615 
z
" clip-path="url(#pd1cb2b2372)" style="fill: #ff7f0e; fill-opacity: 0.15"/>
   </g>
   <g id="PathCollection_3">
    <defs>
     <path id="m50a8c1da5d" d="M 0 3 
C 0.795609 3 1.55874 2.683901 2.12132 2.12132 
C 2.683901 1.55874 3 0.795609 3 0 
C 3 -0.795609 2.683901 -1.55874 2.12132 -2.12132 
C 1.55874 -2.683901 0.795609 -3 0 -3 
C -0.795609 -3 -1.55874 -2.683901 -2.12132 -2.12132 
C -2.683901 -1.55874 -3 -0.795609 -3 0 
C -3 0.795609 -2.683901 1.55874 -2.12132 2.12132 
C -1.55874 2.683901 -0.795609 3 0 3 
z
" style="stroke: #2ca02c; stroke-opacity: 0.8"/>
    </defs>
    <g clip-path="url(#pd1cb2b2372)">
     <use xlink:href="#m50a8c1da5d" x="230.727273" y="436.819835" style="fill: #2ca02c; fill-opacity: 0.8; stroke: #2ca02c; stroke-opacity: 0.8"/>
     <use xlink:href="#m50a8c1da5d" x="249.86964" y="380.66281" style="fill: #2ca02c; fill-opacity: 0.8; stroke: #2ca02c; stroke-opacity: 0.8"/>
     <use xlink:href="#m50a8c1da5d" x="269.012007" y="442.435537" style="fill: #2ca02c; fill-opacity: 0.8; stroke: #2ca02c; stroke-opacity: 0.8"/>
     <use xlink:href="#m50a8c1da5d" x="288.154374" y="397.509917" style="fill: #2ca02c; fill-opacity: 0.8; stroke: #2ca02c; stroke-opacity: 0.8"/>
     <use xlink:href="#m50a8c1da5d" x="307.296741" y="431.204132" style="fill: #2ca02c; fill-opacity: 0.8; stroke: #2ca02c; stroke-opacity: 0.8"/>
     <use xlink:href="#m50a8c1da5d" x="326.439108" y="403.12562" style="fill: #2ca02c; fill-opacity: 0.8; stroke: #2ca02c; stroke-opacity: 0.8"/>
     <use xlink:href="#m50a8c1da5d" x="345.581475" y="453.666942" style="fill: #2ca02c; fill-opacity: 0.8; stroke: #2ca02c; stroke-opacity: 0.8"/>
     <use xlink:href="#m50a8c1da5d" x="364.723842" y="436.819835" style="fill: #2ca02c; fill-opacity: 0.8; stroke: #2ca02c; stroke-opacity: 0.8"/>
     <use xlink:href="#m50a8c1da5d" x="383.866209" y="448.05124" style="fill: #2ca02c; fill-opacity: 0.8; stroke: #2ca02c; stroke-opacity: 0.8"/>
     <use xlink:href="#m50a8c1da5d" x="403.008576" y="431.204132" style="fill: #2ca02c; fill-opacity: 0.8; stroke: #2ca02c; stroke-opacity: 0.8"/>
     <use xlink:href="#m50a8c1da5d" x="422.150943" y="419.972727" style="fill: #2ca02c; fill-opacity: 0.8; stroke: #2ca02c; stroke-opacity: 0.8"/>
     <use xlink:href="#m50a8c1da5d" x="441.29331" y="408.741322" style="fill: #2ca02c; fill-opacity: 0.8; stroke: #2ca02c; stroke-opacity: 0.8"/>
     <use xlink:href="#m50a8c1da5d" x="460.435678" y="391.894215" style="fill: #2ca02c; fill-opacity: 0.8; stroke: #2ca02c; stroke-opacity: 0.8"/>
     <use xlink:href="#m50a8c1da5d" x="479.578045" y="470.51405" style="fill: #2ca02c; fill-opacity: 0.8; stroke: #2ca02c; stroke-opacity: 0.8"/>
     <use xlink:href="#m50a8c1da5d" x="498.720412" y="414.357025" style="fill: #2ca02c; fill-opacity: 0.8; stroke: #2ca02c; stroke-opacity: 0.8"/>
     <use xlink:href="#m50a8c1da5d" x="517.862779" y="369.431405" style="fill: #2ca02c; fill-opacity: 0.8; stroke: #2ca02c; stroke-opacity: 0.8"/>
     <use xlink:href="#m50a8c1da5d" x="537.005146" y="453.666942" style="fill: #2ca02c; fill-opacity: 0.8; stroke: #2ca02c; stroke-opacity: 0.8"/>
     <use xlink:href="#m50a8c1da5d" x="556.147513" y="487.361157" style="fill: #2ca02c; fill-opacity: 0.8; stroke: #2ca02c; stroke-opacity: 0.8"/>
     <use xlink:href="#m50a8c1da5d" x="575.28988" y="419.972727" style="fill: #2ca02c; fill-opacity: 0.8; stroke: #2ca02c; stroke-opacity: 0.8"/>
     <use xlink:href="#m50a8c1da5d" x="594.432247" y="403.12562" style="fill: #2ca02c; fill-opacity: 0.8; stroke: #2ca02c; stroke-opacity: 0.8"/>
     <use xlink:href="#m50a8c1da5d" x="613.574614" y="453.666942" style="fill: #2ca02c; fill-opacity: 0.8; stroke: #2ca02c; stroke-opacity: 0.8"/>
     <use xlink:href="#m50a8c1da5d" x="632.716981" y="419.972727" style="fill: #2ca02c; fill-opacity: 0.8; stroke: #2ca02c; stroke-opacity: 0.8"/>
     <use xlink:href="#m50a8c1da5d" x="651.859348" y="419.972727" style="fill: #2ca02c; fill-opacity: 0.8; stroke: #2ca02c; stroke-opacity: 0.8"/>
     <use xlink:href="#m50a8c1da5d" x="671.001715" y="408.741322" style="fill: #2ca02c; fill-opacity: 0.8; stroke: #2ca02c; stroke-opacity: 0.8"/>
     <use xlink:href="#m50a8c1da5d" x="690.144082" y="363.815702" style="fill: #2ca02c; fill-opacity: 0.8; stroke: #2ca02c; stroke-opacity: 0.8"/>
     <use xlink:href="#m50a8c1da5d" x="709.286449" y="464.898347" style="fill: #2ca02c; fill-opacity: 0.8; stroke: #2ca02c; stroke-opacity: 0.8"/>
     <use xlink:href="#m50a8c1da5d" x="728.428816" y="436.819835" style="fill: #2ca02c; fill-opacity: 0.8; stroke: #2ca02c; stroke-opacity: 0.8"/>
     <use xlink:href="#m50a8c1da5d" x="747.571184" y="408.741322" style="fill: #2ca02c; fill-opacity: 0.8; stroke: #2ca02c; stroke-opacity: 0.8"/>
     <use xlink:href="#m50a8c1da5d" x="766.713551" y="408.741322" style="fill: #2ca02c; fill-opacity: 0.8; stroke: #2ca02c; stroke-opacity: 0.8"/>
     <use xlink:href="#m50a8c1da5d" x="785.855918" y="419.972727" style="fill: #2ca02c; fill-opacity: 0.8; stroke: #2ca02c; stroke-opacity: 0.8"/>
     <use xlink:href="#m50a8c1da5d" x="804.998285" y="453.666942" style="fill: #2ca02c; fill-opacity: 0.8; stroke: #2ca02c; stroke-opacity: 0.8"/>
     <use xlink:href="#m50a8c1da5d" x="824.140652" y="380.66281" style="fill: #2ca02c; fill-opacity: 0.8; stroke: #2ca02c; stroke-opacity: 0.8"/>
     <use xlink:href="#m50a8c1da5d" x="843.283019" y="403.12562" style="fill: #2ca02c; fill-opacity: 0.8; stroke: #2ca02c; stroke-opacity: 0.8"/>
     <use xlink:href="#m50a8c1da5d" x="862.425386" y="403.12562" style="fill: #2ca02c; fill-opacity: 0.8; stroke: #2ca02c; stroke-opacity: 0.8"/>
     <use xlink:href="#m50a8c1da5d" x="881.567753" y="397.509917" style="fill: #2ca02c; fill-opacity: 0.8; stroke: #2ca02c; stroke-opacity: 0.8"/>
     <use xlink:href="#m50a8c1da5d" x="900.71012" y="419.972727" style="fill: #2ca02c; fill-opacity: 0.8; stroke: #2ca02c; stroke-opacity: 0.8"/>
     <use xlink:href="#m50a8c1da5d" x="919.852487" y="369.431405" style="fill: #2ca02c; fill-opacity: 0.8; stroke: #2ca02c; stroke-opacity: 0.8"/>
     <use xlink:href="#m50a8c1da5d" x="938.994854" y="436.819835" style="fill: #2ca02c; fill-opacity: 0.8; stroke: #2ca02c; stroke-opacity: 0.8"/>
     <use xlink:href="#m50a8c1da5d" x="958.137221" y="391.894215" style="fill: #2ca02c; fill-opacity: 0.8; stroke: #2ca02c; stroke-opacity: 0.8"/>
     <use xlink:href="#m50a8c1da5d" x="977.279588" y="470.51405" style="fill: #2ca02c; fill-opacity: 0.8; stroke: #2ca02c; stroke-opacity: 0.8"/>
     <use xlink:href="#m50a8c1da5d" x="996.421955" y="459.282645" style="fill: #2ca02c; fill-opacity: 0.8; stroke: #2ca02c; stroke-opacity: 0.8"/>
     <use xlink:href="#m50a8c1da5d" x="1015.564322" y="464.898347" style="fill: #2ca02c; fill-opacity: 0.8; stroke: #2ca02c; stroke-opacity: 0.8"/>
     <use xlink:href="#m50a8c1da5d" x="1034.70669" y="419.972727" style="fill: #2ca02c; fill-opacity: 0.8; stroke: #2ca02c; stroke-opacity: 0.8"/>
     <use xlink:href="#m50a8c1da5d" x="1053.849057" y="459.282645" style="fill: #2ca02c; fill-opacity: 0.8; stroke: #2ca02c; stroke-opacity: 0.8"/>
     <use xlink:href="#m50a8c1da5d" x="1072.991424" y="436.819835" style="fill: #2ca02c; fill-opacity: 0.8; stroke: #2ca02c; stroke-opacity: 0.8"/>
     <use xlink:href="#m50a8c1da5d" x="1092.133791" y="448.05124" style="fill: #2ca02c; fill-opacity: 0.8; stroke: #2ca02c; stroke-opacity: 0.8"/>
     <use xlink:href="#m50a8c1da5d" x="1111.276158" y="391.894215" style="fill: #2ca02c; fill-opacity: 0.8; stroke: #2ca02c; stroke-opacity: 0.8"/>
     <use xlink:href="#m50a8c1da5d" x="1130.418525" y="414.357025" style="fill: #2ca02c; fill-opacity: 0.8; stroke: #2ca02c; stroke-opacity: 0.8"/>
     <use xlink:href="#m50a8c1da5d" x="1149.560892" y="464.898347" style="fill: #2ca02c; fill-opacity: 0.8; stroke: #2ca02c; stroke-opacity: 0.8"/>
     <use xlink:href="#m50a8c1da5d" x="1168.703259" y="453.666942" style="fill: #2ca02c; fill-opacity: 0.8; stroke: #2ca02c; stroke-opacity: 0.8"/>
     <use xlink:href="#m50a8c1da5d" x="1187.845626" y="436.819835" style="fill: #2ca02c; fill-opacity: 0.8; stroke: #2ca02c; stroke-opacity: 0.8"/>
     <use xlink:href="#m50a8c1da5d" x="1206.987993" y="431.204132" style="fill: #2ca02c; fill-opacity: 0.8; stroke: #2ca02c; stroke-opacity: 0.8"/>
     <use xlink:href="#m50a8c1da5d" x="1226.13036" y="464.898347" style="fill: #2ca02c; fill-opacity: 0.8; stroke: #2ca02c; stroke-opacity: 0.8"/>
     <use xlink:href="#m50a8c1da5d" x="1245.272727" y="414.357025" style="fill: #2ca02c; fill-opacity: 0.8; stroke: #2ca02c; stroke-opacity: 0.8"/>
    </g>
   </g>
   <g id="PolyCollection_3">
    <path d="M 230.727273 405.08982 
L 230.727273 433.038275 
L 240.975207 432.956771 
L 251.22314 432.874547 
L 261.471074 432.793697 
L 271.719008 432.746049 
L 281.966942 432.675636 
L 292.214876 432.547412 
L 302.46281 432.464763 
L 312.710744 432.396965 
L 322.958678 432.487432 
L 333.206612 432.545279 
L 343.454545 432.564417 
L 353.702479 432.528862 
L 363.950413 432.450578 
L 374.198347 432.262057 
L 384.446281 432.261754 
L 394.694215 432.220262 
L 404.942149 432.092221 
L 415.190083 431.967561 
L 425.438017 432.007702 
L 435.68595 432.053845 
L 445.933884 431.982998 
L 456.181818 431.869281 
L 466.429752 431.843567 
L 476.677686 431.821588 
L 486.92562 431.795782 
L 497.173554 431.769719 
L 507.421488 431.696177 
L 517.669421 431.603287 
L 527.917355 431.581133 
L 538.165289 431.533437 
L 548.413223 431.629018 
L 558.661157 431.604522 
L 568.909091 431.664481 
L 579.157025 431.67977 
L 589.404959 431.716578 
L 599.652893 431.760892 
L 609.900826 431.827609 
L 620.14876 431.927744 
L 630.396694 431.959332 
L 640.644628 432.085535 
L 650.892562 432.166901 
L 661.140496 432.301518 
L 671.38843 432.37116 
L 681.636364 432.361725 
L 691.884298 432.508351 
L 702.132231 432.63832 
L 712.380165 432.711777 
L 722.628099 432.938982 
L 732.876033 433.193547 
L 743.123967 433.368412 
L 753.371901 433.412274 
L 763.619835 433.457968 
L 773.867769 433.739523 
L 784.115702 433.850527 
L 794.363636 434.08402 
L 804.61157 434.289017 
L 814.859504 434.449516 
L 825.107438 434.603158 
L 835.355372 434.927096 
L 845.603306 435.182179 
L 855.85124 435.330086 
L 866.099174 435.589308 
L 876.347107 435.832413 
L 886.595041 436.014959 
L 896.842975 436.209457 
L 907.090909 436.397528 
L 917.338843 436.777005 
L 927.586777 437.005893 
L 937.834711 437.232382 
L 948.082645 437.458016 
L 958.330579 437.735989 
L 968.578512 438.048595 
L 978.826446 438.286992 
L 989.07438 438.495806 
L 999.322314 438.824189 
L 1009.570248 439.119438 
L 1019.818182 439.364723 
L 1030.066116 439.685042 
L 1040.31405 439.838601 
L 1050.561983 440.121808 
L 1060.809917 440.337994 
L 1071.057851 440.520103 
L 1081.305785 440.881387 
L 1091.553719 441.161195 
L 1101.801653 441.403468 
L 1112.049587 441.649405 
L 1122.297521 441.940132 
L 1132.545455 442.31127 
L 1142.793388 442.682409 
L 1153.041322 443.053024 
L 1163.289256 443.361942 
L 1173.53719 443.646167 
L 1183.785124 443.928263 
L 1194.033058 444.209158 
L 1204.280992 444.443933 
L 1214.528926 444.802999 
L 1224.77686 445.156449 
L 1235.024793 445.386924 
L 1245.272727 445.624235 
L 1245.272727 417.210884 
L 1245.272727 417.210884 
L 1235.024793 417.413772 
L 1224.77686 417.561798 
L 1214.528926 417.621099 
L 1204.280992 417.68372 
L 1194.033058 417.858212 
L 1183.785124 418.075515 
L 1173.53719 418.018705 
L 1163.289256 417.950334 
L 1153.041322 417.975148 
L 1142.793388 418.032936 
L 1132.545455 418.033571 
L 1122.297521 418.075626 
L 1112.049587 418.191522 
L 1101.801653 418.269039 
L 1091.553719 418.424154 
L 1081.305785 418.513908 
L 1071.057851 418.450357 
L 1060.809917 418.503553 
L 1050.561983 418.561247 
L 1040.31405 418.622131 
L 1030.066116 418.755314 
L 1019.818182 418.887743 
L 1009.570248 419.01978 
L 999.322314 418.997473 
L 989.07438 419.067032 
L 978.826446 419.144116 
L 968.578512 419.2212 
L 958.330579 419.298285 
L 948.082645 419.379824 
L 937.834711 419.382905 
L 927.586777 419.263839 
L 917.338843 419.318948 
L 907.090909 419.37752 
L 896.842975 419.324565 
L 886.595041 419.372437 
L 876.347107 419.348096 
L 866.099174 419.372839 
L 855.85124 419.265899 
L 845.603306 419.148164 
L 835.355372 419.098899 
L 825.107438 419.0635 
L 814.859504 419.090709 
L 804.61157 419.026725 
L 794.363636 418.900271 
L 784.115702 418.677555 
L 773.867769 418.59287 
L 763.619835 418.342689 
L 753.371901 418.074289 
L 743.123967 417.877516 
L 732.876033 417.939592 
L 722.628099 417.664065 
L 712.380165 417.38978 
L 702.132231 417.129279 
L 691.884298 417.000383 
L 681.636364 416.875325 
L 671.38843 416.802983 
L 661.140496 416.734369 
L 650.892562 416.549163 
L 640.644628 416.378831 
L 630.396694 416.252413 
L 620.14876 416.125713 
L 609.900826 415.937344 
L 599.652893 415.615774 
L 589.404959 415.427021 
L 579.157025 415.15244 
L 568.909091 414.861816 
L 558.661157 414.615117 
L 548.413223 414.286653 
L 538.165289 413.992788 
L 527.917355 413.675445 
L 517.669421 413.438065 
L 507.421488 413.186678 
L 497.173554 412.920485 
L 486.92562 412.635499 
L 476.677686 412.316439 
L 466.429752 411.96268 
L 456.181818 411.673368 
L 445.933884 411.365703 
L 435.68595 411.026095 
L 425.438017 410.803957 
L 415.190083 410.514452 
L 404.942149 410.198354 
L 394.694215 409.919965 
L 384.446281 409.645538 
L 374.198347 409.355483 
L 363.950413 409.062241 
L 353.702479 408.776202 
L 343.454545 408.484617 
L 333.206612 408.110163 
L 322.958678 407.725132 
L 312.710744 407.462654 
L 302.46281 407.26613 
L 292.214876 407.013043 
L 281.966942 406.736926 
L 271.719008 406.456076 
L 261.471074 406.137483 
L 251.22314 405.819284 
L 240.975207 405.440832 
L 230.727273 405.08982 
z
" clip-path="url(#pd1cb2b2372)" style="fill: #2ca02c; fill-opacity: 0.15"/>
   </g>
   <g id="matplotlib.axis_1">
    <g id="xtick_1">
     <g id="line2d_1">
      <defs>
       <path id="mf2258feb4f" d="M 0 0 
L 0 3.5 
" style="stroke: #000000; stroke-width: 0.8"/>
      </defs>
      <g>
       <use xlink:href="#mf2258feb4f" x="211.584906" y="630" style="stroke: #000000; stroke-width: 0.8"/>
      </g>
     </g>
     <g id="text_1">
      <!-- 0 -->
      <g transform="translate(208.403656 644.598438)scale(0.1 -0.1)">
       <defs>
        <path id="DejaVuSans-30" d="M 2034 4250 
Q 1547 4250 1301 3770 
Q 1056 3291 1056 2328 
Q 1056 1369 1301 889 
Q 1547 409 2034 409 
Q 2525 409 2770 889 
Q 3016 1369 3016 2328 
Q 3016 3291 2770 3770 
Q 2525 4250 2034 4250 
z
M 2034 4750 
Q 2819 4750 3233 4129 
Q 3647 3509 3647 2328 
Q 3647 1150 3233 529 
Q 2819 -91 2034 -91 
Q 1250 -91 836 529 
Q 422 1150 422 2328 
Q 422 3509 836 4129 
Q 1250 4750 2034 4750 
z
" transform="scale(0.015625)"/>
       </defs>
       <use xlink:href="#DejaVuSans-30"/>
      </g>
     </g>
    </g>
    <g id="xtick_2">
     <g id="line2d_2">
      <g>
       <use xlink:href="#mf2258feb4f" x="556.147513" y="630" style="stroke: #000000; stroke-width: 0.8"/>
      </g>
     </g>
     <g id="text_2">
      <!-- 18 -->
      <g transform="translate(549.785013 644.598438)scale(0.1 -0.1)">
       <defs>
        <path id="DejaVuSans-31" d="M 794 531 
L 1825 531 
L 1825 4091 
L 703 3866 
L 703 4441 
L 1819 4666 
L 2450 4666 
L 2450 531 
L 3481 531 
L 3481 0 
L 794 0 
L 794 531 
z
" transform="scale(0.015625)"/>
        <path id="DejaVuSans-38" d="M 2034 2216 
Q 1584 2216 1326 1975 
Q 1069 1734 1069 1313 
Q 1069 891 1326 650 
Q 1584 409 2034 409 
Q 2484 409 2743 651 
Q 3003 894 3003 1313 
Q 3003 1734 2745 1975 
Q 2488 2216 2034 2216 
z
M 1403 2484 
Q 997 2584 770 2862 
Q 544 3141 544 3541 
Q 544 4100 942 4425 
Q 1341 4750 2034 4750 
Q 2731 4750 3128 4425 
Q 3525 4100 3525 3541 
Q 3525 3141 3298 2862 
Q 3072 2584 2669 2484 
Q 3125 2378 3379 2068 
Q 3634 1759 3634 1313 
Q 3634 634 3220 271 
Q 2806 -91 2034 -91 
Q 1263 -91 848 271 
Q 434 634 434 1313 
Q 434 1759 690 2068 
Q 947 2378 1403 2484 
z
M 1172 3481 
Q 1172 3119 1398 2916 
Q 1625 2713 2034 2713 
Q 2441 2713 2670 2916 
Q 2900 3119 2900 3481 
Q 2900 3844 2670 4047 
Q 2441 4250 2034 4250 
Q 1625 4250 1398 4047 
Q 1172 3844 1172 3481 
z
" transform="scale(0.015625)"/>
       </defs>
       <use xlink:href="#DejaVuSans-31"/>
       <use xlink:href="#DejaVuSans-38" x="63.623047"/>
      </g>
     </g>
    </g>
    <g id="xtick_3">
     <g id="line2d_3">
      <g>
       <use xlink:href="#mf2258feb4f" x="900.71012" y="630" style="stroke: #000000; stroke-width: 0.8"/>
      </g>
     </g>
     <g id="text_3">
      <!-- 36 -->
      <g transform="translate(894.34762 644.598438)scale(0.1 -0.1)">
       <defs>
        <path id="DejaVuSans-33" d="M 2597 2516 
Q 3050 2419 3304 2112 
Q 3559 1806 3559 1356 
Q 3559 666 3084 287 
Q 2609 -91 1734 -91 
Q 1441 -91 1130 -33 
Q 819 25 488 141 
L 488 750 
Q 750 597 1062 519 
Q 1375 441 1716 441 
Q 2309 441 2620 675 
Q 2931 909 2931 1356 
Q 2931 1769 2642 2001 
Q 2353 2234 1838 2234 
L 1294 2234 
L 1294 2753 
L 1863 2753 
Q 2328 2753 2575 2939 
Q 2822 3125 2822 3475 
Q 2822 3834 2567 4026 
Q 2313 4219 1838 4219 
Q 1578 4219 1281 4162 
Q 984 4106 628 3988 
L 628 4550 
Q 988 4650 1302 4700 
Q 1616 4750 1894 4750 
Q 2613 4750 3031 4423 
Q 3450 4097 3450 3541 
Q 3450 3153 3228 2886 
Q 3006 2619 2597 2516 
z
" transform="scale(0.015625)"/>
        <path id="DejaVuSans-36" d="M 2113 2584 
Q 1688 2584 1439 2293 
Q 1191 2003 1191 1497 
Q 1191 994 1439 701 
Q 1688 409 2113 409 
Q 2538 409 2786 701 
Q 3034 994 3034 1497 
Q 3034 2003 2786 2293 
Q 2538 2584 2113 2584 
z
M 3366 4563 
L 3366 3988 
Q 3128 4100 2886 4159 
Q 2644 4219 2406 4219 
Q 1781 4219 1451 3797 
Q 1122 3375 1075 2522 
Q 1259 2794 1537 2939 
Q 1816 3084 2150 3084 
Q 2853 3084 3261 2657 
Q 3669 2231 3669 1497 
Q 3669 778 3244 343 
Q 2819 -91 2113 -91 
Q 1303 -91 875 529 
Q 447 1150 447 2328 
Q 447 3434 972 4092 
Q 1497 4750 2381 4750 
Q 2619 4750 2861 4703 
Q 3103 4656 3366 4563 
z
" transform="scale(0.015625)"/>
       </defs>
       <use xlink:href="#DejaVuSans-33"/>
       <use xlink:href="#DejaVuSans-36" x="63.623047"/>
      </g>
     </g>
    </g>
    <g id="xtick_4">
     <g id="line2d_4">
      <g>
       <use xlink:href="#mf2258feb4f" x="1245.272727" y="630" style="stroke: #000000; stroke-width: 0.8"/>
      </g>
     </g>
     <g id="text_4">
      <!-- 54 -->
      <g transform="translate(1238.910227 644.598438)scale(0.1 -0.1)">
       <defs>
        <path id="DejaVuSans-35" d="M 691 4666 
L 3169 4666 
L 3169 4134 
L 1269 4134 
L 1269 2991 
Q 1406 3038 1543 3061 
Q 1681 3084 1819 3084 
Q 2600 3084 3056 2656 
Q 3513 2228 3513 1497 
Q 3513 744 3044 326 
Q 2575 -91 1722 -91 
Q 1428 -91 1123 -41 
Q 819 9 494 109 
L 494 744 
Q 775 591 1075 516 
Q 1375 441 1709 441 
Q 2250 441 2565 725 
Q 2881 1009 2881 1497 
Q 2881 1984 2565 2268 
Q 2250 2553 1709 2553 
Q 1456 2553 1204 2497 
Q 953 2441 691 2322 
L 691 4666 
z
" transform="scale(0.015625)"/>
        <path id="DejaVuSans-34" d="M 2419 4116 
L 825 1625 
L 2419 1625 
L 2419 4116 
z
M 2253 4666 
L 3047 4666 
L 3047 1625 
L 3713 1625 
L 3713 1100 
L 3047 1100 
L 3047 0 
L 2419 0 
L 2419 1100 
L 313 1100 
L 313 1709 
L 2253 4666 
z
" transform="scale(0.015625)"/>
       </defs>
       <use xlink:href="#DejaVuSans-35"/>
       <use xlink:href="#DejaVuSans-34" x="63.623047"/>
      </g>
     </g>
    </g>
    <g id="text_5">
     <!-- Task Index -->
     <g transform="translate(711.851562 658.276562)scale(0.1 -0.1)">
      <defs>
       <path id="DejaVuSans-54" d="M -19 4666 
L 3928 4666 
L 3928 4134 
L 2272 4134 
L 2272 0 
L 1638 0 
L 1638 4134 
L -19 4134 
L -19 4666 
z
" transform="scale(0.015625)"/>
       <path id="DejaVuSans-61" d="M 2194 1759 
Q 1497 1759 1228 1600 
Q 959 1441 959 1056 
Q 959 750 1161 570 
Q 1363 391 1709 391 
Q 2188 391 2477 730 
Q 2766 1069 2766 1631 
L 2766 1759 
L 2194 1759 
z
M 3341 1997 
L 3341 0 
L 2766 0 
L 2766 531 
Q 2569 213 2275 61 
Q 1981 -91 1556 -91 
Q 1019 -91 701 211 
Q 384 513 384 1019 
Q 384 1609 779 1909 
Q 1175 2209 1959 2209 
L 2766 2209 
L 2766 2266 
Q 2766 2663 2505 2880 
Q 2244 3097 1772 3097 
Q 1472 3097 1187 3025 
Q 903 2953 641 2809 
L 641 3341 
Q 956 3463 1253 3523 
Q 1550 3584 1831 3584 
Q 2591 3584 2966 3190 
Q 3341 2797 3341 1997 
z
" transform="scale(0.015625)"/>
       <path id="DejaVuSans-73" d="M 2834 3397 
L 2834 2853 
Q 2591 2978 2328 3040 
Q 2066 3103 1784 3103 
Q 1356 3103 1142 2972 
Q 928 2841 928 2578 
Q 928 2378 1081 2264 
Q 1234 2150 1697 2047 
L 1894 2003 
Q 2506 1872 2764 1633 
Q 3022 1394 3022 966 
Q 3022 478 2636 193 
Q 2250 -91 1575 -91 
Q 1294 -91 989 -36 
Q 684 19 347 128 
L 347 722 
Q 666 556 975 473 
Q 1284 391 1588 391 
Q 1994 391 2212 530 
Q 2431 669 2431 922 
Q 2431 1156 2273 1281 
Q 2116 1406 1581 1522 
L 1381 1569 
Q 847 1681 609 1914 
Q 372 2147 372 2553 
Q 372 3047 722 3315 
Q 1072 3584 1716 3584 
Q 2034 3584 2315 3537 
Q 2597 3491 2834 3397 
z
" transform="scale(0.015625)"/>
       <path id="DejaVuSans-6b" d="M 581 4863 
L 1159 4863 
L 1159 1991 
L 2875 3500 
L 3609 3500 
L 1753 1863 
L 3688 0 
L 2938 0 
L 1159 1709 
L 1159 0 
L 581 0 
L 581 4863 
z
" transform="scale(0.015625)"/>
       <path id="DejaVuSans-20" transform="scale(0.015625)"/>
       <path id="DejaVuSans-49" d="M 628 4666 
L 1259 4666 
L 1259 0 
L 628 0 
L 628 4666 
z
" transform="scale(0.015625)"/>
       <path id="DejaVuSans-6e" d="M 3513 2113 
L 3513 0 
L 2938 0 
L 2938 2094 
Q 2938 2591 2744 2837 
Q 2550 3084 2163 3084 
Q 1697 3084 1428 2787 
Q 1159 2491 1159 1978 
L 1159 0 
L 581 0 
L 581 3500 
L 1159 3500 
L 1159 2956 
Q 1366 3272 1645 3428 
Q 1925 3584 2291 3584 
Q 2894 3584 3203 3211 
Q 3513 2838 3513 2113 
z
" transform="scale(0.015625)"/>
       <path id="DejaVuSans-64" d="M 2906 2969 
L 2906 4863 
L 3481 4863 
L 3481 0 
L 2906 0 
L 2906 525 
Q 2725 213 2448 61 
Q 2172 -91 1784 -91 
Q 1150 -91 751 415 
Q 353 922 353 1747 
Q 353 2572 751 3078 
Q 1150 3584 1784 3584 
Q 2172 3584 2448 3432 
Q 2725 3281 2906 2969 
z
M 947 1747 
Q 947 1113 1208 752 
Q 1469 391 1925 391 
Q 2381 391 2643 752 
Q 2906 1113 2906 1747 
Q 2906 2381 2643 2742 
Q 2381 3103 1925 3103 
Q 1469 3103 1208 2742 
Q 947 2381 947 1747 
z
" transform="scale(0.015625)"/>
       <path id="DejaVuSans-65" d="M 3597 1894 
L 3597 1613 
L 953 1613 
Q 991 1019 1311 708 
Q 1631 397 2203 397 
Q 2534 397 2845 478 
Q 3156 559 3463 722 
L 3463 178 
Q 3153 47 2828 -22 
Q 2503 -91 2169 -91 
Q 1331 -91 842 396 
Q 353 884 353 1716 
Q 353 2575 817 3079 
Q 1281 3584 2069 3584 
Q 2775 3584 3186 3129 
Q 3597 2675 3597 1894 
z
M 3022 2063 
Q 3016 2534 2758 2815 
Q 2500 3097 2075 3097 
Q 1594 3097 1305 2825 
Q 1016 2553 972 2059 
L 3022 2063 
z
" transform="scale(0.015625)"/>
       <path id="DejaVuSans-78" d="M 3513 3500 
L 2247 1797 
L 3578 0 
L 2900 0 
L 1881 1375 
L 863 0 
L 184 0 
L 1544 1831 
L 300 3500 
L 978 3500 
L 1906 2253 
L 2834 3500 
L 3513 3500 
z
" transform="scale(0.015625)"/>
      </defs>
      <use xlink:href="#DejaVuSans-54"/>
      <use xlink:href="#DejaVuSans-61" x="44.583984"/>
      <use xlink:href="#DejaVuSans-73" x="105.863281"/>
      <use xlink:href="#DejaVuSans-6b" x="157.962891"/>
      <use xlink:href="#DejaVuSans-20" x="215.873047"/>
      <use xlink:href="#DejaVuSans-49" x="247.660156"/>
      <use xlink:href="#DejaVuSans-6e" x="277.152344"/>
      <use xlink:href="#DejaVuSans-64" x="340.53125"/>
      <use xlink:href="#DejaVuSans-65" x="404.007812"/>
      <use xlink:href="#DejaVuSans-78" x="463.78125"/>
     </g>
    </g>
   </g>
   <g id="matplotlib.axis_2">
    <g id="ytick_1">
     <g id="line2d_5">
      <defs>
       <path id="m96c21e79b6" d="M 0 0 
L -3.5 0 
" style="stroke: #000000; stroke-width: 0.8"/>
      </defs>
      <g>
       <use xlink:href="#m96c21e79b6" x="180" y="605.290909" style="stroke: #000000; stroke-width: 0.8"/>
      </g>
     </g>
     <g id="text_6">
      <!-- 0.0 -->
      <g transform="translate(157.096875 609.090128)scale(0.1 -0.1)">
       <defs>
        <path id="DejaVuSans-2e" d="M 684 794 
L 1344 794 
L 1344 0 
L 684 0 
L 684 794 
z
" transform="scale(0.015625)"/>
       </defs>
       <use xlink:href="#DejaVuSans-30"/>
       <use xlink:href="#DejaVuSans-2e" x="63.623047"/>
       <use xlink:href="#DejaVuSans-30" x="95.410156"/>
      </g>
     </g>
    </g>
    <g id="ytick_2">
     <g id="line2d_6">
      <g>
       <use xlink:href="#m96c21e79b6" x="180" y="540.710331" style="stroke: #000000; stroke-width: 0.8"/>
      </g>
     </g>
     <g id="text_7">
      <!-- 0.1 -->
      <g transform="translate(157.096875 544.509549)scale(0.1 -0.1)">
       <use xlink:href="#DejaVuSans-30"/>
       <use xlink:href="#DejaVuSans-2e" x="63.623047"/>
       <use xlink:href="#DejaVuSans-31" x="95.410156"/>
      </g>
     </g>
    </g>
    <g id="ytick_3">
     <g id="line2d_7">
      <g>
       <use xlink:href="#m96c21e79b6" x="180" y="476.129752" style="stroke: #000000; stroke-width: 0.8"/>
      </g>
     </g>
     <g id="text_8">
      <!-- 0.2 -->
      <g transform="translate(157.096875 479.928971)scale(0.1 -0.1)">
       <defs>
        <path id="DejaVuSans-32" d="M 1228 531 
L 3431 531 
L 3431 0 
L 469 0 
L 469 531 
Q 828 903 1448 1529 
Q 2069 2156 2228 2338 
Q 2531 2678 2651 2914 
Q 2772 3150 2772 3378 
Q 2772 3750 2511 3984 
Q 2250 4219 1831 4219 
Q 1534 4219 1204 4116 
Q 875 4013 500 3803 
L 500 4441 
Q 881 4594 1212 4672 
Q 1544 4750 1819 4750 
Q 2544 4750 2975 4387 
Q 3406 4025 3406 3419 
Q 3406 3131 3298 2873 
Q 3191 2616 2906 2266 
Q 2828 2175 2409 1742 
Q 1991 1309 1228 531 
z
" transform="scale(0.015625)"/>
       </defs>
       <use xlink:href="#DejaVuSans-30"/>
       <use xlink:href="#DejaVuSans-2e" x="63.623047"/>
       <use xlink:href="#DejaVuSans-32" x="95.410156"/>
      </g>
     </g>
    </g>
    <g id="ytick_4">
     <g id="line2d_8">
      <g>
       <use xlink:href="#m96c21e79b6" x="180" y="411.549174" style="stroke: #000000; stroke-width: 0.8"/>
      </g>
     </g>
     <g id="text_9">
      <!-- 0.3 -->
      <g transform="translate(157.096875 415.348392)scale(0.1 -0.1)">
       <use xlink:href="#DejaVuSans-30"/>
       <use xlink:href="#DejaVuSans-2e" x="63.623047"/>
       <use xlink:href="#DejaVuSans-33" x="95.410156"/>
      </g>
     </g>
    </g>
    <g id="ytick_5">
     <g id="line2d_9">
      <g>
       <use xlink:href="#m96c21e79b6" x="180" y="346.968595" style="stroke: #000000; stroke-width: 0.8"/>
      </g>
     </g>
     <g id="text_10">
      <!-- 0.4 -->
      <g transform="translate(157.096875 350.767814)scale(0.1 -0.1)">
       <use xlink:href="#DejaVuSans-30"/>
       <use xlink:href="#DejaVuSans-2e" x="63.623047"/>
       <use xlink:href="#DejaVuSans-34" x="95.410156"/>
      </g>
     </g>
    </g>
    <g id="ytick_6">
     <g id="line2d_10">
      <g>
       <use xlink:href="#m96c21e79b6" x="180" y="282.388017" style="stroke: #000000; stroke-width: 0.8"/>
      </g>
     </g>
     <g id="text_11">
      <!-- 0.5 -->
      <g transform="translate(157.096875 286.187235)scale(0.1 -0.1)">
       <use xlink:href="#DejaVuSans-30"/>
       <use xlink:href="#DejaVuSans-2e" x="63.623047"/>
       <use xlink:href="#DejaVuSans-35" x="95.410156"/>
      </g>
     </g>
    </g>
    <g id="ytick_7">
     <g id="line2d_11">
      <g>
       <use xlink:href="#m96c21e79b6" x="180" y="217.807438" style="stroke: #000000; stroke-width: 0.8"/>
      </g>
     </g>
     <g id="text_12">
      <!-- 0.6 -->
      <g transform="translate(157.096875 221.606657)scale(0.1 -0.1)">
       <use xlink:href="#DejaVuSans-30"/>
       <use xlink:href="#DejaVuSans-2e" x="63.623047"/>
       <use xlink:href="#DejaVuSans-36" x="95.410156"/>
      </g>
     </g>
    </g>
    <g id="ytick_8">
     <g id="line2d_12">
      <g>
       <use xlink:href="#m96c21e79b6" x="180" y="153.22686" style="stroke: #000000; stroke-width: 0.8"/>
      </g>
     </g>
     <g id="text_13">
      <!-- 0.7 -->
      <g transform="translate(157.096875 157.026078)scale(0.1 -0.1)">
       <defs>
        <path id="DejaVuSans-37" d="M 525 4666 
L 3525 4666 
L 3525 4397 
L 1831 0 
L 1172 0 
L 2766 4134 
L 525 4134 
L 525 4666 
z
" transform="scale(0.015625)"/>
       </defs>
       <use xlink:href="#DejaVuSans-30"/>
       <use xlink:href="#DejaVuSans-2e" x="63.623047"/>
       <use xlink:href="#DejaVuSans-37" x="95.410156"/>
      </g>
     </g>
    </g>
    <g id="ytick_9">
     <g id="line2d_13">
      <g>
       <use xlink:href="#m96c21e79b6" x="180" y="88.646281" style="stroke: #000000; stroke-width: 0.8"/>
      </g>
     </g>
     <g id="text_14">
      <!-- 0.8 -->
      <g transform="translate(157.096875 92.4455)scale(0.1 -0.1)">
       <use xlink:href="#DejaVuSans-30"/>
       <use xlink:href="#DejaVuSans-2e" x="63.623047"/>
       <use xlink:href="#DejaVuSans-38" x="95.410156"/>
      </g>
     </g>
    </g>
    <g id="text_15">
     <!-- Rate (%) -->
     <g transform="translate(151.017188 379.903906)rotate(-90)scale(0.1 -0.1)">
      <defs>
       <path id="DejaVuSans-52" d="M 2841 2188 
Q 3044 2119 3236 1894 
Q 3428 1669 3622 1275 
L 4263 0 
L 3584 0 
L 2988 1197 
Q 2756 1666 2539 1819 
Q 2322 1972 1947 1972 
L 1259 1972 
L 1259 0 
L 628 0 
L 628 4666 
L 2053 4666 
Q 2853 4666 3247 4331 
Q 3641 3997 3641 3322 
Q 3641 2881 3436 2590 
Q 3231 2300 2841 2188 
z
M 1259 4147 
L 1259 2491 
L 2053 2491 
Q 2509 2491 2742 2702 
Q 2975 2913 2975 3322 
Q 2975 3731 2742 3939 
Q 2509 4147 2053 4147 
L 1259 4147 
z
" transform="scale(0.015625)"/>
       <path id="DejaVuSans-74" d="M 1172 4494 
L 1172 3500 
L 2356 3500 
L 2356 3053 
L 1172 3053 
L 1172 1153 
Q 1172 725 1289 603 
Q 1406 481 1766 481 
L 2356 481 
L 2356 0 
L 1766 0 
Q 1100 0 847 248 
Q 594 497 594 1153 
L 594 3053 
L 172 3053 
L 172 3500 
L 594 3500 
L 594 4494 
L 1172 4494 
z
" transform="scale(0.015625)"/>
       <path id="DejaVuSans-28" d="M 1984 4856 
Q 1566 4138 1362 3434 
Q 1159 2731 1159 2009 
Q 1159 1288 1364 580 
Q 1569 -128 1984 -844 
L 1484 -844 
Q 1016 -109 783 600 
Q 550 1309 550 2009 
Q 550 2706 781 3412 
Q 1013 4119 1484 4856 
L 1984 4856 
z
" transform="scale(0.015625)"/>
       <path id="DejaVuSans-25" d="M 4653 2053 
Q 4381 2053 4226 1822 
Q 4072 1591 4072 1178 
Q 4072 772 4226 539 
Q 4381 306 4653 306 
Q 4919 306 5073 539 
Q 5228 772 5228 1178 
Q 5228 1588 5073 1820 
Q 4919 2053 4653 2053 
z
M 4653 2450 
Q 5147 2450 5437 2106 
Q 5728 1763 5728 1178 
Q 5728 594 5436 251 
Q 5144 -91 4653 -91 
Q 4153 -91 3862 251 
Q 3572 594 3572 1178 
Q 3572 1766 3864 2108 
Q 4156 2450 4653 2450 
z
M 1428 4353 
Q 1159 4353 1004 4120 
Q 850 3888 850 3481 
Q 850 3069 1003 2837 
Q 1156 2606 1428 2606 
Q 1700 2606 1854 2837 
Q 2009 3069 2009 3481 
Q 2009 3884 1853 4118 
Q 1697 4353 1428 4353 
z
M 4250 4750 
L 4750 4750 
L 1831 -91 
L 1331 -91 
L 4250 4750 
z
M 1428 4750 
Q 1922 4750 2215 4408 
Q 2509 4066 2509 3481 
Q 2509 2891 2217 2550 
Q 1925 2209 1428 2209 
Q 931 2209 642 2551 
Q 353 2894 353 3481 
Q 353 4063 643 4406 
Q 934 4750 1428 4750 
z
" transform="scale(0.015625)"/>
       <path id="DejaVuSans-29" d="M 513 4856 
L 1013 4856 
Q 1481 4119 1714 3412 
Q 1947 2706 1947 2009 
Q 1947 1309 1714 600 
Q 1481 -109 1013 -844 
L 513 -844 
Q 928 -128 1133 580 
Q 1338 1288 1338 2009 
Q 1338 2731 1133 3434 
Q 928 4138 513 4856 
z
" transform="scale(0.015625)"/>
      </defs>
      <use xlink:href="#DejaVuSans-52"/>
      <use xlink:href="#DejaVuSans-61" x="67.232422"/>
      <use xlink:href="#DejaVuSans-74" x="128.511719"/>
      <use xlink:href="#DejaVuSans-65" x="167.720703"/>
      <use xlink:href="#DejaVuSans-20" x="229.244141"/>
      <use xlink:href="#DejaVuSans-28" x="261.03125"/>
      <use xlink:href="#DejaVuSans-25" x="300.044922"/>
      <use xlink:href="#DejaVuSans-29" x="395.064453"/>
     </g>
    </g>
   </g>
   <g id="line2d_14">
    <path d="M 230.727273 163.405084 
L 240.975207 163.195261 
L 251.22314 162.985439 
L 261.471074 162.775616 
L 271.719008 162.565794 
L 281.966942 162.355971 
L 292.214876 162.146149 
L 302.46281 161.936326 
L 312.710744 161.726504 
L 322.958678 161.516681 
L 333.206612 161.306859 
L 343.454545 161.097036 
L 353.702479 160.887214 
L 363.950413 160.677391 
L 374.198347 160.467569 
L 384.446281 160.257747 
L 394.694215 160.047924 
L 404.942149 159.838102 
L 415.190083 159.628279 
L 425.438017 159.418457 
L 435.68595 159.208634 
L 445.933884 158.998812 
L 456.181818 158.788989 
L 466.429752 158.579167 
L 476.677686 158.369344 
L 486.92562 158.159522 
L 497.173554 157.949699 
L 507.421488 157.739877 
L 517.669421 157.530054 
L 527.917355 157.320232 
L 538.165289 157.110409 
L 548.413223 156.900587 
L 558.661157 156.690764 
L 568.909091 156.480942 
L 579.157025 156.271119 
L 589.404959 156.061297 
L 599.652893 155.851474 
L 609.900826 155.641652 
L 620.14876 155.431829 
L 630.396694 155.222007 
L 640.644628 155.012184 
L 650.892562 154.802362 
L 661.140496 154.592539 
L 671.38843 154.382717 
L 681.636364 154.172894 
L 691.884298 153.963072 
L 702.132231 153.753249 
L 712.380165 153.543427 
L 722.628099 153.333604 
L 732.876033 153.123782 
L 743.123967 152.913959 
L 753.371901 152.704137 
L 763.619835 152.494314 
L 773.867769 152.284492 
L 784.115702 152.074669 
L 794.363636 151.864847 
L 804.61157 151.655024 
L 814.859504 151.445202 
L 825.107438 151.235379 
L 835.355372 151.025557 
L 845.603306 150.815734 
L 855.85124 150.605912 
L 866.099174 150.396089 
L 876.347107 150.186267 
L 886.595041 149.976444 
L 896.842975 149.766622 
L 907.090909 149.556799 
L 917.338843 149.346977 
L 927.586777 149.137154 
L 937.834711 148.927332 
L 948.082645 148.717509 
L 958.330579 148.507687 
L 968.578512 148.297864 
L 978.826446 148.088042 
L 989.07438 147.878219 
L 999.322314 147.668397 
L 1009.570248 147.458574 
L 1019.818182 147.248752 
L 1030.066116 147.038929 
L 1040.31405 146.829107 
L 1050.561983 146.619285 
L 1060.809917 146.409462 
L 1071.057851 146.19964 
L 1081.305785 145.989817 
L 1091.553719 145.779995 
L 1101.801653 145.570172 
L 1112.049587 145.36035 
L 1122.297521 145.150527 
L 1132.545455 144.940705 
L 1142.793388 144.730882 
L 1153.041322 144.52106 
L 1163.289256 144.311237 
L 1173.53719 144.101415 
L 1183.785124 143.891592 
L 1194.033058 143.68177 
L 1204.280992 143.471947 
L 1214.528926 143.262125 
L 1224.77686 143.052302 
L 1235.024793 142.84248 
L 1245.272727 142.632657 
" clip-path="url(#pd1cb2b2372)" style="fill: none; stroke: #1f77b4; stroke-width: 2.25; stroke-linecap: square"/>
   </g>
   <g id="line2d_15">
    <path d="M 230.727273 587.740421 
L 240.975207 587.811355 
L 251.22314 587.882289 
L 261.471074 587.953223 
L 271.719008 588.024157 
L 281.966942 588.095091 
L 292.214876 588.166025 
L 302.46281 588.236959 
L 312.710744 588.307893 
L 322.958678 588.378827 
L 333.206612 588.449761 
L 343.454545 588.520695 
L 353.702479 588.591629 
L 363.950413 588.662563 
L 374.198347 588.733496 
L 384.446281 588.80443 
L 394.694215 588.875364 
L 404.942149 588.946298 
L 415.190083 589.017232 
L 425.438017 589.088166 
L 435.68595 589.1591 
L 445.933884 589.230034 
L 456.181818 589.300968 
L 466.429752 589.371902 
L 476.677686 589.442836 
L 486.92562 589.51377 
L 497.173554 589.584704 
L 507.421488 589.655638 
L 517.669421 589.726572 
L 527.917355 589.797506 
L 538.165289 589.86844 
L 548.413223 589.939374 
L 558.661157 590.010308 
L 568.909091 590.081242 
L 579.157025 590.152176 
L 589.404959 590.22311 
L 599.652893 590.294044 
L 609.900826 590.364978 
L 620.14876 590.435912 
L 630.396694 590.506846 
L 640.644628 590.57778 
L 650.892562 590.648714 
L 661.140496 590.719648 
L 671.38843 590.790582 
L 681.636364 590.861516 
L 691.884298 590.93245 
L 702.132231 591.003384 
L 712.380165 591.074318 
L 722.628099 591.145252 
L 732.876033 591.216186 
L 743.123967 591.28712 
L 753.371901 591.358054 
L 763.619835 591.428988 
L 773.867769 591.499922 
L 784.115702 591.570856 
L 794.363636 591.64179 
L 804.61157 591.712724 
L 814.859504 591.783658 
L 825.107438 591.854592 
L 835.355372 591.925526 
L 845.603306 591.99646 
L 855.85124 592.067394 
L 866.099174 592.138328 
L 876.347107 592.209262 
L 886.595041 592.280196 
L 896.842975 592.35113 
L 907.090909 592.422064 
L 917.338843 592.492998 
L 927.586777 592.563932 
L 937.834711 592.634866 
L 948.082645 592.7058 
L 958.330579 592.776734 
L 968.578512 592.847668 
L 978.826446 592.918601 
L 989.07438 592.989535 
L 999.322314 593.060469 
L 1009.570248 593.131403 
L 1019.818182 593.202337 
L 1030.066116 593.273271 
L 1040.31405 593.344205 
L 1050.561983 593.415139 
L 1060.809917 593.486073 
L 1071.057851 593.557007 
L 1081.305785 593.627941 
L 1091.553719 593.698875 
L 1101.801653 593.769809 
L 1112.049587 593.840743 
L 1122.297521 593.911677 
L 1132.545455 593.982611 
L 1142.793388 594.053545 
L 1153.041322 594.124479 
L 1163.289256 594.195413 
L 1173.53719 594.266347 
L 1183.785124 594.337281 
L 1194.033058 594.408215 
L 1204.280992 594.479149 
L 1214.528926 594.550083 
L 1224.77686 594.621017 
L 1235.024793 594.691951 
L 1245.272727 594.762885 
" clip-path="url(#pd1cb2b2372)" style="fill: none; stroke: #ff7f0e; stroke-width: 2.25; stroke-linecap: square"/>
   </g>
   <g id="line2d_16">
    <path d="M 230.727273 418.921438 
L 240.975207 419.060326 
L 251.22314 419.199215 
L 261.471074 419.338103 
L 271.719008 419.476992 
L 281.966942 419.61588 
L 292.214876 419.754769 
L 302.46281 419.893657 
L 312.710744 420.032546 
L 322.958678 420.171434 
L 333.206612 420.310323 
L 343.454545 420.449211 
L 353.702479 420.5881 
L 363.950413 420.726988 
L 374.198347 420.865877 
L 384.446281 421.004765 
L 394.694215 421.143654 
L 404.942149 421.282542 
L 415.190083 421.421431 
L 425.438017 421.560319 
L 435.68595 421.699208 
L 445.933884 421.838096 
L 456.181818 421.976985 
L 466.429752 422.115873 
L 476.677686 422.254762 
L 486.92562 422.39365 
L 497.173554 422.532539 
L 507.421488 422.671427 
L 517.669421 422.810316 
L 527.917355 422.949204 
L 538.165289 423.088093 
L 548.413223 423.226981 
L 558.661157 423.36587 
L 568.909091 423.504758 
L 579.157025 423.643647 
L 589.404959 423.782535 
L 599.652893 423.921424 
L 609.900826 424.060312 
L 620.14876 424.199201 
L 630.396694 424.338089 
L 640.644628 424.476978 
L 650.892562 424.615866 
L 661.140496 424.754755 
L 671.38843 424.893643 
L 681.636364 425.032532 
L 691.884298 425.17142 
L 702.132231 425.310309 
L 712.380165 425.449197 
L 722.628099 425.588086 
L 732.876033 425.726974 
L 743.123967 425.865863 
L 753.371901 426.004751 
L 763.619835 426.14364 
L 773.867769 426.282529 
L 784.115702 426.421417 
L 794.363636 426.560306 
L 804.61157 426.699194 
L 814.859504 426.838083 
L 825.107438 426.976971 
L 835.355372 427.11586 
L 845.603306 427.254748 
L 855.85124 427.393637 
L 866.099174 427.532525 
L 876.347107 427.671414 
L 886.595041 427.810302 
L 896.842975 427.949191 
L 907.090909 428.088079 
L 917.338843 428.226968 
L 927.586777 428.365856 
L 937.834711 428.504745 
L 948.082645 428.643633 
L 958.330579 428.782522 
L 968.578512 428.92141 
L 978.826446 429.060299 
L 989.07438 429.199187 
L 999.322314 429.338076 
L 1009.570248 429.476964 
L 1019.818182 429.615853 
L 1030.066116 429.754741 
L 1040.31405 429.89363 
L 1050.561983 430.032518 
L 1060.809917 430.171407 
L 1071.057851 430.310295 
L 1081.305785 430.449184 
L 1091.553719 430.588072 
L 1101.801653 430.726961 
L 1112.049587 430.865849 
L 1122.297521 431.004738 
L 1132.545455 431.143626 
L 1142.793388 431.282515 
L 1153.041322 431.421403 
L 1163.289256 431.560292 
L 1173.53719 431.69918 
L 1183.785124 431.838069 
L 1194.033058 431.976957 
L 1204.280992 432.115846 
L 1214.528926 432.254734 
L 1224.77686 432.393623 
L 1235.024793 432.532511 
L 1245.272727 432.6714 
" clip-path="url(#pd1cb2b2372)" style="fill: none; stroke: #2ca02c; stroke-width: 2.25; stroke-linecap: square"/>
   </g>
   <g id="patch_3">
    <path d="M 180 630 
L 180 86.4 
" style="fill: none; stroke: #000000; stroke-width: 0.8; stroke-linejoin: miter; stroke-linecap: square"/>
   </g>
   <g id="patch_4">
    <path d="M 1296 630 
L 1296 86.4 
" style="fill: none; stroke: #000000; stroke-width: 0.8; stroke-linejoin: miter; stroke-linecap: square"/>
   </g>
   <g id="patch_5">
    <path d="M 180 630 
L 1296 630 
" style="fill: none; stroke: #000000; stroke-width: 0.8; stroke-linejoin: miter; stroke-linecap: square"/>
   </g>
   <g id="patch_6">
    <path d="M 180 86.4 
L 1296 86.4 
" style="fill: none; stroke: #000000; stroke-width: 0.8; stroke-linejoin: miter; stroke-linecap: square"/>
   </g>
   <g id="legend_1">
    <g id="patch_7">
     <path d="M 1132.940625 381.717188 
L 1289 381.717188 
Q 1291 381.717188 1291 379.717188 
L 1291 336.682813 
Q 1291 334.682813 1289 334.682813 
L 1132.940625 334.682813 
Q 1130.940625 334.682813 1130.940625 336.682813 
L 1130.940625 379.717188 
Q 1130.940625 381.717188 1132.940625 381.717188 
z
" style="fill: #ffffff; opacity: 0.8; stroke: #cccccc; stroke-linejoin: miter"/>
    </g>
    <g id="PathCollection_4">
     <g>
      <use xlink:href="#m3af0afc55f" x="1144.940625" y="343.65625" style="fill: #1f77b4; fill-opacity: 0.8; stroke: #1f77b4; stroke-opacity: 0.8"/>
     </g>
    </g>
    <g id="text_16">
     <!-- Completed Trials (mean) -->
     <g transform="translate(1162.940625 346.28125)scale(0.1 -0.1)">
      <defs>
       <path id="DejaVuSans-43" d="M 4122 4306 
L 4122 3641 
Q 3803 3938 3442 4084 
Q 3081 4231 2675 4231 
Q 1875 4231 1450 3742 
Q 1025 3253 1025 2328 
Q 1025 1406 1450 917 
Q 1875 428 2675 428 
Q 3081 428 3442 575 
Q 3803 722 4122 1019 
L 4122 359 
Q 3791 134 3420 21 
Q 3050 -91 2638 -91 
Q 1578 -91 968 557 
Q 359 1206 359 2328 
Q 359 3453 968 4101 
Q 1578 4750 2638 4750 
Q 3056 4750 3426 4639 
Q 3797 4528 4122 4306 
z
" transform="scale(0.015625)"/>
       <path id="DejaVuSans-6f" d="M 1959 3097 
Q 1497 3097 1228 2736 
Q 959 2375 959 1747 
Q 959 1119 1226 758 
Q 1494 397 1959 397 
Q 2419 397 2687 759 
Q 2956 1122 2956 1747 
Q 2956 2369 2687 2733 
Q 2419 3097 1959 3097 
z
M 1959 3584 
Q 2709 3584 3137 3096 
Q 3566 2609 3566 1747 
Q 3566 888 3137 398 
Q 2709 -91 1959 -91 
Q 1206 -91 779 398 
Q 353 888 353 1747 
Q 353 2609 779 3096 
Q 1206 3584 1959 3584 
z
" transform="scale(0.015625)"/>
       <path id="DejaVuSans-6d" d="M 3328 2828 
Q 3544 3216 3844 3400 
Q 4144 3584 4550 3584 
Q 5097 3584 5394 3201 
Q 5691 2819 5691 2113 
L 5691 0 
L 5113 0 
L 5113 2094 
Q 5113 2597 4934 2840 
Q 4756 3084 4391 3084 
Q 3944 3084 3684 2787 
Q 3425 2491 3425 1978 
L 3425 0 
L 2847 0 
L 2847 2094 
Q 2847 2600 2669 2842 
Q 2491 3084 2119 3084 
Q 1678 3084 1418 2786 
Q 1159 2488 1159 1978 
L 1159 0 
L 581 0 
L 581 3500 
L 1159 3500 
L 1159 2956 
Q 1356 3278 1631 3431 
Q 1906 3584 2284 3584 
Q 2666 3584 2933 3390 
Q 3200 3197 3328 2828 
z
" transform="scale(0.015625)"/>
       <path id="DejaVuSans-70" d="M 1159 525 
L 1159 -1331 
L 581 -1331 
L 581 3500 
L 1159 3500 
L 1159 2969 
Q 1341 3281 1617 3432 
Q 1894 3584 2278 3584 
Q 2916 3584 3314 3078 
Q 3713 2572 3713 1747 
Q 3713 922 3314 415 
Q 2916 -91 2278 -91 
Q 1894 -91 1617 61 
Q 1341 213 1159 525 
z
M 3116 1747 
Q 3116 2381 2855 2742 
Q 2594 3103 2138 3103 
Q 1681 3103 1420 2742 
Q 1159 2381 1159 1747 
Q 1159 1113 1420 752 
Q 1681 391 2138 391 
Q 2594 391 2855 752 
Q 3116 1113 3116 1747 
z
" transform="scale(0.015625)"/>
       <path id="DejaVuSans-6c" d="M 603 4863 
L 1178 4863 
L 1178 0 
L 603 0 
L 603 4863 
z
" transform="scale(0.015625)"/>
       <path id="DejaVuSans-72" d="M 2631 2963 
Q 2534 3019 2420 3045 
Q 2306 3072 2169 3072 
Q 1681 3072 1420 2755 
Q 1159 2438 1159 1844 
L 1159 0 
L 581 0 
L 581 3500 
L 1159 3500 
L 1159 2956 
Q 1341 3275 1631 3429 
Q 1922 3584 2338 3584 
Q 2397 3584 2469 3576 
Q 2541 3569 2628 3553 
L 2631 2963 
z
" transform="scale(0.015625)"/>
       <path id="DejaVuSans-69" d="M 603 3500 
L 1178 3500 
L 1178 0 
L 603 0 
L 603 3500 
z
M 603 4863 
L 1178 4863 
L 1178 4134 
L 603 4134 
L 603 4863 
z
" transform="scale(0.015625)"/>
      </defs>
      <use xlink:href="#DejaVuSans-43"/>
      <use xlink:href="#DejaVuSans-6f" x="69.824219"/>
      <use xlink:href="#DejaVuSans-6d" x="131.005859"/>
      <use xlink:href="#DejaVuSans-70" x="228.417969"/>
      <use xlink:href="#DejaVuSans-6c" x="291.894531"/>
      <use xlink:href="#DejaVuSans-65" x="319.677734"/>
      <use xlink:href="#DejaVuSans-74" x="381.201172"/>
      <use xlink:href="#DejaVuSans-65" x="420.410156"/>
      <use xlink:href="#DejaVuSans-64" x="481.933594"/>
      <use xlink:href="#DejaVuSans-20" x="545.410156"/>
      <use xlink:href="#DejaVuSans-54" x="577.197266"/>
      <use xlink:href="#DejaVuSans-72" x="623.53125"/>
      <use xlink:href="#DejaVuSans-69" x="664.644531"/>
      <use xlink:href="#DejaVuSans-61" x="692.427734"/>
      <use xlink:href="#DejaVuSans-6c" x="753.707031"/>
      <use xlink:href="#DejaVuSans-73" x="781.490234"/>
      <use xlink:href="#DejaVuSans-20" x="833.589844"/>
      <use xlink:href="#DejaVuSans-28" x="865.376953"/>
      <use xlink:href="#DejaVuSans-6d" x="904.390625"/>
      <use xlink:href="#DejaVuSans-65" x="1001.802734"/>
      <use xlink:href="#DejaVuSans-61" x="1063.326172"/>
      <use xlink:href="#DejaVuSans-6e" x="1124.605469"/>
      <use xlink:href="#DejaVuSans-29" x="1187.984375"/>
     </g>
    </g>
    <g id="PathCollection_5">
     <g>
      <use xlink:href="#mb9a4554b22" x="1144.940625" y="358.334375" style="fill: #ff7f0e; fill-opacity: 0.8; stroke: #ff7f0e; stroke-opacity: 0.8"/>
     </g>
    </g>
    <g id="text_17">
     <!-- Failed Trials (mean) -->
     <g transform="translate(1162.940625 360.959375)scale(0.1 -0.1)">
      <defs>
       <path id="DejaVuSans-46" d="M 628 4666 
L 3309 4666 
L 3309 4134 
L 1259 4134 
L 1259 2759 
L 3109 2759 
L 3109 2228 
L 1259 2228 
L 1259 0 
L 628 0 
L 628 4666 
z
" transform="scale(0.015625)"/>
      </defs>
      <use xlink:href="#DejaVuSans-46"/>
      <use xlink:href="#DejaVuSans-61" x="48.394531"/>
      <use xlink:href="#DejaVuSans-69" x="109.673828"/>
      <use xlink:href="#DejaVuSans-6c" x="137.457031"/>
      <use xlink:href="#DejaVuSans-65" x="165.240234"/>
      <use xlink:href="#DejaVuSans-64" x="226.763672"/>
      <use xlink:href="#DejaVuSans-20" x="290.240234"/>
      <use xlink:href="#DejaVuSans-54" x="322.027344"/>
      <use xlink:href="#DejaVuSans-72" x="368.361328"/>
      <use xlink:href="#DejaVuSans-69" x="409.474609"/>
      <use xlink:href="#DejaVuSans-61" x="437.257812"/>
      <use xlink:href="#DejaVuSans-6c" x="498.537109"/>
      <use xlink:href="#DejaVuSans-73" x="526.320312"/>
      <use xlink:href="#DejaVuSans-20" x="578.419922"/>
      <use xlink:href="#DejaVuSans-28" x="610.207031"/>
      <use xlink:href="#DejaVuSans-6d" x="649.220703"/>
      <use xlink:href="#DejaVuSans-65" x="746.632812"/>
      <use xlink:href="#DejaVuSans-61" x="808.15625"/>
      <use xlink:href="#DejaVuSans-6e" x="869.435547"/>
      <use xlink:href="#DejaVuSans-29" x="932.814453"/>
     </g>
    </g>
    <g id="PathCollection_6">
     <g>
      <use xlink:href="#m50a8c1da5d" x="1144.940625" y="373.0125" style="fill: #2ca02c; fill-opacity: 0.8; stroke: #2ca02c; stroke-opacity: 0.8"/>
     </g>
    </g>
    <g id="text_18">
     <!-- Terminated Trials (mean) -->
     <g transform="translate(1162.940625 375.6375)scale(0.1 -0.1)">
      <use xlink:href="#DejaVuSans-54"/>
      <use xlink:href="#DejaVuSans-65" x="44.083984"/>
      <use xlink:href="#DejaVuSans-72" x="105.607422"/>
      <use xlink:href="#DejaVuSans-6d" x="144.970703"/>
      <use xlink:href="#DejaVuSans-69" x="242.382812"/>
      <use xlink:href="#DejaVuSans-6e" x="270.166016"/>
      <use xlink:href="#DejaVuSans-61" x="333.544922"/>
      <use xlink:href="#DejaVuSans-74" x="394.824219"/>
      <use xlink:href="#DejaVuSans-65" x="434.033203"/>
      <use xlink:href="#DejaVuSans-64" x="495.556641"/>
      <use xlink:href="#DejaVuSans-20" x="559.033203"/>
      <use xlink:href="#DejaVuSans-54" x="590.820312"/>
      <use xlink:href="#DejaVuSans-72" x="637.154297"/>
      <use xlink:href="#DejaVuSans-69" x="678.267578"/>
      <use xlink:href="#DejaVuSans-61" x="706.050781"/>
      <use xlink:href="#DejaVuSans-6c" x="767.330078"/>
      <use xlink:href="#DejaVuSans-73" x="795.113281"/>
      <use xlink:href="#DejaVuSans-20" x="847.212891"/>
      <use xlink:href="#DejaVuSans-28" x="879"/>
      <use xlink:href="#DejaVuSans-6d" x="918.013672"/>
      <use xlink:href="#DejaVuSans-65" x="1015.425781"/>
      <use xlink:href="#DejaVuSans-61" x="1076.949219"/>
      <use xlink:href="#DejaVuSans-6e" x="1138.228516"/>
      <use xlink:href="#DejaVuSans-29" x="1201.607422"/>
     </g>
    </g>
   </g>
  </g>
 </g>
 <defs>
  <clipPath id="pd1cb2b2372">
   <rect x="180" y="86.4" width="1116" height="543.6"/>
  </clipPath>
 </defs>
</svg>
