<?xml version="1.0" encoding="utf-8" standalone="no"?>
<!DOCTYPE svg PUBLIC "-//W3C//DTD SVG 1.1//EN"
  "http://www.w3.org/Graphics/SVG/1.1/DTD/svg11.dtd">
<svg xmlns:xlink="http://www.w3.org/1999/xlink" width="1440pt" height="720pt" viewBox="0 0 1440 720" xmlns="http://www.w3.org/2000/svg" version="1.1">
 <metadata>
  <rdf:RDF xmlns:dc="http://purl.org/dc/elements/1.1/" xmlns:cc="http://creativecommons.org/ns#" xmlns:rdf="http://www.w3.org/1999/02/22-rdf-syntax-ns#">
   <cc:Work>
    <dc:type rdf:resource="http://purl.org/dc/dcmitype/StillImage"/>
    <dc:date>2025-07-26T18:00:08.426879</dc:date>
    <dc:format>image/svg+xml</dc:format>
    <dc:creator>
     <cc:Agent>
      <dc:title>Matplotlib v3.8.0, https://matplotlib.org/</dc:title>
     </cc:Agent>
    </dc:creator>
   </cc:Work>
  </rdf:RDF>
 </metadata>
 <defs>
  <style type="text/css">*{stroke-linejoin: round; stroke-linecap: butt}</style>
 </defs>
 <g id="figure_1">
  <g id="patch_1">
   <path d="M 0 720 
L 1440 720 
L 1440 0 
L 0 0 
z
" style="fill: #ffffff"/>
  </g>
  <g id="axes_1">
   <g id="patch_2">
    <path d="M 180 640.8 
L 1296 640.8 
L 1296 86.4 
L 180 86.4 
z
" style="fill: #ffffff"/>
   </g>
   <g id="PathCollection_1">
    <defs>
     <path id="m7401179714" d="M 0 3 
C 0.795609 3 1.55874 2.683901 2.12132 2.12132 
C 2.683901 1.55874 3 0.795609 3 0 
C 3 -0.795609 2.683901 -1.55874 2.12132 -2.12132 
C 1.55874 -2.683901 0.795609 -3 0 -3 
C -0.795609 -3 -1.55874 -2.683901 -2.12132 -2.12132 
C -2.683901 -1.55874 -3 -0.795609 -3 0 
C -3 0.795609 -2.683901 1.55874 -2.12132 2.12132 
C -1.55874 2.683901 -0.795609 3 0 3 
z
" style="stroke: #1f77b4; stroke-opacity: 0.8"/>
    </defs>
    <g clip-path="url(#p893c2f4758)">
     <use xlink:href="#m7401179714" x="230.727273" y="163.145455" style="fill: #1f77b4; fill-opacity: 0.8; stroke: #1f77b4; stroke-opacity: 0.8"/>
     <use xlink:href="#m7401179714" x="249.86964" y="197.509091" style="fill: #1f77b4; fill-opacity: 0.8; stroke: #1f77b4; stroke-opacity: 0.8"/>
     <use xlink:href="#m7401179714" x="269.012007" y="151.690909" style="fill: #1f77b4; fill-opacity: 0.8; stroke: #1f77b4; stroke-opacity: 0.8"/>
     <use xlink:href="#m7401179714" x="288.154374" y="197.509091" style="fill: #1f77b4; fill-opacity: 0.8; stroke: #1f77b4; stroke-opacity: 0.8"/>
     <use xlink:href="#m7401179714" x="307.296741" y="157.418182" style="fill: #1f77b4; fill-opacity: 0.8; stroke: #1f77b4; stroke-opacity: 0.8"/>
     <use xlink:href="#m7401179714" x="326.439108" y="174.6" style="fill: #1f77b4; fill-opacity: 0.8; stroke: #1f77b4; stroke-opacity: 0.8"/>
     <use xlink:href="#m7401179714" x="345.581475" y="134.509091" style="fill: #1f77b4; fill-opacity: 0.8; stroke: #1f77b4; stroke-opacity: 0.8"/>
     <use xlink:href="#m7401179714" x="364.723842" y="140.236364" style="fill: #1f77b4; fill-opacity: 0.8; stroke: #1f77b4; stroke-opacity: 0.8"/>
     <use xlink:href="#m7401179714" x="383.866209" y="151.690909" style="fill: #1f77b4; fill-opacity: 0.8; stroke: #1f77b4; stroke-opacity: 0.8"/>
     <use xlink:href="#m7401179714" x="403.008576" y="157.418182" style="fill: #1f77b4; fill-opacity: 0.8; stroke: #1f77b4; stroke-opacity: 0.8"/>
     <use xlink:href="#m7401179714" x="422.150943" y="151.690909" style="fill: #1f77b4; fill-opacity: 0.8; stroke: #1f77b4; stroke-opacity: 0.8"/>
     <use xlink:href="#m7401179714" x="441.29331" y="163.145455" style="fill: #1f77b4; fill-opacity: 0.8; stroke: #1f77b4; stroke-opacity: 0.8"/>
     <use xlink:href="#m7401179714" x="460.435678" y="186.054545" style="fill: #1f77b4; fill-opacity: 0.8; stroke: #1f77b4; stroke-opacity: 0.8"/>
     <use xlink:href="#m7401179714" x="479.578045" y="117.327273" style="fill: #1f77b4; fill-opacity: 0.8; stroke: #1f77b4; stroke-opacity: 0.8"/>
     <use xlink:href="#m7401179714" x="498.720412" y="157.418182" style="fill: #1f77b4; fill-opacity: 0.8; stroke: #1f77b4; stroke-opacity: 0.8"/>
     <use xlink:href="#m7401179714" x="517.862779" y="208.963636" style="fill: #1f77b4; fill-opacity: 0.8; stroke: #1f77b4; stroke-opacity: 0.8"/>
     <use xlink:href="#m7401179714" x="537.005146" y="123.054545" style="fill: #1f77b4; fill-opacity: 0.8; stroke: #1f77b4; stroke-opacity: 0.8"/>
     <use xlink:href="#m7401179714" x="556.147513" y="111.6" style="fill: #1f77b4; fill-opacity: 0.8; stroke: #1f77b4; stroke-opacity: 0.8"/>
     <use xlink:href="#m7401179714" x="575.28988" y="157.418182" style="fill: #1f77b4; fill-opacity: 0.8; stroke: #1f77b4; stroke-opacity: 0.8"/>
     <use xlink:href="#m7401179714" x="594.432247" y="180.327273" style="fill: #1f77b4; fill-opacity: 0.8; stroke: #1f77b4; stroke-opacity: 0.8"/>
     <use xlink:href="#m7401179714" x="613.574614" y="117.327273" style="fill: #1f77b4; fill-opacity: 0.8; stroke: #1f77b4; stroke-opacity: 0.8"/>
     <use xlink:href="#m7401179714" x="632.716981" y="168.872727" style="fill: #1f77b4; fill-opacity: 0.8; stroke: #1f77b4; stroke-opacity: 0.8"/>
     <use xlink:href="#m7401179714" x="651.859348" y="145.963636" style="fill: #1f77b4; fill-opacity: 0.8; stroke: #1f77b4; stroke-opacity: 0.8"/>
     <use xlink:href="#m7401179714" x="671.001715" y="163.145455" style="fill: #1f77b4; fill-opacity: 0.8; stroke: #1f77b4; stroke-opacity: 0.8"/>
     <use xlink:href="#m7401179714" x="690.144082" y="226.145455" style="fill: #1f77b4; fill-opacity: 0.8; stroke: #1f77b4; stroke-opacity: 0.8"/>
     <use xlink:href="#m7401179714" x="709.286449" y="111.6" style="fill: #1f77b4; fill-opacity: 0.8; stroke: #1f77b4; stroke-opacity: 0.8"/>
     <use xlink:href="#m7401179714" x="728.428816" y="151.690909" style="fill: #1f77b4; fill-opacity: 0.8; stroke: #1f77b4; stroke-opacity: 0.8"/>
     <use xlink:href="#m7401179714" x="747.571184" y="163.145455" style="fill: #1f77b4; fill-opacity: 0.8; stroke: #1f77b4; stroke-opacity: 0.8"/>
     <use xlink:href="#m7401179714" x="766.713551" y="168.872727" style="fill: #1f77b4; fill-opacity: 0.8; stroke: #1f77b4; stroke-opacity: 0.8"/>
     <use xlink:href="#m7401179714" x="785.855918" y="145.963636" style="fill: #1f77b4; fill-opacity: 0.8; stroke: #1f77b4; stroke-opacity: 0.8"/>
     <use xlink:href="#m7401179714" x="804.998285" y="117.327273" style="fill: #1f77b4; fill-opacity: 0.8; stroke: #1f77b4; stroke-opacity: 0.8"/>
     <use xlink:href="#m7401179714" x="824.140652" y="186.054545" style="fill: #1f77b4; fill-opacity: 0.8; stroke: #1f77b4; stroke-opacity: 0.8"/>
     <use xlink:href="#m7401179714" x="843.283019" y="174.6" style="fill: #1f77b4; fill-opacity: 0.8; stroke: #1f77b4; stroke-opacity: 0.8"/>
     <use xlink:href="#m7401179714" x="862.425386" y="168.872727" style="fill: #1f77b4; fill-opacity: 0.8; stroke: #1f77b4; stroke-opacity: 0.8"/>
     <use xlink:href="#m7401179714" x="881.567753" y="168.872727" style="fill: #1f77b4; fill-opacity: 0.8; stroke: #1f77b4; stroke-opacity: 0.8"/>
     <use xlink:href="#m7401179714" x="900.71012" y="145.963636" style="fill: #1f77b4; fill-opacity: 0.8; stroke: #1f77b4; stroke-opacity: 0.8"/>
     <use xlink:href="#m7401179714" x="919.852487" y="203.236364" style="fill: #1f77b4; fill-opacity: 0.8; stroke: #1f77b4; stroke-opacity: 0.8"/>
     <use xlink:href="#m7401179714" x="938.994854" y="145.963636" style="fill: #1f77b4; fill-opacity: 0.8; stroke: #1f77b4; stroke-opacity: 0.8"/>
     <use xlink:href="#m7401179714" x="958.137221" y="191.781818" style="fill: #1f77b4; fill-opacity: 0.8; stroke: #1f77b4; stroke-opacity: 0.8"/>
     <use xlink:href="#m7401179714" x="977.279588" y="123.054545" style="fill: #1f77b4; fill-opacity: 0.8; stroke: #1f77b4; stroke-opacity: 0.8"/>
     <use xlink:href="#m7401179714" x="996.421955" y="117.327273" style="fill: #1f77b4; fill-opacity: 0.8; stroke: #1f77b4; stroke-opacity: 0.8"/>
     <use xlink:href="#m7401179714" x="1015.564322" y="117.327273" style="fill: #1f77b4; fill-opacity: 0.8; stroke: #1f77b4; stroke-opacity: 0.8"/>
     <use xlink:href="#m7401179714" x="1034.70669" y="163.145455" style="fill: #1f77b4; fill-opacity: 0.8; stroke: #1f77b4; stroke-opacity: 0.8"/>
     <use xlink:href="#m7401179714" x="1053.849057" y="140.236364" style="fill: #1f77b4; fill-opacity: 0.8; stroke: #1f77b4; stroke-opacity: 0.8"/>
     <use xlink:href="#m7401179714" x="1072.991424" y="140.236364" style="fill: #1f77b4; fill-opacity: 0.8; stroke: #1f77b4; stroke-opacity: 0.8"/>
     <use xlink:href="#m7401179714" x="1092.133791" y="123.054545" style="fill: #1f77b4; fill-opacity: 0.8; stroke: #1f77b4; stroke-opacity: 0.8"/>
     <use xlink:href="#m7401179714" x="1111.276158" y="180.327273" style="fill: #1f77b4; fill-opacity: 0.8; stroke: #1f77b4; stroke-opacity: 0.8"/>
     <use xlink:href="#m7401179714" x="1130.418525" y="157.418182" style="fill: #1f77b4; fill-opacity: 0.8; stroke: #1f77b4; stroke-opacity: 0.8"/>
     <use xlink:href="#m7401179714" x="1149.560892" y="111.6" style="fill: #1f77b4; fill-opacity: 0.8; stroke: #1f77b4; stroke-opacity: 0.8"/>
     <use xlink:href="#m7401179714" x="1168.703259" y="123.054545" style="fill: #1f77b4; fill-opacity: 0.8; stroke: #1f77b4; stroke-opacity: 0.8"/>
     <use xlink:href="#m7401179714" x="1187.845626" y="134.509091" style="fill: #1f77b4; fill-opacity: 0.8; stroke: #1f77b4; stroke-opacity: 0.8"/>
     <use xlink:href="#m7401179714" x="1206.987993" y="151.690909" style="fill: #1f77b4; fill-opacity: 0.8; stroke: #1f77b4; stroke-opacity: 0.8"/>
     <use xlink:href="#m7401179714" x="1226.13036" y="128.781818" style="fill: #1f77b4; fill-opacity: 0.8; stroke: #1f77b4; stroke-opacity: 0.8"/>
     <use xlink:href="#m7401179714" x="1245.272727" y="174.6" style="fill: #1f77b4; fill-opacity: 0.8; stroke: #1f77b4; stroke-opacity: 0.8"/>
    </g>
   </g>
   <g id="PolyCollection_1">
    <path d="M 230.727273 151.874523 
L 230.727273 178.089533 
L 240.975207 177.658232 
L 251.22314 177.258177 
L 261.471074 176.862609 
L 271.719008 176.428492 
L 281.966942 175.987132 
L 292.214876 175.610419 
L 302.46281 175.275357 
L 312.710744 174.940295 
L 322.958678 174.605232 
L 333.206612 174.27017 
L 343.454545 173.935107 
L 353.702479 173.600045 
L 363.950413 173.261449 
L 374.198347 172.869778 
L 384.446281 172.537977 
L 394.694215 172.228111 
L 404.942149 171.917307 
L 415.190083 171.582359 
L 425.438017 171.265894 
L 435.68595 170.911893 
L 445.933884 170.577246 
L 456.181818 170.242568 
L 466.429752 169.907366 
L 476.677686 169.569503 
L 486.92562 169.15375 
L 497.173554 168.681931 
L 507.421488 168.330891 
L 517.669421 168.118197 
L 527.917355 167.685984 
L 538.165289 167.25295 
L 548.413223 167.030981 
L 558.661157 166.65236 
L 568.909091 166.305342 
L 579.157025 165.972198 
L 589.404959 165.548787 
L 599.652893 165.141494 
L 609.900826 164.843218 
L 620.14876 164.498907 
L 630.396694 164.339087 
L 640.644628 164.115626 
L 650.892562 163.785123 
L 661.140496 163.468164 
L 671.38843 163.194052 
L 681.636364 162.86609 
L 691.884298 162.684367 
L 702.132231 162.6031 
L 712.380165 162.443966 
L 722.628099 162.178801 
L 732.876033 162.016169 
L 743.123967 161.715108 
L 753.371901 161.462945 
L 763.619835 161.168454 
L 773.867769 160.919756 
L 784.115702 160.638942 
L 794.363636 160.550206 
L 804.61157 160.365648 
L 814.859504 160.14572 
L 825.107438 159.888937 
L 835.355372 159.66571 
L 845.603306 159.394541 
L 855.85124 159.137672 
L 866.099174 158.948521 
L 876.347107 158.831239 
L 886.595041 158.775925 
L 896.842975 158.721667 
L 907.090909 158.561148 
L 917.338843 158.517697 
L 927.586777 158.530478 
L 937.834711 158.463454 
L 948.082645 158.292402 
L 958.330579 158.203167 
L 968.578512 158.184195 
L 978.826446 158.194941 
L 989.07438 158.130141 
L 999.322314 158.145397 
L 1009.570248 157.997975 
L 1019.818182 158.038867 
L 1030.066116 158.115707 
L 1040.31405 158.173045 
L 1050.561983 157.981824 
L 1060.809917 157.917161 
L 1071.057851 157.932357 
L 1081.305785 157.929776 
L 1091.553719 157.878346 
L 1101.801653 157.832147 
L 1112.049587 157.825642 
L 1122.297521 157.75118 
L 1132.545455 157.682786 
L 1142.793388 157.696081 
L 1153.041322 157.709376 
L 1163.289256 157.722671 
L 1173.53719 157.765044 
L 1183.785124 157.781423 
L 1194.033058 157.762557 
L 1204.280992 157.768254 
L 1214.528926 157.762501 
L 1224.77686 157.756749 
L 1235.024793 157.764928 
L 1245.272727 157.744542 
L 1245.272727 131.316307 
L 1245.272727 131.316307 
L 1235.024793 131.765003 
L 1224.77686 132.214027 
L 1214.528926 132.663051 
L 1204.280992 133.054771 
L 1194.033058 133.427216 
L 1183.785124 133.79966 
L 1173.53719 134.207293 
L 1163.289256 134.634549 
L 1153.041322 134.994207 
L 1142.793388 135.279172 
L 1132.545455 135.648702 
L 1122.297521 136.043962 
L 1112.049587 136.397328 
L 1101.801653 136.754278 
L 1091.553719 137.091777 
L 1081.305785 137.401004 
L 1071.057851 137.849781 
L 1060.809917 138.23963 
L 1050.561983 138.608591 
L 1040.31405 138.976297 
L 1030.066116 139.345282 
L 1019.818182 139.572669 
L 1009.570248 139.975171 
L 999.322314 140.377683 
L 989.07438 140.724902 
L 978.826446 140.951671 
L 968.578512 141.155307 
L 958.330579 141.40383 
L 948.082645 141.652965 
L 937.834711 141.906503 
L 927.586777 142.271423 
L 917.338843 142.596803 
L 907.090909 142.776249 
L 896.842975 142.970334 
L 886.595041 143.2916 
L 876.347107 143.672621 
L 866.099174 143.960719 
L 855.85124 144.403051 
L 845.603306 144.573248 
L 835.355372 144.84687 
L 825.107438 145.154936 
L 814.859504 145.379526 
L 804.61157 145.562311 
L 794.363636 145.742624 
L 784.115702 145.941766 
L 773.867769 146.152685 
L 763.619835 146.484517 
L 753.371901 146.766448 
L 743.123967 146.943608 
L 732.876033 147.151895 
L 722.628099 147.312211 
L 712.380165 147.440078 
L 702.132231 147.661673 
L 691.884298 147.796371 
L 681.636364 147.814621 
L 671.38843 148.061008 
L 661.140496 148.173023 
L 650.892562 148.461124 
L 640.644628 148.462369 
L 630.396694 148.638383 
L 620.14876 148.817347 
L 609.900826 148.898433 
L 599.652893 148.906106 
L 589.404959 149.194395 
L 579.157025 149.298752 
L 568.909091 149.452242 
L 558.661157 149.529934 
L 548.413223 149.766707 
L 538.165289 149.926555 
L 527.917355 149.993443 
L 517.669421 150.060331 
L 507.421488 150.148869 
L 497.173554 150.174916 
L 486.92562 150.188833 
L 476.677686 150.239083 
L 466.429752 150.336359 
L 456.181818 150.367119 
L 445.933884 150.457395 
L 435.68595 150.559345 
L 425.438017 150.613958 
L 415.190083 150.671211 
L 404.942149 150.762463 
L 394.694215 150.838991 
L 384.446281 150.904236 
L 374.198347 151.041001 
L 363.950413 151.15405 
L 353.702479 151.098601 
L 343.454545 151.163093 
L 333.206612 151.229015 
L 322.958678 151.300232 
L 312.710744 151.389955 
L 302.46281 151.43622 
L 292.214876 151.488305 
L 281.966942 151.551916 
L 271.719008 151.584842 
L 261.471074 151.55164 
L 251.22314 151.701377 
L 240.975207 151.809802 
L 230.727273 151.874523 
z
" clip-path="url(#p893c2f4758)" style="fill: #1f77b4; fill-opacity: 0.15"/>
   </g>
   <g id="PathCollection_2">
    <defs>
     <path id="mdcfab760b6" d="M 0 3 
C 0.795609 3 1.55874 2.683901 2.12132 2.12132 
C 2.683901 1.55874 3 0.795609 3 0 
C 3 -0.795609 2.683901 -1.55874 2.12132 -2.12132 
C 1.55874 -2.683901 0.795609 -3 0 -3 
C -0.795609 -3 -1.55874 -2.683901 -2.12132 -2.12132 
C -2.683901 -1.55874 -3 -0.795609 -3 0 
C -3 0.795609 -2.683901 1.55874 -2.12132 2.12132 
C -1.55874 2.683901 -0.795609 3 0 3 
z
" style="stroke: #ff7f0e; stroke-opacity: 0.8"/>
    </defs>
    <g clip-path="url(#p893c2f4758)">
     <use xlink:href="#mdcfab760b6" x="230.727273" y="581.236364" style="fill: #ff7f0e; fill-opacity: 0.8; stroke: #ff7f0e; stroke-opacity: 0.8"/>
     <use xlink:href="#mdcfab760b6" x="249.86964" y="604.145455" style="fill: #ff7f0e; fill-opacity: 0.8; stroke: #ff7f0e; stroke-opacity: 0.8"/>
     <use xlink:href="#mdcfab760b6" x="269.012007" y="586.963636" style="fill: #ff7f0e; fill-opacity: 0.8; stroke: #ff7f0e; stroke-opacity: 0.8"/>
     <use xlink:href="#mdcfab760b6" x="288.154374" y="586.963636" style="fill: #ff7f0e; fill-opacity: 0.8; stroke: #ff7f0e; stroke-opacity: 0.8"/>
     <use xlink:href="#mdcfab760b6" x="307.296741" y="592.690909" style="fill: #ff7f0e; fill-opacity: 0.8; stroke: #ff7f0e; stroke-opacity: 0.8"/>
     <use xlink:href="#mdcfab760b6" x="326.439108" y="604.145455" style="fill: #ff7f0e; fill-opacity: 0.8; stroke: #ff7f0e; stroke-opacity: 0.8"/>
     <use xlink:href="#mdcfab760b6" x="345.581475" y="592.690909" style="fill: #ff7f0e; fill-opacity: 0.8; stroke: #ff7f0e; stroke-opacity: 0.8"/>
     <use xlink:href="#mdcfab760b6" x="364.723842" y="604.145455" style="fill: #ff7f0e; fill-opacity: 0.8; stroke: #ff7f0e; stroke-opacity: 0.8"/>
     <use xlink:href="#mdcfab760b6" x="383.866209" y="581.236364" style="fill: #ff7f0e; fill-opacity: 0.8; stroke: #ff7f0e; stroke-opacity: 0.8"/>
     <use xlink:href="#mdcfab760b6" x="403.008576" y="592.690909" style="fill: #ff7f0e; fill-opacity: 0.8; stroke: #ff7f0e; stroke-opacity: 0.8"/>
     <use xlink:href="#mdcfab760b6" x="422.150943" y="609.872727" style="fill: #ff7f0e; fill-opacity: 0.8; stroke: #ff7f0e; stroke-opacity: 0.8"/>
     <use xlink:href="#mdcfab760b6" x="441.29331" y="609.872727" style="fill: #ff7f0e; fill-opacity: 0.8; stroke: #ff7f0e; stroke-opacity: 0.8"/>
     <use xlink:href="#mdcfab760b6" x="460.435678" y="604.145455" style="fill: #ff7f0e; fill-opacity: 0.8; stroke: #ff7f0e; stroke-opacity: 0.8"/>
     <use xlink:href="#mdcfab760b6" x="479.578045" y="592.690909" style="fill: #ff7f0e; fill-opacity: 0.8; stroke: #ff7f0e; stroke-opacity: 0.8"/>
     <use xlink:href="#mdcfab760b6" x="498.720412" y="609.872727" style="fill: #ff7f0e; fill-opacity: 0.8; stroke: #ff7f0e; stroke-opacity: 0.8"/>
     <use xlink:href="#mdcfab760b6" x="517.862779" y="604.145455" style="fill: #ff7f0e; fill-opacity: 0.8; stroke: #ff7f0e; stroke-opacity: 0.8"/>
     <use xlink:href="#mdcfab760b6" x="537.005146" y="604.145455" style="fill: #ff7f0e; fill-opacity: 0.8; stroke: #ff7f0e; stroke-opacity: 0.8"/>
     <use xlink:href="#mdcfab760b6" x="556.147513" y="581.236364" style="fill: #ff7f0e; fill-opacity: 0.8; stroke: #ff7f0e; stroke-opacity: 0.8"/>
     <use xlink:href="#mdcfab760b6" x="575.28988" y="604.145455" style="fill: #ff7f0e; fill-opacity: 0.8; stroke: #ff7f0e; stroke-opacity: 0.8"/>
     <use xlink:href="#mdcfab760b6" x="594.432247" y="598.418182" style="fill: #ff7f0e; fill-opacity: 0.8; stroke: #ff7f0e; stroke-opacity: 0.8"/>
     <use xlink:href="#mdcfab760b6" x="613.574614" y="609.872727" style="fill: #ff7f0e; fill-opacity: 0.8; stroke: #ff7f0e; stroke-opacity: 0.8"/>
     <use xlink:href="#mdcfab760b6" x="632.716981" y="592.690909" style="fill: #ff7f0e; fill-opacity: 0.8; stroke: #ff7f0e; stroke-opacity: 0.8"/>
     <use xlink:href="#mdcfab760b6" x="651.859348" y="615.6" style="fill: #ff7f0e; fill-opacity: 0.8; stroke: #ff7f0e; stroke-opacity: 0.8"/>
     <use xlink:href="#mdcfab760b6" x="671.001715" y="609.872727" style="fill: #ff7f0e; fill-opacity: 0.8; stroke: #ff7f0e; stroke-opacity: 0.8"/>
     <use xlink:href="#mdcfab760b6" x="690.144082" y="592.690909" style="fill: #ff7f0e; fill-opacity: 0.8; stroke: #ff7f0e; stroke-opacity: 0.8"/>
     <use xlink:href="#mdcfab760b6" x="709.286449" y="604.145455" style="fill: #ff7f0e; fill-opacity: 0.8; stroke: #ff7f0e; stroke-opacity: 0.8"/>
     <use xlink:href="#mdcfab760b6" x="728.428816" y="592.690909" style="fill: #ff7f0e; fill-opacity: 0.8; stroke: #ff7f0e; stroke-opacity: 0.8"/>
     <use xlink:href="#mdcfab760b6" x="747.571184" y="609.872727" style="fill: #ff7f0e; fill-opacity: 0.8; stroke: #ff7f0e; stroke-opacity: 0.8"/>
     <use xlink:href="#mdcfab760b6" x="766.713551" y="604.145455" style="fill: #ff7f0e; fill-opacity: 0.8; stroke: #ff7f0e; stroke-opacity: 0.8"/>
     <use xlink:href="#mdcfab760b6" x="785.855918" y="615.6" style="fill: #ff7f0e; fill-opacity: 0.8; stroke: #ff7f0e; stroke-opacity: 0.8"/>
     <use xlink:href="#mdcfab760b6" x="804.998285" y="609.872727" style="fill: #ff7f0e; fill-opacity: 0.8; stroke: #ff7f0e; stroke-opacity: 0.8"/>
     <use xlink:href="#mdcfab760b6" x="824.140652" y="615.6" style="fill: #ff7f0e; fill-opacity: 0.8; stroke: #ff7f0e; stroke-opacity: 0.8"/>
     <use xlink:href="#mdcfab760b6" x="843.283019" y="604.145455" style="fill: #ff7f0e; fill-opacity: 0.8; stroke: #ff7f0e; stroke-opacity: 0.8"/>
     <use xlink:href="#mdcfab760b6" x="862.425386" y="609.872727" style="fill: #ff7f0e; fill-opacity: 0.8; stroke: #ff7f0e; stroke-opacity: 0.8"/>
     <use xlink:href="#mdcfab760b6" x="881.567753" y="615.6" style="fill: #ff7f0e; fill-opacity: 0.8; stroke: #ff7f0e; stroke-opacity: 0.8"/>
     <use xlink:href="#mdcfab760b6" x="900.71012" y="615.6" style="fill: #ff7f0e; fill-opacity: 0.8; stroke: #ff7f0e; stroke-opacity: 0.8"/>
     <use xlink:href="#mdcfab760b6" x="919.852487" y="609.872727" style="fill: #ff7f0e; fill-opacity: 0.8; stroke: #ff7f0e; stroke-opacity: 0.8"/>
     <use xlink:href="#mdcfab760b6" x="938.994854" y="598.418182" style="fill: #ff7f0e; fill-opacity: 0.8; stroke: #ff7f0e; stroke-opacity: 0.8"/>
     <use xlink:href="#mdcfab760b6" x="958.137221" y="598.418182" style="fill: #ff7f0e; fill-opacity: 0.8; stroke: #ff7f0e; stroke-opacity: 0.8"/>
     <use xlink:href="#mdcfab760b6" x="977.279588" y="586.963636" style="fill: #ff7f0e; fill-opacity: 0.8; stroke: #ff7f0e; stroke-opacity: 0.8"/>
     <use xlink:href="#mdcfab760b6" x="996.421955" y="604.145455" style="fill: #ff7f0e; fill-opacity: 0.8; stroke: #ff7f0e; stroke-opacity: 0.8"/>
     <use xlink:href="#mdcfab760b6" x="1015.564322" y="598.418182" style="fill: #ff7f0e; fill-opacity: 0.8; stroke: #ff7f0e; stroke-opacity: 0.8"/>
     <use xlink:href="#mdcfab760b6" x="1034.70669" y="598.418182" style="fill: #ff7f0e; fill-opacity: 0.8; stroke: #ff7f0e; stroke-opacity: 0.8"/>
     <use xlink:href="#mdcfab760b6" x="1053.849057" y="581.236364" style="fill: #ff7f0e; fill-opacity: 0.8; stroke: #ff7f0e; stroke-opacity: 0.8"/>
     <use xlink:href="#mdcfab760b6" x="1072.991424" y="604.145455" style="fill: #ff7f0e; fill-opacity: 0.8; stroke: #ff7f0e; stroke-opacity: 0.8"/>
     <use xlink:href="#mdcfab760b6" x="1092.133791" y="609.872727" style="fill: #ff7f0e; fill-opacity: 0.8; stroke: #ff7f0e; stroke-opacity: 0.8"/>
     <use xlink:href="#mdcfab760b6" x="1111.276158" y="609.872727" style="fill: #ff7f0e; fill-opacity: 0.8; stroke: #ff7f0e; stroke-opacity: 0.8"/>
     <use xlink:href="#mdcfab760b6" x="1130.418525" y="609.872727" style="fill: #ff7f0e; fill-opacity: 0.8; stroke: #ff7f0e; stroke-opacity: 0.8"/>
     <use xlink:href="#mdcfab760b6" x="1149.560892" y="604.145455" style="fill: #ff7f0e; fill-opacity: 0.8; stroke: #ff7f0e; stroke-opacity: 0.8"/>
     <use xlink:href="#mdcfab760b6" x="1168.703259" y="604.145455" style="fill: #ff7f0e; fill-opacity: 0.8; stroke: #ff7f0e; stroke-opacity: 0.8"/>
     <use xlink:href="#mdcfab760b6" x="1187.845626" y="609.872727" style="fill: #ff7f0e; fill-opacity: 0.8; stroke: #ff7f0e; stroke-opacity: 0.8"/>
     <use xlink:href="#mdcfab760b6" x="1206.987993" y="598.418182" style="fill: #ff7f0e; fill-opacity: 0.8; stroke: #ff7f0e; stroke-opacity: 0.8"/>
     <use xlink:href="#mdcfab760b6" x="1226.13036" y="586.963636" style="fill: #ff7f0e; fill-opacity: 0.8; stroke: #ff7f0e; stroke-opacity: 0.8"/>
     <use xlink:href="#mdcfab760b6" x="1245.272727" y="592.690909" style="fill: #ff7f0e; fill-opacity: 0.8; stroke: #ff7f0e; stroke-opacity: 0.8"/>
    </g>
   </g>
   <g id="PolyCollection_2">
    <path d="M 230.727273 592.944582 
L 230.727273 603.110392 
L 240.975207 603.148498 
L 251.22314 603.141841 
L 261.471074 603.105309 
L 271.719008 603.070016 
L 281.966942 603.033197 
L 292.214876 602.997791 
L 302.46281 602.966361 
L 312.710744 602.944871 
L 322.958678 602.932398 
L 333.206612 602.931276 
L 343.454545 602.930154 
L 353.702479 602.929031 
L 363.950413 602.927185 
L 374.198347 602.911899 
L 384.446281 602.920775 
L 394.694215 602.912894 
L 404.942149 602.920969 
L 415.190083 602.920895 
L 425.438017 602.920194 
L 435.68595 602.918266 
L 445.933884 602.921021 
L 456.181818 602.934049 
L 466.429752 602.918876 
L 476.677686 602.946397 
L 486.92562 602.989154 
L 497.173554 602.995163 
L 507.421488 603.009036 
L 517.669421 603.047234 
L 527.917355 603.078416 
L 538.165289 603.102604 
L 548.413223 603.135254 
L 558.661157 603.14546 
L 568.909091 603.154379 
L 579.157025 603.163298 
L 589.404959 603.208442 
L 599.652893 603.247838 
L 609.900826 603.269872 
L 620.14876 603.292044 
L 630.396694 603.31498 
L 640.644628 603.355724 
L 650.892562 603.380229 
L 661.140496 603.382393 
L 671.38843 603.41412 
L 681.636364 603.47038 
L 691.884298 603.57304 
L 702.132231 603.620756 
L 712.380165 603.687649 
L 722.628099 603.719706 
L 732.876033 603.753604 
L 743.123967 603.809342 
L 753.371901 603.895136 
L 763.619835 603.965104 
L 773.867769 604.114581 
L 784.115702 604.224577 
L 794.363636 604.278243 
L 804.61157 604.324164 
L 814.859504 604.401058 
L 825.107438 604.506843 
L 835.355372 604.622008 
L 845.603306 604.75855 
L 855.85124 604.901432 
L 866.099174 605.012011 
L 876.347107 605.115373 
L 886.595041 605.255968 
L 896.842975 605.402336 
L 907.090909 605.532032 
L 917.338843 605.59616 
L 927.586777 605.733325 
L 937.834711 605.877495 
L 948.082645 606.020377 
L 958.330579 606.14172 
L 968.578512 606.241002 
L 978.826446 606.404867 
L 989.07438 606.56127 
L 999.322314 606.702816 
L 1009.570248 606.845772 
L 1019.818182 606.997273 
L 1030.066116 607.148774 
L 1040.31405 607.30263 
L 1050.561983 607.512469 
L 1060.809917 607.722307 
L 1071.057851 607.880889 
L 1081.305785 608.012753 
L 1091.553719 608.126768 
L 1101.801653 608.296149 
L 1112.049587 608.46655 
L 1122.297521 608.627304 
L 1132.545455 608.764559 
L 1142.793388 608.938924 
L 1153.041322 609.108144 
L 1163.289256 609.262112 
L 1173.53719 609.41608 
L 1183.785124 609.578985 
L 1194.033058 609.743684 
L 1204.280992 609.908384 
L 1214.528926 610.073083 
L 1224.77686 610.237745 
L 1235.024793 610.402323 
L 1245.272727 610.566901 
L 1245.272727 599.900483 
L 1245.272727 599.900483 
L 1235.024793 599.90957 
L 1224.77686 599.918596 
L 1214.528926 599.943796 
L 1204.280992 599.941518 
L 1194.033058 599.911118 
L 1183.785124 599.903379 
L 1173.53719 599.903258 
L 1163.289256 599.915428 
L 1153.041322 599.927193 
L 1142.793388 599.932403 
L 1132.545455 599.928025 
L 1122.297521 599.939581 
L 1112.049587 599.924958 
L 1101.801653 599.943216 
L 1091.553719 599.90784 
L 1081.305785 599.927823 
L 1071.057851 599.939106 
L 1060.809917 599.906715 
L 1050.561983 599.907489 
L 1040.31405 599.951483 
L 1030.066116 599.998781 
L 1019.818182 600.008804 
L 1009.570248 599.970331 
L 999.322314 599.985149 
L 989.07438 600.010837 
L 978.826446 600.025604 
L 968.578512 599.984208 
L 958.330579 599.934677 
L 948.082645 599.885114 
L 937.834711 599.834303 
L 927.586777 599.789562 
L 917.338843 599.792094 
L 907.090909 599.796538 
L 896.842975 599.762675 
L 886.595041 599.717931 
L 876.347107 599.675493 
L 866.099174 599.627478 
L 855.85124 599.573804 
L 845.603306 599.537436 
L 835.355372 599.492389 
L 825.107438 599.446843 
L 814.859504 599.362086 
L 804.61157 599.297715 
L 794.363636 599.263962 
L 784.115702 599.177845 
L 773.867769 599.111774 
L 763.619835 599.000683 
L 753.371901 598.944146 
L 743.123967 598.894737 
L 732.876033 598.863699 
L 722.628099 598.795573 
L 712.380165 598.739736 
L 702.132231 598.655728 
L 691.884298 598.580669 
L 681.636364 598.517186 
L 671.38843 598.402073 
L 661.140496 598.306683 
L 650.892562 598.19458 
L 640.644628 598.093651 
L 630.396694 598.032464 
L 620.14876 597.939886 
L 609.900826 597.83694 
L 599.652893 597.734866 
L 589.404959 597.633189 
L 579.157025 597.505996 
L 568.909091 597.375729 
L 558.661157 597.246075 
L 548.413223 597.14702 
L 538.165289 597.057219 
L 527.917355 596.912982 
L 517.669421 596.7422 
L 507.421488 596.599205 
L 497.173554 596.465397 
L 486.92562 596.36692 
L 476.677686 596.295385 
L 466.429752 596.184728 
L 456.181818 596.054739 
L 445.933884 595.906255 
L 435.68595 595.741326 
L 425.438017 595.576397 
L 415.190083 595.428574 
L 404.942149 595.295607 
L 394.694215 595.164869 
L 384.446281 595.034928 
L 374.198347 594.905362 
L 363.950413 594.775248 
L 353.702479 594.645408 
L 343.454545 594.503925 
L 333.206612 594.369436 
L 322.958678 594.19213 
L 312.710744 594.02882 
L 302.46281 593.844636 
L 292.214876 593.711773 
L 281.966942 593.568075 
L 271.719008 593.406332 
L 261.471074 593.320721 
L 251.22314 593.162801 
L 240.975207 593.060062 
L 230.727273 592.944582 
z
" clip-path="url(#p893c2f4758)" style="fill: #ff7f0e; fill-opacity: 0.15"/>
   </g>
   <g id="PathCollection_3">
    <defs>
     <path id="ma0a2674d1d" d="M 0 3 
C 0.795609 3 1.55874 2.683901 2.12132 2.12132 
C 2.683901 1.55874 3 0.795609 3 0 
C 3 -0.795609 2.683901 -1.55874 2.12132 -2.12132 
C 1.55874 -2.683901 0.795609 -3 0 -3 
C -0.795609 -3 -1.55874 -2.683901 -2.12132 -2.12132 
C -2.683901 -1.55874 -3 -0.795609 -3 0 
C -3 0.795609 -2.683901 1.55874 -2.12132 2.12132 
C -1.55874 2.683901 -0.795609 3 0 3 
z
" style="stroke: #2ca02c; stroke-opacity: 0.8"/>
    </defs>
    <g clip-path="url(#p893c2f4758)">
     <use xlink:href="#ma0a2674d1d" x="230.727273" y="443.781818" style="fill: #2ca02c; fill-opacity: 0.8; stroke: #2ca02c; stroke-opacity: 0.8"/>
     <use xlink:href="#ma0a2674d1d" x="249.86964" y="386.509091" style="fill: #2ca02c; fill-opacity: 0.8; stroke: #2ca02c; stroke-opacity: 0.8"/>
     <use xlink:href="#ma0a2674d1d" x="269.012007" y="449.509091" style="fill: #2ca02c; fill-opacity: 0.8; stroke: #2ca02c; stroke-opacity: 0.8"/>
     <use xlink:href="#ma0a2674d1d" x="288.154374" y="403.690909" style="fill: #2ca02c; fill-opacity: 0.8; stroke: #2ca02c; stroke-opacity: 0.8"/>
     <use xlink:href="#ma0a2674d1d" x="307.296741" y="438.054545" style="fill: #2ca02c; fill-opacity: 0.8; stroke: #2ca02c; stroke-opacity: 0.8"/>
     <use xlink:href="#ma0a2674d1d" x="326.439108" y="409.418182" style="fill: #2ca02c; fill-opacity: 0.8; stroke: #2ca02c; stroke-opacity: 0.8"/>
     <use xlink:href="#ma0a2674d1d" x="345.581475" y="460.963636" style="fill: #2ca02c; fill-opacity: 0.8; stroke: #2ca02c; stroke-opacity: 0.8"/>
     <use xlink:href="#ma0a2674d1d" x="364.723842" y="443.781818" style="fill: #2ca02c; fill-opacity: 0.8; stroke: #2ca02c; stroke-opacity: 0.8"/>
     <use xlink:href="#ma0a2674d1d" x="383.866209" y="455.236364" style="fill: #2ca02c; fill-opacity: 0.8; stroke: #2ca02c; stroke-opacity: 0.8"/>
     <use xlink:href="#ma0a2674d1d" x="403.008576" y="438.054545" style="fill: #2ca02c; fill-opacity: 0.8; stroke: #2ca02c; stroke-opacity: 0.8"/>
     <use xlink:href="#ma0a2674d1d" x="422.150943" y="426.6" style="fill: #2ca02c; fill-opacity: 0.8; stroke: #2ca02c; stroke-opacity: 0.8"/>
     <use xlink:href="#ma0a2674d1d" x="441.29331" y="415.145455" style="fill: #2ca02c; fill-opacity: 0.8; stroke: #2ca02c; stroke-opacity: 0.8"/>
     <use xlink:href="#ma0a2674d1d" x="460.435678" y="397.963636" style="fill: #2ca02c; fill-opacity: 0.8; stroke: #2ca02c; stroke-opacity: 0.8"/>
     <use xlink:href="#ma0a2674d1d" x="479.578045" y="478.145455" style="fill: #2ca02c; fill-opacity: 0.8; stroke: #2ca02c; stroke-opacity: 0.8"/>
     <use xlink:href="#ma0a2674d1d" x="498.720412" y="420.872727" style="fill: #2ca02c; fill-opacity: 0.8; stroke: #2ca02c; stroke-opacity: 0.8"/>
     <use xlink:href="#ma0a2674d1d" x="517.862779" y="375.054545" style="fill: #2ca02c; fill-opacity: 0.8; stroke: #2ca02c; stroke-opacity: 0.8"/>
     <use xlink:href="#ma0a2674d1d" x="537.005146" y="460.963636" style="fill: #2ca02c; fill-opacity: 0.8; stroke: #2ca02c; stroke-opacity: 0.8"/>
     <use xlink:href="#ma0a2674d1d" x="556.147513" y="495.327273" style="fill: #2ca02c; fill-opacity: 0.8; stroke: #2ca02c; stroke-opacity: 0.8"/>
     <use xlink:href="#ma0a2674d1d" x="575.28988" y="426.6" style="fill: #2ca02c; fill-opacity: 0.8; stroke: #2ca02c; stroke-opacity: 0.8"/>
     <use xlink:href="#ma0a2674d1d" x="594.432247" y="409.418182" style="fill: #2ca02c; fill-opacity: 0.8; stroke: #2ca02c; stroke-opacity: 0.8"/>
     <use xlink:href="#ma0a2674d1d" x="613.574614" y="460.963636" style="fill: #2ca02c; fill-opacity: 0.8; stroke: #2ca02c; stroke-opacity: 0.8"/>
     <use xlink:href="#ma0a2674d1d" x="632.716981" y="426.6" style="fill: #2ca02c; fill-opacity: 0.8; stroke: #2ca02c; stroke-opacity: 0.8"/>
     <use xlink:href="#ma0a2674d1d" x="651.859348" y="426.6" style="fill: #2ca02c; fill-opacity: 0.8; stroke: #2ca02c; stroke-opacity: 0.8"/>
     <use xlink:href="#ma0a2674d1d" x="671.001715" y="415.145455" style="fill: #2ca02c; fill-opacity: 0.8; stroke: #2ca02c; stroke-opacity: 0.8"/>
     <use xlink:href="#ma0a2674d1d" x="690.144082" y="369.327273" style="fill: #2ca02c; fill-opacity: 0.8; stroke: #2ca02c; stroke-opacity: 0.8"/>
     <use xlink:href="#ma0a2674d1d" x="709.286449" y="472.418182" style="fill: #2ca02c; fill-opacity: 0.8; stroke: #2ca02c; stroke-opacity: 0.8"/>
     <use xlink:href="#ma0a2674d1d" x="728.428816" y="443.781818" style="fill: #2ca02c; fill-opacity: 0.8; stroke: #2ca02c; stroke-opacity: 0.8"/>
     <use xlink:href="#ma0a2674d1d" x="747.571184" y="415.145455" style="fill: #2ca02c; fill-opacity: 0.8; stroke: #2ca02c; stroke-opacity: 0.8"/>
     <use xlink:href="#ma0a2674d1d" x="766.713551" y="415.145455" style="fill: #2ca02c; fill-opacity: 0.8; stroke: #2ca02c; stroke-opacity: 0.8"/>
     <use xlink:href="#ma0a2674d1d" x="785.855918" y="426.6" style="fill: #2ca02c; fill-opacity: 0.8; stroke: #2ca02c; stroke-opacity: 0.8"/>
     <use xlink:href="#ma0a2674d1d" x="804.998285" y="460.963636" style="fill: #2ca02c; fill-opacity: 0.8; stroke: #2ca02c; stroke-opacity: 0.8"/>
     <use xlink:href="#ma0a2674d1d" x="824.140652" y="386.509091" style="fill: #2ca02c; fill-opacity: 0.8; stroke: #2ca02c; stroke-opacity: 0.8"/>
     <use xlink:href="#ma0a2674d1d" x="843.283019" y="409.418182" style="fill: #2ca02c; fill-opacity: 0.8; stroke: #2ca02c; stroke-opacity: 0.8"/>
     <use xlink:href="#ma0a2674d1d" x="862.425386" y="409.418182" style="fill: #2ca02c; fill-opacity: 0.8; stroke: #2ca02c; stroke-opacity: 0.8"/>
     <use xlink:href="#ma0a2674d1d" x="881.567753" y="403.690909" style="fill: #2ca02c; fill-opacity: 0.8; stroke: #2ca02c; stroke-opacity: 0.8"/>
     <use xlink:href="#ma0a2674d1d" x="900.71012" y="426.6" style="fill: #2ca02c; fill-opacity: 0.8; stroke: #2ca02c; stroke-opacity: 0.8"/>
     <use xlink:href="#ma0a2674d1d" x="919.852487" y="375.054545" style="fill: #2ca02c; fill-opacity: 0.8; stroke: #2ca02c; stroke-opacity: 0.8"/>
     <use xlink:href="#ma0a2674d1d" x="938.994854" y="443.781818" style="fill: #2ca02c; fill-opacity: 0.8; stroke: #2ca02c; stroke-opacity: 0.8"/>
     <use xlink:href="#ma0a2674d1d" x="958.137221" y="397.963636" style="fill: #2ca02c; fill-opacity: 0.8; stroke: #2ca02c; stroke-opacity: 0.8"/>
     <use xlink:href="#ma0a2674d1d" x="977.279588" y="478.145455" style="fill: #2ca02c; fill-opacity: 0.8; stroke: #2ca02c; stroke-opacity: 0.8"/>
     <use xlink:href="#ma0a2674d1d" x="996.421955" y="466.690909" style="fill: #2ca02c; fill-opacity: 0.8; stroke: #2ca02c; stroke-opacity: 0.8"/>
     <use xlink:href="#ma0a2674d1d" x="1015.564322" y="472.418182" style="fill: #2ca02c; fill-opacity: 0.8; stroke: #2ca02c; stroke-opacity: 0.8"/>
     <use xlink:href="#ma0a2674d1d" x="1034.70669" y="426.6" style="fill: #2ca02c; fill-opacity: 0.8; stroke: #2ca02c; stroke-opacity: 0.8"/>
     <use xlink:href="#ma0a2674d1d" x="1053.849057" y="466.690909" style="fill: #2ca02c; fill-opacity: 0.8; stroke: #2ca02c; stroke-opacity: 0.8"/>
     <use xlink:href="#ma0a2674d1d" x="1072.991424" y="443.781818" style="fill: #2ca02c; fill-opacity: 0.8; stroke: #2ca02c; stroke-opacity: 0.8"/>
     <use xlink:href="#ma0a2674d1d" x="1092.133791" y="455.236364" style="fill: #2ca02c; fill-opacity: 0.8; stroke: #2ca02c; stroke-opacity: 0.8"/>
     <use xlink:href="#ma0a2674d1d" x="1111.276158" y="397.963636" style="fill: #2ca02c; fill-opacity: 0.8; stroke: #2ca02c; stroke-opacity: 0.8"/>
     <use xlink:href="#ma0a2674d1d" x="1130.418525" y="420.872727" style="fill: #2ca02c; fill-opacity: 0.8; stroke: #2ca02c; stroke-opacity: 0.8"/>
     <use xlink:href="#ma0a2674d1d" x="1149.560892" y="472.418182" style="fill: #2ca02c; fill-opacity: 0.8; stroke: #2ca02c; stroke-opacity: 0.8"/>
     <use xlink:href="#ma0a2674d1d" x="1168.703259" y="460.963636" style="fill: #2ca02c; fill-opacity: 0.8; stroke: #2ca02c; stroke-opacity: 0.8"/>
     <use xlink:href="#ma0a2674d1d" x="1187.845626" y="443.781818" style="fill: #2ca02c; fill-opacity: 0.8; stroke: #2ca02c; stroke-opacity: 0.8"/>
     <use xlink:href="#ma0a2674d1d" x="1206.987993" y="438.054545" style="fill: #2ca02c; fill-opacity: 0.8; stroke: #2ca02c; stroke-opacity: 0.8"/>
     <use xlink:href="#ma0a2674d1d" x="1226.13036" y="472.418182" style="fill: #2ca02c; fill-opacity: 0.8; stroke: #2ca02c; stroke-opacity: 0.8"/>
     <use xlink:href="#ma0a2674d1d" x="1245.272727" y="420.872727" style="fill: #2ca02c; fill-opacity: 0.8; stroke: #2ca02c; stroke-opacity: 0.8"/>
    </g>
   </g>
   <g id="PolyCollection_3">
    <path d="M 230.727273 410.27234 
L 230.727273 440.781261 
L 240.975207 440.793736 
L 251.22314 440.778241 
L 261.471074 440.651396 
L 271.719008 440.519053 
L 281.966942 440.568672 
L 292.214876 440.499787 
L 302.46281 440.428926 
L 312.710744 440.358064 
L 322.958678 440.288466 
L 333.206612 440.190014 
L 343.454545 440.071392 
L 353.702479 439.953127 
L 363.950413 439.855547 
L 374.198347 439.880373 
L 384.446281 439.73262 
L 394.694215 439.578127 
L 404.942149 439.491336 
L 415.190083 439.442932 
L 425.438017 439.387323 
L 435.68595 439.349956 
L 445.933884 439.304255 
L 456.181818 439.296399 
L 466.429752 439.27066 
L 476.677686 439.238593 
L 486.92562 439.168426 
L 497.173554 439.183823 
L 507.421488 439.211839 
L 517.669421 439.185956 
L 527.917355 439.091515 
L 538.165289 439.192652 
L 548.413223 439.299616 
L 558.661157 439.258888 
L 568.909091 439.158605 
L 579.157025 439.058322 
L 589.404959 439.042818 
L 599.652893 439.238323 
L 609.900826 439.433129 
L 620.14876 439.442523 
L 630.396694 439.405223 
L 640.644628 439.42757 
L 650.892562 439.378796 
L 661.140496 439.338185 
L 671.38843 439.297573 
L 681.636364 439.471344 
L 691.884298 439.676989 
L 702.132231 439.772128 
L 712.380165 439.749723 
L 722.628099 439.824647 
L 732.876033 439.908746 
L 743.123967 440.017752 
L 753.371901 440.244698 
L 763.619835 440.317776 
L 773.867769 440.467788 
L 784.115702 440.656162 
L 794.363636 440.8487 
L 804.61157 441.055702 
L 814.859504 441.298674 
L 825.107438 441.468273 
L 835.355372 441.529797 
L 845.603306 441.588978 
L 855.85124 441.654721 
L 866.099174 441.789443 
L 876.347107 441.994187 
L 886.595041 442.224236 
L 896.842975 442.487802 
L 907.090909 442.696363 
L 917.338843 442.910426 
L 927.586777 443.283229 
L 937.834711 443.525369 
L 948.082645 443.841114 
L 958.330579 444.154424 
L 968.578512 444.439885 
L 978.826446 444.662152 
L 989.07438 444.925278 
L 999.322314 445.13796 
L 1009.570248 445.410185 
L 1019.818182 445.758273 
L 1030.066116 446.035889 
L 1040.31405 446.249982 
L 1050.561983 446.561103 
L 1060.809917 446.82825 
L 1071.057851 447.092072 
L 1081.305785 447.384964 
L 1091.553719 447.752539 
L 1101.801653 448.009341 
L 1112.049587 448.293319 
L 1122.297521 448.506756 
L 1132.545455 448.786572 
L 1142.793388 449.197597 
L 1153.041322 449.472998 
L 1163.289256 449.821488 
L 1173.53719 450.059642 
L 1183.785124 450.357186 
L 1194.033058 450.626998 
L 1204.280992 450.987295 
L 1214.528926 451.347742 
L 1224.77686 451.7089 
L 1235.024793 452.054437 
L 1245.272727 452.412782 
L 1245.272727 424.03393 
L 1245.272727 424.03393 
L 1235.024793 424.132904 
L 1224.77686 424.197988 
L 1214.528926 424.162523 
L 1204.280992 424.202212 
L 1194.033058 424.205538 
L 1183.785124 424.28064 
L 1173.53719 424.356305 
L 1163.289256 424.303659 
L 1153.041322 424.383255 
L 1142.793388 424.36974 
L 1132.545455 424.413044 
L 1122.297521 424.44533 
L 1112.049587 424.482308 
L 1101.801653 424.520485 
L 1091.553719 424.627171 
L 1081.305785 424.714293 
L 1071.057851 424.674359 
L 1060.809917 424.806849 
L 1050.561983 424.824349 
L 1040.31405 424.807556 
L 1030.066116 424.809482 
L 1019.818182 424.875457 
L 1009.570248 424.942918 
L 999.322314 425.008773 
L 989.07438 425.073383 
L 978.826446 424.979408 
L 968.578512 424.969685 
L 958.330579 424.934117 
L 948.082645 424.97141 
L 937.834711 425.006096 
L 927.586777 425.042431 
L 917.338843 425.079222 
L 907.090909 425.113359 
L 896.842975 425.144282 
L 886.595041 424.931095 
L 876.347107 424.884041 
L 866.099174 425.035458 
L 855.85124 425.055633 
L 845.603306 424.977325 
L 835.355372 424.886386 
L 825.107438 424.750869 
L 814.859504 424.664219 
L 804.61157 424.583516 
L 794.363636 424.612734 
L 784.115702 424.513294 
L 773.867769 424.34075 
L 763.619835 424.252567 
L 753.371901 424.176431 
L 743.123967 424.168117 
L 732.876033 424.115635 
L 722.628099 423.973092 
L 712.380165 423.919245 
L 702.132231 423.75219 
L 691.884298 423.598867 
L 681.636364 423.437153 
L 671.38843 423.039469 
L 661.140496 422.912164 
L 650.892562 422.752774 
L 640.644628 422.540106 
L 630.396694 422.259293 
L 620.14876 421.984539 
L 609.900826 421.925598 
L 599.652893 421.83881 
L 589.404959 421.528734 
L 579.157025 421.425502 
L 568.909091 421.030684 
L 558.661157 420.864565 
L 548.413223 420.611245 
L 538.165289 420.380717 
L 527.917355 420.035833 
L 517.669421 419.705021 
L 507.421488 419.366457 
L 497.173554 419.02837 
L 486.92562 418.687881 
L 476.677686 418.307949 
L 466.429752 417.945304 
L 456.181818 417.611713 
L 445.933884 417.27717 
L 435.68595 416.999849 
L 425.438017 416.663019 
L 415.190083 416.324613 
L 404.942149 415.986008 
L 394.694215 415.651476 
L 384.446281 415.309416 
L 374.198347 415.008345 
L 363.950413 414.747932 
L 353.702479 414.433073 
L 343.454545 414.103729 
L 333.206612 413.728993 
L 322.958678 413.375775 
L 312.710744 413.022638 
L 302.46281 412.670861 
L 292.214876 412.319105 
L 281.966942 411.988986 
L 271.719008 411.766549 
L 261.471074 411.454267 
L 251.22314 411.033099 
L 240.975207 410.651336 
L 230.727273 410.27234 
z
" clip-path="url(#p893c2f4758)" style="fill: #2ca02c; fill-opacity: 0.15"/>
   </g>
   <g id="matplotlib.axis_1">
    <g id="xtick_1">
     <g id="line2d_1">
      <defs>
       <path id="md0055f2f1a" d="M 0 0 
L 0 3.5 
" style="stroke: #000000; stroke-width: 0.8"/>
      </defs>
      <g>
       <use xlink:href="#md0055f2f1a" x="211.584906" y="640.8" style="stroke: #000000; stroke-width: 0.8"/>
      </g>
     </g>
     <g id="text_1">
      <!-- 0 -->
      <g transform="translate(208.403656 655.398438) scale(0.1 -0.1)">
       <defs>
        <path id="DejaVuSans-30" d="M 2034 4250 
Q 1547 4250 1301 3770 
Q 1056 3291 1056 2328 
Q 1056 1369 1301 889 
Q 1547 409 2034 409 
Q 2525 409 2770 889 
Q 3016 1369 3016 2328 
Q 3016 3291 2770 3770 
Q 2525 4250 2034 4250 
z
M 2034 4750 
Q 2819 4750 3233 4129 
Q 3647 3509 3647 2328 
Q 3647 1150 3233 529 
Q 2819 -91 2034 -91 
Q 1250 -91 836 529 
Q 422 1150 422 2328 
Q 422 3509 836 4129 
Q 1250 4750 2034 4750 
z
" transform="scale(0.015625)"/>
       </defs>
       <use xlink:href="#DejaVuSans-30"/>
      </g>
     </g>
    </g>
    <g id="xtick_2">
     <g id="line2d_2">
      <g>
       <use xlink:href="#md0055f2f1a" x="556.147513" y="640.8" style="stroke: #000000; stroke-width: 0.8"/>
      </g>
     </g>
     <g id="text_2">
      <!-- 18 -->
      <g transform="translate(549.785013 655.398438) scale(0.1 -0.1)">
       <defs>
        <path id="DejaVuSans-31" d="M 794 531 
L 1825 531 
L 1825 4091 
L 703 3866 
L 703 4441 
L 1819 4666 
L 2450 4666 
L 2450 531 
L 3481 531 
L 3481 0 
L 794 0 
L 794 531 
z
" transform="scale(0.015625)"/>
        <path id="DejaVuSans-38" d="M 2034 2216 
Q 1584 2216 1326 1975 
Q 1069 1734 1069 1313 
Q 1069 891 1326 650 
Q 1584 409 2034 409 
Q 2484 409 2743 651 
Q 3003 894 3003 1313 
Q 3003 1734 2745 1975 
Q 2488 2216 2034 2216 
z
M 1403 2484 
Q 997 2584 770 2862 
Q 544 3141 544 3541 
Q 544 4100 942 4425 
Q 1341 4750 2034 4750 
Q 2731 4750 3128 4425 
Q 3525 4100 3525 3541 
Q 3525 3141 3298 2862 
Q 3072 2584 2669 2484 
Q 3125 2378 3379 2068 
Q 3634 1759 3634 1313 
Q 3634 634 3220 271 
Q 2806 -91 2034 -91 
Q 1263 -91 848 271 
Q 434 634 434 1313 
Q 434 1759 690 2068 
Q 947 2378 1403 2484 
z
M 1172 3481 
Q 1172 3119 1398 2916 
Q 1625 2713 2034 2713 
Q 2441 2713 2670 2916 
Q 2900 3119 2900 3481 
Q 2900 3844 2670 4047 
Q 2441 4250 2034 4250 
Q 1625 4250 1398 4047 
Q 1172 3844 1172 3481 
z
" transform="scale(0.015625)"/>
       </defs>
       <use xlink:href="#DejaVuSans-31"/>
       <use xlink:href="#DejaVuSans-38" x="63.623047"/>
      </g>
     </g>
    </g>
    <g id="xtick_3">
     <g id="line2d_3">
      <g>
       <use xlink:href="#md0055f2f1a" x="900.71012" y="640.8" style="stroke: #000000; stroke-width: 0.8"/>
      </g>
     </g>
     <g id="text_3">
      <!-- 36 -->
      <g transform="translate(894.34762 655.398438) scale(0.1 -0.1)">
       <defs>
        <path id="DejaVuSans-33" d="M 2597 2516 
Q 3050 2419 3304 2112 
Q 3559 1806 3559 1356 
Q 3559 666 3084 287 
Q 2609 -91 1734 -91 
Q 1441 -91 1130 -33 
Q 819 25 488 141 
L 488 750 
Q 750 597 1062 519 
Q 1375 441 1716 441 
Q 2309 441 2620 675 
Q 2931 909 2931 1356 
Q 2931 1769 2642 2001 
Q 2353 2234 1838 2234 
L 1294 2234 
L 1294 2753 
L 1863 2753 
Q 2328 2753 2575 2939 
Q 2822 3125 2822 3475 
Q 2822 3834 2567 4026 
Q 2313 4219 1838 4219 
Q 1578 4219 1281 4162 
Q 984 4106 628 3988 
L 628 4550 
Q 988 4650 1302 4700 
Q 1616 4750 1894 4750 
Q 2613 4750 3031 4423 
Q 3450 4097 3450 3541 
Q 3450 3153 3228 2886 
Q 3006 2619 2597 2516 
z
" transform="scale(0.015625)"/>
        <path id="DejaVuSans-36" d="M 2113 2584 
Q 1688 2584 1439 2293 
Q 1191 2003 1191 1497 
Q 1191 994 1439 701 
Q 1688 409 2113 409 
Q 2538 409 2786 701 
Q 3034 994 3034 1497 
Q 3034 2003 2786 2293 
Q 2538 2584 2113 2584 
z
M 3366 4563 
L 3366 3988 
Q 3128 4100 2886 4159 
Q 2644 4219 2406 4219 
Q 1781 4219 1451 3797 
Q 1122 3375 1075 2522 
Q 1259 2794 1537 2939 
Q 1816 3084 2150 3084 
Q 2853 3084 3261 2657 
Q 3669 2231 3669 1497 
Q 3669 778 3244 343 
Q 2819 -91 2113 -91 
Q 1303 -91 875 529 
Q 447 1150 447 2328 
Q 447 3434 972 4092 
Q 1497 4750 2381 4750 
Q 2619 4750 2861 4703 
Q 3103 4656 3366 4563 
z
" transform="scale(0.015625)"/>
       </defs>
       <use xlink:href="#DejaVuSans-33"/>
       <use xlink:href="#DejaVuSans-36" x="63.623047"/>
      </g>
     </g>
    </g>
    <g id="xtick_4">
     <g id="line2d_4">
      <g>
       <use xlink:href="#md0055f2f1a" x="1245.272727" y="640.8" style="stroke: #000000; stroke-width: 0.8"/>
      </g>
     </g>
     <g id="text_4">
      <!-- 54 -->
      <g transform="translate(1238.910227 655.398438) scale(0.1 -0.1)">
       <defs>
        <path id="DejaVuSans-35" d="M 691 4666 
L 3169 4666 
L 3169 4134 
L 1269 4134 
L 1269 2991 
Q 1406 3038 1543 3061 
Q 1681 3084 1819 3084 
Q 2600 3084 3056 2656 
Q 3513 2228 3513 1497 
Q 3513 744 3044 326 
Q 2575 -91 1722 -91 
Q 1428 -91 1123 -41 
Q 819 9 494 109 
L 494 744 
Q 775 591 1075 516 
Q 1375 441 1709 441 
Q 2250 441 2565 725 
Q 2881 1009 2881 1497 
Q 2881 1984 2565 2268 
Q 2250 2553 1709 2553 
Q 1456 2553 1204 2497 
Q 953 2441 691 2322 
L 691 4666 
z
" transform="scale(0.015625)"/>
        <path id="DejaVuSans-34" d="M 2419 4116 
L 825 1625 
L 2419 1625 
L 2419 4116 
z
M 2253 4666 
L 3047 4666 
L 3047 1625 
L 3713 1625 
L 3713 1100 
L 3047 1100 
L 3047 0 
L 2419 0 
L 2419 1100 
L 313 1100 
L 313 1709 
L 2253 4666 
z
" transform="scale(0.015625)"/>
       </defs>
       <use xlink:href="#DejaVuSans-35"/>
       <use xlink:href="#DejaVuSans-34" x="63.623047"/>
      </g>
     </g>
    </g>
    <g id="text_5">
     <!-- Task Index -->
     <g transform="translate(711.851562 669.076563) scale(0.1 -0.1)">
      <defs>
       <path id="DejaVuSans-54" d="M -19 4666 
L 3928 4666 
L 3928 4134 
L 2272 4134 
L 2272 0 
L 1638 0 
L 1638 4134 
L -19 4134 
L -19 4666 
z
" transform="scale(0.015625)"/>
       <path id="DejaVuSans-61" d="M 2194 1759 
Q 1497 1759 1228 1600 
Q 959 1441 959 1056 
Q 959 750 1161 570 
Q 1363 391 1709 391 
Q 2188 391 2477 730 
Q 2766 1069 2766 1631 
L 2766 1759 
L 2194 1759 
z
M 3341 1997 
L 3341 0 
L 2766 0 
L 2766 531 
Q 2569 213 2275 61 
Q 1981 -91 1556 -91 
Q 1019 -91 701 211 
Q 384 513 384 1019 
Q 384 1609 779 1909 
Q 1175 2209 1959 2209 
L 2766 2209 
L 2766 2266 
Q 2766 2663 2505 2880 
Q 2244 3097 1772 3097 
Q 1472 3097 1187 3025 
Q 903 2953 641 2809 
L 641 3341 
Q 956 3463 1253 3523 
Q 1550 3584 1831 3584 
Q 2591 3584 2966 3190 
Q 3341 2797 3341 1997 
z
" transform="scale(0.015625)"/>
       <path id="DejaVuSans-73" d="M 2834 3397 
L 2834 2853 
Q 2591 2978 2328 3040 
Q 2066 3103 1784 3103 
Q 1356 3103 1142 2972 
Q 928 2841 928 2578 
Q 928 2378 1081 2264 
Q 1234 2150 1697 2047 
L 1894 2003 
Q 2506 1872 2764 1633 
Q 3022 1394 3022 966 
Q 3022 478 2636 193 
Q 2250 -91 1575 -91 
Q 1294 -91 989 -36 
Q 684 19 347 128 
L 347 722 
Q 666 556 975 473 
Q 1284 391 1588 391 
Q 1994 391 2212 530 
Q 2431 669 2431 922 
Q 2431 1156 2273 1281 
Q 2116 1406 1581 1522 
L 1381 1569 
Q 847 1681 609 1914 
Q 372 2147 372 2553 
Q 372 3047 722 3315 
Q 1072 3584 1716 3584 
Q 2034 3584 2315 3537 
Q 2597 3491 2834 3397 
z
" transform="scale(0.015625)"/>
       <path id="DejaVuSans-6b" d="M 581 4863 
L 1159 4863 
L 1159 1991 
L 2875 3500 
L 3609 3500 
L 1753 1863 
L 3688 0 
L 2938 0 
L 1159 1709 
L 1159 0 
L 581 0 
L 581 4863 
z
" transform="scale(0.015625)"/>
       <path id="DejaVuSans-20" transform="scale(0.015625)"/>
       <path id="DejaVuSans-49" d="M 628 4666 
L 1259 4666 
L 1259 0 
L 628 0 
L 628 4666 
z
" transform="scale(0.015625)"/>
       <path id="DejaVuSans-6e" d="M 3513 2113 
L 3513 0 
L 2938 0 
L 2938 2094 
Q 2938 2591 2744 2837 
Q 2550 3084 2163 3084 
Q 1697 3084 1428 2787 
Q 1159 2491 1159 1978 
L 1159 0 
L 581 0 
L 581 3500 
L 1159 3500 
L 1159 2956 
Q 1366 3272 1645 3428 
Q 1925 3584 2291 3584 
Q 2894 3584 3203 3211 
Q 3513 2838 3513 2113 
z
" transform="scale(0.015625)"/>
       <path id="DejaVuSans-64" d="M 2906 2969 
L 2906 4863 
L 3481 4863 
L 3481 0 
L 2906 0 
L 2906 525 
Q 2725 213 2448 61 
Q 2172 -91 1784 -91 
Q 1150 -91 751 415 
Q 353 922 353 1747 
Q 353 2572 751 3078 
Q 1150 3584 1784 3584 
Q 2172 3584 2448 3432 
Q 2725 3281 2906 2969 
z
M 947 1747 
Q 947 1113 1208 752 
Q 1469 391 1925 391 
Q 2381 391 2643 752 
Q 2906 1113 2906 1747 
Q 2906 2381 2643 2742 
Q 2381 3103 1925 3103 
Q 1469 3103 1208 2742 
Q 947 2381 947 1747 
z
" transform="scale(0.015625)"/>
       <path id="DejaVuSans-65" d="M 3597 1894 
L 3597 1613 
L 953 1613 
Q 991 1019 1311 708 
Q 1631 397 2203 397 
Q 2534 397 2845 478 
Q 3156 559 3463 722 
L 3463 178 
Q 3153 47 2828 -22 
Q 2503 -91 2169 -91 
Q 1331 -91 842 396 
Q 353 884 353 1716 
Q 353 2575 817 3079 
Q 1281 3584 2069 3584 
Q 2775 3584 3186 3129 
Q 3597 2675 3597 1894 
z
M 3022 2063 
Q 3016 2534 2758 2815 
Q 2500 3097 2075 3097 
Q 1594 3097 1305 2825 
Q 1016 2553 972 2059 
L 3022 2063 
z
" transform="scale(0.015625)"/>
       <path id="DejaVuSans-78" d="M 3513 3500 
L 2247 1797 
L 3578 0 
L 2900 0 
L 1881 1375 
L 863 0 
L 184 0 
L 1544 1831 
L 300 3500 
L 978 3500 
L 1906 2253 
L 2834 3500 
L 3513 3500 
z
" transform="scale(0.015625)"/>
      </defs>
      <use xlink:href="#DejaVuSans-54"/>
      <use xlink:href="#DejaVuSans-61" x="44.583984"/>
      <use xlink:href="#DejaVuSans-73" x="105.863281"/>
      <use xlink:href="#DejaVuSans-6b" x="157.962891"/>
      <use xlink:href="#DejaVuSans-20" x="215.873047"/>
      <use xlink:href="#DejaVuSans-49" x="247.660156"/>
      <use xlink:href="#DejaVuSans-6e" x="277.152344"/>
      <use xlink:href="#DejaVuSans-64" x="340.53125"/>
      <use xlink:href="#DejaVuSans-65" x="404.007812"/>
      <use xlink:href="#DejaVuSans-78" x="463.78125"/>
     </g>
    </g>
   </g>
   <g id="matplotlib.axis_2">
    <g id="ytick_1">
     <g id="line2d_5">
      <defs>
       <path id="m936d270107" d="M 0 0 
L -3.5 0 
" style="stroke: #000000; stroke-width: 0.8"/>
      </defs>
      <g>
       <use xlink:href="#m936d270107" x="180" y="615.6" style="stroke: #000000; stroke-width: 0.8"/>
      </g>
     </g>
     <g id="text_6">
      <!-- 0.0 -->
      <g transform="translate(157.096875 619.399219) scale(0.1 -0.1)">
       <defs>
        <path id="DejaVuSans-2e" d="M 684 794 
L 1344 794 
L 1344 0 
L 684 0 
L 684 794 
z
" transform="scale(0.015625)"/>
       </defs>
       <use xlink:href="#DejaVuSans-30"/>
       <use xlink:href="#DejaVuSans-2e" x="63.623047"/>
       <use xlink:href="#DejaVuSans-30" x="95.410156"/>
      </g>
     </g>
    </g>
    <g id="ytick_2">
     <g id="line2d_6">
      <g>
       <use xlink:href="#m936d270107" x="180" y="549.736364" style="stroke: #000000; stroke-width: 0.8"/>
      </g>
     </g>
     <g id="text_7">
      <!-- 0.1 -->
      <g transform="translate(157.096875 553.535582) scale(0.1 -0.1)">
       <use xlink:href="#DejaVuSans-30"/>
       <use xlink:href="#DejaVuSans-2e" x="63.623047"/>
       <use xlink:href="#DejaVuSans-31" x="95.410156"/>
      </g>
     </g>
    </g>
    <g id="ytick_3">
     <g id="line2d_7">
      <g>
       <use xlink:href="#m936d270107" x="180" y="483.872727" style="stroke: #000000; stroke-width: 0.8"/>
      </g>
     </g>
     <g id="text_8">
      <!-- 0.2 -->
      <g transform="translate(157.096875 487.671946) scale(0.1 -0.1)">
       <defs>
        <path id="DejaVuSans-32" d="M 1228 531 
L 3431 531 
L 3431 0 
L 469 0 
L 469 531 
Q 828 903 1448 1529 
Q 2069 2156 2228 2338 
Q 2531 2678 2651 2914 
Q 2772 3150 2772 3378 
Q 2772 3750 2511 3984 
Q 2250 4219 1831 4219 
Q 1534 4219 1204 4116 
Q 875 4013 500 3803 
L 500 4441 
Q 881 4594 1212 4672 
Q 1544 4750 1819 4750 
Q 2544 4750 2975 4387 
Q 3406 4025 3406 3419 
Q 3406 3131 3298 2873 
Q 3191 2616 2906 2266 
Q 2828 2175 2409 1742 
Q 1991 1309 1228 531 
z
" transform="scale(0.015625)"/>
       </defs>
       <use xlink:href="#DejaVuSans-30"/>
       <use xlink:href="#DejaVuSans-2e" x="63.623047"/>
       <use xlink:href="#DejaVuSans-32" x="95.410156"/>
      </g>
     </g>
    </g>
    <g id="ytick_4">
     <g id="line2d_8">
      <g>
       <use xlink:href="#m936d270107" x="180" y="418.009091" style="stroke: #000000; stroke-width: 0.8"/>
      </g>
     </g>
     <g id="text_9">
      <!-- 0.3 -->
      <g transform="translate(157.096875 421.80831) scale(0.1 -0.1)">
       <use xlink:href="#DejaVuSans-30"/>
       <use xlink:href="#DejaVuSans-2e" x="63.623047"/>
       <use xlink:href="#DejaVuSans-33" x="95.410156"/>
      </g>
     </g>
    </g>
    <g id="ytick_5">
     <g id="line2d_9">
      <g>
       <use xlink:href="#m936d270107" x="180" y="352.145455" style="stroke: #000000; stroke-width: 0.8"/>
      </g>
     </g>
     <g id="text_10">
      <!-- 0.4 -->
      <g transform="translate(157.096875 355.944673) scale(0.1 -0.1)">
       <use xlink:href="#DejaVuSans-30"/>
       <use xlink:href="#DejaVuSans-2e" x="63.623047"/>
       <use xlink:href="#DejaVuSans-34" x="95.410156"/>
      </g>
     </g>
    </g>
    <g id="ytick_6">
     <g id="line2d_10">
      <g>
       <use xlink:href="#m936d270107" x="180" y="286.281818" style="stroke: #000000; stroke-width: 0.8"/>
      </g>
     </g>
     <g id="text_11">
      <!-- 0.5 -->
      <g transform="translate(157.096875 290.081037) scale(0.1 -0.1)">
       <use xlink:href="#DejaVuSans-30"/>
       <use xlink:href="#DejaVuSans-2e" x="63.623047"/>
       <use xlink:href="#DejaVuSans-35" x="95.410156"/>
      </g>
     </g>
    </g>
    <g id="ytick_7">
     <g id="line2d_11">
      <g>
       <use xlink:href="#m936d270107" x="180" y="220.418182" style="stroke: #000000; stroke-width: 0.8"/>
      </g>
     </g>
     <g id="text_12">
      <!-- 0.6 -->
      <g transform="translate(157.096875 224.217401) scale(0.1 -0.1)">
       <use xlink:href="#DejaVuSans-30"/>
       <use xlink:href="#DejaVuSans-2e" x="63.623047"/>
       <use xlink:href="#DejaVuSans-36" x="95.410156"/>
      </g>
     </g>
    </g>
    <g id="ytick_8">
     <g id="line2d_12">
      <g>
       <use xlink:href="#m936d270107" x="180" y="154.554545" style="stroke: #000000; stroke-width: 0.8"/>
      </g>
     </g>
     <g id="text_13">
      <!-- 0.7 -->
      <g transform="translate(157.096875 158.353764) scale(0.1 -0.1)">
       <defs>
        <path id="DejaVuSans-37" d="M 525 4666 
L 3525 4666 
L 3525 4397 
L 1831 0 
L 1172 0 
L 2766 4134 
L 525 4134 
L 525 4666 
z
" transform="scale(0.015625)"/>
       </defs>
       <use xlink:href="#DejaVuSans-30"/>
       <use xlink:href="#DejaVuSans-2e" x="63.623047"/>
       <use xlink:href="#DejaVuSans-37" x="95.410156"/>
      </g>
     </g>
    </g>
    <g id="ytick_9">
     <g id="line2d_13">
      <g>
       <use xlink:href="#m936d270107" x="180" y="88.690909" style="stroke: #000000; stroke-width: 0.8"/>
      </g>
     </g>
     <g id="text_14">
      <!-- 0.8 -->
      <g transform="translate(157.096875 92.490128) scale(0.1 -0.1)">
       <use xlink:href="#DejaVuSans-30"/>
       <use xlink:href="#DejaVuSans-2e" x="63.623047"/>
       <use xlink:href="#DejaVuSans-38" x="95.410156"/>
      </g>
     </g>
    </g>
    <g id="text_15">
     <!-- Rate (%) -->
     <g transform="translate(151.017188 385.303906) rotate(-90) scale(0.1 -0.1)">
      <defs>
       <path id="DejaVuSans-52" d="M 2841 2188 
Q 3044 2119 3236 1894 
Q 3428 1669 3622 1275 
L 4263 0 
L 3584 0 
L 2988 1197 
Q 2756 1666 2539 1819 
Q 2322 1972 1947 1972 
L 1259 1972 
L 1259 0 
L 628 0 
L 628 4666 
L 2053 4666 
Q 2853 4666 3247 4331 
Q 3641 3997 3641 3322 
Q 3641 2881 3436 2590 
Q 3231 2300 2841 2188 
z
M 1259 4147 
L 1259 2491 
L 2053 2491 
Q 2509 2491 2742 2702 
Q 2975 2913 2975 3322 
Q 2975 3731 2742 3939 
Q 2509 4147 2053 4147 
L 1259 4147 
z
" transform="scale(0.015625)"/>
       <path id="DejaVuSans-74" d="M 1172 4494 
L 1172 3500 
L 2356 3500 
L 2356 3053 
L 1172 3053 
L 1172 1153 
Q 1172 725 1289 603 
Q 1406 481 1766 481 
L 2356 481 
L 2356 0 
L 1766 0 
Q 1100 0 847 248 
Q 594 497 594 1153 
L 594 3053 
L 172 3053 
L 172 3500 
L 594 3500 
L 594 4494 
L 1172 4494 
z
" transform="scale(0.015625)"/>
       <path id="DejaVuSans-28" d="M 1984 4856 
Q 1566 4138 1362 3434 
Q 1159 2731 1159 2009 
Q 1159 1288 1364 580 
Q 1569 -128 1984 -844 
L 1484 -844 
Q 1016 -109 783 600 
Q 550 1309 550 2009 
Q 550 2706 781 3412 
Q 1013 4119 1484 4856 
L 1984 4856 
z
" transform="scale(0.015625)"/>
       <path id="DejaVuSans-25" d="M 4653 2053 
Q 4381 2053 4226 1822 
Q 4072 1591 4072 1178 
Q 4072 772 4226 539 
Q 4381 306 4653 306 
Q 4919 306 5073 539 
Q 5228 772 5228 1178 
Q 5228 1588 5073 1820 
Q 4919 2053 4653 2053 
z
M 4653 2450 
Q 5147 2450 5437 2106 
Q 5728 1763 5728 1178 
Q 5728 594 5436 251 
Q 5144 -91 4653 -91 
Q 4153 -91 3862 251 
Q 3572 594 3572 1178 
Q 3572 1766 3864 2108 
Q 4156 2450 4653 2450 
z
M 1428 4353 
Q 1159 4353 1004 4120 
Q 850 3888 850 3481 
Q 850 3069 1003 2837 
Q 1156 2606 1428 2606 
Q 1700 2606 1854 2837 
Q 2009 3069 2009 3481 
Q 2009 3884 1853 4118 
Q 1697 4353 1428 4353 
z
M 4250 4750 
L 4750 4750 
L 1831 -91 
L 1331 -91 
L 4250 4750 
z
M 1428 4750 
Q 1922 4750 2215 4408 
Q 2509 4066 2509 3481 
Q 2509 2891 2217 2550 
Q 1925 2209 1428 2209 
Q 931 2209 642 2551 
Q 353 2894 353 3481 
Q 353 4063 643 4406 
Q 934 4750 1428 4750 
z
" transform="scale(0.015625)"/>
       <path id="DejaVuSans-29" d="M 513 4856 
L 1013 4856 
Q 1481 4119 1714 3412 
Q 1947 2706 1947 2009 
Q 1947 1309 1714 600 
Q 1481 -109 1013 -844 
L 513 -844 
Q 928 -128 1133 580 
Q 1338 1288 1338 2009 
Q 1338 2731 1133 3434 
Q 928 4138 513 4856 
z
" transform="scale(0.015625)"/>
      </defs>
      <use xlink:href="#DejaVuSans-52"/>
      <use xlink:href="#DejaVuSans-61" x="67.232422"/>
      <use xlink:href="#DejaVuSans-74" x="128.511719"/>
      <use xlink:href="#DejaVuSans-65" x="167.720703"/>
      <use xlink:href="#DejaVuSans-20" x="229.244141"/>
      <use xlink:href="#DejaVuSans-28" x="261.03125"/>
      <use xlink:href="#DejaVuSans-25" x="300.044922"/>
      <use xlink:href="#DejaVuSans-29" x="395.064453"/>
     </g>
    </g>
   </g>
   <g id="line2d_14">
    <path d="M 230.727273 164.934986 
L 240.975207 164.720995 
L 251.22314 164.507004 
L 261.471074 164.293013 
L 271.719008 164.079022 
L 281.966942 163.86503 
L 292.214876 163.651039 
L 302.46281 163.437048 
L 312.710744 163.223057 
L 322.958678 163.009066 
L 333.206612 162.795075 
L 343.454545 162.581084 
L 353.702479 162.367092 
L 363.950413 162.153101 
L 374.198347 161.93911 
L 384.446281 161.725119 
L 394.694215 161.511128 
L 404.942149 161.297137 
L 415.190083 161.083146 
L 425.438017 160.869154 
L 435.68595 160.655163 
L 445.933884 160.441172 
L 456.181818 160.227181 
L 466.429752 160.01319 
L 476.677686 159.799199 
L 486.92562 159.585207 
L 497.173554 159.371216 
L 507.421488 159.157225 
L 517.669421 158.943234 
L 527.917355 158.729243 
L 538.165289 158.515252 
L 548.413223 158.301261 
L 558.661157 158.087269 
L 568.909091 157.873278 
L 579.157025 157.659287 
L 589.404959 157.445296 
L 599.652893 157.231305 
L 609.900826 157.017314 
L 620.14876 156.803322 
L 630.396694 156.589331 
L 640.644628 156.37534 
L 650.892562 156.161349 
L 661.140496 155.947358 
L 671.38843 155.733367 
L 681.636364 155.519376 
L 691.884298 155.305384 
L 702.132231 155.091393 
L 712.380165 154.877402 
L 722.628099 154.663411 
L 732.876033 154.44942 
L 743.123967 154.235429 
L 753.371901 154.021438 
L 763.619835 153.807446 
L 773.867769 153.593455 
L 784.115702 153.379464 
L 794.363636 153.165473 
L 804.61157 152.951482 
L 814.859504 152.737491 
L 825.107438 152.523499 
L 835.355372 152.309508 
L 845.603306 152.095517 
L 855.85124 151.881526 
L 866.099174 151.667535 
L 876.347107 151.453544 
L 886.595041 151.239553 
L 896.842975 151.025561 
L 907.090909 150.81157 
L 917.338843 150.597579 
L 927.586777 150.383588 
L 937.834711 150.169597 
L 948.082645 149.955606 
L 958.330579 149.741614 
L 968.578512 149.527623 
L 978.826446 149.313632 
L 989.07438 149.099641 
L 999.322314 148.88565 
L 1009.570248 148.671659 
L 1019.818182 148.457668 
L 1030.066116 148.243676 
L 1040.31405 148.029685 
L 1050.561983 147.815694 
L 1060.809917 147.601703 
L 1071.057851 147.387712 
L 1081.305785 147.173721 
L 1091.553719 146.95973 
L 1101.801653 146.745738 
L 1112.049587 146.531747 
L 1122.297521 146.317756 
L 1132.545455 146.103765 
L 1142.793388 145.889774 
L 1153.041322 145.675783 
L 1163.289256 145.461791 
L 1173.53719 145.2478 
L 1183.785124 145.033809 
L 1194.033058 144.819818 
L 1204.280992 144.605827 
L 1214.528926 144.391836 
L 1224.77686 144.177845 
L 1235.024793 143.963853 
L 1245.272727 143.749862 
" clip-path="url(#p893c2f4758)" style="fill: none; stroke: #1f77b4; stroke-width: 2.25; stroke-linecap: square"/>
   </g>
   <g id="line2d_15">
    <path d="M 230.727273 597.700826 
L 240.975207 597.77317 
L 251.22314 597.845513 
L 261.471074 597.917856 
L 271.719008 597.9902 
L 281.966942 598.062543 
L 292.214876 598.134886 
L 302.46281 598.207229 
L 312.710744 598.279573 
L 322.958678 598.351916 
L 333.206612 598.424259 
L 343.454545 598.496602 
L 353.702479 598.568946 
L 363.950413 598.641289 
L 374.198347 598.713632 
L 384.446281 598.785975 
L 394.694215 598.858319 
L 404.942149 598.930662 
L 415.190083 599.003005 
L 425.438017 599.075349 
L 435.68595 599.147692 
L 445.933884 599.220035 
L 456.181818 599.292378 
L 466.429752 599.364722 
L 476.677686 599.437065 
L 486.92562 599.509408 
L 497.173554 599.581751 
L 507.421488 599.654095 
L 517.669421 599.726438 
L 527.917355 599.798781 
L 538.165289 599.871124 
L 548.413223 599.943468 
L 558.661157 600.015811 
L 568.909091 600.088154 
L 579.157025 600.160498 
L 589.404959 600.232841 
L 599.652893 600.305184 
L 609.900826 600.377527 
L 620.14876 600.449871 
L 630.396694 600.522214 
L 640.644628 600.594557 
L 650.892562 600.6669 
L 661.140496 600.739244 
L 671.38843 600.811587 
L 681.636364 600.88393 
L 691.884298 600.956273 
L 702.132231 601.028617 
L 712.380165 601.10096 
L 722.628099 601.173303 
L 732.876033 601.245647 
L 743.123967 601.31799 
L 753.371901 601.390333 
L 763.619835 601.462676 
L 773.867769 601.53502 
L 784.115702 601.607363 
L 794.363636 601.679706 
L 804.61157 601.752049 
L 814.859504 601.824393 
L 825.107438 601.896736 
L 835.355372 601.969079 
L 845.603306 602.041422 
L 855.85124 602.113766 
L 866.099174 602.186109 
L 876.347107 602.258452 
L 886.595041 602.330796 
L 896.842975 602.403139 
L 907.090909 602.475482 
L 917.338843 602.547825 
L 927.586777 602.620169 
L 937.834711 602.692512 
L 948.082645 602.764855 
L 958.330579 602.837198 
L 968.578512 602.909542 
L 978.826446 602.981885 
L 989.07438 603.054228 
L 999.322314 603.126572 
L 1009.570248 603.198915 
L 1019.818182 603.271258 
L 1030.066116 603.343601 
L 1040.31405 603.415945 
L 1050.561983 603.488288 
L 1060.809917 603.560631 
L 1071.057851 603.632974 
L 1081.305785 603.705318 
L 1091.553719 603.777661 
L 1101.801653 603.850004 
L 1112.049587 603.922347 
L 1122.297521 603.994691 
L 1132.545455 604.067034 
L 1142.793388 604.139377 
L 1153.041322 604.211721 
L 1163.289256 604.284064 
L 1173.53719 604.356407 
L 1183.785124 604.42875 
L 1194.033058 604.501094 
L 1204.280992 604.573437 
L 1214.528926 604.64578 
L 1224.77686 604.718123 
L 1235.024793 604.790467 
L 1245.272727 604.86281 
" clip-path="url(#p893c2f4758)" style="fill: none; stroke: #ff7f0e; stroke-width: 2.25; stroke-linecap: square"/>
   </g>
   <g id="line2d_16">
    <path d="M 230.727273 425.527824 
L 240.975207 425.669472 
L 251.22314 425.811119 
L 261.471074 425.952767 
L 271.719008 426.094415 
L 281.966942 426.236063 
L 292.214876 426.377711 
L 302.46281 426.519359 
L 312.710744 426.661007 
L 322.958678 426.802655 
L 333.206612 426.944303 
L 343.454545 427.08595 
L 353.702479 427.227598 
L 363.950413 427.369246 
L 374.198347 427.510894 
L 384.446281 427.652542 
L 394.694215 427.79419 
L 404.942149 427.935838 
L 415.190083 428.077486 
L 425.438017 428.219133 
L 435.68595 428.360781 
L 445.933884 428.502429 
L 456.181818 428.644077 
L 466.429752 428.785725 
L 476.677686 428.927373 
L 486.92562 429.069021 
L 497.173554 429.210669 
L 507.421488 429.352317 
L 517.669421 429.493964 
L 527.917355 429.635612 
L 538.165289 429.77726 
L 548.413223 429.918908 
L 558.661157 430.060556 
L 568.909091 430.202204 
L 579.157025 430.343852 
L 589.404959 430.4855 
L 599.652893 430.627148 
L 609.900826 430.768795 
L 620.14876 430.910443 
L 630.396694 431.052091 
L 640.644628 431.193739 
L 650.892562 431.335387 
L 661.140496 431.477035 
L 671.38843 431.618683 
L 681.636364 431.760331 
L 691.884298 431.901978 
L 702.132231 432.043626 
L 712.380165 432.185274 
L 722.628099 432.326922 
L 732.876033 432.46857 
L 743.123967 432.610218 
L 753.371901 432.751866 
L 763.619835 432.893514 
L 773.867769 433.035162 
L 784.115702 433.176809 
L 794.363636 433.318457 
L 804.61157 433.460105 
L 814.859504 433.601753 
L 825.107438 433.743401 
L 835.355372 433.885049 
L 845.603306 434.026697 
L 855.85124 434.168345 
L 866.099174 434.309992 
L 876.347107 434.45164 
L 886.595041 434.593288 
L 896.842975 434.734936 
L 907.090909 434.876584 
L 917.338843 435.018232 
L 927.586777 435.15988 
L 937.834711 435.301528 
L 948.082645 435.443176 
L 958.330579 435.584823 
L 968.578512 435.726471 
L 978.826446 435.868119 
L 989.07438 436.009767 
L 999.322314 436.151415 
L 1009.570248 436.293063 
L 1019.818182 436.434711 
L 1030.066116 436.576359 
L 1040.31405 436.718007 
L 1050.561983 436.859654 
L 1060.809917 437.001302 
L 1071.057851 437.14295 
L 1081.305785 437.284598 
L 1091.553719 437.426246 
L 1101.801653 437.567894 
L 1112.049587 437.709542 
L 1122.297521 437.85119 
L 1132.545455 437.992837 
L 1142.793388 438.134485 
L 1153.041322 438.276133 
L 1163.289256 438.417781 
L 1173.53719 438.559429 
L 1183.785124 438.701077 
L 1194.033058 438.842725 
L 1204.280992 438.984373 
L 1214.528926 439.126021 
L 1224.77686 439.267668 
L 1235.024793 439.409316 
L 1245.272727 439.550964 
" clip-path="url(#p893c2f4758)" style="fill: none; stroke: #2ca02c; stroke-width: 2.25; stroke-linecap: square"/>
   </g>
   <g id="patch_3">
    <path d="M 180 640.8 
L 180 86.4 
" style="fill: none; stroke: #000000; stroke-width: 0.8; stroke-linejoin: miter; stroke-linecap: square"/>
   </g>
   <g id="patch_4">
    <path d="M 1296 640.8 
L 1296 86.4 
" style="fill: none; stroke: #000000; stroke-width: 0.8; stroke-linejoin: miter; stroke-linecap: square"/>
   </g>
   <g id="patch_5">
    <path d="M 180 640.8 
L 1296 640.8 
" style="fill: none; stroke: #000000; stroke-width: 0.8; stroke-linejoin: miter; stroke-linecap: square"/>
   </g>
   <g id="patch_6">
    <path d="M 180 86.4 
L 1296 86.4 
" style="fill: none; stroke: #000000; stroke-width: 0.8; stroke-linejoin: miter; stroke-linecap: square"/>
   </g>
   <g id="legend_1">
    <g id="patch_7">
     <path d="M 1132.940625 387.117188 
L 1289 387.117188 
Q 1291 387.117188 1291 385.117188 
L 1291 342.082812 
Q 1291 340.082812 1289 340.082812 
L 1132.940625 340.082812 
Q 1130.940625 340.082812 1130.940625 342.082812 
L 1130.940625 385.117188 
Q 1130.940625 387.117188 1132.940625 387.117188 
z
" style="fill: #ffffff; opacity: 0.8; stroke: #cccccc; stroke-linejoin: miter"/>
    </g>
    <g id="PathCollection_4">
     <g>
      <use xlink:href="#m7401179714" x="1144.940625" y="349.05625" style="fill: #1f77b4; fill-opacity: 0.8; stroke: #1f77b4; stroke-opacity: 0.8"/>
     </g>
    </g>
    <g id="text_16">
     <!-- Completed Trials (mean) -->
     <g transform="translate(1162.940625 351.68125) scale(0.1 -0.1)">
      <defs>
       <path id="DejaVuSans-43" d="M 4122 4306 
L 4122 3641 
Q 3803 3938 3442 4084 
Q 3081 4231 2675 4231 
Q 1875 4231 1450 3742 
Q 1025 3253 1025 2328 
Q 1025 1406 1450 917 
Q 1875 428 2675 428 
Q 3081 428 3442 575 
Q 3803 722 4122 1019 
L 4122 359 
Q 3791 134 3420 21 
Q 3050 -91 2638 -91 
Q 1578 -91 968 557 
Q 359 1206 359 2328 
Q 359 3453 968 4101 
Q 1578 4750 2638 4750 
Q 3056 4750 3426 4639 
Q 3797 4528 4122 4306 
z
" transform="scale(0.015625)"/>
       <path id="DejaVuSans-6f" d="M 1959 3097 
Q 1497 3097 1228 2736 
Q 959 2375 959 1747 
Q 959 1119 1226 758 
Q 1494 397 1959 397 
Q 2419 397 2687 759 
Q 2956 1122 2956 1747 
Q 2956 2369 2687 2733 
Q 2419 3097 1959 3097 
z
M 1959 3584 
Q 2709 3584 3137 3096 
Q 3566 2609 3566 1747 
Q 3566 888 3137 398 
Q 2709 -91 1959 -91 
Q 1206 -91 779 398 
Q 353 888 353 1747 
Q 353 2609 779 3096 
Q 1206 3584 1959 3584 
z
" transform="scale(0.015625)"/>
       <path id="DejaVuSans-6d" d="M 3328 2828 
Q 3544 3216 3844 3400 
Q 4144 3584 4550 3584 
Q 5097 3584 5394 3201 
Q 5691 2819 5691 2113 
L 5691 0 
L 5113 0 
L 5113 2094 
Q 5113 2597 4934 2840 
Q 4756 3084 4391 3084 
Q 3944 3084 3684 2787 
Q 3425 2491 3425 1978 
L 3425 0 
L 2847 0 
L 2847 2094 
Q 2847 2600 2669 2842 
Q 2491 3084 2119 3084 
Q 1678 3084 1418 2786 
Q 1159 2488 1159 1978 
L 1159 0 
L 581 0 
L 581 3500 
L 1159 3500 
L 1159 2956 
Q 1356 3278 1631 3431 
Q 1906 3584 2284 3584 
Q 2666 3584 2933 3390 
Q 3200 3197 3328 2828 
z
" transform="scale(0.015625)"/>
       <path id="DejaVuSans-70" d="M 1159 525 
L 1159 -1331 
L 581 -1331 
L 581 3500 
L 1159 3500 
L 1159 2969 
Q 1341 3281 1617 3432 
Q 1894 3584 2278 3584 
Q 2916 3584 3314 3078 
Q 3713 2572 3713 1747 
Q 3713 922 3314 415 
Q 2916 -91 2278 -91 
Q 1894 -91 1617 61 
Q 1341 213 1159 525 
z
M 3116 1747 
Q 3116 2381 2855 2742 
Q 2594 3103 2138 3103 
Q 1681 3103 1420 2742 
Q 1159 2381 1159 1747 
Q 1159 1113 1420 752 
Q 1681 391 2138 391 
Q 2594 391 2855 752 
Q 3116 1113 3116 1747 
z
" transform="scale(0.015625)"/>
       <path id="DejaVuSans-6c" d="M 603 4863 
L 1178 4863 
L 1178 0 
L 603 0 
L 603 4863 
z
" transform="scale(0.015625)"/>
       <path id="DejaVuSans-72" d="M 2631 2963 
Q 2534 3019 2420 3045 
Q 2306 3072 2169 3072 
Q 1681 3072 1420 2755 
Q 1159 2438 1159 1844 
L 1159 0 
L 581 0 
L 581 3500 
L 1159 3500 
L 1159 2956 
Q 1341 3275 1631 3429 
Q 1922 3584 2338 3584 
Q 2397 3584 2469 3576 
Q 2541 3569 2628 3553 
L 2631 2963 
z
" transform="scale(0.015625)"/>
       <path id="DejaVuSans-69" d="M 603 3500 
L 1178 3500 
L 1178 0 
L 603 0 
L 603 3500 
z
M 603 4863 
L 1178 4863 
L 1178 4134 
L 603 4134 
L 603 4863 
z
" transform="scale(0.015625)"/>
      </defs>
      <use xlink:href="#DejaVuSans-43"/>
      <use xlink:href="#DejaVuSans-6f" x="69.824219"/>
      <use xlink:href="#DejaVuSans-6d" x="131.005859"/>
      <use xlink:href="#DejaVuSans-70" x="228.417969"/>
      <use xlink:href="#DejaVuSans-6c" x="291.894531"/>
      <use xlink:href="#DejaVuSans-65" x="319.677734"/>
      <use xlink:href="#DejaVuSans-74" x="381.201172"/>
      <use xlink:href="#DejaVuSans-65" x="420.410156"/>
      <use xlink:href="#DejaVuSans-64" x="481.933594"/>
      <use xlink:href="#DejaVuSans-20" x="545.410156"/>
      <use xlink:href="#DejaVuSans-54" x="577.197266"/>
      <use xlink:href="#DejaVuSans-72" x="623.53125"/>
      <use xlink:href="#DejaVuSans-69" x="664.644531"/>
      <use xlink:href="#DejaVuSans-61" x="692.427734"/>
      <use xlink:href="#DejaVuSans-6c" x="753.707031"/>
      <use xlink:href="#DejaVuSans-73" x="781.490234"/>
      <use xlink:href="#DejaVuSans-20" x="833.589844"/>
      <use xlink:href="#DejaVuSans-28" x="865.376953"/>
      <use xlink:href="#DejaVuSans-6d" x="904.390625"/>
      <use xlink:href="#DejaVuSans-65" x="1001.802734"/>
      <use xlink:href="#DejaVuSans-61" x="1063.326172"/>
      <use xlink:href="#DejaVuSans-6e" x="1124.605469"/>
      <use xlink:href="#DejaVuSans-29" x="1187.984375"/>
     </g>
    </g>
    <g id="PathCollection_5">
     <g>
      <use xlink:href="#mdcfab760b6" x="1144.940625" y="363.734375" style="fill: #ff7f0e; fill-opacity: 0.8; stroke: #ff7f0e; stroke-opacity: 0.8"/>
     </g>
    </g>
    <g id="text_17">
     <!-- Failed Trials (mean) -->
     <g transform="translate(1162.940625 366.359375) scale(0.1 -0.1)">
      <defs>
       <path id="DejaVuSans-46" d="M 628 4666 
L 3309 4666 
L 3309 4134 
L 1259 4134 
L 1259 2759 
L 3109 2759 
L 3109 2228 
L 1259 2228 
L 1259 0 
L 628 0 
L 628 4666 
z
" transform="scale(0.015625)"/>
      </defs>
      <use xlink:href="#DejaVuSans-46"/>
      <use xlink:href="#DejaVuSans-61" x="48.394531"/>
      <use xlink:href="#DejaVuSans-69" x="109.673828"/>
      <use xlink:href="#DejaVuSans-6c" x="137.457031"/>
      <use xlink:href="#DejaVuSans-65" x="165.240234"/>
      <use xlink:href="#DejaVuSans-64" x="226.763672"/>
      <use xlink:href="#DejaVuSans-20" x="290.240234"/>
      <use xlink:href="#DejaVuSans-54" x="322.027344"/>
      <use xlink:href="#DejaVuSans-72" x="368.361328"/>
      <use xlink:href="#DejaVuSans-69" x="409.474609"/>
      <use xlink:href="#DejaVuSans-61" x="437.257812"/>
      <use xlink:href="#DejaVuSans-6c" x="498.537109"/>
      <use xlink:href="#DejaVuSans-73" x="526.320312"/>
      <use xlink:href="#DejaVuSans-20" x="578.419922"/>
      <use xlink:href="#DejaVuSans-28" x="610.207031"/>
      <use xlink:href="#DejaVuSans-6d" x="649.220703"/>
      <use xlink:href="#DejaVuSans-65" x="746.632812"/>
      <use xlink:href="#DejaVuSans-61" x="808.15625"/>
      <use xlink:href="#DejaVuSans-6e" x="869.435547"/>
      <use xlink:href="#DejaVuSans-29" x="932.814453"/>
     </g>
    </g>
    <g id="PathCollection_6">
     <g>
      <use xlink:href="#ma0a2674d1d" x="1144.940625" y="378.4125" style="fill: #2ca02c; fill-opacity: 0.8; stroke: #2ca02c; stroke-opacity: 0.8"/>
     </g>
    </g>
    <g id="text_18">
     <!-- Terminated Trials (mean) -->
     <g transform="translate(1162.940625 381.0375) scale(0.1 -0.1)">
      <use xlink:href="#DejaVuSans-54"/>
      <use xlink:href="#DejaVuSans-65" x="44.083984"/>
      <use xlink:href="#DejaVuSans-72" x="105.607422"/>
      <use xlink:href="#DejaVuSans-6d" x="144.970703"/>
      <use xlink:href="#DejaVuSans-69" x="242.382812"/>
      <use xlink:href="#DejaVuSans-6e" x="270.166016"/>
      <use xlink:href="#DejaVuSans-61" x="333.544922"/>
      <use xlink:href="#DejaVuSans-74" x="394.824219"/>
      <use xlink:href="#DejaVuSans-65" x="434.033203"/>
      <use xlink:href="#DejaVuSans-64" x="495.556641"/>
      <use xlink:href="#DejaVuSans-20" x="559.033203"/>
      <use xlink:href="#DejaVuSans-54" x="590.820312"/>
      <use xlink:href="#DejaVuSans-72" x="637.154297"/>
      <use xlink:href="#DejaVuSans-69" x="678.267578"/>
      <use xlink:href="#DejaVuSans-61" x="706.050781"/>
      <use xlink:href="#DejaVuSans-6c" x="767.330078"/>
      <use xlink:href="#DejaVuSans-73" x="795.113281"/>
      <use xlink:href="#DejaVuSans-20" x="847.212891"/>
      <use xlink:href="#DejaVuSans-28" x="879"/>
      <use xlink:href="#DejaVuSans-6d" x="918.013672"/>
      <use xlink:href="#DejaVuSans-65" x="1015.425781"/>
      <use xlink:href="#DejaVuSans-61" x="1076.949219"/>
      <use xlink:href="#DejaVuSans-6e" x="1138.228516"/>
      <use xlink:href="#DejaVuSans-29" x="1201.607422"/>
     </g>
    </g>
   </g>
  </g>
 </g>
 <defs>
  <clipPath id="p893c2f4758">
   <rect x="180" y="86.4" width="1116" height="554.4"/>
  </clipPath>
 </defs>
</svg>
