<?xml version="1.0" encoding="utf-8" standalone="no"?>
<!DOCTYPE svg PUBLIC "-//W3C//DTD SVG 1.1//EN"
  "http://www.w3.org/Graphics/SVG/1.1/DTD/svg11.dtd">
<svg xmlns:xlink="http://www.w3.org/1999/xlink" width="1440pt" height="720pt" viewBox="0 0 1440 720" xmlns="http://www.w3.org/2000/svg" version="1.1">
 <metadata>
  <rdf:RDF xmlns:dc="http://purl.org/dc/elements/1.1/" xmlns:cc="http://creativecommons.org/ns#" xmlns:rdf="http://www.w3.org/1999/02/22-rdf-syntax-ns#">
   <cc:Work>
    <dc:type rdf:resource="http://purl.org/dc/dcmitype/StillImage"/>
    <dc:date>2025-06-04T20:01:15.690130</dc:date>
    <dc:format>image/svg+xml</dc:format>
    <dc:creator>
     <cc:Agent>
      <dc:title>Matplotlib v3.8.0, https://matplotlib.org/</dc:title>
     </cc:Agent>
    </dc:creator>
   </cc:Work>
  </rdf:RDF>
 </metadata>
 <defs>
  <style type="text/css">*{stroke-linejoin: round; stroke-linecap: butt}</style>
 </defs>
 <g id="figure_1">
  <g id="patch_1">
   <path d="M 0 720 
L 1440 720 
L 1440 0 
L 0 0 
z
" style="fill: #ffffff"/>
  </g>
  <g id="axes_1">
   <g id="patch_2">
    <path d="M 180 640.8 
L 1296 640.8 
L 1296 86.4 
L 180 86.4 
z
" style="fill: #ffffff"/>
   </g>
   <g id="PathCollection_1">
    <defs>
     <path id="mc82b067a4a" d="M 0 3 
C 0.795609 3 1.55874 2.683901 2.12132 2.12132 
C 2.683901 1.55874 3 0.795609 3 0 
C 3 -0.795609 2.683901 -1.55874 2.12132 -2.12132 
C 1.55874 -2.683901 0.795609 -3 0 -3 
C -0.795609 -3 -1.55874 -2.683901 -2.12132 -2.12132 
C -2.683901 -1.55874 -3 -0.795609 -3 0 
C -3 0.795609 -2.683901 1.55874 -2.12132 2.12132 
C -1.55874 2.683901 -0.795609 3 0 3 
z
" style="stroke: #1f77b4; stroke-opacity: 0.8"/>
    </defs>
    <g clip-path="url(#p86382d70fa)">
     <use xlink:href="#mc82b067a4a" x="230.727273" y="163.145455" style="fill: #1f77b4; fill-opacity: 0.8; stroke: #1f77b4; stroke-opacity: 0.8"/>
     <use xlink:href="#mc82b067a4a" x="249.86964" y="197.509091" style="fill: #1f77b4; fill-opacity: 0.8; stroke: #1f77b4; stroke-opacity: 0.8"/>
     <use xlink:href="#mc82b067a4a" x="269.012007" y="151.690909" style="fill: #1f77b4; fill-opacity: 0.8; stroke: #1f77b4; stroke-opacity: 0.8"/>
     <use xlink:href="#mc82b067a4a" x="288.154374" y="197.509091" style="fill: #1f77b4; fill-opacity: 0.8; stroke: #1f77b4; stroke-opacity: 0.8"/>
     <use xlink:href="#mc82b067a4a" x="307.296741" y="157.418182" style="fill: #1f77b4; fill-opacity: 0.8; stroke: #1f77b4; stroke-opacity: 0.8"/>
     <use xlink:href="#mc82b067a4a" x="326.439108" y="174.6" style="fill: #1f77b4; fill-opacity: 0.8; stroke: #1f77b4; stroke-opacity: 0.8"/>
     <use xlink:href="#mc82b067a4a" x="345.581475" y="134.509091" style="fill: #1f77b4; fill-opacity: 0.8; stroke: #1f77b4; stroke-opacity: 0.8"/>
     <use xlink:href="#mc82b067a4a" x="364.723842" y="140.236364" style="fill: #1f77b4; fill-opacity: 0.8; stroke: #1f77b4; stroke-opacity: 0.8"/>
     <use xlink:href="#mc82b067a4a" x="383.866209" y="151.690909" style="fill: #1f77b4; fill-opacity: 0.8; stroke: #1f77b4; stroke-opacity: 0.8"/>
     <use xlink:href="#mc82b067a4a" x="403.008576" y="157.418182" style="fill: #1f77b4; fill-opacity: 0.8; stroke: #1f77b4; stroke-opacity: 0.8"/>
     <use xlink:href="#mc82b067a4a" x="422.150943" y="151.690909" style="fill: #1f77b4; fill-opacity: 0.8; stroke: #1f77b4; stroke-opacity: 0.8"/>
     <use xlink:href="#mc82b067a4a" x="441.29331" y="163.145455" style="fill: #1f77b4; fill-opacity: 0.8; stroke: #1f77b4; stroke-opacity: 0.8"/>
     <use xlink:href="#mc82b067a4a" x="460.435678" y="186.054545" style="fill: #1f77b4; fill-opacity: 0.8; stroke: #1f77b4; stroke-opacity: 0.8"/>
     <use xlink:href="#mc82b067a4a" x="479.578045" y="117.327273" style="fill: #1f77b4; fill-opacity: 0.8; stroke: #1f77b4; stroke-opacity: 0.8"/>
     <use xlink:href="#mc82b067a4a" x="498.720412" y="157.418182" style="fill: #1f77b4; fill-opacity: 0.8; stroke: #1f77b4; stroke-opacity: 0.8"/>
     <use xlink:href="#mc82b067a4a" x="517.862779" y="208.963636" style="fill: #1f77b4; fill-opacity: 0.8; stroke: #1f77b4; stroke-opacity: 0.8"/>
     <use xlink:href="#mc82b067a4a" x="537.005146" y="123.054545" style="fill: #1f77b4; fill-opacity: 0.8; stroke: #1f77b4; stroke-opacity: 0.8"/>
     <use xlink:href="#mc82b067a4a" x="556.147513" y="111.6" style="fill: #1f77b4; fill-opacity: 0.8; stroke: #1f77b4; stroke-opacity: 0.8"/>
     <use xlink:href="#mc82b067a4a" x="575.28988" y="157.418182" style="fill: #1f77b4; fill-opacity: 0.8; stroke: #1f77b4; stroke-opacity: 0.8"/>
     <use xlink:href="#mc82b067a4a" x="594.432247" y="180.327273" style="fill: #1f77b4; fill-opacity: 0.8; stroke: #1f77b4; stroke-opacity: 0.8"/>
     <use xlink:href="#mc82b067a4a" x="613.574614" y="117.327273" style="fill: #1f77b4; fill-opacity: 0.8; stroke: #1f77b4; stroke-opacity: 0.8"/>
     <use xlink:href="#mc82b067a4a" x="632.716981" y="168.872727" style="fill: #1f77b4; fill-opacity: 0.8; stroke: #1f77b4; stroke-opacity: 0.8"/>
     <use xlink:href="#mc82b067a4a" x="651.859348" y="145.963636" style="fill: #1f77b4; fill-opacity: 0.8; stroke: #1f77b4; stroke-opacity: 0.8"/>
     <use xlink:href="#mc82b067a4a" x="671.001715" y="163.145455" style="fill: #1f77b4; fill-opacity: 0.8; stroke: #1f77b4; stroke-opacity: 0.8"/>
     <use xlink:href="#mc82b067a4a" x="690.144082" y="226.145455" style="fill: #1f77b4; fill-opacity: 0.8; stroke: #1f77b4; stroke-opacity: 0.8"/>
     <use xlink:href="#mc82b067a4a" x="709.286449" y="111.6" style="fill: #1f77b4; fill-opacity: 0.8; stroke: #1f77b4; stroke-opacity: 0.8"/>
     <use xlink:href="#mc82b067a4a" x="728.428816" y="151.690909" style="fill: #1f77b4; fill-opacity: 0.8; stroke: #1f77b4; stroke-opacity: 0.8"/>
     <use xlink:href="#mc82b067a4a" x="747.571184" y="163.145455" style="fill: #1f77b4; fill-opacity: 0.8; stroke: #1f77b4; stroke-opacity: 0.8"/>
     <use xlink:href="#mc82b067a4a" x="766.713551" y="168.872727" style="fill: #1f77b4; fill-opacity: 0.8; stroke: #1f77b4; stroke-opacity: 0.8"/>
     <use xlink:href="#mc82b067a4a" x="785.855918" y="145.963636" style="fill: #1f77b4; fill-opacity: 0.8; stroke: #1f77b4; stroke-opacity: 0.8"/>
     <use xlink:href="#mc82b067a4a" x="804.998285" y="117.327273" style="fill: #1f77b4; fill-opacity: 0.8; stroke: #1f77b4; stroke-opacity: 0.8"/>
     <use xlink:href="#mc82b067a4a" x="824.140652" y="186.054545" style="fill: #1f77b4; fill-opacity: 0.8; stroke: #1f77b4; stroke-opacity: 0.8"/>
     <use xlink:href="#mc82b067a4a" x="843.283019" y="174.6" style="fill: #1f77b4; fill-opacity: 0.8; stroke: #1f77b4; stroke-opacity: 0.8"/>
     <use xlink:href="#mc82b067a4a" x="862.425386" y="168.872727" style="fill: #1f77b4; fill-opacity: 0.8; stroke: #1f77b4; stroke-opacity: 0.8"/>
     <use xlink:href="#mc82b067a4a" x="881.567753" y="168.872727" style="fill: #1f77b4; fill-opacity: 0.8; stroke: #1f77b4; stroke-opacity: 0.8"/>
     <use xlink:href="#mc82b067a4a" x="900.71012" y="145.963636" style="fill: #1f77b4; fill-opacity: 0.8; stroke: #1f77b4; stroke-opacity: 0.8"/>
     <use xlink:href="#mc82b067a4a" x="919.852487" y="203.236364" style="fill: #1f77b4; fill-opacity: 0.8; stroke: #1f77b4; stroke-opacity: 0.8"/>
     <use xlink:href="#mc82b067a4a" x="938.994854" y="145.963636" style="fill: #1f77b4; fill-opacity: 0.8; stroke: #1f77b4; stroke-opacity: 0.8"/>
     <use xlink:href="#mc82b067a4a" x="958.137221" y="191.781818" style="fill: #1f77b4; fill-opacity: 0.8; stroke: #1f77b4; stroke-opacity: 0.8"/>
     <use xlink:href="#mc82b067a4a" x="977.279588" y="123.054545" style="fill: #1f77b4; fill-opacity: 0.8; stroke: #1f77b4; stroke-opacity: 0.8"/>
     <use xlink:href="#mc82b067a4a" x="996.421955" y="117.327273" style="fill: #1f77b4; fill-opacity: 0.8; stroke: #1f77b4; stroke-opacity: 0.8"/>
     <use xlink:href="#mc82b067a4a" x="1015.564322" y="117.327273" style="fill: #1f77b4; fill-opacity: 0.8; stroke: #1f77b4; stroke-opacity: 0.8"/>
     <use xlink:href="#mc82b067a4a" x="1034.70669" y="163.145455" style="fill: #1f77b4; fill-opacity: 0.8; stroke: #1f77b4; stroke-opacity: 0.8"/>
     <use xlink:href="#mc82b067a4a" x="1053.849057" y="140.236364" style="fill: #1f77b4; fill-opacity: 0.8; stroke: #1f77b4; stroke-opacity: 0.8"/>
     <use xlink:href="#mc82b067a4a" x="1072.991424" y="140.236364" style="fill: #1f77b4; fill-opacity: 0.8; stroke: #1f77b4; stroke-opacity: 0.8"/>
     <use xlink:href="#mc82b067a4a" x="1092.133791" y="123.054545" style="fill: #1f77b4; fill-opacity: 0.8; stroke: #1f77b4; stroke-opacity: 0.8"/>
     <use xlink:href="#mc82b067a4a" x="1111.276158" y="180.327273" style="fill: #1f77b4; fill-opacity: 0.8; stroke: #1f77b4; stroke-opacity: 0.8"/>
     <use xlink:href="#mc82b067a4a" x="1130.418525" y="157.418182" style="fill: #1f77b4; fill-opacity: 0.8; stroke: #1f77b4; stroke-opacity: 0.8"/>
     <use xlink:href="#mc82b067a4a" x="1149.560892" y="111.6" style="fill: #1f77b4; fill-opacity: 0.8; stroke: #1f77b4; stroke-opacity: 0.8"/>
     <use xlink:href="#mc82b067a4a" x="1168.703259" y="123.054545" style="fill: #1f77b4; fill-opacity: 0.8; stroke: #1f77b4; stroke-opacity: 0.8"/>
     <use xlink:href="#mc82b067a4a" x="1187.845626" y="134.509091" style="fill: #1f77b4; fill-opacity: 0.8; stroke: #1f77b4; stroke-opacity: 0.8"/>
     <use xlink:href="#mc82b067a4a" x="1206.987993" y="151.690909" style="fill: #1f77b4; fill-opacity: 0.8; stroke: #1f77b4; stroke-opacity: 0.8"/>
     <use xlink:href="#mc82b067a4a" x="1226.13036" y="128.781818" style="fill: #1f77b4; fill-opacity: 0.8; stroke: #1f77b4; stroke-opacity: 0.8"/>
     <use xlink:href="#mc82b067a4a" x="1245.272727" y="174.6" style="fill: #1f77b4; fill-opacity: 0.8; stroke: #1f77b4; stroke-opacity: 0.8"/>
    </g>
   </g>
   <g id="PolyCollection_1">
    <path d="M 230.727273 153.208822 
L 230.727273 179.314726 
L 240.975207 178.976813 
L 251.22314 178.620435 
L 261.471074 178.286342 
L 271.719008 177.952249 
L 281.966942 177.613887 
L 292.214876 177.198064 
L 302.46281 176.751617 
L 312.710744 176.286149 
L 322.958678 175.820681 
L 333.206612 175.418666 
L 343.454545 175.026686 
L 353.702479 174.56799 
L 363.950413 174.14328 
L 374.198347 173.779697 
L 384.446281 173.283969 
L 394.694215 172.986284 
L 404.942149 172.387888 
L 415.190083 171.979215 
L 425.438017 171.582995 
L 435.68595 171.186774 
L 445.933884 170.790553 
L 456.181818 170.394333 
L 466.429752 169.998112 
L 476.677686 169.667442 
L 486.92562 169.205671 
L 497.173554 168.850965 
L 507.421488 168.574998 
L 517.669421 168.329798 
L 527.917355 168.006262 
L 538.165289 167.511609 
L 548.413223 167.125973 
L 558.661157 166.822608 
L 568.909091 166.31179 
L 579.157025 166.115112 
L 589.404959 165.698793 
L 599.652893 165.566595 
L 609.900826 165.177684 
L 620.14876 164.83216 
L 630.396694 164.494214 
L 640.644628 164.244039 
L 650.892562 163.9962 
L 661.140496 163.531062 
L 671.38843 163.42805 
L 681.636364 163.279413 
L 691.884298 163.062927 
L 702.132231 162.908293 
L 712.380165 162.741073 
L 722.628099 162.434727 
L 732.876033 162.383782 
L 743.123967 162.303503 
L 753.371901 161.997777 
L 763.619835 161.775473 
L 773.867769 161.606672 
L 784.115702 161.352493 
L 794.363636 161.249888 
L 804.61157 161.091991 
L 814.859504 160.929955 
L 825.107438 160.767918 
L 835.355372 160.605881 
L 845.603306 160.42345 
L 855.85124 160.297106 
L 866.099174 160.149844 
L 876.347107 159.993498 
L 886.595041 159.871062 
L 896.842975 159.836784 
L 907.090909 159.805401 
L 917.338843 159.771884 
L 927.586777 159.66876 
L 937.834711 159.628268 
L 948.082645 159.533889 
L 958.330579 159.455054 
L 968.578512 159.173134 
L 978.826446 158.992757 
L 989.07438 158.889009 
L 999.322314 158.849421 
L 1009.570248 158.809833 
L 1019.818182 158.769672 
L 1030.066116 158.72757 
L 1040.31405 158.617439 
L 1050.561983 158.563092 
L 1060.809917 158.44629 
L 1071.057851 158.395055 
L 1081.305785 158.335752 
L 1091.553719 158.20844 
L 1101.801653 158.253123 
L 1112.049587 158.167596 
L 1122.297521 158.068701 
L 1132.545455 157.894219 
L 1142.793388 157.718995 
L 1153.041322 157.631925 
L 1163.289256 157.643562 
L 1173.53719 157.650266 
L 1183.785124 157.565899 
L 1194.033058 157.459907 
L 1204.280992 157.287628 
L 1214.528926 157.189612 
L 1224.77686 157.172889 
L 1235.024793 157.158471 
L 1245.272727 157.143507 
L 1245.272727 131.46535 
L 1245.272727 131.46535 
L 1235.024793 131.887143 
L 1224.77686 132.183788 
L 1214.528926 132.65386 
L 1204.280992 133.04571 
L 1194.033058 133.480318 
L 1183.785124 133.881964 
L 1173.53719 134.24225 
L 1163.289256 134.593029 
L 1153.041322 134.9629 
L 1142.793388 135.332771 
L 1132.545455 135.702642 
L 1122.297521 136.047443 
L 1112.049587 136.442751 
L 1101.801653 136.791188 
L 1091.553719 137.14908 
L 1081.305785 137.553018 
L 1071.057851 137.876302 
L 1060.809917 138.156829 
L 1050.561983 138.437357 
L 1040.31405 138.726405 
L 1030.066116 139.050625 
L 1019.818182 139.503251 
L 1009.570248 139.899586 
L 999.322314 140.285552 
L 989.07438 140.655447 
L 978.826446 141.057811 
L 968.578512 141.423758 
L 958.330579 141.731492 
L 948.082645 141.93996 
L 937.834711 142.216599 
L 927.586777 142.547735 
L 917.338843 142.808531 
L 907.090909 143.107963 
L 896.842975 143.424337 
L 886.595041 143.720096 
L 876.347107 143.922588 
L 866.099174 144.235185 
L 855.85124 144.471636 
L 845.603306 144.710385 
L 835.355372 144.98476 
L 825.107438 145.270775 
L 814.859504 145.505302 
L 804.61157 145.845414 
L 794.363636 146.192906 
L 784.115702 146.530666 
L 773.867769 146.753021 
L 763.619835 146.992477 
L 753.371901 147.168131 
L 743.123967 147.466152 
L 732.876033 147.66715 
L 722.628099 147.846629 
L 712.380165 147.978234 
L 702.132231 148.225031 
L 691.884298 148.45781 
L 681.636364 148.680745 
L 671.38843 148.772754 
L 661.140496 148.992738 
L 650.892562 149.159171 
L 640.644628 149.254007 
L 630.396694 149.485689 
L 620.14876 149.554598 
L 609.900826 149.615152 
L 599.652893 149.780018 
L 589.404959 149.793017 
L 579.157025 150.080293 
L 568.909091 150.210405 
L 558.661157 150.348684 
L 548.413223 150.513175 
L 538.165289 150.74667 
L 527.917355 150.84048 
L 517.669421 150.934532 
L 507.421488 151.140095 
L 497.173554 151.229215 
L 486.92562 151.318335 
L 476.677686 151.441253 
L 466.429752 151.492471 
L 456.181818 151.573649 
L 445.933884 151.663313 
L 435.68595 151.833841 
L 425.438017 151.872929 
L 415.190083 152.022601 
L 404.942149 152.164956 
L 394.694215 152.25643 
L 384.446281 152.330421 
L 374.198347 152.273612 
L 363.950413 152.352343 
L 353.702479 152.438982 
L 343.454545 152.523334 
L 333.206612 152.611111 
L 322.958678 152.738868 
L 312.710744 152.781791 
L 302.46281 152.864232 
L 292.214876 152.946673 
L 281.966942 153.030817 
L 271.719008 153.115626 
L 261.471074 153.200436 
L 251.22314 153.273103 
L 240.975207 153.240497 
L 230.727273 153.208822 
z
" clip-path="url(#p86382d70fa)" style="fill: #1f77b4; fill-opacity: 0.15"/>
   </g>
   <g id="PathCollection_2">
    <defs>
     <path id="m359aeb4691" d="M 0 3 
C 0.795609 3 1.55874 2.683901 2.12132 2.12132 
C 2.683901 1.55874 3 0.795609 3 0 
C 3 -0.795609 2.683901 -1.55874 2.12132 -2.12132 
C 1.55874 -2.683901 0.795609 -3 0 -3 
C -0.795609 -3 -1.55874 -2.683901 -2.12132 -2.12132 
C -2.683901 -1.55874 -3 -0.795609 -3 0 
C -3 0.795609 -2.683901 1.55874 -2.12132 2.12132 
C -1.55874 2.683901 -0.795609 3 0 3 
z
" style="stroke: #ff7f0e; stroke-opacity: 0.8"/>
    </defs>
    <g clip-path="url(#p86382d70fa)">
     <use xlink:href="#m359aeb4691" x="230.727273" y="581.236364" style="fill: #ff7f0e; fill-opacity: 0.8; stroke: #ff7f0e; stroke-opacity: 0.8"/>
     <use xlink:href="#m359aeb4691" x="249.86964" y="604.145455" style="fill: #ff7f0e; fill-opacity: 0.8; stroke: #ff7f0e; stroke-opacity: 0.8"/>
     <use xlink:href="#m359aeb4691" x="269.012007" y="586.963636" style="fill: #ff7f0e; fill-opacity: 0.8; stroke: #ff7f0e; stroke-opacity: 0.8"/>
     <use xlink:href="#m359aeb4691" x="288.154374" y="586.963636" style="fill: #ff7f0e; fill-opacity: 0.8; stroke: #ff7f0e; stroke-opacity: 0.8"/>
     <use xlink:href="#m359aeb4691" x="307.296741" y="592.690909" style="fill: #ff7f0e; fill-opacity: 0.8; stroke: #ff7f0e; stroke-opacity: 0.8"/>
     <use xlink:href="#m359aeb4691" x="326.439108" y="604.145455" style="fill: #ff7f0e; fill-opacity: 0.8; stroke: #ff7f0e; stroke-opacity: 0.8"/>
     <use xlink:href="#m359aeb4691" x="345.581475" y="592.690909" style="fill: #ff7f0e; fill-opacity: 0.8; stroke: #ff7f0e; stroke-opacity: 0.8"/>
     <use xlink:href="#m359aeb4691" x="364.723842" y="604.145455" style="fill: #ff7f0e; fill-opacity: 0.8; stroke: #ff7f0e; stroke-opacity: 0.8"/>
     <use xlink:href="#m359aeb4691" x="383.866209" y="581.236364" style="fill: #ff7f0e; fill-opacity: 0.8; stroke: #ff7f0e; stroke-opacity: 0.8"/>
     <use xlink:href="#m359aeb4691" x="403.008576" y="592.690909" style="fill: #ff7f0e; fill-opacity: 0.8; stroke: #ff7f0e; stroke-opacity: 0.8"/>
     <use xlink:href="#m359aeb4691" x="422.150943" y="609.872727" style="fill: #ff7f0e; fill-opacity: 0.8; stroke: #ff7f0e; stroke-opacity: 0.8"/>
     <use xlink:href="#m359aeb4691" x="441.29331" y="609.872727" style="fill: #ff7f0e; fill-opacity: 0.8; stroke: #ff7f0e; stroke-opacity: 0.8"/>
     <use xlink:href="#m359aeb4691" x="460.435678" y="604.145455" style="fill: #ff7f0e; fill-opacity: 0.8; stroke: #ff7f0e; stroke-opacity: 0.8"/>
     <use xlink:href="#m359aeb4691" x="479.578045" y="592.690909" style="fill: #ff7f0e; fill-opacity: 0.8; stroke: #ff7f0e; stroke-opacity: 0.8"/>
     <use xlink:href="#m359aeb4691" x="498.720412" y="609.872727" style="fill: #ff7f0e; fill-opacity: 0.8; stroke: #ff7f0e; stroke-opacity: 0.8"/>
     <use xlink:href="#m359aeb4691" x="517.862779" y="604.145455" style="fill: #ff7f0e; fill-opacity: 0.8; stroke: #ff7f0e; stroke-opacity: 0.8"/>
     <use xlink:href="#m359aeb4691" x="537.005146" y="604.145455" style="fill: #ff7f0e; fill-opacity: 0.8; stroke: #ff7f0e; stroke-opacity: 0.8"/>
     <use xlink:href="#m359aeb4691" x="556.147513" y="581.236364" style="fill: #ff7f0e; fill-opacity: 0.8; stroke: #ff7f0e; stroke-opacity: 0.8"/>
     <use xlink:href="#m359aeb4691" x="575.28988" y="604.145455" style="fill: #ff7f0e; fill-opacity: 0.8; stroke: #ff7f0e; stroke-opacity: 0.8"/>
     <use xlink:href="#m359aeb4691" x="594.432247" y="598.418182" style="fill: #ff7f0e; fill-opacity: 0.8; stroke: #ff7f0e; stroke-opacity: 0.8"/>
     <use xlink:href="#m359aeb4691" x="613.574614" y="609.872727" style="fill: #ff7f0e; fill-opacity: 0.8; stroke: #ff7f0e; stroke-opacity: 0.8"/>
     <use xlink:href="#m359aeb4691" x="632.716981" y="592.690909" style="fill: #ff7f0e; fill-opacity: 0.8; stroke: #ff7f0e; stroke-opacity: 0.8"/>
     <use xlink:href="#m359aeb4691" x="651.859348" y="615.6" style="fill: #ff7f0e; fill-opacity: 0.8; stroke: #ff7f0e; stroke-opacity: 0.8"/>
     <use xlink:href="#m359aeb4691" x="671.001715" y="609.872727" style="fill: #ff7f0e; fill-opacity: 0.8; stroke: #ff7f0e; stroke-opacity: 0.8"/>
     <use xlink:href="#m359aeb4691" x="690.144082" y="592.690909" style="fill: #ff7f0e; fill-opacity: 0.8; stroke: #ff7f0e; stroke-opacity: 0.8"/>
     <use xlink:href="#m359aeb4691" x="709.286449" y="604.145455" style="fill: #ff7f0e; fill-opacity: 0.8; stroke: #ff7f0e; stroke-opacity: 0.8"/>
     <use xlink:href="#m359aeb4691" x="728.428816" y="592.690909" style="fill: #ff7f0e; fill-opacity: 0.8; stroke: #ff7f0e; stroke-opacity: 0.8"/>
     <use xlink:href="#m359aeb4691" x="747.571184" y="609.872727" style="fill: #ff7f0e; fill-opacity: 0.8; stroke: #ff7f0e; stroke-opacity: 0.8"/>
     <use xlink:href="#m359aeb4691" x="766.713551" y="604.145455" style="fill: #ff7f0e; fill-opacity: 0.8; stroke: #ff7f0e; stroke-opacity: 0.8"/>
     <use xlink:href="#m359aeb4691" x="785.855918" y="615.6" style="fill: #ff7f0e; fill-opacity: 0.8; stroke: #ff7f0e; stroke-opacity: 0.8"/>
     <use xlink:href="#m359aeb4691" x="804.998285" y="609.872727" style="fill: #ff7f0e; fill-opacity: 0.8; stroke: #ff7f0e; stroke-opacity: 0.8"/>
     <use xlink:href="#m359aeb4691" x="824.140652" y="615.6" style="fill: #ff7f0e; fill-opacity: 0.8; stroke: #ff7f0e; stroke-opacity: 0.8"/>
     <use xlink:href="#m359aeb4691" x="843.283019" y="604.145455" style="fill: #ff7f0e; fill-opacity: 0.8; stroke: #ff7f0e; stroke-opacity: 0.8"/>
     <use xlink:href="#m359aeb4691" x="862.425386" y="609.872727" style="fill: #ff7f0e; fill-opacity: 0.8; stroke: #ff7f0e; stroke-opacity: 0.8"/>
     <use xlink:href="#m359aeb4691" x="881.567753" y="615.6" style="fill: #ff7f0e; fill-opacity: 0.8; stroke: #ff7f0e; stroke-opacity: 0.8"/>
     <use xlink:href="#m359aeb4691" x="900.71012" y="615.6" style="fill: #ff7f0e; fill-opacity: 0.8; stroke: #ff7f0e; stroke-opacity: 0.8"/>
     <use xlink:href="#m359aeb4691" x="919.852487" y="609.872727" style="fill: #ff7f0e; fill-opacity: 0.8; stroke: #ff7f0e; stroke-opacity: 0.8"/>
     <use xlink:href="#m359aeb4691" x="938.994854" y="598.418182" style="fill: #ff7f0e; fill-opacity: 0.8; stroke: #ff7f0e; stroke-opacity: 0.8"/>
     <use xlink:href="#m359aeb4691" x="958.137221" y="598.418182" style="fill: #ff7f0e; fill-opacity: 0.8; stroke: #ff7f0e; stroke-opacity: 0.8"/>
     <use xlink:href="#m359aeb4691" x="977.279588" y="586.963636" style="fill: #ff7f0e; fill-opacity: 0.8; stroke: #ff7f0e; stroke-opacity: 0.8"/>
     <use xlink:href="#m359aeb4691" x="996.421955" y="604.145455" style="fill: #ff7f0e; fill-opacity: 0.8; stroke: #ff7f0e; stroke-opacity: 0.8"/>
     <use xlink:href="#m359aeb4691" x="1015.564322" y="598.418182" style="fill: #ff7f0e; fill-opacity: 0.8; stroke: #ff7f0e; stroke-opacity: 0.8"/>
     <use xlink:href="#m359aeb4691" x="1034.70669" y="598.418182" style="fill: #ff7f0e; fill-opacity: 0.8; stroke: #ff7f0e; stroke-opacity: 0.8"/>
     <use xlink:href="#m359aeb4691" x="1053.849057" y="581.236364" style="fill: #ff7f0e; fill-opacity: 0.8; stroke: #ff7f0e; stroke-opacity: 0.8"/>
     <use xlink:href="#m359aeb4691" x="1072.991424" y="604.145455" style="fill: #ff7f0e; fill-opacity: 0.8; stroke: #ff7f0e; stroke-opacity: 0.8"/>
     <use xlink:href="#m359aeb4691" x="1092.133791" y="609.872727" style="fill: #ff7f0e; fill-opacity: 0.8; stroke: #ff7f0e; stroke-opacity: 0.8"/>
     <use xlink:href="#m359aeb4691" x="1111.276158" y="609.872727" style="fill: #ff7f0e; fill-opacity: 0.8; stroke: #ff7f0e; stroke-opacity: 0.8"/>
     <use xlink:href="#m359aeb4691" x="1130.418525" y="609.872727" style="fill: #ff7f0e; fill-opacity: 0.8; stroke: #ff7f0e; stroke-opacity: 0.8"/>
     <use xlink:href="#m359aeb4691" x="1149.560892" y="604.145455" style="fill: #ff7f0e; fill-opacity: 0.8; stroke: #ff7f0e; stroke-opacity: 0.8"/>
     <use xlink:href="#m359aeb4691" x="1168.703259" y="604.145455" style="fill: #ff7f0e; fill-opacity: 0.8; stroke: #ff7f0e; stroke-opacity: 0.8"/>
     <use xlink:href="#m359aeb4691" x="1187.845626" y="609.872727" style="fill: #ff7f0e; fill-opacity: 0.8; stroke: #ff7f0e; stroke-opacity: 0.8"/>
     <use xlink:href="#m359aeb4691" x="1206.987993" y="598.418182" style="fill: #ff7f0e; fill-opacity: 0.8; stroke: #ff7f0e; stroke-opacity: 0.8"/>
     <use xlink:href="#m359aeb4691" x="1226.13036" y="586.963636" style="fill: #ff7f0e; fill-opacity: 0.8; stroke: #ff7f0e; stroke-opacity: 0.8"/>
     <use xlink:href="#m359aeb4691" x="1245.272727" y="592.690909" style="fill: #ff7f0e; fill-opacity: 0.8; stroke: #ff7f0e; stroke-opacity: 0.8"/>
    </g>
   </g>
   <g id="PolyCollection_2">
    <path d="M 230.727273 592.622637 
L 230.727273 603.196512 
L 240.975207 603.202627 
L 251.22314 603.138526 
L 261.471074 603.073541 
L 271.719008 603.023149 
L 281.966942 603.015825 
L 292.214876 603.016552 
L 302.46281 603.017278 
L 312.710744 603.018005 
L 322.958678 603.005463 
L 333.206612 603.011807 
L 343.454545 602.989301 
L 353.702479 602.942464 
L 363.950413 602.932803 
L 374.198347 602.923142 
L 384.446281 602.920945 
L 394.694215 602.948324 
L 404.942149 602.973703 
L 415.190083 602.938979 
L 425.438017 602.934424 
L 435.68595 602.970202 
L 445.933884 602.985549 
L 456.181818 602.964552 
L 466.429752 602.951324 
L 476.677686 602.934701 
L 486.92562 602.918079 
L 497.173554 602.901457 
L 507.421488 602.949479 
L 517.669421 603.0142 
L 527.917355 603.036095 
L 538.165289 602.993151 
L 548.413223 602.958263 
L 558.661157 602.978239 
L 568.909091 602.96027 
L 579.157025 603.043052 
L 589.404959 603.045318 
L 599.652893 603.062733 
L 609.900826 603.077851 
L 620.14876 603.085485 
L 630.396694 603.14143 
L 640.644628 603.176849 
L 650.892562 603.212069 
L 661.140496 603.242868 
L 671.38843 603.310013 
L 681.636364 603.349027 
L 691.884298 603.417879 
L 702.132231 603.513059 
L 712.380165 603.573058 
L 722.628099 603.644409 
L 732.876033 603.6921 
L 743.123967 603.771015 
L 753.371901 603.82683 
L 763.619835 603.887673 
L 773.867769 603.977299 
L 784.115702 604.064094 
L 794.363636 604.159286 
L 804.61157 604.232623 
L 814.859504 604.303112 
L 825.107438 604.373647 
L 835.355372 604.444527 
L 845.603306 604.597111 
L 855.85124 604.69806 
L 866.099174 604.824955 
L 876.347107 604.946061 
L 886.595041 605.053658 
L 896.842975 605.156276 
L 907.090909 605.265734 
L 917.338843 605.407603 
L 927.586777 605.558696 
L 937.834711 605.705077 
L 948.082645 605.844938 
L 958.330579 605.9931 
L 968.578512 606.130968 
L 978.826446 606.28117 
L 989.07438 606.425313 
L 999.322314 606.568882 
L 1009.570248 606.726819 
L 1019.818182 606.889948 
L 1030.066116 607.025645 
L 1040.31405 607.204407 
L 1050.561983 607.374463 
L 1060.809917 607.525994 
L 1071.057851 607.700564 
L 1081.305785 607.845877 
L 1091.553719 607.989814 
L 1101.801653 608.133215 
L 1112.049587 608.277371 
L 1122.297521 608.421822 
L 1132.545455 608.566272 
L 1142.793388 608.715624 
L 1153.041322 608.886993 
L 1163.289256 609.038585 
L 1173.53719 609.194878 
L 1183.785124 609.365323 
L 1194.033058 609.535767 
L 1204.280992 609.706212 
L 1214.528926 609.876454 
L 1224.77686 610.040411 
L 1235.024793 610.165565 
L 1245.272727 610.290535 
L 1245.272727 599.754473 
L 1245.272727 599.754473 
L 1235.024793 599.744606 
L 1224.77686 599.73474 
L 1214.528926 599.725044 
L 1204.280992 599.728317 
L 1194.033058 599.712181 
L 1183.785124 599.713184 
L 1173.53719 599.689414 
L 1163.289256 599.673946 
L 1153.041322 599.663326 
L 1142.793388 599.632759 
L 1132.545455 599.616934 
L 1122.297521 599.631878 
L 1112.049587 599.622338 
L 1101.801653 599.636903 
L 1091.553719 599.673475 
L 1081.305785 599.710046 
L 1071.057851 599.745209 
L 1060.809917 599.700264 
L 1050.561983 599.686742 
L 1040.31405 599.668235 
L 1030.066116 599.675134 
L 1019.818182 599.690054 
L 1009.570248 599.69042 
L 999.322314 599.677542 
L 989.07438 599.670901 
L 978.826446 599.715126 
L 968.578512 599.699622 
L 958.330579 599.647653 
L 948.082645 599.704567 
L 937.834711 599.695179 
L 927.586777 599.667123 
L 917.338843 599.582681 
L 907.090909 599.559785 
L 896.842975 599.510831 
L 886.595041 599.433683 
L 876.347107 599.385946 
L 866.099174 599.3874 
L 855.85124 599.422011 
L 845.603306 599.402901 
L 835.355372 599.357343 
L 825.107438 599.355964 
L 814.859504 599.304339 
L 804.61157 599.207249 
L 794.363636 599.171744 
L 784.115702 599.126746 
L 773.867769 599.126496 
L 763.619835 599.008548 
L 753.371901 598.958207 
L 743.123967 598.908231 
L 732.876033 598.833965 
L 722.628099 598.730419 
L 712.380165 598.627305 
L 702.132231 598.565143 
L 691.884298 598.454544 
L 681.636364 598.315906 
L 671.38843 598.217359 
L 661.140496 598.119755 
L 650.892562 598.064649 
L 640.644628 598.030064 
L 630.396694 597.951762 
L 620.14876 597.822165 
L 609.900826 597.712373 
L 599.652893 597.572738 
L 589.404959 597.4888 
L 579.157025 597.417576 
L 568.909091 597.310278 
L 558.661157 597.203172 
L 548.413223 597.044042 
L 538.165289 596.90727 
L 527.917355 596.76597 
L 517.669421 596.622118 
L 507.421488 596.477011 
L 497.173554 596.331374 
L 486.92562 596.189606 
L 476.677686 596.065245 
L 466.429752 595.961302 
L 456.181818 595.795755 
L 445.933884 595.614294 
L 435.68595 595.526801 
L 425.438017 595.433912 
L 415.190083 595.28497 
L 404.942149 595.13615 
L 394.694215 594.987352 
L 384.446281 594.858325 
L 374.198347 594.726671 
L 363.950413 594.588873 
L 353.702479 594.441196 
L 343.454545 594.251492 
L 333.206612 594.103533 
L 322.958678 594.011009 
L 312.710744 593.886671 
L 302.46281 593.727123 
L 292.214876 593.567655 
L 281.966942 593.441484 
L 271.719008 593.282131 
L 261.471074 593.127869 
L 251.22314 592.952131 
L 240.975207 592.786588 
L 230.727273 592.622637 
z
" clip-path="url(#p86382d70fa)" style="fill: #ff7f0e; fill-opacity: 0.15"/>
   </g>
   <g id="PathCollection_3">
    <defs>
     <path id="mc323abe5fd" d="M 0 3 
C 0.795609 3 1.55874 2.683901 2.12132 2.12132 
C 2.683901 1.55874 3 0.795609 3 0 
C 3 -0.795609 2.683901 -1.55874 2.12132 -2.12132 
C 1.55874 -2.683901 0.795609 -3 0 -3 
C -0.795609 -3 -1.55874 -2.683901 -2.12132 -2.12132 
C -2.683901 -1.55874 -3 -0.795609 -3 0 
C -3 0.795609 -2.683901 1.55874 -2.12132 2.12132 
C -1.55874 2.683901 -0.795609 3 0 3 
z
" style="stroke: #2ca02c; stroke-opacity: 0.8"/>
    </defs>
    <g clip-path="url(#p86382d70fa)">
     <use xlink:href="#mc323abe5fd" x="230.727273" y="443.781818" style="fill: #2ca02c; fill-opacity: 0.8; stroke: #2ca02c; stroke-opacity: 0.8"/>
     <use xlink:href="#mc323abe5fd" x="249.86964" y="386.509091" style="fill: #2ca02c; fill-opacity: 0.8; stroke: #2ca02c; stroke-opacity: 0.8"/>
     <use xlink:href="#mc323abe5fd" x="269.012007" y="449.509091" style="fill: #2ca02c; fill-opacity: 0.8; stroke: #2ca02c; stroke-opacity: 0.8"/>
     <use xlink:href="#mc323abe5fd" x="288.154374" y="403.690909" style="fill: #2ca02c; fill-opacity: 0.8; stroke: #2ca02c; stroke-opacity: 0.8"/>
     <use xlink:href="#mc323abe5fd" x="307.296741" y="438.054545" style="fill: #2ca02c; fill-opacity: 0.8; stroke: #2ca02c; stroke-opacity: 0.8"/>
     <use xlink:href="#mc323abe5fd" x="326.439108" y="409.418182" style="fill: #2ca02c; fill-opacity: 0.8; stroke: #2ca02c; stroke-opacity: 0.8"/>
     <use xlink:href="#mc323abe5fd" x="345.581475" y="460.963636" style="fill: #2ca02c; fill-opacity: 0.8; stroke: #2ca02c; stroke-opacity: 0.8"/>
     <use xlink:href="#mc323abe5fd" x="364.723842" y="443.781818" style="fill: #2ca02c; fill-opacity: 0.8; stroke: #2ca02c; stroke-opacity: 0.8"/>
     <use xlink:href="#mc323abe5fd" x="383.866209" y="455.236364" style="fill: #2ca02c; fill-opacity: 0.8; stroke: #2ca02c; stroke-opacity: 0.8"/>
     <use xlink:href="#mc323abe5fd" x="403.008576" y="438.054545" style="fill: #2ca02c; fill-opacity: 0.8; stroke: #2ca02c; stroke-opacity: 0.8"/>
     <use xlink:href="#mc323abe5fd" x="422.150943" y="426.6" style="fill: #2ca02c; fill-opacity: 0.8; stroke: #2ca02c; stroke-opacity: 0.8"/>
     <use xlink:href="#mc323abe5fd" x="441.29331" y="415.145455" style="fill: #2ca02c; fill-opacity: 0.8; stroke: #2ca02c; stroke-opacity: 0.8"/>
     <use xlink:href="#mc323abe5fd" x="460.435678" y="397.963636" style="fill: #2ca02c; fill-opacity: 0.8; stroke: #2ca02c; stroke-opacity: 0.8"/>
     <use xlink:href="#mc323abe5fd" x="479.578045" y="478.145455" style="fill: #2ca02c; fill-opacity: 0.8; stroke: #2ca02c; stroke-opacity: 0.8"/>
     <use xlink:href="#mc323abe5fd" x="498.720412" y="420.872727" style="fill: #2ca02c; fill-opacity: 0.8; stroke: #2ca02c; stroke-opacity: 0.8"/>
     <use xlink:href="#mc323abe5fd" x="517.862779" y="375.054545" style="fill: #2ca02c; fill-opacity: 0.8; stroke: #2ca02c; stroke-opacity: 0.8"/>
     <use xlink:href="#mc323abe5fd" x="537.005146" y="460.963636" style="fill: #2ca02c; fill-opacity: 0.8; stroke: #2ca02c; stroke-opacity: 0.8"/>
     <use xlink:href="#mc323abe5fd" x="556.147513" y="495.327273" style="fill: #2ca02c; fill-opacity: 0.8; stroke: #2ca02c; stroke-opacity: 0.8"/>
     <use xlink:href="#mc323abe5fd" x="575.28988" y="426.6" style="fill: #2ca02c; fill-opacity: 0.8; stroke: #2ca02c; stroke-opacity: 0.8"/>
     <use xlink:href="#mc323abe5fd" x="594.432247" y="409.418182" style="fill: #2ca02c; fill-opacity: 0.8; stroke: #2ca02c; stroke-opacity: 0.8"/>
     <use xlink:href="#mc323abe5fd" x="613.574614" y="460.963636" style="fill: #2ca02c; fill-opacity: 0.8; stroke: #2ca02c; stroke-opacity: 0.8"/>
     <use xlink:href="#mc323abe5fd" x="632.716981" y="426.6" style="fill: #2ca02c; fill-opacity: 0.8; stroke: #2ca02c; stroke-opacity: 0.8"/>
     <use xlink:href="#mc323abe5fd" x="651.859348" y="426.6" style="fill: #2ca02c; fill-opacity: 0.8; stroke: #2ca02c; stroke-opacity: 0.8"/>
     <use xlink:href="#mc323abe5fd" x="671.001715" y="415.145455" style="fill: #2ca02c; fill-opacity: 0.8; stroke: #2ca02c; stroke-opacity: 0.8"/>
     <use xlink:href="#mc323abe5fd" x="690.144082" y="369.327273" style="fill: #2ca02c; fill-opacity: 0.8; stroke: #2ca02c; stroke-opacity: 0.8"/>
     <use xlink:href="#mc323abe5fd" x="709.286449" y="472.418182" style="fill: #2ca02c; fill-opacity: 0.8; stroke: #2ca02c; stroke-opacity: 0.8"/>
     <use xlink:href="#mc323abe5fd" x="728.428816" y="443.781818" style="fill: #2ca02c; fill-opacity: 0.8; stroke: #2ca02c; stroke-opacity: 0.8"/>
     <use xlink:href="#mc323abe5fd" x="747.571184" y="415.145455" style="fill: #2ca02c; fill-opacity: 0.8; stroke: #2ca02c; stroke-opacity: 0.8"/>
     <use xlink:href="#mc323abe5fd" x="766.713551" y="415.145455" style="fill: #2ca02c; fill-opacity: 0.8; stroke: #2ca02c; stroke-opacity: 0.8"/>
     <use xlink:href="#mc323abe5fd" x="785.855918" y="426.6" style="fill: #2ca02c; fill-opacity: 0.8; stroke: #2ca02c; stroke-opacity: 0.8"/>
     <use xlink:href="#mc323abe5fd" x="804.998285" y="460.963636" style="fill: #2ca02c; fill-opacity: 0.8; stroke: #2ca02c; stroke-opacity: 0.8"/>
     <use xlink:href="#mc323abe5fd" x="824.140652" y="386.509091" style="fill: #2ca02c; fill-opacity: 0.8; stroke: #2ca02c; stroke-opacity: 0.8"/>
     <use xlink:href="#mc323abe5fd" x="843.283019" y="409.418182" style="fill: #2ca02c; fill-opacity: 0.8; stroke: #2ca02c; stroke-opacity: 0.8"/>
     <use xlink:href="#mc323abe5fd" x="862.425386" y="409.418182" style="fill: #2ca02c; fill-opacity: 0.8; stroke: #2ca02c; stroke-opacity: 0.8"/>
     <use xlink:href="#mc323abe5fd" x="881.567753" y="403.690909" style="fill: #2ca02c; fill-opacity: 0.8; stroke: #2ca02c; stroke-opacity: 0.8"/>
     <use xlink:href="#mc323abe5fd" x="900.71012" y="426.6" style="fill: #2ca02c; fill-opacity: 0.8; stroke: #2ca02c; stroke-opacity: 0.8"/>
     <use xlink:href="#mc323abe5fd" x="919.852487" y="375.054545" style="fill: #2ca02c; fill-opacity: 0.8; stroke: #2ca02c; stroke-opacity: 0.8"/>
     <use xlink:href="#mc323abe5fd" x="938.994854" y="443.781818" style="fill: #2ca02c; fill-opacity: 0.8; stroke: #2ca02c; stroke-opacity: 0.8"/>
     <use xlink:href="#mc323abe5fd" x="958.137221" y="397.963636" style="fill: #2ca02c; fill-opacity: 0.8; stroke: #2ca02c; stroke-opacity: 0.8"/>
     <use xlink:href="#mc323abe5fd" x="977.279588" y="478.145455" style="fill: #2ca02c; fill-opacity: 0.8; stroke: #2ca02c; stroke-opacity: 0.8"/>
     <use xlink:href="#mc323abe5fd" x="996.421955" y="466.690909" style="fill: #2ca02c; fill-opacity: 0.8; stroke: #2ca02c; stroke-opacity: 0.8"/>
     <use xlink:href="#mc323abe5fd" x="1015.564322" y="472.418182" style="fill: #2ca02c; fill-opacity: 0.8; stroke: #2ca02c; stroke-opacity: 0.8"/>
     <use xlink:href="#mc323abe5fd" x="1034.70669" y="426.6" style="fill: #2ca02c; fill-opacity: 0.8; stroke: #2ca02c; stroke-opacity: 0.8"/>
     <use xlink:href="#mc323abe5fd" x="1053.849057" y="466.690909" style="fill: #2ca02c; fill-opacity: 0.8; stroke: #2ca02c; stroke-opacity: 0.8"/>
     <use xlink:href="#mc323abe5fd" x="1072.991424" y="443.781818" style="fill: #2ca02c; fill-opacity: 0.8; stroke: #2ca02c; stroke-opacity: 0.8"/>
     <use xlink:href="#mc323abe5fd" x="1092.133791" y="455.236364" style="fill: #2ca02c; fill-opacity: 0.8; stroke: #2ca02c; stroke-opacity: 0.8"/>
     <use xlink:href="#mc323abe5fd" x="1111.276158" y="397.963636" style="fill: #2ca02c; fill-opacity: 0.8; stroke: #2ca02c; stroke-opacity: 0.8"/>
     <use xlink:href="#mc323abe5fd" x="1130.418525" y="420.872727" style="fill: #2ca02c; fill-opacity: 0.8; stroke: #2ca02c; stroke-opacity: 0.8"/>
     <use xlink:href="#mc323abe5fd" x="1149.560892" y="472.418182" style="fill: #2ca02c; fill-opacity: 0.8; stroke: #2ca02c; stroke-opacity: 0.8"/>
     <use xlink:href="#mc323abe5fd" x="1168.703259" y="460.963636" style="fill: #2ca02c; fill-opacity: 0.8; stroke: #2ca02c; stroke-opacity: 0.8"/>
     <use xlink:href="#mc323abe5fd" x="1187.845626" y="443.781818" style="fill: #2ca02c; fill-opacity: 0.8; stroke: #2ca02c; stroke-opacity: 0.8"/>
     <use xlink:href="#mc323abe5fd" x="1206.987993" y="438.054545" style="fill: #2ca02c; fill-opacity: 0.8; stroke: #2ca02c; stroke-opacity: 0.8"/>
     <use xlink:href="#mc323abe5fd" x="1226.13036" y="472.418182" style="fill: #2ca02c; fill-opacity: 0.8; stroke: #2ca02c; stroke-opacity: 0.8"/>
     <use xlink:href="#mc323abe5fd" x="1245.272727" y="420.872727" style="fill: #2ca02c; fill-opacity: 0.8; stroke: #2ca02c; stroke-opacity: 0.8"/>
    </g>
   </g>
   <g id="PolyCollection_3">
    <path d="M 230.727273 411.252651 
L 230.727273 439.568362 
L 240.975207 439.539575 
L 251.22314 439.39839 
L 261.471074 439.365423 
L 271.719008 439.37051 
L 281.966942 439.346107 
L 292.214876 439.214615 
L 302.46281 439.163787 
L 312.710744 439.132856 
L 322.958678 439.12266 
L 333.206612 439.105117 
L 343.454545 439.097863 
L 353.702479 439.092965 
L 363.950413 439.117589 
L 374.198347 439.142212 
L 384.446281 439.163701 
L 394.694215 439.170989 
L 404.942149 439.178277 
L 415.190083 439.16081 
L 425.438017 439.099979 
L 435.68595 439.123885 
L 445.933884 439.144041 
L 456.181818 439.172921 
L 466.429752 439.115725 
L 476.677686 439.158476 
L 486.92562 439.210773 
L 497.173554 439.12319 
L 507.421488 439.029039 
L 517.669421 438.937992 
L 527.917355 438.870581 
L 538.165289 438.996972 
L 548.413223 439.123363 
L 558.661157 439.249755 
L 568.909091 439.320627 
L 579.157025 439.321455 
L 589.404959 439.305136 
L 599.652893 439.386721 
L 609.900826 439.477013 
L 620.14876 439.326984 
L 630.396694 439.334169 
L 640.644628 439.54909 
L 650.892562 439.499413 
L 661.140496 439.611888 
L 671.38843 439.618324 
L 681.636364 439.64403 
L 691.884298 439.853248 
L 702.132231 439.945129 
L 712.380165 440.072329 
L 722.628099 440.304006 
L 732.876033 440.389039 
L 743.123967 440.458348 
L 753.371901 440.549529 
L 763.619835 440.750586 
L 773.867769 440.860856 
L 784.115702 440.944665 
L 794.363636 441.196122 
L 804.61157 441.466141 
L 814.859504 441.681727 
L 825.107438 441.842779 
L 835.355372 442.004393 
L 845.603306 442.166008 
L 855.85124 442.32742 
L 866.099174 442.621766 
L 876.347107 442.734324 
L 886.595041 442.859179 
L 896.842975 443.00793 
L 907.090909 443.161349 
L 917.338843 443.484259 
L 927.586777 443.708963 
L 937.834711 443.941069 
L 948.082645 444.155384 
L 958.330579 444.33279 
L 968.578512 444.577832 
L 978.826446 444.825635 
L 989.07438 445.070888 
L 999.322314 445.316141 
L 1009.570248 445.627316 
L 1019.818182 445.971827 
L 1030.066116 446.220794 
L 1040.31405 446.538375 
L 1050.561983 446.8161 
L 1060.809917 447.077548 
L 1071.057851 447.334983 
L 1081.305785 447.584516 
L 1091.553719 447.871108 
L 1101.801653 448.158086 
L 1112.049587 448.444761 
L 1122.297521 448.728384 
L 1132.545455 449.031348 
L 1142.793388 449.299058 
L 1153.041322 449.624151 
L 1163.289256 450.049535 
L 1173.53719 450.473447 
L 1183.785124 450.781282 
L 1194.033058 451.023977 
L 1204.280992 451.266673 
L 1214.528926 451.562781 
L 1224.77686 451.934953 
L 1235.024793 452.35119 
L 1245.272727 452.659998 
L 1245.272727 425.229285 
L 1245.272727 425.229285 
L 1235.024793 425.308077 
L 1224.77686 425.386712 
L 1214.528926 425.429612 
L 1204.280992 425.46258 
L 1194.033058 425.521091 
L 1183.785124 425.593218 
L 1173.53719 425.636545 
L 1163.289256 425.691413 
L 1153.041322 425.74628 
L 1142.793388 425.803031 
L 1132.545455 425.863054 
L 1122.297521 425.923078 
L 1112.049587 425.983102 
L 1101.801653 426.043126 
L 1091.553719 426.099276 
L 1081.305785 426.153001 
L 1071.057851 426.122186 
L 1060.809917 426.06547 
L 1050.561983 426.008753 
L 1040.31405 426.013998 
L 1030.066116 426.084416 
L 1019.818182 426.026658 
L 1009.570248 426.149134 
L 999.322314 426.140443 
L 989.07438 426.138443 
L 978.826446 426.103669 
L 968.578512 426.084346 
L 958.330579 426.066998 
L 948.082645 426.075607 
L 937.834711 426.031122 
L 927.586777 426.01125 
L 917.338843 425.991379 
L 907.090909 425.971508 
L 896.842975 425.951637 
L 886.595041 425.826599 
L 876.347107 425.695113 
L 866.099174 425.67316 
L 855.85124 425.65384 
L 845.603306 425.524163 
L 835.355372 425.532721 
L 825.107438 425.467759 
L 814.859504 425.331204 
L 804.61157 425.194649 
L 794.363636 425.195428 
L 784.115702 425.208407 
L 773.867769 425.092905 
L 763.619835 424.908944 
L 753.371901 424.602067 
L 743.123967 424.580769 
L 732.876033 424.379682 
L 722.628099 424.34042 
L 712.380165 424.16455 
L 702.132231 423.969579 
L 691.884298 423.845823 
L 681.636364 423.852847 
L 671.38843 423.581179 
L 661.140496 423.284424 
L 650.892562 423.087376 
L 640.644628 422.943143 
L 630.396694 422.760391 
L 620.14876 422.492948 
L 609.900826 422.238131 
L 599.652893 421.991834 
L 589.404959 421.751789 
L 579.157025 421.634702 
L 568.909091 421.333463 
L 558.661157 421.176236 
L 548.413223 420.930342 
L 538.165289 420.6653 
L 527.917355 420.293552 
L 517.669421 419.787776 
L 507.421488 419.557894 
L 497.173554 419.282854 
L 486.92562 419.038859 
L 476.677686 418.744109 
L 466.429752 418.419439 
L 456.181818 418.19309 
L 445.933884 417.999315 
L 435.68595 417.676153 
L 425.438017 417.380616 
L 415.190083 417.079261 
L 404.942149 416.807443 
L 394.694215 416.51873 
L 384.446281 416.26645 
L 374.198347 415.994556 
L 363.950413 415.722661 
L 353.702479 415.344977 
L 343.454545 415.013718 
L 333.206612 414.824538 
L 322.958678 414.49267 
L 312.710744 414.138073 
L 302.46281 413.783475 
L 292.214876 413.428878 
L 281.966942 413.07428 
L 271.719008 412.726823 
L 261.471074 412.362285 
L 251.22314 412.005036 
L 240.975207 411.647788 
L 230.727273 411.252651 
z
" clip-path="url(#p86382d70fa)" style="fill: #2ca02c; fill-opacity: 0.15"/>
   </g>
   <g id="matplotlib.axis_1">
    <g id="xtick_1">
     <g id="line2d_1">
      <defs>
       <path id="m4b9a8a57f5" d="M 0 0 
L 0 3.5 
" style="stroke: #000000; stroke-width: 0.8"/>
      </defs>
      <g>
       <use xlink:href="#m4b9a8a57f5" x="211.584906" y="640.8" style="stroke: #000000; stroke-width: 0.8"/>
      </g>
     </g>
     <g id="text_1">
      <!-- 0 -->
      <g transform="translate(208.403656 655.398438) scale(0.1 -0.1)">
       <defs>
        <path id="DejaVuSans-30" d="M 2034 4250 
Q 1547 4250 1301 3770 
Q 1056 3291 1056 2328 
Q 1056 1369 1301 889 
Q 1547 409 2034 409 
Q 2525 409 2770 889 
Q 3016 1369 3016 2328 
Q 3016 3291 2770 3770 
Q 2525 4250 2034 4250 
z
M 2034 4750 
Q 2819 4750 3233 4129 
Q 3647 3509 3647 2328 
Q 3647 1150 3233 529 
Q 2819 -91 2034 -91 
Q 1250 -91 836 529 
Q 422 1150 422 2328 
Q 422 3509 836 4129 
Q 1250 4750 2034 4750 
z
" transform="scale(0.015625)"/>
       </defs>
       <use xlink:href="#DejaVuSans-30"/>
      </g>
     </g>
    </g>
    <g id="xtick_2">
     <g id="line2d_2">
      <g>
       <use xlink:href="#m4b9a8a57f5" x="556.147513" y="640.8" style="stroke: #000000; stroke-width: 0.8"/>
      </g>
     </g>
     <g id="text_2">
      <!-- 18 -->
      <g transform="translate(549.785013 655.398438) scale(0.1 -0.1)">
       <defs>
        <path id="DejaVuSans-31" d="M 794 531 
L 1825 531 
L 1825 4091 
L 703 3866 
L 703 4441 
L 1819 4666 
L 2450 4666 
L 2450 531 
L 3481 531 
L 3481 0 
L 794 0 
L 794 531 
z
" transform="scale(0.015625)"/>
        <path id="DejaVuSans-38" d="M 2034 2216 
Q 1584 2216 1326 1975 
Q 1069 1734 1069 1313 
Q 1069 891 1326 650 
Q 1584 409 2034 409 
Q 2484 409 2743 651 
Q 3003 894 3003 1313 
Q 3003 1734 2745 1975 
Q 2488 2216 2034 2216 
z
M 1403 2484 
Q 997 2584 770 2862 
Q 544 3141 544 3541 
Q 544 4100 942 4425 
Q 1341 4750 2034 4750 
Q 2731 4750 3128 4425 
Q 3525 4100 3525 3541 
Q 3525 3141 3298 2862 
Q 3072 2584 2669 2484 
Q 3125 2378 3379 2068 
Q 3634 1759 3634 1313 
Q 3634 634 3220 271 
Q 2806 -91 2034 -91 
Q 1263 -91 848 271 
Q 434 634 434 1313 
Q 434 1759 690 2068 
Q 947 2378 1403 2484 
z
M 1172 3481 
Q 1172 3119 1398 2916 
Q 1625 2713 2034 2713 
Q 2441 2713 2670 2916 
Q 2900 3119 2900 3481 
Q 2900 3844 2670 4047 
Q 2441 4250 2034 4250 
Q 1625 4250 1398 4047 
Q 1172 3844 1172 3481 
z
" transform="scale(0.015625)"/>
       </defs>
       <use xlink:href="#DejaVuSans-31"/>
       <use xlink:href="#DejaVuSans-38" x="63.623047"/>
      </g>
     </g>
    </g>
    <g id="xtick_3">
     <g id="line2d_3">
      <g>
       <use xlink:href="#m4b9a8a57f5" x="900.71012" y="640.8" style="stroke: #000000; stroke-width: 0.8"/>
      </g>
     </g>
     <g id="text_3">
      <!-- 36 -->
      <g transform="translate(894.34762 655.398438) scale(0.1 -0.1)">
       <defs>
        <path id="DejaVuSans-33" d="M 2597 2516 
Q 3050 2419 3304 2112 
Q 3559 1806 3559 1356 
Q 3559 666 3084 287 
Q 2609 -91 1734 -91 
Q 1441 -91 1130 -33 
Q 819 25 488 141 
L 488 750 
Q 750 597 1062 519 
Q 1375 441 1716 441 
Q 2309 441 2620 675 
Q 2931 909 2931 1356 
Q 2931 1769 2642 2001 
Q 2353 2234 1838 2234 
L 1294 2234 
L 1294 2753 
L 1863 2753 
Q 2328 2753 2575 2939 
Q 2822 3125 2822 3475 
Q 2822 3834 2567 4026 
Q 2313 4219 1838 4219 
Q 1578 4219 1281 4162 
Q 984 4106 628 3988 
L 628 4550 
Q 988 4650 1302 4700 
Q 1616 4750 1894 4750 
Q 2613 4750 3031 4423 
Q 3450 4097 3450 3541 
Q 3450 3153 3228 2886 
Q 3006 2619 2597 2516 
z
" transform="scale(0.015625)"/>
        <path id="DejaVuSans-36" d="M 2113 2584 
Q 1688 2584 1439 2293 
Q 1191 2003 1191 1497 
Q 1191 994 1439 701 
Q 1688 409 2113 409 
Q 2538 409 2786 701 
Q 3034 994 3034 1497 
Q 3034 2003 2786 2293 
Q 2538 2584 2113 2584 
z
M 3366 4563 
L 3366 3988 
Q 3128 4100 2886 4159 
Q 2644 4219 2406 4219 
Q 1781 4219 1451 3797 
Q 1122 3375 1075 2522 
Q 1259 2794 1537 2939 
Q 1816 3084 2150 3084 
Q 2853 3084 3261 2657 
Q 3669 2231 3669 1497 
Q 3669 778 3244 343 
Q 2819 -91 2113 -91 
Q 1303 -91 875 529 
Q 447 1150 447 2328 
Q 447 3434 972 4092 
Q 1497 4750 2381 4750 
Q 2619 4750 2861 4703 
Q 3103 4656 3366 4563 
z
" transform="scale(0.015625)"/>
       </defs>
       <use xlink:href="#DejaVuSans-33"/>
       <use xlink:href="#DejaVuSans-36" x="63.623047"/>
      </g>
     </g>
    </g>
    <g id="xtick_4">
     <g id="line2d_4">
      <g>
       <use xlink:href="#m4b9a8a57f5" x="1245.272727" y="640.8" style="stroke: #000000; stroke-width: 0.8"/>
      </g>
     </g>
     <g id="text_4">
      <!-- 54 -->
      <g transform="translate(1238.910227 655.398438) scale(0.1 -0.1)">
       <defs>
        <path id="DejaVuSans-35" d="M 691 4666 
L 3169 4666 
L 3169 4134 
L 1269 4134 
L 1269 2991 
Q 1406 3038 1543 3061 
Q 1681 3084 1819 3084 
Q 2600 3084 3056 2656 
Q 3513 2228 3513 1497 
Q 3513 744 3044 326 
Q 2575 -91 1722 -91 
Q 1428 -91 1123 -41 
Q 819 9 494 109 
L 494 744 
Q 775 591 1075 516 
Q 1375 441 1709 441 
Q 2250 441 2565 725 
Q 2881 1009 2881 1497 
Q 2881 1984 2565 2268 
Q 2250 2553 1709 2553 
Q 1456 2553 1204 2497 
Q 953 2441 691 2322 
L 691 4666 
z
" transform="scale(0.015625)"/>
        <path id="DejaVuSans-34" d="M 2419 4116 
L 825 1625 
L 2419 1625 
L 2419 4116 
z
M 2253 4666 
L 3047 4666 
L 3047 1625 
L 3713 1625 
L 3713 1100 
L 3047 1100 
L 3047 0 
L 2419 0 
L 2419 1100 
L 313 1100 
L 313 1709 
L 2253 4666 
z
" transform="scale(0.015625)"/>
       </defs>
       <use xlink:href="#DejaVuSans-35"/>
       <use xlink:href="#DejaVuSans-34" x="63.623047"/>
      </g>
     </g>
    </g>
    <g id="text_5">
     <!-- Task Index -->
     <g transform="translate(711.851562 669.076563) scale(0.1 -0.1)">
      <defs>
       <path id="DejaVuSans-54" d="M -19 4666 
L 3928 4666 
L 3928 4134 
L 2272 4134 
L 2272 0 
L 1638 0 
L 1638 4134 
L -19 4134 
L -19 4666 
z
" transform="scale(0.015625)"/>
       <path id="DejaVuSans-61" d="M 2194 1759 
Q 1497 1759 1228 1600 
Q 959 1441 959 1056 
Q 959 750 1161 570 
Q 1363 391 1709 391 
Q 2188 391 2477 730 
Q 2766 1069 2766 1631 
L 2766 1759 
L 2194 1759 
z
M 3341 1997 
L 3341 0 
L 2766 0 
L 2766 531 
Q 2569 213 2275 61 
Q 1981 -91 1556 -91 
Q 1019 -91 701 211 
Q 384 513 384 1019 
Q 384 1609 779 1909 
Q 1175 2209 1959 2209 
L 2766 2209 
L 2766 2266 
Q 2766 2663 2505 2880 
Q 2244 3097 1772 3097 
Q 1472 3097 1187 3025 
Q 903 2953 641 2809 
L 641 3341 
Q 956 3463 1253 3523 
Q 1550 3584 1831 3584 
Q 2591 3584 2966 3190 
Q 3341 2797 3341 1997 
z
" transform="scale(0.015625)"/>
       <path id="DejaVuSans-73" d="M 2834 3397 
L 2834 2853 
Q 2591 2978 2328 3040 
Q 2066 3103 1784 3103 
Q 1356 3103 1142 2972 
Q 928 2841 928 2578 
Q 928 2378 1081 2264 
Q 1234 2150 1697 2047 
L 1894 2003 
Q 2506 1872 2764 1633 
Q 3022 1394 3022 966 
Q 3022 478 2636 193 
Q 2250 -91 1575 -91 
Q 1294 -91 989 -36 
Q 684 19 347 128 
L 347 722 
Q 666 556 975 473 
Q 1284 391 1588 391 
Q 1994 391 2212 530 
Q 2431 669 2431 922 
Q 2431 1156 2273 1281 
Q 2116 1406 1581 1522 
L 1381 1569 
Q 847 1681 609 1914 
Q 372 2147 372 2553 
Q 372 3047 722 3315 
Q 1072 3584 1716 3584 
Q 2034 3584 2315 3537 
Q 2597 3491 2834 3397 
z
" transform="scale(0.015625)"/>
       <path id="DejaVuSans-6b" d="M 581 4863 
L 1159 4863 
L 1159 1991 
L 2875 3500 
L 3609 3500 
L 1753 1863 
L 3688 0 
L 2938 0 
L 1159 1709 
L 1159 0 
L 581 0 
L 581 4863 
z
" transform="scale(0.015625)"/>
       <path id="DejaVuSans-20" transform="scale(0.015625)"/>
       <path id="DejaVuSans-49" d="M 628 4666 
L 1259 4666 
L 1259 0 
L 628 0 
L 628 4666 
z
" transform="scale(0.015625)"/>
       <path id="DejaVuSans-6e" d="M 3513 2113 
L 3513 0 
L 2938 0 
L 2938 2094 
Q 2938 2591 2744 2837 
Q 2550 3084 2163 3084 
Q 1697 3084 1428 2787 
Q 1159 2491 1159 1978 
L 1159 0 
L 581 0 
L 581 3500 
L 1159 3500 
L 1159 2956 
Q 1366 3272 1645 3428 
Q 1925 3584 2291 3584 
Q 2894 3584 3203 3211 
Q 3513 2838 3513 2113 
z
" transform="scale(0.015625)"/>
       <path id="DejaVuSans-64" d="M 2906 2969 
L 2906 4863 
L 3481 4863 
L 3481 0 
L 2906 0 
L 2906 525 
Q 2725 213 2448 61 
Q 2172 -91 1784 -91 
Q 1150 -91 751 415 
Q 353 922 353 1747 
Q 353 2572 751 3078 
Q 1150 3584 1784 3584 
Q 2172 3584 2448 3432 
Q 2725 3281 2906 2969 
z
M 947 1747 
Q 947 1113 1208 752 
Q 1469 391 1925 391 
Q 2381 391 2643 752 
Q 2906 1113 2906 1747 
Q 2906 2381 2643 2742 
Q 2381 3103 1925 3103 
Q 1469 3103 1208 2742 
Q 947 2381 947 1747 
z
" transform="scale(0.015625)"/>
       <path id="DejaVuSans-65" d="M 3597 1894 
L 3597 1613 
L 953 1613 
Q 991 1019 1311 708 
Q 1631 397 2203 397 
Q 2534 397 2845 478 
Q 3156 559 3463 722 
L 3463 178 
Q 3153 47 2828 -22 
Q 2503 -91 2169 -91 
Q 1331 -91 842 396 
Q 353 884 353 1716 
Q 353 2575 817 3079 
Q 1281 3584 2069 3584 
Q 2775 3584 3186 3129 
Q 3597 2675 3597 1894 
z
M 3022 2063 
Q 3016 2534 2758 2815 
Q 2500 3097 2075 3097 
Q 1594 3097 1305 2825 
Q 1016 2553 972 2059 
L 3022 2063 
z
" transform="scale(0.015625)"/>
       <path id="DejaVuSans-78" d="M 3513 3500 
L 2247 1797 
L 3578 0 
L 2900 0 
L 1881 1375 
L 863 0 
L 184 0 
L 1544 1831 
L 300 3500 
L 978 3500 
L 1906 2253 
L 2834 3500 
L 3513 3500 
z
" transform="scale(0.015625)"/>
      </defs>
      <use xlink:href="#DejaVuSans-54"/>
      <use xlink:href="#DejaVuSans-61" x="44.583984"/>
      <use xlink:href="#DejaVuSans-73" x="105.863281"/>
      <use xlink:href="#DejaVuSans-6b" x="157.962891"/>
      <use xlink:href="#DejaVuSans-20" x="215.873047"/>
      <use xlink:href="#DejaVuSans-49" x="247.660156"/>
      <use xlink:href="#DejaVuSans-6e" x="277.152344"/>
      <use xlink:href="#DejaVuSans-64" x="340.53125"/>
      <use xlink:href="#DejaVuSans-65" x="404.007812"/>
      <use xlink:href="#DejaVuSans-78" x="463.78125"/>
     </g>
    </g>
   </g>
   <g id="matplotlib.axis_2">
    <g id="ytick_1">
     <g id="line2d_5">
      <defs>
       <path id="m7c2143d0a6" d="M 0 0 
L -3.5 0 
" style="stroke: #000000; stroke-width: 0.8"/>
      </defs>
      <g>
       <use xlink:href="#m7c2143d0a6" x="180" y="615.6" style="stroke: #000000; stroke-width: 0.8"/>
      </g>
     </g>
     <g id="text_6">
      <!-- 0.0 -->
      <g transform="translate(157.096875 619.399219) scale(0.1 -0.1)">
       <defs>
        <path id="DejaVuSans-2e" d="M 684 794 
L 1344 794 
L 1344 0 
L 684 0 
L 684 794 
z
" transform="scale(0.015625)"/>
       </defs>
       <use xlink:href="#DejaVuSans-30"/>
       <use xlink:href="#DejaVuSans-2e" x="63.623047"/>
       <use xlink:href="#DejaVuSans-30" x="95.410156"/>
      </g>
     </g>
    </g>
    <g id="ytick_2">
     <g id="line2d_6">
      <g>
       <use xlink:href="#m7c2143d0a6" x="180" y="549.736364" style="stroke: #000000; stroke-width: 0.8"/>
      </g>
     </g>
     <g id="text_7">
      <!-- 0.1 -->
      <g transform="translate(157.096875 553.535582) scale(0.1 -0.1)">
       <use xlink:href="#DejaVuSans-30"/>
       <use xlink:href="#DejaVuSans-2e" x="63.623047"/>
       <use xlink:href="#DejaVuSans-31" x="95.410156"/>
      </g>
     </g>
    </g>
    <g id="ytick_3">
     <g id="line2d_7">
      <g>
       <use xlink:href="#m7c2143d0a6" x="180" y="483.872727" style="stroke: #000000; stroke-width: 0.8"/>
      </g>
     </g>
     <g id="text_8">
      <!-- 0.2 -->
      <g transform="translate(157.096875 487.671946) scale(0.1 -0.1)">
       <defs>
        <path id="DejaVuSans-32" d="M 1228 531 
L 3431 531 
L 3431 0 
L 469 0 
L 469 531 
Q 828 903 1448 1529 
Q 2069 2156 2228 2338 
Q 2531 2678 2651 2914 
Q 2772 3150 2772 3378 
Q 2772 3750 2511 3984 
Q 2250 4219 1831 4219 
Q 1534 4219 1204 4116 
Q 875 4013 500 3803 
L 500 4441 
Q 881 4594 1212 4672 
Q 1544 4750 1819 4750 
Q 2544 4750 2975 4387 
Q 3406 4025 3406 3419 
Q 3406 3131 3298 2873 
Q 3191 2616 2906 2266 
Q 2828 2175 2409 1742 
Q 1991 1309 1228 531 
z
" transform="scale(0.015625)"/>
       </defs>
       <use xlink:href="#DejaVuSans-30"/>
       <use xlink:href="#DejaVuSans-2e" x="63.623047"/>
       <use xlink:href="#DejaVuSans-32" x="95.410156"/>
      </g>
     </g>
    </g>
    <g id="ytick_4">
     <g id="line2d_8">
      <g>
       <use xlink:href="#m7c2143d0a6" x="180" y="418.009091" style="stroke: #000000; stroke-width: 0.8"/>
      </g>
     </g>
     <g id="text_9">
      <!-- 0.3 -->
      <g transform="translate(157.096875 421.80831) scale(0.1 -0.1)">
       <use xlink:href="#DejaVuSans-30"/>
       <use xlink:href="#DejaVuSans-2e" x="63.623047"/>
       <use xlink:href="#DejaVuSans-33" x="95.410156"/>
      </g>
     </g>
    </g>
    <g id="ytick_5">
     <g id="line2d_9">
      <g>
       <use xlink:href="#m7c2143d0a6" x="180" y="352.145455" style="stroke: #000000; stroke-width: 0.8"/>
      </g>
     </g>
     <g id="text_10">
      <!-- 0.4 -->
      <g transform="translate(157.096875 355.944673) scale(0.1 -0.1)">
       <use xlink:href="#DejaVuSans-30"/>
       <use xlink:href="#DejaVuSans-2e" x="63.623047"/>
       <use xlink:href="#DejaVuSans-34" x="95.410156"/>
      </g>
     </g>
    </g>
    <g id="ytick_6">
     <g id="line2d_10">
      <g>
       <use xlink:href="#m7c2143d0a6" x="180" y="286.281818" style="stroke: #000000; stroke-width: 0.8"/>
      </g>
     </g>
     <g id="text_11">
      <!-- 0.5 -->
      <g transform="translate(157.096875 290.081037) scale(0.1 -0.1)">
       <use xlink:href="#DejaVuSans-30"/>
       <use xlink:href="#DejaVuSans-2e" x="63.623047"/>
       <use xlink:href="#DejaVuSans-35" x="95.410156"/>
      </g>
     </g>
    </g>
    <g id="ytick_7">
     <g id="line2d_11">
      <g>
       <use xlink:href="#m7c2143d0a6" x="180" y="220.418182" style="stroke: #000000; stroke-width: 0.8"/>
      </g>
     </g>
     <g id="text_12">
      <!-- 0.6 -->
      <g transform="translate(157.096875 224.217401) scale(0.1 -0.1)">
       <use xlink:href="#DejaVuSans-30"/>
       <use xlink:href="#DejaVuSans-2e" x="63.623047"/>
       <use xlink:href="#DejaVuSans-36" x="95.410156"/>
      </g>
     </g>
    </g>
    <g id="ytick_8">
     <g id="line2d_12">
      <g>
       <use xlink:href="#m7c2143d0a6" x="180" y="154.554545" style="stroke: #000000; stroke-width: 0.8"/>
      </g>
     </g>
     <g id="text_13">
      <!-- 0.7 -->
      <g transform="translate(157.096875 158.353764) scale(0.1 -0.1)">
       <defs>
        <path id="DejaVuSans-37" d="M 525 4666 
L 3525 4666 
L 3525 4397 
L 1831 0 
L 1172 0 
L 2766 4134 
L 525 4134 
L 525 4666 
z
" transform="scale(0.015625)"/>
       </defs>
       <use xlink:href="#DejaVuSans-30"/>
       <use xlink:href="#DejaVuSans-2e" x="63.623047"/>
       <use xlink:href="#DejaVuSans-37" x="95.410156"/>
      </g>
     </g>
    </g>
    <g id="ytick_9">
     <g id="line2d_13">
      <g>
       <use xlink:href="#m7c2143d0a6" x="180" y="88.690909" style="stroke: #000000; stroke-width: 0.8"/>
      </g>
     </g>
     <g id="text_14">
      <!-- 0.8 -->
      <g transform="translate(157.096875 92.490128) scale(0.1 -0.1)">
       <use xlink:href="#DejaVuSans-30"/>
       <use xlink:href="#DejaVuSans-2e" x="63.623047"/>
       <use xlink:href="#DejaVuSans-38" x="95.410156"/>
      </g>
     </g>
    </g>
    <g id="text_15">
     <!-- Rate (%) -->
     <g transform="translate(151.017188 385.303906) rotate(-90) scale(0.1 -0.1)">
      <defs>
       <path id="DejaVuSans-52" d="M 2841 2188 
Q 3044 2119 3236 1894 
Q 3428 1669 3622 1275 
L 4263 0 
L 3584 0 
L 2988 1197 
Q 2756 1666 2539 1819 
Q 2322 1972 1947 1972 
L 1259 1972 
L 1259 0 
L 628 0 
L 628 4666 
L 2053 4666 
Q 2853 4666 3247 4331 
Q 3641 3997 3641 3322 
Q 3641 2881 3436 2590 
Q 3231 2300 2841 2188 
z
M 1259 4147 
L 1259 2491 
L 2053 2491 
Q 2509 2491 2742 2702 
Q 2975 2913 2975 3322 
Q 2975 3731 2742 3939 
Q 2509 4147 2053 4147 
L 1259 4147 
z
" transform="scale(0.015625)"/>
       <path id="DejaVuSans-74" d="M 1172 4494 
L 1172 3500 
L 2356 3500 
L 2356 3053 
L 1172 3053 
L 1172 1153 
Q 1172 725 1289 603 
Q 1406 481 1766 481 
L 2356 481 
L 2356 0 
L 1766 0 
Q 1100 0 847 248 
Q 594 497 594 1153 
L 594 3053 
L 172 3053 
L 172 3500 
L 594 3500 
L 594 4494 
L 1172 4494 
z
" transform="scale(0.015625)"/>
       <path id="DejaVuSans-28" d="M 1984 4856 
Q 1566 4138 1362 3434 
Q 1159 2731 1159 2009 
Q 1159 1288 1364 580 
Q 1569 -128 1984 -844 
L 1484 -844 
Q 1016 -109 783 600 
Q 550 1309 550 2009 
Q 550 2706 781 3412 
Q 1013 4119 1484 4856 
L 1984 4856 
z
" transform="scale(0.015625)"/>
       <path id="DejaVuSans-25" d="M 4653 2053 
Q 4381 2053 4226 1822 
Q 4072 1591 4072 1178 
Q 4072 772 4226 539 
Q 4381 306 4653 306 
Q 4919 306 5073 539 
Q 5228 772 5228 1178 
Q 5228 1588 5073 1820 
Q 4919 2053 4653 2053 
z
M 4653 2450 
Q 5147 2450 5437 2106 
Q 5728 1763 5728 1178 
Q 5728 594 5436 251 
Q 5144 -91 4653 -91 
Q 4153 -91 3862 251 
Q 3572 594 3572 1178 
Q 3572 1766 3864 2108 
Q 4156 2450 4653 2450 
z
M 1428 4353 
Q 1159 4353 1004 4120 
Q 850 3888 850 3481 
Q 850 3069 1003 2837 
Q 1156 2606 1428 2606 
Q 1700 2606 1854 2837 
Q 2009 3069 2009 3481 
Q 2009 3884 1853 4118 
Q 1697 4353 1428 4353 
z
M 4250 4750 
L 4750 4750 
L 1831 -91 
L 1331 -91 
L 4250 4750 
z
M 1428 4750 
Q 1922 4750 2215 4408 
Q 2509 4066 2509 3481 
Q 2509 2891 2217 2550 
Q 1925 2209 1428 2209 
Q 931 2209 642 2551 
Q 353 2894 353 3481 
Q 353 4063 643 4406 
Q 934 4750 1428 4750 
z
" transform="scale(0.015625)"/>
       <path id="DejaVuSans-29" d="M 513 4856 
L 1013 4856 
Q 1481 4119 1714 3412 
Q 1947 2706 1947 2009 
Q 1947 1309 1714 600 
Q 1481 -109 1013 -844 
L 513 -844 
Q 928 -128 1133 580 
Q 1338 1288 1338 2009 
Q 1338 2731 1133 3434 
Q 928 4138 513 4856 
z
" transform="scale(0.015625)"/>
      </defs>
      <use xlink:href="#DejaVuSans-52"/>
      <use xlink:href="#DejaVuSans-61" x="67.232422"/>
      <use xlink:href="#DejaVuSans-74" x="128.511719"/>
      <use xlink:href="#DejaVuSans-65" x="167.720703"/>
      <use xlink:href="#DejaVuSans-20" x="229.244141"/>
      <use xlink:href="#DejaVuSans-28" x="261.03125"/>
      <use xlink:href="#DejaVuSans-25" x="300.044922"/>
      <use xlink:href="#DejaVuSans-29" x="395.064453"/>
     </g>
    </g>
   </g>
   <g id="line2d_14">
    <path d="M 230.727273 164.934986 
L 240.975207 164.720995 
L 251.22314 164.507004 
L 261.471074 164.293013 
L 271.719008 164.079022 
L 281.966942 163.86503 
L 292.214876 163.651039 
L 302.46281 163.437048 
L 312.710744 163.223057 
L 322.958678 163.009066 
L 333.206612 162.795075 
L 343.454545 162.581084 
L 353.702479 162.367092 
L 363.950413 162.153101 
L 374.198347 161.93911 
L 384.446281 161.725119 
L 394.694215 161.511128 
L 404.942149 161.297137 
L 415.190083 161.083146 
L 425.438017 160.869154 
L 435.68595 160.655163 
L 445.933884 160.441172 
L 456.181818 160.227181 
L 466.429752 160.01319 
L 476.677686 159.799199 
L 486.92562 159.585207 
L 497.173554 159.371216 
L 507.421488 159.157225 
L 517.669421 158.943234 
L 527.917355 158.729243 
L 538.165289 158.515252 
L 548.413223 158.301261 
L 558.661157 158.087269 
L 568.909091 157.873278 
L 579.157025 157.659287 
L 589.404959 157.445296 
L 599.652893 157.231305 
L 609.900826 157.017314 
L 620.14876 156.803322 
L 630.396694 156.589331 
L 640.644628 156.37534 
L 650.892562 156.161349 
L 661.140496 155.947358 
L 671.38843 155.733367 
L 681.636364 155.519376 
L 691.884298 155.305384 
L 702.132231 155.091393 
L 712.380165 154.877402 
L 722.628099 154.663411 
L 732.876033 154.44942 
L 743.123967 154.235429 
L 753.371901 154.021438 
L 763.619835 153.807446 
L 773.867769 153.593455 
L 784.115702 153.379464 
L 794.363636 153.165473 
L 804.61157 152.951482 
L 814.859504 152.737491 
L 825.107438 152.523499 
L 835.355372 152.309508 
L 845.603306 152.095517 
L 855.85124 151.881526 
L 866.099174 151.667535 
L 876.347107 151.453544 
L 886.595041 151.239553 
L 896.842975 151.025561 
L 907.090909 150.81157 
L 917.338843 150.597579 
L 927.586777 150.383588 
L 937.834711 150.169597 
L 948.082645 149.955606 
L 958.330579 149.741614 
L 968.578512 149.527623 
L 978.826446 149.313632 
L 989.07438 149.099641 
L 999.322314 148.88565 
L 1009.570248 148.671659 
L 1019.818182 148.457668 
L 1030.066116 148.243676 
L 1040.31405 148.029685 
L 1050.561983 147.815694 
L 1060.809917 147.601703 
L 1071.057851 147.387712 
L 1081.305785 147.173721 
L 1091.553719 146.95973 
L 1101.801653 146.745738 
L 1112.049587 146.531747 
L 1122.297521 146.317756 
L 1132.545455 146.103765 
L 1142.793388 145.889774 
L 1153.041322 145.675783 
L 1163.289256 145.461791 
L 1173.53719 145.2478 
L 1183.785124 145.033809 
L 1194.033058 144.819818 
L 1204.280992 144.605827 
L 1214.528926 144.391836 
L 1224.77686 144.177845 
L 1235.024793 143.963853 
L 1245.272727 143.749862 
" clip-path="url(#p86382d70fa)" style="fill: none; stroke: #1f77b4; stroke-width: 2.25; stroke-linecap: square"/>
   </g>
   <g id="line2d_15">
    <path d="M 230.727273 597.700826 
L 240.975207 597.77317 
L 251.22314 597.845513 
L 261.471074 597.917856 
L 271.719008 597.9902 
L 281.966942 598.062543 
L 292.214876 598.134886 
L 302.46281 598.207229 
L 312.710744 598.279573 
L 322.958678 598.351916 
L 333.206612 598.424259 
L 343.454545 598.496602 
L 353.702479 598.568946 
L 363.950413 598.641289 
L 374.198347 598.713632 
L 384.446281 598.785975 
L 394.694215 598.858319 
L 404.942149 598.930662 
L 415.190083 599.003005 
L 425.438017 599.075349 
L 435.68595 599.147692 
L 445.933884 599.220035 
L 456.181818 599.292378 
L 466.429752 599.364722 
L 476.677686 599.437065 
L 486.92562 599.509408 
L 497.173554 599.581751 
L 507.421488 599.654095 
L 517.669421 599.726438 
L 527.917355 599.798781 
L 538.165289 599.871124 
L 548.413223 599.943468 
L 558.661157 600.015811 
L 568.909091 600.088154 
L 579.157025 600.160498 
L 589.404959 600.232841 
L 599.652893 600.305184 
L 609.900826 600.377527 
L 620.14876 600.449871 
L 630.396694 600.522214 
L 640.644628 600.594557 
L 650.892562 600.6669 
L 661.140496 600.739244 
L 671.38843 600.811587 
L 681.636364 600.88393 
L 691.884298 600.956273 
L 702.132231 601.028617 
L 712.380165 601.10096 
L 722.628099 601.173303 
L 732.876033 601.245647 
L 743.123967 601.31799 
L 753.371901 601.390333 
L 763.619835 601.462676 
L 773.867769 601.53502 
L 784.115702 601.607363 
L 794.363636 601.679706 
L 804.61157 601.752049 
L 814.859504 601.824393 
L 825.107438 601.896736 
L 835.355372 601.969079 
L 845.603306 602.041422 
L 855.85124 602.113766 
L 866.099174 602.186109 
L 876.347107 602.258452 
L 886.595041 602.330796 
L 896.842975 602.403139 
L 907.090909 602.475482 
L 917.338843 602.547825 
L 927.586777 602.620169 
L 937.834711 602.692512 
L 948.082645 602.764855 
L 958.330579 602.837198 
L 968.578512 602.909542 
L 978.826446 602.981885 
L 989.07438 603.054228 
L 999.322314 603.126572 
L 1009.570248 603.198915 
L 1019.818182 603.271258 
L 1030.066116 603.343601 
L 1040.31405 603.415945 
L 1050.561983 603.488288 
L 1060.809917 603.560631 
L 1071.057851 603.632974 
L 1081.305785 603.705318 
L 1091.553719 603.777661 
L 1101.801653 603.850004 
L 1112.049587 603.922347 
L 1122.297521 603.994691 
L 1132.545455 604.067034 
L 1142.793388 604.139377 
L 1153.041322 604.211721 
L 1163.289256 604.284064 
L 1173.53719 604.356407 
L 1183.785124 604.42875 
L 1194.033058 604.501094 
L 1204.280992 604.573437 
L 1214.528926 604.64578 
L 1224.77686 604.718123 
L 1235.024793 604.790467 
L 1245.272727 604.86281 
" clip-path="url(#p86382d70fa)" style="fill: none; stroke: #ff7f0e; stroke-width: 2.25; stroke-linecap: square"/>
   </g>
   <g id="line2d_16">
    <path d="M 230.727273 425.527824 
L 240.975207 425.669472 
L 251.22314 425.811119 
L 261.471074 425.952767 
L 271.719008 426.094415 
L 281.966942 426.236063 
L 292.214876 426.377711 
L 302.46281 426.519359 
L 312.710744 426.661007 
L 322.958678 426.802655 
L 333.206612 426.944303 
L 343.454545 427.08595 
L 353.702479 427.227598 
L 363.950413 427.369246 
L 374.198347 427.510894 
L 384.446281 427.652542 
L 394.694215 427.79419 
L 404.942149 427.935838 
L 415.190083 428.077486 
L 425.438017 428.219133 
L 435.68595 428.360781 
L 445.933884 428.502429 
L 456.181818 428.644077 
L 466.429752 428.785725 
L 476.677686 428.927373 
L 486.92562 429.069021 
L 497.173554 429.210669 
L 507.421488 429.352317 
L 517.669421 429.493964 
L 527.917355 429.635612 
L 538.165289 429.77726 
L 548.413223 429.918908 
L 558.661157 430.060556 
L 568.909091 430.202204 
L 579.157025 430.343852 
L 589.404959 430.4855 
L 599.652893 430.627148 
L 609.900826 430.768795 
L 620.14876 430.910443 
L 630.396694 431.052091 
L 640.644628 431.193739 
L 650.892562 431.335387 
L 661.140496 431.477035 
L 671.38843 431.618683 
L 681.636364 431.760331 
L 691.884298 431.901978 
L 702.132231 432.043626 
L 712.380165 432.185274 
L 722.628099 432.326922 
L 732.876033 432.46857 
L 743.123967 432.610218 
L 753.371901 432.751866 
L 763.619835 432.893514 
L 773.867769 433.035162 
L 784.115702 433.176809 
L 794.363636 433.318457 
L 804.61157 433.460105 
L 814.859504 433.601753 
L 825.107438 433.743401 
L 835.355372 433.885049 
L 845.603306 434.026697 
L 855.85124 434.168345 
L 866.099174 434.309992 
L 876.347107 434.45164 
L 886.595041 434.593288 
L 896.842975 434.734936 
L 907.090909 434.876584 
L 917.338843 435.018232 
L 927.586777 435.15988 
L 937.834711 435.301528 
L 948.082645 435.443176 
L 958.330579 435.584823 
L 968.578512 435.726471 
L 978.826446 435.868119 
L 989.07438 436.009767 
L 999.322314 436.151415 
L 1009.570248 436.293063 
L 1019.818182 436.434711 
L 1030.066116 436.576359 
L 1040.31405 436.718007 
L 1050.561983 436.859654 
L 1060.809917 437.001302 
L 1071.057851 437.14295 
L 1081.305785 437.284598 
L 1091.553719 437.426246 
L 1101.801653 437.567894 
L 1112.049587 437.709542 
L 1122.297521 437.85119 
L 1132.545455 437.992837 
L 1142.793388 438.134485 
L 1153.041322 438.276133 
L 1163.289256 438.417781 
L 1173.53719 438.559429 
L 1183.785124 438.701077 
L 1194.033058 438.842725 
L 1204.280992 438.984373 
L 1214.528926 439.126021 
L 1224.77686 439.267668 
L 1235.024793 439.409316 
L 1245.272727 439.550964 
" clip-path="url(#p86382d70fa)" style="fill: none; stroke: #2ca02c; stroke-width: 2.25; stroke-linecap: square"/>
   </g>
   <g id="patch_3">
    <path d="M 180 640.8 
L 180 86.4 
" style="fill: none; stroke: #000000; stroke-width: 0.8; stroke-linejoin: miter; stroke-linecap: square"/>
   </g>
   <g id="patch_4">
    <path d="M 1296 640.8 
L 1296 86.4 
" style="fill: none; stroke: #000000; stroke-width: 0.8; stroke-linejoin: miter; stroke-linecap: square"/>
   </g>
   <g id="patch_5">
    <path d="M 180 640.8 
L 1296 640.8 
" style="fill: none; stroke: #000000; stroke-width: 0.8; stroke-linejoin: miter; stroke-linecap: square"/>
   </g>
   <g id="patch_6">
    <path d="M 180 86.4 
L 1296 86.4 
" style="fill: none; stroke: #000000; stroke-width: 0.8; stroke-linejoin: miter; stroke-linecap: square"/>
   </g>
   <g id="legend_1">
    <g id="patch_7">
     <path d="M 1132.940625 387.117188 
L 1289 387.117188 
Q 1291 387.117188 1291 385.117188 
L 1291 342.082812 
Q 1291 340.082812 1289 340.082812 
L 1132.940625 340.082812 
Q 1130.940625 340.082812 1130.940625 342.082812 
L 1130.940625 385.117188 
Q 1130.940625 387.117188 1132.940625 387.117188 
z
" style="fill: #ffffff; opacity: 0.8; stroke: #cccccc; stroke-linejoin: miter"/>
    </g>
    <g id="PathCollection_4">
     <g>
      <use xlink:href="#mc82b067a4a" x="1144.940625" y="349.05625" style="fill: #1f77b4; fill-opacity: 0.8; stroke: #1f77b4; stroke-opacity: 0.8"/>
     </g>
    </g>
    <g id="text_16">
     <!-- Completed Trials (mean) -->
     <g transform="translate(1162.940625 351.68125) scale(0.1 -0.1)">
      <defs>
       <path id="DejaVuSans-43" d="M 4122 4306 
L 4122 3641 
Q 3803 3938 3442 4084 
Q 3081 4231 2675 4231 
Q 1875 4231 1450 3742 
Q 1025 3253 1025 2328 
Q 1025 1406 1450 917 
Q 1875 428 2675 428 
Q 3081 428 3442 575 
Q 3803 722 4122 1019 
L 4122 359 
Q 3791 134 3420 21 
Q 3050 -91 2638 -91 
Q 1578 -91 968 557 
Q 359 1206 359 2328 
Q 359 3453 968 4101 
Q 1578 4750 2638 4750 
Q 3056 4750 3426 4639 
Q 3797 4528 4122 4306 
z
" transform="scale(0.015625)"/>
       <path id="DejaVuSans-6f" d="M 1959 3097 
Q 1497 3097 1228 2736 
Q 959 2375 959 1747 
Q 959 1119 1226 758 
Q 1494 397 1959 397 
Q 2419 397 2687 759 
Q 2956 1122 2956 1747 
Q 2956 2369 2687 2733 
Q 2419 3097 1959 3097 
z
M 1959 3584 
Q 2709 3584 3137 3096 
Q 3566 2609 3566 1747 
Q 3566 888 3137 398 
Q 2709 -91 1959 -91 
Q 1206 -91 779 398 
Q 353 888 353 1747 
Q 353 2609 779 3096 
Q 1206 3584 1959 3584 
z
" transform="scale(0.015625)"/>
       <path id="DejaVuSans-6d" d="M 3328 2828 
Q 3544 3216 3844 3400 
Q 4144 3584 4550 3584 
Q 5097 3584 5394 3201 
Q 5691 2819 5691 2113 
L 5691 0 
L 5113 0 
L 5113 2094 
Q 5113 2597 4934 2840 
Q 4756 3084 4391 3084 
Q 3944 3084 3684 2787 
Q 3425 2491 3425 1978 
L 3425 0 
L 2847 0 
L 2847 2094 
Q 2847 2600 2669 2842 
Q 2491 3084 2119 3084 
Q 1678 3084 1418 2786 
Q 1159 2488 1159 1978 
L 1159 0 
L 581 0 
L 581 3500 
L 1159 3500 
L 1159 2956 
Q 1356 3278 1631 3431 
Q 1906 3584 2284 3584 
Q 2666 3584 2933 3390 
Q 3200 3197 3328 2828 
z
" transform="scale(0.015625)"/>
       <path id="DejaVuSans-70" d="M 1159 525 
L 1159 -1331 
L 581 -1331 
L 581 3500 
L 1159 3500 
L 1159 2969 
Q 1341 3281 1617 3432 
Q 1894 3584 2278 3584 
Q 2916 3584 3314 3078 
Q 3713 2572 3713 1747 
Q 3713 922 3314 415 
Q 2916 -91 2278 -91 
Q 1894 -91 1617 61 
Q 1341 213 1159 525 
z
M 3116 1747 
Q 3116 2381 2855 2742 
Q 2594 3103 2138 3103 
Q 1681 3103 1420 2742 
Q 1159 2381 1159 1747 
Q 1159 1113 1420 752 
Q 1681 391 2138 391 
Q 2594 391 2855 752 
Q 3116 1113 3116 1747 
z
" transform="scale(0.015625)"/>
       <path id="DejaVuSans-6c" d="M 603 4863 
L 1178 4863 
L 1178 0 
L 603 0 
L 603 4863 
z
" transform="scale(0.015625)"/>
       <path id="DejaVuSans-72" d="M 2631 2963 
Q 2534 3019 2420 3045 
Q 2306 3072 2169 3072 
Q 1681 3072 1420 2755 
Q 1159 2438 1159 1844 
L 1159 0 
L 581 0 
L 581 3500 
L 1159 3500 
L 1159 2956 
Q 1341 3275 1631 3429 
Q 1922 3584 2338 3584 
Q 2397 3584 2469 3576 
Q 2541 3569 2628 3553 
L 2631 2963 
z
" transform="scale(0.015625)"/>
       <path id="DejaVuSans-69" d="M 603 3500 
L 1178 3500 
L 1178 0 
L 603 0 
L 603 3500 
z
M 603 4863 
L 1178 4863 
L 1178 4134 
L 603 4134 
L 603 4863 
z
" transform="scale(0.015625)"/>
      </defs>
      <use xlink:href="#DejaVuSans-43"/>
      <use xlink:href="#DejaVuSans-6f" x="69.824219"/>
      <use xlink:href="#DejaVuSans-6d" x="131.005859"/>
      <use xlink:href="#DejaVuSans-70" x="228.417969"/>
      <use xlink:href="#DejaVuSans-6c" x="291.894531"/>
      <use xlink:href="#DejaVuSans-65" x="319.677734"/>
      <use xlink:href="#DejaVuSans-74" x="381.201172"/>
      <use xlink:href="#DejaVuSans-65" x="420.410156"/>
      <use xlink:href="#DejaVuSans-64" x="481.933594"/>
      <use xlink:href="#DejaVuSans-20" x="545.410156"/>
      <use xlink:href="#DejaVuSans-54" x="577.197266"/>
      <use xlink:href="#DejaVuSans-72" x="623.53125"/>
      <use xlink:href="#DejaVuSans-69" x="664.644531"/>
      <use xlink:href="#DejaVuSans-61" x="692.427734"/>
      <use xlink:href="#DejaVuSans-6c" x="753.707031"/>
      <use xlink:href="#DejaVuSans-73" x="781.490234"/>
      <use xlink:href="#DejaVuSans-20" x="833.589844"/>
      <use xlink:href="#DejaVuSans-28" x="865.376953"/>
      <use xlink:href="#DejaVuSans-6d" x="904.390625"/>
      <use xlink:href="#DejaVuSans-65" x="1001.802734"/>
      <use xlink:href="#DejaVuSans-61" x="1063.326172"/>
      <use xlink:href="#DejaVuSans-6e" x="1124.605469"/>
      <use xlink:href="#DejaVuSans-29" x="1187.984375"/>
     </g>
    </g>
    <g id="PathCollection_5">
     <g>
      <use xlink:href="#m359aeb4691" x="1144.940625" y="363.734375" style="fill: #ff7f0e; fill-opacity: 0.8; stroke: #ff7f0e; stroke-opacity: 0.8"/>
     </g>
    </g>
    <g id="text_17">
     <!-- Failed Trials (mean) -->
     <g transform="translate(1162.940625 366.359375) scale(0.1 -0.1)">
      <defs>
       <path id="DejaVuSans-46" d="M 628 4666 
L 3309 4666 
L 3309 4134 
L 1259 4134 
L 1259 2759 
L 3109 2759 
L 3109 2228 
L 1259 2228 
L 1259 0 
L 628 0 
L 628 4666 
z
" transform="scale(0.015625)"/>
      </defs>
      <use xlink:href="#DejaVuSans-46"/>
      <use xlink:href="#DejaVuSans-61" x="48.394531"/>
      <use xlink:href="#DejaVuSans-69" x="109.673828"/>
      <use xlink:href="#DejaVuSans-6c" x="137.457031"/>
      <use xlink:href="#DejaVuSans-65" x="165.240234"/>
      <use xlink:href="#DejaVuSans-64" x="226.763672"/>
      <use xlink:href="#DejaVuSans-20" x="290.240234"/>
      <use xlink:href="#DejaVuSans-54" x="322.027344"/>
      <use xlink:href="#DejaVuSans-72" x="368.361328"/>
      <use xlink:href="#DejaVuSans-69" x="409.474609"/>
      <use xlink:href="#DejaVuSans-61" x="437.257812"/>
      <use xlink:href="#DejaVuSans-6c" x="498.537109"/>
      <use xlink:href="#DejaVuSans-73" x="526.320312"/>
      <use xlink:href="#DejaVuSans-20" x="578.419922"/>
      <use xlink:href="#DejaVuSans-28" x="610.207031"/>
      <use xlink:href="#DejaVuSans-6d" x="649.220703"/>
      <use xlink:href="#DejaVuSans-65" x="746.632812"/>
      <use xlink:href="#DejaVuSans-61" x="808.15625"/>
      <use xlink:href="#DejaVuSans-6e" x="869.435547"/>
      <use xlink:href="#DejaVuSans-29" x="932.814453"/>
     </g>
    </g>
    <g id="PathCollection_6">
     <g>
      <use xlink:href="#mc323abe5fd" x="1144.940625" y="378.4125" style="fill: #2ca02c; fill-opacity: 0.8; stroke: #2ca02c; stroke-opacity: 0.8"/>
     </g>
    </g>
    <g id="text_18">
     <!-- Terminated Trials (mean) -->
     <g transform="translate(1162.940625 381.0375) scale(0.1 -0.1)">
      <use xlink:href="#DejaVuSans-54"/>
      <use xlink:href="#DejaVuSans-65" x="44.083984"/>
      <use xlink:href="#DejaVuSans-72" x="105.607422"/>
      <use xlink:href="#DejaVuSans-6d" x="144.970703"/>
      <use xlink:href="#DejaVuSans-69" x="242.382812"/>
      <use xlink:href="#DejaVuSans-6e" x="270.166016"/>
      <use xlink:href="#DejaVuSans-61" x="333.544922"/>
      <use xlink:href="#DejaVuSans-74" x="394.824219"/>
      <use xlink:href="#DejaVuSans-65" x="434.033203"/>
      <use xlink:href="#DejaVuSans-64" x="495.556641"/>
      <use xlink:href="#DejaVuSans-20" x="559.033203"/>
      <use xlink:href="#DejaVuSans-54" x="590.820312"/>
      <use xlink:href="#DejaVuSans-72" x="637.154297"/>
      <use xlink:href="#DejaVuSans-69" x="678.267578"/>
      <use xlink:href="#DejaVuSans-61" x="706.050781"/>
      <use xlink:href="#DejaVuSans-6c" x="767.330078"/>
      <use xlink:href="#DejaVuSans-73" x="795.113281"/>
      <use xlink:href="#DejaVuSans-20" x="847.212891"/>
      <use xlink:href="#DejaVuSans-28" x="879"/>
      <use xlink:href="#DejaVuSans-6d" x="918.013672"/>
      <use xlink:href="#DejaVuSans-65" x="1015.425781"/>
      <use xlink:href="#DejaVuSans-61" x="1076.949219"/>
      <use xlink:href="#DejaVuSans-6e" x="1138.228516"/>
      <use xlink:href="#DejaVuSans-29" x="1201.607422"/>
     </g>
    </g>
   </g>
  </g>
 </g>
 <defs>
  <clipPath id="p86382d70fa">
   <rect x="180" y="86.4" width="1116" height="554.4"/>
  </clipPath>
 </defs>
</svg>
