<?xml version="1.0" encoding="utf-8" standalone="no"?>
<!DOCTYPE svg PUBLIC "-//W3C//DTD SVG 1.1//EN"
  "http://www.w3.org/Graphics/SVG/1.1/DTD/svg11.dtd">
<svg xmlns:xlink="http://www.w3.org/1999/xlink" width="1440pt" height="864pt" viewBox="0 0 1440 864" xmlns="http://www.w3.org/2000/svg" version="1.1">
 <metadata>
  <rdf:RDF xmlns:dc="http://purl.org/dc/elements/1.1/" xmlns:cc="http://creativecommons.org/ns#" xmlns:rdf="http://www.w3.org/1999/02/22-rdf-syntax-ns#">
   <cc:Work>
    <dc:type rdf:resource="http://purl.org/dc/dcmitype/StillImage"/>
    <dc:date>2025-06-04T20:01:15.280580</dc:date>
    <dc:format>image/svg+xml</dc:format>
    <dc:creator>
     <cc:Agent>
      <dc:title>Matplotlib v3.8.0, https://matplotlib.org/</dc:title>
     </cc:Agent>
    </dc:creator>
   </cc:Work>
  </rdf:RDF>
 </metadata>
 <defs>
  <style type="text/css">*{stroke-linejoin: round; stroke-linecap: butt}</style>
 </defs>
 <g id="figure_1">
  <g id="patch_1">
   <path d="M 0 864 
L 1440 864 
L 1440 0 
L 0 0 
z
" style="fill: #ffffff"/>
  </g>
  <g id="axes_1">
   <g id="patch_2">
    <path d="M 180 768.96 
L 1296 768.96 
L 1296 103.68 
L 180 103.68 
z
" style="fill: #ffffff"/>
   </g>
   <g id="PathCollection_1">
    <defs>
     <path id="m04b7a9f70b" d="M 0 3 
C 0.795609 3 1.55874 2.683901 2.12132 2.12132 
C 2.683901 1.55874 3 0.795609 3 0 
C 3 -0.795609 2.683901 -1.55874 2.12132 -2.12132 
C 1.55874 -2.683901 0.795609 -3 0 -3 
C -0.795609 -3 -1.55874 -2.683901 -2.12132 -2.12132 
C -2.683901 -1.55874 -3 -0.795609 -3 0 
C -3 0.795609 -2.683901 1.55874 -2.12132 2.12132 
C -1.55874 2.683901 -0.795609 3 0 3 
z
" style="stroke: #1f77b4; stroke-opacity: 0.8"/>
    </defs>
    <g clip-path="url(#p176d49f99e)">
     <use xlink:href="#m04b7a9f70b" x="230.727273" y="572.369202" style="fill: #1f77b4; fill-opacity: 0.8; stroke: #1f77b4; stroke-opacity: 0.8"/>
     <use xlink:href="#m04b7a9f70b" x="433.636364" y="498.951425" style="fill: #1f77b4; fill-opacity: 0.8; stroke: #1f77b4; stroke-opacity: 0.8"/>
     <use xlink:href="#m04b7a9f70b" x="636.545455" y="518.332538" style="fill: #1f77b4; fill-opacity: 0.8; stroke: #1f77b4; stroke-opacity: 0.8"/>
     <use xlink:href="#m04b7a9f70b" x="839.454545" y="483.665807" style="fill: #1f77b4; fill-opacity: 0.8; stroke: #1f77b4; stroke-opacity: 0.8"/>
     <use xlink:href="#m04b7a9f70b" x="1042.363636" y="425.11598" style="fill: #1f77b4; fill-opacity: 0.8; stroke: #1f77b4; stroke-opacity: 0.8"/>
     <use xlink:href="#m04b7a9f70b" x="1245.272727" y="395.008978" style="fill: #1f77b4; fill-opacity: 0.8; stroke: #1f77b4; stroke-opacity: 0.8"/>
    </g>
   </g>
   <g id="PolyCollection_1">
    <path d="M 230.727273 524.970008 
L 230.727273 610.127774 
L 240.975207 607.891454 
L 251.22314 605.655135 
L 261.471074 603.418816 
L 271.719008 601.182496 
L 281.966942 598.946177 
L 292.214876 596.709858 
L 302.46281 594.473539 
L 312.710744 592.237219 
L 322.958678 590.0009 
L 333.206612 587.764581 
L 343.454545 585.528262 
L 353.702479 583.291942 
L 363.950413 581.055623 
L 374.198347 578.819304 
L 384.446281 576.582985 
L 394.694215 574.346665 
L 404.942149 572.110346 
L 415.190083 569.874027 
L 425.438017 567.637707 
L 435.68595 565.401388 
L 445.933884 563.165069 
L 456.181818 560.92875 
L 466.429752 558.69243 
L 476.677686 556.456111 
L 486.92562 554.219792 
L 497.173554 551.983473 
L 507.421488 549.747153 
L 517.669421 547.510834 
L 527.917355 545.274515 
L 538.165289 543.038196 
L 548.413223 540.801876 
L 558.661157 538.565557 
L 568.909091 536.329238 
L 579.157025 534.092918 
L 589.404959 531.727055 
L 599.652893 529.352305 
L 609.900826 527.048802 
L 620.14876 524.888246 
L 630.396694 522.798792 
L 640.644628 520.675003 
L 650.892562 518.438684 
L 661.140496 516.202364 
L 671.38843 513.966045 
L 681.636364 511.855701 
L 691.884298 509.705096 
L 702.132231 507.325321 
L 712.380165 505.623506 
L 722.628099 504.115111 
L 732.876033 502.15583 
L 743.123967 500.483105 
L 753.371901 498.759188 
L 763.619835 497.107353 
L 773.867769 495.147845 
L 784.115702 493.690027 
L 794.363636 491.79354 
L 804.61157 490.42076 
L 814.859504 489.396003 
L 825.107438 487.918053 
L 835.355372 486.480423 
L 845.603306 485.329898 
L 855.85124 483.841814 
L 866.099174 482.35373 
L 876.347107 480.865646 
L 886.595041 479.374424 
L 896.842975 478.272644 
L 907.090909 477.218784 
L 917.338843 476.149254 
L 927.586777 474.70452 
L 937.834711 473.259786 
L 948.082645 471.815052 
L 958.330579 470.542207 
L 968.578512 469.331525 
L 978.826446 468.120842 
L 989.07438 466.699793 
L 999.322314 465.263753 
L 1009.570248 463.827713 
L 1019.818182 462.391672 
L 1030.066116 460.955632 
L 1040.31405 459.719929 
L 1050.561983 458.637681 
L 1060.809917 457.555433 
L 1071.057851 456.473185 
L 1081.305785 455.390937 
L 1091.553719 454.308689 
L 1101.801653 453.226441 
L 1112.049587 452.143803 
L 1122.297521 451.059728 
L 1132.545455 449.802912 
L 1142.793388 448.520984 
L 1153.041322 447.239055 
L 1163.289256 445.957127 
L 1173.53719 444.675199 
L 1183.785124 443.393271 
L 1194.033058 442.111342 
L 1204.280992 440.829414 
L 1214.528926 439.547486 
L 1224.77686 438.284162 
L 1235.024793 437.205316 
L 1245.272727 436.12647 
L 1245.272727 386.19129 
L 1245.272727 386.19129 
L 1235.024793 388.379852 
L 1224.77686 390.568415 
L 1214.528926 392.756977 
L 1204.280992 394.945539 
L 1194.033058 397.136003 
L 1183.785124 399.16369 
L 1173.53719 401.325812 
L 1163.289256 403.168748 
L 1153.041322 404.869326 
L 1142.793388 406.390983 
L 1132.545455 407.918356 
L 1122.297521 409.4459 
L 1112.049587 410.967314 
L 1101.801653 412.989538 
L 1091.553719 414.741015 
L 1081.305785 416.765608 
L 1071.057851 418.074537 
L 1060.809917 419.605809 
L 1050.561983 421.037123 
L 1040.31405 422.605112 
L 1030.066116 423.933088 
L 1019.818182 425.339669 
L 1009.570248 426.62997 
L 999.322314 427.920272 
L 989.07438 429.224277 
L 978.826446 430.742483 
L 968.578512 432.25915 
L 958.330579 433.709212 
L 948.082645 435.281377 
L 937.834711 436.831345 
L 927.586777 438.352758 
L 917.338843 439.874172 
L 907.090909 441.395585 
L 896.842975 442.916999 
L 886.595041 444.438413 
L 876.347107 445.959826 
L 866.099174 447.48124 
L 855.85124 449.002653 
L 845.603306 450.524067 
L 835.355372 452.04548 
L 825.107438 453.566894 
L 814.859504 455.088308 
L 804.61157 456.609721 
L 794.363636 458.131135 
L 784.115702 459.767787 
L 773.867769 461.627045 
L 763.619835 463.253493 
L 753.371901 464.597843 
L 743.123967 465.942192 
L 732.876033 467.286542 
L 722.628099 468.694808 
L 712.380165 470.177274 
L 702.132231 471.50186 
L 691.884298 472.819441 
L 681.636364 474.140254 
L 671.38843 475.46279 
L 661.140496 476.781473 
L 650.892562 478.068671 
L 640.644628 479.35204 
L 630.396694 480.634709 
L 620.14876 481.917378 
L 609.900826 483.200047 
L 599.652893 484.48072 
L 589.404959 485.756738 
L 579.157025 487.032756 
L 568.909091 488.308774 
L 558.661157 489.584792 
L 548.413223 490.86304 
L 538.165289 492.144455 
L 527.917355 493.425869 
L 517.669421 494.707283 
L 507.421488 495.988698 
L 497.173554 497.057987 
L 486.92562 497.985426 
L 476.677686 498.912865 
L 466.429752 499.840304 
L 456.181818 500.767743 
L 445.933884 501.900224 
L 435.68595 503.119675 
L 425.438017 504.344308 
L 415.190083 504.569159 
L 404.942149 505.739937 
L 394.694215 506.287966 
L 384.446281 507.207626 
L 374.198347 508.127243 
L 363.950413 509.249574 
L 353.702479 510.551273 
L 343.454545 511.415559 
L 333.206612 512.699038 
L 322.958678 514.010254 
L 312.710744 515.324551 
L 302.46281 516.565579 
L 292.214876 517.474108 
L 281.966942 518.770768 
L 271.719008 519.991881 
L 261.471074 521.133156 
L 251.22314 522.368512 
L 240.975207 523.66926 
L 230.727273 524.970008 
z
" clip-path="url(#p176d49f99e)" style="fill: #1f77b4; fill-opacity: 0.15"/>
   </g>
   <g id="PathCollection_2">
    <defs>
     <path id="mf6f709890c" d="M 0 3 
C 0.795609 3 1.55874 2.683901 2.12132 2.12132 
C 2.683901 1.55874 3 0.795609 3 0 
C 3 -0.795609 2.683901 -1.55874 2.12132 -2.12132 
C 1.55874 -2.683901 0.795609 -3 0 -3 
C -0.795609 -3 -1.55874 -2.683901 -2.12132 -2.12132 
C -2.683901 -1.55874 -3 -0.795609 -3 0 
C -3 0.795609 -2.683901 1.55874 -2.12132 2.12132 
C -1.55874 2.683901 -0.795609 3 0 3 
z
" style="stroke: #ff7f0e; stroke-opacity: 0.8"/>
    </defs>
    <g clip-path="url(#p176d49f99e)">
     <use xlink:href="#mf6f709890c" x="230.727273" y="642.481319" style="fill: #ff7f0e; fill-opacity: 0.8; stroke: #ff7f0e; stroke-opacity: 0.8"/>
     <use xlink:href="#mf6f709890c" x="433.636364" y="607.176157" style="fill: #ff7f0e; fill-opacity: 0.8; stroke: #ff7f0e; stroke-opacity: 0.8"/>
     <use xlink:href="#mf6f709890c" x="636.545455" y="599.285368" style="fill: #ff7f0e; fill-opacity: 0.8; stroke: #ff7f0e; stroke-opacity: 0.8"/>
     <use xlink:href="#mf6f709890c" x="839.454545" y="331.723164" style="fill: #ff7f0e; fill-opacity: 0.8; stroke: #ff7f0e; stroke-opacity: 0.8"/>
     <use xlink:href="#mf6f709890c" x="1042.363636" y="485.004632" style="fill: #ff7f0e; fill-opacity: 0.8; stroke: #ff7f0e; stroke-opacity: 0.8"/>
     <use xlink:href="#mf6f709890c" x="1245.272727" y="375.355069" style="fill: #ff7f0e; fill-opacity: 0.8; stroke: #ff7f0e; stroke-opacity: 0.8"/>
    </g>
   </g>
   <g id="PolyCollection_2">
    <path d="M 230.727273 549.935425 
L 230.727273 738.72 
L 240.975207 732.700882 
L 251.22314 726.681764 
L 261.471074 720.662646 
L 271.719008 714.643528 
L 281.966942 708.62441 
L 292.214876 702.605292 
L 302.46281 696.220835 
L 312.710744 690.481286 
L 322.958678 684.547937 
L 333.206612 678.579074 
L 343.454545 672.626604 
L 353.702479 669.440904 
L 363.950413 666.36764 
L 374.198347 663.21915 
L 384.446281 658.50572 
L 394.694215 655.327618 
L 404.942149 652.149517 
L 415.190083 648.971415 
L 425.438017 645.793314 
L 435.68595 642.615212 
L 445.933884 639.437111 
L 456.181818 636.259009 
L 466.429752 633.080908 
L 476.677686 628.677394 
L 486.92562 625.436277 
L 497.173554 622.516343 
L 507.421488 619.595796 
L 517.669421 616.663296 
L 527.917355 613.749981 
L 538.165289 610.834197 
L 548.413223 607.656095 
L 558.661157 604.491295 
L 568.909091 601.920158 
L 579.157025 599.871918 
L 589.404959 596.761791 
L 599.652893 594.624593 
L 609.900826 592.67615 
L 620.14876 589.635293 
L 630.396694 586.596151 
L 640.644628 583.557009 
L 650.892562 580.517867 
L 661.140496 578.280104 
L 671.38843 576.446191 
L 681.636364 574.612278 
L 691.884298 572.778364 
L 702.132231 570.944451 
L 712.380165 569.110538 
L 722.628099 567.276625 
L 732.876033 565.42465 
L 743.123967 563.552037 
L 753.371901 560.970956 
L 763.619835 558.853321 
L 773.867769 556.928225 
L 784.115702 553.39855 
L 794.363636 551.194743 
L 804.61157 549.137983 
L 814.859504 546.843442 
L 825.107438 543.86792 
L 835.355372 542.027556 
L 845.603306 539.890121 
L 855.85124 537.172816 
L 866.099174 535.274275 
L 876.347107 533.38483 
L 886.595041 531.495385 
L 896.842975 529.605941 
L 907.090909 527.716496 
L 917.338843 525.827052 
L 927.586777 523.937607 
L 937.834711 522.048163 
L 948.082645 520.158718 
L 958.330579 518.269274 
L 968.578512 516.229828 
L 978.826446 514.173068 
L 989.07438 512.116309 
L 999.322314 510.059549 
L 1009.570248 508.002789 
L 1019.818182 505.94603 
L 1030.066116 503.88927 
L 1040.31405 501.83251 
L 1050.561983 499.834198 
L 1060.809917 498.073314 
L 1071.057851 496.298454 
L 1081.305785 494.512706 
L 1091.553719 492.726958 
L 1101.801653 490.94121 
L 1112.049587 489.155462 
L 1122.297521 487.369714 
L 1132.545455 485.583966 
L 1142.793388 483.798218 
L 1153.041322 482.01247 
L 1163.289256 480.226723 
L 1173.53719 478.440975 
L 1183.785124 476.655227 
L 1194.033058 474.813521 
L 1204.280992 472.926736 
L 1214.528926 471.03995 
L 1224.77686 469.153164 
L 1235.024793 467.266379 
L 1245.272727 465.955506 
L 1245.272727 133.92 
L 1245.272727 133.92 
L 1235.024793 139.624797 
L 1224.77686 145.329595 
L 1214.528926 151.034392 
L 1204.280992 156.73919 
L 1194.033058 162.443987 
L 1183.785124 168.148785 
L 1173.53719 173.853582 
L 1163.289256 179.55838 
L 1153.041322 185.263177 
L 1142.793388 190.967975 
L 1132.545455 196.672772 
L 1122.297521 202.37757 
L 1112.049587 208.082367 
L 1101.801653 213.787165 
L 1091.553719 219.491962 
L 1081.305785 225.19676 
L 1071.057851 230.901557 
L 1060.809917 236.606355 
L 1050.561983 242.311152 
L 1040.31405 248.01595 
L 1030.066116 253.720747 
L 1019.818182 259.425545 
L 1009.570248 265.130342 
L 999.322314 270.83514 
L 989.07438 276.570935 
L 978.826446 282.309428 
L 968.578512 288.047921 
L 958.330579 293.7729 
L 948.082645 299.480178 
L 937.834711 305.187456 
L 927.586777 310.894734 
L 917.338843 316.602012 
L 907.090909 322.30929 
L 896.842975 328.016568 
L 886.595041 333.723846 
L 876.347107 339.431124 
L 866.099174 345.138402 
L 855.85124 347.818096 
L 845.603306 354.547864 
L 835.355372 361.270622 
L 825.107438 367.967515 
L 814.859504 372.894787 
L 804.61157 374.027851 
L 794.363636 381.072918 
L 784.115702 384.282313 
L 773.867769 389.807626 
L 763.619835 395.423514 
L 753.371901 401.039402 
L 743.123967 406.65529 
L 732.876033 412.271178 
L 722.628099 413.172783 
L 712.380165 418.803769 
L 702.132231 424.725093 
L 691.884298 430.646418 
L 681.636364 436.567743 
L 671.38843 442.489068 
L 661.140496 445.544245 
L 650.892562 448.896248 
L 640.644628 452.256633 
L 630.396694 455.538987 
L 620.14876 457.274423 
L 609.900826 459.554118 
L 599.652893 464.819718 
L 589.404959 469.130938 
L 579.157025 472.48661 
L 568.909091 475.842283 
L 558.661157 478.655206 
L 548.413223 479.571742 
L 538.165289 480.332146 
L 527.917355 481.376097 
L 517.669421 483.805793 
L 507.421488 486.235489 
L 497.173554 488.678071 
L 486.92562 491.166084 
L 476.677686 493.654096 
L 466.429752 496.142109 
L 456.181818 498.630122 
L 445.933884 501.118135 
L 435.68595 503.606147 
L 425.438017 506.09416 
L 415.190083 508.632306 
L 404.942149 511.709849 
L 394.694215 514.3209 
L 384.446281 516.55173 
L 374.198347 518.782561 
L 363.950413 521.013391 
L 353.702479 523.239821 
L 343.454545 525.464454 
L 333.206612 527.689088 
L 322.958678 529.913722 
L 312.710744 532.138356 
L 302.46281 534.362989 
L 292.214876 536.587623 
L 281.966942 538.812257 
L 271.719008 541.03689 
L 261.471074 543.261524 
L 251.22314 545.486158 
L 240.975207 547.710792 
L 230.727273 549.935425 
z
" clip-path="url(#p176d49f99e)" style="fill: #ff7f0e; fill-opacity: 0.15"/>
   </g>
   <g id="PathCollection_3">
    <defs>
     <path id="m0e3109ca66" d="M 0 3 
C 0.795609 3 1.55874 2.683901 2.12132 2.12132 
C 2.683901 1.55874 3 0.795609 3 0 
C 3 -0.795609 2.683901 -1.55874 2.12132 -2.12132 
C 1.55874 -2.683901 0.795609 -3 0 -3 
C -0.795609 -3 -1.55874 -2.683901 -2.12132 -2.12132 
C -2.683901 -1.55874 -3 -0.795609 -3 0 
C -3 0.795609 -2.683901 1.55874 -2.12132 2.12132 
C -1.55874 2.683901 -0.795609 3 0 3 
z
" style="stroke: #2ca02c; stroke-opacity: 0.8"/>
    </defs>
    <g clip-path="url(#p176d49f99e)">
     <use xlink:href="#m0e3109ca66" x="230.727273" y="697.076337" style="fill: #2ca02c; fill-opacity: 0.8; stroke: #2ca02c; stroke-opacity: 0.8"/>
     <use xlink:href="#m0e3109ca66" x="433.636364" y="633.965739" style="fill: #2ca02c; fill-opacity: 0.8; stroke: #2ca02c; stroke-opacity: 0.8"/>
     <use xlink:href="#m0e3109ca66" x="636.545455" y="563.331879" style="fill: #2ca02c; fill-opacity: 0.8; stroke: #2ca02c; stroke-opacity: 0.8"/>
     <use xlink:href="#m0e3109ca66" x="839.454545" y="469.148656" style="fill: #2ca02c; fill-opacity: 0.8; stroke: #2ca02c; stroke-opacity: 0.8"/>
     <use xlink:href="#m0e3109ca66" x="1042.363636" y="419.645738" style="fill: #2ca02c; fill-opacity: 0.8; stroke: #2ca02c; stroke-opacity: 0.8"/>
     <use xlink:href="#m0e3109ca66" x="1245.272727" y="402.450048" style="fill: #2ca02c; fill-opacity: 0.8; stroke: #2ca02c; stroke-opacity: 0.8"/>
    </g>
   </g>
   <g id="PolyCollection_3">
    <path d="M 230.727273 621.919297 
L 230.727273 707.919859 
L 240.975207 704.172884 
L 251.22314 700.42591 
L 261.471074 696.678936 
L 271.719008 692.931961 
L 281.966942 689.184987 
L 292.214876 685.438013 
L 302.46281 681.691038 
L 312.710744 677.944064 
L 322.958678 674.19709 
L 333.206612 670.450115 
L 343.454545 666.703141 
L 353.702479 662.89681 
L 363.950413 659.079884 
L 374.198347 655.263605 
L 384.446281 651.675382 
L 394.694215 648.038881 
L 404.942149 644.736077 
L 415.190083 641.120296 
L 425.438017 637.581439 
L 435.68595 634.406553 
L 445.933884 631.174201 
L 456.181818 627.960995 
L 466.429752 624.999149 
L 476.677686 622.037302 
L 486.92562 618.769432 
L 497.173554 615.822435 
L 507.421488 612.70892 
L 517.669421 609.722041 
L 527.917355 606.735162 
L 538.165289 603.748282 
L 548.413223 600.761403 
L 558.661157 597.774524 
L 568.909091 594.787645 
L 579.157025 591.800766 
L 589.404959 588.813886 
L 599.652893 585.827007 
L 609.900826 582.840128 
L 620.14876 579.853249 
L 630.396694 576.86637 
L 640.644628 573.87949 
L 650.892562 570.892611 
L 661.140496 567.905732 
L 671.38843 564.949238 
L 681.636364 562.00884 
L 691.884298 559.068442 
L 702.132231 556.128044 
L 712.380165 553.187647 
L 722.628099 550.247249 
L 732.876033 547.306851 
L 743.123967 544.366453 
L 753.371901 541.426055 
L 763.619835 538.485657 
L 773.867769 535.54526 
L 784.115702 532.604862 
L 794.363636 529.664464 
L 804.61157 526.724066 
L 814.859504 523.783668 
L 825.107438 520.843271 
L 835.355372 517.902873 
L 845.603306 514.962475 
L 855.85124 512.022077 
L 866.099174 509.081679 
L 876.347107 506.141281 
L 886.595041 503.200884 
L 896.842975 500.260486 
L 907.090909 497.320088 
L 917.338843 494.37969 
L 927.586777 491.439292 
L 937.834711 488.498895 
L 948.082645 485.558497 
L 958.330579 482.618099 
L 968.578512 479.677701 
L 978.826446 476.737303 
L 989.07438 473.80843 
L 999.322314 470.902258 
L 1009.570248 467.995691 
L 1019.818182 465.059423 
L 1030.066116 462.097576 
L 1040.31405 459.135729 
L 1050.561983 456.173882 
L 1060.809917 453.214121 
L 1071.057851 450.273723 
L 1081.305785 447.333325 
L 1091.553719 444.392927 
L 1101.801653 441.45253 
L 1112.049587 438.512132 
L 1122.297521 435.571734 
L 1132.545455 432.631336 
L 1142.793388 429.690938 
L 1153.041322 426.826083 
L 1163.289256 424.061475 
L 1173.53719 421.237403 
L 1183.785124 418.413331 
L 1194.033058 415.505569 
L 1204.280992 412.552507 
L 1214.528926 409.598815 
L 1224.77686 406.645124 
L 1235.024793 404.050656 
L 1245.272727 401.244539 
L 1245.272727 318.115819 
L 1245.272727 318.115819 
L 1235.024793 321.999397 
L 1224.77686 325.882975 
L 1214.528926 329.766553 
L 1204.280992 333.650131 
L 1194.033058 337.533709 
L 1183.785124 341.417286 
L 1173.53719 345.300864 
L 1163.289256 349.184442 
L 1153.041322 353.06802 
L 1142.793388 356.951598 
L 1132.545455 360.835176 
L 1122.297521 364.718754 
L 1112.049587 368.602332 
L 1101.801653 372.48591 
L 1091.553719 376.369488 
L 1081.305785 380.253066 
L 1071.057851 384.163727 
L 1060.809917 388.082114 
L 1050.561983 392.0005 
L 1040.31405 395.918887 
L 1030.066116 399.837274 
L 1019.818182 403.75566 
L 1009.570248 407.674047 
L 999.322314 411.592433 
L 989.07438 415.51082 
L 978.826446 419.429207 
L 968.578512 423.347593 
L 958.330579 426.856001 
L 948.082645 430.739579 
L 937.834711 434.623157 
L 927.586777 438.506735 
L 917.338843 442.390313 
L 907.090909 446.273891 
L 896.842975 450.157469 
L 886.595041 454.034726 
L 876.347107 457.699773 
L 866.099174 461.114495 
L 855.85124 464.17823 
L 845.603306 468.133584 
L 835.355372 471.814418 
L 825.107438 475.709372 
L 814.859504 479.58476 
L 804.61157 483.460147 
L 794.363636 487.335535 
L 784.115702 491.210923 
L 773.867769 495.08631 
L 763.619835 498.961698 
L 753.371901 502.818978 
L 743.123967 506.303967 
L 732.876033 508.855148 
L 722.628099 511.40633 
L 712.380165 513.82457 
L 702.132231 516.12654 
L 691.884298 518.428511 
L 681.636364 520.730482 
L 671.38843 523.032452 
L 661.140496 525.334423 
L 650.892562 527.636394 
L 640.644628 529.938364 
L 630.396694 532.240335 
L 620.14876 534.542306 
L 609.900826 536.844276 
L 599.652893 539.146247 
L 589.404959 541.448218 
L 579.157025 543.750188 
L 568.909091 546.052159 
L 558.661157 548.35413 
L 548.413223 550.6561 
L 538.165289 552.955528 
L 527.917355 555.254321 
L 517.669421 557.553113 
L 507.421488 559.851905 
L 497.173554 562.150697 
L 486.92562 564.44949 
L 476.677686 566.748282 
L 466.429752 569.047074 
L 456.181818 571.345867 
L 445.933884 573.644659 
L 435.68595 575.943451 
L 425.438017 578.242244 
L 415.190083 580.541036 
L 404.942149 582.839828 
L 394.694215 585.138621 
L 384.446281 587.437413 
L 374.198347 589.736205 
L 363.950413 592.034997 
L 353.702479 594.33379 
L 343.454545 596.632582 
L 333.206612 598.931374 
L 322.958678 601.230167 
L 312.710744 603.528959 
L 302.46281 605.827751 
L 292.214876 608.126544 
L 281.966942 610.425336 
L 271.719008 612.724128 
L 261.471074 615.022921 
L 251.22314 617.321713 
L 240.975207 619.620505 
L 230.727273 621.919297 
z
" clip-path="url(#p176d49f99e)" style="fill: #2ca02c; fill-opacity: 0.15"/>
   </g>
   <g id="PathCollection_4">
    <defs>
     <path id="m152cac000b" d="M 0 3 
C 0.795609 3 1.55874 2.683901 2.12132 2.12132 
C 2.683901 1.55874 3 0.795609 3 0 
C 3 -0.795609 2.683901 -1.55874 2.12132 -2.12132 
C 1.55874 -2.683901 0.795609 -3 0 -3 
C -0.795609 -3 -1.55874 -2.683901 -2.12132 -2.12132 
C -2.683901 -1.55874 -3 -0.795609 -3 0 
C -3 0.795609 -2.683901 1.55874 -2.12132 2.12132 
C -1.55874 2.683901 -0.795609 3 0 3 
z
" style="stroke: #d62728; stroke-opacity: 0.8"/>
    </defs>
    <g clip-path="url(#p176d49f99e)">
     <use xlink:href="#m152cac000b" x="230.727273" y="607.348503" style="fill: #d62728; fill-opacity: 0.8; stroke: #d62728; stroke-opacity: 0.8"/>
     <use xlink:href="#m152cac000b" x="433.636364" y="532.584375" style="fill: #d62728; fill-opacity: 0.8; stroke: #d62728; stroke-opacity: 0.8"/>
     <use xlink:href="#m152cac000b" x="636.545455" y="532.062061" style="fill: #d62728; fill-opacity: 0.8; stroke: #d62728; stroke-opacity: 0.8"/>
     <use xlink:href="#m152cac000b" x="839.454545" y="475.75323" style="fill: #d62728; fill-opacity: 0.8; stroke: #d62728; stroke-opacity: 0.8"/>
     <use xlink:href="#m152cac000b" x="1042.363636" y="425.029567" style="fill: #d62728; fill-opacity: 0.8; stroke: #d62728; stroke-opacity: 0.8"/>
     <use xlink:href="#m152cac000b" x="1245.272727" y="396.573627" style="fill: #d62728; fill-opacity: 0.8; stroke: #d62728; stroke-opacity: 0.8"/>
    </g>
   </g>
   <g id="PolyCollection_4">
    <path d="M 230.727273 568.73714 
L 230.727273 624.010612 
L 240.975207 621.62419 
L 251.22314 619.237767 
L 261.471074 616.851344 
L 271.719008 614.464921 
L 281.966942 612.078499 
L 292.214876 609.692076 
L 302.46281 607.305653 
L 312.710744 604.91923 
L 322.958678 602.532808 
L 333.206612 600.146385 
L 343.454545 597.759962 
L 353.702479 595.373539 
L 363.950413 592.987117 
L 374.198347 590.600694 
L 384.446281 588.214271 
L 394.694215 585.829464 
L 404.942149 583.445678 
L 415.190083 581.061892 
L 425.438017 578.678106 
L 435.68595 576.292308 
L 445.933884 573.941533 
L 456.181818 571.565636 
L 466.429752 569.126708 
L 476.677686 566.741457 
L 486.92562 564.353453 
L 497.173554 561.965448 
L 507.421488 559.587425 
L 517.669421 557.193456 
L 527.917355 554.80903 
L 538.165289 552.424604 
L 548.413223 550.040179 
L 558.661157 547.655753 
L 568.909091 545.271328 
L 579.157025 542.886902 
L 589.404959 540.816075 
L 599.652893 538.845685 
L 609.900826 536.515118 
L 620.14876 534.074964 
L 630.396694 531.642091 
L 640.644628 529.197706 
L 650.892562 526.823129 
L 661.140496 524.530415 
L 671.38843 521.941541 
L 681.636364 519.488482 
L 691.884298 516.973841 
L 702.132231 514.554297 
L 712.380165 512.121929 
L 722.628099 509.834883 
L 732.876033 507.716072 
L 743.123967 505.597261 
L 753.371901 503.47845 
L 763.619835 501.238471 
L 773.867769 498.990635 
L 784.115702 496.665931 
L 794.363636 494.42226 
L 804.61157 492.12868 
L 814.859504 489.838519 
L 825.107438 487.706284 
L 835.355372 485.503616 
L 845.603306 483.322129 
L 855.85124 481.21646 
L 866.099174 479.105047 
L 876.347107 476.832758 
L 886.595041 474.560468 
L 896.842975 472.288178 
L 907.090909 470.015889 
L 917.338843 468.324399 
L 927.586777 466.476783 
L 937.834711 464.371114 
L 948.082645 462.265446 
L 958.330579 460.340343 
L 968.578512 458.16837 
L 978.826446 456.202162 
L 989.07438 454.526161 
L 999.322314 452.709619 
L 1009.570248 450.593786 
L 1019.818182 448.584599 
L 1030.066116 446.468149 
L 1040.31405 444.328529 
L 1050.561983 442.199807 
L 1060.809917 440.071084 
L 1071.057851 437.942361 
L 1081.305785 435.813638 
L 1091.553719 434.002913 
L 1101.801653 432.192226 
L 1112.049587 430.381539 
L 1122.297521 428.570852 
L 1132.545455 426.760165 
L 1142.793388 424.949478 
L 1153.041322 423.189518 
L 1163.289256 421.472211 
L 1173.53719 419.754903 
L 1183.785124 417.896283 
L 1194.033058 415.942061 
L 1204.280992 414.092309 
L 1214.528926 412.27936 
L 1224.77686 410.466411 
L 1235.024793 408.653461 
L 1245.272727 406.758762 
L 1245.272727 373.259569 
L 1245.272727 373.259569 
L 1235.024793 375.491172 
L 1224.77686 377.722959 
L 1214.528926 379.966245 
L 1204.280992 382.211685 
L 1194.033058 384.882179 
L 1183.785124 387.557396 
L 1173.53719 390.232612 
L 1163.289256 392.80825 
L 1153.041322 395.506227 
L 1142.793388 398.204205 
L 1132.545455 400.902182 
L 1122.297521 403.468382 
L 1112.049587 406.031402 
L 1101.801653 408.738984 
L 1091.553719 411.12507 
L 1081.305785 413.432286 
L 1071.057851 415.706816 
L 1060.809917 418.430886 
L 1050.561983 421.161852 
L 1040.31405 423.424935 
L 1030.066116 425.588894 
L 1019.818182 427.752852 
L 1009.570248 429.91301 
L 999.322314 432.072874 
L 989.07438 434.244424 
L 978.826446 436.404865 
L 968.578512 438.571286 
L 958.330579 440.736604 
L 948.082645 442.899725 
L 937.834711 445.064521 
L 927.586777 447.228479 
L 917.338843 449.262107 
L 907.090909 451.273439 
L 896.842975 453.134174 
L 886.595041 454.872492 
L 876.347107 456.610809 
L 866.099174 458.351282 
L 855.85124 460.348005 
L 845.603306 462.095599 
L 835.355372 463.848183 
L 825.107438 465.763405 
L 814.859504 467.715185 
L 804.61157 469.588923 
L 794.363636 471.48598 
L 784.115702 473.545628 
L 773.867769 475.614013 
L 763.619835 477.596678 
L 753.371901 479.354005 
L 743.123967 481.128122 
L 732.876033 483.024878 
L 722.628099 484.815272 
L 712.380165 486.607611 
L 702.132231 488.421856 
L 691.884298 490.286215 
L 681.636364 492.012324 
L 671.38843 493.77634 
L 661.140496 495.567582 
L 650.892562 497.358825 
L 640.644628 499.150068 
L 630.396694 500.941311 
L 620.14876 502.732553 
L 609.900826 504.484618 
L 599.652893 506.221381 
L 589.404959 507.958145 
L 579.157025 509.694908 
L 568.909091 511.431671 
L 558.661157 513.168435 
L 548.413223 514.904224 
L 538.165289 516.639493 
L 527.917355 518.374762 
L 517.669421 520.110031 
L 507.421488 521.848191 
L 497.173554 523.586514 
L 486.92562 525.324836 
L 476.677686 527.062542 
L 466.429752 528.799305 
L 456.181818 530.536068 
L 445.933884 532.272642 
L 435.68595 533.931634 
L 425.438017 535.605098 
L 415.190083 537.479689 
L 404.942149 539.216966 
L 394.694215 540.954244 
L 384.446281 542.691521 
L 374.198347 544.428799 
L 363.950413 546.132441 
L 353.702479 547.889768 
L 343.454545 549.640465 
L 333.206612 551.377229 
L 322.958678 553.113992 
L 312.710744 554.850755 
L 302.46281 556.587519 
L 292.214876 558.324282 
L 281.966942 560.061045 
L 271.719008 561.797809 
L 261.471074 563.52825 
L 251.22314 565.259917 
L 240.975207 566.998528 
L 230.727273 568.73714 
z
" clip-path="url(#p176d49f99e)" style="fill: #d62728; fill-opacity: 0.15"/>
   </g>
   <g id="matplotlib.axis_1">
    <g id="xtick_1">
     <g id="line2d_1">
      <defs>
       <path id="me2769c5750" d="M 0 0 
L 0 3.5 
" style="stroke: #000000; stroke-width: 0.8"/>
      </defs>
      <g>
       <use xlink:href="#me2769c5750" x="230.727273" y="768.96" style="stroke: #000000; stroke-width: 0.8"/>
      </g>
     </g>
     <g id="text_1">
      <!-- 6 -->
      <g transform="translate(227.546023 783.558437) scale(0.1 -0.1)">
       <defs>
        <path id="DejaVuSans-36" d="M 2113 2584 
Q 1688 2584 1439 2293 
Q 1191 2003 1191 1497 
Q 1191 994 1439 701 
Q 1688 409 2113 409 
Q 2538 409 2786 701 
Q 3034 994 3034 1497 
Q 3034 2003 2786 2293 
Q 2538 2584 2113 2584 
z
M 3366 4563 
L 3366 3988 
Q 3128 4100 2886 4159 
Q 2644 4219 2406 4219 
Q 1781 4219 1451 3797 
Q 1122 3375 1075 2522 
Q 1259 2794 1537 2939 
Q 1816 3084 2150 3084 
Q 2853 3084 3261 2657 
Q 3669 2231 3669 1497 
Q 3669 778 3244 343 
Q 2819 -91 2113 -91 
Q 1303 -91 875 529 
Q 447 1150 447 2328 
Q 447 3434 972 4092 
Q 1497 4750 2381 4750 
Q 2619 4750 2861 4703 
Q 3103 4656 3366 4563 
z
" transform="scale(0.015625)"/>
       </defs>
       <use xlink:href="#DejaVuSans-36"/>
      </g>
     </g>
    </g>
    <g id="xtick_2">
     <g id="line2d_2">
      <g>
       <use xlink:href="#me2769c5750" x="433.636364" y="768.96" style="stroke: #000000; stroke-width: 0.8"/>
      </g>
     </g>
     <g id="text_2">
      <!-- 9 -->
      <g transform="translate(430.455114 783.558437) scale(0.1 -0.1)">
       <defs>
        <path id="DejaVuSans-39" d="M 703 97 
L 703 672 
Q 941 559 1184 500 
Q 1428 441 1663 441 
Q 2288 441 2617 861 
Q 2947 1281 2994 2138 
Q 2813 1869 2534 1725 
Q 2256 1581 1919 1581 
Q 1219 1581 811 2004 
Q 403 2428 403 3163 
Q 403 3881 828 4315 
Q 1253 4750 1959 4750 
Q 2769 4750 3195 4129 
Q 3622 3509 3622 2328 
Q 3622 1225 3098 567 
Q 2575 -91 1691 -91 
Q 1453 -91 1209 -44 
Q 966 3 703 97 
z
M 1959 2075 
Q 2384 2075 2632 2365 
Q 2881 2656 2881 3163 
Q 2881 3666 2632 3958 
Q 2384 4250 1959 4250 
Q 1534 4250 1286 3958 
Q 1038 3666 1038 3163 
Q 1038 2656 1286 2365 
Q 1534 2075 1959 2075 
z
" transform="scale(0.015625)"/>
       </defs>
       <use xlink:href="#DejaVuSans-39"/>
      </g>
     </g>
    </g>
    <g id="xtick_3">
     <g id="line2d_3">
      <g>
       <use xlink:href="#me2769c5750" x="636.545455" y="768.96" style="stroke: #000000; stroke-width: 0.8"/>
      </g>
     </g>
     <g id="text_3">
      <!-- 12 -->
      <g transform="translate(630.182955 783.558437) scale(0.1 -0.1)">
       <defs>
        <path id="DejaVuSans-31" d="M 794 531 
L 1825 531 
L 1825 4091 
L 703 3866 
L 703 4441 
L 1819 4666 
L 2450 4666 
L 2450 531 
L 3481 531 
L 3481 0 
L 794 0 
L 794 531 
z
" transform="scale(0.015625)"/>
        <path id="DejaVuSans-32" d="M 1228 531 
L 3431 531 
L 3431 0 
L 469 0 
L 469 531 
Q 828 903 1448 1529 
Q 2069 2156 2228 2338 
Q 2531 2678 2651 2914 
Q 2772 3150 2772 3378 
Q 2772 3750 2511 3984 
Q 2250 4219 1831 4219 
Q 1534 4219 1204 4116 
Q 875 4013 500 3803 
L 500 4441 
Q 881 4594 1212 4672 
Q 1544 4750 1819 4750 
Q 2544 4750 2975 4387 
Q 3406 4025 3406 3419 
Q 3406 3131 3298 2873 
Q 3191 2616 2906 2266 
Q 2828 2175 2409 1742 
Q 1991 1309 1228 531 
z
" transform="scale(0.015625)"/>
       </defs>
       <use xlink:href="#DejaVuSans-31"/>
       <use xlink:href="#DejaVuSans-32" x="63.623047"/>
      </g>
     </g>
    </g>
    <g id="xtick_4">
     <g id="line2d_4">
      <g>
       <use xlink:href="#me2769c5750" x="839.454545" y="768.96" style="stroke: #000000; stroke-width: 0.8"/>
      </g>
     </g>
     <g id="text_4">
      <!-- 15 -->
      <g transform="translate(833.092045 783.558437) scale(0.1 -0.1)">
       <defs>
        <path id="DejaVuSans-35" d="M 691 4666 
L 3169 4666 
L 3169 4134 
L 1269 4134 
L 1269 2991 
Q 1406 3038 1543 3061 
Q 1681 3084 1819 3084 
Q 2600 3084 3056 2656 
Q 3513 2228 3513 1497 
Q 3513 744 3044 326 
Q 2575 -91 1722 -91 
Q 1428 -91 1123 -41 
Q 819 9 494 109 
L 494 744 
Q 775 591 1075 516 
Q 1375 441 1709 441 
Q 2250 441 2565 725 
Q 2881 1009 2881 1497 
Q 2881 1984 2565 2268 
Q 2250 2553 1709 2553 
Q 1456 2553 1204 2497 
Q 953 2441 691 2322 
L 691 4666 
z
" transform="scale(0.015625)"/>
       </defs>
       <use xlink:href="#DejaVuSans-31"/>
       <use xlink:href="#DejaVuSans-35" x="63.623047"/>
      </g>
     </g>
    </g>
    <g id="xtick_5">
     <g id="line2d_5">
      <g>
       <use xlink:href="#me2769c5750" x="1042.363636" y="768.96" style="stroke: #000000; stroke-width: 0.8"/>
      </g>
     </g>
     <g id="text_5">
      <!-- 18 -->
      <g transform="translate(1036.001136 783.558437) scale(0.1 -0.1)">
       <defs>
        <path id="DejaVuSans-38" d="M 2034 2216 
Q 1584 2216 1326 1975 
Q 1069 1734 1069 1313 
Q 1069 891 1326 650 
Q 1584 409 2034 409 
Q 2484 409 2743 651 
Q 3003 894 3003 1313 
Q 3003 1734 2745 1975 
Q 2488 2216 2034 2216 
z
M 1403 2484 
Q 997 2584 770 2862 
Q 544 3141 544 3541 
Q 544 4100 942 4425 
Q 1341 4750 2034 4750 
Q 2731 4750 3128 4425 
Q 3525 4100 3525 3541 
Q 3525 3141 3298 2862 
Q 3072 2584 2669 2484 
Q 3125 2378 3379 2068 
Q 3634 1759 3634 1313 
Q 3634 634 3220 271 
Q 2806 -91 2034 -91 
Q 1263 -91 848 271 
Q 434 634 434 1313 
Q 434 1759 690 2068 
Q 947 2378 1403 2484 
z
M 1172 3481 
Q 1172 3119 1398 2916 
Q 1625 2713 2034 2713 
Q 2441 2713 2670 2916 
Q 2900 3119 2900 3481 
Q 2900 3844 2670 4047 
Q 2441 4250 2034 4250 
Q 1625 4250 1398 4047 
Q 1172 3844 1172 3481 
z
" transform="scale(0.015625)"/>
       </defs>
       <use xlink:href="#DejaVuSans-31"/>
       <use xlink:href="#DejaVuSans-38" x="63.623047"/>
      </g>
     </g>
    </g>
    <g id="xtick_6">
     <g id="line2d_6">
      <g>
       <use xlink:href="#me2769c5750" x="1245.272727" y="768.96" style="stroke: #000000; stroke-width: 0.8"/>
      </g>
     </g>
     <g id="text_6">
      <!-- 21 -->
      <g transform="translate(1238.910227 783.558437) scale(0.1 -0.1)">
       <use xlink:href="#DejaVuSans-32"/>
       <use xlink:href="#DejaVuSans-31" x="63.623047"/>
      </g>
     </g>
    </g>
    <g id="text_7">
     <!-- NumLayers -->
     <g transform="translate(709.674219 797.236562) scale(0.1 -0.1)">
      <defs>
       <path id="DejaVuSans-4e" d="M 628 4666 
L 1478 4666 
L 3547 763 
L 3547 4666 
L 4159 4666 
L 4159 0 
L 3309 0 
L 1241 3903 
L 1241 0 
L 628 0 
L 628 4666 
z
" transform="scale(0.015625)"/>
       <path id="DejaVuSans-75" d="M 544 1381 
L 544 3500 
L 1119 3500 
L 1119 1403 
Q 1119 906 1312 657 
Q 1506 409 1894 409 
Q 2359 409 2629 706 
Q 2900 1003 2900 1516 
L 2900 3500 
L 3475 3500 
L 3475 0 
L 2900 0 
L 2900 538 
Q 2691 219 2414 64 
Q 2138 -91 1772 -91 
Q 1169 -91 856 284 
Q 544 659 544 1381 
z
M 1991 3584 
L 1991 3584 
z
" transform="scale(0.015625)"/>
       <path id="DejaVuSans-6d" d="M 3328 2828 
Q 3544 3216 3844 3400 
Q 4144 3584 4550 3584 
Q 5097 3584 5394 3201 
Q 5691 2819 5691 2113 
L 5691 0 
L 5113 0 
L 5113 2094 
Q 5113 2597 4934 2840 
Q 4756 3084 4391 3084 
Q 3944 3084 3684 2787 
Q 3425 2491 3425 1978 
L 3425 0 
L 2847 0 
L 2847 2094 
Q 2847 2600 2669 2842 
Q 2491 3084 2119 3084 
Q 1678 3084 1418 2786 
Q 1159 2488 1159 1978 
L 1159 0 
L 581 0 
L 581 3500 
L 1159 3500 
L 1159 2956 
Q 1356 3278 1631 3431 
Q 1906 3584 2284 3584 
Q 2666 3584 2933 3390 
Q 3200 3197 3328 2828 
z
" transform="scale(0.015625)"/>
       <path id="DejaVuSans-4c" d="M 628 4666 
L 1259 4666 
L 1259 531 
L 3531 531 
L 3531 0 
L 628 0 
L 628 4666 
z
" transform="scale(0.015625)"/>
       <path id="DejaVuSans-61" d="M 2194 1759 
Q 1497 1759 1228 1600 
Q 959 1441 959 1056 
Q 959 750 1161 570 
Q 1363 391 1709 391 
Q 2188 391 2477 730 
Q 2766 1069 2766 1631 
L 2766 1759 
L 2194 1759 
z
M 3341 1997 
L 3341 0 
L 2766 0 
L 2766 531 
Q 2569 213 2275 61 
Q 1981 -91 1556 -91 
Q 1019 -91 701 211 
Q 384 513 384 1019 
Q 384 1609 779 1909 
Q 1175 2209 1959 2209 
L 2766 2209 
L 2766 2266 
Q 2766 2663 2505 2880 
Q 2244 3097 1772 3097 
Q 1472 3097 1187 3025 
Q 903 2953 641 2809 
L 641 3341 
Q 956 3463 1253 3523 
Q 1550 3584 1831 3584 
Q 2591 3584 2966 3190 
Q 3341 2797 3341 1997 
z
" transform="scale(0.015625)"/>
       <path id="DejaVuSans-79" d="M 2059 -325 
Q 1816 -950 1584 -1140 
Q 1353 -1331 966 -1331 
L 506 -1331 
L 506 -850 
L 844 -850 
Q 1081 -850 1212 -737 
Q 1344 -625 1503 -206 
L 1606 56 
L 191 3500 
L 800 3500 
L 1894 763 
L 2988 3500 
L 3597 3500 
L 2059 -325 
z
" transform="scale(0.015625)"/>
       <path id="DejaVuSans-65" d="M 3597 1894 
L 3597 1613 
L 953 1613 
Q 991 1019 1311 708 
Q 1631 397 2203 397 
Q 2534 397 2845 478 
Q 3156 559 3463 722 
L 3463 178 
Q 3153 47 2828 -22 
Q 2503 -91 2169 -91 
Q 1331 -91 842 396 
Q 353 884 353 1716 
Q 353 2575 817 3079 
Q 1281 3584 2069 3584 
Q 2775 3584 3186 3129 
Q 3597 2675 3597 1894 
z
M 3022 2063 
Q 3016 2534 2758 2815 
Q 2500 3097 2075 3097 
Q 1594 3097 1305 2825 
Q 1016 2553 972 2059 
L 3022 2063 
z
" transform="scale(0.015625)"/>
       <path id="DejaVuSans-72" d="M 2631 2963 
Q 2534 3019 2420 3045 
Q 2306 3072 2169 3072 
Q 1681 3072 1420 2755 
Q 1159 2438 1159 1844 
L 1159 0 
L 581 0 
L 581 3500 
L 1159 3500 
L 1159 2956 
Q 1341 3275 1631 3429 
Q 1922 3584 2338 3584 
Q 2397 3584 2469 3576 
Q 2541 3569 2628 3553 
L 2631 2963 
z
" transform="scale(0.015625)"/>
       <path id="DejaVuSans-73" d="M 2834 3397 
L 2834 2853 
Q 2591 2978 2328 3040 
Q 2066 3103 1784 3103 
Q 1356 3103 1142 2972 
Q 928 2841 928 2578 
Q 928 2378 1081 2264 
Q 1234 2150 1697 2047 
L 1894 2003 
Q 2506 1872 2764 1633 
Q 3022 1394 3022 966 
Q 3022 478 2636 193 
Q 2250 -91 1575 -91 
Q 1294 -91 989 -36 
Q 684 19 347 128 
L 347 722 
Q 666 556 975 473 
Q 1284 391 1588 391 
Q 1994 391 2212 530 
Q 2431 669 2431 922 
Q 2431 1156 2273 1281 
Q 2116 1406 1581 1522 
L 1381 1569 
Q 847 1681 609 1914 
Q 372 2147 372 2553 
Q 372 3047 722 3315 
Q 1072 3584 1716 3584 
Q 2034 3584 2315 3537 
Q 2597 3491 2834 3397 
z
" transform="scale(0.015625)"/>
      </defs>
      <use xlink:href="#DejaVuSans-4e"/>
      <use xlink:href="#DejaVuSans-75" x="74.804688"/>
      <use xlink:href="#DejaVuSans-6d" x="138.183594"/>
      <use xlink:href="#DejaVuSans-4c" x="235.595703"/>
      <use xlink:href="#DejaVuSans-61" x="291.308594"/>
      <use xlink:href="#DejaVuSans-79" x="352.587891"/>
      <use xlink:href="#DejaVuSans-65" x="411.767578"/>
      <use xlink:href="#DejaVuSans-72" x="473.291016"/>
      <use xlink:href="#DejaVuSans-73" x="514.404297"/>
     </g>
    </g>
   </g>
   <g id="matplotlib.axis_2">
    <g id="ytick_1">
     <g id="line2d_7">
      <defs>
       <path id="m36f4c463d9" d="M 0 0 
L -3.5 0 
" style="stroke: #000000; stroke-width: 0.8"/>
      </defs>
      <g>
       <use xlink:href="#m36f4c463d9" x="180" y="735.305366" style="stroke: #000000; stroke-width: 0.8"/>
      </g>
     </g>
     <g id="text_8">
      <!-- 4 -->
      <g transform="translate(166.6375 739.104584) scale(0.1 -0.1)">
       <defs>
        <path id="DejaVuSans-34" d="M 2419 4116 
L 825 1625 
L 2419 1625 
L 2419 4116 
z
M 2253 4666 
L 3047 4666 
L 3047 1625 
L 3713 1625 
L 3713 1100 
L 3047 1100 
L 3047 0 
L 2419 0 
L 2419 1100 
L 313 1100 
L 313 1709 
L 2253 4666 
z
" transform="scale(0.015625)"/>
       </defs>
       <use xlink:href="#DejaVuSans-34"/>
      </g>
     </g>
    </g>
    <g id="ytick_2">
     <g id="line2d_8">
      <g>
       <use xlink:href="#m36f4c463d9" x="180" y="644.181137" style="stroke: #000000; stroke-width: 0.8"/>
      </g>
     </g>
     <g id="text_9">
      <!-- 6 -->
      <g transform="translate(166.6375 647.980355) scale(0.1 -0.1)">
       <use xlink:href="#DejaVuSans-36"/>
      </g>
     </g>
    </g>
    <g id="ytick_3">
     <g id="line2d_9">
      <g>
       <use xlink:href="#m36f4c463d9" x="180" y="553.056907" style="stroke: #000000; stroke-width: 0.8"/>
      </g>
     </g>
     <g id="text_10">
      <!-- 8 -->
      <g transform="translate(166.6375 556.856126) scale(0.1 -0.1)">
       <use xlink:href="#DejaVuSans-38"/>
      </g>
     </g>
    </g>
    <g id="ytick_4">
     <g id="line2d_10">
      <g>
       <use xlink:href="#m36f4c463d9" x="180" y="461.932678" style="stroke: #000000; stroke-width: 0.8"/>
      </g>
     </g>
     <g id="text_11">
      <!-- 10 -->
      <g transform="translate(160.275 465.731897) scale(0.1 -0.1)">
       <defs>
        <path id="DejaVuSans-30" d="M 2034 4250 
Q 1547 4250 1301 3770 
Q 1056 3291 1056 2328 
Q 1056 1369 1301 889 
Q 1547 409 2034 409 
Q 2525 409 2770 889 
Q 3016 1369 3016 2328 
Q 3016 3291 2770 3770 
Q 2525 4250 2034 4250 
z
M 2034 4750 
Q 2819 4750 3233 4129 
Q 3647 3509 3647 2328 
Q 3647 1150 3233 529 
Q 2819 -91 2034 -91 
Q 1250 -91 836 529 
Q 422 1150 422 2328 
Q 422 3509 836 4129 
Q 1250 4750 2034 4750 
z
" transform="scale(0.015625)"/>
       </defs>
       <use xlink:href="#DejaVuSans-31"/>
       <use xlink:href="#DejaVuSans-30" x="63.623047"/>
      </g>
     </g>
    </g>
    <g id="ytick_5">
     <g id="line2d_11">
      <g>
       <use xlink:href="#m36f4c463d9" x="180" y="370.808449" style="stroke: #000000; stroke-width: 0.8"/>
      </g>
     </g>
     <g id="text_12">
      <!-- 12 -->
      <g transform="translate(160.275 374.607668) scale(0.1 -0.1)">
       <use xlink:href="#DejaVuSans-31"/>
       <use xlink:href="#DejaVuSans-32" x="63.623047"/>
      </g>
     </g>
    </g>
    <g id="ytick_6">
     <g id="line2d_12">
      <g>
       <use xlink:href="#m36f4c463d9" x="180" y="279.68422" style="stroke: #000000; stroke-width: 0.8"/>
      </g>
     </g>
     <g id="text_13">
      <!-- 14 -->
      <g transform="translate(160.275 283.483439) scale(0.1 -0.1)">
       <use xlink:href="#DejaVuSans-31"/>
       <use xlink:href="#DejaVuSans-34" x="63.623047"/>
      </g>
     </g>
    </g>
    <g id="ytick_7">
     <g id="line2d_13">
      <g>
       <use xlink:href="#m36f4c463d9" x="180" y="188.559991" style="stroke: #000000; stroke-width: 0.8"/>
      </g>
     </g>
     <g id="text_14">
      <!-- 16 -->
      <g transform="translate(160.275 192.35921) scale(0.1 -0.1)">
       <use xlink:href="#DejaVuSans-31"/>
       <use xlink:href="#DejaVuSans-36" x="63.623047"/>
      </g>
     </g>
    </g>
    <g id="text_15">
     <!-- Duration (s) -->
     <g transform="translate(154.195312 466.130937) rotate(-90) scale(0.1 -0.1)">
      <defs>
       <path id="DejaVuSans-44" d="M 1259 4147 
L 1259 519 
L 2022 519 
Q 2988 519 3436 956 
Q 3884 1394 3884 2338 
Q 3884 3275 3436 3711 
Q 2988 4147 2022 4147 
L 1259 4147 
z
M 628 4666 
L 1925 4666 
Q 3281 4666 3915 4102 
Q 4550 3538 4550 2338 
Q 4550 1131 3912 565 
Q 3275 0 1925 0 
L 628 0 
L 628 4666 
z
" transform="scale(0.015625)"/>
       <path id="DejaVuSans-74" d="M 1172 4494 
L 1172 3500 
L 2356 3500 
L 2356 3053 
L 1172 3053 
L 1172 1153 
Q 1172 725 1289 603 
Q 1406 481 1766 481 
L 2356 481 
L 2356 0 
L 1766 0 
Q 1100 0 847 248 
Q 594 497 594 1153 
L 594 3053 
L 172 3053 
L 172 3500 
L 594 3500 
L 594 4494 
L 1172 4494 
z
" transform="scale(0.015625)"/>
       <path id="DejaVuSans-69" d="M 603 3500 
L 1178 3500 
L 1178 0 
L 603 0 
L 603 3500 
z
M 603 4863 
L 1178 4863 
L 1178 4134 
L 603 4134 
L 603 4863 
z
" transform="scale(0.015625)"/>
       <path id="DejaVuSans-6f" d="M 1959 3097 
Q 1497 3097 1228 2736 
Q 959 2375 959 1747 
Q 959 1119 1226 758 
Q 1494 397 1959 397 
Q 2419 397 2687 759 
Q 2956 1122 2956 1747 
Q 2956 2369 2687 2733 
Q 2419 3097 1959 3097 
z
M 1959 3584 
Q 2709 3584 3137 3096 
Q 3566 2609 3566 1747 
Q 3566 888 3137 398 
Q 2709 -91 1959 -91 
Q 1206 -91 779 398 
Q 353 888 353 1747 
Q 353 2609 779 3096 
Q 1206 3584 1959 3584 
z
" transform="scale(0.015625)"/>
       <path id="DejaVuSans-6e" d="M 3513 2113 
L 3513 0 
L 2938 0 
L 2938 2094 
Q 2938 2591 2744 2837 
Q 2550 3084 2163 3084 
Q 1697 3084 1428 2787 
Q 1159 2491 1159 1978 
L 1159 0 
L 581 0 
L 581 3500 
L 1159 3500 
L 1159 2956 
Q 1366 3272 1645 3428 
Q 1925 3584 2291 3584 
Q 2894 3584 3203 3211 
Q 3513 2838 3513 2113 
z
" transform="scale(0.015625)"/>
       <path id="DejaVuSans-20" transform="scale(0.015625)"/>
       <path id="DejaVuSans-28" d="M 1984 4856 
Q 1566 4138 1362 3434 
Q 1159 2731 1159 2009 
Q 1159 1288 1364 580 
Q 1569 -128 1984 -844 
L 1484 -844 
Q 1016 -109 783 600 
Q 550 1309 550 2009 
Q 550 2706 781 3412 
Q 1013 4119 1484 4856 
L 1984 4856 
z
" transform="scale(0.015625)"/>
       <path id="DejaVuSans-29" d="M 513 4856 
L 1013 4856 
Q 1481 4119 1714 3412 
Q 1947 2706 1947 2009 
Q 1947 1309 1714 600 
Q 1481 -109 1013 -844 
L 513 -844 
Q 928 -128 1133 580 
Q 1338 1288 1338 2009 
Q 1338 2731 1133 3434 
Q 928 4138 513 4856 
z
" transform="scale(0.015625)"/>
      </defs>
      <use xlink:href="#DejaVuSans-44"/>
      <use xlink:href="#DejaVuSans-75" x="77.001953"/>
      <use xlink:href="#DejaVuSans-72" x="140.380859"/>
      <use xlink:href="#DejaVuSans-61" x="181.494141"/>
      <use xlink:href="#DejaVuSans-74" x="242.773438"/>
      <use xlink:href="#DejaVuSans-69" x="281.982422"/>
      <use xlink:href="#DejaVuSans-6f" x="309.765625"/>
      <use xlink:href="#DejaVuSans-6e" x="370.947266"/>
      <use xlink:href="#DejaVuSans-20" x="434.326172"/>
      <use xlink:href="#DejaVuSans-28" x="466.113281"/>
      <use xlink:href="#DejaVuSans-73" x="505.126953"/>
      <use xlink:href="#DejaVuSans-29" x="557.226562"/>
     </g>
    </g>
   </g>
   <g id="line2d_14">
    <path d="M 230.727273 572.369202 
L 433.636364 498.951425 
L 636.545455 518.332538 
L 839.454545 483.665807 
L 1042.363636 425.11598 
L 1245.272727 395.008978 
" clip-path="url(#p176d49f99e)" style="fill: none; stroke-dasharray: 1.5,2.475; stroke-dashoffset: 0; stroke: #1f77b4; stroke-width: 1.5"/>
   </g>
   <g id="line2d_15">
    <path d="M 230.727273 642.481319 
L 433.636364 607.176157 
L 636.545455 599.285368 
L 839.454545 331.723164 
L 1042.363636 485.004632 
L 1245.272727 375.355069 
" clip-path="url(#p176d49f99e)" style="fill: none; stroke-dasharray: 1.5,2.475; stroke-dashoffset: 0; stroke: #ff7f0e; stroke-width: 1.5"/>
   </g>
   <g id="line2d_16">
    <path d="M 230.727273 697.076337 
L 433.636364 633.965739 
L 636.545455 563.331879 
L 839.454545 469.148656 
L 1042.363636 419.645738 
L 1245.272727 402.450048 
" clip-path="url(#p176d49f99e)" style="fill: none; stroke-dasharray: 1.5,2.475; stroke-dashoffset: 0; stroke: #2ca02c; stroke-width: 1.5"/>
   </g>
   <g id="line2d_17">
    <path d="M 230.727273 607.348503 
L 433.636364 532.584375 
L 636.545455 532.062061 
L 839.454545 475.75323 
L 1042.363636 425.029567 
L 1245.272727 396.573627 
" clip-path="url(#p176d49f99e)" style="fill: none; stroke-dasharray: 1.5,2.475; stroke-dashoffset: 0; stroke: #d62728; stroke-width: 1.5"/>
   </g>
   <g id="line2d_18">
    <path d="M 230.727273 563.881669 
L 240.975207 562.232355 
L 251.22314 560.583042 
L 261.471074 558.933728 
L 271.719008 557.284415 
L 281.966942 555.635102 
L 292.214876 553.985788 
L 302.46281 552.336475 
L 312.710744 550.687161 
L 322.958678 549.037848 
L 333.206612 547.388535 
L 343.454545 545.739221 
L 353.702479 544.089908 
L 363.950413 542.440594 
L 374.198347 540.791281 
L 384.446281 539.141968 
L 394.694215 537.492654 
L 404.942149 535.843341 
L 415.190083 534.194027 
L 425.438017 532.544714 
L 435.68595 530.8954 
L 445.933884 529.246087 
L 456.181818 527.596774 
L 466.429752 525.94746 
L 476.677686 524.298147 
L 486.92562 522.648833 
L 497.173554 520.99952 
L 507.421488 519.350207 
L 517.669421 517.700893 
L 527.917355 516.05158 
L 538.165289 514.402266 
L 548.413223 512.752953 
L 558.661157 511.10364 
L 568.909091 509.454326 
L 579.157025 507.805013 
L 589.404959 506.155699 
L 599.652893 504.506386 
L 609.900826 502.857073 
L 620.14876 501.207759 
L 630.396694 499.558446 
L 640.644628 497.909132 
L 650.892562 496.259819 
L 661.140496 494.610506 
L 671.38843 492.961192 
L 681.636364 491.311879 
L 691.884298 489.662565 
L 702.132231 488.013252 
L 712.380165 486.363939 
L 722.628099 484.714625 
L 732.876033 483.065312 
L 743.123967 481.415998 
L 753.371901 479.766685 
L 763.619835 478.117372 
L 773.867769 476.468058 
L 784.115702 474.818745 
L 794.363636 473.169431 
L 804.61157 471.520118 
L 814.859504 469.870805 
L 825.107438 468.221491 
L 835.355372 466.572178 
L 845.603306 464.922864 
L 855.85124 463.273551 
L 866.099174 461.624237 
L 876.347107 459.974924 
L 886.595041 458.325611 
L 896.842975 456.676297 
L 907.090909 455.026984 
L 917.338843 453.37767 
L 927.586777 451.728357 
L 937.834711 450.079044 
L 948.082645 448.42973 
L 958.330579 446.780417 
L 968.578512 445.131103 
L 978.826446 443.48179 
L 989.07438 441.832477 
L 999.322314 440.183163 
L 1009.570248 438.53385 
L 1019.818182 436.884536 
L 1030.066116 435.235223 
L 1040.31405 433.58591 
L 1050.561983 431.936596 
L 1060.809917 430.287283 
L 1071.057851 428.637969 
L 1081.305785 426.988656 
L 1091.553719 425.339343 
L 1101.801653 423.690029 
L 1112.049587 422.040716 
L 1122.297521 420.391402 
L 1132.545455 418.742089 
L 1142.793388 417.092776 
L 1153.041322 415.443462 
L 1163.289256 413.794149 
L 1173.53719 412.144835 
L 1183.785124 410.495522 
L 1194.033058 408.846209 
L 1204.280992 407.196895 
L 1214.528926 405.547582 
L 1224.77686 403.898268 
L 1235.024793 402.248955 
L 1245.272727 400.599642 
" clip-path="url(#p176d49f99e)" style="fill: none; stroke-dasharray: 8.325,3.6; stroke-dashoffset: 0; stroke: #1f77b4; stroke-width: 2.25"/>
   </g>
   <g id="line2d_19">
    <path d="M 230.727273 647.531049 
L 240.975207 644.688757 
L 251.22314 641.846466 
L 261.471074 639.004174 
L 271.719008 636.161883 
L 281.966942 633.319591 
L 292.214876 630.4773 
L 302.46281 627.635008 
L 312.710744 624.792717 
L 322.958678 621.950425 
L 333.206612 619.108134 
L 343.454545 616.265842 
L 353.702479 613.42355 
L 363.950413 610.581259 
L 374.198347 607.738967 
L 384.446281 604.896676 
L 394.694215 602.054384 
L 404.942149 599.212093 
L 415.190083 596.369801 
L 425.438017 593.52751 
L 435.68595 590.685218 
L 445.933884 587.842927 
L 456.181818 585.000635 
L 466.429752 582.158344 
L 476.677686 579.316052 
L 486.92562 576.473761 
L 497.173554 573.631469 
L 507.421488 570.789178 
L 517.669421 567.946886 
L 527.917355 565.104594 
L 538.165289 562.262303 
L 548.413223 559.420011 
L 558.661157 556.57772 
L 568.909091 553.735428 
L 579.157025 550.893137 
L 589.404959 548.050845 
L 599.652893 545.208554 
L 609.900826 542.366262 
L 620.14876 539.523971 
L 630.396694 536.681679 
L 640.644628 533.839388 
L 650.892562 530.997096 
L 661.140496 528.154805 
L 671.38843 525.312513 
L 681.636364 522.470222 
L 691.884298 519.62793 
L 702.132231 516.785638 
L 712.380165 513.943347 
L 722.628099 511.101055 
L 732.876033 508.258764 
L 743.123967 505.416472 
L 753.371901 502.574181 
L 763.619835 499.731889 
L 773.867769 496.889598 
L 784.115702 494.047306 
L 794.363636 491.205015 
L 804.61157 488.362723 
L 814.859504 485.520432 
L 825.107438 482.67814 
L 835.355372 479.835849 
L 845.603306 476.993557 
L 855.85124 474.151266 
L 866.099174 471.308974 
L 876.347107 468.466682 
L 886.595041 465.624391 
L 896.842975 462.782099 
L 907.090909 459.939808 
L 917.338843 457.097516 
L 927.586777 454.255225 
L 937.834711 451.412933 
L 948.082645 448.570642 
L 958.330579 445.72835 
L 968.578512 442.886059 
L 978.826446 440.043767 
L 989.07438 437.201476 
L 999.322314 434.359184 
L 1009.570248 431.516893 
L 1019.818182 428.674601 
L 1030.066116 425.83231 
L 1040.31405 422.990018 
L 1050.561983 420.147726 
L 1060.809917 417.305435 
L 1071.057851 414.463143 
L 1081.305785 411.620852 
L 1091.553719 408.77856 
L 1101.801653 405.936269 
L 1112.049587 403.093977 
L 1122.297521 400.251686 
L 1132.545455 397.409394 
L 1142.793388 394.567103 
L 1153.041322 391.724811 
L 1163.289256 388.88252 
L 1173.53719 386.040228 
L 1183.785124 383.197937 
L 1194.033058 380.355645 
L 1204.280992 377.513354 
L 1214.528926 374.671062 
L 1224.77686 371.82877 
L 1235.024793 368.986479 
L 1245.272727 366.144187 
" clip-path="url(#p176d49f99e)" style="fill: none; stroke-dasharray: 8.325,3.6; stroke-dashoffset: 0; stroke: #ff7f0e; stroke-width: 2.25"/>
   </g>
   <g id="line2d_20">
    <path d="M 230.727273 688.813161 
L 240.975207 685.623732 
L 251.22314 682.434302 
L 261.471074 679.244873 
L 271.719008 676.055443 
L 281.966942 672.866014 
L 292.214876 669.676584 
L 302.46281 666.487154 
L 312.710744 663.297725 
L 322.958678 660.108295 
L 333.206612 656.918866 
L 343.454545 653.729436 
L 353.702479 650.540007 
L 363.950413 647.350577 
L 374.198347 644.161148 
L 384.446281 640.971718 
L 394.694215 637.782289 
L 404.942149 634.592859 
L 415.190083 631.40343 
L 425.438017 628.214 
L 435.68595 625.024571 
L 445.933884 621.835141 
L 456.181818 618.645711 
L 466.429752 615.456282 
L 476.677686 612.266852 
L 486.92562 609.077423 
L 497.173554 605.887993 
L 507.421488 602.698564 
L 517.669421 599.509134 
L 527.917355 596.319705 
L 538.165289 593.130275 
L 548.413223 589.940846 
L 558.661157 586.751416 
L 568.909091 583.561987 
L 579.157025 580.372557 
L 589.404959 577.183128 
L 599.652893 573.993698 
L 609.900826 570.804269 
L 620.14876 567.614839 
L 630.396694 564.425409 
L 640.644628 561.23598 
L 650.892562 558.04655 
L 661.140496 554.857121 
L 671.38843 551.667691 
L 681.636364 548.478262 
L 691.884298 545.288832 
L 702.132231 542.099403 
L 712.380165 538.909973 
L 722.628099 535.720544 
L 732.876033 532.531114 
L 743.123967 529.341685 
L 753.371901 526.152255 
L 763.619835 522.962826 
L 773.867769 519.773396 
L 784.115702 516.583966 
L 794.363636 513.394537 
L 804.61157 510.205107 
L 814.859504 507.015678 
L 825.107438 503.826248 
L 835.355372 500.636819 
L 845.603306 497.447389 
L 855.85124 494.25796 
L 866.099174 491.06853 
L 876.347107 487.879101 
L 886.595041 484.689671 
L 896.842975 481.500242 
L 907.090909 478.310812 
L 917.338843 475.121383 
L 927.586777 471.931953 
L 937.834711 468.742523 
L 948.082645 465.553094 
L 958.330579 462.363664 
L 968.578512 459.174235 
L 978.826446 455.984805 
L 989.07438 452.795376 
L 999.322314 449.605946 
L 1009.570248 446.416517 
L 1019.818182 443.227087 
L 1030.066116 440.037658 
L 1040.31405 436.848228 
L 1050.561983 433.658799 
L 1060.809917 430.469369 
L 1071.057851 427.27994 
L 1081.305785 424.09051 
L 1091.553719 420.90108 
L 1101.801653 417.711651 
L 1112.049587 414.522221 
L 1122.297521 411.332792 
L 1132.545455 408.143362 
L 1142.793388 404.953933 
L 1153.041322 401.764503 
L 1163.289256 398.575074 
L 1173.53719 395.385644 
L 1183.785124 392.196215 
L 1194.033058 389.006785 
L 1204.280992 385.817356 
L 1214.528926 382.627926 
L 1224.77686 379.438497 
L 1235.024793 376.249067 
L 1245.272727 373.059637 
" clip-path="url(#p176d49f99e)" style="fill: none; stroke-dasharray: 8.325,3.6; stroke-dashoffset: 0; stroke: #2ca02c; stroke-width: 2.25"/>
   </g>
   <g id="line2d_21">
    <path d="M 230.727273 597.238153 
L 240.975207 595.170552 
L 251.22314 593.102951 
L 261.471074 591.03535 
L 271.719008 588.967749 
L 281.966942 586.900147 
L 292.214876 584.832546 
L 302.46281 582.764945 
L 312.710744 580.697344 
L 322.958678 578.629743 
L 333.206612 576.562141 
L 343.454545 574.49454 
L 353.702479 572.426939 
L 363.950413 570.359338 
L 374.198347 568.291737 
L 384.446281 566.224135 
L 394.694215 564.156534 
L 404.942149 562.088933 
L 415.190083 560.021332 
L 425.438017 557.953731 
L 435.68595 555.886129 
L 445.933884 553.818528 
L 456.181818 551.750927 
L 466.429752 549.683326 
L 476.677686 547.615724 
L 486.92562 545.548123 
L 497.173554 543.480522 
L 507.421488 541.412921 
L 517.669421 539.34532 
L 527.917355 537.277718 
L 538.165289 535.210117 
L 548.413223 533.142516 
L 558.661157 531.074915 
L 568.909091 529.007314 
L 579.157025 526.939712 
L 589.404959 524.872111 
L 599.652893 522.80451 
L 609.900826 520.736909 
L 620.14876 518.669308 
L 630.396694 516.601706 
L 640.644628 514.534105 
L 650.892562 512.466504 
L 661.140496 510.398903 
L 671.38843 508.331302 
L 681.636364 506.2637 
L 691.884298 504.196099 
L 702.132231 502.128498 
L 712.380165 500.060897 
L 722.628099 497.993296 
L 732.876033 495.925694 
L 743.123967 493.858093 
L 753.371901 491.790492 
L 763.619835 489.722891 
L 773.867769 487.65529 
L 784.115702 485.587688 
L 794.363636 483.520087 
L 804.61157 481.452486 
L 814.859504 479.384885 
L 825.107438 477.317283 
L 835.355372 475.249682 
L 845.603306 473.182081 
L 855.85124 471.11448 
L 866.099174 469.046879 
L 876.347107 466.979277 
L 886.595041 464.911676 
L 896.842975 462.844075 
L 907.090909 460.776474 
L 917.338843 458.708873 
L 927.586777 456.641271 
L 937.834711 454.57367 
L 948.082645 452.506069 
L 958.330579 450.438468 
L 968.578512 448.370867 
L 978.826446 446.303265 
L 989.07438 444.235664 
L 999.322314 442.168063 
L 1009.570248 440.100462 
L 1019.818182 438.032861 
L 1030.066116 435.965259 
L 1040.31405 433.897658 
L 1050.561983 431.830057 
L 1060.809917 429.762456 
L 1071.057851 427.694855 
L 1081.305785 425.627253 
L 1091.553719 423.559652 
L 1101.801653 421.492051 
L 1112.049587 419.42445 
L 1122.297521 417.356848 
L 1132.545455 415.289247 
L 1142.793388 413.221646 
L 1153.041322 411.154045 
L 1163.289256 409.086444 
L 1173.53719 407.018842 
L 1183.785124 404.951241 
L 1194.033058 402.88364 
L 1204.280992 400.816039 
L 1214.528926 398.748438 
L 1224.77686 396.680836 
L 1235.024793 394.613235 
L 1245.272727 392.545634 
" clip-path="url(#p176d49f99e)" style="fill: none; stroke-dasharray: 8.325,3.6; stroke-dashoffset: 0; stroke: #d62728; stroke-width: 2.25"/>
   </g>
   <g id="patch_3">
    <path d="M 180 768.96 
L 180 103.68 
" style="fill: none; stroke: #000000; stroke-width: 0.8; stroke-linejoin: miter; stroke-linecap: square"/>
   </g>
   <g id="patch_4">
    <path d="M 1296 768.96 
L 1296 103.68 
" style="fill: none; stroke: #000000; stroke-width: 0.8; stroke-linejoin: miter; stroke-linecap: square"/>
   </g>
   <g id="patch_5">
    <path d="M 180 768.96 
L 1296 768.96 
" style="fill: none; stroke: #000000; stroke-width: 0.8; stroke-linejoin: miter; stroke-linecap: square"/>
   </g>
   <g id="patch_6">
    <path d="M 180 103.68 
L 1296 103.68 
" style="fill: none; stroke: #000000; stroke-width: 0.8; stroke-linejoin: miter; stroke-linecap: square"/>
   </g>
   <g id="legend_1">
    <g id="patch_7">
     <path d="M 1177.576562 171.505 
L 1289 171.505 
Q 1291 171.505 1291 169.505 
L 1291 110.68 
Q 1291 108.68 1289 108.68 
L 1177.576562 108.68 
Q 1175.576562 108.68 1175.576562 110.68 
L 1175.576562 169.505 
Q 1175.576562 171.505 1177.576562 171.505 
z
" style="fill: #ffffff; opacity: 0.8; stroke: #cccccc; stroke-linejoin: miter"/>
    </g>
    <g id="line2d_22">
     <path d="M 1179.576562 116.778437 
L 1189.576562 116.778437 
L 1199.576562 116.778437 
" style="fill: none; stroke-dasharray: 1.5,2.475; stroke-dashoffset: 0; stroke: #1f77b4; stroke-width: 1.5"/>
    </g>
    <g id="text_16">
     <!-- Completed_Avg -->
     <g transform="translate(1207.576562 120.278437) scale(0.1 -0.1)">
      <defs>
       <path id="DejaVuSans-43" d="M 4122 4306 
L 4122 3641 
Q 3803 3938 3442 4084 
Q 3081 4231 2675 4231 
Q 1875 4231 1450 3742 
Q 1025 3253 1025 2328 
Q 1025 1406 1450 917 
Q 1875 428 2675 428 
Q 3081 428 3442 575 
Q 3803 722 4122 1019 
L 4122 359 
Q 3791 134 3420 21 
Q 3050 -91 2638 -91 
Q 1578 -91 968 557 
Q 359 1206 359 2328 
Q 359 3453 968 4101 
Q 1578 4750 2638 4750 
Q 3056 4750 3426 4639 
Q 3797 4528 4122 4306 
z
" transform="scale(0.015625)"/>
       <path id="DejaVuSans-70" d="M 1159 525 
L 1159 -1331 
L 581 -1331 
L 581 3500 
L 1159 3500 
L 1159 2969 
Q 1341 3281 1617 3432 
Q 1894 3584 2278 3584 
Q 2916 3584 3314 3078 
Q 3713 2572 3713 1747 
Q 3713 922 3314 415 
Q 2916 -91 2278 -91 
Q 1894 -91 1617 61 
Q 1341 213 1159 525 
z
M 3116 1747 
Q 3116 2381 2855 2742 
Q 2594 3103 2138 3103 
Q 1681 3103 1420 2742 
Q 1159 2381 1159 1747 
Q 1159 1113 1420 752 
Q 1681 391 2138 391 
Q 2594 391 2855 752 
Q 3116 1113 3116 1747 
z
" transform="scale(0.015625)"/>
       <path id="DejaVuSans-6c" d="M 603 4863 
L 1178 4863 
L 1178 0 
L 603 0 
L 603 4863 
z
" transform="scale(0.015625)"/>
       <path id="DejaVuSans-64" d="M 2906 2969 
L 2906 4863 
L 3481 4863 
L 3481 0 
L 2906 0 
L 2906 525 
Q 2725 213 2448 61 
Q 2172 -91 1784 -91 
Q 1150 -91 751 415 
Q 353 922 353 1747 
Q 353 2572 751 3078 
Q 1150 3584 1784 3584 
Q 2172 3584 2448 3432 
Q 2725 3281 2906 2969 
z
M 947 1747 
Q 947 1113 1208 752 
Q 1469 391 1925 391 
Q 2381 391 2643 752 
Q 2906 1113 2906 1747 
Q 2906 2381 2643 2742 
Q 2381 3103 1925 3103 
Q 1469 3103 1208 2742 
Q 947 2381 947 1747 
z
" transform="scale(0.015625)"/>
       <path id="DejaVuSans-5f" d="M 3263 -1063 
L 3263 -1509 
L -63 -1509 
L -63 -1063 
L 3263 -1063 
z
" transform="scale(0.015625)"/>
       <path id="DejaVuSans-41" d="M 2188 4044 
L 1331 1722 
L 3047 1722 
L 2188 4044 
z
M 1831 4666 
L 2547 4666 
L 4325 0 
L 3669 0 
L 3244 1197 
L 1141 1197 
L 716 0 
L 50 0 
L 1831 4666 
z
" transform="scale(0.015625)"/>
       <path id="DejaVuSans-76" d="M 191 3500 
L 800 3500 
L 1894 563 
L 2988 3500 
L 3597 3500 
L 2284 0 
L 1503 0 
L 191 3500 
z
" transform="scale(0.015625)"/>
       <path id="DejaVuSans-67" d="M 2906 1791 
Q 2906 2416 2648 2759 
Q 2391 3103 1925 3103 
Q 1463 3103 1205 2759 
Q 947 2416 947 1791 
Q 947 1169 1205 825 
Q 1463 481 1925 481 
Q 2391 481 2648 825 
Q 2906 1169 2906 1791 
z
M 3481 434 
Q 3481 -459 3084 -895 
Q 2688 -1331 1869 -1331 
Q 1566 -1331 1297 -1286 
Q 1028 -1241 775 -1147 
L 775 -588 
Q 1028 -725 1275 -790 
Q 1522 -856 1778 -856 
Q 2344 -856 2625 -561 
Q 2906 -266 2906 331 
L 2906 616 
Q 2728 306 2450 153 
Q 2172 0 1784 0 
Q 1141 0 747 490 
Q 353 981 353 1791 
Q 353 2603 747 3093 
Q 1141 3584 1784 3584 
Q 2172 3584 2450 3431 
Q 2728 3278 2906 2969 
L 2906 3500 
L 3481 3500 
L 3481 434 
z
" transform="scale(0.015625)"/>
      </defs>
      <use xlink:href="#DejaVuSans-43"/>
      <use xlink:href="#DejaVuSans-6f" x="69.824219"/>
      <use xlink:href="#DejaVuSans-6d" x="131.005859"/>
      <use xlink:href="#DejaVuSans-70" x="228.417969"/>
      <use xlink:href="#DejaVuSans-6c" x="291.894531"/>
      <use xlink:href="#DejaVuSans-65" x="319.677734"/>
      <use xlink:href="#DejaVuSans-74" x="381.201172"/>
      <use xlink:href="#DejaVuSans-65" x="420.410156"/>
      <use xlink:href="#DejaVuSans-64" x="481.933594"/>
      <use xlink:href="#DejaVuSans-5f" x="545.410156"/>
      <use xlink:href="#DejaVuSans-41" x="595.410156"/>
      <use xlink:href="#DejaVuSans-76" x="657.943359"/>
      <use xlink:href="#DejaVuSans-67" x="717.123047"/>
     </g>
    </g>
    <g id="line2d_23">
     <path d="M 1179.576562 131.734687 
L 1189.576562 131.734687 
L 1199.576562 131.734687 
" style="fill: none; stroke-dasharray: 1.5,2.475; stroke-dashoffset: 0; stroke: #ff7f0e; stroke-width: 1.5"/>
    </g>
    <g id="text_17">
     <!-- Failed_Avg -->
     <g transform="translate(1207.576562 135.234687) scale(0.1 -0.1)">
      <defs>
       <path id="DejaVuSans-46" d="M 628 4666 
L 3309 4666 
L 3309 4134 
L 1259 4134 
L 1259 2759 
L 3109 2759 
L 3109 2228 
L 1259 2228 
L 1259 0 
L 628 0 
L 628 4666 
z
" transform="scale(0.015625)"/>
      </defs>
      <use xlink:href="#DejaVuSans-46"/>
      <use xlink:href="#DejaVuSans-61" x="48.394531"/>
      <use xlink:href="#DejaVuSans-69" x="109.673828"/>
      <use xlink:href="#DejaVuSans-6c" x="137.457031"/>
      <use xlink:href="#DejaVuSans-65" x="165.240234"/>
      <use xlink:href="#DejaVuSans-64" x="226.763672"/>
      <use xlink:href="#DejaVuSans-5f" x="290.240234"/>
      <use xlink:href="#DejaVuSans-41" x="340.240234"/>
      <use xlink:href="#DejaVuSans-76" x="402.773438"/>
      <use xlink:href="#DejaVuSans-67" x="461.953125"/>
     </g>
    </g>
    <g id="line2d_24">
     <path d="M 1179.576562 146.690938 
L 1189.576562 146.690938 
L 1199.576562 146.690938 
" style="fill: none; stroke-dasharray: 1.5,2.475; stroke-dashoffset: 0; stroke: #2ca02c; stroke-width: 1.5"/>
    </g>
    <g id="text_18">
     <!-- Terminated_Avg -->
     <g transform="translate(1207.576562 150.190938) scale(0.1 -0.1)">
      <defs>
       <path id="DejaVuSans-54" d="M -19 4666 
L 3928 4666 
L 3928 4134 
L 2272 4134 
L 2272 0 
L 1638 0 
L 1638 4134 
L -19 4134 
L -19 4666 
z
" transform="scale(0.015625)"/>
      </defs>
      <use xlink:href="#DejaVuSans-54"/>
      <use xlink:href="#DejaVuSans-65" x="44.083984"/>
      <use xlink:href="#DejaVuSans-72" x="105.607422"/>
      <use xlink:href="#DejaVuSans-6d" x="144.970703"/>
      <use xlink:href="#DejaVuSans-69" x="242.382812"/>
      <use xlink:href="#DejaVuSans-6e" x="270.166016"/>
      <use xlink:href="#DejaVuSans-61" x="333.544922"/>
      <use xlink:href="#DejaVuSans-74" x="394.824219"/>
      <use xlink:href="#DejaVuSans-65" x="434.033203"/>
      <use xlink:href="#DejaVuSans-64" x="495.556641"/>
      <use xlink:href="#DejaVuSans-5f" x="559.033203"/>
      <use xlink:href="#DejaVuSans-41" x="609.033203"/>
      <use xlink:href="#DejaVuSans-76" x="671.566406"/>
      <use xlink:href="#DejaVuSans-67" x="730.746094"/>
     </g>
    </g>
    <g id="line2d_25">
     <path d="M 1179.576562 161.647187 
L 1189.576562 161.647187 
L 1199.576562 161.647187 
" style="fill: none; stroke-dasharray: 1.5,2.475; stroke-dashoffset: 0; stroke: #d62728; stroke-width: 1.5"/>
    </g>
    <g id="text_19">
     <!-- All_Avg -->
     <g transform="translate(1207.576562 165.147187) scale(0.1 -0.1)">
      <use xlink:href="#DejaVuSans-41"/>
      <use xlink:href="#DejaVuSans-6c" x="68.408203"/>
      <use xlink:href="#DejaVuSans-6c" x="96.191406"/>
      <use xlink:href="#DejaVuSans-5f" x="123.974609"/>
      <use xlink:href="#DejaVuSans-41" x="173.974609"/>
      <use xlink:href="#DejaVuSans-76" x="236.507812"/>
      <use xlink:href="#DejaVuSans-67" x="295.6875"/>
     </g>
    </g>
   </g>
  </g>
 </g>
 <defs>
  <clipPath id="p176d49f99e">
   <rect x="180" y="103.68" width="1116" height="665.28"/>
  </clipPath>
 </defs>
</svg>
