<?xml version="1.0" encoding="utf-8" standalone="no"?>
<!DOCTYPE svg PUBLIC "-//W3C//DTD SVG 1.1//EN"
  "http://www.w3.org/Graphics/SVG/1.1/DTD/svg11.dtd">
<svg xmlns:xlink="http://www.w3.org/1999/xlink" width="1440pt" height="864pt" viewBox="0 0 1440 864" xmlns="http://www.w3.org/2000/svg" version="1.1">
 <metadata>
  <rdf:RDF xmlns:dc="http://purl.org/dc/elements/1.1/" xmlns:cc="http://creativecommons.org/ns#" xmlns:rdf="http://www.w3.org/1999/02/22-rdf-syntax-ns#">
   <cc:Work>
    <dc:type rdf:resource="http://purl.org/dc/dcmitype/StillImage"/>
    <dc:date>2022-01-20T11:39:08.527660</dc:date>
    <dc:format>image/svg+xml</dc:format>
    <dc:creator>
     <cc:Agent>
      <dc:title>Matplotlib v3.5.0, https://matplotlib.org/</dc:title>
     </cc:Agent>
    </dc:creator>
   </cc:Work>
  </rdf:RDF>
 </metadata>
 <defs>
  <style type="text/css">*{stroke-linejoin: round; stroke-linecap: butt}</style>
 </defs>
 <g id="figure_1">
  <g id="patch_1">
   <path d="M 0 864 
L 1440 864 
L 1440 0 
L 0 0 
L 0 864 
z
" style="fill: none"/>
  </g>
  <g id="axes_1">
   <g id="patch_2">
    <path d="M 180 756 
L 1296 756 
L 1296 103.68 
L 180 103.68 
z
" style="fill: #ffffff"/>
   </g>
   <g id="PathCollection_1">
    <defs>
     <path id="m98b218810e" d="M 0 3 
C 0.795609 3 1.55874 2.683901 2.12132 2.12132 
C 2.683901 1.55874 3 0.795609 3 0 
C 3 -0.795609 2.683901 -1.55874 2.12132 -2.12132 
C 1.55874 -2.683901 0.795609 -3 0 -3 
C -0.795609 -3 -1.55874 -2.683901 -2.12132 -2.12132 
C -2.683901 -1.55874 -3 -0.795609 -3 0 
C -3 0.795609 -2.683901 1.55874 -2.12132 2.12132 
C -1.55874 2.683901 -0.795609 3 0 3 
z
" style="stroke: #1f77b4; stroke-opacity: 0.8"/>
    </defs>
    <g clip-path="url(#pa473ef381b)">
     <use xlink:href="#m98b218810e" x="230.727273" y="566.818698" style="fill: #1f77b4; fill-opacity: 0.8; stroke: #1f77b4; stroke-opacity: 0.8"/>
     <use xlink:href="#m98b218810e" x="433.636364" y="489.994359" style="fill: #1f77b4; fill-opacity: 0.8; stroke: #1f77b4; stroke-opacity: 0.8"/>
     <use xlink:href="#m98b218810e" x="636.545455" y="510.27475" style="fill: #1f77b4; fill-opacity: 0.8; stroke: #1f77b4; stroke-opacity: 0.8"/>
     <use xlink:href="#m98b218810e" x="839.454545" y="473.999492" style="fill: #1f77b4; fill-opacity: 0.8; stroke: #1f77b4; stroke-opacity: 0.8"/>
     <use xlink:href="#m98b218810e" x="1042.363636" y="412.73297" style="fill: #1f77b4; fill-opacity: 0.8; stroke: #1f77b4; stroke-opacity: 0.8"/>
     <use xlink:href="#m98b218810e" x="1245.272727" y="381.229012" style="fill: #1f77b4; fill-opacity: 0.8; stroke: #1f77b4; stroke-opacity: 0.8"/>
    </g>
   </g>
   <g id="PolyCollection_1">
    <path d="M 230.727273 517.517435 
L 230.727273 607.816529 
L 240.975207 605.353353 
L 251.22314 602.890176 
L 261.471074 600.427 
L 271.719008 597.963824 
L 281.966942 595.500648 
L 292.214876 593.037471 
L 302.46281 590.575004 
L 312.710744 588.115683 
L 322.958678 585.656361 
L 333.206612 583.19704 
L 343.454545 580.737718 
L 353.702479 578.278397 
L 363.950413 575.929181 
L 374.198347 573.589875 
L 384.446281 571.248726 
L 394.694215 568.906109 
L 404.942149 566.563492 
L 415.190083 564.220875 
L 425.438017 561.878258 
L 435.68595 559.535641 
L 445.933884 557.193024 
L 456.181818 554.916113 
L 466.429752 552.530005 
L 476.677686 550.174962 
L 486.92562 547.837894 
L 497.173554 545.500826 
L 507.421488 543.163759 
L 517.669421 540.826691 
L 527.917355 538.485165 
L 538.165289 536.14146 
L 548.413223 533.797755 
L 558.661157 531.454049 
L 568.909091 529.110344 
L 579.157025 526.766639 
L 589.404959 524.290768 
L 599.652893 521.80583 
L 609.900826 519.395445 
L 620.14876 517.13464 
L 630.396694 514.873835 
L 640.644628 512.61303 
L 650.892562 510.391256 
L 661.140496 508.099904 
L 671.38843 505.841307 
L 681.636364 503.994432 
L 691.884298 501.99969 
L 702.132231 499.761111 
L 712.380165 497.869453 
L 722.628099 496.021213 
L 732.876033 493.966613 
L 743.123967 492.015289 
L 753.371901 489.745377 
L 763.619835 488.061859 
L 773.867769 486.16368 
L 784.115702 484.60261 
L 794.363636 483.07695 
L 804.61157 481.557839 
L 814.859504 479.995567 
L 825.107438 478.534303 
L 835.355372 477.531538 
L 845.603306 476.201463 
L 855.85124 474.856382 
L 866.099174 473.508926 
L 876.347107 472.552691 
L 886.595041 471.327804 
L 896.842975 469.819085 
L 907.090909 468.310366 
L 917.338843 466.801647 
L 927.586777 465.293012 
L 937.834711 463.966446 
L 948.082645 462.874473 
L 958.330579 461.784629 
L 968.578512 460.694786 
L 978.826446 459.604942 
L 989.07438 458.515098 
L 999.322314 457.425254 
L 1009.570248 456.33541 
L 1019.818182 455.245566 
L 1030.066116 454.155723 
L 1040.31405 453.065879 
L 1050.561983 451.96738 
L 1060.809917 450.866718 
L 1071.057851 449.76691 
L 1081.305785 448.674638 
L 1091.553719 447.582366 
L 1101.801653 446.490094 
L 1112.049587 445.397822 
L 1122.297521 444.263648 
L 1132.545455 443.04449 
L 1142.793388 441.825332 
L 1153.041322 440.606174 
L 1163.289256 439.387016 
L 1173.53719 438.167858 
L 1183.785124 436.9487 
L 1194.033058 435.729542 
L 1204.280992 434.510384 
L 1214.528926 433.291225 
L 1224.77686 432.072067 
L 1235.024793 430.852909 
L 1245.272727 429.633751 
L 1245.272727 371.265161 
L 1245.272727 371.265161 
L 1235.024793 373.199899 
L 1224.77686 375.675219 
L 1214.528926 378.15054 
L 1204.280992 380.625861 
L 1194.033058 383.101181 
L 1183.785124 385.21609 
L 1173.53719 387.111566 
L 1163.289256 389.420081 
L 1153.041322 391.026097 
L 1142.793388 392.632112 
L 1132.545455 394.481212 
L 1122.297521 396.33429 
L 1112.049587 397.927811 
L 1101.801653 400.213607 
L 1091.553719 402.528803 
L 1081.305785 403.997092 
L 1071.057851 405.603665 
L 1060.809917 407.158477 
L 1050.561983 408.748568 
L 1040.31405 410.121563 
L 1030.066116 411.503388 
L 1019.818182 412.975346 
L 1009.570248 414.417466 
L 999.322314 415.773837 
L 989.07438 417.130555 
L 978.826446 418.620935 
L 968.578512 420.215905 
L 958.330579 421.786969 
L 948.082645 423.370039 
L 937.834711 425.162388 
L 927.586777 426.95399 
L 917.338843 428.745592 
L 907.090909 430.537194 
L 896.842975 432.328796 
L 886.595041 434.120398 
L 876.347107 435.912 
L 866.099174 437.703602 
L 855.85124 439.495205 
L 845.603306 441.286807 
L 835.355372 442.719866 
L 825.107438 444.066042 
L 814.859504 445.412218 
L 804.61157 446.758394 
L 794.363636 448.106298 
L 784.115702 449.459189 
L 773.867769 450.805458 
L 763.619835 452.438316 
L 753.371901 454.190859 
L 743.123967 455.668272 
L 732.876033 456.96551 
L 722.628099 458.335558 
L 712.380165 459.889428 
L 702.132231 461.271142 
L 691.884298 462.652855 
L 681.636364 464.034568 
L 671.38843 465.399368 
L 661.140496 466.648611 
L 650.892562 467.921714 
L 640.644628 469.194818 
L 630.396694 470.467921 
L 620.14876 471.741024 
L 609.900826 473.014128 
L 599.652893 474.287231 
L 589.404959 475.560334 
L 579.157025 476.833438 
L 568.909091 478.102933 
L 558.661157 479.370804 
L 548.413223 480.643495 
L 538.165289 481.918268 
L 527.917355 483.193041 
L 517.669421 484.467813 
L 507.421488 485.742586 
L 497.173554 487.017358 
L 486.92562 488.321128 
L 476.677686 489.659331 
L 466.429752 490.997535 
L 456.181818 492.244309 
L 445.933884 493.376186 
L 435.68595 494.36966 
L 425.438017 495.659341 
L 415.190083 496.941811 
L 404.942149 498.210578 
L 394.694215 499.481911 
L 384.446281 500.769229 
L 374.198347 501.720407 
L 363.950413 502.1441 
L 353.702479 502.567792 
L 343.454545 503.643973 
L 333.206612 504.890238 
L 322.958678 506.263537 
L 312.710744 507.636837 
L 302.46281 509.010137 
L 292.214876 510.376257 
L 281.966942 511.744248 
L 271.719008 513.113698 
L 261.471074 514.477267 
L 251.22314 515.840836 
L 240.975207 516.439764 
L 230.727273 517.517435 
z
" clip-path="url(#pa473ef381b)" style="fill: #1f77b4; fill-opacity: 0.15"/>
   </g>
   <g id="PathCollection_2">
    <defs>
     <path id="mf7d2558273" d="M 0 3 
C 0.795609 3 1.55874 2.683901 2.12132 2.12132 
C 2.683901 1.55874 3 0.795609 3 0 
C 3 -0.795609 2.683901 -1.55874 2.12132 -2.12132 
C 1.55874 -2.683901 0.795609 -3 0 -3 
C -0.795609 -3 -1.55874 -2.683901 -2.12132 -2.12132 
C -2.683901 -1.55874 -3 -0.795609 -3 0 
C -3 0.795609 -2.683901 1.55874 -2.12132 2.12132 
C -1.55874 2.683901 -0.795609 3 0 3 
z
" style="stroke: #ff7f0e; stroke-opacity: 0.8"/>
    </defs>
    <g clip-path="url(#pa473ef381b)">
     <use xlink:href="#mf7d2558273" x="230.727273" y="640.183997" style="fill: #ff7f0e; fill-opacity: 0.8; stroke: #ff7f0e; stroke-opacity: 0.8"/>
     <use xlink:href="#mf7d2558273" x="433.636364" y="603.240685" style="fill: #ff7f0e; fill-opacity: 0.8; stroke: #ff7f0e; stroke-opacity: 0.8"/>
     <use xlink:href="#mf7d2558273" x="636.545455" y="594.983766" style="fill: #ff7f0e; fill-opacity: 0.8; stroke: #ff7f0e; stroke-opacity: 0.8"/>
     <use xlink:href="#mf7d2558273" x="839.454545" y="315.006756" style="fill: #ff7f0e; fill-opacity: 0.8; stroke: #ff7f0e; stroke-opacity: 0.8"/>
     <use xlink:href="#mf7d2558273" x="1042.363636" y="475.400438" style="fill: #ff7f0e; fill-opacity: 0.8; stroke: #ff7f0e; stroke-opacity: 0.8"/>
     <use xlink:href="#mf7d2558273" x="1245.272727" y="360.663168" style="fill: #ff7f0e; fill-opacity: 0.8; stroke: #ff7f0e; stroke-opacity: 0.8"/>
    </g>
   </g>
   <g id="PolyCollection_2">
    <path d="M 230.727273 543.344001 
L 230.727273 726.349091 
L 240.975207 720.854126 
L 251.22314 715.35916 
L 261.471074 709.864195 
L 271.719008 704.36923 
L 281.966942 699.326601 
L 292.214876 695.814338 
L 302.46281 692.302075 
L 312.710744 688.789812 
L 322.958678 684.202494 
L 333.206612 680.007538 
L 343.454545 676.498764 
L 353.702479 672.98999 
L 363.950413 669.481216 
L 374.198347 665.972442 
L 384.446281 662.463668 
L 394.694215 658.954894 
L 404.942149 655.44612 
L 415.190083 651.937345 
L 425.438017 648.428571 
L 435.68595 644.919797 
L 445.933884 639.793006 
L 456.181818 636.193152 
L 466.429752 632.984801 
L 476.677686 629.776449 
L 486.92562 626.568098 
L 497.173554 623.359747 
L 507.421488 620.151395 
L 517.669421 613.894624 
L 527.917355 610.467692 
L 538.165289 607.343868 
L 548.413223 604.802192 
L 558.661157 602.504951 
L 568.909091 599.315952 
L 579.157025 597.692936 
L 589.404959 594.484585 
L 599.652893 591.276234 
L 609.900826 588.075918 
L 620.14876 585.531095 
L 630.396694 582.76806 
L 640.644628 580.279298 
L 650.892562 577.790536 
L 661.140496 575.301773 
L 671.38843 572.813011 
L 681.636364 570.324249 
L 691.884298 567.835486 
L 702.132231 565.340346 
L 712.380165 563.394682 
L 722.628099 561.467903 
L 732.876033 559.541124 
L 743.123967 557.586151 
L 753.371901 554.642997 
L 763.619835 551.171619 
L 773.867769 547.751512 
L 784.115702 545.252284 
L 794.363636 542.753056 
L 804.61157 540.255125 
L 814.859504 537.888148 
L 825.107438 535.911034 
L 835.355372 533.93392 
L 845.603306 531.956806 
L 855.85124 529.979692 
L 866.099174 528.002577 
L 876.347107 526.025463 
L 886.595041 524.048349 
L 896.842975 522.071235 
L 907.090909 520.09412 
L 917.338843 518.117006 
L 927.586777 516.139892 
L 937.834711 514.162778 
L 948.082645 512.185664 
L 958.330579 510.208549 
L 968.578512 508.231435 
L 978.826446 506.254321 
L 989.07438 504.277207 
L 999.322314 502.300092 
L 1009.570248 500.322978 
L 1019.818182 498.345864 
L 1030.066116 496.36875 
L 1040.31405 494.391636 
L 1050.561983 492.414521 
L 1060.809917 490.437407 
L 1071.057851 488.460293 
L 1081.305785 486.483179 
L 1091.553719 484.506064 
L 1101.801653 482.52895 
L 1112.049587 480.551836 
L 1122.297521 478.574722 
L 1132.545455 476.597608 
L 1142.793388 474.620493 
L 1153.041322 472.643379 
L 1163.289256 470.666265 
L 1173.53719 468.689151 
L 1183.785124 466.712036 
L 1194.033058 464.734922 
L 1204.280992 462.757808 
L 1214.528926 460.780694 
L 1224.77686 458.80358 
L 1235.024793 456.826465 
L 1245.272727 455.467439 
L 1245.272727 133.330909 
L 1245.272727 133.330909 
L 1235.024793 139.067468 
L 1224.77686 144.804026 
L 1214.528926 150.369573 
L 1204.280992 155.843937 
L 1194.033058 161.318301 
L 1183.785124 167.077101 
L 1173.53719 172.55844 
L 1163.289256 177.902816 
L 1153.041322 183.247192 
L 1142.793388 188.690123 
L 1132.545455 194.164487 
L 1122.297521 199.638852 
L 1112.049587 205.113216 
L 1101.801653 210.58758 
L 1091.553719 216.061945 
L 1081.305785 221.536309 
L 1071.057851 227.010673 
L 1060.809917 232.485038 
L 1050.561983 237.959402 
L 1040.31405 243.433766 
L 1030.066116 248.908131 
L 1019.818182 254.382495 
L 1009.570248 259.856859 
L 999.322314 265.331224 
L 989.07438 270.805588 
L 978.826446 276.279952 
L 968.578512 281.754317 
L 958.330579 287.228681 
L 948.082645 292.703045 
L 937.834711 298.17741 
L 927.586777 303.651774 
L 917.338843 309.126138 
L 907.090909 314.600503 
L 896.842975 320.074867 
L 886.595041 326.780157 
L 876.347107 334.047973 
L 866.099174 340.774972 
L 855.85124 346.472448 
L 845.603306 347.446688 
L 835.355372 352.921053 
L 825.107438 358.395417 
L 814.859504 363.846564 
L 804.61157 369.344146 
L 794.363636 374.81851 
L 784.115702 380.292874 
L 773.867769 385.767239 
L 763.619835 391.241603 
L 753.371901 396.715967 
L 743.123967 399.770181 
L 732.876033 402.230759 
L 722.628099 407.571802 
L 712.380165 412.912845 
L 702.132231 418.253888 
L 691.884298 423.500997 
L 681.636364 427.969059 
L 671.38843 433.225685 
L 661.140496 436.948509 
L 650.892562 438.067797 
L 640.644628 442.506621 
L 630.396694 445.713435 
L 620.14876 448.324353 
L 609.900826 453.417189 
L 599.652893 458.743545 
L 589.404959 461.869039 
L 579.157025 464.196895 
L 568.909091 466.524751 
L 558.661157 468.852607 
L 548.413223 471.180463 
L 538.165289 473.508319 
L 527.917355 475.836176 
L 517.669421 478.164032 
L 507.421488 480.491888 
L 497.173554 482.819744 
L 486.92562 485.1476 
L 476.677686 487.475456 
L 466.429752 489.803312 
L 456.181818 492.131168 
L 445.933884 494.459024 
L 435.68595 496.78688 
L 425.438017 499.114736 
L 415.190083 501.442592 
L 404.942149 503.770448 
L 394.694215 506.098304 
L 384.446281 508.42616 
L 374.198347 510.754016 
L 363.950413 513.081872 
L 353.702479 515.409728 
L 343.454545 517.737584 
L 333.206612 520.065441 
L 322.958678 522.393297 
L 312.710744 524.721153 
L 302.46281 527.049009 
L 292.214876 529.376865 
L 281.966942 531.704721 
L 271.719008 534.032577 
L 261.471074 536.360433 
L 251.22314 538.688289 
L 240.975207 541.016145 
L 230.727273 543.344001 
z
" clip-path="url(#pa473ef381b)" style="fill: #ff7f0e; fill-opacity: 0.15"/>
   </g>
   <g id="PathCollection_3">
    <defs>
     <path id="m7da8eb0047" d="M 0 3 
C 0.795609 3 1.55874 2.683901 2.12132 2.12132 
C 2.683901 1.55874 3 0.795609 3 0 
C 3 -0.795609 2.683901 -1.55874 2.12132 -2.12132 
C 1.55874 -2.683901 0.795609 -3 0 -3 
C -0.795609 -3 -1.55874 -2.683901 -2.12132 -2.12132 
C -2.683901 -1.55874 -3 -0.795609 -3 0 
C -3 0.795609 -2.683901 1.55874 -2.12132 2.12132 
C -1.55874 2.683901 -0.795609 3 0 3 
z
" style="stroke: #2ca02c; stroke-opacity: 0.8"/>
    </defs>
    <g clip-path="url(#pa473ef381b)">
     <use xlink:href="#m7da8eb0047" x="230.727273" y="697.312207" style="fill: #2ca02c; fill-opacity: 0.8; stroke: #2ca02c; stroke-opacity: 0.8"/>
     <use xlink:href="#m7da8eb0047" x="433.636364" y="631.273296" style="fill: #2ca02c; fill-opacity: 0.8; stroke: #2ca02c; stroke-opacity: 0.8"/>
     <use xlink:href="#m7da8eb0047" x="636.545455" y="557.362046" style="fill: #2ca02c; fill-opacity: 0.8; stroke: #2ca02c; stroke-opacity: 0.8"/>
     <use xlink:href="#m7da8eb0047" x="839.454545" y="458.80875" style="fill: #2ca02c; fill-opacity: 0.8; stroke: #2ca02c; stroke-opacity: 0.8"/>
     <use xlink:href="#m7da8eb0047" x="1042.363636" y="407.008911" style="fill: #2ca02c; fill-opacity: 0.8; stroke: #2ca02c; stroke-opacity: 0.8"/>
     <use xlink:href="#m7da8eb0047" x="1245.272727" y="389.015346" style="fill: #2ca02c; fill-opacity: 0.8; stroke: #2ca02c; stroke-opacity: 0.8"/>
    </g>
   </g>
   <g id="PolyCollection_3">
    <path d="M 230.727273 627.155449 
L 230.727273 708.344963 
L 240.975207 704.356742 
L 251.22314 700.368522 
L 261.471074 696.380301 
L 271.719008 692.399945 
L 281.966942 688.479533 
L 292.214876 684.55912 
L 302.46281 680.638708 
L 312.710744 676.718296 
L 322.958678 672.810341 
L 333.206612 669.028904 
L 343.454545 665.247467 
L 353.702479 661.466096 
L 363.950413 657.574294 
L 374.198347 653.772552 
L 384.446281 649.853596 
L 394.694215 645.99881 
L 404.942149 642.555434 
L 415.190083 638.786238 
L 425.438017 635.57605 
L 435.68595 632.106006 
L 445.933884 628.549892 
L 456.181818 625.255756 
L 466.429752 621.541011 
L 476.677686 618.416196 
L 486.92562 615.283376 
L 497.173554 612.155637 
L 507.421488 609.030167 
L 517.669421 605.904698 
L 527.917355 602.779228 
L 538.165289 599.653759 
L 548.413223 596.528289 
L 558.661157 593.40282 
L 568.909091 590.27735 
L 579.157025 587.151881 
L 589.404959 584.026411 
L 599.652893 580.900942 
L 609.900826 577.775472 
L 620.14876 574.650003 
L 630.396694 571.524533 
L 640.644628 568.399064 
L 650.892562 565.273594 
L 661.140496 562.148125 
L 671.38843 559.022655 
L 681.636364 555.897186 
L 691.884298 552.771716 
L 702.132231 549.647473 
L 712.380165 546.523788 
L 722.628099 543.400102 
L 732.876033 540.276417 
L 743.123967 537.152731 
L 753.371901 534.027729 
L 763.619835 530.901914 
L 773.867769 527.7761 
L 784.115702 524.650286 
L 794.363636 521.524472 
L 804.61157 518.398657 
L 814.859504 515.272843 
L 825.107438 512.147029 
L 835.355372 509.021214 
L 845.603306 505.986054 
L 855.85124 502.962035 
L 866.099174 499.840207 
L 876.347107 496.700947 
L 886.595041 493.561686 
L 896.842975 490.422425 
L 907.090909 487.283165 
L 917.338843 484.143904 
L 927.586777 481.00538 
L 937.834711 477.869966 
L 948.082645 474.760257 
L 958.330579 471.655633 
L 968.578512 468.551009 
L 978.826446 465.446385 
L 989.07438 462.341761 
L 999.322314 459.265961 
L 1009.570248 456.237688 
L 1019.818182 453.209415 
L 1030.066116 450.181141 
L 1040.31405 447.152868 
L 1050.561983 444.124873 
L 1060.809917 441.098429 
L 1071.057851 438.083952 
L 1081.305785 435.078288 
L 1091.553719 432.072625 
L 1101.801653 429.066961 
L 1112.049587 426.061297 
L 1122.297521 423.055633 
L 1132.545455 420.196838 
L 1142.793388 417.356541 
L 1153.041322 414.44535 
L 1163.289256 411.373118 
L 1173.53719 408.299329 
L 1183.785124 405.225541 
L 1194.033058 402.149507 
L 1204.280992 399.072311 
L 1214.528926 396.062398 
L 1224.77686 393.11354 
L 1235.024793 390.537583 
L 1245.272727 387.475654 
L 1245.272727 303.867158 
L 1245.272727 303.867158 
L 1235.024793 307.869932 
L 1224.77686 311.872705 
L 1214.528926 315.875478 
L 1204.280992 319.878252 
L 1194.033058 323.881025 
L 1183.785124 327.883798 
L 1173.53719 331.886572 
L 1163.289256 335.889345 
L 1153.041322 339.892118 
L 1142.793388 343.894892 
L 1132.545455 347.897665 
L 1122.297521 351.900438 
L 1112.049587 355.903212 
L 1101.801653 359.905985 
L 1091.553719 363.908758 
L 1081.305785 367.911532 
L 1071.057851 371.914305 
L 1060.809917 375.917078 
L 1050.561983 380.003723 
L 1040.31405 384.098815 
L 1030.066116 388.193907 
L 1019.818182 392.288999 
L 1009.570248 396.384092 
L 999.322314 400.479184 
L 989.07438 404.574276 
L 978.826446 408.669368 
L 968.578512 412.891162 
L 958.330579 417.118482 
L 948.082645 421.345802 
L 937.834711 425.573122 
L 927.586777 429.800443 
L 917.338843 434.027763 
L 907.090909 436.239192 
L 896.842975 439.748998 
L 886.595041 443.000152 
L 876.347107 447.082937 
L 866.099174 451.120846 
L 855.85124 454.853381 
L 845.603306 458.247972 
L 835.355372 462.282416 
L 825.107438 466.627304 
L 814.859504 470.995153 
L 804.61157 475.186012 
L 794.363636 479.244127 
L 784.115702 483.302243 
L 773.867769 487.366477 
L 763.619835 491.030146 
L 753.371901 495.04815 
L 743.123967 498.115517 
L 732.876033 500.80058 
L 722.628099 504.547738 
L 712.380165 508.094216 
L 702.132231 510.629682 
L 691.884298 513.165147 
L 681.636364 515.700612 
L 671.38843 518.236078 
L 661.140496 520.771543 
L 650.892562 523.307009 
L 640.644628 525.842474 
L 630.396694 528.37794 
L 620.14876 530.913405 
L 609.900826 533.448871 
L 599.652893 535.984336 
L 589.404959 538.519802 
L 579.157025 541.055267 
L 568.909091 543.590733 
L 558.661157 546.126198 
L 548.413223 548.661664 
L 538.165289 551.197129 
L 527.917355 553.863224 
L 517.669421 556.532616 
L 507.421488 559.141939 
L 497.173554 561.574214 
L 486.92562 564.006489 
L 476.677686 566.438764 
L 466.429752 568.920804 
L 456.181818 571.452745 
L 445.933884 573.984686 
L 435.68595 576.516627 
L 425.438017 579.048568 
L 415.190083 581.580509 
L 404.942149 584.112451 
L 394.694215 586.644392 
L 384.446281 589.176333 
L 374.198347 591.708274 
L 363.950413 594.240215 
L 353.702479 596.772156 
L 343.454545 599.304097 
L 333.206612 601.836038 
L 322.958678 604.367979 
L 312.710744 606.89992 
L 302.46281 609.431862 
L 292.214876 611.963803 
L 281.966942 614.495744 
L 271.719008 617.027685 
L 261.471074 619.559626 
L 251.22314 622.091567 
L 240.975207 624.623508 
L 230.727273 627.155449 
z
" clip-path="url(#pa473ef381b)" style="fill: #2ca02c; fill-opacity: 0.15"/>
   </g>
   <g id="PathCollection_4">
    <defs>
     <path id="m61418e91db" d="M 0 3 
C 0.795609 3 1.55874 2.683901 2.12132 2.12132 
C 2.683901 1.55874 3 0.795609 3 0 
C 3 -0.795609 2.683901 -1.55874 2.12132 -2.12132 
C 1.55874 -2.683901 0.795609 -3 0 -3 
C -0.795609 -3 -1.55874 -2.683901 -2.12132 -2.12132 
C -2.683901 -1.55874 -3 -0.795609 -3 0 
C -3 0.795609 -2.683901 1.55874 -2.12132 2.12132 
C -1.55874 2.683901 -0.795609 3 0 3 
z
" style="stroke: #d62728; stroke-opacity: 0.8"/>
    </defs>
    <g clip-path="url(#pa473ef381b)">
     <use xlink:href="#m61418e91db" x="230.727273" y="603.421028" style="fill: #d62728; fill-opacity: 0.8; stroke: #d62728; stroke-opacity: 0.8"/>
     <use xlink:href="#m61418e91db" x="433.636364" y="525.187867" style="fill: #d62728; fill-opacity: 0.8; stroke: #d62728; stroke-opacity: 0.8"/>
     <use xlink:href="#m61418e91db" x="636.545455" y="524.641318" style="fill: #d62728; fill-opacity: 0.8; stroke: #d62728; stroke-opacity: 0.8"/>
     <use xlink:href="#m61418e91db" x="839.454545" y="465.719774" style="fill: #d62728; fill-opacity: 0.8; stroke: #d62728; stroke-opacity: 0.8"/>
     <use xlink:href="#m61418e91db" x="1042.363636" y="412.642548" style="fill: #d62728; fill-opacity: 0.8; stroke: #d62728; stroke-opacity: 0.8"/>
     <use xlink:href="#m61418e91db" x="1245.272727" y="382.866261" style="fill: #d62728; fill-opacity: 0.8; stroke: #d62728; stroke-opacity: 0.8"/>
    </g>
   </g>
   <g id="PolyCollection_4">
    <path d="M 230.727273 562.17415 
L 230.727273 620.214844 
L 240.975207 617.6943 
L 251.22314 615.173756 
L 261.471074 612.653213 
L 271.719008 610.132669 
L 281.966942 607.612125 
L 292.214876 605.091582 
L 302.46281 602.571038 
L 312.710744 600.063739 
L 322.958678 597.676954 
L 333.206612 595.290168 
L 343.454545 592.903383 
L 353.702479 590.516597 
L 363.950413 588.129812 
L 374.198347 585.743026 
L 384.446281 583.356241 
L 394.694215 580.903513 
L 404.942149 578.40912 
L 415.190083 575.914727 
L 425.438017 573.420334 
L 435.68595 570.923836 
L 445.933884 568.422096 
L 456.181818 565.920356 
L 466.429752 563.299232 
L 476.677686 560.707981 
L 486.92562 558.292331 
L 497.173554 555.87668 
L 507.421488 553.433405 
L 517.669421 550.88002 
L 527.917355 548.316648 
L 538.165289 545.753276 
L 548.413223 543.189904 
L 558.661157 540.626532 
L 568.909091 538.066108 
L 579.157025 535.666305 
L 589.404959 533.266502 
L 599.652893 530.864471 
L 609.900826 528.461684 
L 620.14876 526.061315 
L 630.396694 523.929354 
L 640.644628 521.542812 
L 650.892562 518.969794 
L 661.140496 516.459839 
L 671.38843 513.905362 
L 681.636364 511.204607 
L 691.884298 508.573134 
L 702.132231 505.803755 
L 712.380165 503.14533 
L 722.628099 500.324828 
L 732.876033 497.945821 
L 743.123967 495.668672 
L 753.371901 493.391524 
L 763.619835 491.114376 
L 773.867769 488.837227 
L 784.115702 486.560079 
L 794.363636 484.282931 
L 804.61157 482.254257 
L 814.859504 480.250317 
L 825.107438 478.059403 
L 835.355372 475.922575 
L 845.603306 473.572175 
L 855.85124 471.222863 
L 866.099174 468.869192 
L 876.347107 466.665521 
L 886.595041 464.471362 
L 896.842975 462.277233 
L 907.090909 460.083112 
L 917.338843 457.946248 
L 927.586777 456.107006 
L 937.834711 454.310464 
L 948.082645 452.088937 
L 958.330579 449.710578 
L 968.578512 447.703239 
L 978.826446 445.794333 
L 989.07438 443.818755 
L 999.322314 441.837449 
L 1009.570248 439.84241 
L 1019.818182 437.659157 
L 1030.066116 435.475903 
L 1040.31405 433.387322 
L 1050.561983 431.50439 
L 1060.809917 429.621458 
L 1071.057851 427.722272 
L 1081.305785 425.67679 
L 1091.553719 423.631308 
L 1101.801653 421.585826 
L 1112.049587 419.540344 
L 1122.297521 417.494863 
L 1132.545455 415.449381 
L 1142.793388 413.403899 
L 1153.041322 411.358417 
L 1163.289256 409.312935 
L 1173.53719 407.264047 
L 1183.785124 405.214106 
L 1194.033058 403.164165 
L 1204.280992 401.114223 
L 1214.528926 399.064282 
L 1224.77686 397.014341 
L 1235.024793 395.002245 
L 1245.272727 393.192285 
L 1245.272727 357.752566 
L 1245.272727 357.752566 
L 1235.024793 360.070769 
L 1224.77686 362.388972 
L 1214.528926 365.127918 
L 1204.280992 367.831179 
L 1194.033058 370.454014 
L 1183.785124 373.271296 
L 1173.53719 375.901326 
L 1163.289256 378.596805 
L 1153.041322 381.291171 
L 1142.793388 383.951627 
L 1132.545455 386.779879 
L 1122.297521 389.608131 
L 1112.049587 392.371108 
L 1101.801653 394.661285 
L 1091.553719 396.951462 
L 1081.305785 399.733523 
L 1071.057851 402.587819 
L 1060.809917 405.437204 
L 1050.561983 408.279375 
L 1040.31405 410.938981 
L 1030.066116 413.20597 
L 1019.818182 415.472958 
L 1009.570248 417.584835 
L 999.322314 419.684709 
L 989.07438 422.272575 
L 978.826446 424.549655 
L 968.578512 426.814021 
L 958.330579 429.078387 
L 948.082645 431.341876 
L 937.834711 433.607118 
L 927.586777 435.871483 
L 917.338843 437.999471 
L 907.090909 440.104128 
L 896.842975 442.0512 
L 886.595041 443.870176 
L 876.347107 445.689677 
L 866.099174 447.77107 
L 855.85124 449.625529 
L 845.603306 451.915706 
L 835.355372 453.855926 
L 825.107438 455.660432 
L 814.859504 457.464938 
L 804.61157 459.452109 
L 794.363636 461.475352 
L 784.115702 463.590109 
L 773.867769 465.735691 
L 763.619835 467.648758 
L 753.371901 469.487624 
L 743.123967 471.326491 
L 732.876033 473.165358 
L 722.628099 475.004224 
L 712.380165 476.922405 
L 702.132231 478.953552 
L 691.884298 480.82931 
L 681.636364 482.715449 
L 671.38843 484.578164 
L 661.140496 486.450819 
L 650.892562 488.323474 
L 640.644628 490.196128 
L 630.396694 492.072017 
L 620.14876 493.966541 
L 609.900826 495.78429 
L 599.652893 497.601639 
L 589.404959 499.418987 
L 579.157025 501.236336 
L 568.909091 503.053684 
L 558.661157 504.871033 
L 548.413223 506.688382 
L 538.165289 508.50573 
L 527.917355 510.323079 
L 517.669421 512.140428 
L 507.421488 513.935635 
L 497.173554 515.722443 
L 486.92562 517.509252 
L 476.677686 519.29606 
L 466.429752 521.082868 
L 456.181818 522.869676 
L 445.933884 524.656485 
L 435.68595 526.491262 
L 425.438017 528.331359 
L 415.190083 530.170226 
L 404.942149 532.009092 
L 394.694215 533.847959 
L 384.446281 535.686826 
L 374.198347 537.525692 
L 363.950413 539.344373 
L 353.702479 541.082309 
L 343.454545 542.820245 
L 333.206612 544.558181 
L 322.958678 546.296116 
L 312.710744 548.034052 
L 302.46281 549.771988 
L 292.214876 551.509924 
L 281.966942 553.24786 
L 271.719008 555.032225 
L 261.471074 556.819033 
L 251.22314 558.605841 
L 240.975207 560.392649 
L 230.727273 562.17415 
z
" clip-path="url(#pa473ef381b)" style="fill: #d62728; fill-opacity: 0.15"/>
   </g>
   <g id="matplotlib.axis_1">
    <g id="xtick_1">
     <g id="line2d_1">
      <defs>
       <path id="m37b5824620" d="M 0 0 
L 0 3.5 
" style="stroke: #000000; stroke-width: 0.8"/>
      </defs>
      <g>
       <use xlink:href="#m37b5824620" x="230.727273" y="756" style="stroke: #000000; stroke-width: 0.8"/>
      </g>
     </g>
     <g id="text_1">
      <!-- 6 -->
      <g transform="translate(227.546023 770.598438)scale(0.1 -0.1)">
       <defs>
        <path id="DejaVuSans-36" d="M 2113 2584 
Q 1688 2584 1439 2293 
Q 1191 2003 1191 1497 
Q 1191 994 1439 701 
Q 1688 409 2113 409 
Q 2538 409 2786 701 
Q 3034 994 3034 1497 
Q 3034 2003 2786 2293 
Q 2538 2584 2113 2584 
z
M 3366 4563 
L 3366 3988 
Q 3128 4100 2886 4159 
Q 2644 4219 2406 4219 
Q 1781 4219 1451 3797 
Q 1122 3375 1075 2522 
Q 1259 2794 1537 2939 
Q 1816 3084 2150 3084 
Q 2853 3084 3261 2657 
Q 3669 2231 3669 1497 
Q 3669 778 3244 343 
Q 2819 -91 2113 -91 
Q 1303 -91 875 529 
Q 447 1150 447 2328 
Q 447 3434 972 4092 
Q 1497 4750 2381 4750 
Q 2619 4750 2861 4703 
Q 3103 4656 3366 4563 
z
" transform="scale(0.015625)"/>
       </defs>
       <use xlink:href="#DejaVuSans-36"/>
      </g>
     </g>
    </g>
    <g id="xtick_2">
     <g id="line2d_2">
      <g>
       <use xlink:href="#m37b5824620" x="433.636364" y="756" style="stroke: #000000; stroke-width: 0.8"/>
      </g>
     </g>
     <g id="text_2">
      <!-- 9 -->
      <g transform="translate(430.455114 770.598438)scale(0.1 -0.1)">
       <defs>
        <path id="DejaVuSans-39" d="M 703 97 
L 703 672 
Q 941 559 1184 500 
Q 1428 441 1663 441 
Q 2288 441 2617 861 
Q 2947 1281 2994 2138 
Q 2813 1869 2534 1725 
Q 2256 1581 1919 1581 
Q 1219 1581 811 2004 
Q 403 2428 403 3163 
Q 403 3881 828 4315 
Q 1253 4750 1959 4750 
Q 2769 4750 3195 4129 
Q 3622 3509 3622 2328 
Q 3622 1225 3098 567 
Q 2575 -91 1691 -91 
Q 1453 -91 1209 -44 
Q 966 3 703 97 
z
M 1959 2075 
Q 2384 2075 2632 2365 
Q 2881 2656 2881 3163 
Q 2881 3666 2632 3958 
Q 2384 4250 1959 4250 
Q 1534 4250 1286 3958 
Q 1038 3666 1038 3163 
Q 1038 2656 1286 2365 
Q 1534 2075 1959 2075 
z
" transform="scale(0.015625)"/>
       </defs>
       <use xlink:href="#DejaVuSans-39"/>
      </g>
     </g>
    </g>
    <g id="xtick_3">
     <g id="line2d_3">
      <g>
       <use xlink:href="#m37b5824620" x="636.545455" y="756" style="stroke: #000000; stroke-width: 0.8"/>
      </g>
     </g>
     <g id="text_3">
      <!-- 12 -->
      <g transform="translate(630.182955 770.598438)scale(0.1 -0.1)">
       <defs>
        <path id="DejaVuSans-31" d="M 794 531 
L 1825 531 
L 1825 4091 
L 703 3866 
L 703 4441 
L 1819 4666 
L 2450 4666 
L 2450 531 
L 3481 531 
L 3481 0 
L 794 0 
L 794 531 
z
" transform="scale(0.015625)"/>
        <path id="DejaVuSans-32" d="M 1228 531 
L 3431 531 
L 3431 0 
L 469 0 
L 469 531 
Q 828 903 1448 1529 
Q 2069 2156 2228 2338 
Q 2531 2678 2651 2914 
Q 2772 3150 2772 3378 
Q 2772 3750 2511 3984 
Q 2250 4219 1831 4219 
Q 1534 4219 1204 4116 
Q 875 4013 500 3803 
L 500 4441 
Q 881 4594 1212 4672 
Q 1544 4750 1819 4750 
Q 2544 4750 2975 4387 
Q 3406 4025 3406 3419 
Q 3406 3131 3298 2873 
Q 3191 2616 2906 2266 
Q 2828 2175 2409 1742 
Q 1991 1309 1228 531 
z
" transform="scale(0.015625)"/>
       </defs>
       <use xlink:href="#DejaVuSans-31"/>
       <use xlink:href="#DejaVuSans-32" x="63.623047"/>
      </g>
     </g>
    </g>
    <g id="xtick_4">
     <g id="line2d_4">
      <g>
       <use xlink:href="#m37b5824620" x="839.454545" y="756" style="stroke: #000000; stroke-width: 0.8"/>
      </g>
     </g>
     <g id="text_4">
      <!-- 15 -->
      <g transform="translate(833.092045 770.598438)scale(0.1 -0.1)">
       <defs>
        <path id="DejaVuSans-35" d="M 691 4666 
L 3169 4666 
L 3169 4134 
L 1269 4134 
L 1269 2991 
Q 1406 3038 1543 3061 
Q 1681 3084 1819 3084 
Q 2600 3084 3056 2656 
Q 3513 2228 3513 1497 
Q 3513 744 3044 326 
Q 2575 -91 1722 -91 
Q 1428 -91 1123 -41 
Q 819 9 494 109 
L 494 744 
Q 775 591 1075 516 
Q 1375 441 1709 441 
Q 2250 441 2565 725 
Q 2881 1009 2881 1497 
Q 2881 1984 2565 2268 
Q 2250 2553 1709 2553 
Q 1456 2553 1204 2497 
Q 953 2441 691 2322 
L 691 4666 
z
" transform="scale(0.015625)"/>
       </defs>
       <use xlink:href="#DejaVuSans-31"/>
       <use xlink:href="#DejaVuSans-35" x="63.623047"/>
      </g>
     </g>
    </g>
    <g id="xtick_5">
     <g id="line2d_5">
      <g>
       <use xlink:href="#m37b5824620" x="1042.363636" y="756" style="stroke: #000000; stroke-width: 0.8"/>
      </g>
     </g>
     <g id="text_5">
      <!-- 18 -->
      <g transform="translate(1036.001136 770.598438)scale(0.1 -0.1)">
       <defs>
        <path id="DejaVuSans-38" d="M 2034 2216 
Q 1584 2216 1326 1975 
Q 1069 1734 1069 1313 
Q 1069 891 1326 650 
Q 1584 409 2034 409 
Q 2484 409 2743 651 
Q 3003 894 3003 1313 
Q 3003 1734 2745 1975 
Q 2488 2216 2034 2216 
z
M 1403 2484 
Q 997 2584 770 2862 
Q 544 3141 544 3541 
Q 544 4100 942 4425 
Q 1341 4750 2034 4750 
Q 2731 4750 3128 4425 
Q 3525 4100 3525 3541 
Q 3525 3141 3298 2862 
Q 3072 2584 2669 2484 
Q 3125 2378 3379 2068 
Q 3634 1759 3634 1313 
Q 3634 634 3220 271 
Q 2806 -91 2034 -91 
Q 1263 -91 848 271 
Q 434 634 434 1313 
Q 434 1759 690 2068 
Q 947 2378 1403 2484 
z
M 1172 3481 
Q 1172 3119 1398 2916 
Q 1625 2713 2034 2713 
Q 2441 2713 2670 2916 
Q 2900 3119 2900 3481 
Q 2900 3844 2670 4047 
Q 2441 4250 2034 4250 
Q 1625 4250 1398 4047 
Q 1172 3844 1172 3481 
z
" transform="scale(0.015625)"/>
       </defs>
       <use xlink:href="#DejaVuSans-31"/>
       <use xlink:href="#DejaVuSans-38" x="63.623047"/>
      </g>
     </g>
    </g>
    <g id="xtick_6">
     <g id="line2d_6">
      <g>
       <use xlink:href="#m37b5824620" x="1245.272727" y="756" style="stroke: #000000; stroke-width: 0.8"/>
      </g>
     </g>
     <g id="text_6">
      <!-- 21 -->
      <g transform="translate(1238.910227 770.598438)scale(0.1 -0.1)">
       <use xlink:href="#DejaVuSans-32"/>
       <use xlink:href="#DejaVuSans-31" x="63.623047"/>
      </g>
     </g>
    </g>
    <g id="text_7">
     <!-- NumLayers -->
     <g transform="translate(709.674219 784.276562)scale(0.1 -0.1)">
      <defs>
       <path id="DejaVuSans-4e" d="M 628 4666 
L 1478 4666 
L 3547 763 
L 3547 4666 
L 4159 4666 
L 4159 0 
L 3309 0 
L 1241 3903 
L 1241 0 
L 628 0 
L 628 4666 
z
" transform="scale(0.015625)"/>
       <path id="DejaVuSans-75" d="M 544 1381 
L 544 3500 
L 1119 3500 
L 1119 1403 
Q 1119 906 1312 657 
Q 1506 409 1894 409 
Q 2359 409 2629 706 
Q 2900 1003 2900 1516 
L 2900 3500 
L 3475 3500 
L 3475 0 
L 2900 0 
L 2900 538 
Q 2691 219 2414 64 
Q 2138 -91 1772 -91 
Q 1169 -91 856 284 
Q 544 659 544 1381 
z
M 1991 3584 
L 1991 3584 
z
" transform="scale(0.015625)"/>
       <path id="DejaVuSans-6d" d="M 3328 2828 
Q 3544 3216 3844 3400 
Q 4144 3584 4550 3584 
Q 5097 3584 5394 3201 
Q 5691 2819 5691 2113 
L 5691 0 
L 5113 0 
L 5113 2094 
Q 5113 2597 4934 2840 
Q 4756 3084 4391 3084 
Q 3944 3084 3684 2787 
Q 3425 2491 3425 1978 
L 3425 0 
L 2847 0 
L 2847 2094 
Q 2847 2600 2669 2842 
Q 2491 3084 2119 3084 
Q 1678 3084 1418 2786 
Q 1159 2488 1159 1978 
L 1159 0 
L 581 0 
L 581 3500 
L 1159 3500 
L 1159 2956 
Q 1356 3278 1631 3431 
Q 1906 3584 2284 3584 
Q 2666 3584 2933 3390 
Q 3200 3197 3328 2828 
z
" transform="scale(0.015625)"/>
       <path id="DejaVuSans-4c" d="M 628 4666 
L 1259 4666 
L 1259 531 
L 3531 531 
L 3531 0 
L 628 0 
L 628 4666 
z
" transform="scale(0.015625)"/>
       <path id="DejaVuSans-61" d="M 2194 1759 
Q 1497 1759 1228 1600 
Q 959 1441 959 1056 
Q 959 750 1161 570 
Q 1363 391 1709 391 
Q 2188 391 2477 730 
Q 2766 1069 2766 1631 
L 2766 1759 
L 2194 1759 
z
M 3341 1997 
L 3341 0 
L 2766 0 
L 2766 531 
Q 2569 213 2275 61 
Q 1981 -91 1556 -91 
Q 1019 -91 701 211 
Q 384 513 384 1019 
Q 384 1609 779 1909 
Q 1175 2209 1959 2209 
L 2766 2209 
L 2766 2266 
Q 2766 2663 2505 2880 
Q 2244 3097 1772 3097 
Q 1472 3097 1187 3025 
Q 903 2953 641 2809 
L 641 3341 
Q 956 3463 1253 3523 
Q 1550 3584 1831 3584 
Q 2591 3584 2966 3190 
Q 3341 2797 3341 1997 
z
" transform="scale(0.015625)"/>
       <path id="DejaVuSans-79" d="M 2059 -325 
Q 1816 -950 1584 -1140 
Q 1353 -1331 966 -1331 
L 506 -1331 
L 506 -850 
L 844 -850 
Q 1081 -850 1212 -737 
Q 1344 -625 1503 -206 
L 1606 56 
L 191 3500 
L 800 3500 
L 1894 763 
L 2988 3500 
L 3597 3500 
L 2059 -325 
z
" transform="scale(0.015625)"/>
       <path id="DejaVuSans-65" d="M 3597 1894 
L 3597 1613 
L 953 1613 
Q 991 1019 1311 708 
Q 1631 397 2203 397 
Q 2534 397 2845 478 
Q 3156 559 3463 722 
L 3463 178 
Q 3153 47 2828 -22 
Q 2503 -91 2169 -91 
Q 1331 -91 842 396 
Q 353 884 353 1716 
Q 353 2575 817 3079 
Q 1281 3584 2069 3584 
Q 2775 3584 3186 3129 
Q 3597 2675 3597 1894 
z
M 3022 2063 
Q 3016 2534 2758 2815 
Q 2500 3097 2075 3097 
Q 1594 3097 1305 2825 
Q 1016 2553 972 2059 
L 3022 2063 
z
" transform="scale(0.015625)"/>
       <path id="DejaVuSans-72" d="M 2631 2963 
Q 2534 3019 2420 3045 
Q 2306 3072 2169 3072 
Q 1681 3072 1420 2755 
Q 1159 2438 1159 1844 
L 1159 0 
L 581 0 
L 581 3500 
L 1159 3500 
L 1159 2956 
Q 1341 3275 1631 3429 
Q 1922 3584 2338 3584 
Q 2397 3584 2469 3576 
Q 2541 3569 2628 3553 
L 2631 2963 
z
" transform="scale(0.015625)"/>
       <path id="DejaVuSans-73" d="M 2834 3397 
L 2834 2853 
Q 2591 2978 2328 3040 
Q 2066 3103 1784 3103 
Q 1356 3103 1142 2972 
Q 928 2841 928 2578 
Q 928 2378 1081 2264 
Q 1234 2150 1697 2047 
L 1894 2003 
Q 2506 1872 2764 1633 
Q 3022 1394 3022 966 
Q 3022 478 2636 193 
Q 2250 -91 1575 -91 
Q 1294 -91 989 -36 
Q 684 19 347 128 
L 347 722 
Q 666 556 975 473 
Q 1284 391 1588 391 
Q 1994 391 2212 530 
Q 2431 669 2431 922 
Q 2431 1156 2273 1281 
Q 2116 1406 1581 1522 
L 1381 1569 
Q 847 1681 609 1914 
Q 372 2147 372 2553 
Q 372 3047 722 3315 
Q 1072 3584 1716 3584 
Q 2034 3584 2315 3537 
Q 2597 3491 2834 3397 
z
" transform="scale(0.015625)"/>
      </defs>
      <use xlink:href="#DejaVuSans-4e"/>
      <use xlink:href="#DejaVuSans-75" x="74.804688"/>
      <use xlink:href="#DejaVuSans-6d" x="138.183594"/>
      <use xlink:href="#DejaVuSans-4c" x="235.595703"/>
      <use xlink:href="#DejaVuSans-61" x="291.308594"/>
      <use xlink:href="#DejaVuSans-79" x="352.587891"/>
      <use xlink:href="#DejaVuSans-65" x="411.767578"/>
      <use xlink:href="#DejaVuSans-72" x="473.291016"/>
      <use xlink:href="#DejaVuSans-73" x="514.404297"/>
     </g>
    </g>
   </g>
   <g id="matplotlib.axis_2">
    <g id="ytick_1">
     <g id="line2d_7">
      <defs>
       <path id="m849c9e9454" d="M 0 0 
L -3.5 0 
" style="stroke: #000000; stroke-width: 0.8"/>
      </defs>
      <g>
       <use xlink:href="#m849c9e9454" x="180" y="737.315052" style="stroke: #000000; stroke-width: 0.8"/>
      </g>
     </g>
     <g id="text_8">
      <!-- 4 -->
      <g transform="translate(166.6375 741.11427)scale(0.1 -0.1)">
       <defs>
        <path id="DejaVuSans-34" d="M 2419 4116 
L 825 1625 
L 2419 1625 
L 2419 4116 
z
M 2253 4666 
L 3047 4666 
L 3047 1625 
L 3713 1625 
L 3713 1100 
L 3047 1100 
L 3047 0 
L 2419 0 
L 2419 1100 
L 313 1100 
L 313 1709 
L 2253 4666 
z
" transform="scale(0.015625)"/>
       </defs>
       <use xlink:href="#DejaVuSans-34"/>
      </g>
     </g>
    </g>
    <g id="ytick_2">
     <g id="line2d_8">
      <g>
       <use xlink:href="#m849c9e9454" x="180" y="641.962685" style="stroke: #000000; stroke-width: 0.8"/>
      </g>
     </g>
     <g id="text_9">
      <!-- 6 -->
      <g transform="translate(166.6375 645.761904)scale(0.1 -0.1)">
       <use xlink:href="#DejaVuSans-36"/>
      </g>
     </g>
    </g>
    <g id="ytick_3">
     <g id="line2d_9">
      <g>
       <use xlink:href="#m849c9e9454" x="180" y="546.610319" style="stroke: #000000; stroke-width: 0.8"/>
      </g>
     </g>
     <g id="text_10">
      <!-- 8 -->
      <g transform="translate(166.6375 550.409538)scale(0.1 -0.1)">
       <use xlink:href="#DejaVuSans-38"/>
      </g>
     </g>
    </g>
    <g id="ytick_4">
     <g id="line2d_10">
      <g>
       <use xlink:href="#m849c9e9454" x="180" y="451.257953" style="stroke: #000000; stroke-width: 0.8"/>
      </g>
     </g>
     <g id="text_11">
      <!-- 10 -->
      <g transform="translate(160.275 455.057171)scale(0.1 -0.1)">
       <defs>
        <path id="DejaVuSans-30" d="M 2034 4250 
Q 1547 4250 1301 3770 
Q 1056 3291 1056 2328 
Q 1056 1369 1301 889 
Q 1547 409 2034 409 
Q 2525 409 2770 889 
Q 3016 1369 3016 2328 
Q 3016 3291 2770 3770 
Q 2525 4250 2034 4250 
z
M 2034 4750 
Q 2819 4750 3233 4129 
Q 3647 3509 3647 2328 
Q 3647 1150 3233 529 
Q 2819 -91 2034 -91 
Q 1250 -91 836 529 
Q 422 1150 422 2328 
Q 422 3509 836 4129 
Q 1250 4750 2034 4750 
z
" transform="scale(0.015625)"/>
       </defs>
       <use xlink:href="#DejaVuSans-31"/>
       <use xlink:href="#DejaVuSans-30" x="63.623047"/>
      </g>
     </g>
    </g>
    <g id="ytick_5">
     <g id="line2d_11">
      <g>
       <use xlink:href="#m849c9e9454" x="180" y="355.905586" style="stroke: #000000; stroke-width: 0.8"/>
      </g>
     </g>
     <g id="text_12">
      <!-- 12 -->
      <g transform="translate(160.275 359.704805)scale(0.1 -0.1)">
       <use xlink:href="#DejaVuSans-31"/>
       <use xlink:href="#DejaVuSans-32" x="63.623047"/>
      </g>
     </g>
    </g>
    <g id="ytick_6">
     <g id="line2d_12">
      <g>
       <use xlink:href="#m849c9e9454" x="180" y="260.55322" style="stroke: #000000; stroke-width: 0.8"/>
      </g>
     </g>
     <g id="text_13">
      <!-- 14 -->
      <g transform="translate(160.275 264.352439)scale(0.1 -0.1)">
       <use xlink:href="#DejaVuSans-31"/>
       <use xlink:href="#DejaVuSans-34" x="63.623047"/>
      </g>
     </g>
    </g>
    <g id="ytick_7">
     <g id="line2d_13">
      <g>
       <use xlink:href="#m849c9e9454" x="180" y="165.200854" style="stroke: #000000; stroke-width: 0.8"/>
      </g>
     </g>
     <g id="text_14">
      <!-- 16 -->
      <g transform="translate(160.275 169.000073)scale(0.1 -0.1)">
       <use xlink:href="#DejaVuSans-31"/>
       <use xlink:href="#DejaVuSans-36" x="63.623047"/>
      </g>
     </g>
    </g>
    <g id="text_15">
     <!-- Duration (s) -->
     <g transform="translate(154.195312 459.650937)rotate(-90)scale(0.1 -0.1)">
      <defs>
       <path id="DejaVuSans-44" d="M 1259 4147 
L 1259 519 
L 2022 519 
Q 2988 519 3436 956 
Q 3884 1394 3884 2338 
Q 3884 3275 3436 3711 
Q 2988 4147 2022 4147 
L 1259 4147 
z
M 628 4666 
L 1925 4666 
Q 3281 4666 3915 4102 
Q 4550 3538 4550 2338 
Q 4550 1131 3912 565 
Q 3275 0 1925 0 
L 628 0 
L 628 4666 
z
" transform="scale(0.015625)"/>
       <path id="DejaVuSans-74" d="M 1172 4494 
L 1172 3500 
L 2356 3500 
L 2356 3053 
L 1172 3053 
L 1172 1153 
Q 1172 725 1289 603 
Q 1406 481 1766 481 
L 2356 481 
L 2356 0 
L 1766 0 
Q 1100 0 847 248 
Q 594 497 594 1153 
L 594 3053 
L 172 3053 
L 172 3500 
L 594 3500 
L 594 4494 
L 1172 4494 
z
" transform="scale(0.015625)"/>
       <path id="DejaVuSans-69" d="M 603 3500 
L 1178 3500 
L 1178 0 
L 603 0 
L 603 3500 
z
M 603 4863 
L 1178 4863 
L 1178 4134 
L 603 4134 
L 603 4863 
z
" transform="scale(0.015625)"/>
       <path id="DejaVuSans-6f" d="M 1959 3097 
Q 1497 3097 1228 2736 
Q 959 2375 959 1747 
Q 959 1119 1226 758 
Q 1494 397 1959 397 
Q 2419 397 2687 759 
Q 2956 1122 2956 1747 
Q 2956 2369 2687 2733 
Q 2419 3097 1959 3097 
z
M 1959 3584 
Q 2709 3584 3137 3096 
Q 3566 2609 3566 1747 
Q 3566 888 3137 398 
Q 2709 -91 1959 -91 
Q 1206 -91 779 398 
Q 353 888 353 1747 
Q 353 2609 779 3096 
Q 1206 3584 1959 3584 
z
" transform="scale(0.015625)"/>
       <path id="DejaVuSans-6e" d="M 3513 2113 
L 3513 0 
L 2938 0 
L 2938 2094 
Q 2938 2591 2744 2837 
Q 2550 3084 2163 3084 
Q 1697 3084 1428 2787 
Q 1159 2491 1159 1978 
L 1159 0 
L 581 0 
L 581 3500 
L 1159 3500 
L 1159 2956 
Q 1366 3272 1645 3428 
Q 1925 3584 2291 3584 
Q 2894 3584 3203 3211 
Q 3513 2838 3513 2113 
z
" transform="scale(0.015625)"/>
       <path id="DejaVuSans-20" transform="scale(0.015625)"/>
       <path id="DejaVuSans-28" d="M 1984 4856 
Q 1566 4138 1362 3434 
Q 1159 2731 1159 2009 
Q 1159 1288 1364 580 
Q 1569 -128 1984 -844 
L 1484 -844 
Q 1016 -109 783 600 
Q 550 1309 550 2009 
Q 550 2706 781 3412 
Q 1013 4119 1484 4856 
L 1984 4856 
z
" transform="scale(0.015625)"/>
       <path id="DejaVuSans-29" d="M 513 4856 
L 1013 4856 
Q 1481 4119 1714 3412 
Q 1947 2706 1947 2009 
Q 1947 1309 1714 600 
Q 1481 -109 1013 -844 
L 513 -844 
Q 928 -128 1133 580 
Q 1338 1288 1338 2009 
Q 1338 2731 1133 3434 
Q 928 4138 513 4856 
z
" transform="scale(0.015625)"/>
      </defs>
      <use xlink:href="#DejaVuSans-44"/>
      <use xlink:href="#DejaVuSans-75" x="77.001953"/>
      <use xlink:href="#DejaVuSans-72" x="140.380859"/>
      <use xlink:href="#DejaVuSans-61" x="181.494141"/>
      <use xlink:href="#DejaVuSans-74" x="242.773438"/>
      <use xlink:href="#DejaVuSans-69" x="281.982422"/>
      <use xlink:href="#DejaVuSans-6f" x="309.765625"/>
      <use xlink:href="#DejaVuSans-6e" x="370.947266"/>
      <use xlink:href="#DejaVuSans-20" x="434.326172"/>
      <use xlink:href="#DejaVuSans-28" x="466.113281"/>
      <use xlink:href="#DejaVuSans-73" x="505.126953"/>
      <use xlink:href="#DejaVuSans-29" x="557.226562"/>
     </g>
    </g>
   </g>
   <g id="line2d_14">
    <path d="M 230.727273 566.818698 
L 433.636364 489.994359 
L 636.545455 510.27475 
L 839.454545 473.999492 
L 1042.363636 412.73297 
L 1245.272727 381.229012 
" clip-path="url(#pa473ef381b)" style="fill: none; stroke-dasharray: 1.5,2.475; stroke-dashoffset: 0; stroke: #1f77b4; stroke-width: 1.5"/>
   </g>
   <g id="line2d_15">
    <path d="M 230.727273 640.183997 
L 433.636364 603.240685 
L 636.545455 594.983766 
L 839.454545 315.006756 
L 1042.363636 475.400438 
L 1245.272727 360.663168 
" clip-path="url(#pa473ef381b)" style="fill: none; stroke-dasharray: 1.5,2.475; stroke-dashoffset: 0; stroke: #ff7f0e; stroke-width: 1.5"/>
   </g>
   <g id="line2d_16">
    <path d="M 230.727273 697.312207 
L 433.636364 631.273296 
L 636.545455 557.362046 
L 839.454545 458.80875 
L 1042.363636 407.008911 
L 1245.272727 389.015346 
" clip-path="url(#pa473ef381b)" style="fill: none; stroke-dasharray: 1.5,2.475; stroke-dashoffset: 0; stroke: #2ca02c; stroke-width: 1.5"/>
   </g>
   <g id="line2d_17">
    <path d="M 230.727273 603.421028 
L 433.636364 525.187867 
L 636.545455 524.641318 
L 839.454545 465.719774 
L 1042.363636 412.642548 
L 1245.272727 382.866261 
" clip-path="url(#pa473ef381b)" style="fill: none; stroke-dasharray: 1.5,2.475; stroke-dashoffset: 0; stroke: #d62728; stroke-width: 1.5"/>
   </g>
   <g id="line2d_18">
    <path d="M 230.727273 557.937346 
L 240.975207 556.211505 
L 251.22314 554.485664 
L 261.471074 552.759823 
L 271.719008 551.033982 
L 281.966942 549.308141 
L 292.214876 547.5823 
L 302.46281 545.856458 
L 312.710744 544.130617 
L 322.958678 542.404776 
L 333.206612 540.678935 
L 343.454545 538.953094 
L 353.702479 537.227253 
L 363.950413 535.501412 
L 374.198347 533.775571 
L 384.446281 532.04973 
L 394.694215 530.323889 
L 404.942149 528.598048 
L 415.190083 526.872207 
L 425.438017 525.146366 
L 435.68595 523.420525 
L 445.933884 521.694684 
L 456.181818 519.968843 
L 466.429752 518.243002 
L 476.677686 516.517161 
L 486.92562 514.791319 
L 497.173554 513.065478 
L 507.421488 511.339637 
L 517.669421 509.613796 
L 527.917355 507.887955 
L 538.165289 506.162114 
L 548.413223 504.436273 
L 558.661157 502.710432 
L 568.909091 500.984591 
L 579.157025 499.25875 
L 589.404959 497.532909 
L 599.652893 495.807068 
L 609.900826 494.081227 
L 620.14876 492.355386 
L 630.396694 490.629545 
L 640.644628 488.903704 
L 650.892562 487.177863 
L 661.140496 485.452021 
L 671.38843 483.72618 
L 681.636364 482.000339 
L 691.884298 480.274498 
L 702.132231 478.548657 
L 712.380165 476.822816 
L 722.628099 475.096975 
L 732.876033 473.371134 
L 743.123967 471.645293 
L 753.371901 469.919452 
L 763.619835 468.193611 
L 773.867769 466.46777 
L 784.115702 464.741929 
L 794.363636 463.016088 
L 804.61157 461.290247 
L 814.859504 459.564406 
L 825.107438 457.838565 
L 835.355372 456.112724 
L 845.603306 454.386882 
L 855.85124 452.661041 
L 866.099174 450.9352 
L 876.347107 449.209359 
L 886.595041 447.483518 
L 896.842975 445.757677 
L 907.090909 444.031836 
L 917.338843 442.305995 
L 927.586777 440.580154 
L 937.834711 438.854313 
L 948.082645 437.128472 
L 958.330579 435.402631 
L 968.578512 433.67679 
L 978.826446 431.950949 
L 989.07438 430.225108 
L 999.322314 428.499267 
L 1009.570248 426.773426 
L 1019.818182 425.047585 
L 1030.066116 423.321743 
L 1040.31405 421.595902 
L 1050.561983 419.870061 
L 1060.809917 418.14422 
L 1071.057851 416.418379 
L 1081.305785 414.692538 
L 1091.553719 412.966697 
L 1101.801653 411.240856 
L 1112.049587 409.515015 
L 1122.297521 407.789174 
L 1132.545455 406.063333 
L 1142.793388 404.337492 
L 1153.041322 402.611651 
L 1163.289256 400.88581 
L 1173.53719 399.159969 
L 1183.785124 397.434128 
L 1194.033058 395.708287 
L 1204.280992 393.982446 
L 1214.528926 392.256604 
L 1224.77686 390.530763 
L 1235.024793 388.804922 
L 1245.272727 387.079081 
" clip-path="url(#pa473ef381b)" style="fill: none; stroke-dasharray: 8.325,3.6; stroke-dashoffset: 0; stroke: #1f77b4; stroke-width: 2.25"/>
   </g>
   <g id="line2d_19">
    <path d="M 230.727273 645.468033 
L 240.975207 642.493859 
L 251.22314 639.519686 
L 261.471074 636.545513 
L 271.719008 633.57134 
L 281.966942 630.597167 
L 292.214876 627.622994 
L 302.46281 624.648821 
L 312.710744 621.674648 
L 322.958678 618.700475 
L 333.206612 615.726302 
L 343.454545 612.752129 
L 353.702479 609.777956 
L 363.950413 606.803783 
L 374.198347 603.82961 
L 384.446281 600.855437 
L 394.694215 597.881264 
L 404.942149 594.907091 
L 415.190083 591.932918 
L 425.438017 588.958745 
L 435.68595 585.984572 
L 445.933884 583.010399 
L 456.181818 580.036226 
L 466.429752 577.062053 
L 476.677686 574.08788 
L 486.92562 571.113707 
L 497.173554 568.139534 
L 507.421488 565.165361 
L 517.669421 562.191188 
L 527.917355 559.217015 
L 538.165289 556.242842 
L 548.413223 553.268669 
L 558.661157 550.294496 
L 568.909091 547.320323 
L 579.157025 544.34615 
L 589.404959 541.371977 
L 599.652893 538.397804 
L 609.900826 535.423631 
L 620.14876 532.449458 
L 630.396694 529.475285 
L 640.644628 526.501112 
L 650.892562 523.526939 
L 661.140496 520.552766 
L 671.38843 517.578593 
L 681.636364 514.60442 
L 691.884298 511.630247 
L 702.132231 508.656074 
L 712.380165 505.681901 
L 722.628099 502.707728 
L 732.876033 499.733555 
L 743.123967 496.759382 
L 753.371901 493.785209 
L 763.619835 490.811036 
L 773.867769 487.836863 
L 784.115702 484.86269 
L 794.363636 481.888517 
L 804.61157 478.914344 
L 814.859504 475.940171 
L 825.107438 472.965998 
L 835.355372 469.991825 
L 845.603306 467.017652 
L 855.85124 464.043479 
L 866.099174 461.069306 
L 876.347107 458.095133 
L 886.595041 455.12096 
L 896.842975 452.146787 
L 907.090909 449.172614 
L 917.338843 446.198441 
L 927.586777 443.224268 
L 937.834711 440.250095 
L 948.082645 437.275922 
L 958.330579 434.301749 
L 968.578512 431.327576 
L 978.826446 428.353403 
L 989.07438 425.37923 
L 999.322314 422.405057 
L 1009.570248 419.430884 
L 1019.818182 416.456711 
L 1030.066116 413.482538 
L 1040.31405 410.508365 
L 1050.561983 407.534192 
L 1060.809917 404.560019 
L 1071.057851 401.585846 
L 1081.305785 398.611673 
L 1091.553719 395.6375 
L 1101.801653 392.663327 
L 1112.049587 389.689153 
L 1122.297521 386.71498 
L 1132.545455 383.740807 
L 1142.793388 380.766634 
L 1153.041322 377.792461 
L 1163.289256 374.818288 
L 1173.53719 371.844115 
L 1183.785124 368.869942 
L 1194.033058 365.895769 
L 1204.280992 362.921596 
L 1214.528926 359.947423 
L 1224.77686 356.97325 
L 1235.024793 353.999077 
L 1245.272727 351.024904 
" clip-path="url(#pa473ef381b)" style="fill: none; stroke-dasharray: 8.325,3.6; stroke-dashoffset: 0; stroke: #ff7f0e; stroke-width: 2.25"/>
   </g>
   <g id="line2d_20">
    <path d="M 230.727273 688.665623 
L 240.975207 685.328204 
L 251.22314 681.990786 
L 261.471074 678.653368 
L 271.719008 675.31595 
L 281.966942 671.978532 
L 292.214876 668.641114 
L 302.46281 665.303696 
L 312.710744 661.966278 
L 322.958678 658.62886 
L 333.206612 655.291441 
L 343.454545 651.954023 
L 353.702479 648.616605 
L 363.950413 645.279187 
L 374.198347 641.941769 
L 384.446281 638.604351 
L 394.694215 635.266933 
L 404.942149 631.929515 
L 415.190083 628.592097 
L 425.438017 625.254678 
L 435.68595 621.91726 
L 445.933884 618.579842 
L 456.181818 615.242424 
L 466.429752 611.905006 
L 476.677686 608.567588 
L 486.92562 605.23017 
L 497.173554 601.892752 
L 507.421488 598.555334 
L 517.669421 595.217915 
L 527.917355 591.880497 
L 538.165289 588.543079 
L 548.413223 585.205661 
L 558.661157 581.868243 
L 568.909091 578.530825 
L 579.157025 575.193407 
L 589.404959 571.855989 
L 599.652893 568.51857 
L 609.900826 565.181152 
L 620.14876 561.843734 
L 630.396694 558.506316 
L 640.644628 555.168898 
L 650.892562 551.83148 
L 661.140496 548.494062 
L 671.38843 545.156644 
L 681.636364 541.819226 
L 691.884298 538.481807 
L 702.132231 535.144389 
L 712.380165 531.806971 
L 722.628099 528.469553 
L 732.876033 525.132135 
L 743.123967 521.794717 
L 753.371901 518.457299 
L 763.619835 515.119881 
L 773.867769 511.782463 
L 784.115702 508.445044 
L 794.363636 505.107626 
L 804.61157 501.770208 
L 814.859504 498.43279 
L 825.107438 495.095372 
L 835.355372 491.757954 
L 845.603306 488.420536 
L 855.85124 485.083118 
L 866.099174 481.7457 
L 876.347107 478.408281 
L 886.595041 475.070863 
L 896.842975 471.733445 
L 907.090909 468.396027 
L 917.338843 465.058609 
L 927.586777 461.721191 
L 937.834711 458.383773 
L 948.082645 455.046355 
L 958.330579 451.708936 
L 968.578512 448.371518 
L 978.826446 445.0341 
L 989.07438 441.696682 
L 999.322314 438.359264 
L 1009.570248 435.021846 
L 1019.818182 431.684428 
L 1030.066116 428.34701 
L 1040.31405 425.009592 
L 1050.561983 421.672173 
L 1060.809917 418.334755 
L 1071.057851 414.997337 
L 1081.305785 411.659919 
L 1091.553719 408.322501 
L 1101.801653 404.985083 
L 1112.049587 401.647665 
L 1122.297521 398.310247 
L 1132.545455 394.972829 
L 1142.793388 391.63541 
L 1153.041322 388.297992 
L 1163.289256 384.960574 
L 1173.53719 381.623156 
L 1183.785124 378.285738 
L 1194.033058 374.94832 
L 1204.280992 371.610902 
L 1214.528926 368.273484 
L 1224.77686 364.936066 
L 1235.024793 361.598647 
L 1245.272727 358.261229 
" clip-path="url(#pa473ef381b)" style="fill: none; stroke-dasharray: 8.325,3.6; stroke-dashoffset: 0; stroke: #2ca02c; stroke-width: 2.25"/>
   </g>
   <g id="line2d_21">
    <path d="M 230.727273 592.841562 
L 240.975207 590.678024 
L 251.22314 588.514487 
L 261.471074 586.35095 
L 271.719008 584.187413 
L 281.966942 582.023875 
L 292.214876 579.860338 
L 302.46281 577.696801 
L 312.710744 575.533263 
L 322.958678 573.369726 
L 333.206612 571.206189 
L 343.454545 569.042652 
L 353.702479 566.879114 
L 363.950413 564.715577 
L 374.198347 562.55204 
L 384.446281 560.388502 
L 394.694215 558.224965 
L 404.942149 556.061428 
L 415.190083 553.897891 
L 425.438017 551.734353 
L 435.68595 549.570816 
L 445.933884 547.407279 
L 456.181818 545.243741 
L 466.429752 543.080204 
L 476.677686 540.916667 
L 486.92562 538.75313 
L 497.173554 536.589592 
L 507.421488 534.426055 
L 517.669421 532.262518 
L 527.917355 530.09898 
L 538.165289 527.935443 
L 548.413223 525.771906 
L 558.661157 523.608369 
L 568.909091 521.444831 
L 579.157025 519.281294 
L 589.404959 517.117757 
L 599.652893 514.954219 
L 609.900826 512.790682 
L 620.14876 510.627145 
L 630.396694 508.463607 
L 640.644628 506.30007 
L 650.892562 504.136533 
L 661.140496 501.972996 
L 671.38843 499.809458 
L 681.636364 497.645921 
L 691.884298 495.482384 
L 702.132231 493.318846 
L 712.380165 491.155309 
L 722.628099 488.991772 
L 732.876033 486.828235 
L 743.123967 484.664697 
L 753.371901 482.50116 
L 763.619835 480.337623 
L 773.867769 478.174085 
L 784.115702 476.010548 
L 794.363636 473.847011 
L 804.61157 471.683474 
L 814.859504 469.519936 
L 825.107438 467.356399 
L 835.355372 465.192862 
L 845.603306 463.029324 
L 855.85124 460.865787 
L 866.099174 458.70225 
L 876.347107 456.538713 
L 886.595041 454.375175 
L 896.842975 452.211638 
L 907.090909 450.048101 
L 917.338843 447.884563 
L 927.586777 445.721026 
L 937.834711 443.557489 
L 948.082645 441.393952 
L 958.330579 439.230414 
L 968.578512 437.066877 
L 978.826446 434.90334 
L 989.07438 432.739802 
L 999.322314 430.576265 
L 1009.570248 428.412728 
L 1019.818182 426.249191 
L 1030.066116 424.085653 
L 1040.31405 421.922116 
L 1050.561983 419.758579 
L 1060.809917 417.595041 
L 1071.057851 415.431504 
L 1081.305785 413.267967 
L 1091.553719 411.10443 
L 1101.801653 408.940892 
L 1112.049587 406.777355 
L 1122.297521 404.613818 
L 1132.545455 402.45028 
L 1142.793388 400.286743 
L 1153.041322 398.123206 
L 1163.289256 395.959669 
L 1173.53719 393.796131 
L 1183.785124 391.632594 
L 1194.033058 389.469057 
L 1204.280992 387.305519 
L 1214.528926 385.141982 
L 1224.77686 382.978445 
L 1235.024793 380.814908 
L 1245.272727 378.65137 
" clip-path="url(#pa473ef381b)" style="fill: none; stroke-dasharray: 8.325,3.6; stroke-dashoffset: 0; stroke: #d62728; stroke-width: 2.25"/>
   </g>
   <g id="patch_3">
    <path d="M 180 756 
L 180 103.68 
" style="fill: none; stroke: #000000; stroke-width: 0.8; stroke-linejoin: miter; stroke-linecap: square"/>
   </g>
   <g id="patch_4">
    <path d="M 1296 756 
L 1296 103.68 
" style="fill: none; stroke: #000000; stroke-width: 0.8; stroke-linejoin: miter; stroke-linecap: square"/>
   </g>
   <g id="patch_5">
    <path d="M 180 756 
L 1296 756 
" style="fill: none; stroke: #000000; stroke-width: 0.8; stroke-linejoin: miter; stroke-linecap: square"/>
   </g>
   <g id="patch_6">
    <path d="M 180 103.68 
L 1296 103.68 
" style="fill: none; stroke: #000000; stroke-width: 0.8; stroke-linejoin: miter; stroke-linecap: square"/>
   </g>
   <g id="legend_1">
    <g id="patch_7">
     <path d="M 1177.576562 171.505 
L 1289 171.505 
Q 1291 171.505 1291 169.505 
L 1291 110.68 
Q 1291 108.68 1289 108.68 
L 1177.576562 108.68 
Q 1175.576562 108.68 1175.576562 110.68 
L 1175.576562 169.505 
Q 1175.576562 171.505 1177.576562 171.505 
z
" style="fill: #ffffff; opacity: 0.8; stroke: #cccccc; stroke-linejoin: miter"/>
    </g>
    <g id="line2d_22">
     <path d="M 1179.576562 116.778437 
L 1189.576562 116.778437 
L 1199.576562 116.778437 
" style="fill: none; stroke-dasharray: 1.5,2.475; stroke-dashoffset: 0; stroke: #1f77b4; stroke-width: 1.5"/>
    </g>
    <g id="text_16">
     <!-- Completed_Avg -->
     <g transform="translate(1207.576562 120.278437)scale(0.1 -0.1)">
      <defs>
       <path id="DejaVuSans-43" d="M 4122 4306 
L 4122 3641 
Q 3803 3938 3442 4084 
Q 3081 4231 2675 4231 
Q 1875 4231 1450 3742 
Q 1025 3253 1025 2328 
Q 1025 1406 1450 917 
Q 1875 428 2675 428 
Q 3081 428 3442 575 
Q 3803 722 4122 1019 
L 4122 359 
Q 3791 134 3420 21 
Q 3050 -91 2638 -91 
Q 1578 -91 968 557 
Q 359 1206 359 2328 
Q 359 3453 968 4101 
Q 1578 4750 2638 4750 
Q 3056 4750 3426 4639 
Q 3797 4528 4122 4306 
z
" transform="scale(0.015625)"/>
       <path id="DejaVuSans-70" d="M 1159 525 
L 1159 -1331 
L 581 -1331 
L 581 3500 
L 1159 3500 
L 1159 2969 
Q 1341 3281 1617 3432 
Q 1894 3584 2278 3584 
Q 2916 3584 3314 3078 
Q 3713 2572 3713 1747 
Q 3713 922 3314 415 
Q 2916 -91 2278 -91 
Q 1894 -91 1617 61 
Q 1341 213 1159 525 
z
M 3116 1747 
Q 3116 2381 2855 2742 
Q 2594 3103 2138 3103 
Q 1681 3103 1420 2742 
Q 1159 2381 1159 1747 
Q 1159 1113 1420 752 
Q 1681 391 2138 391 
Q 2594 391 2855 752 
Q 3116 1113 3116 1747 
z
" transform="scale(0.015625)"/>
       <path id="DejaVuSans-6c" d="M 603 4863 
L 1178 4863 
L 1178 0 
L 603 0 
L 603 4863 
z
" transform="scale(0.015625)"/>
       <path id="DejaVuSans-64" d="M 2906 2969 
L 2906 4863 
L 3481 4863 
L 3481 0 
L 2906 0 
L 2906 525 
Q 2725 213 2448 61 
Q 2172 -91 1784 -91 
Q 1150 -91 751 415 
Q 353 922 353 1747 
Q 353 2572 751 3078 
Q 1150 3584 1784 3584 
Q 2172 3584 2448 3432 
Q 2725 3281 2906 2969 
z
M 947 1747 
Q 947 1113 1208 752 
Q 1469 391 1925 391 
Q 2381 391 2643 752 
Q 2906 1113 2906 1747 
Q 2906 2381 2643 2742 
Q 2381 3103 1925 3103 
Q 1469 3103 1208 2742 
Q 947 2381 947 1747 
z
" transform="scale(0.015625)"/>
       <path id="DejaVuSans-5f" d="M 3263 -1063 
L 3263 -1509 
L -63 -1509 
L -63 -1063 
L 3263 -1063 
z
" transform="scale(0.015625)"/>
       <path id="DejaVuSans-41" d="M 2188 4044 
L 1331 1722 
L 3047 1722 
L 2188 4044 
z
M 1831 4666 
L 2547 4666 
L 4325 0 
L 3669 0 
L 3244 1197 
L 1141 1197 
L 716 0 
L 50 0 
L 1831 4666 
z
" transform="scale(0.015625)"/>
       <path id="DejaVuSans-76" d="M 191 3500 
L 800 3500 
L 1894 563 
L 2988 3500 
L 3597 3500 
L 2284 0 
L 1503 0 
L 191 3500 
z
" transform="scale(0.015625)"/>
       <path id="DejaVuSans-67" d="M 2906 1791 
Q 2906 2416 2648 2759 
Q 2391 3103 1925 3103 
Q 1463 3103 1205 2759 
Q 947 2416 947 1791 
Q 947 1169 1205 825 
Q 1463 481 1925 481 
Q 2391 481 2648 825 
Q 2906 1169 2906 1791 
z
M 3481 434 
Q 3481 -459 3084 -895 
Q 2688 -1331 1869 -1331 
Q 1566 -1331 1297 -1286 
Q 1028 -1241 775 -1147 
L 775 -588 
Q 1028 -725 1275 -790 
Q 1522 -856 1778 -856 
Q 2344 -856 2625 -561 
Q 2906 -266 2906 331 
L 2906 616 
Q 2728 306 2450 153 
Q 2172 0 1784 0 
Q 1141 0 747 490 
Q 353 981 353 1791 
Q 353 2603 747 3093 
Q 1141 3584 1784 3584 
Q 2172 3584 2450 3431 
Q 2728 3278 2906 2969 
L 2906 3500 
L 3481 3500 
L 3481 434 
z
" transform="scale(0.015625)"/>
      </defs>
      <use xlink:href="#DejaVuSans-43"/>
      <use xlink:href="#DejaVuSans-6f" x="69.824219"/>
      <use xlink:href="#DejaVuSans-6d" x="131.005859"/>
      <use xlink:href="#DejaVuSans-70" x="228.417969"/>
      <use xlink:href="#DejaVuSans-6c" x="291.894531"/>
      <use xlink:href="#DejaVuSans-65" x="319.677734"/>
      <use xlink:href="#DejaVuSans-74" x="381.201172"/>
      <use xlink:href="#DejaVuSans-65" x="420.410156"/>
      <use xlink:href="#DejaVuSans-64" x="481.933594"/>
      <use xlink:href="#DejaVuSans-5f" x="545.410156"/>
      <use xlink:href="#DejaVuSans-41" x="595.410156"/>
      <use xlink:href="#DejaVuSans-76" x="657.943359"/>
      <use xlink:href="#DejaVuSans-67" x="717.123047"/>
     </g>
    </g>
    <g id="line2d_23">
     <path d="M 1179.576562 131.734687 
L 1189.576562 131.734687 
L 1199.576562 131.734687 
" style="fill: none; stroke-dasharray: 1.5,2.475; stroke-dashoffset: 0; stroke: #ff7f0e; stroke-width: 1.5"/>
    </g>
    <g id="text_17">
     <!-- Failed_Avg -->
     <g transform="translate(1207.576562 135.234687)scale(0.1 -0.1)">
      <defs>
       <path id="DejaVuSans-46" d="M 628 4666 
L 3309 4666 
L 3309 4134 
L 1259 4134 
L 1259 2759 
L 3109 2759 
L 3109 2228 
L 1259 2228 
L 1259 0 
L 628 0 
L 628 4666 
z
" transform="scale(0.015625)"/>
      </defs>
      <use xlink:href="#DejaVuSans-46"/>
      <use xlink:href="#DejaVuSans-61" x="48.394531"/>
      <use xlink:href="#DejaVuSans-69" x="109.673828"/>
      <use xlink:href="#DejaVuSans-6c" x="137.457031"/>
      <use xlink:href="#DejaVuSans-65" x="165.240234"/>
      <use xlink:href="#DejaVuSans-64" x="226.763672"/>
      <use xlink:href="#DejaVuSans-5f" x="290.240234"/>
      <use xlink:href="#DejaVuSans-41" x="340.240234"/>
      <use xlink:href="#DejaVuSans-76" x="402.773438"/>
      <use xlink:href="#DejaVuSans-67" x="461.953125"/>
     </g>
    </g>
    <g id="line2d_24">
     <path d="M 1179.576562 146.690938 
L 1189.576562 146.690938 
L 1199.576562 146.690938 
" style="fill: none; stroke-dasharray: 1.5,2.475; stroke-dashoffset: 0; stroke: #2ca02c; stroke-width: 1.5"/>
    </g>
    <g id="text_18">
     <!-- Terminated_Avg -->
     <g transform="translate(1207.576562 150.190938)scale(0.1 -0.1)">
      <defs>
       <path id="DejaVuSans-54" d="M -19 4666 
L 3928 4666 
L 3928 4134 
L 2272 4134 
L 2272 0 
L 1638 0 
L 1638 4134 
L -19 4134 
L -19 4666 
z
" transform="scale(0.015625)"/>
      </defs>
      <use xlink:href="#DejaVuSans-54"/>
      <use xlink:href="#DejaVuSans-65" x="44.083984"/>
      <use xlink:href="#DejaVuSans-72" x="105.607422"/>
      <use xlink:href="#DejaVuSans-6d" x="144.970703"/>
      <use xlink:href="#DejaVuSans-69" x="242.382812"/>
      <use xlink:href="#DejaVuSans-6e" x="270.166016"/>
      <use xlink:href="#DejaVuSans-61" x="333.544922"/>
      <use xlink:href="#DejaVuSans-74" x="394.824219"/>
      <use xlink:href="#DejaVuSans-65" x="434.033203"/>
      <use xlink:href="#DejaVuSans-64" x="495.556641"/>
      <use xlink:href="#DejaVuSans-5f" x="559.033203"/>
      <use xlink:href="#DejaVuSans-41" x="609.033203"/>
      <use xlink:href="#DejaVuSans-76" x="671.566406"/>
      <use xlink:href="#DejaVuSans-67" x="730.746094"/>
     </g>
    </g>
    <g id="line2d_25">
     <path d="M 1179.576562 161.647187 
L 1189.576562 161.647187 
L 1199.576562 161.647187 
" style="fill: none; stroke-dasharray: 1.5,2.475; stroke-dashoffset: 0; stroke: #d62728; stroke-width: 1.5"/>
    </g>
    <g id="text_19">
     <!-- All_Avg -->
     <g transform="translate(1207.576562 165.147187)scale(0.1 -0.1)">
      <use xlink:href="#DejaVuSans-41"/>
      <use xlink:href="#DejaVuSans-6c" x="68.408203"/>
      <use xlink:href="#DejaVuSans-6c" x="96.191406"/>
      <use xlink:href="#DejaVuSans-5f" x="123.974609"/>
      <use xlink:href="#DejaVuSans-41" x="173.974609"/>
      <use xlink:href="#DejaVuSans-76" x="236.507812"/>
      <use xlink:href="#DejaVuSans-67" x="295.6875"/>
     </g>
    </g>
   </g>
  </g>
 </g>
 <defs>
  <clipPath id="pa473ef381b">
   <rect x="180" y="103.68" width="1116" height="652.32"/>
  </clipPath>
 </defs>
</svg>
