<?xml version="1.0" encoding="utf-8" standalone="no"?>
<!DOCTYPE svg PUBLIC "-//W3C//DTD SVG 1.1//EN"
  "http://www.w3.org/Graphics/SVG/1.1/DTD/svg11.dtd">
<svg xmlns:xlink="http://www.w3.org/1999/xlink" width="1440pt" height="720pt" viewBox="0 0 1440 720" xmlns="http://www.w3.org/2000/svg" version="1.1">
 <metadata>
  <rdf:RDF xmlns:dc="http://purl.org/dc/elements/1.1/" xmlns:cc="http://creativecommons.org/ns#" xmlns:rdf="http://www.w3.org/1999/02/22-rdf-syntax-ns#">
   <cc:Work>
    <dc:type rdf:resource="http://purl.org/dc/dcmitype/StillImage"/>
    <dc:date>2022-01-27T21:51:10.013760</dc:date>
    <dc:format>image/svg+xml</dc:format>
    <dc:creator>
     <cc:Agent>
      <dc:title>Matplotlib v3.5.0, https://matplotlib.org/</dc:title>
     </cc:Agent>
    </dc:creator>
   </cc:Work>
  </rdf:RDF>
 </metadata>
 <defs>
  <style type="text/css">*{stroke-linejoin: round; stroke-linecap: butt}</style>
 </defs>
 <g id="figure_1">
  <g id="patch_1">
   <path d="M 0 720 
L 1440 720 
L 1440 0 
L 0 0 
L 0 720 
z
" style="fill: none"/>
  </g>
  <g id="axes_1">
   <g id="patch_2">
    <path d="M 180 630 
L 1296 630 
L 1296 86.4 
L 180 86.4 
z
" style="fill: #ffffff"/>
   </g>
   <g id="PathCollection_1">
    <defs>
     <path id="m6fe1a1b875" d="M 0 3 
C 0.795609 3 1.55874 2.683901 2.12132 2.12132 
C 2.683901 1.55874 3 0.795609 3 0 
C 3 -0.795609 2.683901 -1.55874 2.12132 -2.12132 
C 1.55874 -2.683901 0.795609 -3 0 -3 
C -0.795609 -3 -1.55874 -2.683901 -2.12132 -2.12132 
C -2.683901 -1.55874 -3 -0.795609 -3 0 
C -3 0.795609 -2.683901 1.55874 -2.12132 2.12132 
C -1.55874 2.683901 -0.795609 3 0 3 
z
" style="stroke: #ff7f0e; stroke-opacity: 0.8"/>
    </defs>
    <g clip-path="url(#p93a0baec17)">
     <use xlink:href="#m6fe1a1b875" x="230.727273" y="507.750762" style="fill: #ff7f0e; fill-opacity: 0.8; stroke: #ff7f0e; stroke-opacity: 0.8"/>
     <use xlink:href="#m6fe1a1b875" x="249.86964" y="538.014422" style="fill: #ff7f0e; fill-opacity: 0.8; stroke: #ff7f0e; stroke-opacity: 0.8"/>
     <use xlink:href="#m6fe1a1b875" x="269.012007" y="575.374369" style="fill: #ff7f0e; fill-opacity: 0.8; stroke: #ff7f0e; stroke-opacity: 0.8"/>
     <use xlink:href="#m6fe1a1b875" x="288.154374" y="563.656802" style="fill: #ff7f0e; fill-opacity: 0.8; stroke: #ff7f0e; stroke-opacity: 0.8"/>
     <use xlink:href="#m6fe1a1b875" x="307.296741" y="576.833823" style="fill: #ff7f0e; fill-opacity: 0.8; stroke: #ff7f0e; stroke-opacity: 0.8"/>
     <use xlink:href="#m6fe1a1b875" x="326.439108" y="570.682116" style="fill: #ff7f0e; fill-opacity: 0.8; stroke: #ff7f0e; stroke-opacity: 0.8"/>
     <use xlink:href="#m6fe1a1b875" x="345.581475" y="555.483023" style="fill: #ff7f0e; fill-opacity: 0.8; stroke: #ff7f0e; stroke-opacity: 0.8"/>
     <use xlink:href="#m6fe1a1b875" x="364.723842" y="559.336833" style="fill: #ff7f0e; fill-opacity: 0.8; stroke: #ff7f0e; stroke-opacity: 0.8"/>
     <use xlink:href="#m6fe1a1b875" x="383.866209" y="499.630535" style="fill: #ff7f0e; fill-opacity: 0.8; stroke: #ff7f0e; stroke-opacity: 0.8"/>
     <use xlink:href="#m6fe1a1b875" x="403.008576" y="545.320078" style="fill: #ff7f0e; fill-opacity: 0.8; stroke: #ff7f0e; stroke-opacity: 0.8"/>
     <use xlink:href="#m6fe1a1b875" x="422.150943" y="605.290909" style="fill: #ff7f0e; fill-opacity: 0.8; stroke: #ff7f0e; stroke-opacity: 0.8"/>
     <use xlink:href="#m6fe1a1b875" x="441.29331" y="580.998621" style="fill: #ff7f0e; fill-opacity: 0.8; stroke: #ff7f0e; stroke-opacity: 0.8"/>
     <use xlink:href="#m6fe1a1b875" x="460.435678" y="563.063214" style="fill: #ff7f0e; fill-opacity: 0.8; stroke: #ff7f0e; stroke-opacity: 0.8"/>
     <use xlink:href="#m6fe1a1b875" x="479.578045" y="500.489626" style="fill: #ff7f0e; fill-opacity: 0.8; stroke: #ff7f0e; stroke-opacity: 0.8"/>
     <use xlink:href="#m6fe1a1b875" x="498.720412" y="531.452043" style="fill: #ff7f0e; fill-opacity: 0.8; stroke: #ff7f0e; stroke-opacity: 0.8"/>
     <use xlink:href="#m6fe1a1b875" x="517.862779" y="574.115897" style="fill: #ff7f0e; fill-opacity: 0.8; stroke: #ff7f0e; stroke-opacity: 0.8"/>
     <use xlink:href="#m6fe1a1b875" x="537.005146" y="539.863902" style="fill: #ff7f0e; fill-opacity: 0.8; stroke: #ff7f0e; stroke-opacity: 0.8"/>
     <use xlink:href="#m6fe1a1b875" x="556.147513" y="555.544963" style="fill: #ff7f0e; fill-opacity: 0.8; stroke: #ff7f0e; stroke-opacity: 0.8"/>
     <use xlink:href="#m6fe1a1b875" x="575.28988" y="111.109091" style="fill: #ff7f0e; fill-opacity: 0.8; stroke: #ff7f0e; stroke-opacity: 0.8"/>
     <use xlink:href="#m6fe1a1b875" x="594.432247" y="497.729116" style="fill: #ff7f0e; fill-opacity: 0.8; stroke: #ff7f0e; stroke-opacity: 0.8"/>
     <use xlink:href="#m6fe1a1b875" x="613.574614" y="573.750388" style="fill: #ff7f0e; fill-opacity: 0.8; stroke: #ff7f0e; stroke-opacity: 0.8"/>
     <use xlink:href="#m6fe1a1b875" x="632.716981" y="420.130319" style="fill: #ff7f0e; fill-opacity: 0.8; stroke: #ff7f0e; stroke-opacity: 0.8"/>
     <use xlink:href="#m6fe1a1b875" x="651.859348" y="603.906622" style="fill: #ff7f0e; fill-opacity: 0.8; stroke: #ff7f0e; stroke-opacity: 0.8"/>
     <use xlink:href="#m6fe1a1b875" x="671.001715" y="573.982985" style="fill: #ff7f0e; fill-opacity: 0.8; stroke: #ff7f0e; stroke-opacity: 0.8"/>
     <use xlink:href="#m6fe1a1b875" x="690.144082" y="578.537164" style="fill: #ff7f0e; fill-opacity: 0.8; stroke: #ff7f0e; stroke-opacity: 0.8"/>
     <use xlink:href="#m6fe1a1b875" x="709.286449" y="558.164818" style="fill: #ff7f0e; fill-opacity: 0.8; stroke: #ff7f0e; stroke-opacity: 0.8"/>
     <use xlink:href="#m6fe1a1b875" x="728.428816" y="547.627653" style="fill: #ff7f0e; fill-opacity: 0.8; stroke: #ff7f0e; stroke-opacity: 0.8"/>
     <use xlink:href="#m6fe1a1b875" x="747.571184" y="570.830836" style="fill: #ff7f0e; fill-opacity: 0.8; stroke: #ff7f0e; stroke-opacity: 0.8"/>
     <use xlink:href="#m6fe1a1b875" x="766.713551" y="582.608729" style="fill: #ff7f0e; fill-opacity: 0.8; stroke: #ff7f0e; stroke-opacity: 0.8"/>
     <use xlink:href="#m6fe1a1b875" x="785.855918" y="567.403185" style="fill: #ff7f0e; fill-opacity: 0.8; stroke: #ff7f0e; stroke-opacity: 0.8"/>
     <use xlink:href="#m6fe1a1b875" x="804.998285" y="553.166093" style="fill: #ff7f0e; fill-opacity: 0.8; stroke: #ff7f0e; stroke-opacity: 0.8"/>
     <use xlink:href="#m6fe1a1b875" x="824.140652" y="528.255698" style="fill: #ff7f0e; fill-opacity: 0.8; stroke: #ff7f0e; stroke-opacity: 0.8"/>
     <use xlink:href="#m6fe1a1b875" x="843.283019" y="587.018383" style="fill: #ff7f0e; fill-opacity: 0.8; stroke: #ff7f0e; stroke-opacity: 0.8"/>
     <use xlink:href="#m6fe1a1b875" x="862.425386" y="601.780994" style="fill: #ff7f0e; fill-opacity: 0.8; stroke: #ff7f0e; stroke-opacity: 0.8"/>
     <use xlink:href="#m6fe1a1b875" x="881.567753" y="518.195662" style="fill: #ff7f0e; fill-opacity: 0.8; stroke: #ff7f0e; stroke-opacity: 0.8"/>
     <use xlink:href="#m6fe1a1b875" x="900.71012" y="565.062059" style="fill: #ff7f0e; fill-opacity: 0.8; stroke: #ff7f0e; stroke-opacity: 0.8"/>
     <use xlink:href="#m6fe1a1b875" x="919.852487" y="365.417585" style="fill: #ff7f0e; fill-opacity: 0.8; stroke: #ff7f0e; stroke-opacity: 0.8"/>
     <use xlink:href="#m6fe1a1b875" x="938.994854" y="469.429137" style="fill: #ff7f0e; fill-opacity: 0.8; stroke: #ff7f0e; stroke-opacity: 0.8"/>
     <use xlink:href="#m6fe1a1b875" x="958.137221" y="593.938206" style="fill: #ff7f0e; fill-opacity: 0.8; stroke: #ff7f0e; stroke-opacity: 0.8"/>
     <use xlink:href="#m6fe1a1b875" x="977.279588" y="590.025038" style="fill: #ff7f0e; fill-opacity: 0.8; stroke: #ff7f0e; stroke-opacity: 0.8"/>
     <use xlink:href="#m6fe1a1b875" x="996.421955" y="581.149921" style="fill: #ff7f0e; fill-opacity: 0.8; stroke: #ff7f0e; stroke-opacity: 0.8"/>
     <use xlink:href="#m6fe1a1b875" x="1015.564322" y="559.037457" style="fill: #ff7f0e; fill-opacity: 0.8; stroke: #ff7f0e; stroke-opacity: 0.8"/>
     <use xlink:href="#m6fe1a1b875" x="1034.70669" y="594.754067" style="fill: #ff7f0e; fill-opacity: 0.8; stroke: #ff7f0e; stroke-opacity: 0.8"/>
     <use xlink:href="#m6fe1a1b875" x="1053.849057" y="501.561634" style="fill: #ff7f0e; fill-opacity: 0.8; stroke: #ff7f0e; stroke-opacity: 0.8"/>
     <use xlink:href="#m6fe1a1b875" x="1072.991424" y="574.894014" style="fill: #ff7f0e; fill-opacity: 0.8; stroke: #ff7f0e; stroke-opacity: 0.8"/>
     <use xlink:href="#m6fe1a1b875" x="1092.133791" y="565.18368" style="fill: #ff7f0e; fill-opacity: 0.8; stroke: #ff7f0e; stroke-opacity: 0.8"/>
     <use xlink:href="#m6fe1a1b875" x="1111.276158" y="544.187743" style="fill: #ff7f0e; fill-opacity: 0.8; stroke: #ff7f0e; stroke-opacity: 0.8"/>
     <use xlink:href="#m6fe1a1b875" x="1130.418525" y="546.57855" style="fill: #ff7f0e; fill-opacity: 0.8; stroke: #ff7f0e; stroke-opacity: 0.8"/>
     <use xlink:href="#m6fe1a1b875" x="1149.560892" y="576.816725" style="fill: #ff7f0e; fill-opacity: 0.8; stroke: #ff7f0e; stroke-opacity: 0.8"/>
     <use xlink:href="#m6fe1a1b875" x="1168.703259" y="605.031214" style="fill: #ff7f0e; fill-opacity: 0.8; stroke: #ff7f0e; stroke-opacity: 0.8"/>
     <use xlink:href="#m6fe1a1b875" x="1187.845626" y="518.734408" style="fill: #ff7f0e; fill-opacity: 0.8; stroke: #ff7f0e; stroke-opacity: 0.8"/>
     <use xlink:href="#m6fe1a1b875" x="1206.987993" y="564.272973" style="fill: #ff7f0e; fill-opacity: 0.8; stroke: #ff7f0e; stroke-opacity: 0.8"/>
     <use xlink:href="#m6fe1a1b875" x="1226.13036" y="604.858299" style="fill: #ff7f0e; fill-opacity: 0.8; stroke: #ff7f0e; stroke-opacity: 0.8"/>
     <use xlink:href="#m6fe1a1b875" x="1245.272727" y="575.315655" style="fill: #ff7f0e; fill-opacity: 0.8; stroke: #ff7f0e; stroke-opacity: 0.8"/>
    </g>
   </g>
   <g id="PolyCollection_1">
    <path d="M 230.727273 485.084598 
L 230.727273 559.676158 
L 240.975207 559.46951 
L 251.22314 559.262863 
L 261.471074 559.056216 
L 271.719008 558.888598 
L 281.966942 558.98678 
L 292.214876 558.902837 
L 302.46281 558.943463 
L 312.710744 558.931193 
L 322.958678 558.998914 
L 333.206612 558.957598 
L 343.454545 558.937507 
L 353.702479 558.79457 
L 363.950413 558.710974 
L 374.198347 558.627008 
L 384.446281 558.778303 
L 394.694215 558.858574 
L 404.942149 558.787248 
L 415.190083 558.820598 
L 425.438017 559.019208 
L 435.68595 559.044834 
L 445.933884 558.864851 
L 456.181818 558.777942 
L 466.429752 558.844232 
L 476.677686 558.928214 
L 486.92562 559.021981 
L 497.173554 559.014277 
L 507.421488 559.000681 
L 517.669421 559.113155 
L 527.917355 559.239111 
L 538.165289 559.376858 
L 548.413223 559.456003 
L 558.661157 559.56791 
L 568.909091 559.681117 
L 579.157025 559.766339 
L 589.404959 559.771783 
L 599.652893 559.82394 
L 609.900826 559.815358 
L 620.14876 559.951344 
L 630.396694 560.101898 
L 640.644628 560.171944 
L 650.892562 560.363342 
L 661.140496 560.417787 
L 671.38843 560.449492 
L 681.636364 560.487142 
L 691.884298 560.499376 
L 702.132231 560.625469 
L 712.380165 560.828263 
L 722.628099 561.164761 
L 732.876033 561.292553 
L 743.123967 561.538893 
L 753.371901 561.725894 
L 763.619835 561.884504 
L 773.867769 562.094262 
L 784.115702 562.345821 
L 794.363636 562.578359 
L 804.61157 563.010589 
L 814.859504 563.441173 
L 825.107438 563.782516 
L 835.355372 563.907814 
L 845.603306 563.931714 
L 855.85124 564.03535 
L 866.099174 564.276643 
L 876.347107 564.519693 
L 886.595041 564.764781 
L 896.842975 565.006529 
L 907.090909 565.310192 
L 917.338843 565.694154 
L 927.586777 566.069456 
L 937.834711 566.359375 
L 948.082645 566.540238 
L 958.330579 566.887493 
L 968.578512 567.286606 
L 978.826446 567.706345 
L 989.07438 568.091264 
L 999.322314 568.539737 
L 1009.570248 568.928565 
L 1019.818182 568.969817 
L 1030.066116 569.725349 
L 1040.31405 570.328096 
L 1050.561983 570.960635 
L 1060.809917 571.489812 
L 1071.057851 571.723354 
L 1081.305785 571.967873 
L 1091.553719 572.229298 
L 1101.801653 572.614911 
L 1112.049587 572.997252 
L 1122.297521 573.376798 
L 1132.545455 573.767945 
L 1142.793388 574.287931 
L 1153.041322 574.90952 
L 1163.289256 575.490729 
L 1173.53719 576.100603 
L 1183.785124 576.606416 
L 1194.033058 577.051188 
L 1204.280992 577.924596 
L 1214.528926 578.58592 
L 1224.77686 578.870499 
L 1235.024793 579.235627 
L 1245.272727 579.565938 
L 1245.272727 530.764145 
L 1245.272727 530.764145 
L 1235.024793 530.993747 
L 1224.77686 531.307841 
L 1214.528926 531.444586 
L 1204.280992 531.591602 
L 1194.033058 531.635896 
L 1183.785124 531.677247 
L 1173.53719 531.718598 
L 1163.289256 531.759949 
L 1153.041322 531.8013 
L 1142.793388 531.842652 
L 1132.545455 531.884003 
L 1122.297521 531.694517 
L 1112.049587 531.494655 
L 1101.801653 531.491302 
L 1091.553719 531.21371 
L 1081.305785 531.257994 
L 1071.057851 531.281973 
L 1060.809917 530.979697 
L 1050.561983 530.679336 
L 1040.31405 530.455908 
L 1030.066116 530.291354 
L 1019.818182 530.01117 
L 1009.570248 529.885905 
L 999.322314 529.91693 
L 989.07438 529.884959 
L 978.826446 529.943285 
L 968.578512 529.993041 
L 958.330579 529.701342 
L 948.082645 529.139785 
L 937.834711 529.092482 
L 927.586777 528.938975 
L 917.338843 528.787143 
L 907.090909 528.677562 
L 896.842975 528.623691 
L 886.595041 527.849872 
L 876.347107 527.308934 
L 866.099174 526.954586 
L 855.85124 526.627038 
L 845.603306 526.380849 
L 835.355372 525.946817 
L 825.107438 525.561526 
L 814.859504 525.240168 
L 804.61157 524.889624 
L 794.363636 524.251588 
L 784.115702 523.517227 
L 773.867769 522.848132 
L 763.619835 522.332626 
L 753.371901 521.973741 
L 743.123967 521.562831 
L 732.876033 521.257226 
L 722.628099 520.665599 
L 712.380165 520.146286 
L 702.132231 519.659531 
L 691.884298 518.648793 
L 681.636364 517.538188 
L 671.38843 516.671489 
L 661.140496 515.973779 
L 650.892562 515.295524 
L 640.644628 514.697917 
L 630.396694 514.186066 
L 620.14876 513.674216 
L 609.900826 513.162365 
L 599.652893 512.650514 
L 589.404959 512.058111 
L 579.157025 511.11231 
L 568.909091 510.180213 
L 558.661157 509.532712 
L 548.413223 508.885211 
L 538.165289 508.23771 
L 527.917355 507.590209 
L 517.669421 506.467518 
L 507.421488 505.234998 
L 497.173554 504.002477 
L 486.92562 502.800183 
L 476.677686 502.271494 
L 466.429752 501.751274 
L 456.181818 501.231054 
L 445.933884 500.710834 
L 435.68595 500.190613 
L 425.438017 499.671294 
L 415.190083 499.152041 
L 404.942149 498.632788 
L 394.694215 497.854553 
L 384.446281 497.056431 
L 374.198347 496.258309 
L 363.950413 495.460186 
L 353.702479 494.662064 
L 343.454545 493.863942 
L 333.206612 493.06582 
L 322.958678 492.267698 
L 312.710744 491.469575 
L 302.46281 490.671453 
L 292.214876 489.873331 
L 281.966942 489.075209 
L 271.719008 488.277087 
L 261.471074 487.478965 
L 251.22314 486.680842 
L 240.975207 485.88272 
L 230.727273 485.084598 
z
" clip-path="url(#p93a0baec17)" style="fill: #ff7f0e; fill-opacity: 0.15"/>
   </g>
   <g id="matplotlib.axis_1">
    <g id="xtick_1">
     <g id="line2d_1">
      <defs>
       <path id="m1b48510f17" d="M 0 0 
L 0 3.5 
" style="stroke: #000000; stroke-width: 0.8"/>
      </defs>
      <g>
       <use xlink:href="#m1b48510f17" x="211.584906" y="630" style="stroke: #000000; stroke-width: 0.8"/>
      </g>
     </g>
     <g id="text_1">
      <!-- 0 -->
      <g transform="translate(208.403656 644.598438)scale(0.1 -0.1)">
       <defs>
        <path id="DejaVuSans-30" d="M 2034 4250 
Q 1547 4250 1301 3770 
Q 1056 3291 1056 2328 
Q 1056 1369 1301 889 
Q 1547 409 2034 409 
Q 2525 409 2770 889 
Q 3016 1369 3016 2328 
Q 3016 3291 2770 3770 
Q 2525 4250 2034 4250 
z
M 2034 4750 
Q 2819 4750 3233 4129 
Q 3647 3509 3647 2328 
Q 3647 1150 3233 529 
Q 2819 -91 2034 -91 
Q 1250 -91 836 529 
Q 422 1150 422 2328 
Q 422 3509 836 4129 
Q 1250 4750 2034 4750 
z
" transform="scale(0.015625)"/>
       </defs>
       <use xlink:href="#DejaVuSans-30"/>
      </g>
     </g>
    </g>
    <g id="xtick_2">
     <g id="line2d_2">
      <g>
       <use xlink:href="#m1b48510f17" x="556.147513" y="630" style="stroke: #000000; stroke-width: 0.8"/>
      </g>
     </g>
     <g id="text_2">
      <!-- 18 -->
      <g transform="translate(549.785013 644.598438)scale(0.1 -0.1)">
       <defs>
        <path id="DejaVuSans-31" d="M 794 531 
L 1825 531 
L 1825 4091 
L 703 3866 
L 703 4441 
L 1819 4666 
L 2450 4666 
L 2450 531 
L 3481 531 
L 3481 0 
L 794 0 
L 794 531 
z
" transform="scale(0.015625)"/>
        <path id="DejaVuSans-38" d="M 2034 2216 
Q 1584 2216 1326 1975 
Q 1069 1734 1069 1313 
Q 1069 891 1326 650 
Q 1584 409 2034 409 
Q 2484 409 2743 651 
Q 3003 894 3003 1313 
Q 3003 1734 2745 1975 
Q 2488 2216 2034 2216 
z
M 1403 2484 
Q 997 2584 770 2862 
Q 544 3141 544 3541 
Q 544 4100 942 4425 
Q 1341 4750 2034 4750 
Q 2731 4750 3128 4425 
Q 3525 4100 3525 3541 
Q 3525 3141 3298 2862 
Q 3072 2584 2669 2484 
Q 3125 2378 3379 2068 
Q 3634 1759 3634 1313 
Q 3634 634 3220 271 
Q 2806 -91 2034 -91 
Q 1263 -91 848 271 
Q 434 634 434 1313 
Q 434 1759 690 2068 
Q 947 2378 1403 2484 
z
M 1172 3481 
Q 1172 3119 1398 2916 
Q 1625 2713 2034 2713 
Q 2441 2713 2670 2916 
Q 2900 3119 2900 3481 
Q 2900 3844 2670 4047 
Q 2441 4250 2034 4250 
Q 1625 4250 1398 4047 
Q 1172 3844 1172 3481 
z
" transform="scale(0.015625)"/>
       </defs>
       <use xlink:href="#DejaVuSans-31"/>
       <use xlink:href="#DejaVuSans-38" x="63.623047"/>
      </g>
     </g>
    </g>
    <g id="xtick_3">
     <g id="line2d_3">
      <g>
       <use xlink:href="#m1b48510f17" x="900.71012" y="630" style="stroke: #000000; stroke-width: 0.8"/>
      </g>
     </g>
     <g id="text_3">
      <!-- 36 -->
      <g transform="translate(894.34762 644.598438)scale(0.1 -0.1)">
       <defs>
        <path id="DejaVuSans-33" d="M 2597 2516 
Q 3050 2419 3304 2112 
Q 3559 1806 3559 1356 
Q 3559 666 3084 287 
Q 2609 -91 1734 -91 
Q 1441 -91 1130 -33 
Q 819 25 488 141 
L 488 750 
Q 750 597 1062 519 
Q 1375 441 1716 441 
Q 2309 441 2620 675 
Q 2931 909 2931 1356 
Q 2931 1769 2642 2001 
Q 2353 2234 1838 2234 
L 1294 2234 
L 1294 2753 
L 1863 2753 
Q 2328 2753 2575 2939 
Q 2822 3125 2822 3475 
Q 2822 3834 2567 4026 
Q 2313 4219 1838 4219 
Q 1578 4219 1281 4162 
Q 984 4106 628 3988 
L 628 4550 
Q 988 4650 1302 4700 
Q 1616 4750 1894 4750 
Q 2613 4750 3031 4423 
Q 3450 4097 3450 3541 
Q 3450 3153 3228 2886 
Q 3006 2619 2597 2516 
z
" transform="scale(0.015625)"/>
        <path id="DejaVuSans-36" d="M 2113 2584 
Q 1688 2584 1439 2293 
Q 1191 2003 1191 1497 
Q 1191 994 1439 701 
Q 1688 409 2113 409 
Q 2538 409 2786 701 
Q 3034 994 3034 1497 
Q 3034 2003 2786 2293 
Q 2538 2584 2113 2584 
z
M 3366 4563 
L 3366 3988 
Q 3128 4100 2886 4159 
Q 2644 4219 2406 4219 
Q 1781 4219 1451 3797 
Q 1122 3375 1075 2522 
Q 1259 2794 1537 2939 
Q 1816 3084 2150 3084 
Q 2853 3084 3261 2657 
Q 3669 2231 3669 1497 
Q 3669 778 3244 343 
Q 2819 -91 2113 -91 
Q 1303 -91 875 529 
Q 447 1150 447 2328 
Q 447 3434 972 4092 
Q 1497 4750 2381 4750 
Q 2619 4750 2861 4703 
Q 3103 4656 3366 4563 
z
" transform="scale(0.015625)"/>
       </defs>
       <use xlink:href="#DejaVuSans-33"/>
       <use xlink:href="#DejaVuSans-36" x="63.623047"/>
      </g>
     </g>
    </g>
    <g id="xtick_4">
     <g id="line2d_4">
      <g>
       <use xlink:href="#m1b48510f17" x="1245.272727" y="630" style="stroke: #000000; stroke-width: 0.8"/>
      </g>
     </g>
     <g id="text_4">
      <!-- 54 -->
      <g transform="translate(1238.910227 644.598438)scale(0.1 -0.1)">
       <defs>
        <path id="DejaVuSans-35" d="M 691 4666 
L 3169 4666 
L 3169 4134 
L 1269 4134 
L 1269 2991 
Q 1406 3038 1543 3061 
Q 1681 3084 1819 3084 
Q 2600 3084 3056 2656 
Q 3513 2228 3513 1497 
Q 3513 744 3044 326 
Q 2575 -91 1722 -91 
Q 1428 -91 1123 -41 
Q 819 9 494 109 
L 494 744 
Q 775 591 1075 516 
Q 1375 441 1709 441 
Q 2250 441 2565 725 
Q 2881 1009 2881 1497 
Q 2881 1984 2565 2268 
Q 2250 2553 1709 2553 
Q 1456 2553 1204 2497 
Q 953 2441 691 2322 
L 691 4666 
z
" transform="scale(0.015625)"/>
        <path id="DejaVuSans-34" d="M 2419 4116 
L 825 1625 
L 2419 1625 
L 2419 4116 
z
M 2253 4666 
L 3047 4666 
L 3047 1625 
L 3713 1625 
L 3713 1100 
L 3047 1100 
L 3047 0 
L 2419 0 
L 2419 1100 
L 313 1100 
L 313 1709 
L 2253 4666 
z
" transform="scale(0.015625)"/>
       </defs>
       <use xlink:href="#DejaVuSans-35"/>
       <use xlink:href="#DejaVuSans-34" x="63.623047"/>
      </g>
     </g>
    </g>
    <g id="text_5">
     <!-- Task Index -->
     <g transform="translate(711.851562 658.276562)scale(0.1 -0.1)">
      <defs>
       <path id="DejaVuSans-54" d="M -19 4666 
L 3928 4666 
L 3928 4134 
L 2272 4134 
L 2272 0 
L 1638 0 
L 1638 4134 
L -19 4134 
L -19 4666 
z
" transform="scale(0.015625)"/>
       <path id="DejaVuSans-61" d="M 2194 1759 
Q 1497 1759 1228 1600 
Q 959 1441 959 1056 
Q 959 750 1161 570 
Q 1363 391 1709 391 
Q 2188 391 2477 730 
Q 2766 1069 2766 1631 
L 2766 1759 
L 2194 1759 
z
M 3341 1997 
L 3341 0 
L 2766 0 
L 2766 531 
Q 2569 213 2275 61 
Q 1981 -91 1556 -91 
Q 1019 -91 701 211 
Q 384 513 384 1019 
Q 384 1609 779 1909 
Q 1175 2209 1959 2209 
L 2766 2209 
L 2766 2266 
Q 2766 2663 2505 2880 
Q 2244 3097 1772 3097 
Q 1472 3097 1187 3025 
Q 903 2953 641 2809 
L 641 3341 
Q 956 3463 1253 3523 
Q 1550 3584 1831 3584 
Q 2591 3584 2966 3190 
Q 3341 2797 3341 1997 
z
" transform="scale(0.015625)"/>
       <path id="DejaVuSans-73" d="M 2834 3397 
L 2834 2853 
Q 2591 2978 2328 3040 
Q 2066 3103 1784 3103 
Q 1356 3103 1142 2972 
Q 928 2841 928 2578 
Q 928 2378 1081 2264 
Q 1234 2150 1697 2047 
L 1894 2003 
Q 2506 1872 2764 1633 
Q 3022 1394 3022 966 
Q 3022 478 2636 193 
Q 2250 -91 1575 -91 
Q 1294 -91 989 -36 
Q 684 19 347 128 
L 347 722 
Q 666 556 975 473 
Q 1284 391 1588 391 
Q 1994 391 2212 530 
Q 2431 669 2431 922 
Q 2431 1156 2273 1281 
Q 2116 1406 1581 1522 
L 1381 1569 
Q 847 1681 609 1914 
Q 372 2147 372 2553 
Q 372 3047 722 3315 
Q 1072 3584 1716 3584 
Q 2034 3584 2315 3537 
Q 2597 3491 2834 3397 
z
" transform="scale(0.015625)"/>
       <path id="DejaVuSans-6b" d="M 581 4863 
L 1159 4863 
L 1159 1991 
L 2875 3500 
L 3609 3500 
L 1753 1863 
L 3688 0 
L 2938 0 
L 1159 1709 
L 1159 0 
L 581 0 
L 581 4863 
z
" transform="scale(0.015625)"/>
       <path id="DejaVuSans-20" transform="scale(0.015625)"/>
       <path id="DejaVuSans-49" d="M 628 4666 
L 1259 4666 
L 1259 0 
L 628 0 
L 628 4666 
z
" transform="scale(0.015625)"/>
       <path id="DejaVuSans-6e" d="M 3513 2113 
L 3513 0 
L 2938 0 
L 2938 2094 
Q 2938 2591 2744 2837 
Q 2550 3084 2163 3084 
Q 1697 3084 1428 2787 
Q 1159 2491 1159 1978 
L 1159 0 
L 581 0 
L 581 3500 
L 1159 3500 
L 1159 2956 
Q 1366 3272 1645 3428 
Q 1925 3584 2291 3584 
Q 2894 3584 3203 3211 
Q 3513 2838 3513 2113 
z
" transform="scale(0.015625)"/>
       <path id="DejaVuSans-64" d="M 2906 2969 
L 2906 4863 
L 3481 4863 
L 3481 0 
L 2906 0 
L 2906 525 
Q 2725 213 2448 61 
Q 2172 -91 1784 -91 
Q 1150 -91 751 415 
Q 353 922 353 1747 
Q 353 2572 751 3078 
Q 1150 3584 1784 3584 
Q 2172 3584 2448 3432 
Q 2725 3281 2906 2969 
z
M 947 1747 
Q 947 1113 1208 752 
Q 1469 391 1925 391 
Q 2381 391 2643 752 
Q 2906 1113 2906 1747 
Q 2906 2381 2643 2742 
Q 2381 3103 1925 3103 
Q 1469 3103 1208 2742 
Q 947 2381 947 1747 
z
" transform="scale(0.015625)"/>
       <path id="DejaVuSans-65" d="M 3597 1894 
L 3597 1613 
L 953 1613 
Q 991 1019 1311 708 
Q 1631 397 2203 397 
Q 2534 397 2845 478 
Q 3156 559 3463 722 
L 3463 178 
Q 3153 47 2828 -22 
Q 2503 -91 2169 -91 
Q 1331 -91 842 396 
Q 353 884 353 1716 
Q 353 2575 817 3079 
Q 1281 3584 2069 3584 
Q 2775 3584 3186 3129 
Q 3597 2675 3597 1894 
z
M 3022 2063 
Q 3016 2534 2758 2815 
Q 2500 3097 2075 3097 
Q 1594 3097 1305 2825 
Q 1016 2553 972 2059 
L 3022 2063 
z
" transform="scale(0.015625)"/>
       <path id="DejaVuSans-78" d="M 3513 3500 
L 2247 1797 
L 3578 0 
L 2900 0 
L 1881 1375 
L 863 0 
L 184 0 
L 1544 1831 
L 300 3500 
L 978 3500 
L 1906 2253 
L 2834 3500 
L 3513 3500 
z
" transform="scale(0.015625)"/>
      </defs>
      <use xlink:href="#DejaVuSans-54"/>
      <use xlink:href="#DejaVuSans-61" x="44.583984"/>
      <use xlink:href="#DejaVuSans-73" x="105.863281"/>
      <use xlink:href="#DejaVuSans-6b" x="157.962891"/>
      <use xlink:href="#DejaVuSans-20" x="215.873047"/>
      <use xlink:href="#DejaVuSans-49" x="247.660156"/>
      <use xlink:href="#DejaVuSans-6e" x="277.152344"/>
      <use xlink:href="#DejaVuSans-64" x="340.53125"/>
      <use xlink:href="#DejaVuSans-65" x="404.007812"/>
      <use xlink:href="#DejaVuSans-78" x="463.78125"/>
     </g>
    </g>
   </g>
   <g id="matplotlib.axis_2">
    <g id="ytick_1">
     <g id="line2d_5">
      <defs>
       <path id="mc47b492ae3" d="M 0 0 
L -3.5 0 
" style="stroke: #000000; stroke-width: 0.8"/>
      </defs>
      <g>
       <use xlink:href="#mc47b492ae3" x="180" y="592.052917" style="stroke: #000000; stroke-width: 0.8"/>
      </g>
     </g>
     <g id="text_6">
      <!-- 8 -->
      <g transform="translate(166.6375 595.852136)scale(0.1 -0.1)">
       <use xlink:href="#DejaVuSans-38"/>
      </g>
     </g>
    </g>
    <g id="ytick_2">
     <g id="line2d_6">
      <g>
       <use xlink:href="#mc47b492ae3" x="180" y="517.854349" style="stroke: #000000; stroke-width: 0.8"/>
      </g>
     </g>
     <g id="text_7">
      <!-- 10 -->
      <g transform="translate(160.275 521.653568)scale(0.1 -0.1)">
       <use xlink:href="#DejaVuSans-31"/>
       <use xlink:href="#DejaVuSans-30" x="63.623047"/>
      </g>
     </g>
    </g>
    <g id="ytick_3">
     <g id="line2d_7">
      <g>
       <use xlink:href="#mc47b492ae3" x="180" y="443.655781" style="stroke: #000000; stroke-width: 0.8"/>
      </g>
     </g>
     <g id="text_8">
      <!-- 12 -->
      <g transform="translate(160.275 447.455)scale(0.1 -0.1)">
       <defs>
        <path id="DejaVuSans-32" d="M 1228 531 
L 3431 531 
L 3431 0 
L 469 0 
L 469 531 
Q 828 903 1448 1529 
Q 2069 2156 2228 2338 
Q 2531 2678 2651 2914 
Q 2772 3150 2772 3378 
Q 2772 3750 2511 3984 
Q 2250 4219 1831 4219 
Q 1534 4219 1204 4116 
Q 875 4013 500 3803 
L 500 4441 
Q 881 4594 1212 4672 
Q 1544 4750 1819 4750 
Q 2544 4750 2975 4387 
Q 3406 4025 3406 3419 
Q 3406 3131 3298 2873 
Q 3191 2616 2906 2266 
Q 2828 2175 2409 1742 
Q 1991 1309 1228 531 
z
" transform="scale(0.015625)"/>
       </defs>
       <use xlink:href="#DejaVuSans-31"/>
       <use xlink:href="#DejaVuSans-32" x="63.623047"/>
      </g>
     </g>
    </g>
    <g id="ytick_4">
     <g id="line2d_8">
      <g>
       <use xlink:href="#mc47b492ae3" x="180" y="369.457213" style="stroke: #000000; stroke-width: 0.8"/>
      </g>
     </g>
     <g id="text_9">
      <!-- 14 -->
      <g transform="translate(160.275 373.256432)scale(0.1 -0.1)">
       <use xlink:href="#DejaVuSans-31"/>
       <use xlink:href="#DejaVuSans-34" x="63.623047"/>
      </g>
     </g>
    </g>
    <g id="ytick_5">
     <g id="line2d_9">
      <g>
       <use xlink:href="#mc47b492ae3" x="180" y="295.258645" style="stroke: #000000; stroke-width: 0.8"/>
      </g>
     </g>
     <g id="text_10">
      <!-- 16 -->
      <g transform="translate(160.275 299.057864)scale(0.1 -0.1)">
       <use xlink:href="#DejaVuSans-31"/>
       <use xlink:href="#DejaVuSans-36" x="63.623047"/>
      </g>
     </g>
    </g>
    <g id="ytick_6">
     <g id="line2d_10">
      <g>
       <use xlink:href="#mc47b492ae3" x="180" y="221.060077" style="stroke: #000000; stroke-width: 0.8"/>
      </g>
     </g>
     <g id="text_11">
      <!-- 18 -->
      <g transform="translate(160.275 224.859296)scale(0.1 -0.1)">
       <use xlink:href="#DejaVuSans-31"/>
       <use xlink:href="#DejaVuSans-38" x="63.623047"/>
      </g>
     </g>
    </g>
    <g id="ytick_7">
     <g id="line2d_11">
      <g>
       <use xlink:href="#mc47b492ae3" x="180" y="146.86151" style="stroke: #000000; stroke-width: 0.8"/>
      </g>
     </g>
     <g id="text_12">
      <!-- 20 -->
      <g transform="translate(160.275 150.660728)scale(0.1 -0.1)">
       <use xlink:href="#DejaVuSans-32"/>
       <use xlink:href="#DejaVuSans-30" x="63.623047"/>
      </g>
     </g>
    </g>
    <g id="text_13">
     <!-- Duration (s) -->
     <g transform="translate(154.195312 388.010938)rotate(-90)scale(0.1 -0.1)">
      <defs>
       <path id="DejaVuSans-44" d="M 1259 4147 
L 1259 519 
L 2022 519 
Q 2988 519 3436 956 
Q 3884 1394 3884 2338 
Q 3884 3275 3436 3711 
Q 2988 4147 2022 4147 
L 1259 4147 
z
M 628 4666 
L 1925 4666 
Q 3281 4666 3915 4102 
Q 4550 3538 4550 2338 
Q 4550 1131 3912 565 
Q 3275 0 1925 0 
L 628 0 
L 628 4666 
z
" transform="scale(0.015625)"/>
       <path id="DejaVuSans-75" d="M 544 1381 
L 544 3500 
L 1119 3500 
L 1119 1403 
Q 1119 906 1312 657 
Q 1506 409 1894 409 
Q 2359 409 2629 706 
Q 2900 1003 2900 1516 
L 2900 3500 
L 3475 3500 
L 3475 0 
L 2900 0 
L 2900 538 
Q 2691 219 2414 64 
Q 2138 -91 1772 -91 
Q 1169 -91 856 284 
Q 544 659 544 1381 
z
M 1991 3584 
L 1991 3584 
z
" transform="scale(0.015625)"/>
       <path id="DejaVuSans-72" d="M 2631 2963 
Q 2534 3019 2420 3045 
Q 2306 3072 2169 3072 
Q 1681 3072 1420 2755 
Q 1159 2438 1159 1844 
L 1159 0 
L 581 0 
L 581 3500 
L 1159 3500 
L 1159 2956 
Q 1341 3275 1631 3429 
Q 1922 3584 2338 3584 
Q 2397 3584 2469 3576 
Q 2541 3569 2628 3553 
L 2631 2963 
z
" transform="scale(0.015625)"/>
       <path id="DejaVuSans-74" d="M 1172 4494 
L 1172 3500 
L 2356 3500 
L 2356 3053 
L 1172 3053 
L 1172 1153 
Q 1172 725 1289 603 
Q 1406 481 1766 481 
L 2356 481 
L 2356 0 
L 1766 0 
Q 1100 0 847 248 
Q 594 497 594 1153 
L 594 3053 
L 172 3053 
L 172 3500 
L 594 3500 
L 594 4494 
L 1172 4494 
z
" transform="scale(0.015625)"/>
       <path id="DejaVuSans-69" d="M 603 3500 
L 1178 3500 
L 1178 0 
L 603 0 
L 603 3500 
z
M 603 4863 
L 1178 4863 
L 1178 4134 
L 603 4134 
L 603 4863 
z
" transform="scale(0.015625)"/>
       <path id="DejaVuSans-6f" d="M 1959 3097 
Q 1497 3097 1228 2736 
Q 959 2375 959 1747 
Q 959 1119 1226 758 
Q 1494 397 1959 397 
Q 2419 397 2687 759 
Q 2956 1122 2956 1747 
Q 2956 2369 2687 2733 
Q 2419 3097 1959 3097 
z
M 1959 3584 
Q 2709 3584 3137 3096 
Q 3566 2609 3566 1747 
Q 3566 888 3137 398 
Q 2709 -91 1959 -91 
Q 1206 -91 779 398 
Q 353 888 353 1747 
Q 353 2609 779 3096 
Q 1206 3584 1959 3584 
z
" transform="scale(0.015625)"/>
       <path id="DejaVuSans-28" d="M 1984 4856 
Q 1566 4138 1362 3434 
Q 1159 2731 1159 2009 
Q 1159 1288 1364 580 
Q 1569 -128 1984 -844 
L 1484 -844 
Q 1016 -109 783 600 
Q 550 1309 550 2009 
Q 550 2706 781 3412 
Q 1013 4119 1484 4856 
L 1984 4856 
z
" transform="scale(0.015625)"/>
       <path id="DejaVuSans-29" d="M 513 4856 
L 1013 4856 
Q 1481 4119 1714 3412 
Q 1947 2706 1947 2009 
Q 1947 1309 1714 600 
Q 1481 -109 1013 -844 
L 513 -844 
Q 928 -128 1133 580 
Q 1338 1288 1338 2009 
Q 1338 2731 1133 3434 
Q 928 4138 513 4856 
z
" transform="scale(0.015625)"/>
      </defs>
      <use xlink:href="#DejaVuSans-44"/>
      <use xlink:href="#DejaVuSans-75" x="77.001953"/>
      <use xlink:href="#DejaVuSans-72" x="140.380859"/>
      <use xlink:href="#DejaVuSans-61" x="181.494141"/>
      <use xlink:href="#DejaVuSans-74" x="242.773438"/>
      <use xlink:href="#DejaVuSans-69" x="281.982422"/>
      <use xlink:href="#DejaVuSans-6f" x="309.765625"/>
      <use xlink:href="#DejaVuSans-6e" x="370.947266"/>
      <use xlink:href="#DejaVuSans-20" x="434.326172"/>
      <use xlink:href="#DejaVuSans-28" x="466.113281"/>
      <use xlink:href="#DejaVuSans-73" x="505.126953"/>
      <use xlink:href="#DejaVuSans-29" x="557.226562"/>
     </g>
    </g>
   </g>
   <g id="line2d_12">
    <path d="M 230.727273 507.750762 
L 249.86964 538.014422 
L 269.012007 575.374369 
L 288.154374 563.656802 
L 307.296741 576.833823 
L 326.439108 570.682116 
L 345.581475 555.483023 
L 364.723842 559.336833 
L 383.866209 499.630535 
L 403.008576 545.320078 
L 422.150943 605.290909 
L 441.29331 580.998621 
L 460.435678 563.063214 
L 479.578045 500.489626 
L 498.720412 531.452043 
L 517.862779 574.115897 
L 537.005146 539.863902 
L 556.147513 555.544963 
L 575.28988 111.109091 
L 594.432247 497.729116 
L 613.574614 573.750388 
L 632.716981 420.130319 
L 651.859348 603.906622 
L 671.001715 573.982985 
L 690.144082 578.537164 
L 709.286449 558.164818 
L 728.428816 547.627653 
L 747.571184 570.830836 
L 766.713551 582.608729 
L 785.855918 567.403185 
L 804.998285 553.166093 
L 824.140652 528.255698 
L 843.283019 587.018383 
L 862.425386 601.780994 
L 881.567753 518.195662 
L 900.71012 565.062059 
L 919.852487 365.417585 
L 938.994854 469.429137 
L 958.137221 593.938206 
L 977.279588 590.025038 
L 996.421955 581.149921 
L 1015.564322 559.037457 
L 1034.70669 594.754067 
L 1053.849057 501.561634 
L 1072.991424 574.894014 
L 1092.133791 565.18368 
L 1111.276158 544.187743 
L 1130.418525 546.57855 
L 1149.560892 576.816725 
L 1168.703259 605.031214 
L 1187.845626 518.734408 
L 1206.987993 564.272973 
L 1226.13036 604.858299 
L 1245.272727 575.315655 
" clip-path="url(#p93a0baec17)" style="fill: none; stroke-dasharray: 1.5,2.475; stroke-dashoffset: 0; stroke: #1f77b4; stroke-width: 1.5"/>
   </g>
   <g id="line2d_13">
    <path d="M 230.727273 530.84945 
L 240.975207 531.12909 
L 251.22314 531.40873 
L 261.471074 531.68837 
L 271.719008 531.96801 
L 281.966942 532.24765 
L 292.214876 532.52729 
L 302.46281 532.80693 
L 312.710744 533.08657 
L 322.958678 533.36621 
L 333.206612 533.64585 
L 343.454545 533.92549 
L 353.702479 534.20513 
L 363.950413 534.48477 
L 374.198347 534.76441 
L 384.446281 535.04405 
L 394.694215 535.32369 
L 404.942149 535.60333 
L 415.190083 535.88297 
L 425.438017 536.16261 
L 435.68595 536.44225 
L 445.933884 536.72189 
L 456.181818 537.00153 
L 466.429752 537.28117 
L 476.677686 537.56081 
L 486.92562 537.84045 
L 497.173554 538.12009 
L 507.421488 538.39973 
L 517.669421 538.67937 
L 527.917355 538.95901 
L 538.165289 539.23865 
L 548.413223 539.51829 
L 558.661157 539.79793 
L 568.909091 540.07757 
L 579.157025 540.35721 
L 589.404959 540.63685 
L 599.652893 540.91649 
L 609.900826 541.19613 
L 620.14876 541.47577 
L 630.396694 541.75541 
L 640.644628 542.03505 
L 650.892562 542.31469 
L 661.140496 542.59433 
L 671.38843 542.87397 
L 681.636364 543.15361 
L 691.884298 543.43325 
L 702.132231 543.71289 
L 712.380165 543.99253 
L 722.628099 544.27217 
L 732.876033 544.55181 
L 743.123967 544.83145 
L 753.371901 545.11109 
L 763.619835 545.39073 
L 773.867769 545.67037 
L 784.115702 545.95001 
L 794.363636 546.22965 
L 804.61157 546.50929 
L 814.859504 546.78893 
L 825.107438 547.06857 
L 835.355372 547.34821 
L 845.603306 547.62785 
L 855.85124 547.90749 
L 866.099174 548.18713 
L 876.347107 548.46677 
L 886.595041 548.74641 
L 896.842975 549.02605 
L 907.090909 549.30569 
L 917.338843 549.58533 
L 927.586777 549.86497 
L 937.834711 550.14461 
L 948.082645 550.42425 
L 958.330579 550.70389 
L 968.578512 550.98353 
L 978.826446 551.26317 
L 989.07438 551.54281 
L 999.322314 551.82245 
L 1009.570248 552.10209 
L 1019.818182 552.38173 
L 1030.066116 552.66137 
L 1040.31405 552.94101 
L 1050.561983 553.22065 
L 1060.809917 553.50029 
L 1071.057851 553.77993 
L 1081.305785 554.05957 
L 1091.553719 554.33921 
L 1101.801653 554.61885 
L 1112.049587 554.89849 
L 1122.297521 555.17813 
L 1132.545455 555.45777 
L 1142.793388 555.73741 
L 1153.041322 556.01705 
L 1163.289256 556.29669 
L 1173.53719 556.57633 
L 1183.785124 556.855971 
L 1194.033058 557.135611 
L 1204.280992 557.415251 
L 1214.528926 557.694891 
L 1224.77686 557.974531 
L 1235.024793 558.254171 
L 1245.272727 558.533811 
" clip-path="url(#p93a0baec17)" style="fill: none; stroke: #ff7f0e; stroke-width: 2.25; stroke-linecap: square"/>
   </g>
   <g id="patch_3">
    <path d="M 180 630 
L 180 86.4 
" style="fill: none; stroke: #000000; stroke-width: 0.8; stroke-linejoin: miter; stroke-linecap: square"/>
   </g>
   <g id="patch_4">
    <path d="M 1296 630 
L 1296 86.4 
" style="fill: none; stroke: #000000; stroke-width: 0.8; stroke-linejoin: miter; stroke-linecap: square"/>
   </g>
   <g id="patch_5">
    <path d="M 180 630 
L 1296 630 
" style="fill: none; stroke: #000000; stroke-width: 0.8; stroke-linejoin: miter; stroke-linecap: square"/>
   </g>
   <g id="patch_6">
    <path d="M 180 86.4 
L 1296 86.4 
" style="fill: none; stroke: #000000; stroke-width: 0.8; stroke-linejoin: miter; stroke-linecap: square"/>
   </g>
   <g id="legend_1">
    <g id="patch_7">
     <path d="M 1169.014062 123.75625 
L 1289 123.75625 
Q 1291 123.75625 1291 121.75625 
L 1291 93.4 
Q 1291 91.4 1289 91.4 
L 1169.014062 91.4 
Q 1167.014062 91.4 1167.014062 93.4 
L 1167.014062 121.75625 
Q 1167.014062 123.75625 1169.014062 123.75625 
z
" style="fill: #ffffff; opacity: 0.8; stroke: #cccccc; stroke-linejoin: miter"/>
    </g>
    <g id="line2d_14">
     <path d="M 1171.014062 99.498437 
L 1181.014062 99.498437 
L 1191.014062 99.498437 
" style="fill: none; stroke-dasharray: 1.5,2.475; stroke-dashoffset: 0; stroke: #1f77b4; stroke-width: 1.5"/>
    </g>
    <g id="text_14">
     <!-- mean -->
     <g transform="translate(1199.014062 102.998437)scale(0.1 -0.1)">
      <defs>
       <path id="DejaVuSans-6d" d="M 3328 2828 
Q 3544 3216 3844 3400 
Q 4144 3584 4550 3584 
Q 5097 3584 5394 3201 
Q 5691 2819 5691 2113 
L 5691 0 
L 5113 0 
L 5113 2094 
Q 5113 2597 4934 2840 
Q 4756 3084 4391 3084 
Q 3944 3084 3684 2787 
Q 3425 2491 3425 1978 
L 3425 0 
L 2847 0 
L 2847 2094 
Q 2847 2600 2669 2842 
Q 2491 3084 2119 3084 
Q 1678 3084 1418 2786 
Q 1159 2488 1159 1978 
L 1159 0 
L 581 0 
L 581 3500 
L 1159 3500 
L 1159 2956 
Q 1356 3278 1631 3431 
Q 1906 3584 2284 3584 
Q 2666 3584 2933 3390 
Q 3200 3197 3328 2828 
z
" transform="scale(0.015625)"/>
      </defs>
      <use xlink:href="#DejaVuSans-6d"/>
      <use xlink:href="#DejaVuSans-65" x="97.412109"/>
      <use xlink:href="#DejaVuSans-61" x="158.935547"/>
      <use xlink:href="#DejaVuSans-6e" x="220.214844"/>
     </g>
    </g>
    <g id="PathCollection_2">
     <g>
      <use xlink:href="#m6fe1a1b875" x="1181.014062" y="115.051562" style="fill: #ff7f0e; fill-opacity: 0.8; stroke: #ff7f0e; stroke-opacity: 0.8"/>
     </g>
    </g>
    <g id="text_15">
     <!-- Duration per Task -->
     <g transform="translate(1199.014062 117.676562)scale(0.1 -0.1)">
      <defs>
       <path id="DejaVuSans-70" d="M 1159 525 
L 1159 -1331 
L 581 -1331 
L 581 3500 
L 1159 3500 
L 1159 2969 
Q 1341 3281 1617 3432 
Q 1894 3584 2278 3584 
Q 2916 3584 3314 3078 
Q 3713 2572 3713 1747 
Q 3713 922 3314 415 
Q 2916 -91 2278 -91 
Q 1894 -91 1617 61 
Q 1341 213 1159 525 
z
M 3116 1747 
Q 3116 2381 2855 2742 
Q 2594 3103 2138 3103 
Q 1681 3103 1420 2742 
Q 1159 2381 1159 1747 
Q 1159 1113 1420 752 
Q 1681 391 2138 391 
Q 2594 391 2855 752 
Q 3116 1113 3116 1747 
z
" transform="scale(0.015625)"/>
      </defs>
      <use xlink:href="#DejaVuSans-44"/>
      <use xlink:href="#DejaVuSans-75" x="77.001953"/>
      <use xlink:href="#DejaVuSans-72" x="140.380859"/>
      <use xlink:href="#DejaVuSans-61" x="181.494141"/>
      <use xlink:href="#DejaVuSans-74" x="242.773438"/>
      <use xlink:href="#DejaVuSans-69" x="281.982422"/>
      <use xlink:href="#DejaVuSans-6f" x="309.765625"/>
      <use xlink:href="#DejaVuSans-6e" x="370.947266"/>
      <use xlink:href="#DejaVuSans-20" x="434.326172"/>
      <use xlink:href="#DejaVuSans-70" x="466.113281"/>
      <use xlink:href="#DejaVuSans-65" x="529.589844"/>
      <use xlink:href="#DejaVuSans-72" x="591.113281"/>
      <use xlink:href="#DejaVuSans-20" x="632.226562"/>
      <use xlink:href="#DejaVuSans-54" x="664.013672"/>
      <use xlink:href="#DejaVuSans-61" x="708.597656"/>
      <use xlink:href="#DejaVuSans-73" x="769.876953"/>
      <use xlink:href="#DejaVuSans-6b" x="821.976562"/>
     </g>
    </g>
   </g>
  </g>
 </g>
 <defs>
  <clipPath id="p93a0baec17">
   <rect x="180" y="86.4" width="1116" height="543.6"/>
  </clipPath>
 </defs>
</svg>
