<?xml version="1.0" encoding="utf-8" standalone="no"?>
<!DOCTYPE svg PUBLIC "-//W3C//DTD SVG 1.1//EN"
  "http://www.w3.org/Graphics/SVG/1.1/DTD/svg11.dtd">
<svg xmlns:xlink="http://www.w3.org/1999/xlink" width="1440pt" height="864pt" viewBox="0 0 1440 864" xmlns="http://www.w3.org/2000/svg" version="1.1">
 <metadata>
  <rdf:RDF xmlns:dc="http://purl.org/dc/elements/1.1/" xmlns:cc="http://creativecommons.org/ns#" xmlns:rdf="http://www.w3.org/1999/02/22-rdf-syntax-ns#">
   <cc:Work>
    <dc:type rdf:resource="http://purl.org/dc/dcmitype/StillImage"/>
    <dc:date>2025-05-30T10:44:50.156014</dc:date>
    <dc:format>image/svg+xml</dc:format>
    <dc:creator>
     <cc:Agent>
      <dc:title>Matplotlib v3.8.0, https://matplotlib.org/</dc:title>
     </cc:Agent>
    </dc:creator>
   </cc:Work>
  </rdf:RDF>
 </metadata>
 <defs>
  <style type="text/css">*{stroke-linejoin: round; stroke-linecap: butt}</style>
 </defs>
 <g id="figure_1">
  <g id="patch_1">
   <path d="M 0 864 
L 1440 864 
L 1440 0 
L 0 0 
z
" style="fill: #ffffff"/>
  </g>
  <g id="axes_1">
   <g id="patch_2">
    <path d="M 180 768.96 
L 1296 768.96 
L 1296 103.68 
L 180 103.68 
z
" style="fill: #ffffff"/>
   </g>
   <g id="PathCollection_1">
    <defs>
     <path id="mffffcbdb8d" d="M 0 3 
C 0.795609 3 1.55874 2.683901 2.12132 2.12132 
C 2.683901 1.55874 3 0.795609 3 0 
C 3 -0.795609 2.683901 -1.55874 2.12132 -2.12132 
C 1.55874 -2.683901 0.795609 -3 0 -3 
C -0.795609 -3 -1.55874 -2.683901 -2.12132 -2.12132 
C -2.683901 -1.55874 -3 -0.795609 -3 0 
C -3 0.795609 -2.683901 1.55874 -2.12132 2.12132 
C -1.55874 2.683901 -0.795609 3 0 3 
z
" style="stroke: #1f77b4; stroke-opacity: 0.8"/>
    </defs>
    <g clip-path="url(#pfb858de06b)">
     <use xlink:href="#mffffcbdb8d" x="230.727273" y="584.974163" style="fill: #1f77b4; fill-opacity: 0.8; stroke: #1f77b4; stroke-opacity: 0.8"/>
     <use xlink:href="#mffffcbdb8d" x="433.636364" y="505.044154" style="fill: #1f77b4; fill-opacity: 0.8; stroke: #1f77b4; stroke-opacity: 0.8"/>
     <use xlink:href="#mffffcbdb8d" x="636.545455" y="526.144391" style="fill: #1f77b4; fill-opacity: 0.8; stroke: #1f77b4; stroke-opacity: 0.8"/>
     <use xlink:href="#mffffcbdb8d" x="839.454545" y="488.402685" style="fill: #1f77b4; fill-opacity: 0.8; stroke: #1f77b4; stroke-opacity: 0.8"/>
     <use xlink:href="#mffffcbdb8d" x="1042.363636" y="424.659428" style="fill: #1f77b4; fill-opacity: 0.8; stroke: #1f77b4; stroke-opacity: 0.8"/>
     <use xlink:href="#mffffcbdb8d" x="1245.272727" y="391.881904" style="fill: #1f77b4; fill-opacity: 0.8; stroke: #1f77b4; stroke-opacity: 0.8"/>
    </g>
   </g>
   <g id="PolyCollection_1">
    <path d="M 230.727273 534.270516 
L 230.727273 628.37883 
L 240.975207 625.9684 
L 251.22314 623.44574 
L 261.471074 620.90563 
L 271.719008 618.36552 
L 281.966942 615.835934 
L 292.214876 613.398541 
L 302.46281 610.961147 
L 312.710744 608.523754 
L 322.958678 606.08636 
L 333.206612 603.648967 
L 343.454545 601.211574 
L 353.702479 598.77418 
L 363.950413 596.336787 
L 374.198347 593.899393 
L 384.446281 591.462 
L 394.694215 589.024606 
L 404.942149 586.587213 
L 415.190083 584.149819 
L 425.438017 581.712426 
L 435.68595 579.275032 
L 445.933884 576.837639 
L 456.181818 574.400245 
L 466.429752 571.962852 
L 476.677686 569.525458 
L 486.92562 567.088065 
L 497.173554 564.650672 
L 507.421488 562.213278 
L 517.669421 559.775885 
L 527.917355 557.338491 
L 538.165289 554.901098 
L 548.413223 552.463704 
L 558.661157 549.954895 
L 568.909091 547.392144 
L 579.157025 544.856766 
L 589.404959 542.454439 
L 599.652893 540.052111 
L 609.900826 537.649784 
L 620.14876 535.247457 
L 630.396694 532.84513 
L 640.644628 530.442803 
L 650.892562 528.040476 
L 661.140496 525.638504 
L 671.38843 523.235821 
L 681.636364 520.833494 
L 691.884298 518.431167 
L 702.132231 516.02884 
L 712.380165 513.686772 
L 722.628099 511.359638 
L 732.876033 509.725154 
L 743.123967 507.510457 
L 753.371901 505.184469 
L 763.619835 503.209082 
L 773.867769 501.5833 
L 784.115702 499.574649 
L 794.363636 498.16214 
L 804.61157 496.705952 
L 814.859504 495.08755 
L 825.107438 493.148539 
L 835.355372 491.834461 
L 845.603306 490.665228 
L 855.85124 489.267603 
L 866.099174 487.869977 
L 876.347107 486.472352 
L 886.595041 485.074726 
L 896.842975 483.677101 
L 907.090909 482.279475 
L 917.338843 480.88185 
L 927.586777 479.344154 
L 937.834711 477.964047 
L 948.082645 476.827619 
L 958.330579 475.691192 
L 968.578512 474.554764 
L 978.826446 473.418336 
L 989.07438 472.281908 
L 999.322314 471.145481 
L 1009.570248 470.009053 
L 1019.818182 468.872625 
L 1030.066116 467.736198 
L 1040.31405 466.59977 
L 1050.561983 465.463342 
L 1060.809917 464.326914 
L 1071.057851 463.190487 
L 1081.305785 462.054059 
L 1091.553719 460.917631 
L 1101.801653 459.781204 
L 1112.049587 458.644776 
L 1122.297521 457.463634 
L 1132.545455 456.191806 
L 1142.793388 454.919978 
L 1153.041322 453.648149 
L 1163.289256 452.376321 
L 1173.53719 451.104493 
L 1183.785124 449.832665 
L 1194.033058 448.560836 
L 1204.280992 447.289008 
L 1214.528926 446.01718 
L 1224.77686 444.745351 
L 1235.024793 443.473523 
L 1245.272727 442.201695 
L 1245.272727 382.557408 
L 1245.272727 382.557408 
L 1235.024793 385.106415 
L 1224.77686 387.669482 
L 1214.528926 390.116555 
L 1204.280992 392.211628 
L 1194.033058 394.056484 
L 1183.785124 396.030161 
L 1173.53719 398.009533 
L 1163.289256 400.426241 
L 1153.041322 402.093201 
L 1142.793388 403.878054 
L 1132.545455 406.440806 
L 1122.297521 408.401766 
L 1112.049587 410.381254 
L 1101.801653 412.34325 
L 1091.553719 414.044749 
L 1081.305785 415.745207 
L 1071.057851 417.445665 
L 1060.809917 419.146122 
L 1050.561983 420.84658 
L 1040.31405 422.547037 
L 1030.066116 424.247495 
L 1019.818182 425.947953 
L 1009.570248 427.644603 
L 999.322314 429.337315 
L 989.07438 431.043829 
L 978.826446 432.749783 
L 968.578512 434.403031 
L 958.330579 435.756309 
L 948.082645 437.109588 
L 937.834711 438.462866 
L 927.586777 440.222279 
L 917.338843 442.125901 
L 907.090909 444.038296 
L 896.842975 445.952375 
L 886.595041 447.867932 
L 876.347107 449.738809 
L 866.099174 451.446652 
L 855.85124 453.007425 
L 845.603306 454.471019 
L 835.355372 455.934614 
L 825.107438 457.398209 
L 814.859504 458.861804 
L 804.61157 460.325399 
L 794.363636 461.788994 
L 784.115702 463.252588 
L 773.867769 464.716183 
L 763.619835 466.481207 
L 753.371901 467.971935 
L 743.123967 469.341838 
L 732.876033 470.683655 
L 722.628099 472.195311 
L 712.380165 473.771231 
L 702.132231 475.225848 
L 691.884298 476.720901 
L 681.636364 478.103737 
L 671.38843 479.472492 
L 661.140496 480.910062 
L 650.892562 482.30984 
L 640.644628 483.706283 
L 630.396694 485.102726 
L 620.14876 486.499169 
L 609.900826 487.895611 
L 599.652893 489.292054 
L 589.404959 490.688497 
L 579.157025 492.08494 
L 568.909091 493.481383 
L 558.661157 494.877825 
L 548.413223 496.274268 
L 538.165289 497.670711 
L 527.917355 499.067154 
L 517.669421 500.463597 
L 507.421488 501.86004 
L 497.173554 503.256482 
L 486.92562 504.652925 
L 476.677686 506.049368 
L 466.429752 507.445811 
L 456.181818 508.842254 
L 445.933884 510.238697 
L 435.68595 511.036956 
L 425.438017 511.664305 
L 415.190083 513.049389 
L 404.942149 515.159958 
L 394.694215 516.02405 
L 384.446281 516.305412 
L 374.198347 517.647228 
L 363.950413 518.989044 
L 353.702479 520.078311 
L 343.454545 521.058374 
L 333.206612 522.038437 
L 322.958678 523.018499 
L 312.710744 523.998562 
L 302.46281 524.978624 
L 292.214876 526.250003 
L 281.966942 527.6676 
L 271.719008 529.084007 
L 261.471074 530.406815 
L 251.22314 531.694715 
L 240.975207 532.982615 
L 230.727273 534.270516 
z
" clip-path="url(#pfb858de06b)" style="fill: #1f77b4; fill-opacity: 0.15"/>
   </g>
   <g id="PathCollection_2">
    <defs>
     <path id="m7ef1c58336" d="M 0 3 
C 0.795609 3 1.55874 2.683901 2.12132 2.12132 
C 2.683901 1.55874 3 0.795609 3 0 
C 3 -0.795609 2.683901 -1.55874 2.12132 -2.12132 
C 1.55874 -2.683901 0.795609 -3 0 -3 
C -0.795609 -3 -1.55874 -2.683901 -2.12132 -2.12132 
C -2.683901 -1.55874 -3 -0.795609 -3 0 
C -3 0.795609 -2.683901 1.55874 -2.12132 2.12132 
C -1.55874 2.683901 -0.795609 3 0 3 
z
" style="stroke: #ff7f0e; stroke-opacity: 0.8"/>
    </defs>
    <g clip-path="url(#pfb858de06b)">
     <use xlink:href="#m7ef1c58336" x="230.727273" y="661.305297" style="fill: #ff7f0e; fill-opacity: 0.8; stroke: #ff7f0e; stroke-opacity: 0.8"/>
     <use xlink:href="#m7ef1c58336" x="433.636364" y="622.86853" style="fill: #ff7f0e; fill-opacity: 0.8; stroke: #ff7f0e; stroke-opacity: 0.8"/>
     <use xlink:href="#m7ef1c58336" x="636.545455" y="614.27782" style="fill: #ff7f0e; fill-opacity: 0.8; stroke: #ff7f0e; stroke-opacity: 0.8"/>
     <use xlink:href="#m7ef1c58336" x="839.454545" y="322.982574" style="fill: #ff7f0e; fill-opacity: 0.8; stroke: #ff7f0e; stroke-opacity: 0.8"/>
     <use xlink:href="#m7ef1c58336" x="1042.363636" y="489.860265" style="fill: #ff7f0e; fill-opacity: 0.8; stroke: #ff7f0e; stroke-opacity: 0.8"/>
     <use xlink:href="#m7ef1c58336" x="1245.272727" y="370.484673" style="fill: #ff7f0e; fill-opacity: 0.8; stroke: #ff7f0e; stroke-opacity: 0.8"/>
    </g>
   </g>
   <g id="PolyCollection_2">
    <path d="M 230.727273 547.956437 
L 230.727273 738.72 
L 240.975207 733.512577 
L 251.22314 727.409405 
L 261.471074 721.967603 
L 271.719008 717.382671 
L 281.966942 713.351103 
L 292.214876 709.8911 
L 302.46281 706.431098 
L 312.710744 702.971095 
L 322.958678 699.304781 
L 333.206612 693.649509 
L 343.454545 687.999641 
L 353.702479 684.032337 
L 363.950413 680.776076 
L 374.198347 677.601395 
L 384.446281 674.429666 
L 394.694215 670.233151 
L 404.942149 664.707006 
L 415.190083 661.412811 
L 425.438017 658.116287 
L 435.68595 654.819763 
L 445.933884 651.52324 
L 456.181818 648.226716 
L 466.429752 644.930192 
L 476.677686 641.646486 
L 486.92562 638.364504 
L 497.173554 635.082522 
L 507.421488 631.80054 
L 517.669421 628.518558 
L 527.917355 625.236577 
L 538.165289 621.954595 
L 548.413223 618.672613 
L 558.661157 615.392991 
L 568.909091 612.367975 
L 579.157025 609.293544 
L 589.404959 606.887564 
L 599.652893 604.522345 
L 609.900826 602.237141 
L 620.14876 599.296578 
L 630.396694 597.268927 
L 640.644628 595.133604 
L 650.892562 592.802923 
L 661.140496 590.472324 
L 671.38843 588.138832 
L 681.636364 585.804133 
L 691.884298 583.469434 
L 702.132231 581.134735 
L 712.380165 578.800036 
L 722.628099 576.465337 
L 732.876033 574.130638 
L 743.123967 571.791426 
L 753.371901 569.4477 
L 763.619835 567.103975 
L 773.867769 564.755706 
L 784.115702 562.413462 
L 794.363636 560.076314 
L 804.61157 557.743967 
L 814.859504 555.415135 
L 825.107438 553.074873 
L 835.355372 550.72853 
L 845.603306 548.398385 
L 855.85124 546.06824 
L 866.099174 543.724861 
L 876.347107 541.379132 
L 886.595041 539.041984 
L 896.842975 536.704837 
L 907.090909 534.367689 
L 917.338843 532.030541 
L 927.586777 529.693393 
L 937.834711 527.362386 
L 948.082645 525.417737 
L 958.330579 523.476486 
L 968.578512 521.535236 
L 978.826446 519.593985 
L 989.07438 517.652734 
L 999.322314 515.195589 
L 1009.570248 512.470312 
L 1019.818182 510.324427 
L 1030.066116 508.178542 
L 1040.31405 506.032657 
L 1050.561983 503.885182 
L 1060.809917 504.063978 
L 1071.057851 502.122727 
L 1081.305785 500.181476 
L 1091.553719 498.240225 
L 1101.801653 496.298975 
L 1112.049587 494.357724 
L 1122.297521 492.416473 
L 1132.545455 490.475222 
L 1142.793388 488.533971 
L 1153.041322 486.59272 
L 1163.289256 484.651469 
L 1173.53719 482.710219 
L 1183.785124 480.768968 
L 1194.033058 478.76359 
L 1204.280992 476.706549 
L 1214.528926 474.649509 
L 1224.77686 472.592469 
L 1235.024793 470.535429 
L 1245.272727 468.478388 
L 1245.272727 133.92 
L 1245.272727 133.92 
L 1235.024793 139.892638 
L 1224.77686 145.865276 
L 1214.528926 151.664437 
L 1204.280992 157.371101 
L 1194.033058 163.077765 
L 1183.785124 169.080362 
L 1173.53719 174.783474 
L 1163.289256 180.340432 
L 1153.041322 185.89739 
L 1142.793388 191.454347 
L 1132.545455 197.011305 
L 1122.297521 202.568263 
L 1112.049587 208.125221 
L 1101.801653 213.682178 
L 1091.553719 219.239136 
L 1081.305785 224.796094 
L 1071.057851 230.353052 
L 1060.809917 235.91001 
L 1050.561983 241.829547 
L 1040.31405 247.559293 
L 1030.066116 253.07293 
L 1019.818182 258.586567 
L 1009.570248 264.100205 
L 999.322314 269.613842 
L 989.07438 275.127479 
L 978.826446 280.641116 
L 968.578512 286.154753 
L 958.330579 291.66839 
L 948.082645 297.182028 
L 937.834711 302.695665 
L 927.586777 308.209302 
L 917.338843 313.722939 
L 907.090909 320.097638 
L 896.842975 327.620118 
L 886.595041 330.378292 
L 876.347107 335.93525 
L 866.099174 341.492207 
L 855.85124 346.798496 
L 845.603306 352.311022 
L 835.355372 357.783668 
L 825.107438 363.710439 
L 814.859504 368.634284 
L 804.61157 374.167424 
L 794.363636 379.733131 
L 784.115702 385.322663 
L 773.867769 390.898707 
L 763.619835 396.411233 
L 753.371901 401.92376 
L 743.123967 407.428494 
L 732.876033 411.063591 
L 722.628099 411.656857 
L 712.380165 417.640413 
L 702.132231 421.19546 
L 691.884298 424.638789 
L 681.636364 430.020499 
L 671.38843 436.424548 
L 661.140496 441.494558 
L 650.892562 443.477296 
L 640.644628 447.259987 
L 630.396694 453.165168 
L 620.14876 456.346266 
L 609.900826 461.628975 
L 599.652893 463.503707 
L 589.404959 465.37844 
L 579.157025 467.253172 
L 568.909091 469.127904 
L 558.661157 471.002636 
L 548.413223 473.230501 
L 538.165289 475.640283 
L 527.917355 478.531653 
L 517.669421 481.875197 
L 507.421488 485.218741 
L 497.173554 488.015184 
L 486.92562 488.882656 
L 476.677686 490.118259 
L 466.429752 492.491267 
L 456.181818 494.864275 
L 445.933884 497.237283 
L 435.68595 499.62148 
L 425.438017 502.02066 
L 415.190083 504.426313 
L 404.942149 506.844654 
L 394.694215 509.262994 
L 384.446281 511.681334 
L 374.198347 514.099674 
L 363.950413 516.518014 
L 353.702479 518.936354 
L 343.454545 521.354695 
L 333.206612 523.773035 
L 322.958678 526.191375 
L 312.710744 528.609715 
L 302.46281 531.028055 
L 292.214876 533.446395 
L 281.966942 535.864736 
L 271.719008 538.283076 
L 261.471074 540.701416 
L 251.22314 543.119756 
L 240.975207 545.538096 
L 230.727273 547.956437 
z
" clip-path="url(#pfb858de06b)" style="fill: #ff7f0e; fill-opacity: 0.15"/>
   </g>
   <g id="PathCollection_3">
    <defs>
     <path id="mb4f88a22eb" d="M 0 3 
C 0.795609 3 1.55874 2.683901 2.12132 2.12132 
C 2.683901 1.55874 3 0.795609 3 0 
C 3 -0.795609 2.683901 -1.55874 2.12132 -2.12132 
C 1.55874 -2.683901 0.795609 -3 0 -3 
C -0.795609 -3 -1.55874 -2.683901 -2.12132 -2.12132 
C -2.683901 -1.55874 -3 -0.795609 -3 0 
C -3 0.795609 -2.683901 1.55874 -2.12132 2.12132 
C -1.55874 2.683901 -0.795609 3 0 3 
z
" style="stroke: #2ca02c; stroke-opacity: 0.8"/>
    </defs>
    <g clip-path="url(#pfb858de06b)">
     <use xlink:href="#mb4f88a22eb" x="230.727273" y="720.742949" style="fill: #2ca02c; fill-opacity: 0.8; stroke: #2ca02c; stroke-opacity: 0.8"/>
     <use xlink:href="#mb4f88a22eb" x="433.636364" y="652.034375" style="fill: #2ca02c; fill-opacity: 0.8; stroke: #2ca02c; stroke-opacity: 0.8"/>
     <use xlink:href="#mb4f88a22eb" x="636.545455" y="575.135219" style="fill: #2ca02c; fill-opacity: 0.8; stroke: #2ca02c; stroke-opacity: 0.8"/>
     <use xlink:href="#mb4f88a22eb" x="839.454545" y="472.597848" style="fill: #2ca02c; fill-opacity: 0.8; stroke: #2ca02c; stroke-opacity: 0.8"/>
     <use xlink:href="#mb4f88a22eb" x="1042.363636" y="418.70397" style="fill: #2ca02c; fill-opacity: 0.8; stroke: #2ca02c; stroke-opacity: 0.8"/>
     <use xlink:href="#mb4f88a22eb" x="1245.272727" y="399.983005" style="fill: #2ca02c; fill-opacity: 0.8; stroke: #2ca02c; stroke-opacity: 0.8"/>
    </g>
   </g>
   <g id="PolyCollection_3">
    <path d="M 230.727273 658.099352 
L 230.727273 733.397556 
L 240.975207 729.242065 
L 251.22314 725.086573 
L 261.471074 720.931082 
L 271.719008 716.775591 
L 281.966942 712.6201 
L 292.214876 708.464609 
L 302.46281 704.309118 
L 312.710744 700.153627 
L 322.958678 695.998136 
L 333.206612 691.842645 
L 343.454545 687.687154 
L 353.702479 683.531663 
L 363.950413 679.508 
L 374.198347 675.443651 
L 384.446281 671.528348 
L 394.694215 667.727516 
L 404.942149 664.491594 
L 415.190083 660.912557 
L 425.438017 657.415592 
L 435.68595 653.727451 
L 445.933884 650.365898 
L 456.181818 646.579003 
L 466.429752 643.300217 
L 476.677686 640.091842 
L 486.92562 636.136208 
L 497.173554 632.598743 
L 507.421488 629.374177 
L 517.669421 626.149612 
L 527.917355 622.925046 
L 538.165289 619.70048 
L 548.413223 616.475915 
L 558.661157 613.251349 
L 568.909091 610.025838 
L 579.157025 606.802218 
L 589.404959 603.577652 
L 599.652893 600.353087 
L 609.900826 597.128521 
L 620.14876 593.903955 
L 630.396694 590.67939 
L 640.644628 587.454824 
L 650.892562 584.230258 
L 661.140496 581.005693 
L 671.38843 577.781127 
L 681.636364 574.556561 
L 691.884298 571.331996 
L 702.132231 568.10743 
L 712.380165 564.882865 
L 722.628099 561.658299 
L 732.876033 558.433733 
L 743.123967 555.209168 
L 753.371901 551.984602 
L 763.619835 548.760036 
L 773.867769 545.535471 
L 784.115702 542.310905 
L 794.363636 539.086339 
L 804.61157 535.861774 
L 814.859504 532.637208 
L 825.107438 529.412643 
L 835.355372 526.188077 
L 845.603306 522.963511 
L 855.85124 519.738946 
L 866.099174 516.51438 
L 876.347107 513.289814 
L 886.595041 510.065249 
L 896.842975 506.840683 
L 907.090909 503.616117 
L 917.338843 500.391552 
L 927.586777 497.166986 
L 937.834711 493.94242 
L 948.082645 490.717855 
L 958.330579 487.493289 
L 968.578512 484.268724 
L 978.826446 481.044158 
L 989.07438 477.819592 
L 999.322314 474.595027 
L 1009.570248 471.387706 
L 1019.818182 468.244513 
L 1030.066116 465.101321 
L 1040.31405 461.899035 
L 1050.561983 458.659035 
L 1060.809917 455.419036 
L 1071.057851 452.179037 
L 1081.305785 448.939037 
L 1091.553719 445.699038 
L 1101.801653 442.459038 
L 1112.049587 439.243832 
L 1122.297521 436.042618 
L 1132.545455 432.841404 
L 1142.793388 429.660527 
L 1153.041322 426.585957 
L 1163.289256 423.512916 
L 1173.53719 420.441493 
L 1183.785124 417.363456 
L 1194.033058 414.287677 
L 1204.280992 411.128591 
L 1214.528926 407.94276 
L 1224.77686 404.756928 
L 1235.024793 401.568745 
L 1245.272727 398.671223 
L 1245.272727 308.165756 
L 1245.272727 308.165756 
L 1235.024793 312.393686 
L 1224.77686 316.621616 
L 1214.528926 320.849546 
L 1204.280992 325.077475 
L 1194.033058 329.305405 
L 1183.785124 333.533335 
L 1173.53719 337.761847 
L 1163.289256 341.992685 
L 1153.041322 346.22074 
L 1142.793388 350.448796 
L 1132.545455 354.676851 
L 1122.297521 358.904906 
L 1112.049587 363.203042 
L 1101.801653 367.604781 
L 1091.553719 372.006521 
L 1081.305785 376.40826 
L 1071.057851 380.81 
L 1060.809917 385.211739 
L 1050.561983 389.613479 
L 1040.31405 394.015218 
L 1030.066116 398.416958 
L 1019.818182 402.818697 
L 1009.570248 407.219078 
L 999.322314 411.614827 
L 989.07438 416.010576 
L 978.826446 420.406325 
L 968.578512 424.676148 
L 958.330579 428.581705 
L 948.082645 433.11293 
L 937.834711 437.474107 
L 927.586777 441.734746 
L 917.338843 445.995385 
L 907.090909 449.115902 
L 896.842975 452.940616 
L 886.595041 457.105337 
L 876.347107 461.127748 
L 866.099174 465.089698 
L 855.85124 469.620923 
L 845.603306 473.925603 
L 835.355372 478.191554 
L 825.107438 482.457506 
L 814.859504 486.723457 
L 804.61157 491.007621 
L 794.363636 495.661678 
L 784.115702 500.329511 
L 773.867769 504.75524 
L 763.619835 508.316111 
L 753.371901 512.438431 
L 743.123967 516.035246 
L 732.876033 519.535381 
L 722.628099 523.699028 
L 712.380165 527.665835 
L 702.132231 530.474191 
L 691.884298 533.248651 
L 681.636364 536.023111 
L 671.38843 538.797571 
L 661.140496 541.572031 
L 650.892562 544.346491 
L 640.644628 547.120951 
L 630.396694 549.895411 
L 620.14876 552.669871 
L 609.900826 555.444331 
L 599.652893 558.218791 
L 589.404959 560.993251 
L 579.157025 563.767711 
L 568.909091 566.542171 
L 558.661157 569.316631 
L 548.413223 572.091091 
L 538.165289 574.865551 
L 527.917355 577.640011 
L 517.669421 580.414471 
L 507.421488 583.188931 
L 497.173554 585.963391 
L 486.92562 588.737851 
L 476.677686 591.512311 
L 466.429752 594.286771 
L 456.181818 597.061231 
L 445.933884 599.835691 
L 435.68595 602.610151 
L 425.438017 605.384612 
L 415.190083 608.159072 
L 404.942149 610.933532 
L 394.694215 613.707992 
L 384.446281 616.482452 
L 374.198347 619.256912 
L 363.950413 622.031372 
L 353.702479 624.805832 
L 343.454545 627.580292 
L 333.206612 630.354752 
L 322.958678 633.129212 
L 312.710744 635.903672 
L 302.46281 638.678132 
L 292.214876 641.452592 
L 281.966942 644.227052 
L 271.719008 647.001512 
L 261.471074 649.775972 
L 251.22314 652.550432 
L 240.975207 655.324892 
L 230.727273 658.099352 
z
" clip-path="url(#pfb858de06b)" style="fill: #2ca02c; fill-opacity: 0.15"/>
   </g>
   <g id="PathCollection_4">
    <defs>
     <path id="m7c05124e9d" d="M 0 3 
C 0.795609 3 1.55874 2.683901 2.12132 2.12132 
C 2.683901 1.55874 3 0.795609 3 0 
C 3 -0.795609 2.683901 -1.55874 2.12132 -2.12132 
C 1.55874 -2.683901 0.795609 -3 0 -3 
C -0.795609 -3 -1.55874 -2.683901 -2.12132 -2.12132 
C -2.683901 -1.55874 -3 -0.795609 -3 0 
C -3 0.795609 -2.683901 1.55874 -2.12132 2.12132 
C -1.55874 2.683901 -0.795609 3 0 3 
z
" style="stroke: #d62728; stroke-opacity: 0.8"/>
    </defs>
    <g clip-path="url(#pfb858de06b)">
     <use xlink:href="#m7c05124e9d" x="230.727273" y="623.056164" style="fill: #d62728; fill-opacity: 0.8; stroke: #d62728; stroke-opacity: 0.8"/>
     <use xlink:href="#m7c05124e9d" x="433.636364" y="541.66038" style="fill: #d62728; fill-opacity: 0.8; stroke: #d62728; stroke-opacity: 0.8"/>
     <use xlink:href="#m7c05124e9d" x="636.545455" y="541.091737" style="fill: #d62728; fill-opacity: 0.8; stroke: #d62728; stroke-opacity: 0.8"/>
     <use xlink:href="#m7c05124e9d" x="839.454545" y="479.788255" style="fill: #d62728; fill-opacity: 0.8; stroke: #d62728; stroke-opacity: 0.8"/>
     <use xlink:href="#m7c05124e9d" x="1042.363636" y="424.56535" style="fill: #d62728; fill-opacity: 0.8; stroke: #d62728; stroke-opacity: 0.8"/>
     <use xlink:href="#m7c05124e9d" x="1245.272727" y="393.585339" style="fill: #d62728; fill-opacity: 0.8; stroke: #d62728; stroke-opacity: 0.8"/>
    </g>
   </g>
   <g id="PolyCollection_4">
    <path d="M 230.727273 579.470077 
L 230.727273 638.891548 
L 240.975207 636.381115 
L 251.22314 633.870681 
L 261.471074 631.360248 
L 271.719008 628.849814 
L 281.966942 626.33938 
L 292.214876 623.828947 
L 302.46281 621.318513 
L 312.710744 618.807735 
L 322.958678 616.293822 
L 333.206612 613.779909 
L 343.454545 611.265996 
L 353.702479 608.752084 
L 363.950413 606.238171 
L 374.198347 603.724258 
L 384.446281 601.192307 
L 394.694215 598.569868 
L 404.942149 595.94743 
L 415.190083 593.324992 
L 425.438017 590.702554 
L 435.68595 588.080116 
L 445.933884 585.457678 
L 456.181818 582.83524 
L 466.429752 580.212801 
L 476.677686 577.590363 
L 486.92562 574.967925 
L 497.173554 572.345487 
L 507.421488 569.723049 
L 517.669421 567.100611 
L 527.917355 564.478173 
L 538.165289 561.855734 
L 548.413223 559.233296 
L 558.661157 556.610858 
L 568.909091 554.03128 
L 579.157025 551.584058 
L 589.404959 549.136836 
L 599.652893 546.689614 
L 609.900826 544.242392 
L 620.14876 541.723026 
L 630.396694 539.347948 
L 640.644628 536.964693 
L 650.892562 534.622358 
L 661.140496 532.27737 
L 671.38843 529.921773 
L 681.636364 526.956084 
L 691.884298 524.373987 
L 702.132231 521.694328 
L 712.380165 519.327169 
L 722.628099 516.965077 
L 732.876033 514.66395 
L 743.123967 512.600273 
L 753.371901 510.102868 
L 763.619835 507.669361 
L 773.867769 505.191226 
L 784.115702 502.912613 
L 794.363636 500.503444 
L 804.61157 498.255123 
L 814.859504 495.744925 
L 825.107438 493.332758 
L 835.355372 490.902452 
L 845.603306 488.9757 
L 855.85124 486.941013 
L 866.099174 484.637863 
L 876.347107 482.492374 
L 886.595041 480.42112 
L 896.842975 478.349865 
L 907.090909 476.108199 
L 917.338843 474.092028 
L 927.586777 471.95356 
L 937.834711 469.815093 
L 948.082645 467.676625 
L 958.330579 465.538157 
L 968.578512 463.629589 
L 978.826446 461.779831 
L 989.07438 459.708577 
L 999.322314 457.637323 
L 1009.570248 455.566068 
L 1019.818182 453.494814 
L 1030.066116 451.42356 
L 1040.31405 449.352306 
L 1050.561983 447.281051 
L 1060.809917 445.209797 
L 1071.057851 443.138543 
L 1081.305785 441.067289 
L 1091.553719 438.996034 
L 1101.801653 436.92478 
L 1112.049587 434.853526 
L 1122.297521 432.782272 
L 1132.545455 430.711017 
L 1142.793388 428.639763 
L 1153.041322 426.568509 
L 1163.289256 424.497255 
L 1173.53719 422.426 
L 1183.785124 420.354746 
L 1194.033058 418.283492 
L 1204.280992 416.212238 
L 1214.528926 414.140983 
L 1224.77686 412.069729 
L 1235.024793 409.998475 
L 1245.272727 407.92722 
L 1245.272727 374.633714 
L 1245.272727 374.633714 
L 1235.024793 377.051266 
L 1224.77686 379.468818 
L 1214.528926 381.88637 
L 1204.280992 384.303921 
L 1194.033058 386.721473 
L 1183.785124 389.139025 
L 1173.53719 391.556577 
L 1163.289256 393.857569 
L 1153.041322 396.099044 
L 1142.793388 398.342611 
L 1132.545455 400.592186 
L 1122.297521 402.84176 
L 1112.049587 405.599908 
L 1101.801653 408.388943 
L 1091.553719 411.036232 
L 1081.305785 413.393646 
L 1071.057851 415.794445 
L 1060.809917 418.180574 
L 1050.561983 420.999989 
L 1040.31405 423.332136 
L 1030.066116 426.101677 
L 1019.818182 428.951306 
L 1009.570248 431.230532 
L 999.322314 433.421165 
L 989.07438 435.614447 
L 978.826446 437.807729 
L 968.578512 440.556181 
L 958.330579 442.487477 
L 948.082645 444.761994 
L 937.834711 446.901331 
L 927.586777 448.912712 
L 917.338843 451.271856 
L 907.090909 453.270356 
L 896.842975 455.163451 
L 886.595041 457.056546 
L 876.347107 458.949641 
L 866.099174 460.978101 
L 855.85124 463.199141 
L 845.603306 465.161851 
L 835.355372 467.120567 
L 825.107438 469.079283 
L 814.859504 471.037999 
L 804.61157 472.996716 
L 794.363636 475.137819 
L 784.115702 477.311133 
L 773.867769 479.23896 
L 763.619835 481.162154 
L 753.371901 483.325305 
L 743.123967 485.414897 
L 732.876033 487.419893 
L 722.628099 489.424889 
L 712.380165 491.355919 
L 702.132231 493.274442 
L 691.884298 495.187646 
L 681.636364 497.10085 
L 671.38843 499.014054 
L 661.140496 500.927258 
L 650.892562 502.840462 
L 640.644628 504.753666 
L 630.396694 506.66687 
L 620.14876 508.580074 
L 609.900826 510.493278 
L 599.652893 512.406482 
L 589.404959 514.319686 
L 579.157025 516.23289 
L 568.909091 518.146094 
L 558.661157 520.041613 
L 548.413223 521.964621 
L 538.165289 523.885706 
L 527.917355 525.79891 
L 517.669421 527.712114 
L 507.421488 529.625318 
L 497.173554 531.537543 
L 486.92562 533.44856 
L 476.677686 535.359578 
L 466.429752 537.270595 
L 456.181818 539.183004 
L 445.933884 541.096458 
L 435.68595 542.704379 
L 425.438017 544.627574 
L 415.190083 546.550768 
L 404.942149 548.469959 
L 394.694215 550.39 
L 384.446281 552.209361 
L 374.198347 554.027926 
L 363.950413 555.84649 
L 353.702479 557.628202 
L 343.454545 559.507532 
L 333.206612 561.386861 
L 322.958678 563.26619 
L 312.710744 565.14552 
L 302.46281 567.024849 
L 292.214876 568.904179 
L 281.966942 570.783508 
L 271.719008 572.662838 
L 261.471074 574.08008 
L 251.22314 575.836065 
L 240.975207 577.653071 
L 230.727273 579.470077 
z
" clip-path="url(#pfb858de06b)" style="fill: #d62728; fill-opacity: 0.15"/>
   </g>
   <g id="matplotlib.axis_1">
    <g id="xtick_1">
     <g id="line2d_1">
      <defs>
       <path id="m5dce055157" d="M 0 0 
L 0 3.5 
" style="stroke: #000000; stroke-width: 0.8"/>
      </defs>
      <g>
       <use xlink:href="#m5dce055157" x="230.727273" y="768.96" style="stroke: #000000; stroke-width: 0.8"/>
      </g>
     </g>
     <g id="text_1">
      <!-- 6 -->
      <g transform="translate(227.546023 783.558437) scale(0.1 -0.1)">
       <defs>
        <path id="DejaVuSans-36" d="M 2113 2584 
Q 1688 2584 1439 2293 
Q 1191 2003 1191 1497 
Q 1191 994 1439 701 
Q 1688 409 2113 409 
Q 2538 409 2786 701 
Q 3034 994 3034 1497 
Q 3034 2003 2786 2293 
Q 2538 2584 2113 2584 
z
M 3366 4563 
L 3366 3988 
Q 3128 4100 2886 4159 
Q 2644 4219 2406 4219 
Q 1781 4219 1451 3797 
Q 1122 3375 1075 2522 
Q 1259 2794 1537 2939 
Q 1816 3084 2150 3084 
Q 2853 3084 3261 2657 
Q 3669 2231 3669 1497 
Q 3669 778 3244 343 
Q 2819 -91 2113 -91 
Q 1303 -91 875 529 
Q 447 1150 447 2328 
Q 447 3434 972 4092 
Q 1497 4750 2381 4750 
Q 2619 4750 2861 4703 
Q 3103 4656 3366 4563 
z
" transform="scale(0.015625)"/>
       </defs>
       <use xlink:href="#DejaVuSans-36"/>
      </g>
     </g>
    </g>
    <g id="xtick_2">
     <g id="line2d_2">
      <g>
       <use xlink:href="#m5dce055157" x="433.636364" y="768.96" style="stroke: #000000; stroke-width: 0.8"/>
      </g>
     </g>
     <g id="text_2">
      <!-- 9 -->
      <g transform="translate(430.455114 783.558437) scale(0.1 -0.1)">
       <defs>
        <path id="DejaVuSans-39" d="M 703 97 
L 703 672 
Q 941 559 1184 500 
Q 1428 441 1663 441 
Q 2288 441 2617 861 
Q 2947 1281 2994 2138 
Q 2813 1869 2534 1725 
Q 2256 1581 1919 1581 
Q 1219 1581 811 2004 
Q 403 2428 403 3163 
Q 403 3881 828 4315 
Q 1253 4750 1959 4750 
Q 2769 4750 3195 4129 
Q 3622 3509 3622 2328 
Q 3622 1225 3098 567 
Q 2575 -91 1691 -91 
Q 1453 -91 1209 -44 
Q 966 3 703 97 
z
M 1959 2075 
Q 2384 2075 2632 2365 
Q 2881 2656 2881 3163 
Q 2881 3666 2632 3958 
Q 2384 4250 1959 4250 
Q 1534 4250 1286 3958 
Q 1038 3666 1038 3163 
Q 1038 2656 1286 2365 
Q 1534 2075 1959 2075 
z
" transform="scale(0.015625)"/>
       </defs>
       <use xlink:href="#DejaVuSans-39"/>
      </g>
     </g>
    </g>
    <g id="xtick_3">
     <g id="line2d_3">
      <g>
       <use xlink:href="#m5dce055157" x="636.545455" y="768.96" style="stroke: #000000; stroke-width: 0.8"/>
      </g>
     </g>
     <g id="text_3">
      <!-- 12 -->
      <g transform="translate(630.182955 783.558437) scale(0.1 -0.1)">
       <defs>
        <path id="DejaVuSans-31" d="M 794 531 
L 1825 531 
L 1825 4091 
L 703 3866 
L 703 4441 
L 1819 4666 
L 2450 4666 
L 2450 531 
L 3481 531 
L 3481 0 
L 794 0 
L 794 531 
z
" transform="scale(0.015625)"/>
        <path id="DejaVuSans-32" d="M 1228 531 
L 3431 531 
L 3431 0 
L 469 0 
L 469 531 
Q 828 903 1448 1529 
Q 2069 2156 2228 2338 
Q 2531 2678 2651 2914 
Q 2772 3150 2772 3378 
Q 2772 3750 2511 3984 
Q 2250 4219 1831 4219 
Q 1534 4219 1204 4116 
Q 875 4013 500 3803 
L 500 4441 
Q 881 4594 1212 4672 
Q 1544 4750 1819 4750 
Q 2544 4750 2975 4387 
Q 3406 4025 3406 3419 
Q 3406 3131 3298 2873 
Q 3191 2616 2906 2266 
Q 2828 2175 2409 1742 
Q 1991 1309 1228 531 
z
" transform="scale(0.015625)"/>
       </defs>
       <use xlink:href="#DejaVuSans-31"/>
       <use xlink:href="#DejaVuSans-32" x="63.623047"/>
      </g>
     </g>
    </g>
    <g id="xtick_4">
     <g id="line2d_4">
      <g>
       <use xlink:href="#m5dce055157" x="839.454545" y="768.96" style="stroke: #000000; stroke-width: 0.8"/>
      </g>
     </g>
     <g id="text_4">
      <!-- 15 -->
      <g transform="translate(833.092045 783.558437) scale(0.1 -0.1)">
       <defs>
        <path id="DejaVuSans-35" d="M 691 4666 
L 3169 4666 
L 3169 4134 
L 1269 4134 
L 1269 2991 
Q 1406 3038 1543 3061 
Q 1681 3084 1819 3084 
Q 2600 3084 3056 2656 
Q 3513 2228 3513 1497 
Q 3513 744 3044 326 
Q 2575 -91 1722 -91 
Q 1428 -91 1123 -41 
Q 819 9 494 109 
L 494 744 
Q 775 591 1075 516 
Q 1375 441 1709 441 
Q 2250 441 2565 725 
Q 2881 1009 2881 1497 
Q 2881 1984 2565 2268 
Q 2250 2553 1709 2553 
Q 1456 2553 1204 2497 
Q 953 2441 691 2322 
L 691 4666 
z
" transform="scale(0.015625)"/>
       </defs>
       <use xlink:href="#DejaVuSans-31"/>
       <use xlink:href="#DejaVuSans-35" x="63.623047"/>
      </g>
     </g>
    </g>
    <g id="xtick_5">
     <g id="line2d_5">
      <g>
       <use xlink:href="#m5dce055157" x="1042.363636" y="768.96" style="stroke: #000000; stroke-width: 0.8"/>
      </g>
     </g>
     <g id="text_5">
      <!-- 18 -->
      <g transform="translate(1036.001136 783.558437) scale(0.1 -0.1)">
       <defs>
        <path id="DejaVuSans-38" d="M 2034 2216 
Q 1584 2216 1326 1975 
Q 1069 1734 1069 1313 
Q 1069 891 1326 650 
Q 1584 409 2034 409 
Q 2484 409 2743 651 
Q 3003 894 3003 1313 
Q 3003 1734 2745 1975 
Q 2488 2216 2034 2216 
z
M 1403 2484 
Q 997 2584 770 2862 
Q 544 3141 544 3541 
Q 544 4100 942 4425 
Q 1341 4750 2034 4750 
Q 2731 4750 3128 4425 
Q 3525 4100 3525 3541 
Q 3525 3141 3298 2862 
Q 3072 2584 2669 2484 
Q 3125 2378 3379 2068 
Q 3634 1759 3634 1313 
Q 3634 634 3220 271 
Q 2806 -91 2034 -91 
Q 1263 -91 848 271 
Q 434 634 434 1313 
Q 434 1759 690 2068 
Q 947 2378 1403 2484 
z
M 1172 3481 
Q 1172 3119 1398 2916 
Q 1625 2713 2034 2713 
Q 2441 2713 2670 2916 
Q 2900 3119 2900 3481 
Q 2900 3844 2670 4047 
Q 2441 4250 2034 4250 
Q 1625 4250 1398 4047 
Q 1172 3844 1172 3481 
z
" transform="scale(0.015625)"/>
       </defs>
       <use xlink:href="#DejaVuSans-31"/>
       <use xlink:href="#DejaVuSans-38" x="63.623047"/>
      </g>
     </g>
    </g>
    <g id="xtick_6">
     <g id="line2d_6">
      <g>
       <use xlink:href="#m5dce055157" x="1245.272727" y="768.96" style="stroke: #000000; stroke-width: 0.8"/>
      </g>
     </g>
     <g id="text_6">
      <!-- 21 -->
      <g transform="translate(1238.910227 783.558437) scale(0.1 -0.1)">
       <use xlink:href="#DejaVuSans-32"/>
       <use xlink:href="#DejaVuSans-31" x="63.623047"/>
      </g>
     </g>
    </g>
    <g id="text_7">
     <!-- NumLayers -->
     <g transform="translate(709.674219 797.236562) scale(0.1 -0.1)">
      <defs>
       <path id="DejaVuSans-4e" d="M 628 4666 
L 1478 4666 
L 3547 763 
L 3547 4666 
L 4159 4666 
L 4159 0 
L 3309 0 
L 1241 3903 
L 1241 0 
L 628 0 
L 628 4666 
z
" transform="scale(0.015625)"/>
       <path id="DejaVuSans-75" d="M 544 1381 
L 544 3500 
L 1119 3500 
L 1119 1403 
Q 1119 906 1312 657 
Q 1506 409 1894 409 
Q 2359 409 2629 706 
Q 2900 1003 2900 1516 
L 2900 3500 
L 3475 3500 
L 3475 0 
L 2900 0 
L 2900 538 
Q 2691 219 2414 64 
Q 2138 -91 1772 -91 
Q 1169 -91 856 284 
Q 544 659 544 1381 
z
M 1991 3584 
L 1991 3584 
z
" transform="scale(0.015625)"/>
       <path id="DejaVuSans-6d" d="M 3328 2828 
Q 3544 3216 3844 3400 
Q 4144 3584 4550 3584 
Q 5097 3584 5394 3201 
Q 5691 2819 5691 2113 
L 5691 0 
L 5113 0 
L 5113 2094 
Q 5113 2597 4934 2840 
Q 4756 3084 4391 3084 
Q 3944 3084 3684 2787 
Q 3425 2491 3425 1978 
L 3425 0 
L 2847 0 
L 2847 2094 
Q 2847 2600 2669 2842 
Q 2491 3084 2119 3084 
Q 1678 3084 1418 2786 
Q 1159 2488 1159 1978 
L 1159 0 
L 581 0 
L 581 3500 
L 1159 3500 
L 1159 2956 
Q 1356 3278 1631 3431 
Q 1906 3584 2284 3584 
Q 2666 3584 2933 3390 
Q 3200 3197 3328 2828 
z
" transform="scale(0.015625)"/>
       <path id="DejaVuSans-4c" d="M 628 4666 
L 1259 4666 
L 1259 531 
L 3531 531 
L 3531 0 
L 628 0 
L 628 4666 
z
" transform="scale(0.015625)"/>
       <path id="DejaVuSans-61" d="M 2194 1759 
Q 1497 1759 1228 1600 
Q 959 1441 959 1056 
Q 959 750 1161 570 
Q 1363 391 1709 391 
Q 2188 391 2477 730 
Q 2766 1069 2766 1631 
L 2766 1759 
L 2194 1759 
z
M 3341 1997 
L 3341 0 
L 2766 0 
L 2766 531 
Q 2569 213 2275 61 
Q 1981 -91 1556 -91 
Q 1019 -91 701 211 
Q 384 513 384 1019 
Q 384 1609 779 1909 
Q 1175 2209 1959 2209 
L 2766 2209 
L 2766 2266 
Q 2766 2663 2505 2880 
Q 2244 3097 1772 3097 
Q 1472 3097 1187 3025 
Q 903 2953 641 2809 
L 641 3341 
Q 956 3463 1253 3523 
Q 1550 3584 1831 3584 
Q 2591 3584 2966 3190 
Q 3341 2797 3341 1997 
z
" transform="scale(0.015625)"/>
       <path id="DejaVuSans-79" d="M 2059 -325 
Q 1816 -950 1584 -1140 
Q 1353 -1331 966 -1331 
L 506 -1331 
L 506 -850 
L 844 -850 
Q 1081 -850 1212 -737 
Q 1344 -625 1503 -206 
L 1606 56 
L 191 3500 
L 800 3500 
L 1894 763 
L 2988 3500 
L 3597 3500 
L 2059 -325 
z
" transform="scale(0.015625)"/>
       <path id="DejaVuSans-65" d="M 3597 1894 
L 3597 1613 
L 953 1613 
Q 991 1019 1311 708 
Q 1631 397 2203 397 
Q 2534 397 2845 478 
Q 3156 559 3463 722 
L 3463 178 
Q 3153 47 2828 -22 
Q 2503 -91 2169 -91 
Q 1331 -91 842 396 
Q 353 884 353 1716 
Q 353 2575 817 3079 
Q 1281 3584 2069 3584 
Q 2775 3584 3186 3129 
Q 3597 2675 3597 1894 
z
M 3022 2063 
Q 3016 2534 2758 2815 
Q 2500 3097 2075 3097 
Q 1594 3097 1305 2825 
Q 1016 2553 972 2059 
L 3022 2063 
z
" transform="scale(0.015625)"/>
       <path id="DejaVuSans-72" d="M 2631 2963 
Q 2534 3019 2420 3045 
Q 2306 3072 2169 3072 
Q 1681 3072 1420 2755 
Q 1159 2438 1159 1844 
L 1159 0 
L 581 0 
L 581 3500 
L 1159 3500 
L 1159 2956 
Q 1341 3275 1631 3429 
Q 1922 3584 2338 3584 
Q 2397 3584 2469 3576 
Q 2541 3569 2628 3553 
L 2631 2963 
z
" transform="scale(0.015625)"/>
       <path id="DejaVuSans-73" d="M 2834 3397 
L 2834 2853 
Q 2591 2978 2328 3040 
Q 2066 3103 1784 3103 
Q 1356 3103 1142 2972 
Q 928 2841 928 2578 
Q 928 2378 1081 2264 
Q 1234 2150 1697 2047 
L 1894 2003 
Q 2506 1872 2764 1633 
Q 3022 1394 3022 966 
Q 3022 478 2636 193 
Q 2250 -91 1575 -91 
Q 1294 -91 989 -36 
Q 684 19 347 128 
L 347 722 
Q 666 556 975 473 
Q 1284 391 1588 391 
Q 1994 391 2212 530 
Q 2431 669 2431 922 
Q 2431 1156 2273 1281 
Q 2116 1406 1581 1522 
L 1381 1569 
Q 847 1681 609 1914 
Q 372 2147 372 2553 
Q 372 3047 722 3315 
Q 1072 3584 1716 3584 
Q 2034 3584 2315 3537 
Q 2597 3491 2834 3397 
z
" transform="scale(0.015625)"/>
      </defs>
      <use xlink:href="#DejaVuSans-4e"/>
      <use xlink:href="#DejaVuSans-75" x="74.804688"/>
      <use xlink:href="#DejaVuSans-6d" x="138.183594"/>
      <use xlink:href="#DejaVuSans-4c" x="235.595703"/>
      <use xlink:href="#DejaVuSans-61" x="291.308594"/>
      <use xlink:href="#DejaVuSans-79" x="352.587891"/>
      <use xlink:href="#DejaVuSans-65" x="411.767578"/>
      <use xlink:href="#DejaVuSans-72" x="473.291016"/>
      <use xlink:href="#DejaVuSans-73" x="514.404297"/>
     </g>
    </g>
   </g>
   <g id="matplotlib.axis_2">
    <g id="ytick_1">
     <g id="line2d_7">
      <defs>
       <path id="mf5d1d652ce" d="M 0 0 
L -3.5 0 
" style="stroke: #000000; stroke-width: 0.8"/>
      </defs>
      <g>
       <use xlink:href="#mf5d1d652ce" x="180" y="762.362932" style="stroke: #000000; stroke-width: 0.8"/>
      </g>
     </g>
     <g id="text_8">
      <!-- 4 -->
      <g transform="translate(166.6375 766.162151) scale(0.1 -0.1)">
       <defs>
        <path id="DejaVuSans-34" d="M 2419 4116 
L 825 1625 
L 2419 1625 
L 2419 4116 
z
M 2253 4666 
L 3047 4666 
L 3047 1625 
L 3713 1625 
L 3713 1100 
L 3047 1100 
L 3047 0 
L 2419 0 
L 2419 1100 
L 313 1100 
L 313 1709 
L 2253 4666 
z
" transform="scale(0.015625)"/>
       </defs>
       <use xlink:href="#DejaVuSans-34"/>
      </g>
     </g>
    </g>
    <g id="ytick_2">
     <g id="line2d_8">
      <g>
       <use xlink:href="#mf5d1d652ce" x="180" y="663.15589" style="stroke: #000000; stroke-width: 0.8"/>
      </g>
     </g>
     <g id="text_9">
      <!-- 6 -->
      <g transform="translate(166.6375 666.955109) scale(0.1 -0.1)">
       <use xlink:href="#DejaVuSans-36"/>
      </g>
     </g>
    </g>
    <g id="ytick_3">
     <g id="line2d_9">
      <g>
       <use xlink:href="#mf5d1d652ce" x="180" y="563.948848" style="stroke: #000000; stroke-width: 0.8"/>
      </g>
     </g>
     <g id="text_10">
      <!-- 8 -->
      <g transform="translate(166.6375 567.748066) scale(0.1 -0.1)">
       <use xlink:href="#DejaVuSans-38"/>
      </g>
     </g>
    </g>
    <g id="ytick_4">
     <g id="line2d_10">
      <g>
       <use xlink:href="#mf5d1d652ce" x="180" y="464.741806" style="stroke: #000000; stroke-width: 0.8"/>
      </g>
     </g>
     <g id="text_11">
      <!-- 10 -->
      <g transform="translate(160.275 468.541024) scale(0.1 -0.1)">
       <defs>
        <path id="DejaVuSans-30" d="M 2034 4250 
Q 1547 4250 1301 3770 
Q 1056 3291 1056 2328 
Q 1056 1369 1301 889 
Q 1547 409 2034 409 
Q 2525 409 2770 889 
Q 3016 1369 3016 2328 
Q 3016 3291 2770 3770 
Q 2525 4250 2034 4250 
z
M 2034 4750 
Q 2819 4750 3233 4129 
Q 3647 3509 3647 2328 
Q 3647 1150 3233 529 
Q 2819 -91 2034 -91 
Q 1250 -91 836 529 
Q 422 1150 422 2328 
Q 422 3509 836 4129 
Q 1250 4750 2034 4750 
z
" transform="scale(0.015625)"/>
       </defs>
       <use xlink:href="#DejaVuSans-31"/>
       <use xlink:href="#DejaVuSans-30" x="63.623047"/>
      </g>
     </g>
    </g>
    <g id="ytick_5">
     <g id="line2d_11">
      <g>
       <use xlink:href="#mf5d1d652ce" x="180" y="365.534763" style="stroke: #000000; stroke-width: 0.8"/>
      </g>
     </g>
     <g id="text_12">
      <!-- 12 -->
      <g transform="translate(160.275 369.333982) scale(0.1 -0.1)">
       <use xlink:href="#DejaVuSans-31"/>
       <use xlink:href="#DejaVuSans-32" x="63.623047"/>
      </g>
     </g>
    </g>
    <g id="ytick_6">
     <g id="line2d_12">
      <g>
       <use xlink:href="#mf5d1d652ce" x="180" y="266.327721" style="stroke: #000000; stroke-width: 0.8"/>
      </g>
     </g>
     <g id="text_13">
      <!-- 14 -->
      <g transform="translate(160.275 270.12694) scale(0.1 -0.1)">
       <use xlink:href="#DejaVuSans-31"/>
       <use xlink:href="#DejaVuSans-34" x="63.623047"/>
      </g>
     </g>
    </g>
    <g id="ytick_7">
     <g id="line2d_13">
      <g>
       <use xlink:href="#mf5d1d652ce" x="180" y="167.120679" style="stroke: #000000; stroke-width: 0.8"/>
      </g>
     </g>
     <g id="text_14">
      <!-- 16 -->
      <g transform="translate(160.275 170.919898) scale(0.1 -0.1)">
       <use xlink:href="#DejaVuSans-31"/>
       <use xlink:href="#DejaVuSans-36" x="63.623047"/>
      </g>
     </g>
    </g>
    <g id="text_15">
     <!-- Duration (s) -->
     <g transform="translate(154.195312 466.130937) rotate(-90) scale(0.1 -0.1)">
      <defs>
       <path id="DejaVuSans-44" d="M 1259 4147 
L 1259 519 
L 2022 519 
Q 2988 519 3436 956 
Q 3884 1394 3884 2338 
Q 3884 3275 3436 3711 
Q 2988 4147 2022 4147 
L 1259 4147 
z
M 628 4666 
L 1925 4666 
Q 3281 4666 3915 4102 
Q 4550 3538 4550 2338 
Q 4550 1131 3912 565 
Q 3275 0 1925 0 
L 628 0 
L 628 4666 
z
" transform="scale(0.015625)"/>
       <path id="DejaVuSans-74" d="M 1172 4494 
L 1172 3500 
L 2356 3500 
L 2356 3053 
L 1172 3053 
L 1172 1153 
Q 1172 725 1289 603 
Q 1406 481 1766 481 
L 2356 481 
L 2356 0 
L 1766 0 
Q 1100 0 847 248 
Q 594 497 594 1153 
L 594 3053 
L 172 3053 
L 172 3500 
L 594 3500 
L 594 4494 
L 1172 4494 
z
" transform="scale(0.015625)"/>
       <path id="DejaVuSans-69" d="M 603 3500 
L 1178 3500 
L 1178 0 
L 603 0 
L 603 3500 
z
M 603 4863 
L 1178 4863 
L 1178 4134 
L 603 4134 
L 603 4863 
z
" transform="scale(0.015625)"/>
       <path id="DejaVuSans-6f" d="M 1959 3097 
Q 1497 3097 1228 2736 
Q 959 2375 959 1747 
Q 959 1119 1226 758 
Q 1494 397 1959 397 
Q 2419 397 2687 759 
Q 2956 1122 2956 1747 
Q 2956 2369 2687 2733 
Q 2419 3097 1959 3097 
z
M 1959 3584 
Q 2709 3584 3137 3096 
Q 3566 2609 3566 1747 
Q 3566 888 3137 398 
Q 2709 -91 1959 -91 
Q 1206 -91 779 398 
Q 353 888 353 1747 
Q 353 2609 779 3096 
Q 1206 3584 1959 3584 
z
" transform="scale(0.015625)"/>
       <path id="DejaVuSans-6e" d="M 3513 2113 
L 3513 0 
L 2938 0 
L 2938 2094 
Q 2938 2591 2744 2837 
Q 2550 3084 2163 3084 
Q 1697 3084 1428 2787 
Q 1159 2491 1159 1978 
L 1159 0 
L 581 0 
L 581 3500 
L 1159 3500 
L 1159 2956 
Q 1366 3272 1645 3428 
Q 1925 3584 2291 3584 
Q 2894 3584 3203 3211 
Q 3513 2838 3513 2113 
z
" transform="scale(0.015625)"/>
       <path id="DejaVuSans-20" transform="scale(0.015625)"/>
       <path id="DejaVuSans-28" d="M 1984 4856 
Q 1566 4138 1362 3434 
Q 1159 2731 1159 2009 
Q 1159 1288 1364 580 
Q 1569 -128 1984 -844 
L 1484 -844 
Q 1016 -109 783 600 
Q 550 1309 550 2009 
Q 550 2706 781 3412 
Q 1013 4119 1484 4856 
L 1984 4856 
z
" transform="scale(0.015625)"/>
       <path id="DejaVuSans-29" d="M 513 4856 
L 1013 4856 
Q 1481 4119 1714 3412 
Q 1947 2706 1947 2009 
Q 1947 1309 1714 600 
Q 1481 -109 1013 -844 
L 513 -844 
Q 928 -128 1133 580 
Q 1338 1288 1338 2009 
Q 1338 2731 1133 3434 
Q 928 4138 513 4856 
z
" transform="scale(0.015625)"/>
      </defs>
      <use xlink:href="#DejaVuSans-44"/>
      <use xlink:href="#DejaVuSans-75" x="77.001953"/>
      <use xlink:href="#DejaVuSans-72" x="140.380859"/>
      <use xlink:href="#DejaVuSans-61" x="181.494141"/>
      <use xlink:href="#DejaVuSans-74" x="242.773438"/>
      <use xlink:href="#DejaVuSans-69" x="281.982422"/>
      <use xlink:href="#DejaVuSans-6f" x="309.765625"/>
      <use xlink:href="#DejaVuSans-6e" x="370.947266"/>
      <use xlink:href="#DejaVuSans-20" x="434.326172"/>
      <use xlink:href="#DejaVuSans-28" x="466.113281"/>
      <use xlink:href="#DejaVuSans-73" x="505.126953"/>
      <use xlink:href="#DejaVuSans-29" x="557.226562"/>
     </g>
    </g>
   </g>
   <g id="line2d_14">
    <path d="M 230.727273 584.974163 
L 433.636364 505.044154 
L 636.545455 526.144391 
L 839.454545 488.402685 
L 1042.363636 424.659428 
L 1245.272727 391.881904 
" clip-path="url(#pfb858de06b)" style="fill: none; stroke-dasharray: 1.5,2.475; stroke-dashoffset: 0; stroke: #1f77b4; stroke-width: 1.5"/>
   </g>
   <g id="line2d_15">
    <path d="M 230.727273 661.305297 
L 433.636364 622.86853 
L 636.545455 614.27782 
L 839.454545 322.982574 
L 1042.363636 489.860265 
L 1245.272727 370.484673 
" clip-path="url(#pfb858de06b)" style="fill: none; stroke-dasharray: 1.5,2.475; stroke-dashoffset: 0; stroke: #ff7f0e; stroke-width: 1.5"/>
   </g>
   <g id="line2d_16">
    <path d="M 230.727273 720.742949 
L 433.636364 652.034375 
L 636.545455 575.135219 
L 839.454545 472.597848 
L 1042.363636 418.70397 
L 1245.272727 399.983005 
" clip-path="url(#pfb858de06b)" style="fill: none; stroke-dasharray: 1.5,2.475; stroke-dashoffset: 0; stroke: #2ca02c; stroke-width: 1.5"/>
   </g>
   <g id="line2d_17">
    <path d="M 230.727273 623.056164 
L 433.636364 541.66038 
L 636.545455 541.091737 
L 839.454545 479.788255 
L 1042.363636 424.56535 
L 1245.272727 393.585339 
" clip-path="url(#pfb858de06b)" style="fill: none; stroke-dasharray: 1.5,2.475; stroke-dashoffset: 0; stroke: #d62728; stroke-width: 1.5"/>
   </g>
   <g id="line2d_18">
    <path d="M 230.727273 575.733776 
L 240.975207 573.938167 
L 251.22314 572.142558 
L 261.471074 570.346949 
L 271.719008 568.55134 
L 281.966942 566.75573 
L 292.214876 564.960121 
L 302.46281 563.164512 
L 312.710744 561.368903 
L 322.958678 559.573294 
L 333.206612 557.777684 
L 343.454545 555.982075 
L 353.702479 554.186466 
L 363.950413 552.390857 
L 374.198347 550.595247 
L 384.446281 548.799638 
L 394.694215 547.004029 
L 404.942149 545.20842 
L 415.190083 543.412811 
L 425.438017 541.617201 
L 435.68595 539.821592 
L 445.933884 538.025983 
L 456.181818 536.230374 
L 466.429752 534.434765 
L 476.677686 532.639155 
L 486.92562 530.843546 
L 497.173554 529.047937 
L 507.421488 527.252328 
L 517.669421 525.456719 
L 527.917355 523.661109 
L 538.165289 521.8655 
L 548.413223 520.069891 
L 558.661157 518.274282 
L 568.909091 516.478673 
L 579.157025 514.683063 
L 589.404959 512.887454 
L 599.652893 511.091845 
L 609.900826 509.296236 
L 620.14876 507.500627 
L 630.396694 505.705017 
L 640.644628 503.909408 
L 650.892562 502.113799 
L 661.140496 500.31819 
L 671.38843 498.522581 
L 681.636364 496.726971 
L 691.884298 494.931362 
L 702.132231 493.135753 
L 712.380165 491.340144 
L 722.628099 489.544535 
L 732.876033 487.748925 
L 743.123967 485.953316 
L 753.371901 484.157707 
L 763.619835 482.362098 
L 773.867769 480.566489 
L 784.115702 478.770879 
L 794.363636 476.97527 
L 804.61157 475.179661 
L 814.859504 473.384052 
L 825.107438 471.588443 
L 835.355372 469.792833 
L 845.603306 467.997224 
L 855.85124 466.201615 
L 866.099174 464.406006 
L 876.347107 462.610397 
L 886.595041 460.814787 
L 896.842975 459.019178 
L 907.090909 457.223569 
L 917.338843 455.42796 
L 927.586777 453.632351 
L 937.834711 451.836741 
L 948.082645 450.041132 
L 958.330579 448.245523 
L 968.578512 446.449914 
L 978.826446 444.654305 
L 989.07438 442.858695 
L 999.322314 441.063086 
L 1009.570248 439.267477 
L 1019.818182 437.471868 
L 1030.066116 435.676258 
L 1040.31405 433.880649 
L 1050.561983 432.08504 
L 1060.809917 430.289431 
L 1071.057851 428.493822 
L 1081.305785 426.698212 
L 1091.553719 424.902603 
L 1101.801653 423.106994 
L 1112.049587 421.311385 
L 1122.297521 419.515776 
L 1132.545455 417.720166 
L 1142.793388 415.924557 
L 1153.041322 414.128948 
L 1163.289256 412.333339 
L 1173.53719 410.53773 
L 1183.785124 408.74212 
L 1194.033058 406.946511 
L 1204.280992 405.150902 
L 1214.528926 403.355293 
L 1224.77686 401.559684 
L 1235.024793 399.764074 
L 1245.272727 397.968465 
" clip-path="url(#pfb858de06b)" style="fill: none; stroke-dasharray: 8.325,3.6; stroke-dashoffset: 0; stroke: #1f77b4; stroke-width: 2.25"/>
   </g>
   <g id="line2d_19">
    <path d="M 230.727273 666.802943 
L 240.975207 663.708537 
L 251.22314 660.614131 
L 261.471074 657.519726 
L 271.719008 654.42532 
L 281.966942 651.330914 
L 292.214876 648.236509 
L 302.46281 645.142103 
L 312.710744 642.047697 
L 322.958678 638.953291 
L 333.206612 635.858886 
L 343.454545 632.76448 
L 353.702479 629.670074 
L 363.950413 626.575669 
L 374.198347 623.481263 
L 384.446281 620.386857 
L 394.694215 617.292451 
L 404.942149 614.198046 
L 415.190083 611.10364 
L 425.438017 608.009234 
L 435.68595 604.914828 
L 445.933884 601.820423 
L 456.181818 598.726017 
L 466.429752 595.631611 
L 476.677686 592.537206 
L 486.92562 589.4428 
L 497.173554 586.348394 
L 507.421488 583.253988 
L 517.669421 580.159583 
L 527.917355 577.065177 
L 538.165289 573.970771 
L 548.413223 570.876366 
L 558.661157 567.78196 
L 568.909091 564.687554 
L 579.157025 561.593148 
L 589.404959 558.498743 
L 599.652893 555.404337 
L 609.900826 552.309931 
L 620.14876 549.215526 
L 630.396694 546.12112 
L 640.644628 543.026714 
L 650.892562 539.932308 
L 661.140496 536.837903 
L 671.38843 533.743497 
L 681.636364 530.649091 
L 691.884298 527.554686 
L 702.132231 524.46028 
L 712.380165 521.365874 
L 722.628099 518.271468 
L 732.876033 515.177063 
L 743.123967 512.082657 
L 753.371901 508.988251 
L 763.619835 505.893846 
L 773.867769 502.79944 
L 784.115702 499.705034 
L 794.363636 496.610628 
L 804.61157 493.516223 
L 814.859504 490.421817 
L 825.107438 487.327411 
L 835.355372 484.233006 
L 845.603306 481.1386 
L 855.85124 478.044194 
L 866.099174 474.949788 
L 876.347107 471.855383 
L 886.595041 468.760977 
L 896.842975 465.666571 
L 907.090909 462.572165 
L 917.338843 459.47776 
L 927.586777 456.383354 
L 937.834711 453.288948 
L 948.082645 450.194543 
L 958.330579 447.100137 
L 968.578512 444.005731 
L 978.826446 440.911325 
L 989.07438 437.81692 
L 999.322314 434.722514 
L 1009.570248 431.628108 
L 1019.818182 428.533703 
L 1030.066116 425.439297 
L 1040.31405 422.344891 
L 1050.561983 419.250485 
L 1060.809917 416.15608 
L 1071.057851 413.061674 
L 1081.305785 409.967268 
L 1091.553719 406.872863 
L 1101.801653 403.778457 
L 1112.049587 400.684051 
L 1122.297521 397.589645 
L 1132.545455 394.49524 
L 1142.793388 391.400834 
L 1153.041322 388.306428 
L 1163.289256 385.212023 
L 1173.53719 382.117617 
L 1183.785124 379.023211 
L 1194.033058 375.928805 
L 1204.280992 372.8344 
L 1214.528926 369.739994 
L 1224.77686 366.645588 
L 1235.024793 363.551183 
L 1245.272727 360.456777 
" clip-path="url(#pfb858de06b)" style="fill: none; stroke-dasharray: 8.325,3.6; stroke-dashoffset: 0; stroke: #ff7f0e; stroke-width: 2.25"/>
   </g>
   <g id="line2d_20">
    <path d="M 230.727273 711.746821 
L 240.975207 708.274486 
L 251.22314 704.802151 
L 261.471074 701.329815 
L 271.719008 697.85748 
L 281.966942 694.385145 
L 292.214876 690.91281 
L 302.46281 687.440475 
L 312.710744 683.968139 
L 322.958678 680.495804 
L 333.206612 677.023469 
L 343.454545 673.551134 
L 353.702479 670.078798 
L 363.950413 666.606463 
L 374.198347 663.134128 
L 384.446281 659.661793 
L 394.694215 656.189458 
L 404.942149 652.717122 
L 415.190083 649.244787 
L 425.438017 645.772452 
L 435.68595 642.300117 
L 445.933884 638.827782 
L 456.181818 635.355446 
L 466.429752 631.883111 
L 476.677686 628.410776 
L 486.92562 624.938441 
L 497.173554 621.466105 
L 507.421488 617.99377 
L 517.669421 614.521435 
L 527.917355 611.0491 
L 538.165289 607.576765 
L 548.413223 604.104429 
L 558.661157 600.632094 
L 568.909091 597.159759 
L 579.157025 593.687424 
L 589.404959 590.215088 
L 599.652893 586.742753 
L 609.900826 583.270418 
L 620.14876 579.798083 
L 630.396694 576.325748 
L 640.644628 572.853412 
L 650.892562 569.381077 
L 661.140496 565.908742 
L 671.38843 562.436407 
L 681.636364 558.964071 
L 691.884298 555.491736 
L 702.132231 552.019401 
L 712.380165 548.547066 
L 722.628099 545.074731 
L 732.876033 541.602395 
L 743.123967 538.13006 
L 753.371901 534.657725 
L 763.619835 531.18539 
L 773.867769 527.713055 
L 784.115702 524.240719 
L 794.363636 520.768384 
L 804.61157 517.296049 
L 814.859504 513.823714 
L 825.107438 510.351378 
L 835.355372 506.879043 
L 845.603306 503.406708 
L 855.85124 499.934373 
L 866.099174 496.462038 
L 876.347107 492.989702 
L 886.595041 489.517367 
L 896.842975 486.045032 
L 907.090909 482.572697 
L 917.338843 479.100361 
L 927.586777 475.628026 
L 937.834711 472.155691 
L 948.082645 468.683356 
L 958.330579 465.211021 
L 968.578512 461.738685 
L 978.826446 458.26635 
L 989.07438 454.794015 
L 999.322314 451.32168 
L 1009.570248 447.849344 
L 1019.818182 444.377009 
L 1030.066116 440.904674 
L 1040.31405 437.432339 
L 1050.561983 433.960004 
L 1060.809917 430.487668 
L 1071.057851 427.015333 
L 1081.305785 423.542998 
L 1091.553719 420.070663 
L 1101.801653 416.598328 
L 1112.049587 413.125992 
L 1122.297521 409.653657 
L 1132.545455 406.181322 
L 1142.793388 402.708987 
L 1153.041322 399.236651 
L 1163.289256 395.764316 
L 1173.53719 392.291981 
L 1183.785124 388.819646 
L 1194.033058 385.347311 
L 1204.280992 381.874975 
L 1214.528926 378.40264 
L 1224.77686 374.930305 
L 1235.024793 371.45797 
L 1245.272727 367.985634 
" clip-path="url(#pfb858de06b)" style="fill: none; stroke-dasharray: 8.325,3.6; stroke-dashoffset: 0; stroke: #2ca02c; stroke-width: 2.25"/>
   </g>
   <g id="line2d_21">
    <path d="M 230.727273 612.049016 
L 240.975207 609.798016 
L 251.22314 607.547017 
L 261.471074 605.296017 
L 271.719008 603.045018 
L 281.966942 600.794018 
L 292.214876 598.543018 
L 302.46281 596.292019 
L 312.710744 594.041019 
L 322.958678 591.79002 
L 333.206612 589.53902 
L 343.454545 587.288021 
L 353.702479 585.037021 
L 363.950413 582.786021 
L 374.198347 580.535022 
L 384.446281 578.284022 
L 394.694215 576.033023 
L 404.942149 573.782023 
L 415.190083 571.531024 
L 425.438017 569.280024 
L 435.68595 567.029025 
L 445.933884 564.778025 
L 456.181818 562.527025 
L 466.429752 560.276026 
L 476.677686 558.025026 
L 486.92562 555.774027 
L 497.173554 553.523027 
L 507.421488 551.272028 
L 517.669421 549.021028 
L 527.917355 546.770028 
L 538.165289 544.519029 
L 548.413223 542.268029 
L 558.661157 540.01703 
L 568.909091 537.76603 
L 579.157025 535.515031 
L 589.404959 533.264031 
L 599.652893 531.013031 
L 609.900826 528.762032 
L 620.14876 526.511032 
L 630.396694 524.260033 
L 640.644628 522.009033 
L 650.892562 519.758034 
L 661.140496 517.507034 
L 671.38843 515.256035 
L 681.636364 513.005035 
L 691.884298 510.754035 
L 702.132231 508.503036 
L 712.380165 506.252036 
L 722.628099 504.001037 
L 732.876033 501.750037 
L 743.123967 499.499038 
L 753.371901 497.248038 
L 763.619835 494.997038 
L 773.867769 492.746039 
L 784.115702 490.495039 
L 794.363636 488.24404 
L 804.61157 485.99304 
L 814.859504 483.742041 
L 825.107438 481.491041 
L 835.355372 479.240042 
L 845.603306 476.989042 
L 855.85124 474.738042 
L 866.099174 472.487043 
L 876.347107 470.236043 
L 886.595041 467.985044 
L 896.842975 465.734044 
L 907.090909 463.483045 
L 917.338843 461.232045 
L 927.586777 458.981045 
L 937.834711 456.730046 
L 948.082645 454.479046 
L 958.330579 452.228047 
L 968.578512 449.977047 
L 978.826446 447.726048 
L 989.07438 445.475048 
L 999.322314 443.224049 
L 1009.570248 440.973049 
L 1019.818182 438.722049 
L 1030.066116 436.47105 
L 1040.31405 434.22005 
L 1050.561983 431.969051 
L 1060.809917 429.718051 
L 1071.057851 427.467052 
L 1081.305785 425.216052 
L 1091.553719 422.965052 
L 1101.801653 420.714053 
L 1112.049587 418.463053 
L 1122.297521 416.212054 
L 1132.545455 413.961054 
L 1142.793388 411.710055 
L 1153.041322 409.459055 
L 1163.289256 407.208055 
L 1173.53719 404.957056 
L 1183.785124 402.706056 
L 1194.033058 400.455057 
L 1204.280992 398.204057 
L 1214.528926 395.953058 
L 1224.77686 393.702058 
L 1235.024793 391.451059 
L 1245.272727 389.200059 
" clip-path="url(#pfb858de06b)" style="fill: none; stroke-dasharray: 8.325,3.6; stroke-dashoffset: 0; stroke: #d62728; stroke-width: 2.25"/>
   </g>
   <g id="patch_3">
    <path d="M 180 768.96 
L 180 103.68 
" style="fill: none; stroke: #000000; stroke-width: 0.8; stroke-linejoin: miter; stroke-linecap: square"/>
   </g>
   <g id="patch_4">
    <path d="M 1296 768.96 
L 1296 103.68 
" style="fill: none; stroke: #000000; stroke-width: 0.8; stroke-linejoin: miter; stroke-linecap: square"/>
   </g>
   <g id="patch_5">
    <path d="M 180 768.96 
L 1296 768.96 
" style="fill: none; stroke: #000000; stroke-width: 0.8; stroke-linejoin: miter; stroke-linecap: square"/>
   </g>
   <g id="patch_6">
    <path d="M 180 103.68 
L 1296 103.68 
" style="fill: none; stroke: #000000; stroke-width: 0.8; stroke-linejoin: miter; stroke-linecap: square"/>
   </g>
   <g id="legend_1">
    <g id="patch_7">
     <path d="M 1177.576562 171.505 
L 1289 171.505 
Q 1291 171.505 1291 169.505 
L 1291 110.68 
Q 1291 108.68 1289 108.68 
L 1177.576562 108.68 
Q 1175.576562 108.68 1175.576562 110.68 
L 1175.576562 169.505 
Q 1175.576562 171.505 1177.576562 171.505 
z
" style="fill: #ffffff; opacity: 0.8; stroke: #cccccc; stroke-linejoin: miter"/>
    </g>
    <g id="line2d_22">
     <path d="M 1179.576562 116.778437 
L 1189.576562 116.778437 
L 1199.576562 116.778437 
" style="fill: none; stroke-dasharray: 1.5,2.475; stroke-dashoffset: 0; stroke: #1f77b4; stroke-width: 1.5"/>
    </g>
    <g id="text_16">
     <!-- Completed_Avg -->
     <g transform="translate(1207.576562 120.278437) scale(0.1 -0.1)">
      <defs>
       <path id="DejaVuSans-43" d="M 4122 4306 
L 4122 3641 
Q 3803 3938 3442 4084 
Q 3081 4231 2675 4231 
Q 1875 4231 1450 3742 
Q 1025 3253 1025 2328 
Q 1025 1406 1450 917 
Q 1875 428 2675 428 
Q 3081 428 3442 575 
Q 3803 722 4122 1019 
L 4122 359 
Q 3791 134 3420 21 
Q 3050 -91 2638 -91 
Q 1578 -91 968 557 
Q 359 1206 359 2328 
Q 359 3453 968 4101 
Q 1578 4750 2638 4750 
Q 3056 4750 3426 4639 
Q 3797 4528 4122 4306 
z
" transform="scale(0.015625)"/>
       <path id="DejaVuSans-70" d="M 1159 525 
L 1159 -1331 
L 581 -1331 
L 581 3500 
L 1159 3500 
L 1159 2969 
Q 1341 3281 1617 3432 
Q 1894 3584 2278 3584 
Q 2916 3584 3314 3078 
Q 3713 2572 3713 1747 
Q 3713 922 3314 415 
Q 2916 -91 2278 -91 
Q 1894 -91 1617 61 
Q 1341 213 1159 525 
z
M 3116 1747 
Q 3116 2381 2855 2742 
Q 2594 3103 2138 3103 
Q 1681 3103 1420 2742 
Q 1159 2381 1159 1747 
Q 1159 1113 1420 752 
Q 1681 391 2138 391 
Q 2594 391 2855 752 
Q 3116 1113 3116 1747 
z
" transform="scale(0.015625)"/>
       <path id="DejaVuSans-6c" d="M 603 4863 
L 1178 4863 
L 1178 0 
L 603 0 
L 603 4863 
z
" transform="scale(0.015625)"/>
       <path id="DejaVuSans-64" d="M 2906 2969 
L 2906 4863 
L 3481 4863 
L 3481 0 
L 2906 0 
L 2906 525 
Q 2725 213 2448 61 
Q 2172 -91 1784 -91 
Q 1150 -91 751 415 
Q 353 922 353 1747 
Q 353 2572 751 3078 
Q 1150 3584 1784 3584 
Q 2172 3584 2448 3432 
Q 2725 3281 2906 2969 
z
M 947 1747 
Q 947 1113 1208 752 
Q 1469 391 1925 391 
Q 2381 391 2643 752 
Q 2906 1113 2906 1747 
Q 2906 2381 2643 2742 
Q 2381 3103 1925 3103 
Q 1469 3103 1208 2742 
Q 947 2381 947 1747 
z
" transform="scale(0.015625)"/>
       <path id="DejaVuSans-5f" d="M 3263 -1063 
L 3263 -1509 
L -63 -1509 
L -63 -1063 
L 3263 -1063 
z
" transform="scale(0.015625)"/>
       <path id="DejaVuSans-41" d="M 2188 4044 
L 1331 1722 
L 3047 1722 
L 2188 4044 
z
M 1831 4666 
L 2547 4666 
L 4325 0 
L 3669 0 
L 3244 1197 
L 1141 1197 
L 716 0 
L 50 0 
L 1831 4666 
z
" transform="scale(0.015625)"/>
       <path id="DejaVuSans-76" d="M 191 3500 
L 800 3500 
L 1894 563 
L 2988 3500 
L 3597 3500 
L 2284 0 
L 1503 0 
L 191 3500 
z
" transform="scale(0.015625)"/>
       <path id="DejaVuSans-67" d="M 2906 1791 
Q 2906 2416 2648 2759 
Q 2391 3103 1925 3103 
Q 1463 3103 1205 2759 
Q 947 2416 947 1791 
Q 947 1169 1205 825 
Q 1463 481 1925 481 
Q 2391 481 2648 825 
Q 2906 1169 2906 1791 
z
M 3481 434 
Q 3481 -459 3084 -895 
Q 2688 -1331 1869 -1331 
Q 1566 -1331 1297 -1286 
Q 1028 -1241 775 -1147 
L 775 -588 
Q 1028 -725 1275 -790 
Q 1522 -856 1778 -856 
Q 2344 -856 2625 -561 
Q 2906 -266 2906 331 
L 2906 616 
Q 2728 306 2450 153 
Q 2172 0 1784 0 
Q 1141 0 747 490 
Q 353 981 353 1791 
Q 353 2603 747 3093 
Q 1141 3584 1784 3584 
Q 2172 3584 2450 3431 
Q 2728 3278 2906 2969 
L 2906 3500 
L 3481 3500 
L 3481 434 
z
" transform="scale(0.015625)"/>
      </defs>
      <use xlink:href="#DejaVuSans-43"/>
      <use xlink:href="#DejaVuSans-6f" x="69.824219"/>
      <use xlink:href="#DejaVuSans-6d" x="131.005859"/>
      <use xlink:href="#DejaVuSans-70" x="228.417969"/>
      <use xlink:href="#DejaVuSans-6c" x="291.894531"/>
      <use xlink:href="#DejaVuSans-65" x="319.677734"/>
      <use xlink:href="#DejaVuSans-74" x="381.201172"/>
      <use xlink:href="#DejaVuSans-65" x="420.410156"/>
      <use xlink:href="#DejaVuSans-64" x="481.933594"/>
      <use xlink:href="#DejaVuSans-5f" x="545.410156"/>
      <use xlink:href="#DejaVuSans-41" x="595.410156"/>
      <use xlink:href="#DejaVuSans-76" x="657.943359"/>
      <use xlink:href="#DejaVuSans-67" x="717.123047"/>
     </g>
    </g>
    <g id="line2d_23">
     <path d="M 1179.576562 131.734687 
L 1189.576562 131.734687 
L 1199.576562 131.734687 
" style="fill: none; stroke-dasharray: 1.5,2.475; stroke-dashoffset: 0; stroke: #ff7f0e; stroke-width: 1.5"/>
    </g>
    <g id="text_17">
     <!-- Failed_Avg -->
     <g transform="translate(1207.576562 135.234687) scale(0.1 -0.1)">
      <defs>
       <path id="DejaVuSans-46" d="M 628 4666 
L 3309 4666 
L 3309 4134 
L 1259 4134 
L 1259 2759 
L 3109 2759 
L 3109 2228 
L 1259 2228 
L 1259 0 
L 628 0 
L 628 4666 
z
" transform="scale(0.015625)"/>
      </defs>
      <use xlink:href="#DejaVuSans-46"/>
      <use xlink:href="#DejaVuSans-61" x="48.394531"/>
      <use xlink:href="#DejaVuSans-69" x="109.673828"/>
      <use xlink:href="#DejaVuSans-6c" x="137.457031"/>
      <use xlink:href="#DejaVuSans-65" x="165.240234"/>
      <use xlink:href="#DejaVuSans-64" x="226.763672"/>
      <use xlink:href="#DejaVuSans-5f" x="290.240234"/>
      <use xlink:href="#DejaVuSans-41" x="340.240234"/>
      <use xlink:href="#DejaVuSans-76" x="402.773438"/>
      <use xlink:href="#DejaVuSans-67" x="461.953125"/>
     </g>
    </g>
    <g id="line2d_24">
     <path d="M 1179.576562 146.690938 
L 1189.576562 146.690938 
L 1199.576562 146.690938 
" style="fill: none; stroke-dasharray: 1.5,2.475; stroke-dashoffset: 0; stroke: #2ca02c; stroke-width: 1.5"/>
    </g>
    <g id="text_18">
     <!-- Terminated_Avg -->
     <g transform="translate(1207.576562 150.190938) scale(0.1 -0.1)">
      <defs>
       <path id="DejaVuSans-54" d="M -19 4666 
L 3928 4666 
L 3928 4134 
L 2272 4134 
L 2272 0 
L 1638 0 
L 1638 4134 
L -19 4134 
L -19 4666 
z
" transform="scale(0.015625)"/>
      </defs>
      <use xlink:href="#DejaVuSans-54"/>
      <use xlink:href="#DejaVuSans-65" x="44.083984"/>
      <use xlink:href="#DejaVuSans-72" x="105.607422"/>
      <use xlink:href="#DejaVuSans-6d" x="144.970703"/>
      <use xlink:href="#DejaVuSans-69" x="242.382812"/>
      <use xlink:href="#DejaVuSans-6e" x="270.166016"/>
      <use xlink:href="#DejaVuSans-61" x="333.544922"/>
      <use xlink:href="#DejaVuSans-74" x="394.824219"/>
      <use xlink:href="#DejaVuSans-65" x="434.033203"/>
      <use xlink:href="#DejaVuSans-64" x="495.556641"/>
      <use xlink:href="#DejaVuSans-5f" x="559.033203"/>
      <use xlink:href="#DejaVuSans-41" x="609.033203"/>
      <use xlink:href="#DejaVuSans-76" x="671.566406"/>
      <use xlink:href="#DejaVuSans-67" x="730.746094"/>
     </g>
    </g>
    <g id="line2d_25">
     <path d="M 1179.576562 161.647187 
L 1189.576562 161.647187 
L 1199.576562 161.647187 
" style="fill: none; stroke-dasharray: 1.5,2.475; stroke-dashoffset: 0; stroke: #d62728; stroke-width: 1.5"/>
    </g>
    <g id="text_19">
     <!-- All_Avg -->
     <g transform="translate(1207.576562 165.147187) scale(0.1 -0.1)">
      <use xlink:href="#DejaVuSans-41"/>
      <use xlink:href="#DejaVuSans-6c" x="68.408203"/>
      <use xlink:href="#DejaVuSans-6c" x="96.191406"/>
      <use xlink:href="#DejaVuSans-5f" x="123.974609"/>
      <use xlink:href="#DejaVuSans-41" x="173.974609"/>
      <use xlink:href="#DejaVuSans-76" x="236.507812"/>
      <use xlink:href="#DejaVuSans-67" x="295.6875"/>
     </g>
    </g>
   </g>
  </g>
 </g>
 <defs>
  <clipPath id="pfb858de06b">
   <rect x="180" y="103.68" width="1116" height="665.28"/>
  </clipPath>
 </defs>
</svg>
