<?xml version="1.0" encoding="utf-8" standalone="no"?>
<!DOCTYPE svg PUBLIC "-//W3C//DTD SVG 1.1//EN"
  "http://www.w3.org/Graphics/SVG/1.1/DTD/svg11.dtd">
<svg xmlns:xlink="http://www.w3.org/1999/xlink" width="1440pt" height="864pt" viewBox="0 0 1440 864" xmlns="http://www.w3.org/2000/svg" version="1.1">
 <metadata>
  <rdf:RDF xmlns:dc="http://purl.org/dc/elements/1.1/" xmlns:cc="http://creativecommons.org/ns#" xmlns:rdf="http://www.w3.org/1999/02/22-rdf-syntax-ns#">
   <cc:Work>
    <dc:type rdf:resource="http://purl.org/dc/dcmitype/StillImage"/>
    <dc:date>2025-07-26T18:00:07.986908</dc:date>
    <dc:format>image/svg+xml</dc:format>
    <dc:creator>
     <cc:Agent>
      <dc:title>Matplotlib v3.8.0, https://matplotlib.org/</dc:title>
     </cc:Agent>
    </dc:creator>
   </cc:Work>
  </rdf:RDF>
 </metadata>
 <defs>
  <style type="text/css">*{stroke-linejoin: round; stroke-linecap: butt}</style>
 </defs>
 <g id="figure_1">
  <g id="patch_1">
   <path d="M 0 864 
L 1440 864 
L 1440 0 
L 0 0 
z
" style="fill: #ffffff"/>
  </g>
  <g id="axes_1">
   <g id="patch_2">
    <path d="M 180 768.96 
L 1296 768.96 
L 1296 103.68 
L 180 103.68 
z
" style="fill: #ffffff"/>
   </g>
   <g id="PathCollection_1">
    <defs>
     <path id="m42aa86493c" d="M 0 3 
C 0.795609 3 1.55874 2.683901 2.12132 2.12132 
C 2.683901 1.55874 3 0.795609 3 0 
C 3 -0.795609 2.683901 -1.55874 2.12132 -2.12132 
C 1.55874 -2.683901 0.795609 -3 0 -3 
C -0.795609 -3 -1.55874 -2.683901 -2.12132 -2.12132 
C -2.683901 -1.55874 -3 -0.795609 -3 0 
C -3 0.795609 -2.683901 1.55874 -2.12132 2.12132 
C -1.55874 2.683901 -0.795609 3 0 3 
z
" style="stroke: #1f77b4; stroke-opacity: 0.8"/>
    </defs>
    <g clip-path="url(#p61246d3c28)">
     <use xlink:href="#m42aa86493c" x="230.727273" y="563.270699" style="fill: #1f77b4; fill-opacity: 0.8; stroke: #1f77b4; stroke-opacity: 0.8"/>
     <use xlink:href="#m42aa86493c" x="433.636364" y="487.179551" style="fill: #1f77b4; fill-opacity: 0.8; stroke: #1f77b4; stroke-opacity: 0.8"/>
     <use xlink:href="#m42aa86493c" x="636.545455" y="507.266391" style="fill: #1f77b4; fill-opacity: 0.8; stroke: #1f77b4; stroke-opacity: 0.8"/>
     <use xlink:href="#m42aa86493c" x="839.454545" y="471.337335" style="fill: #1f77b4; fill-opacity: 0.8; stroke: #1f77b4; stroke-opacity: 0.8"/>
     <use xlink:href="#m42aa86493c" x="1042.363636" y="410.655524" style="fill: #1f77b4; fill-opacity: 0.8; stroke: #1f77b4; stroke-opacity: 0.8"/>
     <use xlink:href="#m42aa86493c" x="1245.272727" y="379.452231" style="fill: #1f77b4; fill-opacity: 0.8; stroke: #1f77b4; stroke-opacity: 0.8"/>
    </g>
   </g>
   <g id="PolyCollection_1">
    <path d="M 230.727273 517.348175 
L 230.727273 602.414983 
L 240.975207 600.098002 
L 251.22314 597.781021 
L 261.471074 595.464041 
L 271.719008 593.14706 
L 281.966942 590.83008 
L 292.214876 588.513099 
L 302.46281 586.195416 
L 312.710744 583.874617 
L 322.958678 581.553819 
L 333.206612 579.23302 
L 343.454545 576.912222 
L 353.702479 574.591423 
L 363.950413 572.161569 
L 374.198347 569.721901 
L 384.446281 567.282233 
L 394.694215 564.842564 
L 404.942149 562.404616 
L 415.190083 559.970983 
L 425.438017 557.53735 
L 435.68595 555.238383 
L 445.933884 553.023443 
L 456.181818 550.806834 
L 466.429752 548.588907 
L 476.677686 546.37098 
L 486.92562 544.153052 
L 497.173554 541.935125 
L 507.421488 539.717198 
L 517.669421 537.499271 
L 527.917355 535.189409 
L 538.165289 532.871659 
L 548.413223 530.553908 
L 558.661157 528.236157 
L 568.909091 525.918407 
L 579.157025 523.600656 
L 589.404959 521.148644 
L 599.652893 518.687422 
L 609.900826 516.300041 
L 620.14876 514.060813 
L 630.396694 511.821584 
L 640.644628 509.582356 
L 650.892562 507.343127 
L 661.140496 505.103899 
L 671.38843 502.86467 
L 681.636364 500.625442 
L 691.884298 498.386213 
L 702.132231 496.146985 
L 712.380165 494.026203 
L 722.628099 492.009891 
L 732.876033 490.499226 
L 743.123967 488.235359 
L 753.371901 486.077425 
L 763.619835 484.279111 
L 773.867769 482.973668 
L 784.115702 481.315988 
L 794.363636 479.751212 
L 804.61157 478.193891 
L 814.859504 476.636682 
L 825.107438 475.069054 
L 835.355372 474.214418 
L 845.603306 472.694133 
L 855.85124 471.165021 
L 866.099174 470.297189 
L 876.347107 469.499711 
L 886.595041 468.039105 
L 896.842975 466.541763 
L 907.090909 465.044422 
L 917.338843 463.563736 
L 927.586777 462.481889 
L 937.834711 461.400041 
L 948.082645 460.318193 
L 958.330579 459.236346 
L 968.578512 458.154498 
L 978.826446 457.07265 
L 989.07438 455.990803 
L 999.322314 454.908955 
L 1009.570248 453.827108 
L 1019.818182 452.74526 
L 1030.066116 451.663412 
L 1040.31405 450.581565 
L 1050.561983 449.499717 
L 1060.809917 448.417869 
L 1071.057851 447.336022 
L 1081.305785 446.254174 
L 1091.553719 445.172327 
L 1101.801653 444.090479 
L 1112.049587 443.008631 
L 1122.297521 441.884217 
L 1132.545455 440.673472 
L 1142.793388 439.462727 
L 1153.041322 438.251982 
L 1163.289256 437.041237 
L 1173.53719 435.830491 
L 1183.785124 434.619746 
L 1194.033058 433.409001 
L 1204.280992 432.198256 
L 1214.528926 430.98751 
L 1224.77686 429.776765 
L 1235.024793 428.56602 
L 1245.272727 427.355275 
L 1245.272727 369.570087 
L 1245.272727 369.570087 
L 1235.024793 371.458846 
L 1224.77686 373.33422 
L 1214.528926 375.209594 
L 1204.280992 377.084968 
L 1194.033058 378.965156 
L 1183.785124 380.850454 
L 1173.53719 382.728285 
L 1163.289256 384.925759 
L 1153.041322 387.45893 
L 1142.793388 389.784373 
L 1132.545455 391.406857 
L 1122.297521 393.165075 
L 1112.049587 395.626298 
L 1101.801653 397.568474 
L 1091.553719 399.145287 
L 1081.305785 400.7221 
L 1071.057851 402.388939 
L 1060.809917 404.122567 
L 1050.561983 405.855447 
L 1040.31405 407.592594 
L 1030.066116 409.334499 
L 1019.818182 410.89574 
L 1009.570248 412.762392 
L 999.322314 414.209804 
L 989.07438 415.559875 
L 978.826446 416.900973 
L 968.578512 418.234223 
L 958.330579 419.643856 
L 948.082645 421.220669 
L 937.834711 422.797482 
L 927.586777 424.374295 
L 917.338843 425.951108 
L 907.090909 427.527921 
L 896.842975 429.104734 
L 886.595041 430.681547 
L 876.347107 432.25836 
L 866.099174 433.835173 
L 855.85124 435.411986 
L 845.603306 436.988799 
L 835.355372 438.565612 
L 825.107438 440.142425 
L 814.859504 441.719238 
L 804.61157 443.296052 
L 794.363636 444.872865 
L 784.115702 446.569113 
L 773.867769 448.496072 
L 763.619835 450.423032 
L 753.371901 451.887828 
L 743.123967 453.473697 
L 732.876033 454.902117 
L 722.628099 456.231492 
L 712.380165 457.5602 
L 702.132231 459.062495 
L 691.884298 460.580295 
L 681.636364 462.166288 
L 671.38843 463.753616 
L 661.140496 465.274722 
L 650.892562 466.879625 
L 640.644628 468.426681 
L 630.396694 470.017324 
L 620.14876 471.497977 
L 609.900826 472.823304 
L 599.652893 474.148631 
L 589.404959 475.405189 
L 579.157025 476.756889 
L 568.909091 478.145257 
L 558.661157 479.533625 
L 548.413223 480.92165 
L 538.165289 482.31036 
L 527.917355 483.499036 
L 517.669421 483.899092 
L 507.421488 484.87146 
L 497.173554 486.100986 
L 486.92562 487.469513 
L 476.677686 488.838039 
L 466.429752 489.918624 
L 456.181818 490.795236 
L 445.933884 492.124611 
L 435.68595 493.453986 
L 425.438017 494.783361 
L 415.190083 496.112735 
L 404.942149 497.48482 
L 394.694215 498.771485 
L 384.446281 500.10086 
L 374.198347 501.428019 
L 363.950413 502.597508 
L 353.702479 503.747003 
L 343.454545 504.908952 
L 333.206612 506.070901 
L 322.958678 507.23285 
L 312.710744 508.394799 
L 302.46281 509.556748 
L 292.214876 510.718697 
L 281.966942 511.880647 
L 271.719008 513.042596 
L 261.471074 514.134992 
L 251.22314 515.205165 
L 240.975207 516.27667 
L 230.727273 517.348175 
z
" clip-path="url(#p61246d3c28)" style="fill: #1f77b4; fill-opacity: 0.15"/>
   </g>
   <g id="PathCollection_2">
    <defs>
     <path id="m0ca9cd1fd5" d="M 0 3 
C 0.795609 3 1.55874 2.683901 2.12132 2.12132 
C 2.683901 1.55874 3 0.795609 3 0 
C 3 -0.795609 2.683901 -1.55874 2.12132 -2.12132 
C 1.55874 -2.683901 0.795609 -3 0 -3 
C -0.795609 -3 -1.55874 -2.683901 -2.12132 -2.12132 
C -2.683901 -1.55874 -3 -0.795609 -3 0 
C -3 0.795609 -2.683901 1.55874 -2.12132 2.12132 
C -1.55874 2.683901 -0.795609 3 0 3 
z
" style="stroke: #ff7f0e; stroke-opacity: 0.8"/>
    </defs>
    <g clip-path="url(#p61246d3c28)">
     <use xlink:href="#m0ca9cd1fd5" x="230.727273" y="635.93582" style="fill: #ff7f0e; fill-opacity: 0.8; stroke: #ff7f0e; stroke-opacity: 0.8"/>
     <use xlink:href="#m0ca9cd1fd5" x="433.636364" y="599.345085" style="fill: #ff7f0e; fill-opacity: 0.8; stroke: #ff7f0e; stroke-opacity: 0.8"/>
     <use xlink:href="#m0ca9cd1fd5" x="636.545455" y="591.166968" style="fill: #ff7f0e; fill-opacity: 0.8; stroke: #ff7f0e; stroke-opacity: 0.8"/>
     <use xlink:href="#m0ca9cd1fd5" x="839.454545" y="313.861982" style="fill: #ff7f0e; fill-opacity: 0.8; stroke: #ff7f0e; stroke-opacity: 0.8"/>
     <use xlink:href="#m0ca9cd1fd5" x="1042.363636" y="472.724911" style="fill: #ff7f0e; fill-opacity: 0.8; stroke: #ff7f0e; stroke-opacity: 0.8"/>
     <use xlink:href="#m0ca9cd1fd5" x="1245.272727" y="359.082661" style="fill: #ff7f0e; fill-opacity: 0.8; stroke: #ff7f0e; stroke-opacity: 0.8"/>
    </g>
   </g>
   <g id="PolyCollection_2">
    <path d="M 230.727273 540.020038 
L 230.727273 738.72 
L 240.975207 734.882856 
L 251.22314 730.402822 
L 261.471074 724.6075 
L 271.719008 718.812177 
L 281.966942 713.016855 
L 292.214876 707.166258 
L 302.46281 701.288193 
L 312.710744 695.410129 
L 322.958678 689.532064 
L 333.206612 683.653999 
L 343.454545 677.775935 
L 353.702479 673.717492 
L 363.950413 670.726531 
L 374.198347 667.73557 
L 384.446281 664.744609 
L 394.694215 661.753648 
L 404.942149 658.762687 
L 415.190083 655.771726 
L 425.438017 650.008875 
L 435.68595 642.829688 
L 445.933884 637.213013 
L 456.181818 633.675848 
L 466.429752 630.200561 
L 476.677686 626.725274 
L 486.92562 623.249986 
L 497.173554 619.774699 
L 507.421488 616.299412 
L 517.669421 612.824125 
L 527.917355 609.348837 
L 538.165289 605.87355 
L 548.413223 600.891689 
L 558.661157 598.616372 
L 568.909091 595.86218 
L 579.157025 593.853066 
L 589.404959 591.631954 
L 599.652893 590.501427 
L 609.900826 589.370901 
L 620.14876 588.240374 
L 630.396694 587.109847 
L 640.644628 585.979321 
L 650.892562 584.848794 
L 661.140496 581.814973 
L 671.38843 578.37269 
L 681.636364 577.038888 
L 691.884298 573.468554 
L 702.132231 569.803784 
L 712.380165 566.133306 
L 722.628099 562.462827 
L 732.876033 559.522388 
L 743.123967 556.008964 
L 753.371901 553.647959 
L 763.619835 551.256478 
L 773.867769 548.429017 
L 784.115702 546.497642 
L 794.363636 543.902595 
L 804.61157 540.386036 
L 814.859504 536.833969 
L 825.107438 533.710086 
L 835.355372 531.80187 
L 845.603306 529.893654 
L 855.85124 527.160402 
L 866.099174 524.16944 
L 876.347107 521.178479 
L 886.595041 518.187518 
L 896.842975 515.196557 
L 907.090909 512.205596 
L 917.338843 510.148175 
L 927.586777 508.090753 
L 937.834711 506.033332 
L 948.082645 504.072302 
L 958.330579 502.129974 
L 968.578512 500.187646 
L 978.826446 498.245318 
L 989.07438 496.30299 
L 999.322314 494.360662 
L 1009.570248 492.40529 
L 1019.818182 490.462591 
L 1030.066116 488.399043 
L 1040.31405 486.181198 
L 1050.561983 483.963353 
L 1060.809917 482.545791 
L 1071.057851 480.187738 
L 1081.305785 477.945487 
L 1091.553719 475.982195 
L 1101.801653 474.018903 
L 1112.049587 472.055612 
L 1122.297521 470.09232 
L 1132.545455 468.129028 
L 1142.793388 466.165736 
L 1153.041322 464.202444 
L 1163.289256 462.239153 
L 1173.53719 460.275861 
L 1183.785124 458.312569 
L 1194.033058 456.347274 
L 1204.280992 454.381355 
L 1214.528926 452.415435 
L 1224.77686 450.449515 
L 1235.024793 448.785523 
L 1245.272727 447.723212 
L 1245.272727 133.92 
L 1245.272727 133.92 
L 1235.024793 139.60181 
L 1224.77686 145.283621 
L 1214.528926 150.965431 
L 1204.280992 156.647242 
L 1194.033058 162.200416 
L 1183.785124 167.490485 
L 1173.53719 172.780555 
L 1163.289256 178.070624 
L 1153.041322 183.360694 
L 1142.793388 188.748378 
L 1132.545455 194.167195 
L 1122.297521 199.586012 
L 1112.049587 205.00483 
L 1101.801653 210.423647 
L 1091.553719 215.816966 
L 1081.305785 221.065795 
L 1071.057851 226.314625 
L 1060.809917 231.563454 
L 1050.561983 236.821134 
L 1040.31405 242.83421 
L 1030.066116 248.367378 
L 1019.818182 253.785138 
L 1009.570248 259.202898 
L 999.322314 264.620658 
L 989.07438 270.038417 
L 978.826446 275.456177 
L 968.578512 280.873937 
L 958.330579 286.291697 
L 948.082645 291.709457 
L 937.834711 297.127217 
L 927.586777 302.544976 
L 917.338843 307.962736 
L 907.090909 313.401514 
L 896.842975 318.868309 
L 886.595041 322.675919 
L 876.347107 331.084406 
L 866.099174 335.137447 
L 855.85124 336.766743 
L 845.603306 342.055755 
L 835.355372 344.202027 
L 825.107438 352.257146 
L 814.859504 357.922791 
L 804.61157 363.211804 
L 794.363636 368.500816 
L 784.115702 373.789828 
L 773.867769 379.093265 
L 763.619835 384.383334 
L 753.371901 389.673404 
L 743.123967 394.252153 
L 732.876033 397.712664 
L 722.628099 398.277438 
L 712.380165 403.159946 
L 702.132231 407.396361 
L 691.884298 410.781109 
L 681.636364 416.458521 
L 671.38843 422.135932 
L 661.140496 427.813344 
L 650.892562 433.490755 
L 640.644628 438.784453 
L 630.396694 442.186328 
L 620.14876 443.984957 
L 609.900826 446.347663 
L 599.652893 451.805001 
L 589.404959 456.273205 
L 579.157025 459.751068 
L 568.909091 463.228931 
L 558.661157 466.115686 
L 548.413223 467.013005 
L 538.165289 467.845458 
L 527.917355 468.964249 
L 517.669421 471.482418 
L 507.421488 474.000587 
L 497.173554 476.532111 
L 486.92562 479.11072 
L 476.677686 481.689329 
L 466.429752 484.267938 
L 456.181818 486.846547 
L 445.933884 489.425156 
L 435.68595 492.003766 
L 425.438017 494.582375 
L 415.190083 497.159616 
L 404.942149 499.722147 
L 394.694215 502.284677 
L 384.446281 504.847207 
L 374.198347 507.409737 
L 363.950413 509.972268 
L 353.702479 512.352363 
L 343.454545 514.658003 
L 333.206612 516.963642 
L 322.958678 519.269282 
L 312.710744 521.574921 
L 302.46281 523.880561 
L 292.214876 526.186201 
L 281.966942 528.49184 
L 271.719008 530.79748 
L 261.471074 533.10312 
L 251.22314 535.408759 
L 240.975207 537.714399 
L 230.727273 540.020038 
z
" clip-path="url(#p61246d3c28)" style="fill: #ff7f0e; fill-opacity: 0.15"/>
   </g>
   <g id="PathCollection_3">
    <defs>
     <path id="m74887bbd29" d="M 0 3 
C 0.795609 3 1.55874 2.683901 2.12132 2.12132 
C 2.683901 1.55874 3 0.795609 3 0 
C 3 -0.795609 2.683901 -1.55874 2.12132 -2.12132 
C 1.55874 -2.683901 0.795609 -3 0 -3 
C -0.795609 -3 -1.55874 -2.683901 -2.12132 -2.12132 
C -2.683901 -1.55874 -3 -0.795609 -3 0 
C -3 0.795609 -2.683901 1.55874 -2.12132 2.12132 
C -1.55874 2.683901 -0.795609 3 0 3 
z
" style="stroke: #2ca02c; stroke-opacity: 0.8"/>
    </defs>
    <g clip-path="url(#p61246d3c28)">
     <use xlink:href="#m74887bbd29" x="230.727273" y="692.518813" style="fill: #2ca02c; fill-opacity: 0.8; stroke: #2ca02c; stroke-opacity: 0.8"/>
     <use xlink:href="#m74887bbd29" x="433.636364" y="627.11016" style="fill: #2ca02c; fill-opacity: 0.8; stroke: #2ca02c; stroke-opacity: 0.8"/>
     <use xlink:href="#m74887bbd29" x="636.545455" y="553.904299" style="fill: #2ca02c; fill-opacity: 0.8; stroke: #2ca02c; stroke-opacity: 0.8"/>
     <use xlink:href="#m74887bbd29" x="839.454545" y="456.291569" style="fill: #2ca02c; fill-opacity: 0.8; stroke: #2ca02c; stroke-opacity: 0.8"/>
     <use xlink:href="#m74887bbd29" x="1042.363636" y="404.986093" style="fill: #2ca02c; fill-opacity: 0.8; stroke: #2ca02c; stroke-opacity: 0.8"/>
     <use xlink:href="#m74887bbd29" x="1245.272727" y="387.164254" style="fill: #2ca02c; fill-opacity: 0.8; stroke: #2ca02c; stroke-opacity: 0.8"/>
    </g>
   </g>
   <g id="PolyCollection_3">
    <path d="M 230.727273 618.581943 
L 230.727273 702.867431 
L 240.975207 698.912937 
L 251.22314 694.958444 
L 261.471074 691.00395 
L 271.719008 687.048747 
L 281.966942 683.247501 
L 292.214876 679.499599 
L 302.46281 675.751698 
L 312.710744 671.899932 
L 322.958678 668.15206 
L 333.206612 664.355451 
L 343.454545 660.472454 
L 353.702479 656.695815 
L 363.950413 652.956251 
L 374.198347 649.20988 
L 384.446281 645.477327 
L 394.694215 641.742364 
L 404.942149 638.173008 
L 415.190083 634.493246 
L 425.438017 630.776877 
L 435.68595 627.280063 
L 445.933884 623.962849 
L 456.181818 620.886765 
L 466.429752 617.817068 
L 476.677686 613.772176 
L 486.92562 610.535111 
L 497.173554 607.338205 
L 507.421488 604.263041 
L 517.669421 601.189141 
L 527.917355 598.115312 
L 538.165289 595.042371 
L 548.413223 591.96943 
L 558.661157 588.896489 
L 568.909091 585.823548 
L 579.157025 582.750607 
L 589.404959 579.677666 
L 599.652893 576.604724 
L 609.900826 573.542872 
L 620.14876 570.517643 
L 630.396694 567.492415 
L 640.644628 564.467082 
L 650.892562 561.441555 
L 661.140496 558.416028 
L 671.38843 555.389714 
L 681.636364 552.362983 
L 691.884298 549.336252 
L 702.132231 546.310736 
L 712.380165 543.285772 
L 722.628099 540.260807 
L 732.876033 537.235843 
L 743.123967 534.210879 
L 753.371901 531.133737 
L 763.619835 528.024437 
L 773.867769 524.915136 
L 784.115702 521.805836 
L 794.363636 518.696535 
L 804.61157 515.587235 
L 814.859504 512.477935 
L 825.107438 509.368634 
L 835.355372 506.308456 
L 845.603306 503.295955 
L 855.85124 500.283454 
L 866.099174 497.270953 
L 876.347107 494.258452 
L 886.595041 491.245951 
L 896.842975 488.233451 
L 907.090909 485.22095 
L 917.338843 482.208449 
L 927.586777 479.195948 
L 937.834711 476.183447 
L 948.082645 473.170946 
L 958.330579 470.158445 
L 968.578512 467.145944 
L 978.826446 464.133443 
L 989.07438 461.120943 
L 999.322314 458.108442 
L 1009.570248 455.095941 
L 1019.818182 452.053433 
L 1030.066116 448.983736 
L 1040.31405 445.914039 
L 1050.561983 442.844342 
L 1060.809917 439.774645 
L 1071.057851 436.704949 
L 1081.305785 433.635252 
L 1091.553719 430.565555 
L 1101.801653 427.495858 
L 1112.049587 424.426161 
L 1122.297521 421.356464 
L 1132.545455 418.343337 
L 1142.793388 415.26606 
L 1153.041322 412.349604 
L 1163.289256 409.302137 
L 1173.53719 406.25467 
L 1183.785124 403.207203 
L 1194.033058 400.159736 
L 1204.280992 397.112269 
L 1214.528926 394.064802 
L 1224.77686 391.017335 
L 1235.024793 388.073872 
L 1245.272727 385.383423 
L 1245.272727 302.828698 
L 1245.272727 302.828698 
L 1235.024793 306.79327 
L 1224.77686 310.757842 
L 1214.528926 314.722414 
L 1204.280992 318.686986 
L 1194.033058 322.651557 
L 1183.785124 326.616129 
L 1173.53719 330.580701 
L 1163.289256 334.545273 
L 1153.041322 338.509845 
L 1142.793388 342.474417 
L 1132.545455 346.438989 
L 1122.297521 350.403561 
L 1112.049587 354.368133 
L 1101.801653 358.332705 
L 1091.553719 362.297277 
L 1081.305785 366.261849 
L 1071.057851 370.226421 
L 1060.809917 374.190993 
L 1050.561983 378.284953 
L 1040.31405 382.486068 
L 1030.066116 386.687183 
L 1019.818182 390.888299 
L 1009.570248 395.089414 
L 999.322314 399.290529 
L 989.07438 403.491644 
L 978.826446 407.692759 
L 968.578512 411.447261 
L 958.330579 414.742723 
L 948.082645 418.798733 
L 937.834711 423.012577 
L 927.586777 427.319738 
L 917.338843 431.475319 
L 907.090909 435.022772 
L 896.842975 439.078782 
L 886.595041 442.681022 
L 876.347107 445.511301 
L 866.099174 448.683826 
L 855.85124 451.142679 
L 845.603306 455.052041 
L 835.355372 459.048236 
L 825.107438 463.072167 
L 814.859504 467.096097 
L 804.61157 471.120027 
L 794.363636 475.268144 
L 784.115702 479.574317 
L 773.867769 483.880491 
L 763.619835 487.922959 
L 753.371901 491.2067 
L 743.123967 494.846733 
L 732.876033 497.494139 
L 722.628099 500.141546 
L 712.380165 502.647637 
L 702.132231 505.030136 
L 691.884298 507.412634 
L 681.636364 509.795133 
L 671.38843 512.177631 
L 661.140496 514.56013 
L 650.892562 516.942629 
L 640.644628 519.325127 
L 630.396694 521.707626 
L 620.14876 524.090124 
L 609.900826 526.472623 
L 599.652893 528.855121 
L 589.404959 531.23762 
L 579.157025 533.620119 
L 568.909091 536.002617 
L 558.661157 538.385116 
L 548.413223 540.767614 
L 538.165289 543.252889 
L 527.917355 545.763857 
L 517.669421 548.274826 
L 507.421488 550.785794 
L 497.173554 553.296763 
L 486.92562 555.807731 
L 476.677686 558.3187 
L 466.429752 560.829668 
L 456.181818 563.340636 
L 445.933884 565.851605 
L 435.68595 568.362573 
L 425.438017 570.873542 
L 415.190083 573.38451 
L 404.942149 575.895479 
L 394.694215 578.406447 
L 384.446281 580.917416 
L 374.198347 583.428384 
L 363.950413 585.939353 
L 353.702479 588.450321 
L 343.454545 590.96129 
L 333.206612 593.472258 
L 322.958678 595.983227 
L 312.710744 598.494195 
L 302.46281 601.005164 
L 292.214876 603.516132 
L 281.966942 606.0271 
L 271.719008 608.538069 
L 261.471074 611.049037 
L 251.22314 613.560006 
L 240.975207 616.070974 
L 230.727273 618.581943 
z
" clip-path="url(#p61246d3c28)" style="fill: #2ca02c; fill-opacity: 0.15"/>
   </g>
   <g id="PathCollection_4">
    <defs>
     <path id="md241b68df6" d="M 0 3 
C 0.795609 3 1.55874 2.683901 2.12132 2.12132 
C 2.683901 1.55874 3 0.795609 3 0 
C 3 -0.795609 2.683901 -1.55874 2.12132 -2.12132 
C 1.55874 -2.683901 0.795609 -3 0 -3 
C -0.795609 -3 -1.55874 -2.683901 -2.12132 -2.12132 
C -2.683901 -1.55874 -3 -0.795609 -3 0 
C -3 0.795609 -2.683901 1.55874 -2.12132 2.12132 
C -1.55874 2.683901 -0.795609 3 0 3 
z
" style="stroke: #d62728; stroke-opacity: 0.8"/>
    </defs>
    <g clip-path="url(#p61246d3c28)">
     <use xlink:href="#md241b68df6" x="230.727273" y="599.523707" style="fill: #d62728; fill-opacity: 0.8; stroke: #d62728; stroke-opacity: 0.8"/>
     <use xlink:href="#md241b68df6" x="433.636364" y="522.037181" style="fill: #d62728; fill-opacity: 0.8; stroke: #d62728; stroke-opacity: 0.8"/>
     <use xlink:href="#md241b68df6" x="636.545455" y="521.495849" style="fill: #d62728; fill-opacity: 0.8; stroke: #d62728; stroke-opacity: 0.8"/>
     <use xlink:href="#md241b68df6" x="839.454545" y="463.136636" style="fill: #d62728; fill-opacity: 0.8; stroke: #d62728; stroke-opacity: 0.8"/>
     <use xlink:href="#md241b68df6" x="1042.363636" y="410.565964" style="fill: #d62728; fill-opacity: 0.8; stroke: #d62728; stroke-opacity: 0.8"/>
     <use xlink:href="#md241b68df6" x="1245.272727" y="381.073854" style="fill: #d62728; fill-opacity: 0.8; stroke: #d62728; stroke-opacity: 0.8"/>
    </g>
   </g>
   <g id="PolyCollection_4">
    <path d="M 230.727273 557.466946 
L 230.727273 615.110512 
L 240.975207 612.746505 
L 251.22314 610.382499 
L 261.471074 608.018492 
L 271.719008 605.654485 
L 281.966942 603.290479 
L 292.214876 600.926472 
L 302.46281 598.562465 
L 312.710744 596.18534 
L 322.958678 593.688852 
L 333.206612 591.192364 
L 343.454545 588.695875 
L 353.702479 586.199387 
L 363.950413 583.702899 
L 374.198347 581.20641 
L 384.446281 578.709922 
L 394.694215 576.213434 
L 404.942149 573.716946 
L 415.190083 571.220457 
L 425.438017 568.723969 
L 435.68595 566.227481 
L 445.933884 563.730992 
L 456.181818 561.234504 
L 466.429752 558.738016 
L 476.677686 556.241528 
L 486.92562 553.746644 
L 497.173554 551.391613 
L 507.421488 549.036582 
L 517.669421 546.506288 
L 527.917355 543.851204 
L 538.165289 541.262598 
L 548.413223 538.766109 
L 558.661157 536.274653 
L 568.909091 533.831098 
L 579.157025 531.507444 
L 589.404959 529.176562 
L 599.652893 526.845681 
L 609.900826 524.514798 
L 620.14876 522.18152 
L 630.396694 519.848242 
L 640.644628 517.514963 
L 650.892562 515.38642 
L 661.140496 512.843398 
L 671.38843 510.049361 
L 681.636364 507.562378 
L 691.884298 505.28548 
L 702.132231 502.603761 
L 712.380165 499.838942 
L 722.628099 497.408793 
L 732.876033 495.055126 
L 743.123967 492.79971 
L 753.371901 490.544294 
L 763.619835 488.288878 
L 773.867769 486.033462 
L 784.115702 483.778047 
L 794.363636 481.522631 
L 804.61157 479.291274 
L 814.859504 477.527895 
L 825.107438 475.569765 
L 835.355372 473.250962 
L 845.603306 470.922581 
L 855.85124 468.59226 
L 866.099174 466.261939 
L 876.347107 464.077866 
L 886.595041 461.900139 
L 896.842975 459.549949 
L 907.090909 457.199465 
L 917.338843 455.396064 
L 927.586777 453.410691 
L 937.834711 451.155265 
L 948.082645 449.046098 
L 958.330579 447.162517 
L 968.578512 445.278937 
L 978.826446 443.395356 
L 989.07438 441.511775 
L 999.322314 439.628195 
L 1009.570248 437.744614 
L 1019.818182 435.861033 
L 1030.066116 433.977452 
L 1040.31405 432.093872 
L 1050.561983 430.210291 
L 1060.809917 428.32671 
L 1071.057851 426.44313 
L 1081.305785 424.559549 
L 1091.553719 422.675968 
L 1101.801653 420.792388 
L 1112.049587 418.908807 
L 1122.297521 417.025226 
L 1132.545455 415.141645 
L 1142.793388 413.258065 
L 1153.041322 411.374484 
L 1163.289256 409.490903 
L 1173.53719 407.607323 
L 1183.785124 405.723742 
L 1194.033058 403.840161 
L 1204.280992 401.95658 
L 1214.528926 400.073 
L 1224.77686 398.189419 
L 1235.024793 396.305838 
L 1245.272727 394.422258 
L 1245.272727 360.999829 
L 1245.272727 360.999829 
L 1235.024793 363.268149 
L 1224.77686 365.536469 
L 1214.528926 367.804789 
L 1204.280992 370.073109 
L 1194.033058 372.341429 
L 1183.785124 374.609749 
L 1173.53719 376.878069 
L 1163.289256 379.235968 
L 1153.041322 381.891052 
L 1142.793388 384.461337 
L 1132.545455 386.808571 
L 1122.297521 389.155804 
L 1112.049587 391.517123 
L 1101.801653 394.13833 
L 1091.553719 396.743315 
L 1081.305785 399.538929 
L 1071.057851 402.174638 
L 1060.809917 404.55894 
L 1050.561983 407.3602 
L 1040.31405 410.09236 
L 1030.066116 412.345316 
L 1019.818182 414.250859 
L 1009.570248 416.470314 
L 999.322314 418.447767 
L 989.07438 420.324387 
L 978.826446 423.034218 
L 968.578512 425.241636 
L 958.330579 427.331924 
L 948.082645 429.423621 
L 937.834711 431.508943 
L 927.586777 433.595739 
L 917.338843 435.815964 
L 907.090909 437.892333 
L 896.842975 439.672173 
L 886.595041 441.452013 
L 876.347107 443.231853 
L 866.099174 445.098795 
L 855.85124 446.903202 
L 845.603306 448.705376 
L 835.355372 450.50755 
L 825.107438 452.399898 
L 814.859504 454.415374 
L 804.61157 456.396556 
L 794.363636 458.318028 
L 784.115702 460.121948 
L 773.867769 462.034735 
L 763.619835 463.834875 
L 753.371901 465.630974 
L 743.123967 467.427073 
L 732.876033 469.257967 
L 722.628099 471.045471 
L 712.380165 472.832976 
L 702.132231 474.620481 
L 691.884298 476.407986 
L 681.636364 478.203458 
L 671.38843 479.999336 
L 661.140496 481.795215 
L 650.892562 483.591094 
L 640.644628 485.386972 
L 630.396694 487.182851 
L 620.14876 488.978729 
L 609.900826 490.774608 
L 599.652893 492.570487 
L 589.404959 494.366365 
L 579.157025 496.16271 
L 568.909091 497.959193 
L 558.661157 499.755676 
L 548.413223 501.552159 
L 538.165289 503.348642 
L 527.917355 505.145125 
L 517.669421 506.941251 
L 507.421488 508.73735 
L 497.173554 510.533449 
L 486.92562 512.329548 
L 476.677686 514.155378 
L 466.429752 516.031998 
L 456.181818 517.908618 
L 445.933884 519.785238 
L 435.68595 521.661857 
L 425.438017 523.536542 
L 415.190083 525.410742 
L 404.942149 527.284942 
L 394.694215 529.159143 
L 384.446281 530.919991 
L 374.198347 532.360253 
L 363.950413 534.140093 
L 353.702479 535.919933 
L 343.454545 537.699773 
L 333.206612 539.479613 
L 322.958678 541.298649 
L 312.710744 543.12204 
L 302.46281 544.945431 
L 292.214876 546.768822 
L 281.966942 548.592213 
L 271.719008 550.415604 
L 261.471074 552.235641 
L 251.22314 554.047535 
L 240.975207 555.639396 
L 230.727273 557.466946 
z
" clip-path="url(#p61246d3c28)" style="fill: #d62728; fill-opacity: 0.15"/>
   </g>
   <g id="matplotlib.axis_1">
    <g id="xtick_1">
     <g id="line2d_1">
      <defs>
       <path id="md3f41b1e3c" d="M 0 0 
L 0 3.5 
" style="stroke: #000000; stroke-width: 0.8"/>
      </defs>
      <g>
       <use xlink:href="#md3f41b1e3c" x="230.727273" y="768.96" style="stroke: #000000; stroke-width: 0.8"/>
      </g>
     </g>
     <g id="text_1">
      <!-- 6 -->
      <g transform="translate(227.546023 783.558437) scale(0.1 -0.1)">
       <defs>
        <path id="DejaVuSans-36" d="M 2113 2584 
Q 1688 2584 1439 2293 
Q 1191 2003 1191 1497 
Q 1191 994 1439 701 
Q 1688 409 2113 409 
Q 2538 409 2786 701 
Q 3034 994 3034 1497 
Q 3034 2003 2786 2293 
Q 2538 2584 2113 2584 
z
M 3366 4563 
L 3366 3988 
Q 3128 4100 2886 4159 
Q 2644 4219 2406 4219 
Q 1781 4219 1451 3797 
Q 1122 3375 1075 2522 
Q 1259 2794 1537 2939 
Q 1816 3084 2150 3084 
Q 2853 3084 3261 2657 
Q 3669 2231 3669 1497 
Q 3669 778 3244 343 
Q 2819 -91 2113 -91 
Q 1303 -91 875 529 
Q 447 1150 447 2328 
Q 447 3434 972 4092 
Q 1497 4750 2381 4750 
Q 2619 4750 2861 4703 
Q 3103 4656 3366 4563 
z
" transform="scale(0.015625)"/>
       </defs>
       <use xlink:href="#DejaVuSans-36"/>
      </g>
     </g>
    </g>
    <g id="xtick_2">
     <g id="line2d_2">
      <g>
       <use xlink:href="#md3f41b1e3c" x="433.636364" y="768.96" style="stroke: #000000; stroke-width: 0.8"/>
      </g>
     </g>
     <g id="text_2">
      <!-- 9 -->
      <g transform="translate(430.455114 783.558437) scale(0.1 -0.1)">
       <defs>
        <path id="DejaVuSans-39" d="M 703 97 
L 703 672 
Q 941 559 1184 500 
Q 1428 441 1663 441 
Q 2288 441 2617 861 
Q 2947 1281 2994 2138 
Q 2813 1869 2534 1725 
Q 2256 1581 1919 1581 
Q 1219 1581 811 2004 
Q 403 2428 403 3163 
Q 403 3881 828 4315 
Q 1253 4750 1959 4750 
Q 2769 4750 3195 4129 
Q 3622 3509 3622 2328 
Q 3622 1225 3098 567 
Q 2575 -91 1691 -91 
Q 1453 -91 1209 -44 
Q 966 3 703 97 
z
M 1959 2075 
Q 2384 2075 2632 2365 
Q 2881 2656 2881 3163 
Q 2881 3666 2632 3958 
Q 2384 4250 1959 4250 
Q 1534 4250 1286 3958 
Q 1038 3666 1038 3163 
Q 1038 2656 1286 2365 
Q 1534 2075 1959 2075 
z
" transform="scale(0.015625)"/>
       </defs>
       <use xlink:href="#DejaVuSans-39"/>
      </g>
     </g>
    </g>
    <g id="xtick_3">
     <g id="line2d_3">
      <g>
       <use xlink:href="#md3f41b1e3c" x="636.545455" y="768.96" style="stroke: #000000; stroke-width: 0.8"/>
      </g>
     </g>
     <g id="text_3">
      <!-- 12 -->
      <g transform="translate(630.182955 783.558437) scale(0.1 -0.1)">
       <defs>
        <path id="DejaVuSans-31" d="M 794 531 
L 1825 531 
L 1825 4091 
L 703 3866 
L 703 4441 
L 1819 4666 
L 2450 4666 
L 2450 531 
L 3481 531 
L 3481 0 
L 794 0 
L 794 531 
z
" transform="scale(0.015625)"/>
        <path id="DejaVuSans-32" d="M 1228 531 
L 3431 531 
L 3431 0 
L 469 0 
L 469 531 
Q 828 903 1448 1529 
Q 2069 2156 2228 2338 
Q 2531 2678 2651 2914 
Q 2772 3150 2772 3378 
Q 2772 3750 2511 3984 
Q 2250 4219 1831 4219 
Q 1534 4219 1204 4116 
Q 875 4013 500 3803 
L 500 4441 
Q 881 4594 1212 4672 
Q 1544 4750 1819 4750 
Q 2544 4750 2975 4387 
Q 3406 4025 3406 3419 
Q 3406 3131 3298 2873 
Q 3191 2616 2906 2266 
Q 2828 2175 2409 1742 
Q 1991 1309 1228 531 
z
" transform="scale(0.015625)"/>
       </defs>
       <use xlink:href="#DejaVuSans-31"/>
       <use xlink:href="#DejaVuSans-32" x="63.623047"/>
      </g>
     </g>
    </g>
    <g id="xtick_4">
     <g id="line2d_4">
      <g>
       <use xlink:href="#md3f41b1e3c" x="839.454545" y="768.96" style="stroke: #000000; stroke-width: 0.8"/>
      </g>
     </g>
     <g id="text_4">
      <!-- 15 -->
      <g transform="translate(833.092045 783.558437) scale(0.1 -0.1)">
       <defs>
        <path id="DejaVuSans-35" d="M 691 4666 
L 3169 4666 
L 3169 4134 
L 1269 4134 
L 1269 2991 
Q 1406 3038 1543 3061 
Q 1681 3084 1819 3084 
Q 2600 3084 3056 2656 
Q 3513 2228 3513 1497 
Q 3513 744 3044 326 
Q 2575 -91 1722 -91 
Q 1428 -91 1123 -41 
Q 819 9 494 109 
L 494 744 
Q 775 591 1075 516 
Q 1375 441 1709 441 
Q 2250 441 2565 725 
Q 2881 1009 2881 1497 
Q 2881 1984 2565 2268 
Q 2250 2553 1709 2553 
Q 1456 2553 1204 2497 
Q 953 2441 691 2322 
L 691 4666 
z
" transform="scale(0.015625)"/>
       </defs>
       <use xlink:href="#DejaVuSans-31"/>
       <use xlink:href="#DejaVuSans-35" x="63.623047"/>
      </g>
     </g>
    </g>
    <g id="xtick_5">
     <g id="line2d_5">
      <g>
       <use xlink:href="#md3f41b1e3c" x="1042.363636" y="768.96" style="stroke: #000000; stroke-width: 0.8"/>
      </g>
     </g>
     <g id="text_5">
      <!-- 18 -->
      <g transform="translate(1036.001136 783.558437) scale(0.1 -0.1)">
       <defs>
        <path id="DejaVuSans-38" d="M 2034 2216 
Q 1584 2216 1326 1975 
Q 1069 1734 1069 1313 
Q 1069 891 1326 650 
Q 1584 409 2034 409 
Q 2484 409 2743 651 
Q 3003 894 3003 1313 
Q 3003 1734 2745 1975 
Q 2488 2216 2034 2216 
z
M 1403 2484 
Q 997 2584 770 2862 
Q 544 3141 544 3541 
Q 544 4100 942 4425 
Q 1341 4750 2034 4750 
Q 2731 4750 3128 4425 
Q 3525 4100 3525 3541 
Q 3525 3141 3298 2862 
Q 3072 2584 2669 2484 
Q 3125 2378 3379 2068 
Q 3634 1759 3634 1313 
Q 3634 634 3220 271 
Q 2806 -91 2034 -91 
Q 1263 -91 848 271 
Q 434 634 434 1313 
Q 434 1759 690 2068 
Q 947 2378 1403 2484 
z
M 1172 3481 
Q 1172 3119 1398 2916 
Q 1625 2713 2034 2713 
Q 2441 2713 2670 2916 
Q 2900 3119 2900 3481 
Q 2900 3844 2670 4047 
Q 2441 4250 2034 4250 
Q 1625 4250 1398 4047 
Q 1172 3844 1172 3481 
z
" transform="scale(0.015625)"/>
       </defs>
       <use xlink:href="#DejaVuSans-31"/>
       <use xlink:href="#DejaVuSans-38" x="63.623047"/>
      </g>
     </g>
    </g>
    <g id="xtick_6">
     <g id="line2d_6">
      <g>
       <use xlink:href="#md3f41b1e3c" x="1245.272727" y="768.96" style="stroke: #000000; stroke-width: 0.8"/>
      </g>
     </g>
     <g id="text_6">
      <!-- 21 -->
      <g transform="translate(1238.910227 783.558437) scale(0.1 -0.1)">
       <use xlink:href="#DejaVuSans-32"/>
       <use xlink:href="#DejaVuSans-31" x="63.623047"/>
      </g>
     </g>
    </g>
    <g id="text_7">
     <!-- NumLayers -->
     <g transform="translate(709.674219 797.236562) scale(0.1 -0.1)">
      <defs>
       <path id="DejaVuSans-4e" d="M 628 4666 
L 1478 4666 
L 3547 763 
L 3547 4666 
L 4159 4666 
L 4159 0 
L 3309 0 
L 1241 3903 
L 1241 0 
L 628 0 
L 628 4666 
z
" transform="scale(0.015625)"/>
       <path id="DejaVuSans-75" d="M 544 1381 
L 544 3500 
L 1119 3500 
L 1119 1403 
Q 1119 906 1312 657 
Q 1506 409 1894 409 
Q 2359 409 2629 706 
Q 2900 1003 2900 1516 
L 2900 3500 
L 3475 3500 
L 3475 0 
L 2900 0 
L 2900 538 
Q 2691 219 2414 64 
Q 2138 -91 1772 -91 
Q 1169 -91 856 284 
Q 544 659 544 1381 
z
M 1991 3584 
L 1991 3584 
z
" transform="scale(0.015625)"/>
       <path id="DejaVuSans-6d" d="M 3328 2828 
Q 3544 3216 3844 3400 
Q 4144 3584 4550 3584 
Q 5097 3584 5394 3201 
Q 5691 2819 5691 2113 
L 5691 0 
L 5113 0 
L 5113 2094 
Q 5113 2597 4934 2840 
Q 4756 3084 4391 3084 
Q 3944 3084 3684 2787 
Q 3425 2491 3425 1978 
L 3425 0 
L 2847 0 
L 2847 2094 
Q 2847 2600 2669 2842 
Q 2491 3084 2119 3084 
Q 1678 3084 1418 2786 
Q 1159 2488 1159 1978 
L 1159 0 
L 581 0 
L 581 3500 
L 1159 3500 
L 1159 2956 
Q 1356 3278 1631 3431 
Q 1906 3584 2284 3584 
Q 2666 3584 2933 3390 
Q 3200 3197 3328 2828 
z
" transform="scale(0.015625)"/>
       <path id="DejaVuSans-4c" d="M 628 4666 
L 1259 4666 
L 1259 531 
L 3531 531 
L 3531 0 
L 628 0 
L 628 4666 
z
" transform="scale(0.015625)"/>
       <path id="DejaVuSans-61" d="M 2194 1759 
Q 1497 1759 1228 1600 
Q 959 1441 959 1056 
Q 959 750 1161 570 
Q 1363 391 1709 391 
Q 2188 391 2477 730 
Q 2766 1069 2766 1631 
L 2766 1759 
L 2194 1759 
z
M 3341 1997 
L 3341 0 
L 2766 0 
L 2766 531 
Q 2569 213 2275 61 
Q 1981 -91 1556 -91 
Q 1019 -91 701 211 
Q 384 513 384 1019 
Q 384 1609 779 1909 
Q 1175 2209 1959 2209 
L 2766 2209 
L 2766 2266 
Q 2766 2663 2505 2880 
Q 2244 3097 1772 3097 
Q 1472 3097 1187 3025 
Q 903 2953 641 2809 
L 641 3341 
Q 956 3463 1253 3523 
Q 1550 3584 1831 3584 
Q 2591 3584 2966 3190 
Q 3341 2797 3341 1997 
z
" transform="scale(0.015625)"/>
       <path id="DejaVuSans-79" d="M 2059 -325 
Q 1816 -950 1584 -1140 
Q 1353 -1331 966 -1331 
L 506 -1331 
L 506 -850 
L 844 -850 
Q 1081 -850 1212 -737 
Q 1344 -625 1503 -206 
L 1606 56 
L 191 3500 
L 800 3500 
L 1894 763 
L 2988 3500 
L 3597 3500 
L 2059 -325 
z
" transform="scale(0.015625)"/>
       <path id="DejaVuSans-65" d="M 3597 1894 
L 3597 1613 
L 953 1613 
Q 991 1019 1311 708 
Q 1631 397 2203 397 
Q 2534 397 2845 478 
Q 3156 559 3463 722 
L 3463 178 
Q 3153 47 2828 -22 
Q 2503 -91 2169 -91 
Q 1331 -91 842 396 
Q 353 884 353 1716 
Q 353 2575 817 3079 
Q 1281 3584 2069 3584 
Q 2775 3584 3186 3129 
Q 3597 2675 3597 1894 
z
M 3022 2063 
Q 3016 2534 2758 2815 
Q 2500 3097 2075 3097 
Q 1594 3097 1305 2825 
Q 1016 2553 972 2059 
L 3022 2063 
z
" transform="scale(0.015625)"/>
       <path id="DejaVuSans-72" d="M 2631 2963 
Q 2534 3019 2420 3045 
Q 2306 3072 2169 3072 
Q 1681 3072 1420 2755 
Q 1159 2438 1159 1844 
L 1159 0 
L 581 0 
L 581 3500 
L 1159 3500 
L 1159 2956 
Q 1341 3275 1631 3429 
Q 1922 3584 2338 3584 
Q 2397 3584 2469 3576 
Q 2541 3569 2628 3553 
L 2631 2963 
z
" transform="scale(0.015625)"/>
       <path id="DejaVuSans-73" d="M 2834 3397 
L 2834 2853 
Q 2591 2978 2328 3040 
Q 2066 3103 1784 3103 
Q 1356 3103 1142 2972 
Q 928 2841 928 2578 
Q 928 2378 1081 2264 
Q 1234 2150 1697 2047 
L 1894 2003 
Q 2506 1872 2764 1633 
Q 3022 1394 3022 966 
Q 3022 478 2636 193 
Q 2250 -91 1575 -91 
Q 1294 -91 989 -36 
Q 684 19 347 128 
L 347 722 
Q 666 556 975 473 
Q 1284 391 1588 391 
Q 1994 391 2212 530 
Q 2431 669 2431 922 
Q 2431 1156 2273 1281 
Q 2116 1406 1581 1522 
L 1381 1569 
Q 847 1681 609 1914 
Q 372 2147 372 2553 
Q 372 3047 722 3315 
Q 1072 3584 1716 3584 
Q 2034 3584 2315 3537 
Q 2597 3491 2834 3397 
z
" transform="scale(0.015625)"/>
      </defs>
      <use xlink:href="#DejaVuSans-4e"/>
      <use xlink:href="#DejaVuSans-75" x="74.804688"/>
      <use xlink:href="#DejaVuSans-6d" x="138.183594"/>
      <use xlink:href="#DejaVuSans-4c" x="235.595703"/>
      <use xlink:href="#DejaVuSans-61" x="291.308594"/>
      <use xlink:href="#DejaVuSans-79" x="352.587891"/>
      <use xlink:href="#DejaVuSans-65" x="411.767578"/>
      <use xlink:href="#DejaVuSans-72" x="473.291016"/>
      <use xlink:href="#DejaVuSans-73" x="514.404297"/>
     </g>
    </g>
   </g>
   <g id="matplotlib.axis_2">
    <g id="ytick_1">
     <g id="line2d_7">
      <defs>
       <path id="m17342541dc" d="M 0 0 
L -3.5 0 
" style="stroke: #000000; stroke-width: 0.8"/>
      </defs>
      <g>
       <use xlink:href="#m17342541dc" x="180" y="732.139882" style="stroke: #000000; stroke-width: 0.8"/>
      </g>
     </g>
     <g id="text_8">
      <!-- 4 -->
      <g transform="translate(166.6375 735.939101) scale(0.1 -0.1)">
       <defs>
        <path id="DejaVuSans-34" d="M 2419 4116 
L 825 1625 
L 2419 1625 
L 2419 4116 
z
M 2253 4666 
L 3047 4666 
L 3047 1625 
L 3713 1625 
L 3713 1100 
L 3047 1100 
L 3047 0 
L 2419 0 
L 2419 1100 
L 313 1100 
L 313 1709 
L 2253 4666 
z
" transform="scale(0.015625)"/>
       </defs>
       <use xlink:href="#DejaVuSans-34"/>
      </g>
     </g>
    </g>
    <g id="ytick_2">
     <g id="line2d_8">
      <g>
       <use xlink:href="#m17342541dc" x="180" y="637.697533" style="stroke: #000000; stroke-width: 0.8"/>
      </g>
     </g>
     <g id="text_9">
      <!-- 6 -->
      <g transform="translate(166.6375 641.496751) scale(0.1 -0.1)">
       <use xlink:href="#DejaVuSans-36"/>
      </g>
     </g>
    </g>
    <g id="ytick_3">
     <g id="line2d_9">
      <g>
       <use xlink:href="#m17342541dc" x="180" y="543.255183" style="stroke: #000000; stroke-width: 0.8"/>
      </g>
     </g>
     <g id="text_10">
      <!-- 8 -->
      <g transform="translate(166.6375 547.054402) scale(0.1 -0.1)">
       <use xlink:href="#DejaVuSans-38"/>
      </g>
     </g>
    </g>
    <g id="ytick_4">
     <g id="line2d_10">
      <g>
       <use xlink:href="#m17342541dc" x="180" y="448.812834" style="stroke: #000000; stroke-width: 0.8"/>
      </g>
     </g>
     <g id="text_11">
      <!-- 10 -->
      <g transform="translate(160.275 452.612053) scale(0.1 -0.1)">
       <defs>
        <path id="DejaVuSans-30" d="M 2034 4250 
Q 1547 4250 1301 3770 
Q 1056 3291 1056 2328 
Q 1056 1369 1301 889 
Q 1547 409 2034 409 
Q 2525 409 2770 889 
Q 3016 1369 3016 2328 
Q 3016 3291 2770 3770 
Q 2525 4250 2034 4250 
z
M 2034 4750 
Q 2819 4750 3233 4129 
Q 3647 3509 3647 2328 
Q 3647 1150 3233 529 
Q 2819 -91 2034 -91 
Q 1250 -91 836 529 
Q 422 1150 422 2328 
Q 422 3509 836 4129 
Q 1250 4750 2034 4750 
z
" transform="scale(0.015625)"/>
       </defs>
       <use xlink:href="#DejaVuSans-31"/>
       <use xlink:href="#DejaVuSans-30" x="63.623047"/>
      </g>
     </g>
    </g>
    <g id="ytick_5">
     <g id="line2d_11">
      <g>
       <use xlink:href="#m17342541dc" x="180" y="354.370485" style="stroke: #000000; stroke-width: 0.8"/>
      </g>
     </g>
     <g id="text_12">
      <!-- 12 -->
      <g transform="translate(160.275 358.169704) scale(0.1 -0.1)">
       <use xlink:href="#DejaVuSans-31"/>
       <use xlink:href="#DejaVuSans-32" x="63.623047"/>
      </g>
     </g>
    </g>
    <g id="ytick_6">
     <g id="line2d_12">
      <g>
       <use xlink:href="#m17342541dc" x="180" y="259.928136" style="stroke: #000000; stroke-width: 0.8"/>
      </g>
     </g>
     <g id="text_13">
      <!-- 14 -->
      <g transform="translate(160.275 263.727355) scale(0.1 -0.1)">
       <use xlink:href="#DejaVuSans-31"/>
       <use xlink:href="#DejaVuSans-34" x="63.623047"/>
      </g>
     </g>
    </g>
    <g id="ytick_7">
     <g id="line2d_13">
      <g>
       <use xlink:href="#m17342541dc" x="180" y="165.485787" style="stroke: #000000; stroke-width: 0.8"/>
      </g>
     </g>
     <g id="text_14">
      <!-- 16 -->
      <g transform="translate(160.275 169.285005) scale(0.1 -0.1)">
       <use xlink:href="#DejaVuSans-31"/>
       <use xlink:href="#DejaVuSans-36" x="63.623047"/>
      </g>
     </g>
    </g>
    <g id="text_15">
     <!-- Duration (s) -->
     <g transform="translate(154.195312 466.130937) rotate(-90) scale(0.1 -0.1)">
      <defs>
       <path id="DejaVuSans-44" d="M 1259 4147 
L 1259 519 
L 2022 519 
Q 2988 519 3436 956 
Q 3884 1394 3884 2338 
Q 3884 3275 3436 3711 
Q 2988 4147 2022 4147 
L 1259 4147 
z
M 628 4666 
L 1925 4666 
Q 3281 4666 3915 4102 
Q 4550 3538 4550 2338 
Q 4550 1131 3912 565 
Q 3275 0 1925 0 
L 628 0 
L 628 4666 
z
" transform="scale(0.015625)"/>
       <path id="DejaVuSans-74" d="M 1172 4494 
L 1172 3500 
L 2356 3500 
L 2356 3053 
L 1172 3053 
L 1172 1153 
Q 1172 725 1289 603 
Q 1406 481 1766 481 
L 2356 481 
L 2356 0 
L 1766 0 
Q 1100 0 847 248 
Q 594 497 594 1153 
L 594 3053 
L 172 3053 
L 172 3500 
L 594 3500 
L 594 4494 
L 1172 4494 
z
" transform="scale(0.015625)"/>
       <path id="DejaVuSans-69" d="M 603 3500 
L 1178 3500 
L 1178 0 
L 603 0 
L 603 3500 
z
M 603 4863 
L 1178 4863 
L 1178 4134 
L 603 4134 
L 603 4863 
z
" transform="scale(0.015625)"/>
       <path id="DejaVuSans-6f" d="M 1959 3097 
Q 1497 3097 1228 2736 
Q 959 2375 959 1747 
Q 959 1119 1226 758 
Q 1494 397 1959 397 
Q 2419 397 2687 759 
Q 2956 1122 2956 1747 
Q 2956 2369 2687 2733 
Q 2419 3097 1959 3097 
z
M 1959 3584 
Q 2709 3584 3137 3096 
Q 3566 2609 3566 1747 
Q 3566 888 3137 398 
Q 2709 -91 1959 -91 
Q 1206 -91 779 398 
Q 353 888 353 1747 
Q 353 2609 779 3096 
Q 1206 3584 1959 3584 
z
" transform="scale(0.015625)"/>
       <path id="DejaVuSans-6e" d="M 3513 2113 
L 3513 0 
L 2938 0 
L 2938 2094 
Q 2938 2591 2744 2837 
Q 2550 3084 2163 3084 
Q 1697 3084 1428 2787 
Q 1159 2491 1159 1978 
L 1159 0 
L 581 0 
L 581 3500 
L 1159 3500 
L 1159 2956 
Q 1366 3272 1645 3428 
Q 1925 3584 2291 3584 
Q 2894 3584 3203 3211 
Q 3513 2838 3513 2113 
z
" transform="scale(0.015625)"/>
       <path id="DejaVuSans-20" transform="scale(0.015625)"/>
       <path id="DejaVuSans-28" d="M 1984 4856 
Q 1566 4138 1362 3434 
Q 1159 2731 1159 2009 
Q 1159 1288 1364 580 
Q 1569 -128 1984 -844 
L 1484 -844 
Q 1016 -109 783 600 
Q 550 1309 550 2009 
Q 550 2706 781 3412 
Q 1013 4119 1484 4856 
L 1984 4856 
z
" transform="scale(0.015625)"/>
       <path id="DejaVuSans-29" d="M 513 4856 
L 1013 4856 
Q 1481 4119 1714 3412 
Q 1947 2706 1947 2009 
Q 1947 1309 1714 600 
Q 1481 -109 1013 -844 
L 513 -844 
Q 928 -128 1133 580 
Q 1338 1288 1338 2009 
Q 1338 2731 1133 3434 
Q 928 4138 513 4856 
z
" transform="scale(0.015625)"/>
      </defs>
      <use xlink:href="#DejaVuSans-44"/>
      <use xlink:href="#DejaVuSans-75" x="77.001953"/>
      <use xlink:href="#DejaVuSans-72" x="140.380859"/>
      <use xlink:href="#DejaVuSans-61" x="181.494141"/>
      <use xlink:href="#DejaVuSans-74" x="242.773438"/>
      <use xlink:href="#DejaVuSans-69" x="281.982422"/>
      <use xlink:href="#DejaVuSans-6f" x="309.765625"/>
      <use xlink:href="#DejaVuSans-6e" x="370.947266"/>
      <use xlink:href="#DejaVuSans-20" x="434.326172"/>
      <use xlink:href="#DejaVuSans-28" x="466.113281"/>
      <use xlink:href="#DejaVuSans-73" x="505.126953"/>
      <use xlink:href="#DejaVuSans-29" x="557.226562"/>
     </g>
    </g>
   </g>
   <g id="line2d_14">
    <path d="M 230.727273 563.270699 
L 433.636364 487.179551 
L 636.545455 507.266391 
L 839.454545 471.337335 
L 1042.363636 410.655524 
L 1245.272727 379.452231 
" clip-path="url(#p61246d3c28)" style="fill: none; stroke-dasharray: 1.5,2.475; stroke-dashoffset: 0; stroke: #1f77b4; stroke-width: 1.5"/>
   </g>
   <g id="line2d_15">
    <path d="M 230.727273 635.93582 
L 433.636364 599.345085 
L 636.545455 591.166968 
L 839.454545 313.861982 
L 1042.363636 472.724911 
L 1245.272727 359.082661 
" clip-path="url(#p61246d3c28)" style="fill: none; stroke-dasharray: 1.5,2.475; stroke-dashoffset: 0; stroke: #ff7f0e; stroke-width: 1.5"/>
   </g>
   <g id="line2d_16">
    <path d="M 230.727273 692.518813 
L 433.636364 627.11016 
L 636.545455 553.904299 
L 839.454545 456.291569 
L 1042.363636 404.986093 
L 1245.272727 387.164254 
" clip-path="url(#p61246d3c28)" style="fill: none; stroke-dasharray: 1.5,2.475; stroke-dashoffset: 0; stroke: #2ca02c; stroke-width: 1.5"/>
   </g>
   <g id="line2d_17">
    <path d="M 230.727273 599.523707 
L 433.636364 522.037181 
L 636.545455 521.495849 
L 839.454545 463.136636 
L 1042.363636 410.565964 
L 1245.272727 381.073854 
" clip-path="url(#p61246d3c28)" style="fill: none; stroke-dasharray: 1.5,2.475; stroke-dashoffset: 0; stroke: #d62728; stroke-width: 1.5"/>
   </g>
   <g id="line2d_18">
    <path d="M 230.727273 554.474108 
L 240.975207 552.764738 
L 251.22314 551.055368 
L 261.471074 549.345998 
L 271.719008 547.636628 
L 281.966942 545.927258 
L 292.214876 544.217888 
L 302.46281 542.508518 
L 312.710744 540.799148 
L 322.958678 539.089777 
L 333.206612 537.380407 
L 343.454545 535.671037 
L 353.702479 533.961667 
L 363.950413 532.252297 
L 374.198347 530.542927 
L 384.446281 528.833557 
L 394.694215 527.124187 
L 404.942149 525.414817 
L 415.190083 523.705447 
L 425.438017 521.996076 
L 435.68595 520.286706 
L 445.933884 518.577336 
L 456.181818 516.867966 
L 466.429752 515.158596 
L 476.677686 513.449226 
L 486.92562 511.739856 
L 497.173554 510.030486 
L 507.421488 508.321116 
L 517.669421 506.611746 
L 527.917355 504.902375 
L 538.165289 503.193005 
L 548.413223 501.483635 
L 558.661157 499.774265 
L 568.909091 498.064895 
L 579.157025 496.355525 
L 589.404959 494.646155 
L 599.652893 492.936785 
L 609.900826 491.227415 
L 620.14876 489.518045 
L 630.396694 487.808674 
L 640.644628 486.099304 
L 650.892562 484.389934 
L 661.140496 482.680564 
L 671.38843 480.971194 
L 681.636364 479.261824 
L 691.884298 477.552454 
L 702.132231 475.843084 
L 712.380165 474.133714 
L 722.628099 472.424344 
L 732.876033 470.714973 
L 743.123967 469.005603 
L 753.371901 467.296233 
L 763.619835 465.586863 
L 773.867769 463.877493 
L 784.115702 462.168123 
L 794.363636 460.458753 
L 804.61157 458.749383 
L 814.859504 457.040013 
L 825.107438 455.330643 
L 835.355372 453.621273 
L 845.603306 451.911902 
L 855.85124 450.202532 
L 866.099174 448.493162 
L 876.347107 446.783792 
L 886.595041 445.074422 
L 896.842975 443.365052 
L 907.090909 441.655682 
L 917.338843 439.946312 
L 927.586777 438.236942 
L 937.834711 436.527572 
L 948.082645 434.818201 
L 958.330579 433.108831 
L 968.578512 431.399461 
L 978.826446 429.690091 
L 989.07438 427.980721 
L 999.322314 426.271351 
L 1009.570248 424.561981 
L 1019.818182 422.852611 
L 1030.066116 421.143241 
L 1040.31405 419.433871 
L 1050.561983 417.7245 
L 1060.809917 416.01513 
L 1071.057851 414.30576 
L 1081.305785 412.59639 
L 1091.553719 410.88702 
L 1101.801653 409.17765 
L 1112.049587 407.46828 
L 1122.297521 405.75891 
L 1132.545455 404.04954 
L 1142.793388 402.34017 
L 1153.041322 400.630799 
L 1163.289256 398.921429 
L 1173.53719 397.212059 
L 1183.785124 395.502689 
L 1194.033058 393.793319 
L 1204.280992 392.083949 
L 1214.528926 390.374579 
L 1224.77686 388.665209 
L 1235.024793 386.955839 
L 1245.272727 385.246469 
" clip-path="url(#p61246d3c28)" style="fill: none; stroke-dasharray: 8.325,3.6; stroke-dashoffset: 0; stroke: #1f77b4; stroke-width: 2.25"/>
   </g>
   <g id="line2d_19">
    <path d="M 230.727273 641.169426 
L 240.975207 638.223638 
L 251.22314 635.277849 
L 261.471074 632.332061 
L 271.719008 629.386273 
L 281.966942 626.440484 
L 292.214876 623.494696 
L 302.46281 620.548908 
L 312.710744 617.603119 
L 322.958678 614.657331 
L 333.206612 611.711543 
L 343.454545 608.765754 
L 353.702479 605.819966 
L 363.950413 602.874178 
L 374.198347 599.928389 
L 384.446281 596.982601 
L 394.694215 594.036813 
L 404.942149 591.091025 
L 415.190083 588.145236 
L 425.438017 585.199448 
L 435.68595 582.25366 
L 445.933884 579.307871 
L 456.181818 576.362083 
L 466.429752 573.416295 
L 476.677686 570.470506 
L 486.92562 567.524718 
L 497.173554 564.57893 
L 507.421488 561.633141 
L 517.669421 558.687353 
L 527.917355 555.741565 
L 538.165289 552.795776 
L 548.413223 549.849988 
L 558.661157 546.9042 
L 568.909091 543.958412 
L 579.157025 541.012623 
L 589.404959 538.066835 
L 599.652893 535.121047 
L 609.900826 532.175258 
L 620.14876 529.22947 
L 630.396694 526.283682 
L 640.644628 523.337893 
L 650.892562 520.392105 
L 661.140496 517.446317 
L 671.38843 514.500528 
L 681.636364 511.55474 
L 691.884298 508.608952 
L 702.132231 505.663163 
L 712.380165 502.717375 
L 722.628099 499.771587 
L 732.876033 496.825799 
L 743.123967 493.88001 
L 753.371901 490.934222 
L 763.619835 487.988434 
L 773.867769 485.042645 
L 784.115702 482.096857 
L 794.363636 479.151069 
L 804.61157 476.20528 
L 814.859504 473.259492 
L 825.107438 470.313704 
L 835.355372 467.367915 
L 845.603306 464.422127 
L 855.85124 461.476339 
L 866.099174 458.53055 
L 876.347107 455.584762 
L 886.595041 452.638974 
L 896.842975 449.693186 
L 907.090909 446.747397 
L 917.338843 443.801609 
L 927.586777 440.855821 
L 937.834711 437.910032 
L 948.082645 434.964244 
L 958.330579 432.018456 
L 968.578512 429.072667 
L 978.826446 426.126879 
L 989.07438 423.181091 
L 999.322314 420.235302 
L 1009.570248 417.289514 
L 1019.818182 414.343726 
L 1030.066116 411.397937 
L 1040.31405 408.452149 
L 1050.561983 405.506361 
L 1060.809917 402.560573 
L 1071.057851 399.614784 
L 1081.305785 396.668996 
L 1091.553719 393.723208 
L 1101.801653 390.777419 
L 1112.049587 387.831631 
L 1122.297521 384.885843 
L 1132.545455 381.940054 
L 1142.793388 378.994266 
L 1153.041322 376.048478 
L 1163.289256 373.102689 
L 1173.53719 370.156901 
L 1183.785124 367.211113 
L 1194.033058 364.265324 
L 1204.280992 361.319536 
L 1214.528926 358.373748 
L 1224.77686 355.42796 
L 1235.024793 352.482171 
L 1245.272727 349.536383 
" clip-path="url(#p61246d3c28)" style="fill: none; stroke-dasharray: 8.325,3.6; stroke-dashoffset: 0; stroke: #ff7f0e; stroke-width: 2.25"/>
   </g>
   <g id="line2d_20">
    <path d="M 230.727273 683.95475 
L 240.975207 680.649183 
L 251.22314 677.343616 
L 261.471074 674.03805 
L 271.719008 670.732483 
L 281.966942 667.426916 
L 292.214876 664.12135 
L 302.46281 660.815783 
L 312.710744 657.510216 
L 322.958678 654.20465 
L 333.206612 650.899083 
L 343.454545 647.593516 
L 353.702479 644.287949 
L 363.950413 640.982383 
L 374.198347 637.676816 
L 384.446281 634.371249 
L 394.694215 631.065683 
L 404.942149 627.760116 
L 415.190083 624.454549 
L 425.438017 621.148983 
L 435.68595 617.843416 
L 445.933884 614.537849 
L 456.181818 611.232282 
L 466.429752 607.926716 
L 476.677686 604.621149 
L 486.92562 601.315582 
L 497.173554 598.010016 
L 507.421488 594.704449 
L 517.669421 591.398882 
L 527.917355 588.093315 
L 538.165289 584.787749 
L 548.413223 581.482182 
L 558.661157 578.176615 
L 568.909091 574.871049 
L 579.157025 571.565482 
L 589.404959 568.259915 
L 599.652893 564.954349 
L 609.900826 561.648782 
L 620.14876 558.343215 
L 630.396694 555.037648 
L 640.644628 551.732082 
L 650.892562 548.426515 
L 661.140496 545.120948 
L 671.38843 541.815382 
L 681.636364 538.509815 
L 691.884298 535.204248 
L 702.132231 531.898682 
L 712.380165 528.593115 
L 722.628099 525.287548 
L 732.876033 521.981981 
L 743.123967 518.676415 
L 753.371901 515.370848 
L 763.619835 512.065281 
L 773.867769 508.759715 
L 784.115702 505.454148 
L 794.363636 502.148581 
L 804.61157 498.843015 
L 814.859504 495.537448 
L 825.107438 492.231881 
L 835.355372 488.926314 
L 845.603306 485.620748 
L 855.85124 482.315181 
L 866.099174 479.009614 
L 876.347107 475.704048 
L 886.595041 472.398481 
L 896.842975 469.092914 
L 907.090909 465.787348 
L 917.338843 462.481781 
L 927.586777 459.176214 
L 937.834711 455.870647 
L 948.082645 452.565081 
L 958.330579 449.259514 
L 968.578512 445.953947 
L 978.826446 442.648381 
L 989.07438 439.342814 
L 999.322314 436.037247 
L 1009.570248 432.73168 
L 1019.818182 429.426114 
L 1030.066116 426.120547 
L 1040.31405 422.81498 
L 1050.561983 419.509414 
L 1060.809917 416.203847 
L 1071.057851 412.89828 
L 1081.305785 409.592714 
L 1091.553719 406.287147 
L 1101.801653 402.98158 
L 1112.049587 399.676013 
L 1122.297521 396.370447 
L 1132.545455 393.06488 
L 1142.793388 389.759313 
L 1153.041322 386.453747 
L 1163.289256 383.14818 
L 1173.53719 379.842613 
L 1183.785124 376.537047 
L 1194.033058 373.23148 
L 1204.280992 369.925913 
L 1214.528926 366.620346 
L 1224.77686 363.31478 
L 1235.024793 360.009213 
L 1245.272727 356.703646 
" clip-path="url(#p61246d3c28)" style="fill: none; stroke-dasharray: 8.325,3.6; stroke-dashoffset: 0; stroke: #2ca02c; stroke-width: 2.25"/>
   </g>
   <g id="line2d_21">
    <path d="M 230.727273 589.045208 
L 240.975207 586.902319 
L 251.22314 584.75943 
L 261.471074 582.616541 
L 271.719008 580.473651 
L 281.966942 578.330762 
L 292.214876 576.187873 
L 302.46281 574.044984 
L 312.710744 571.902095 
L 322.958678 569.759206 
L 333.206612 567.616317 
L 343.454545 565.473428 
L 353.702479 563.330539 
L 363.950413 561.18765 
L 374.198347 559.044761 
L 384.446281 556.901872 
L 394.694215 554.758983 
L 404.942149 552.616094 
L 415.190083 550.473204 
L 425.438017 548.330315 
L 435.68595 546.187426 
L 445.933884 544.044537 
L 456.181818 541.901648 
L 466.429752 539.758759 
L 476.677686 537.61587 
L 486.92562 535.472981 
L 497.173554 533.330092 
L 507.421488 531.187203 
L 517.669421 529.044314 
L 527.917355 526.901425 
L 538.165289 524.758536 
L 548.413223 522.615646 
L 558.661157 520.472757 
L 568.909091 518.329868 
L 579.157025 516.186979 
L 589.404959 514.04409 
L 599.652893 511.901201 
L 609.900826 509.758312 
L 620.14876 507.615423 
L 630.396694 505.472534 
L 640.644628 503.329645 
L 650.892562 501.186756 
L 661.140496 499.043867 
L 671.38843 496.900978 
L 681.636364 494.758088 
L 691.884298 492.615199 
L 702.132231 490.47231 
L 712.380165 488.329421 
L 722.628099 486.186532 
L 732.876033 484.043643 
L 743.123967 481.900754 
L 753.371901 479.757865 
L 763.619835 477.614976 
L 773.867769 475.472087 
L 784.115702 473.329198 
L 794.363636 471.186309 
L 804.61157 469.04342 
L 814.859504 466.90053 
L 825.107438 464.757641 
L 835.355372 462.614752 
L 845.603306 460.471863 
L 855.85124 458.328974 
L 866.099174 456.186085 
L 876.347107 454.043196 
L 886.595041 451.900307 
L 896.842975 449.757418 
L 907.090909 447.614529 
L 917.338843 445.47164 
L 927.586777 443.328751 
L 937.834711 441.185862 
L 948.082645 439.042973 
L 958.330579 436.900083 
L 968.578512 434.757194 
L 978.826446 432.614305 
L 989.07438 430.471416 
L 999.322314 428.328527 
L 1009.570248 426.185638 
L 1019.818182 424.042749 
L 1030.066116 421.89986 
L 1040.31405 419.756971 
L 1050.561983 417.614082 
L 1060.809917 415.471193 
L 1071.057851 413.328304 
L 1081.305785 411.185415 
L 1091.553719 409.042525 
L 1101.801653 406.899636 
L 1112.049587 404.756747 
L 1122.297521 402.613858 
L 1132.545455 400.470969 
L 1142.793388 398.32808 
L 1153.041322 396.185191 
L 1163.289256 394.042302 
L 1173.53719 391.899413 
L 1183.785124 389.756524 
L 1194.033058 387.613635 
L 1204.280992 385.470746 
L 1214.528926 383.327857 
L 1224.77686 381.184967 
L 1235.024793 379.042078 
L 1245.272727 376.899189 
" clip-path="url(#p61246d3c28)" style="fill: none; stroke-dasharray: 8.325,3.6; stroke-dashoffset: 0; stroke: #d62728; stroke-width: 2.25"/>
   </g>
   <g id="patch_3">
    <path d="M 180 768.96 
L 180 103.68 
" style="fill: none; stroke: #000000; stroke-width: 0.8; stroke-linejoin: miter; stroke-linecap: square"/>
   </g>
   <g id="patch_4">
    <path d="M 1296 768.96 
L 1296 103.68 
" style="fill: none; stroke: #000000; stroke-width: 0.8; stroke-linejoin: miter; stroke-linecap: square"/>
   </g>
   <g id="patch_5">
    <path d="M 180 768.96 
L 1296 768.96 
" style="fill: none; stroke: #000000; stroke-width: 0.8; stroke-linejoin: miter; stroke-linecap: square"/>
   </g>
   <g id="patch_6">
    <path d="M 180 103.68 
L 1296 103.68 
" style="fill: none; stroke: #000000; stroke-width: 0.8; stroke-linejoin: miter; stroke-linecap: square"/>
   </g>
   <g id="legend_1">
    <g id="patch_7">
     <path d="M 1177.576562 171.505 
L 1289 171.505 
Q 1291 171.505 1291 169.505 
L 1291 110.68 
Q 1291 108.68 1289 108.68 
L 1177.576562 108.68 
Q 1175.576562 108.68 1175.576562 110.68 
L 1175.576562 169.505 
Q 1175.576562 171.505 1177.576562 171.505 
z
" style="fill: #ffffff; opacity: 0.8; stroke: #cccccc; stroke-linejoin: miter"/>
    </g>
    <g id="line2d_22">
     <path d="M 1179.576562 116.778437 
L 1189.576562 116.778437 
L 1199.576562 116.778437 
" style="fill: none; stroke-dasharray: 1.5,2.475; stroke-dashoffset: 0; stroke: #1f77b4; stroke-width: 1.5"/>
    </g>
    <g id="text_16">
     <!-- Completed_Avg -->
     <g transform="translate(1207.576562 120.278437) scale(0.1 -0.1)">
      <defs>
       <path id="DejaVuSans-43" d="M 4122 4306 
L 4122 3641 
Q 3803 3938 3442 4084 
Q 3081 4231 2675 4231 
Q 1875 4231 1450 3742 
Q 1025 3253 1025 2328 
Q 1025 1406 1450 917 
Q 1875 428 2675 428 
Q 3081 428 3442 575 
Q 3803 722 4122 1019 
L 4122 359 
Q 3791 134 3420 21 
Q 3050 -91 2638 -91 
Q 1578 -91 968 557 
Q 359 1206 359 2328 
Q 359 3453 968 4101 
Q 1578 4750 2638 4750 
Q 3056 4750 3426 4639 
Q 3797 4528 4122 4306 
z
" transform="scale(0.015625)"/>
       <path id="DejaVuSans-70" d="M 1159 525 
L 1159 -1331 
L 581 -1331 
L 581 3500 
L 1159 3500 
L 1159 2969 
Q 1341 3281 1617 3432 
Q 1894 3584 2278 3584 
Q 2916 3584 3314 3078 
Q 3713 2572 3713 1747 
Q 3713 922 3314 415 
Q 2916 -91 2278 -91 
Q 1894 -91 1617 61 
Q 1341 213 1159 525 
z
M 3116 1747 
Q 3116 2381 2855 2742 
Q 2594 3103 2138 3103 
Q 1681 3103 1420 2742 
Q 1159 2381 1159 1747 
Q 1159 1113 1420 752 
Q 1681 391 2138 391 
Q 2594 391 2855 752 
Q 3116 1113 3116 1747 
z
" transform="scale(0.015625)"/>
       <path id="DejaVuSans-6c" d="M 603 4863 
L 1178 4863 
L 1178 0 
L 603 0 
L 603 4863 
z
" transform="scale(0.015625)"/>
       <path id="DejaVuSans-64" d="M 2906 2969 
L 2906 4863 
L 3481 4863 
L 3481 0 
L 2906 0 
L 2906 525 
Q 2725 213 2448 61 
Q 2172 -91 1784 -91 
Q 1150 -91 751 415 
Q 353 922 353 1747 
Q 353 2572 751 3078 
Q 1150 3584 1784 3584 
Q 2172 3584 2448 3432 
Q 2725 3281 2906 2969 
z
M 947 1747 
Q 947 1113 1208 752 
Q 1469 391 1925 391 
Q 2381 391 2643 752 
Q 2906 1113 2906 1747 
Q 2906 2381 2643 2742 
Q 2381 3103 1925 3103 
Q 1469 3103 1208 2742 
Q 947 2381 947 1747 
z
" transform="scale(0.015625)"/>
       <path id="DejaVuSans-5f" d="M 3263 -1063 
L 3263 -1509 
L -63 -1509 
L -63 -1063 
L 3263 -1063 
z
" transform="scale(0.015625)"/>
       <path id="DejaVuSans-41" d="M 2188 4044 
L 1331 1722 
L 3047 1722 
L 2188 4044 
z
M 1831 4666 
L 2547 4666 
L 4325 0 
L 3669 0 
L 3244 1197 
L 1141 1197 
L 716 0 
L 50 0 
L 1831 4666 
z
" transform="scale(0.015625)"/>
       <path id="DejaVuSans-76" d="M 191 3500 
L 800 3500 
L 1894 563 
L 2988 3500 
L 3597 3500 
L 2284 0 
L 1503 0 
L 191 3500 
z
" transform="scale(0.015625)"/>
       <path id="DejaVuSans-67" d="M 2906 1791 
Q 2906 2416 2648 2759 
Q 2391 3103 1925 3103 
Q 1463 3103 1205 2759 
Q 947 2416 947 1791 
Q 947 1169 1205 825 
Q 1463 481 1925 481 
Q 2391 481 2648 825 
Q 2906 1169 2906 1791 
z
M 3481 434 
Q 3481 -459 3084 -895 
Q 2688 -1331 1869 -1331 
Q 1566 -1331 1297 -1286 
Q 1028 -1241 775 -1147 
L 775 -588 
Q 1028 -725 1275 -790 
Q 1522 -856 1778 -856 
Q 2344 -856 2625 -561 
Q 2906 -266 2906 331 
L 2906 616 
Q 2728 306 2450 153 
Q 2172 0 1784 0 
Q 1141 0 747 490 
Q 353 981 353 1791 
Q 353 2603 747 3093 
Q 1141 3584 1784 3584 
Q 2172 3584 2450 3431 
Q 2728 3278 2906 2969 
L 2906 3500 
L 3481 3500 
L 3481 434 
z
" transform="scale(0.015625)"/>
      </defs>
      <use xlink:href="#DejaVuSans-43"/>
      <use xlink:href="#DejaVuSans-6f" x="69.824219"/>
      <use xlink:href="#DejaVuSans-6d" x="131.005859"/>
      <use xlink:href="#DejaVuSans-70" x="228.417969"/>
      <use xlink:href="#DejaVuSans-6c" x="291.894531"/>
      <use xlink:href="#DejaVuSans-65" x="319.677734"/>
      <use xlink:href="#DejaVuSans-74" x="381.201172"/>
      <use xlink:href="#DejaVuSans-65" x="420.410156"/>
      <use xlink:href="#DejaVuSans-64" x="481.933594"/>
      <use xlink:href="#DejaVuSans-5f" x="545.410156"/>
      <use xlink:href="#DejaVuSans-41" x="595.410156"/>
      <use xlink:href="#DejaVuSans-76" x="657.943359"/>
      <use xlink:href="#DejaVuSans-67" x="717.123047"/>
     </g>
    </g>
    <g id="line2d_23">
     <path d="M 1179.576562 131.734687 
L 1189.576562 131.734687 
L 1199.576562 131.734687 
" style="fill: none; stroke-dasharray: 1.5,2.475; stroke-dashoffset: 0; stroke: #ff7f0e; stroke-width: 1.5"/>
    </g>
    <g id="text_17">
     <!-- Failed_Avg -->
     <g transform="translate(1207.576562 135.234687) scale(0.1 -0.1)">
      <defs>
       <path id="DejaVuSans-46" d="M 628 4666 
L 3309 4666 
L 3309 4134 
L 1259 4134 
L 1259 2759 
L 3109 2759 
L 3109 2228 
L 1259 2228 
L 1259 0 
L 628 0 
L 628 4666 
z
" transform="scale(0.015625)"/>
      </defs>
      <use xlink:href="#DejaVuSans-46"/>
      <use xlink:href="#DejaVuSans-61" x="48.394531"/>
      <use xlink:href="#DejaVuSans-69" x="109.673828"/>
      <use xlink:href="#DejaVuSans-6c" x="137.457031"/>
      <use xlink:href="#DejaVuSans-65" x="165.240234"/>
      <use xlink:href="#DejaVuSans-64" x="226.763672"/>
      <use xlink:href="#DejaVuSans-5f" x="290.240234"/>
      <use xlink:href="#DejaVuSans-41" x="340.240234"/>
      <use xlink:href="#DejaVuSans-76" x="402.773438"/>
      <use xlink:href="#DejaVuSans-67" x="461.953125"/>
     </g>
    </g>
    <g id="line2d_24">
     <path d="M 1179.576562 146.690938 
L 1189.576562 146.690938 
L 1199.576562 146.690938 
" style="fill: none; stroke-dasharray: 1.5,2.475; stroke-dashoffset: 0; stroke: #2ca02c; stroke-width: 1.5"/>
    </g>
    <g id="text_18">
     <!-- Terminated_Avg -->
     <g transform="translate(1207.576562 150.190938) scale(0.1 -0.1)">
      <defs>
       <path id="DejaVuSans-54" d="M -19 4666 
L 3928 4666 
L 3928 4134 
L 2272 4134 
L 2272 0 
L 1638 0 
L 1638 4134 
L -19 4134 
L -19 4666 
z
" transform="scale(0.015625)"/>
      </defs>
      <use xlink:href="#DejaVuSans-54"/>
      <use xlink:href="#DejaVuSans-65" x="44.083984"/>
      <use xlink:href="#DejaVuSans-72" x="105.607422"/>
      <use xlink:href="#DejaVuSans-6d" x="144.970703"/>
      <use xlink:href="#DejaVuSans-69" x="242.382812"/>
      <use xlink:href="#DejaVuSans-6e" x="270.166016"/>
      <use xlink:href="#DejaVuSans-61" x="333.544922"/>
      <use xlink:href="#DejaVuSans-74" x="394.824219"/>
      <use xlink:href="#DejaVuSans-65" x="434.033203"/>
      <use xlink:href="#DejaVuSans-64" x="495.556641"/>
      <use xlink:href="#DejaVuSans-5f" x="559.033203"/>
      <use xlink:href="#DejaVuSans-41" x="609.033203"/>
      <use xlink:href="#DejaVuSans-76" x="671.566406"/>
      <use xlink:href="#DejaVuSans-67" x="730.746094"/>
     </g>
    </g>
    <g id="line2d_25">
     <path d="M 1179.576562 161.647187 
L 1189.576562 161.647187 
L 1199.576562 161.647187 
" style="fill: none; stroke-dasharray: 1.5,2.475; stroke-dashoffset: 0; stroke: #d62728; stroke-width: 1.5"/>
    </g>
    <g id="text_19">
     <!-- All_Avg -->
     <g transform="translate(1207.576562 165.147187) scale(0.1 -0.1)">
      <use xlink:href="#DejaVuSans-41"/>
      <use xlink:href="#DejaVuSans-6c" x="68.408203"/>
      <use xlink:href="#DejaVuSans-6c" x="96.191406"/>
      <use xlink:href="#DejaVuSans-5f" x="123.974609"/>
      <use xlink:href="#DejaVuSans-41" x="173.974609"/>
      <use xlink:href="#DejaVuSans-76" x="236.507812"/>
      <use xlink:href="#DejaVuSans-67" x="295.6875"/>
     </g>
    </g>
   </g>
  </g>
 </g>
 <defs>
  <clipPath id="p61246d3c28">
   <rect x="180" y="103.68" width="1116" height="665.28"/>
  </clipPath>
 </defs>
</svg>
